<?xml version="1.0" encoding="utf-8"?>
<!-- Generator: Adobe Illustrator 21.1.0, SVG Export Plug-In . SVG Version: 6.00 Build 0)  -->
<svg version="1.1" id="Layer_1" xmlns="http://www.w3.org/2000/svg" xmlns:xlink="http://www.w3.org/1999/xlink" x="0px" y="0px"
	 viewBox="0 0 283.5 110.4" style="enable-background:new 0 0 283.5 110.4;" xml:space="preserve">
<style type="text/css">
	.st0{fill:#000;}
</style>
<g>
	<path class="st0" d="M171.9,76c-10.8,19.1-34.6,27.2-54.8,18.4C98.3,86.1,88.3,65,92.9,45.2c4.2-18,20.3-31.3,38.6-32.6
		c18.5-1.4,36,9.9,42.9,27c0.4,1.1,2.3,0.6,1.8-0.5c-7.1-17.9-24.8-29.3-44.1-28.4C113,11.5,96.4,25.2,91.4,43.5
		c-5.2,18.6,2.8,38.6,18.7,49.2c16.8,11.2,39.6,8.9,54.5-4.4c3.6-3.2,6.6-7.1,9-11.3C174.2,75.9,172.5,74.9,171.9,76"/>
	<path class="st0" d="M112.8,75.8l24.5-29h-33.6v-7h40.2c2.8,0,4.3,1.6,4.3,3.7c0,1.2-0.5,2.6-1.6,3.8l-23.4,28.5H112.8z"/>
	<path class="st0" d="M186.2,39.8v25.5l-26.8-25c-0.8-0.8-2-1.3-3.8-1.3c-2.6,0-4.3,1.1-4.3,3.3v33.5h7.5V50.3l26.8,25
		c0.8,0.8,2,1.3,3.8,1.3c2.6,0,4.3-1.1,4.3-3.3V39.8H186.2z"/>
</g>
</svg>
