<svg id="Partner" xmlns="http://www.w3.org/2000/svg" viewBox="0 0 400 180"><defs><style>.cls-1{fill:#000;}</style></defs><title>jz17-partner-acando</title><path class="cls-1" d="M364.14,81.61a28.75,28.75,0,0,0-34.82-20.88c-8.83,2.21-22,10.35-29.08,15l-1.34.89a28.75,28.75,0,0,0-26-16.6H252.31a3,3,0,0,0-3,3V109.4c0,.93-.34,1.63-.87,1.79s-1.33-.32-1.93-1.24c-3-4.67-10.95-17.51-17.93-28.83-4.54-7.37-8.83-14.33-11-17.72a7.13,7.13,0,0,0-8.1-3.29,7.23,7.23,0,0,0-5.14,7.1V106.7c0,2.2-.72,3.91-1.84,4.36s-2.6-.25-4-1.76c-4.68-5-8.52-14.79-12.23-24.3C181,71.6,176.51,60,168.8,60c-6.87,0-10.89,9.17-16,20.78-4.59,10.47-9.8,22.34-17.12,27.08-10.41,6.73-22.62,2.23-28-3.12A22.63,22.63,0,0,1,135,69.15a3,3,0,0,0,3-5.27,28.65,28.65,0,0,0-33.58,3.59C100,71,90.92,78.18,81,85.68c-.81-2-1.66-4-2.53-5.93C72.36,66.11,67.31,60,62.12,60c-2.7,0-7.21,1.74-15.27,16.77a142.08,142.08,0,0,0-11.09,26.85c-1.87,6.86.08,10.11,2.05,11.63a7.8,7.8,0,0,0,4.86,1.51,16.84,16.84,0,0,0,8.18-2.52c6.86-4,17.21-11.3,27.4-18.88,2.93,8,5.19,15.32,6.27,19a3,3,0,1,0,5.83-1.73c-1.18-4-3.72-12.22-7-21C87.75,88.24,92,84.95,95.84,82a28.72,28.72,0,0,0,7.59,27.08c7.93,7.93,23.09,12,35.57,3.93,8.86-5.73,14.46-18.49,19.39-29.74,3.17-7.23,7.51-17.14,10.41-17.14,3.56,0,8.51,12.69,11.79,21.09,3.92,10,8,20.43,13.47,26.26,3.22,3.41,7.21,4.63,10.69,3.25s5.68-5.15,5.68-10V67.2c0-.94.52-1.19.74-1.26.46-.13.9.11,1.26.68,2.12,3.36,6.4,10.31,10.93,17.67,7,11.35,14.93,24.22,18,29,2.1,3.24,5.54,4.71,8.76,3.76s5.22-3.93,5.22-7.62V66.12h17.52a22.66,22.66,0,0,1,20.92,14,202.17,202.17,0,0,0-20.94,16.55c-8.58,8.06-9,13.32-7.78,16.31,1.13,2.84,4,4.47,7.8,4.47a29,29,0,0,0,19.71-8.37,28.19,28.19,0,0,0,9-20.34,28.71,28.71,0,0,0-.66-6.12c11.17-7.56,22.89-14.24,29.87-16a22.63,22.63,0,1,1-16.46,27.44,3,3,0,0,0-5.9,1.48,28.71,28.71,0,0,0,55.7-13.94ZM47.81,109c-3.2,1.84-5.64,2-6.28,1.46-.38-.29-.84-1.76.1-5.21A135.67,135.67,0,0,1,51.81,80.41c4.39-8.33,7.53-12.09,9.21-13.53a2,2,0,0,1,2.48,0c1.66,1.35,4.81,5.07,9.44,15.37C74,84.59,75,87,76,89.47,65.49,97.32,54.7,105,47.81,109Zm225.07,2.37c-1.24,0-2-.31-2.14-.63-.3-.76.25-4,6.29-9.64a188.11,188.11,0,0,1,18.36-14.64q.11,1.12.11,2.27C295.5,101.69,283.55,111.37,272.87,111.37Z"/></svg>