<svg id="Partner" xmlns="http://www.w3.org/2000/svg" viewBox="0 0 400 180"><defs><style>.cls-1{fill:#000;}</style></defs><title>jz17-partner-acenture</title><path class="cls-1" d="M64.32,99.85c0,5.32-2.18,12.46-8.63,12.46-3.22,0-5.14-1.67-5.14-5,0-6.26,9.16-7.49,13.76-7.49m9.26,18.3V88.6c0-9.59-6.29-12.89-15.09-12.89-8.62,0-15.8,3.66-15.8,13.16h9.44c0-4.1,2.18-6.37,6.35-6.37,4.78,0,5.83,3.48,5.83,7.58v4.1c-9.41.26-23.17,1.58-23.17,14,0,7.05,5.58,10.89,12.19,10.89,4.54,0,8.72-1.48,10.83-5.75h.16v4.79h9.26"/><path class="cls-1" d="M102.24,90.88c0-4.26-1.21-8.36-6.26-8.36-6.1,0-7.94,6.37-7.94,11.33,0,10.45,6.08,18.46,17.09,18.46a21.12,21.12,0,0,0,7-1v5.92A40.39,40.39,0,0,1,100,119.11c-14.81,0-22.22-9.06-22.22-23.54,0-12,6.56-19.85,19-19.85,10.12,0,15.77,5,15.77,15.16H102.24"/><path class="cls-1" d="M139.4,90.88c0-4.26-1.22-8.36-6.27-8.36-6.1,0-7.95,6.37-7.95,11.33,0,10.45,6.11,18.46,17.1,18.46a21,21,0,0,0,7-1v5.92a40.32,40.32,0,0,1-12.11,1.92c-14.82,0-22.22-9.06-22.22-23.54,0-12,6.54-19.85,19-19.85,10.11,0,15.78,5,15.78,15.16H139.4"/><path class="cls-1" d="M177.32,89H162.17A7.71,7.71,0,0,1,170,81.89c4.47,0,7.36,2.72,7.36,7.15m9.15,5.86V92.53c0-10.1-5.22-16.81-15.77-16.81-12.37,0-17.79,7.76-17.79,19.52,0,13.66,6.18,23.87,20.9,23.87a37.23,37.23,0,0,0,11.6-1.65v-6.71a24.79,24.79,0,0,1-7.91,1.56c-9.41,0-15.63-8.62-15.63-17.41h24.61"/><path class="cls-1" d="M215.13,118.15V94.45c0-2,.16-7.32-1.47-8.89a3.9,3.9,0,0,0-2.81-.78c-6.95,0-9.74,9.84-9.74,15.41v18h-9.69V76.65h9.69v7.77h.16c2.2-5.3,6.37-8.71,12.3-8.71,7.9,0,11.25,6.54,11.25,13.68v28.75h-9.69"/><path class="cls-1" d="M244.92,83.39V103c0,4.89.52,9.33,6.56,9.33a18.08,18.08,0,0,0,4.43-.69v6.81a50.15,50.15,0,0,1-7.89.68c-8.49,0-12.72-2.78-12.72-11.42V83.39h-8.1V76.65h8.1V66.83l9.63-3.92V76.65h12.32v6.73H244.92"/><path class="cls-1" d="M285.24,118.15v-7.74h-.17c-2.19,5.22-6.45,8.7-12.31,8.7-7.94,0-11.22-6.52-11.22-13.69V76.65h9.65v23.73c0,2-.19,7.31,1.47,8.89a4,4,0,0,0,2.79.77c7,0,9.79-9.85,9.79-15.43v-18h9.66v41.49h-9.66"/><path class="cls-1" d="M310.68,100v18.2H301V76.65h9.69v7.68h.16c3.21-5.74,6.45-8.61,13.41-8.61V85.83c-9.92,0-13.58,4.35-13.58,14.12"/><path class="cls-1" d="M350.62,89H335.45a7.73,7.73,0,0,1,7.84-7.15c4.46,0,7.33,2.72,7.33,7.15m9.15,5.86V92.53c0-10.1-5.23-16.81-15.78-16.81-12.36,0-17.77,7.76-17.77,19.52,0,13.66,6.19,23.87,20.9,23.87a37.33,37.33,0,0,0,11.59-1.65v-6.71a24.74,24.74,0,0,1-7.91,1.56c-9.44,0-15.62-8.62-15.62-17.41h24.58"/><path class="cls-1" d="M227.18,28v6.82l22.07,8.56-22.07,8.5V58.7l30.06-12.22V40.23L227.18,28"/></svg>