<?xml version="1.0" encoding="utf-8"?>
<!-- Generator: Adobe Illustrator 16.0.0, SVG Export Plug-In . SVG Version: 6.00 Build 0)  -->
<!DOCTYPE svg PUBLIC "-//W3C//DTD SVG 1.1//EN" "http://www.w3.org/Graphics/SVG/1.1/DTD/svg11.dtd">
<svg version="1.1" id="Layer_1" xmlns="http://www.w3.org/2000/svg" xmlns:xlink="http://www.w3.org/1999/xlink" x="0px" y="0px"
	 width="1288px" height="405px" viewBox="0 0 1288 405" enable-background="new 0 0 1288 405" xml:space="preserve">
<g>
	<g id="layer1" transform="translate(479.64337,76.849087)">
		<path id="path3711" fill="#FFFFFF" d="M-332.813,263.581c-20.766-1.683-39.454-9.854-54.802-23.962
			c-4.411-4.055-8.034-8.104-11.635-13.006c-11.356-15.457-17.816-33.383-19.211-53.311c-0.243-3.479-0.243-10.454,0.001-14.084
			c1.89-28.078,13.903-52.211,34.776-69.859c14.467-12.231,31.677-19.421,50.508-21.098c3.009-0.269,9.257-0.362,12.363-0.187
			c15.945,0.903,31.48,6.289,45.788,15.875l1.05,0.704l0.07-0.693c0.26-2.542,0.501-3.698,1.109-5.314
			c1.7-4.517,5.55-8.238,10.148-9.81c2.345-0.801,2.474-0.812,9.617-0.812c5.8,0,6.579,0.022,7.501,0.22
			c6.953,1.487,12.124,6.966,13.209,13.995c0.13,0.841,0.159,16.086,0.159,83.836c0,79.388-0.01,82.855-0.219,83.958
			c-1.031,5.416-4.349,9.795-9.217,12.166c-1.403,0.684-3.288,1.277-4.741,1.495c-0.528,0.078-3.159,0.13-6.691,0.13
			c-3.532,0-6.163-0.052-6.691-0.13c-4.717-0.706-9.313-3.762-11.721-7.794c-1.419-2.377-2.394-5.463-2.395-7.584
			c0-0.313-0.053-0.6-0.117-0.64c-0.063-0.039-0.594,0.249-1.179,0.642c-7.906,5.299-16.932,9.53-25.743,12.068
			c-5.915,1.703-13.084,2.945-19.115,3.311C-323.183,263.891-329.713,263.832-332.813,263.581L-332.813,263.581z M-322.167,221.722
			c10.045-0.728,19.558-4.253,27.401-10.158c4.313-3.246,6.96-6.018,10.321-10.804c5.512-7.849,9.062-17.348,10.241-27.406
			c0.358-3.054,0.359-11.206,0.001-14.234c-1.641-13.903-7.221-25.651-16.568-34.883c-8.732-8.622-19.649-13.432-32.215-14.19
			c-8.144-0.491-17.46,1.436-24.844,5.14c-8.516,4.271-16.387,12.019-21.46,21.123c-5.322,9.55-7.997,22.05-7.25,33.88
			c0.82,12.986,5.152,24.554,12.751,34.055c5.097,6.372,12.564,11.598,20.754,14.523
			C-336.436,221.126-328.819,222.204-322.167,221.722L-322.167,221.722z M-168.527,263.746c-0.133-0.028-0.677-0.135-1.209-0.235
			c-1.371-0.261-2.961-0.822-4.279-1.511c-4.479-2.339-7.625-6.496-8.688-11.482c-0.21-0.987-0.219-4.385-0.219-84.623
			s0.01-83.636,0.219-84.622c0.758-3.556,2.452-6.513,5.167-9.02c2.423-2.238,5.602-3.717,8.949-4.166
			c0.765-0.103,29.836-0.127,113.476-0.098c107.772,0.039,112.485,0.05,113.355,0.258c7.013,1.683,11.821,6.735,13.083,13.751
			c0.137,0.756,0.164,14.768,0.164,83.957c0,77.979-0.014,83.117-0.208,84.146c-0.253,1.336-0.789,3.006-1.364,4.25
			c-1.034,2.238-3.115,4.747-5.222,6.296c-1.268,0.933-3.288,1.96-4.798,2.44c-2.227,0.71-2.85,0.755-9.761,0.705
			c-6.823-0.049-6.806-0.048-9.134-0.838c-5.083-1.726-9.193-6.101-10.631-11.314c-0.587-2.13-0.555,1.962-0.558-72.408
			l-0.002-69.531h-32.36h-32.36l-0.033,69.955c-0.032,67.148-0.042,69.99-0.254,70.859c-1.231,5.066-3.955,8.78-8.239,11.237
			c-1.667,0.955-3.288,1.521-5.446,1.901c-1.439,0.253-12.247,0.244-13.824-0.012c-4.874-0.791-9.242-3.848-11.751-8.226
			c-1.07-1.866-1.784-4.049-2.058-6.291c-0.095-0.779-0.133-20.751-0.133-70.257v-69.168h-32.301h-32.301v68.884
			c0,47.073-0.04,69.279-0.126,70.136c-0.238,2.358-0.745,4.069-1.834,6.189c-1.972,3.84-5.42,6.765-9.582,8.128
			c-2.269,0.743-2.816,0.788-9.507,0.772C-165.59,263.803-168.394,263.774-168.527,263.746L-168.527,263.746z M135.123,263.75
			c-0.133-0.03-0.677-0.139-1.209-0.24c-6.626-1.265-11.95-6.877-13.069-13.774c-0.268-1.653-0.265-244.423,0.003-246.061
			c0.993-6.062,5.175-11.096,10.888-13.106c2.508-0.883,3.068-0.936,9.92-0.934c5.851,0.001,6.09,0.009,7.306,0.277
			c3.427,0.754,6.181,2.24,8.533,4.604c2.333,2.345,3.78,5.02,4.567,8.437l0.275,1.197l0.034,40.063l0.035,40.063l1.601-1.058
			c12.427-8.207,26.802-13.308,41.765-14.818c4.954-0.5,12.033-0.56,16.815-0.142c23.672,2.069,45.148,12.777,61.528,30.678
			c19.376,21.174,28.692,50.494,25.2,79.3c-3.069,25.303-15.932,48.598-35.676,64.614c-16.794,13.623-37.281,20.979-58.416,20.976
			c-4.551-0.001-6.694-0.13-11.206-0.676c-11.19-1.354-22.485-4.915-32.845-10.355c-2.703-1.419-6.754-3.768-8.127-4.71
			c-0.278-0.191-0.532-0.348-0.564-0.348c-0.033,0-0.096,0.367-0.141,0.816c-0.407,4.116-2.042,7.604-4.891,10.435
			c-2.312,2.297-5.013,3.789-8.234,4.547c-0.798,0.188-1.684,0.217-7.379,0.242C138.277,263.792,135.256,263.78,135.123,263.75
			L135.123,263.75z M217.931,220.946c10.289-0.772,19.679-4.391,27.77-10.702c11.58-9.033,18.807-21.488,20.914-36.045
			c0.631-4.356,0.772-7.4,0.519-11.128c-0.795-11.67-4.314-21.792-10.54-30.312c-8.424-11.528-20.815-19.289-34.105-21.36
			c-3.012-0.469-4.719-0.603-7.702-0.603c-4.52,0-8.497,0.523-12.884,1.695c-8.1,2.165-15.282,6.254-22.018,12.535
			c-10.141,9.457-16.225,22.511-17.302,37.118c-0.322,4.369-0.189,7.644,0.5,12.34c1.812,12.34,7.606,23.575,16.509,32.012
			c1.025,0.973,2.056,1.929,2.289,2.124c8.887,7.452,18.554,11.486,29.518,12.317C214.093,221.142,215.294,221.144,217.931,220.946
			L217.931,220.946z M360.544,263.648c-3.672-0.63-7.334-2.697-9.737-5.496c-2.342-2.729-3.636-5.731-4.029-9.353
			c-0.179-1.646-0.18-164.155,0-165.808c0.557-5.138,3.184-9.485,7.434-12.302c1.249-0.829,2.394-1.395,3.75-1.854
			c2.306-0.783,2.337-0.786,8.952-0.842c4.225-0.035,6.359-0.007,7.077,0.091c7.028,0.97,12.621,6.195,14.116,13.188
			c0.211,0.988,0.22,4.296,0.22,84.623c0,80.238-0.01,83.636-0.219,84.623c-1.236,5.8-5.45,10.604-10.911,12.44
			c-2.359,0.794-2.286,0.787-9.314,0.819C363.031,263.798,361.244,263.768,360.544,263.648L360.544,263.648z M478.574,263.646
			c-3.692-0.693-6.715-2.317-9.259-4.974c-2.085-2.177-3.543-4.918-4.257-8.007l-0.272-1.176l-0.033-69.889l-0.032-69.89
			L450.9,109.67l-13.82-0.041l-1.21-0.274c-6.419-1.453-11.22-6.002-12.817-12.145c-0.525-2.015-0.575-2.898-0.521-9.103
			c0.056-6.357,0.084-6.644,0.879-8.952c1.97-5.723,7.073-10.006,13.124-11.015c0.845-0.141,3.461-0.172,14.608-0.174l13.579-0.002
			V36.509c0-27.029,0.025-31.62,0.178-32.636c0.813-5.409,4.031-9.891,8.92-12.422c1.461-0.756,2.581-1.154,4.331-1.539
			c1.235-0.271,1.441-0.279,7.44-0.279c5.986,0,6.207,0.009,7.426,0.277c3.35,0.739,6.157,2.232,8.43,4.482
			c2.673,2.646,4.277,5.803,4.825,9.492c0.165,1.115,0.188,4.926,0.188,32.671v31.408h13.579c11.656,0.001,13.73,0.027,14.64,0.187
			c4.192,0.732,7.925,2.939,10.427,6.165c1.885,2.429,2.943,4.889,3.396,7.891c0.255,1.693,0.257,11.497,0,13.192
			c-0.813,5.409-4.031,9.891-8.92,12.422c-1.433,0.742-2.558,1.146-4.271,1.533l-1.21,0.274l-13.821,0.041l-13.821,0.041v69.345
			c0,74.116,0.028,70.314-0.549,72.402c-1.092,3.956-3.559,7.396-6.891,9.609c-1.757,1.167-3.631,1.972-5.747,2.468
			c-0.797,0.188-1.69,0.217-7.379,0.241c-4.939,0.021-6.673-0.01-7.319-0.131L478.574,263.646z M646.973,263.58
			c-15.972-1.315-30.312-6.281-43.431-15.038c-6.395-4.27-12.827-9.837-17.492-15.142c-13.558-15.417-21.93-34.455-24.23-55.104
			c-0.521-4.681-0.619-6.639-0.609-12.219c0.011-6.837,0.393-11.66,1.391-17.6c3.697-21.985,13.818-40.891,29.933-55.91
			c15.235-14.199,33.777-22.524,54.138-24.306c3.078-0.27,9.19-0.362,12.301-0.186c11.031,0.625,22.026,3.422,32.278,8.211
			c4.437,2.073,10.572,5.558,13.813,7.846c0.41,0.29,0.778,0.527,0.816,0.527s0.069-0.34,0.069-0.756c0-2.75,1.29-6.466,3.145-9.066
			c2.081-2.92,5.427-5.249,8.987-6.259c2.117-0.601,2.756-0.641,9.341-0.585c5.194,0.044,6.177,0.081,6.956,0.262
			c4.509,1.045,8.109,3.52,10.58,7.271c1.121,1.702,1.886,3.527,2.385,5.69l0.278,1.205l0.037,82.688
			c0.026,60.411,0,83.011-0.099,83.889c-0.508,4.509-2.734,8.536-6.226,11.257c-1.72,1.34-3.333,2.202-5.3,2.832
			c-2.222,0.711-2.846,0.757-9.762,0.707c-6.826-0.049-6.805-0.047-9.134-0.841c-6.166-2.102-10.694-7.97-11.154-14.453l-0.07-0.989
			l-0.86,0.579c-10.146,6.836-21.623,11.702-32.979,13.983c-3.647,0.733-8.814,1.418-12.279,1.627
			C656.558,263.895,650.064,263.834,646.973,263.58L646.973,263.58z M657.656,221.721c2.689-0.191,6.458-0.793,9.157-1.461
			c7.973-1.978,15.62-6.045,21.734-11.562c2.475-2.233,4.387-4.445,6.784-7.854c4.654-6.613,8.011-14.609,9.539-22.731
			c0.929-4.932,1.018-5.981,1.014-11.916c0-4.713-0.031-5.477-0.271-7.319c-1.388-10.682-4.809-19.717-10.388-27.436
			c-9.446-13.067-22.654-20.439-38.334-21.396c-6.415-0.391-13.866,0.758-20.263,3.124c-9.256,3.425-17.137,9.778-23.456,18.911
			c-5.893,8.518-9.155,18.655-9.901,30.764c-0.173,2.818-0.179,3.626-0.045,6.17c0.525,10.06,2.949,19.049,7.258,26.915
			c2.077,3.792,5.025,7.946,7.617,10.733c3.556,3.822,8.798,7.647,13.8,10.068C639.606,220.46,649.209,222.32,657.656,221.721
			L657.656,221.721z M365.643,33.777c-6.084-0.714-10.588-2.8-14.55-6.739c-4.474-4.447-6.859-10.206-6.862-16.563
			c0-6.426,2.463-12.29,7.041-16.744c3.553-3.456,7.796-5.57,12.738-6.347c1.863-0.293,5.139-0.312,6.881-0.04
			c6.96,1.085,12.692,4.803,16.447,10.664c3.685,5.754,4.594,13.339,2.38,19.873c-2.825,8.342-9.866,14.306-18.504,15.675
			C370.088,33.733,366.491,33.876,365.643,33.777L365.643,33.777z"/>
	</g>
</g>
</svg>
