<?xml version="1.0" encoding="utf-8"?>
<!-- Generator: Adobe Illustrator 21.1.0, SVG Export Plug-In . SVG Version: 6.00 Build 0)  -->
<svg version="1.1" id="Layer_1" xmlns="http://www.w3.org/2000/svg" xmlns:xlink="http://www.w3.org/1999/xlink" x="0px" y="0px"
	 viewBox="0 0 283.5 110.4" style="enable-background:new 0 0 283.5 110.4;" xml:space="preserve">
<style type="text/css">
	.st0{fill:#000;}
</style>
<g id="Layer_2">
	<g id="Blue">
		<path class="st0" d="M33.2,53.9c-0.3-0.4-0.8-0.4-1.1-0.2c-0.1,0.1-0.2,0.2-0.2,0.3l-7,14.1c-0.2,0.4,0,0.9,0.4,1.1
			c0.1,0.1,0.2,0.1,0.4,0.1h9.8c0.3,0,0.6-0.2,0.8-0.5C38.2,64.5,36.9,57.9,33.2,53.9z"/>
		<path class="st0" d="M38.4,41.1c-3.6,5.5-4,12.5-1.1,18.3l4.7,9.4c0.1,0.3,0.4,0.5,0.8,0.5h9.8c0.5,0,0.8-0.4,0.8-0.8
			c0-0.1,0-0.3-0.1-0.4c0,0-13.2-26.4-13.5-27c-0.2-0.4-0.7-0.6-1.1-0.4C38.6,40.8,38.5,41,38.4,41.1z"/>
		<path class="st0" d="M153.3,52.4c0,3.5,1.6,6.3,7.9,7.5c3.8,0.8,4.6,1.4,4.6,2.7c0,1.2-0.8,2-3.4,2c-3.2-0.1-6.4-0.9-9.2-2.5v5.7
			c1.9,0.9,4.4,2,9.1,2c6.6,0,9.2-2.9,9.2-7.3 M171.5,62.4c0-4.1-2.2-6.1-8.4-7.4c-3.4-0.8-4.2-1.5-4.2-2.6c0-1.4,1.2-1.9,3.5-1.9
			c2.7,0,5.4,0.8,8,2V47c-2.4-1.1-5.1-1.7-7.8-1.6c-6.1,0-9.3,2.7-9.3,7"/>
		<polygon class="st0" points="238.2,45.8 238.2,69.4 243.2,69.4 243.2,51.4 245.4,56.1 252.5,69.4 258.8,69.4 258.8,45.8 
			253.8,45.8 253.8,61 251.9,56.6 246.2,45.8 		"/>
		<rect x="200.7" y="45.8" class="st0" width="5.5" height="23.6"/>
		<path class="st0" d="M194.4,62.4c0-4.1-2.2-6.1-8.4-7.4c-3.4-0.8-4.2-1.5-4.2-2.6c0-1.4,1.2-1.9,3.5-1.9c2.7,0,5.4,0.8,8,2V47
			c-2.4-1.1-5.1-1.7-7.8-1.6c-6.1,0-9.3,2.7-9.3,7c0,3.5,1.6,6.3,7.9,7.5c3.8,0.8,4.6,1.4,4.6,2.7c0,1.2-0.8,2-3.4,2
			c-3.2-0.1-6.4-0.9-9.2-2.5v5.7c1.9,0.9,4.4,2,9.1,2C191.8,69.7,194.4,66.8,194.4,62.4"/>
		<polygon class="st0" points="110.6,45.8 110.6,69.4 121.9,69.4 123.7,64.3 116.1,64.3 116.1,45.8 		"/>
		<polygon class="st0" points="88.3,45.8 88.3,50.9 94.4,50.9 94.4,69.4 99.9,69.4 99.9,50.9 106.5,50.9 106.5,45.8 		"/>
		<path class="st0" d="M80.3,45.8H73l-8.2,23.6h6.3l1.2-4c2.9,0.8,5.9,0.8,8.8,0l1.2,4h6.3L80.3,45.8z M76.6,61.1c-1,0-2-0.1-3-0.4
			l3-10.3l3,10.3C78.7,61,77.7,61.1,76.6,61.1z"/>
		<path class="st0" d="M141.4,45.8h-7.2l-8.2,23.6h6.3l1.2-4c2.9,0.8,5.9,0.8,8.8,0l1.2,4h6.3L141.4,45.8z M137.8,61.1
			c-1,0-2-0.1-3-0.4l3-10.3l3,10.3C139.8,61,138.8,61.1,137.8,61.1z"/>
		<path class="st0" d="M226,45.8h-7.2l-8.2,23.6h6.3l1.2-4c2.9,0.8,5.9,0.8,8.8,0l1.2,4h6.3L226,45.8z M222.4,61.1c-1,0-2-0.1-3-0.4
			l3-10.3l3,10.3C224.4,61,223.4,61.1,222.4,61.1z"/>
	</g>
</g>
</svg>
