<svg id="Partner" xmlns="http://www.w3.org/2000/svg" viewBox="0 0 400 180"><defs><style>.cls-1{fill:#000;}</style></defs><title>jz17-partner-basefarm</title><path class="cls-1" d="M150.42,84.59c5.43,0,5.72,4.07,5.72,8.08s-.28,8.13-5.72,8.13-5.66-4.32-5.66-8.13S145,84.59,150.42,84.59ZM139,105.74h5.78V103a10.6,10.6,0,0,0,7.42,3,9.7,9.7,0,0,0,7.7-3.4c1.59-1.86,2-3.55,2-10s-.45-8.08-2-9.93a9.69,9.69,0,0,0-7.7-3.4,11,11,0,0,0-7.42,3.09V69.1H139Z"/><path class="cls-1" d="M183.42,96.58c0,4.07-1.64,4.53-6.45,4.53-3.9,0-5.43-1.55-5.43-3.29,0-1.91,1.59-3.14,5-3.14h6.91Zm0,9.16h5.77V87.93c0-6.44-4.87-8.59-11.94-8.59-4.31,0-7.48,1-9.68,3.81l4.53,3.14c1-1.49,2.44-2,5.43-2,4.13,0,5.89.87,5.89,3.34v2.73h-8c-6.17,0-9.35,3.56-9.35,7.72,0,4.53,3.74,8,10.13,8,3.91,0,5.89-.83,7.08-2.63h.11Z"/><path class="cls-1" d="M198.18,97.76a12.69,12.69,0,0,0,9.06,3.35c3.28,0,5.66-1.14,5.66-3.35,0-1.86-1.53-2.42-3.51-2.57l-5.1-.41c-4.75-.36-8.26-2.94-8.26-7.41,0-5.31,4.64-8,10.7-8A17.44,17.44,0,0,1,218,82.89l-3.57,3.8a13.61,13.61,0,0,0-7.7-2.42c-3.68,0-4.92,1.34-4.92,3.14,0,1.13.9,2.27,3.79,2.47l4.76.31c5.95.36,8.32,3.65,8.32,7.82,0,5.1-5.21,8-11.89,8a19.07,19.07,0,0,1-12.62-4.69Z"/><path class="cls-1" d="M228.87,90.35c.11-4,2.66-6.07,6.05-6.07s5.89,2.11,6.06,6.07Zm17.89,4.32V90.35c0-6.75-5.49-11-11.83-11-5.55,0-11.83,3.29-11.83,13.44,0,10.7,6.85,13.28,12.74,13.28a13.83,13.83,0,0,0,10.36-4.23L242,98.59a9.43,9.43,0,0,1-6.29,2.53c-4,0-6.84-2.16-6.84-6.44Z"/><path class="cls-1" d="M253.73,83.67h-2.89v-4h2.89V76.19c0-4.89,3.34-7.1,7.81-7.1h3.74V74H262c-1.87,0-2.49.57-2.49,2.16v3.45h5.78v4H259.5v22.08h-5.77Z"/><path class="cls-1" d="M284.94,96.58c0,4.07-1.64,4.53-6.46,4.53-3.9,0-5.43-1.55-5.43-3.29,0-1.91,1.59-3.14,5-3.14h6.9Zm0,9.16h5.78V87.93c0-6.44-4.87-8.59-11.95-8.59-4.31,0-7.47,1-9.68,3.81l4.53,3.14c1-1.49,2.43-2,5.43-2,4.13,0,5.89.87,5.89,3.34v2.73h-8c-6.17,0-9.34,3.56-9.34,7.72,0,4.53,3.74,8,10.14,8,3.9,0,5.88-.83,7.07-2.63h.11Z"/><path class="cls-1" d="M296.86,79.65h5.77v2.78h.11a9.61,9.61,0,0,1,7.47-3.09,10.1,10.1,0,0,1,6,2L312,85.88a6,6,0,0,0-3.79-1.29c-2.83,0-5.61,1.65-5.61,5.46v15.7h-5.77Z"/><path class="cls-1" d="M319.23,79.65H325v2.78h.12a9.59,9.59,0,0,1,7.47-3.09,10.58,10.58,0,0,1,8.1,3.4c2.38-2.37,5.15-3.4,9.06-3.4,4.47,0,9.57,3.13,9.57,9.05v17.35h-5.77V90.2a5.32,5.32,0,0,0-5.66-5.61c-3.28,0-5.72,2.06-5.72,5.61v15.54h-5.78V90.2a5.31,5.31,0,0,0-5.65-5.61c-3.28,0-5.72,2.06-5.72,5.61v15.54h-5.77Z"/><path class="cls-1" d="M43.86,61.31a4.36,4.36,0,0,0-3.17,4.2v46.25A4.46,4.46,0,0,0,44.16,116c.26.1,13.78,4.46,36.64,4.46s36.38-4.36,36.95-4.54a4.35,4.35,0,0,0,3.17-4.2V65.52a4.45,4.45,0,0,0-3.47-4.28c-.26-.1-13.78-4.46-36.65-4.46S44.42,61.13,43.86,61.31Zm36.95,1.2c18.94,0,31.32,3.15,34.38,4v44.2c-3.48,1-15.72,4-34.38,4-18.94,0-31.32-3.15-34.38-4V66.54C49.9,65.56,62.15,62.51,80.81,62.51Z"/><path class="cls-1" d="M61.9,72.76V83.42A3.13,3.13,0,0,0,65,86.35H93.62a4,4,0,0,1,4.19,4.19v4.2a3.77,3.77,0,0,1-1.19,3,3.71,3.71,0,0,1-3,1.1H68.76l0-5.6a3.17,3.17,0,0,0-3.47-3.05,3.13,3.13,0,0,0-3.4,3.05l0,9.07A3,3,0,0,0,63,104.66a2.87,2.87,0,0,0,2.24,1H93.62a10.37,10.37,0,0,0,8-3,9.91,9.91,0,0,0,3.08-7.92v-4.2a10.19,10.19,0,0,0-3.13-7.9,10.34,10.34,0,0,0-7.92-3.15H68.76V72.76a3.25,3.25,0,0,0-3.47-3.15A3.21,3.21,0,0,0,61.9,72.76Z"/></svg>