<svg id="Partner" xmlns="http://www.w3.org/2000/svg" viewBox="0 0 400 180"><defs><style>.cls-1{fill:#fff;}</style></defs><title>jz17-partner-bekk</title><path class="cls-1" d="M42.36,51.56H70.07s22.85-1.93,22.85,17.3S73.22,86.64,69.46,86.64l-27.17,0V78.1h28.2s12.42.57,12.42-9.24c0-9.47-8.39-8.81-12.72-8.81H42.36Z"/><path class="cls-1" d="M89.19,93a16.08,16.08,0,0,1,8,14.5c0,19.23-19.71,18.14-23.47,18.14l-32.72,0v-8.52H74.54s12.56.16,12.64-9.65c.06-6.74-4.23-11.87-8.33-14.5Z"/><path class="cls-1" d="M121.85,93h11.84V109.8c0,5.52,3.31,7.33,6.59,7.33h32.37l0,8.64H133.64c-4.06,0-11.79-2.63-11.79-13.6Z"/><path class="cls-1" d="M172.75,78.15h-33.5c-3.28,0-5.6-.32-5.6-4.08,0-.59,0-9.15.06-9.8,0-3.95,2-4.2,5.31-4.2h33.65V51.56H134.49s-12.64-.84-12.64,12.68v9.43c0,12.14,9.06,12.93,13.12,12.93h37.7Z"/><path class="cls-1" d="M257.47,51.58c-1.78,2-18.33,21.75-20.43,23.82-3.5,3.45-9.76,2.71-14.84,2.71s-6-3.9-6-6.55,0-17.58,0-20H204.36c0,2.53,0,23.25,0,26.53,0,2.61,1.22,8.52,11.72,8.52l20.22,0c2.6,0,6.51-1.58,11-6.9C248.69,78.13,267.9,55,271,51.58Z"/><path class="cls-1" d="M245.87,98.3C243.4,95.63,241.15,93,233.36,93H216.13c-8.62,0-11.69,6.26-11.69,9.54v23.13l11.74,0c0-2.4,0-17.26,0-19.92s.78-4.15,5.93-4.15,4.28,0,4.86,0c4.85,0,7.58.17,10.08,2.67,2.09,2.08,19.29,19.3,21.26,21.38h13.51C268.53,122.08,247.27,99.81,245.87,98.3Z"/><path class="cls-1" d="M344.63,51.61c-1.78,2-18.33,21.75-20.43,23.82-3.5,3.45-9.76,2.71-14.84,2.71s-6-3.9-6-6.55,0-17.58,0-20H291.52c0,2.53,0,23.25,0,26.53,0,2.61,1.22,8.52,11.72,8.52l20.22,0c2.6,0,6.51-1.58,11-6.9,1.33-1.57,20.55-24.69,23.67-28.12Z"/><path class="cls-1" d="M333,98.33C330.55,95.65,328.3,93,320.52,93H303.28c-8.62,0-11.69,6.26-11.69,9.54v23.13l11.74,0c0-2.4,0-17.26,0-19.92s.78-4.15,5.93-4.15,4.28,0,4.86,0c4.85,0,7.58.17,10.08,2.67,2.09,2.08,19.29,19.3,21.26,21.38H359C355.69,122.1,334.43,99.84,333,98.33Z"/></svg>