<svg id="Partner" xmlns="http://www.w3.org/2000/svg" viewBox="0 0 400 180"><defs><style>.cls-1{fill:#000;}</style></defs><title>jz17-partner-bouvet</title><path class="cls-1" d="M265.11,69c-2,5.12-4.42,11.53-6.88,17.72-4,10-7.9,20.36-8.86,22.77-1.05-2.33-5.57-12.8-10.06-22.77-2.87-6.36-5.61-12.87-7.8-17.72H218.9l7.81,17.72,13.69,31.09a9.8,9.8,0,0,0,8.76,6,8.9,8.9,0,0,0,9.13-5.65L270.6,86.76,277.45,69Z"/><path class="cls-1" d="M202.85,86.76V97.31a14.69,14.69,0,1,1-29.38,0V69.07H162V97.31a26.18,26.18,0,1,0,52.37,0V69.07H202.85Z"/><path class="cls-1" d="M68.53,68.33a27.22,27.22,0,0,0-16,5.2V39.43H41V96A27.51,27.51,0,1,0,68.53,68.33Zm0,43.81A16.16,16.16,0,1,1,84.58,96,16.12,16.12,0,0,1,68.53,112.14Z"/><path class="cls-1" d="M128.69,68.17a27.67,27.67,0,1,0,26,18.59A27.59,27.59,0,0,0,128.69,68.17Zm0,43.82a16.18,16.18,0,1,1,16-16.17A16.11,16.11,0,0,1,128.69,112Z"/><path class="cls-1" d="M304.52,112.13a16.16,16.16,0,0,1,0-32.31,15.78,15.78,0,0,1,10.24,3.79l0,0-5.42,3.13-7.48,4.32,0,0a5.75,5.75,0,0,0,5.75,10L326.41,90.2h0A5.72,5.72,0,0,0,329,86.76a5.67,5.67,0,0,0-.56-4.42,28.16,28.16,0,0,0-3.33-4.61l-.08-.08a27.4,27.4,0,0,0-46.49,9.1,27.54,27.54,0,0,0,51.36,19.87l-10.57-4.56A16,16,0,0,1,304.52,112.13Z"/><path class="cls-1" d="M348.09,39.59H336.62v63a21.16,21.16,0,0,0,20.8,21.09H359V112.19h-1.31a9.65,9.65,0,0,1-9.6-9.63v-22H359V69.07h-10.9Z"/></svg>