<?xml version="1.0" encoding="utf-8"?>
<!-- Generator: Adobe Illustrator 21.1.0, SVG Export Plug-In . SVG Version: 6.00 Build 0)  -->
<svg version="1.1" id="Layer_1" xmlns="http://www.w3.org/2000/svg" xmlns:xlink="http://www.w3.org/1999/xlink" x="0px" y="0px"
	 viewBox="0 0 283.5 110.4" style="enable-background:new 0 0 283.5 110.4;" xml:space="preserve">
<style type="text/css">
	.st0{fill:#000;}
</style>
<g>
	<path class="st0" d="M75.5,90.5c0.5,0.3,1.5,0.7,2.4,0.7c1.3,0,2.1-0.8,2.1-1.8c0-0.9-0.4-1.4-1.6-2.1c-1.3-0.7-2-1.7-2-2.8
		c0-2,1.7-3.5,4-3.5c1,0,1.9,0.3,2.3,0.6L82.3,83c-0.4-0.2-1.1-0.5-1.9-0.5c-1.2,0-2,0.7-2,1.7c0,0.8,0.5,1.3,1.5,1.9
		c1.2,0.7,2.1,1.7,2.1,2.9c0,2.3-1.9,3.7-4.3,3.7c-1.2,0-2.3-0.4-2.8-0.8L75.5,90.5z"/>
	<path class="st0" d="M92,91.8c-0.8,0.5-2.2,0.9-3.7,0.9c-2.9,0-4.2-2-4.2-4.5c0-3.4,2.5-7.2,6.1-7.2c2.1,0,3.3,1.3,3.3,2.9
		c0,2.9-3.3,3.7-7.4,3.6c-0.1,0.5,0,1.5,0.2,2.1c0.4,1,1.3,1.5,2.5,1.5c1.3,0,2.3-0.4,3-0.8L92,91.8z M91.6,83.9
		c0-0.9-0.7-1.4-1.7-1.4c-1.8,0-3.2,1.8-3.6,3.5C89.2,86.1,91.6,85.7,91.6,83.9L91.6,83.9z"/>
	<path class="st0" d="M102,92c-0.6,0.3-1.7,0.7-3.2,0.7c-2.9,0-4.3-1.9-4.3-4.3c0-3.8,2.8-7.3,6.8-7.3c1,0,2,0.3,2.3,0.5l-0.6,1.5
		c-0.4-0.2-1.1-0.4-1.9-0.4c-2.9,0-4.7,2.9-4.7,5.5c0,1.8,0.9,3,2.8,3c1.2,0,2-0.3,2.6-0.6L102,92z"/>
	<path class="st0" d="M115,81.3l-1.5,7.9c-0.2,1.2-0.4,2.3-0.5,3.2h-1.7l0.3-2.1h0c-1,1.4-2.5,2.3-3.9,2.3c-1.4,0-2.9-0.7-2.9-3.2
		c0-0.5,0.1-1.2,0.2-1.9l1.2-6.3h1.9l-1.2,6.2c-0.1,0.6-0.2,1.1-0.2,1.6c0,1.2,0.5,1.9,1.8,1.9c1.4,0,3.2-1.6,3.6-4.1l1.1-5.7H115z"
		/>
	<path class="st0" d="M116.2,92.4l1.4-7.2c0.3-1.5,0.4-2.9,0.6-4h1.7c-0.1,0.8-0.2,1.5-0.3,2.4h0.1c0.7-1.5,1.9-2.7,3.4-2.7
		c0.2,0,0.4,0,0.6,0l-0.4,1.9c-0.1,0-0.3,0-0.5,0c-1.6,0-3.1,2-3.6,4.6l-0.9,4.9H116.2z"/>
	<path class="st0" d="M123.5,92.4l2.1-11.1h1.9l-2.1,11.1H123.5z M127.1,79.2c-0.7,0-1.1-0.5-1.1-1.2c0-0.8,0.6-1.4,1.3-1.4
		c0.7,0,1.2,0.5,1.2,1.2C128.4,78.7,127.9,79.2,127.1,79.2L127.1,79.2z"/>
	<path class="st0" d="M128.8,92.4l1.5-7.9c0.3-1.2,0.4-2.3,0.5-3.2h1.7l-0.3,2.2h0c1-1.6,2.5-2.4,4.1-2.4c1.3,0,2.8,0.8,2.8,3.1
		c0,0.5-0.1,1.2-0.2,1.8l-1.2,6.5h-1.9l1.2-6.4c0.1-0.4,0.1-0.9,0.1-1.4c0-1.1-0.4-1.9-1.7-1.9c-1.4,0-3.3,1.6-3.8,4.4l-1,5.4H128.8
		z"/>
	<path class="st0" d="M141.2,94.9c0.7,0.4,1.8,0.7,2.9,0.7c1.9,0,3.4-0.9,4-4l0.4-1.7h0c-1,1.6-2.3,2.4-3.9,2.4
		c-2.3,0-3.4-1.9-3.4-3.9c0-3.8,2.8-7.5,7.1-7.5c1.3,0,2.7,0.4,3.6,0.8l-1.7,9.2c-0.4,2.4-1.1,4-2.2,5c-1.1,0.9-2.6,1.2-3.9,1.2
		c-1.4,0-2.6-0.3-3.3-0.8L141.2,94.9z M149.7,82.9c-0.4-0.2-1.1-0.4-1.8-0.4c-2.8,0-4.7,2.9-4.7,5.7c0,1.2,0.4,2.7,2.1,2.7
		c1.6,0,3.3-2.1,3.7-4.3L149.7,82.9z"/>
	<path class="st0" d="M162.2,78.6l-0.5,2.7h2.7l-0.3,1.5h-2.7l-1,5.4c-0.1,0.6-0.2,1.2-0.2,1.8c0,0.7,0.3,1.1,1.1,1.1
		c0.3,0,0.6,0,0.9-0.1l-0.1,1.5c-0.3,0.1-0.9,0.2-1.5,0.2c-1.7,0-2.3-1-2.3-2.2c0-0.6,0.1-1.3,0.3-2.1l1.1-5.6H158l0.3-1.5h1.6
		l0.4-2L162.2,78.6z"/>
	<path class="st0" d="M164.5,92.4l1.4-7.2c0.3-1.5,0.4-2.9,0.6-4h1.7c-0.1,0.8-0.2,1.5-0.3,2.4h0.1c0.7-1.5,1.9-2.7,3.4-2.7
		c0.2,0,0.4,0,0.6,0l-0.4,1.9c-0.1,0-0.3,0-0.5,0c-1.6,0-3.1,2-3.6,4.6l-0.9,4.9H164.5z"/>
	<path class="st0" d="M178.9,92.4c0-0.7,0.1-1.7,0.3-2.9h0c-1.2,2.3-2.8,3.1-4.3,3.1c-2,0-3.2-1.6-3.2-3.7c0-3.9,2.9-8,7.7-8
		c1.1,0,2.2,0.2,3,0.4l-1.1,5.8c-0.4,1.9-0.5,3.9-0.5,5.2H178.9z M180.1,82.7c-0.3-0.1-0.7-0.2-1.3-0.2c-2.9,0-5.2,3-5.2,6.1
		c0,1.2,0.4,2.5,1.9,2.5c1.6,0,3.5-2.1,4-5L180.1,82.7z"/>
	<path class="st0" d="M183.5,92.4l1.5-7.9c0.3-1.2,0.4-2.3,0.5-3.2h1.7l-0.3,2.2h0c1-1.6,2.5-2.4,4.1-2.4c1.3,0,2.8,0.8,2.8,3.1
		c0,0.5-0.1,1.2-0.2,1.8l-1.2,6.5h-1.9l1.2-6.4c0.1-0.4,0.1-0.9,0.1-1.4c0-1.1-0.4-1.9-1.7-1.9c-1.4,0-3.3,1.6-3.8,4.4l-1,5.4H183.5
		z"/>
	<path class="st0" d="M195.9,90.5c0.5,0.3,1.5,0.7,2.4,0.7c1.3,0,2.1-0.8,2.1-1.8c0-0.9-0.4-1.4-1.6-2.1c-1.3-0.7-2-1.7-2-2.8
		c0-2,1.7-3.5,4.1-3.5c1,0,1.9,0.3,2.3,0.6l-0.5,1.4c-0.4-0.2-1.1-0.5-1.9-0.5c-1.2,0-2,0.7-2,1.7c0,0.8,0.5,1.3,1.5,1.9
		c1.2,0.7,2.1,1.7,2.1,2.9c0,2.3-1.9,3.7-4.3,3.7c-1.2,0-2.3-0.4-2.8-0.8L195.9,90.5z"/>
	<path class="st0" d="M211.8,92.4c0-0.7,0.1-1.7,0.3-2.9h0c-1.2,2.3-2.8,3.1-4.3,3.1c-2,0-3.2-1.6-3.2-3.7c0-3.9,2.9-8,7.7-8
		c1.1,0,2.2,0.2,3,0.4l-1.1,5.8c-0.4,1.9-0.5,3.9-0.5,5.2H211.8z M213,82.7c-0.3-0.1-0.7-0.2-1.3-0.2c-2.9,0-5.2,3-5.2,6.1
		c0,1.2,0.4,2.5,1.9,2.5c1.6,0,3.5-2.1,4-5L213,82.7z"/>
	<path class="st0" d="M224,92c-0.6,0.3-1.7,0.7-3.2,0.7c-2.9,0-4.3-1.9-4.3-4.3c0-3.8,2.8-7.3,6.8-7.3c1,0,2,0.3,2.3,0.5l-0.6,1.5
		c-0.4-0.2-1.1-0.4-1.9-0.4c-2.9,0-4.7,2.9-4.7,5.5c0,1.8,0.9,3,2.8,3c1.2,0,2-0.3,2.6-0.6L224,92z"/>
	<path class="st0" d="M231.2,78.6l-0.5,2.7h2.7l-0.3,1.5h-2.7l-1,5.4c-0.1,0.6-0.2,1.2-0.2,1.8c0,0.7,0.3,1.1,1.1,1.1
		c0.3,0,0.6,0,0.9-0.1l-0.1,1.5c-0.3,0.1-0.9,0.2-1.5,0.2c-1.7,0-2.3-1-2.3-2.2c0-0.6,0.1-1.3,0.3-2.1l1.1-5.6h-1.6l0.3-1.5h1.6
		l0.4-2L231.2,78.6z"/>
	<path class="st0" d="M233.5,92.4l2.1-11.1h1.9l-2.1,11.1H233.5z M237,79.2c-0.7,0-1.1-0.5-1.1-1.2c0-0.8,0.6-1.4,1.3-1.4
		c0.7,0,1.2,0.5,1.2,1.2C238.4,78.7,237.8,79.2,237,79.2L237,79.2z"/>
	<path class="st0" d="M243.2,92.7c-2.8,0-4.3-2.1-4.3-4.6c0-3.7,2.6-7.1,6.2-7.1c3,0,4.4,2.3,4.4,4.6
		C249.4,89.1,247,92.7,243.2,92.7L243.2,92.7z M243.4,91.1c2.3,0,4-2.9,4-5.5c0-1.3-0.6-3.1-2.6-3.1c-2.4,0-4,2.9-4,5.5
		C240.8,89.8,241.8,91.1,243.4,91.1L243.4,91.1z"/>
	<path class="st0" d="M250.8,92.4l1.5-7.9c0.3-1.2,0.4-2.3,0.5-3.2h1.7l-0.3,2.2h0c1-1.6,2.5-2.4,4.1-2.4c1.3,0,2.8,0.8,2.8,3.1
		c0,0.5-0.1,1.2-0.2,1.8l-1.2,6.5h-1.9l1.2-6.4c0.1-0.4,0.1-0.9,0.1-1.4c0-1.1-0.4-1.9-1.7-1.9c-1.4,0-3.3,1.6-3.8,4.4l-1,5.4H250.8
		z"/>
	<path class="st0" d="M263.1,90.5c0.5,0.3,1.5,0.7,2.4,0.7c1.3,0,2.1-0.8,2.1-1.8c0-0.9-0.4-1.4-1.6-2.1c-1.3-0.7-2-1.7-2-2.8
		c0-2,1.7-3.5,4-3.5c1,0,1.9,0.3,2.3,0.6l-0.5,1.4c-0.4-0.2-1.1-0.5-1.9-0.5c-1.2,0-2,0.7-2,1.7c0,0.8,0.5,1.3,1.5,1.9
		c1.2,0.7,2.1,1.7,2.1,2.9c0,2.3-1.9,3.7-4.3,3.7c-1.2,0-2.3-0.4-2.8-0.8L263.1,90.5z"/>
	<g>
		<g>
			<path class="st0" d="M33.3,53.8c-12.2,0-19.3-5.4-22.5-8.5c-3.6-3.6-5.7-8-5.6-11.9c0.1-12,12.2-18.1,19.3-19.9
				c0.3-0.1,0.5-0.1,0.7-0.1c0,0,0,0,0.1,0c-0.1,0.1-0.3,0.3-0.7,0.5C24,14.2,8.8,21.6,12.2,33.1c2.3,7.9,11.7,11.4,19.5,11.4
				c0,0,0,0,0,0c2.5,0,5-0.4,7-1.1c5.8-1.8,9.1-5.3,8.7-9.2c-0.4-3.8-3.6-6.1-8.5-6.1c-1.6,0-3.2,0.2-4.6,0.7
				c-0.8,0.3-2,0.4-3.5,0.5l0,0c-3.6-0.2-7.9-1.9-8.1-6.2c-0.1-1.6,0.6-3.2,1.8-4.5c2.4-2.6,7-4.1,12.2-4.1c0.8,0,1.6,0,2.4,0.1
				c12.6,1.1,22.1,8.7,22.1,17.9c0,13.5-14,21-27.2,21.3C33.8,53.8,33.6,53.8,33.3,53.8z"/>
			<path class="st0" d="M22,14.7c-4.4,2.7-13,9.3-10.3,18.5c2.3,8.1,12,11.8,19.9,11.8c2.6,0,5.1-0.4,7.2-1.1c6-1.9,9.5-5.6,9-9.8
				c-0.4-4-3.9-6.5-9-6.5c-1.6,0-3.3,0.3-4.8,0.7c-0.8,0.2-2,0.4-3.3,0.5l0,0c-3.4-0.1-7.4-1.7-7.6-5.7c-0.1-1.5,0.5-2.9,1.7-4.1
				c2.4-2.5,6.8-3.9,11.9-3.9c0.8,0,1.6,0,2.4,0.1c12.4,1,21.7,8.5,21.7,17.4c0,13.2-13.7,20.5-26.7,20.8c-0.3,0-0.5,0-0.8,0
				c-12,0-19-5.3-22.1-8.4c-3.5-3.5-5.5-7.8-5.5-11.6C5.8,23,15,17.1,22,14.7 M25.3,12.8c-0.2,0-0.5,0-0.8,0.1
				c-7.7,1.9-19.6,8.3-19.7,20.4c-0.1,9.2,10.7,21,28.6,21c0.3,0,0.5,0,0.8,0c13.2-0.3,27.7-8,27.6-21.8c0-9.9-10.2-17.3-22.6-18.4
				c-0.8-0.1-1.7-0.1-2.4-0.1c-8.7,0-14.8,4.1-14.5,9.1c0.2,4.4,4.5,6.5,8.6,6.7l0,0c1.3,0,2.7-0.2,3.6-0.5c1.4-0.4,2.9-0.7,4.5-0.7
				c3.8,0,7.6,1.5,8,5.6c0.4,3.8-3,7.1-8.3,8.7c-2,0.7-4.4,1-6.9,1c-7.9,0-16.8-3.6-19-11.1C9.5,22.2,23.4,15,24.9,14.3
				C26,13.7,26.3,12.9,25.3,12.8L25.3,12.8z"/>
		</g>
		<path class="st0" d="M56.5,33c0-7.9-5.7-14.7-14.3-18.4c-1-0.2-2-0.3-3.1-0.4c-10-0.8-17.3,3.5-17,9c0.2,4.4,4.5,6.5,8.6,6.7l0,0
			c1.3,0,2.7-0.2,3.6-0.5c4.8-1.5,11.9-0.8,12.5,4.9c0.4,3.8-3,7.1-8.3,8.7c-8.7,2.9-23-0.3-25.9-10C9.5,22.2,23.4,15,24.9,14.3
			c1.4-0.7,1.6-1.8-0.4-1.3c-7.7,1.9-19.6,8.3-19.7,20.4c-0.1,8.5,9.1,19.2,24.5,20.8C44.4,53.7,56.5,44.4,56.5,33z"/>
	</g>
	<path class="st0" d="M76.3,13.9h7.6v13.9H84c1.9-2.8,5.3-4.1,8.7-4.1c5.5,0,11.5,4.4,11.5,14.6c0,10.2-5.9,14.6-11.5,14.6
		c-4.1,0-7.4-1.2-9.1-4.3h-0.1v3.5h-7.2V13.9z M90.1,29.5c-4.5,0-6.5,4.2-6.5,8.9c0,4.6,2,8.8,6.5,8.8c4.5,0,6.5-4.2,6.5-8.8
		C96.6,33.7,94.6,29.5,90.1,29.5z"/>
	<path class="st0" d="M133,52.1h-7.2v-3.9h-0.2c-1.9,3.1-5.2,4.6-8.5,4.6c-8.1,0-10.1-4.5-10.1-11.4v-17h7.6v15.6
		c0,4.5,1.3,6.8,4.9,6.8c4.1,0,5.9-2.3,5.9-7.9V24.5h7.6V52.1z"/>
	<path class="st0" d="M153.9,55.6c-1.7,4.4-4.3,6.3-9.5,6.3c-1.6,0-3.1-0.1-4.7-0.3v-6.3c1.4,0.1,2.9,0.3,4.4,0.3
		c2.6-0.3,3.5-3,2.6-5.2l-9.7-26h8.1l6.3,18.9h0.1l6-18.9h7.9L153.9,55.6z"/>
	<path class="st0" d="M168,24.5h3.1v5.2h0.1c1.6-3.7,5.4-6,9.8-6c8.4,0,12.4,6.8,12.4,14.6c0,7.8-4,14.6-12.4,14.6
		c-4.1,0-8.1-2.1-9.6-6h-0.1v15.5H168V24.5z M181.1,26.6c-7.4,0-9.7,5.5-9.7,11.8c0,5.7,2.5,11.8,9.7,11.8c6.4,0,9-6,9-11.8
		C190.1,32.6,187.5,26.6,181.1,26.6z"/>
	<path class="st0" d="M196.5,33c0.3-6.5,4.9-9.3,11.2-9.3c4.9,0,10.2,1.5,10.2,8.9v14.7c0,1.3,0.6,2,2,2c0.4,0,0.8-0.1,1.1-0.2v2.8
		c-0.7,0.2-1.3,0.2-2.2,0.2c-3.4,0-4-1.9-4-4.8h-0.1c-2.4,3.6-4.8,5.6-10.1,5.6c-5.1,0-9.3-2.5-9.3-8.1c0-7.8,7.5-8,14.8-8.9
		c2.8-0.3,4.3-0.7,4.3-3.7c0-4.5-3.3-5.7-7.2-5.7c-4.2,0-7.3,1.9-7.4,6.4H196.5z M214.5,37.1h-0.1c-0.4,0.8-1.9,1.1-2.8,1.2
		c-5.7,1-12.8,1-12.8,6.4c0,3.4,3,5.5,6.2,5.5c5.1,0,9.7-3.3,9.6-8.7V37.1z"/>
	<path class="st0" d="M240.9,32.6c-0.2-4.2-3.4-6-7.2-6c-3,0-6.5,1.2-6.5,4.8c0,3,3.4,4.1,5.7,4.7l4.5,1c3.9,0.6,7.9,2.8,7.9,7.7
		c0,6-5.9,8.3-11.1,8.3c-6.4,0-10.8-3-11.3-9.7h3.4c0.3,4.5,3.6,6.9,8.1,6.9c3.2,0,7.5-1.4,7.5-5.2c0-3.2-3-4.3-6-5l-4.3-1
		c-4.4-1.2-7.7-2.7-7.7-7.4c0-5.6,5.5-7.8,10.4-7.8c5.5,0,9.9,2.9,10.1,8.9H240.9z"/>
	<path class="st0" d="M266.3,32.6c-0.2-4.2-3.4-6-7.2-6c-3,0-6.5,1.2-6.5,4.8c0,3,3.4,4.1,5.7,4.7l4.5,1c3.9,0.6,7.9,2.8,7.9,7.7
		c0,6-5.9,8.3-11.1,8.3c-6.4,0-10.8-3-11.3-9.7h3.4c0.3,4.5,3.6,6.9,8.1,6.9c3.2,0,7.5-1.4,7.5-5.2c0-3.2-3-4.3-6-5l-4.3-1
		c-4.4-1.2-7.7-2.7-7.7-7.4c0-5.6,5.5-7.8,10.4-7.8c5.5,0,9.9,2.9,10.1,8.9H266.3z"/>
	<path class="st0" d="M273.6,25.4h-1.1v-0.7h2.9v0.7h-1.1v2.9h-0.8V25.4z"/>
	<path class="st0" d="M275.8,24.7h1.1l0.8,2.5h0l0.8-2.5h1.1v3.6h-0.7v-2.5h0l-0.9,2.5h-0.6l-0.9-2.5h0v2.5h-0.7V24.7z"/>
</g>
</svg>
