<?xml version="1.0" encoding="utf-8"?>
<!-- Generator: Adobe Illustrator 22.1.0, SVG Export Plug-In . SVG Version: 6.00 Build 0)  -->
<svg version="1.1" id="Layer_1" xmlns="http://www.w3.org/2000/svg" xmlns:xlink="http://www.w3.org/1999/xlink" x="0px" y="0px"
	 viewBox="0 0 283.5 110.4" style="enable-background:new 0 0 283.5 110.4;" xml:space="preserve">
<style type="text/css">
	.st0{fill:#000000;}
</style>
<g>
	<g>
		<g>
			<path class="st0" d="M76.6,50.7c-1-0.4-2-0.6-3.1-0.6c-1.6,0-3,0.3-4.1,1c-1.2,0.6-2,1.5-2.8,2.7c-0.8,1.1-1.3,2.3-1.6,3.7
				c-0.3,1.3-0.5,2.7-0.5,4c0,1.2,0.2,2.5,0.5,3.8c0.3,1.3,0.9,2.6,1.6,3.7c0.8,1.2,1.6,2,2.7,2.8c1.1,0.8,2.4,1.1,3.9,1.1
				c0.6,0,1.2-0.1,1.8-0.3c0.5-0.2,1.1-0.4,1.6-0.6c0.2-0.1,0.5-0.2,0.8-0.3c0.2-0.1,0.4-0.2,0.6-0.3c0.4-0.1,0.8-0.2,1-0.2
				c0.4,0,0.8,0.1,1.1,0.4c0.3,0.3,0.4,0.6,0.4,1.1c0,0.8-0.3,1.3-0.9,1.7c-0.5,0.4-1.2,0.8-2,1c-0.8,0.2-1.6,0.3-2.4,0.4
				c-0.9,0.1-1.5,0.1-1.9,0.1c-2,0-3.8-0.4-5.3-1.2c-1.5-0.8-2.8-1.8-3.9-3.1c-1.1-1.3-1.8-2.8-2.5-4.5c-0.5-1.7-0.9-3.5-0.9-5.5
				s0.3-3.8,0.9-5.6c0.5-1.7,1.4-3.2,2.5-4.6c1.1-1.3,2.5-2.4,4-3.1c1.6-0.8,3.3-1.2,5.4-1.2c1.5,0,2.8,0.2,4,0.5
				c1.1,0.4,2.4,1,3.5,1.6l-1.6,2.8C78.5,51.5,77.5,51.1,76.6,50.7z"/>
			<path class="st0" d="M102.9,69.8c-1.4,2.3-2.8,3.9-4.2,4.7c-1.4,0.9-2.9,1.3-4.5,1.3c-1.9,0-3.7-0.4-5.2-1.2
				c-1.5-0.9-2.7-1.9-3.8-3.2c-1-1.4-1.8-2.9-2.4-4.6c-0.5-1.7-0.8-3.5-0.8-5.4c0-1.8,0.3-3.5,0.9-5.3s1.3-3.2,2.4-4.6
				c1.1-1.3,2.3-2.5,3.8-3.2c1.5-0.9,3.2-1.2,5.1-1.2c1.5,0,3,0.3,4.4,1.1c1.4,0.8,2.9,2,4.4,3.9v-3c0.1-0.4,0.1-0.9,0.2-1.1
				s0.2-0.4,0.4-0.6c0.2-0.2,0.6-0.2,1.2-0.2c0.4,0,0.8,0.2,1.1,0.5s0.5,0.8,0.5,1.2v26.8H103v-5.8H102.9z M90.5,50.9
				c-1.1,0.8-2,1.6-2.8,2.8c-0.8,1.1-1.2,2.4-1.5,3.7c-0.3,1.4-0.4,2.7-0.4,4c0,1.3,0.1,2.6,0.4,4c0.3,1.4,0.8,2.7,1.4,3.8
				c0.6,1.2,1.6,2.1,2.7,2.9c1.1,0.8,2.5,1.1,4.1,1.1c1.8,0,3.2-0.4,4.4-1.2s2-1.7,2.7-2.9c0.6-1.2,1.1-2.5,1.3-3.9
				c0.2-1.4,0.3-2.8,0.3-4.2c0-1.3-0.1-2.6-0.4-3.9c-0.2-1.3-0.6-2.5-1.3-3.5s-1.5-1.9-2.6-2.7c-1.1-0.6-2.5-1.1-4.1-1.1
				C93,49.8,91.6,50.1,90.5,50.9z"/>
			<path class="st0" d="M146.1,75.3c-0.3-0.3-0.5-0.8-0.5-1.2V56.8c0-1-0.2-1.8-0.5-2.7s-0.9-1.6-1.4-2.3c-0.6-0.6-1.3-1.2-2.1-1.5
				c-0.9-0.3-1.7-0.5-2.7-0.5c-1,0-1.8,0.2-2.7,0.5c-0.9,0.3-1.6,0.9-2.3,1.5c-0.6,0.6-1.2,1.4-1.5,2.3c-0.3,0.9-0.5,1.7-0.5,2.7
				v18.6h-3.3V56.8c0-1-0.2-1.9-0.5-2.7c-0.3-0.9-0.9-1.6-1.5-2.1c-0.6-0.6-1.4-1.2-2.3-1.5c-0.9-0.3-1.7-0.5-2.8-0.5
				c-1,0-1.8,0.2-2.7,0.5s-1.6,0.9-2.1,1.5c-0.6,0.6-1.1,1.4-1.5,2.1c-0.3,0.9-0.5,1.7-0.5,2.7v18.6h-3.4V48.7
				c0-0.4,0.2-0.9,0.5-1.2s0.8-0.5,1.2-0.5c0.4,0,0.8,0.1,1,0.2c0.2,0.1,0.3,0.3,0.4,0.6c0.1,0.2,0.2,0.5,0.2,1c0,0.1,0,0.2,0,0.3
				c0,0.1,0,0.2,0,0.3c0,0.1,0,0.4,0,0.8s0,0.8,0,1.3c0.6-1,1.3-1.7,1.9-2.3c0.6-0.5,1.3-1.1,1.9-1.3c0.6-0.3,1.3-0.5,1.9-0.6
				c0.6-0.1,1.3-0.2,1.9-0.2c1.6,0,3.2,0.4,4.6,1.4c1.4,0.9,2.6,2.4,3.5,4.4c1.1-2,2.5-3.5,4-4.4c1.5-0.9,3.1-1.3,4.9-1.3
				c2.9,0,5.3,0.9,7.1,2.6c1.7,1.7,2.7,4,2.7,7v17.4c0,0.4-0.2,0.9-0.5,1.2c-0.3,0.3-0.8,0.5-1.2,0.5
				C146.7,75.8,146.4,75.6,146.1,75.3z"/>
			<path class="st0" d="M156.5,73.1c-1.8-1.8-2.8-4.4-2.8-8V48.1l3.4-0.1v17c0,2.4,0.6,4.3,1.8,5.7c1.2,1.4,3.1,2.1,5.7,2.1
				c2.6,0,4.5-0.8,5.7-2.1c1.2-1.4,1.8-3.3,1.8-5.8V48.7c0-0.5,0.2-1,0.5-1.3s0.8-0.5,1.2-0.5c0.5,0,1,0.2,1.2,0.5
				c0.3,0.3,0.4,0.8,0.4,1.3v16.3c0,3.5-1,6.1-2.8,8c-1.8,1.8-4.5,2.7-8.1,2.7C161.1,75.7,158.4,74.8,156.5,73.1z"/>
			<path class="st0" d="M199,75.4c-0.3-0.3-0.4-0.8-0.4-1.2V57.5c0-1-0.2-1.9-0.6-2.9s-1-1.7-1.6-2.5c-0.6-0.8-1.5-1.3-2.4-1.6
				c-1-0.4-1.9-0.6-2.9-0.6c-1.1,0-2,0.2-2.9,0.6c-0.9,0.4-1.7,1-2.4,1.6c-0.6,0.6-1.2,1.5-1.6,2.4c-0.4,0.9-0.5,1.8-0.5,2.9v17.9
				h-3.3V48.7c0-0.5,0.2-1,0.5-1.3s0.8-0.5,1.3-0.5c0.4,0,0.9,0.1,1,0.2c0.2,0.2,0.3,0.4,0.4,0.6c0.1,0.3,0.2,0.6,0.2,1.1v2.9
				c0.6-1,1.3-1.7,2-2.4c0.6-0.6,1.4-1.1,2-1.4c0.6-0.3,1.4-0.5,2-0.6c0.8-0.1,1.4-0.2,2-0.2c1.5,0,2.9,0.2,4.1,0.8
				c1.2,0.5,2.3,1.2,3.1,2.1c0.9,1,1.5,2,2,3.3c0.4,1.3,0.8,2.7,0.8,4.2v16.7c0,0.5-0.2,1-0.5,1.3c-0.3,0.3-0.8,0.5-1.3,0.5
				C199.7,75.9,199.3,75.7,199,75.4z"/>
			<path class="st0" d="M228,75.5c-0.2-0.2-0.4-0.5-0.4-0.9c-0.1-0.3-0.2-0.9-0.2-1.4v-3.5c-1.4,2.3-2.9,3.9-4.4,4.7
				c-1.5,0.9-3.1,1.3-4.7,1.3c-1.8,0-3.4-0.4-4.9-1.3c-1.4-0.9-2.7-1.9-3.7-3.3c-1-1.4-1.7-2.9-2.3-4.6c-0.5-1.7-0.8-3.4-0.8-5.2
				c0-1.8,0.3-3.7,0.9-5.4c0.5-1.7,1.3-3.3,2.4-4.6s2.3-2.5,3.8-3.2c1.5-0.9,3.2-1.2,5.2-1.2c1.5,0,3,0.4,4.4,1.3
				c1.4,0.9,2.8,2.5,4.2,4.7V34.9h3.4v39.2c0,0.4-0.2,0.9-0.5,1.2c-0.3,0.3-0.8,0.5-1.2,0.5C228.6,75.8,228.3,75.7,228,75.5z
				 M215.1,51.1c-1.1,0.6-2,1.6-2.7,2.7c-0.8,1.1-1.2,2.3-1.5,3.7c-0.3,1.3-0.5,2.6-0.5,3.9c0,1.2,0.1,2.5,0.4,3.9
				c0.3,1.3,0.8,2.6,1.4,3.7c0.6,1.1,1.5,2,2.6,2.8s2.4,1.1,4,1.1c1.6,0,2.9-0.3,4-1s2-1.4,2.7-2.5c0.6-1,1.2-2.1,1.5-3.4
				c0.3-1.3,0.4-2.6,0.4-3.9c0-1.3-0.1-2.6-0.3-4c-0.2-1.4-0.6-2.7-1.2-3.9c-0.6-1.2-1.4-2.1-2.6-2.9c-1.1-0.8-2.6-1.2-4.3-1.2
				C217.6,50.1,216.2,50.5,215.1,51.1z"/>
			<path class="st0" d="M256.5,69.8c-1.4,2.3-2.8,3.9-4.2,4.7c-1.4,0.9-2.9,1.3-4.5,1.3c-1.9,0-3.7-0.4-5.2-1.2
				c-1.5-0.9-2.7-1.9-3.8-3.2c-1-1.4-1.8-2.9-2.4-4.6c-0.5-1.7-0.8-3.5-0.8-5.4c0-1.8,0.3-3.5,0.9-5.3c0.5-1.7,1.3-3.2,2.4-4.6
				c1.1-1.3,2.3-2.5,3.8-3.2c1.5-0.9,3.2-1.2,5.1-1.2c1.5,0,3,0.3,4.4,1.1c1.4,0.8,2.9,2,4.4,3.9v-3c0.1-0.4,0.1-0.9,0.2-1.1
				c0.1-0.2,0.2-0.4,0.4-0.6s0.6-0.2,1.2-0.2c0.4,0,0.8,0.2,1.1,0.5s0.5,0.8,0.5,1.2v26.8h-3.4v-5.8H256.5z M244.1,50.9
				c-1.1,0.8-2,1.6-2.8,2.8c-0.8,1.1-1.2,2.4-1.5,3.7c-0.3,1.4-0.4,2.7-0.4,4c0,1.3,0.1,2.6,0.4,4c0.3,1.4,0.8,2.7,1.4,3.8
				c0.6,1.2,1.5,2.1,2.7,2.9c1.1,0.8,2.5,1.1,4.1,1.1c1.8,0,3.2-0.4,4.4-1.2c1.2-0.8,2-1.7,2.7-2.9c0.6-1.2,1.1-2.5,1.3-3.9
				c0.2-1.4,0.3-2.8,0.3-4.2c0-1.3-0.1-2.6-0.4-3.9c-0.2-1.3-0.6-2.5-1.3-3.5c-0.6-1.1-1.5-1.9-2.6-2.7c-1.1-0.6-2.5-1.1-4.1-1.1
				C246.6,49.8,245.2,50.1,244.1,50.9z"/>
		</g>
	</g>
	<g>
		<g>
			<path class="st0" d="M34.1,73.8c-2.4,2.4-6.1,2.5-8.6,0.1c-2.4-2.4-2.5-6.1-0.1-8.6c2.4-2.4,6.1-2.5,8.6-0.1
				C36.4,67.5,36.4,71.3,34.1,73.8z"/>
			<path class="st0" d="M50.7,60.3L50.7,60.3l0.6,2.6l-2.8,1.2l-1.3-2.3h0.1c-1,0.2-2,0.2-3,0l-1.3,2.3l-2.8-1.2l0.6-2.6H41
				c-0.9-0.5-1.5-1.3-2.1-2.1l0,0l-2.6,0.6L35,56l2.3-1.4v0.1c-0.2-1-0.2-2,0-3L35,50.5l1.2-2.8l2.6,0.6v0.1c0.3-0.5,0.8-1,1.2-1.4
				H25.3c-1.1,0-1.8,0.9-1.8,1.9v12.2l1.7,1.3l-0.1,0c0.9-0.5,1.8-1,2.8-1.2l0,0l0.3-2.6h3l0.4,2.6h-0.1c1,0.2,1.9,0.5,2.8,1.1
				l2-1.6l2.1,2l-1.5,2l-0.1-0.1c0.5,0.9,1,1.8,1.2,2.7l0,0l2.6,0.3v3l-2.6,0.5v-0.1c-0.2,1-0.5,1.9-1.1,2.8l1.4,1.8h11.9
				c1.1,0,1.8-0.9,1.8-1.9V59.2C51.7,59.6,51.2,60,50.7,60.3z"/>
			<path class="st0" d="M51.4,55.6c-1.3,3.1-4.9,4.6-8.1,3.3c-3.1-1.3-4.6-4.9-3.3-8.1c1.3-3.1,4.9-4.6,8.1-3.3
				C51.3,48.8,52.8,52.5,51.4,55.6z"/>
		</g>
	</g>
</g>
</svg>
