<svg xmlns="http://www.w3.org/2000/svg" viewBox="0 0 400 180"><defs><style>.cls-1{fill:#fff;}</style></defs><title>jz17-partner-camunda</title><g id="Partner"><path class="cls-1" d="M112.43,73.2a11,11,0,0,0-4.13-.8,10.71,10.71,0,0,0-5.52,1.35A11.41,11.41,0,0,0,99,77.3a15.27,15.27,0,0,0-2.12,4.86,22.07,22.07,0,0,0-.66,5.3,20.15,20.15,0,0,0,.69,5.08,18,18,0,0,0,2.12,5,12.54,12.54,0,0,0,3.62,3.8,9,9,0,0,0,5.19,1.5,8,8,0,0,0,2.41-.37,22.86,22.86,0,0,0,2.19-.8l1-.44a9,9,0,0,1,.91-.37,4,4,0,0,1,1.24-.29,2,2,0,0,1,1.43.59,1.85,1.85,0,0,1,.62,1.39,2.81,2.81,0,0,1-1.13,2.34,7.79,7.79,0,0,1-2.7,1.32,17.86,17.86,0,0,1-3.22.58q-1.65.15-2.67.15a15.89,15.89,0,0,1-7.13-1.54,15.7,15.7,0,0,1-5.26-4.17,18.13,18.13,0,0,1-3.25-6.1,25.14,25.14,0,0,1,0-14.8,18.64,18.64,0,0,1,3.33-6.18,15.83,15.83,0,0,1,12.65-5.81,16.66,16.66,0,0,1,5.34.77,27.89,27.89,0,0,1,4.83,2.23L116.34,75a38.28,38.28,0,0,0-3.91-1.83"/><path class="cls-1" d="M147.85,98.86a18.34,18.34,0,0,1-5.67,6.36,11.57,11.57,0,0,1-6.11,1.76,14.21,14.21,0,0,1-6.95-1.65,15.57,15.57,0,0,1-5-4.39A20.08,20.08,0,0,1,121,94.73a24.5,24.5,0,0,1-1.06-7.2,23.3,23.3,0,0,1,1.1-7.06,19.82,19.82,0,0,1,3.18-6.18,16.16,16.16,0,0,1,5.08-4.35,13.9,13.9,0,0,1,6.8-1.64,13.05,13.05,0,0,1,6,1.46A19,19,0,0,1,147.93,75V70.86a9.14,9.14,0,0,1,.29-1.39,1.57,1.57,0,0,1,.59-.84,2.65,2.65,0,0,1,1.54-.33,2,2,0,0,1,1.46.69,2.23,2.23,0,0,1,.66,1.57v36h-4.61V98.86M131.26,73.5a12.12,12.12,0,0,0-3.69,3.69,15.51,15.51,0,0,0-2,5,24,24,0,0,0-.62,5.3,27.55,27.55,0,0,0,.55,5.34,16.52,16.52,0,0,0,1.9,5.12,11.47,11.47,0,0,0,3.58,3.84,9.67,9.67,0,0,0,5.52,1.5,10.4,10.4,0,0,0,5.89-1.54,10.58,10.58,0,0,0,3.55-3.88,16.94,16.94,0,0,0,1.72-5.23,34.51,34.51,0,0,0,.48-5.59,27.78,27.78,0,0,0-.51-5.23A14.9,14.9,0,0,0,145.77,77a10.63,10.63,0,0,0-3.44-3.55,11.47,11.47,0,0,0-11.08.07Z"/><path class="cls-1" d="M205.9,106.28a2.31,2.31,0,0,1-.66-1.65V81.39a9.58,9.58,0,0,0-.69-3.62,9.24,9.24,0,0,0-1.94-3,9.29,9.29,0,0,0-10.2-2,9.33,9.33,0,0,0-5,5,9.14,9.14,0,0,0-.73,3.62v24.93h-4.46V81.39a9.09,9.09,0,0,0-.73-3.66,9.54,9.54,0,0,0-2-3A9.39,9.39,0,0,0,172.78,72a9.15,9.15,0,0,0-3.62.73,9,9,0,0,0-3,2,9.81,9.81,0,0,0-2,3,8.89,8.89,0,0,0-.73,3.58v25h-4.61V70.64a2.37,2.37,0,0,1,2.34-2.34,2.21,2.21,0,0,1,1.28.29,1.47,1.47,0,0,1,.55.8,2.83,2.83,0,0,1,.22,1.24,1.48,1.48,0,0,0,0,.37,2,2,0,0,1,0,.44v2.71A17.22,17.22,0,0,1,166,71.08a11.26,11.26,0,0,1,2.63-1.79,10.06,10.06,0,0,1,2.63-.84,16,16,0,0,1,2.63-.22,11.55,11.55,0,0,1,6.21,1.83,12.89,12.89,0,0,1,4.75,6,14.55,14.55,0,0,1,5.34-5.92,14.11,14.11,0,0,1,16,1.68q3.54,3.44,3.55,9.36v23.47a2.31,2.31,0,0,1-.66,1.65,2.21,2.21,0,0,1-3.22,0"/><path class="cls-1" d="M220,103.36q-3.77-3.62-3.77-10.71V69.77l4.61-.07V92.5a11.64,11.64,0,0,0,2.41,7.71q2.41,2.89,7.6,2.89t7.64-2.85a11.5,11.5,0,0,0,2.45-7.75V70.64a2.27,2.27,0,0,1,.66-1.68,2.19,2.19,0,0,1,1.61-.66,2.1,2.1,0,0,1,1.64.69,2.49,2.49,0,0,1,.62,1.72V92.65q0,7.09-3.77,10.71T230.83,107q-7.09,0-10.86-3.62"/><path class="cls-1" d="M277.07,106.47a2.25,2.25,0,0,1-.62-1.61V82.42a9.78,9.78,0,0,0-.8-3.91,11.18,11.18,0,0,0-2.16-3.29A9.67,9.67,0,0,0,270.27,73a9.78,9.78,0,0,0-3.91-.8,9.44,9.44,0,0,0-3.91.8,10.13,10.13,0,0,0-3.14,2.19,10.25,10.25,0,0,0-2.12,3.22,9.91,9.91,0,0,0-.77,3.88v24.13h-4.53V70.57a2.21,2.21,0,0,1,.69-1.68,2.4,2.4,0,0,1,1.72-.66,2.16,2.16,0,0,1,1.35.33,1.66,1.66,0,0,1,.55.91,4.6,4.6,0,0,1,.22,1.46v3.66a15.73,15.73,0,0,1,2.71-3.18,12.31,12.31,0,0,1,2.78-1.86,11.19,11.19,0,0,1,2.82-.91,16,16,0,0,1,2.82-.26,14.47,14.47,0,0,1,5.56,1,12.05,12.05,0,0,1,4.24,2.89A13,13,0,0,1,280,76.71a16.08,16.08,0,0,1,.95,5.63v22.44a2.25,2.25,0,0,1-2.34,2.34,2.07,2.07,0,0,1-1.57-.66"/><path class="cls-1" d="M316.11,106.54a2.1,2.1,0,0,1-.62-1.17,6.45,6.45,0,0,1-.22-1.83V98.79a18.68,18.68,0,0,1-5.89,6.32,12.26,12.26,0,0,1-6.32,1.79,12.9,12.9,0,0,1-6.62-1.68,16,16,0,0,1-4.9-4.42,20.74,20.74,0,0,1-3.07-6.14,23.06,23.06,0,0,1-1.06-6.91,24.14,24.14,0,0,1,1.1-7.24,19.72,19.72,0,0,1,3.18-6.21,16,16,0,0,1,5.12-4.35,14.41,14.41,0,0,1,7-1.64,11.26,11.26,0,0,1,6,1.72q2.81,1.72,5.59,6.32V52h4.61v52.71a2.25,2.25,0,0,1-2.27,2.27,2.28,2.28,0,0,1-1.57-.44m-17.4-32.68a11.66,11.66,0,0,0-3.65,3.58A15.78,15.78,0,0,0,293,82.31a21.54,21.54,0,0,0-.66,5.15,24.44,24.44,0,0,0,.59,5.19,15.91,15.91,0,0,0,1.94,4.94,11.81,11.81,0,0,0,3.51,3.69,9.35,9.35,0,0,0,5.37,1.46,10.88,10.88,0,0,0,5.37-1.24,10.46,10.46,0,0,0,3.62-3.29,14.06,14.06,0,0,0,2-4.57,21.53,21.53,0,0,0,.62-5.15,34.94,34.94,0,0,0-.44-5.37,17.29,17.29,0,0,0-1.65-5.19A10.41,10.41,0,0,0,309.82,74a11.29,11.29,0,0,0-11.11-.15Z"/><path class="cls-1" d="M354.31,98.86a18.33,18.33,0,0,1-5.67,6.36,11.57,11.57,0,0,1-6.1,1.76,14.21,14.21,0,0,1-6.95-1.65,15.57,15.57,0,0,1-5-4.39,20.1,20.1,0,0,1-3.11-6.21,24.5,24.5,0,0,1-1.06-7.2,23.3,23.3,0,0,1,1.1-7.06,19.81,19.81,0,0,1,3.18-6.18,16.17,16.17,0,0,1,5.08-4.35,13.9,13.9,0,0,1,6.8-1.64,13,13,0,0,1,6,1.46A19,19,0,0,1,354.38,75V70.86a9,9,0,0,1,.29-1.39,1.56,1.56,0,0,1,.58-.84,2.65,2.65,0,0,1,1.53-.33,2,2,0,0,1,1.46.69,2.23,2.23,0,0,1,.66,1.57v36h-4.61V98.86M337.72,73.5A12.13,12.13,0,0,0,334,77.19a15.49,15.49,0,0,0-2,5,24,24,0,0,0-.62,5.3,27.55,27.55,0,0,0,.55,5.34,16.51,16.51,0,0,0,1.9,5.12,11.47,11.47,0,0,0,3.58,3.84,9.67,9.67,0,0,0,5.52,1.5,10.4,10.4,0,0,0,5.89-1.54,10.57,10.57,0,0,0,3.55-3.88,16.94,16.94,0,0,0,1.72-5.23,34.44,34.44,0,0,0,.48-5.59,27.78,27.78,0,0,0-.51-5.23A14.89,14.89,0,0,0,352.23,77a10.63,10.63,0,0,0-3.44-3.55,11.48,11.48,0,0,0-11.08.07Z"/><path class="cls-1" d="M162,117h-.22l-.24,0h-.34v7.42h-1V117h-.79a.61.61,0,0,1-.19,0,.47.47,0,0,1-.25-.12.36.36,0,0,1-.09-.27.41.41,0,0,1,.08-.28.45.45,0,0,1,.26-.12.47.47,0,0,1,.18,0h.79V114a.59.59,0,0,1,.15-.4.45.45,0,0,1,.36-.17.48.48,0,0,1,.36.17.57.57,0,0,1,.15.4l0,2.12H162l.2,0a.51.51,0,0,1,.27.13.4.4,0,0,1,.1.29.34.34,0,0,1-.1.27.66.66,0,0,1-.27.14l-.2,0"/><path class="cls-1" d="M169.39,124.46a.5.5,0,0,1-.14-.36v-5a2.25,2.25,0,0,0-.17-.87,2.35,2.35,0,0,0-.47-.73,2.15,2.15,0,0,0-1.58-.67,2.1,2.1,0,0,0-.86.18,2.21,2.21,0,0,0-.7.48,2.38,2.38,0,0,0-.48.71,2.1,2.1,0,0,0-.18.86v5.35h-1V112.75a.52.52,0,0,1,.15-.38.5.5,0,0,1,.36-.15.47.47,0,0,1,.36.15.51.51,0,0,1,.15.36v4.82a3.87,3.87,0,0,1,1.23-1.19,2.59,2.59,0,0,1,1.24-.33,3,3,0,0,1,1.22.23,2.71,2.71,0,0,1,1.52,1.63,3.69,3.69,0,0,1,.2,1.24v4.95a.5.5,0,0,1-.52.52.46.46,0,0,1-.35-.15"/><path class="cls-1" d="M172.84,120.66a3.47,3.47,0,0,0,.2,1.19,3,3,0,0,0,.57,1,2.64,2.64,0,0,0,.87.65,2.57,2.57,0,0,0,1.1.23,4,4,0,0,0,.83-.09l.82-.2.23.76a8.29,8.29,0,0,1-.95.31,4,4,0,0,1-1,.11,3.68,3.68,0,0,1-1.63-.35,3.62,3.62,0,0,1-1.2-.94,4.12,4.12,0,0,1-.75-1.38,5.24,5.24,0,0,1-.26-1.66,4.82,4.82,0,0,1,.27-1.59,4.28,4.28,0,0,1,.75-1.35,3.75,3.75,0,0,1,1.17-.94,3.32,3.32,0,0,1,1.54-.36,3.1,3.1,0,0,1,1.45.34,3.51,3.51,0,0,1,1.12.91,4.21,4.21,0,0,1,.71,1.29,4.59,4.59,0,0,1,.25,1.5q0,.37-.14.48a1,1,0,0,1-.54.11h-5.42m1.42-3.57a2.43,2.43,0,0,0-.76.7,3.45,3.45,0,0,0-.48,1,7.67,7.67,0,0,0-.25,1.15H178a3.72,3.72,0,0,0-.21-1.12,3.59,3.59,0,0,0-.53-1,2.7,2.7,0,0,0-.82-.72,2.13,2.13,0,0,0-1.07-.28A2.16,2.16,0,0,0,174.27,117.09Z"/><path class="cls-1" d="M187.18,124.24a3.85,3.85,0,0,1-1.25-1.35v1c0,.07,0,.14,0,.2s0,.12,0,.17a.44.44,0,0,1-.13.23.45.45,0,0,1-.31.09.5.5,0,0,1-.36-.15.51.51,0,0,1-.15-.38V112.41h1v5.19a4.21,4.21,0,0,1,1.3-1.23,2.8,2.8,0,0,1,1.35-.36,3,3,0,0,1,1.49.36,3.38,3.38,0,0,1,1.08,1,4.44,4.44,0,0,1,.66,1.35,5.32,5.32,0,0,1,.23,1.54,6.14,6.14,0,0,1-.22,1.63,4.25,4.25,0,0,1-.66,1.4,3.35,3.35,0,0,1-1.12,1,3.23,3.23,0,0,1-1.56.36,2.69,2.69,0,0,1-1.35-.36m0-7a2.38,2.38,0,0,0-.77.83,3.66,3.66,0,0,0-.4,1.12,6.33,6.33,0,0,0-.11,1.17,6.1,6.1,0,0,0,.12,1.21,3.29,3.29,0,0,0,.42,1.08,2.32,2.32,0,0,0,.8.78,2.42,2.42,0,0,0,1.26.3,2,2,0,0,0,1.19-.33,2.48,2.48,0,0,0,.76-.84,3.82,3.82,0,0,0,.4-1.12,5.83,5.83,0,0,0,.12-1.14,5.53,5.53,0,0,0-.13-1.16,3.77,3.77,0,0,0-.42-1.1,2.37,2.37,0,0,0-.78-.82,2.23,2.23,0,0,0-1.22-.32A2.2,2.2,0,0,0,187.2,117.21Z"/><path class="cls-1" d="M194.34,123.77a3.14,3.14,0,0,1-.83-2.37v-5.06l1,0v5a2.58,2.58,0,0,0,.53,1.71,2.07,2.07,0,0,0,1.68.64,2.11,2.11,0,0,0,1.69-.63,2.55,2.55,0,0,0,.54-1.71v-4.84a.51.51,0,0,1,.15-.37.48.48,0,0,1,.36-.15.46.46,0,0,1,.36.15.55.55,0,0,1,.14.38v4.85a3.14,3.14,0,0,1-.83,2.37,4,4,0,0,1-4.8,0"/><path class="cls-1" d="M203.3,124.47a5.29,5.29,0,0,1-.81-.23,4.18,4.18,0,0,1-.75-.36,2.41,2.41,0,0,1-.6-.51l.65-.7.23.16.22.16a4,4,0,0,0,.55.36,2.73,2.73,0,0,0,.62.25,3,3,0,0,0,.77.09,2.34,2.34,0,0,0,.61-.09,2.13,2.13,0,0,0,.6-.27,1.56,1.56,0,0,0,.46-.46,1.17,1.17,0,0,0,.19-.65,1,1,0,0,0-.23-.7,2.43,2.43,0,0,0-.57-.48l-.36-.19a3.32,3.32,0,0,0-.41-.18l-.42-.16-.44-.16q-.44-.18-.84-.37a3.34,3.34,0,0,1-.7-.44,2,2,0,0,1-.48-.57,1.55,1.55,0,0,1-.18-.76,1.75,1.75,0,0,1,.24-.92,2.33,2.33,0,0,1,.63-.69,2.86,2.86,0,0,1,.88-.43,3.5,3.5,0,0,1,1-.15,4.06,4.06,0,0,1,.72.09,5.44,5.44,0,0,1,.91.26,3.15,3.15,0,0,1,.78.42.73.73,0,0,1,.33.59.28.28,0,0,1-.13.26.57.57,0,0,1-.31.08.76.76,0,0,1-.31-.11l-.26-.12-.28-.15a5.42,5.42,0,0,0-.67-.31,2.37,2.37,0,0,0-1.4-.07,1.71,1.71,0,0,0-.53.23,1.32,1.32,0,0,0-.4.41,1.13,1.13,0,0,0-.15.61.75.75,0,0,0,.25.58,3,3,0,0,0,.57.4,8.51,8.51,0,0,0,1.15.49,8.07,8.07,0,0,1,1.25.57,3.88,3.88,0,0,1,1,.79,1.72,1.72,0,0,1,.41,1.19,1.88,1.88,0,0,1-.27,1,2.32,2.32,0,0,1-.7.73,3.46,3.46,0,0,1-1,.44,3.85,3.85,0,0,1-1.07.15,4,4,0,0,1-.78-.08"/><path class="cls-1" d="M208.52,116.52a.46.46,0,0,1,.15-.36.55.55,0,0,1,.38-.14.44.44,0,0,1,.32.15.49.49,0,0,1,.15.35v7.92h-1v-7.92m.19-2.31a.37.37,0,0,1-.11-.27.39.39,0,0,1,.4-.4.4.4,0,0,1,.29.11.38.38,0,0,1,.11.27.39.39,0,0,1-.41.41A.39.39,0,0,1,208.71,114.2Z"/><path class="cls-1" d="M216.52,124.46a.5.5,0,0,1-.14-.36v-5a2.18,2.18,0,0,0-.18-.87,2.49,2.49,0,0,0-.48-.73,2.12,2.12,0,0,0-.71-.49,2.16,2.16,0,0,0-.87-.18,2.08,2.08,0,0,0-.87.18,2.24,2.24,0,0,0-.7.48,2.3,2.3,0,0,0-.47.71,2.21,2.21,0,0,0-.17.86v5.34h-1v-7.92a.49.49,0,0,1,.15-.37.53.53,0,0,1,.38-.15.47.47,0,0,1,.3.07.37.37,0,0,1,.12.2,1,1,0,0,1,0,.32v.81a3.49,3.49,0,0,1,.6-.7,2.72,2.72,0,0,1,.61-.41,2.49,2.49,0,0,1,.62-.2,3.56,3.56,0,0,1,.62-.06,3.21,3.21,0,0,1,1.23.23,2.67,2.67,0,0,1,.94.64,2.88,2.88,0,0,1,.6,1,3.57,3.57,0,0,1,.21,1.24v5a.5.5,0,0,1-.52.52.45.45,0,0,1-.35-.15"/><path class="cls-1" d="M220,120.66a3.45,3.45,0,0,0,.2,1.19,3,3,0,0,0,.56,1,2.65,2.65,0,0,0,.87.65,2.57,2.57,0,0,0,1.1.23,4,4,0,0,0,.83-.09l.82-.2.23.76a8.32,8.32,0,0,1-.95.31,4,4,0,0,1-1,.11,3.68,3.68,0,0,1-1.63-.35,3.63,3.63,0,0,1-1.21-.94,4.11,4.11,0,0,1-.75-1.38,5.26,5.26,0,0,1-.26-1.66,4.8,4.8,0,0,1,.27-1.59,4.27,4.27,0,0,1,.75-1.35,3.76,3.76,0,0,1,1.17-.94,3.32,3.32,0,0,1,1.54-.36,3.1,3.1,0,0,1,1.45.34,3.51,3.51,0,0,1,1.12.91,4.19,4.19,0,0,1,.71,1.29,4.59,4.59,0,0,1,.25,1.5c0,.25,0,.41-.14.48a1,1,0,0,1-.54.11H220m1.42-3.57a2.42,2.42,0,0,0-.76.7,3.45,3.45,0,0,0-.48,1,7.89,7.89,0,0,0-.25,1.15h5.24a3.73,3.73,0,0,0-.21-1.12,3.56,3.56,0,0,0-.53-1,2.69,2.69,0,0,0-.82-.72,2.13,2.13,0,0,0-1.07-.28A2.17,2.17,0,0,0,221.39,117.09Z"/><path class="cls-1" d="M229.15,124.47a5.3,5.3,0,0,1-.81-.23,4.18,4.18,0,0,1-.75-.36,2.41,2.41,0,0,1-.6-.51l.65-.7.23.16.22.16a4,4,0,0,0,.55.36,2.73,2.73,0,0,0,.62.25,3,3,0,0,0,.77.09,2.34,2.34,0,0,0,.61-.09,2.14,2.14,0,0,0,.6-.27,1.56,1.56,0,0,0,.46-.46,1.17,1.17,0,0,0,.19-.65,1,1,0,0,0-.23-.7,2.43,2.43,0,0,0-.57-.48l-.36-.19a3.29,3.29,0,0,0-.41-.18l-.42-.16-.44-.16q-.44-.18-.84-.37a3.37,3.37,0,0,1-.7-.44,2,2,0,0,1-.48-.57,1.55,1.55,0,0,1-.18-.76,1.75,1.75,0,0,1,.24-.92,2.33,2.33,0,0,1,.63-.69,2.87,2.87,0,0,1,.88-.43,3.5,3.5,0,0,1,1-.15,4,4,0,0,1,.72.09,5.43,5.43,0,0,1,.91.26,3.15,3.15,0,0,1,.78.42.73.73,0,0,1,.33.59.28.28,0,0,1-.13.26.57.57,0,0,1-.31.08.76.76,0,0,1-.31-.11l-.26-.12-.28-.15a5.42,5.42,0,0,0-.67-.31,2.37,2.37,0,0,0-1.4-.07,1.72,1.72,0,0,0-.53.23,1.32,1.32,0,0,0-.4.41,1.13,1.13,0,0,0-.15.61.75.75,0,0,0,.25.58,3,3,0,0,0,.57.4,8.51,8.51,0,0,0,1.15.49,8.09,8.09,0,0,1,1.25.57,3.88,3.88,0,0,1,1,.79,1.72,1.72,0,0,1,.41,1.19,1.88,1.88,0,0,1-.27,1,2.32,2.32,0,0,1-.7.73,3.46,3.46,0,0,1-1,.44,3.86,3.86,0,0,1-1.07.15,4,4,0,0,1-.78-.08"/><path class="cls-1" d="M236.36,124.47a5.31,5.31,0,0,1-.81-.23,4.17,4.17,0,0,1-.75-.36,2.39,2.39,0,0,1-.6-.51l.65-.7.23.16.22.16a4,4,0,0,0,.55.36,2.74,2.74,0,0,0,.62.25,3,3,0,0,0,.77.09,2.35,2.35,0,0,0,.61-.09,2.16,2.16,0,0,0,.6-.27,1.59,1.59,0,0,0,.46-.46,1.17,1.17,0,0,0,.19-.65,1,1,0,0,0-.23-.7,2.41,2.41,0,0,0-.57-.48l-.36-.19a3.34,3.34,0,0,0-.41-.18l-.42-.16-.44-.16q-.44-.18-.84-.37a3.33,3.33,0,0,1-.7-.44,2,2,0,0,1-.48-.57,1.56,1.56,0,0,1-.18-.76,1.76,1.76,0,0,1,.24-.92,2.33,2.33,0,0,1,.63-.69,2.87,2.87,0,0,1,.88-.43,3.5,3.5,0,0,1,1-.15,4.06,4.06,0,0,1,.72.09,5.49,5.49,0,0,1,.91.26,3.13,3.13,0,0,1,.78.42.73.73,0,0,1,.33.59.29.29,0,0,1-.13.26.58.58,0,0,1-.31.08.77.77,0,0,1-.31-.11l-.26-.12-.27-.15A5.42,5.42,0,0,0,238,117a2.37,2.37,0,0,0-1.4-.07,1.73,1.73,0,0,0-.53.23,1.33,1.33,0,0,0-.4.41,1.14,1.14,0,0,0-.15.61.75.75,0,0,0,.25.58,3,3,0,0,0,.57.4,8.46,8.46,0,0,0,1.15.49,8.1,8.1,0,0,1,1.25.57,3.86,3.86,0,0,1,1,.79,1.71,1.71,0,0,1,.41,1.19,1.89,1.89,0,0,1-.27,1,2.33,2.33,0,0,1-.7.73,3.48,3.48,0,0,1-1,.44,3.85,3.85,0,0,1-1.07.15,4,4,0,0,1-.78-.08"/><path class="cls-1" d="M248.44,124.23a4.13,4.13,0,0,1-1.3-1.24v4.87h-1v-11.3a.54.54,0,0,1,.15-.37.43.43,0,0,1,.32-.16.51.51,0,0,1,.34.09.55.55,0,0,1,.15.23c0,.05,0,.11,0,.17s0,.13,0,.2v1a4.11,4.11,0,0,1,1.3-1.36,2.76,2.76,0,0,1,1.4-.39,3,3,0,0,1,1.47.36,3.49,3.49,0,0,1,1.09,1,4.32,4.32,0,0,1,.68,1.35,5.17,5.17,0,0,1,.24,1.54,5.8,5.8,0,0,1-.23,1.6,4.48,4.48,0,0,1-.67,1.41,3.52,3.52,0,0,1-1.1,1,3,3,0,0,1-1.53.38,2.77,2.77,0,0,1-1.33-.36m.62-7.29a3.07,3.07,0,0,0-.58.23,2.38,2.38,0,0,0-.74.61,2.69,2.69,0,0,0-.42.78,4.14,4.14,0,0,0-.19.88,8.6,8.6,0,0,0,0,.91,5.4,5.4,0,0,0,.13,1.16,3.35,3.35,0,0,0,.44,1.08,2.56,2.56,0,0,0,.79.79,2.2,2.2,0,0,0,1.2.31,2.15,2.15,0,0,0,1.19-.31,2.5,2.5,0,0,0,.8-.82,3.78,3.78,0,0,0,.45-1.09,4.78,4.78,0,0,0,.15-1.16,5.49,5.49,0,0,0-.13-1.14,3.86,3.86,0,0,0-.43-1.12,2.65,2.65,0,0,0-.78-.86,2,2,0,0,0-1.18-.34A2.25,2.25,0,0,0,249.06,116.94Z"/><path class="cls-1" d="M257.45,117.17l-.43.22a2.82,2.82,0,0,0-.47.36,2.31,2.31,0,0,0-.41.53,2.89,2.89,0,0,0-.29.78,4.94,4.94,0,0,0-.11,1.09v4.29l-1,0v-7.91a.49.49,0,0,1,.15-.36.51.51,0,0,1,.37-.15.57.57,0,0,1,.36.12.37.37,0,0,1,.15.3c0,.06,0,.12,0,.18l0,.25c0,.11,0,.28,0,.5s0,.54-.07.95a7.76,7.76,0,0,1,.49-1.18,3.58,3.58,0,0,1,.48-.71,1.37,1.37,0,0,1,.47-.36,1.2,1.2,0,0,1,.46-.1.63.63,0,0,1,.44.16.53.53,0,0,1,.18.4.47.47,0,0,1-.29.4,2.8,2.8,0,0,1-.38.2"/><path class="cls-1" d="M260.33,124.24a3.58,3.58,0,0,1-1.15-1,4.36,4.36,0,0,1-.71-1.39,5.44,5.44,0,0,1-.24-1.61,5.06,5.06,0,0,1,.25-1.58,4.35,4.35,0,0,1,.72-1.36,3.69,3.69,0,0,1,1.14-1,3.4,3.4,0,0,1,3.06,0,3.64,3.64,0,0,1,1.14,1,4.38,4.38,0,0,1,.72,1.37,5.06,5.06,0,0,1,.25,1.58,5.26,5.26,0,0,1-.24,1.59,4.36,4.36,0,0,1-.71,1.38,3.68,3.68,0,0,1-1.14,1,3.1,3.1,0,0,1-1.53.37,3.25,3.25,0,0,1-1.55-.36m.35-7a2.65,2.65,0,0,0-.78.84,3.84,3.84,0,0,0-.44,1.11,5.05,5.05,0,0,0-.14,1.13,5.49,5.49,0,0,0,.13,1.14,3.74,3.74,0,0,0,.43,1.12,2.75,2.75,0,0,0,.78.85,2,2,0,0,0,1.17.34,2.15,2.15,0,0,0,1.22-.33,2.67,2.67,0,0,0,.8-.84,3.59,3.59,0,0,0,.44-1.12,5.59,5.59,0,0,0,.13-1.17,5.22,5.22,0,0,0-.14-1.16,3.66,3.66,0,0,0-.44-1.1,2.57,2.57,0,0,0-.79-.82,2.15,2.15,0,0,0-1.21-.32A2,2,0,0,0,260.68,117.2Z"/><path class="cls-1" d="M271.78,117.1a2.44,2.44,0,0,0-.91-.18,2.37,2.37,0,0,0-1.22.3,2.52,2.52,0,0,0-.83.78,3.36,3.36,0,0,0-.47,1.08,4.91,4.91,0,0,0-.15,1.17,4.42,4.42,0,0,0,.15,1.12,4,4,0,0,0,.47,1.1,2.76,2.76,0,0,0,.8.84,2,2,0,0,0,1.15.33,1.79,1.79,0,0,0,.53-.08l.48-.18.22-.1.2-.08a.87.87,0,0,1,.27-.06.45.45,0,0,1,.31.13.41.41,0,0,1,.14.31.62.62,0,0,1-.25.52,1.72,1.72,0,0,1-.6.29,3.92,3.92,0,0,1-.71.13l-.59,0a3.51,3.51,0,0,1-1.58-.34,3.47,3.47,0,0,1-1.16-.92,4,4,0,0,1-.72-1.35,5.56,5.56,0,0,1,0-3.27,4.11,4.11,0,0,1,.74-1.37,3.5,3.5,0,0,1,2.8-1.29,3.7,3.7,0,0,1,1.18.17,6.18,6.18,0,0,1,1.07.49l-.47.82a8.59,8.59,0,0,0-.86-.4"/><path class="cls-1" d="M274.57,120.66a3.47,3.47,0,0,0,.2,1.19,3,3,0,0,0,.57,1,2.62,2.62,0,0,0,.86.65,2.57,2.57,0,0,0,1.1.23,4,4,0,0,0,.83-.09l.82-.2.23.76a8.24,8.24,0,0,1-.95.31,4,4,0,0,1-1,.11,3.68,3.68,0,0,1-1.63-.35,3.62,3.62,0,0,1-1.2-.94,4.12,4.12,0,0,1-.75-1.38,5.24,5.24,0,0,1-.26-1.66,4.82,4.82,0,0,1,.27-1.59,4.3,4.3,0,0,1,.75-1.35,3.76,3.76,0,0,1,1.17-.94,3.31,3.31,0,0,1,1.54-.36,3.1,3.1,0,0,1,1.45.34,3.52,3.52,0,0,1,1.12.91,4.2,4.2,0,0,1,.71,1.29,4.56,4.56,0,0,1,.25,1.5c0,.25,0,.41-.14.48a1,1,0,0,1-.54.11h-5.42m1.42-3.57a2.43,2.43,0,0,0-.76.7,3.46,3.46,0,0,0-.48,1,7.53,7.53,0,0,0-.25,1.15h5.24a3.71,3.71,0,0,0-.21-1.12,3.57,3.57,0,0,0-.53-1,2.7,2.7,0,0,0-.83-.72,2.12,2.12,0,0,0-1.07-.28A2.16,2.16,0,0,0,276,117.09Z"/><path class="cls-1" d="M283.74,124.47a5.29,5.29,0,0,1-.81-.23,4.18,4.18,0,0,1-.75-.36,2.41,2.41,0,0,1-.6-.51l.65-.7.23.16.22.16a4,4,0,0,0,.55.36,2.73,2.73,0,0,0,.62.25,3,3,0,0,0,.77.09,2.34,2.34,0,0,0,.61-.09,2.13,2.13,0,0,0,.6-.27,1.56,1.56,0,0,0,.46-.46,1.17,1.17,0,0,0,.19-.65,1,1,0,0,0-.23-.7,2.44,2.44,0,0,0-.57-.48l-.36-.19a3.32,3.32,0,0,0-.41-.18l-.42-.16-.44-.16q-.44-.18-.84-.37a3.36,3.36,0,0,1-.7-.44A2,2,0,0,1,282,119a1.55,1.55,0,0,1-.18-.76,1.76,1.76,0,0,1,.24-.92,2.33,2.33,0,0,1,.63-.69,2.86,2.86,0,0,1,.88-.43,3.5,3.5,0,0,1,1-.15,4.06,4.06,0,0,1,.72.09,5.44,5.44,0,0,1,.91.26,3.15,3.15,0,0,1,.78.42.73.73,0,0,1,.33.59.28.28,0,0,1-.13.26.57.57,0,0,1-.31.08.76.76,0,0,1-.31-.11l-.26-.12-.28-.15a5.38,5.38,0,0,0-.67-.31,2.37,2.37,0,0,0-1.4-.07,1.71,1.71,0,0,0-.53.23,1.32,1.32,0,0,0-.4.41,1.13,1.13,0,0,0-.15.61.75.75,0,0,0,.25.58,3,3,0,0,0,.57.4,8.51,8.51,0,0,0,1.15.49,8.07,8.07,0,0,1,1.25.57,3.88,3.88,0,0,1,1,.79,1.72,1.72,0,0,1,.41,1.19,1.88,1.88,0,0,1-.27,1,2.32,2.32,0,0,1-.7.73,3.46,3.46,0,0,1-1,.44,3.85,3.85,0,0,1-1.07.15,4,4,0,0,1-.78-.08"/><path class="cls-1" d="M291,124.47a5.31,5.31,0,0,1-.81-.23,4.17,4.17,0,0,1-.75-.36,2.39,2.39,0,0,1-.6-.51l.65-.7.23.16.22.16a4,4,0,0,0,.55.36,2.73,2.73,0,0,0,.62.25,3,3,0,0,0,.77.09,2.36,2.36,0,0,0,.62-.09,2.16,2.16,0,0,0,.6-.27,1.59,1.59,0,0,0,.46-.46,1.17,1.17,0,0,0,.19-.65,1,1,0,0,0-.23-.7,2.42,2.42,0,0,0-.57-.48l-.36-.19a3.38,3.38,0,0,0-.41-.18l-.42-.16-.44-.16q-.44-.18-.84-.37a3.35,3.35,0,0,1-.7-.44,2,2,0,0,1-.48-.57,1.56,1.56,0,0,1-.18-.76,1.77,1.77,0,0,1,.24-.92,2.34,2.34,0,0,1,.63-.69,2.86,2.86,0,0,1,.88-.43,3.5,3.5,0,0,1,1-.15,4.07,4.07,0,0,1,.72.09,5.49,5.49,0,0,1,.91.26,3.13,3.13,0,0,1,.78.42.73.73,0,0,1,.33.59.29.29,0,0,1-.13.26.58.58,0,0,1-.31.08.77.77,0,0,1-.31-.11l-.26-.12-.27-.15a5.38,5.38,0,0,0-.67-.31,2.37,2.37,0,0,0-1.4-.07,1.73,1.73,0,0,0-.53.23,1.34,1.34,0,0,0-.4.41,1.14,1.14,0,0,0-.15.61.75.75,0,0,0,.25.58,3,3,0,0,0,.57.4,8.42,8.42,0,0,0,1.15.49,8.08,8.08,0,0,1,1.25.57,3.86,3.86,0,0,1,1,.79,1.71,1.71,0,0,1,.41,1.19,1.89,1.89,0,0,1-.27,1,2.33,2.33,0,0,1-.7.73,3.48,3.48,0,0,1-1,.44,3.85,3.85,0,0,1-1.07.15,4,4,0,0,1-.78-.08"/><path class="cls-1" d="M305,117.1a2.45,2.45,0,0,0-.91-.18,2.37,2.37,0,0,0-1.22.3,2.53,2.53,0,0,0-.83.78,3.37,3.37,0,0,0-.47,1.08,4.85,4.85,0,0,0-.15,1.17,4.5,4.5,0,0,0,.15,1.12,4,4,0,0,0,.47,1.1,2.78,2.78,0,0,0,.8.84,2,2,0,0,0,1.15.33,1.8,1.8,0,0,0,.53-.08l.49-.18.22-.1.2-.08a.87.87,0,0,1,.27-.06.45.45,0,0,1,.32.13.41.41,0,0,1,.14.31.62.62,0,0,1-.25.52,1.72,1.72,0,0,1-.6.29,3.89,3.89,0,0,1-.71.13l-.59,0a3.51,3.51,0,0,1-1.58-.34,3.47,3.47,0,0,1-1.16-.92,4,4,0,0,1-.72-1.35,5.58,5.58,0,0,1,0-3.27,4.14,4.14,0,0,1,.74-1.37,3.5,3.5,0,0,1,2.8-1.29,3.71,3.71,0,0,1,1.18.17,6.22,6.22,0,0,1,1.07.49l-.47.82a8.48,8.48,0,0,0-.86-.4"/><path class="cls-1" d="M308.74,124.24a3.56,3.56,0,0,1-1.15-1,4.33,4.33,0,0,1-.71-1.39,5.4,5.4,0,0,1-.24-1.61,5.06,5.06,0,0,1,.25-1.58,4.3,4.3,0,0,1,.72-1.36,3.67,3.67,0,0,1,1.14-1,3.4,3.4,0,0,1,3.06,0,3.66,3.66,0,0,1,1.14,1,4.44,4.44,0,0,1,.72,1.37,5.06,5.06,0,0,1,.25,1.58,5.31,5.31,0,0,1-.24,1.59,4.42,4.42,0,0,1-.71,1.38,3.69,3.69,0,0,1-1.14,1,3.1,3.1,0,0,1-1.53.37,3.25,3.25,0,0,1-1.55-.36m.35-7a2.63,2.63,0,0,0-.78.84,3.88,3.88,0,0,0-.44,1.11,5,5,0,0,0-.14,1.13,5.49,5.49,0,0,0,.13,1.14,3.75,3.75,0,0,0,.43,1.12,2.73,2.73,0,0,0,.78.85,2,2,0,0,0,1.17.34,2.15,2.15,0,0,0,1.22-.33,2.65,2.65,0,0,0,.8-.84,3.59,3.59,0,0,0,.44-1.12,5.63,5.63,0,0,0,.13-1.17,5.29,5.29,0,0,0-.14-1.16,3.66,3.66,0,0,0-.44-1.1,2.56,2.56,0,0,0-.79-.82,2.15,2.15,0,0,0-1.2-.32A2,2,0,0,0,309.09,117.2Z"/><path class="cls-1" d="M325.73,124.42a.51.51,0,0,1-.15-.36v-5.14a2.12,2.12,0,0,0-.15-.8,2,2,0,0,0-.43-.66,2,2,0,0,0-1.46-.61,2,2,0,0,0-.8.16,2.07,2.07,0,0,0-1.11,1.11,2,2,0,0,0-.16.8v5.51h-1v-5.51a2,2,0,0,0-.16-.81,2.1,2.1,0,0,0-.44-.65,2.08,2.08,0,0,0-1.48-.61,2,2,0,0,0-.8.16,2,2,0,0,0-.65.44,2.18,2.18,0,0,0-.44.65,2,2,0,0,0-.16.79v5.53h-1v-7.89a.54.54,0,0,1,.8-.45.32.32,0,0,1,.12.18.63.63,0,0,1,0,.28.35.35,0,0,0,0,.08.4.4,0,0,1,0,.1v.6a3.83,3.83,0,0,1,.58-.68,2.52,2.52,0,0,1,.58-.4,2.26,2.26,0,0,1,.58-.19,3.58,3.58,0,0,1,.58,0,2.56,2.56,0,0,1,1.37.4,2.84,2.84,0,0,1,1.05,1.33,3.22,3.22,0,0,1,1.18-1.31,3.12,3.12,0,0,1,3.55.37,2.75,2.75,0,0,1,.78,2.07v5.19a.51.51,0,0,1-.15.36.49.49,0,0,1-.71,0"/><path class="cls-1" d="M330.32,124.23A4.13,4.13,0,0,1,329,123v4.87h-1v-11.3a.54.54,0,0,1,.15-.37.43.43,0,0,1,.32-.16.51.51,0,0,1,.34.09.55.55,0,0,1,.15.23c0,.05,0,.11,0,.17s0,.13,0,.2v1a4.12,4.12,0,0,1,1.3-1.36,2.76,2.76,0,0,1,1.4-.39,3,3,0,0,1,1.47.36,3.5,3.5,0,0,1,1.09,1,4.34,4.34,0,0,1,.68,1.35,5.17,5.17,0,0,1,.23,1.54,5.82,5.82,0,0,1-.23,1.6,4.47,4.47,0,0,1-.67,1.41,3.51,3.51,0,0,1-1.1,1,3,3,0,0,1-1.53.38,2.77,2.77,0,0,1-1.33-.36m.62-7.29a3.1,3.1,0,0,0-.58.23,2.37,2.37,0,0,0-.74.61,2.69,2.69,0,0,0-.42.78,4.18,4.18,0,0,0-.19.88,8.76,8.76,0,0,0,0,.91,5.4,5.4,0,0,0,.13,1.16,3.32,3.32,0,0,0,.44,1.08,2.56,2.56,0,0,0,.79.79,2.2,2.2,0,0,0,1.2.31,2.16,2.16,0,0,0,1.19-.31,2.52,2.52,0,0,0,.8-.82,3.79,3.79,0,0,0,.45-1.09,4.78,4.78,0,0,0,.15-1.16,5.45,5.45,0,0,0-.13-1.14,3.84,3.84,0,0,0-.43-1.12,2.65,2.65,0,0,0-.78-.86,2,2,0,0,0-1.18-.34A2.26,2.26,0,0,0,330.94,116.94Z"/><path class="cls-1" d="M342.89,122.77a4.05,4.05,0,0,1-1.25,1.41,2.57,2.57,0,0,1-1.35.39,3.13,3.13,0,0,1-1.54-.36,3.43,3.43,0,0,1-1.12-1,4.44,4.44,0,0,1-.69-1.37,5.42,5.42,0,0,1-.23-1.59,5.16,5.16,0,0,1,.24-1.56,4.37,4.37,0,0,1,.7-1.37,3.58,3.58,0,0,1,1.12-1,3.08,3.08,0,0,1,1.5-.36,2.89,2.89,0,0,1,1.32.32,4.19,4.19,0,0,1,1.3,1.15v-.91a2,2,0,0,1,.06-.31.35.35,0,0,1,.13-.19.59.59,0,0,1,.34-.07.44.44,0,0,1,.32.15.49.49,0,0,1,.15.35v8h-1v-1.71m-3.67-5.61a2.68,2.68,0,0,0-.82.82,3.45,3.45,0,0,0-.45,1.1,5.35,5.35,0,0,0-.14,1.17,6.16,6.16,0,0,0,.12,1.18,3.65,3.65,0,0,0,.42,1.13,2.53,2.53,0,0,0,.79.85,2.14,2.14,0,0,0,1.22.33,2.3,2.3,0,0,0,1.3-.34,2.34,2.34,0,0,0,.78-.86,3.74,3.74,0,0,0,.38-1.16,7.58,7.58,0,0,0,.11-1.24,6.18,6.18,0,0,0-.11-1.16,3.3,3.3,0,0,0-.4-1.07,2.35,2.35,0,0,0-.76-.78,2.54,2.54,0,0,0-2.45,0Z"/><path class="cls-1" d="M350.91,124.46a.5.5,0,0,1-.14-.36v-5a2.18,2.18,0,0,0-.18-.87,2.49,2.49,0,0,0-.48-.73,2.12,2.12,0,0,0-.71-.49,2.16,2.16,0,0,0-.87-.18,2.08,2.08,0,0,0-.87.18,2.24,2.24,0,0,0-.7.48,2.28,2.28,0,0,0-.47.71,2.2,2.2,0,0,0-.17.86v5.34h-1v-7.92a.49.49,0,0,1,.15-.37.53.53,0,0,1,.38-.15.47.47,0,0,1,.3.07.37.37,0,0,1,.12.2,1,1,0,0,1,0,.32v.81a3.49,3.49,0,0,1,.6-.7,2.72,2.72,0,0,1,.61-.41,2.49,2.49,0,0,1,.62-.2,3.56,3.56,0,0,1,.62-.06,3.21,3.21,0,0,1,1.23.23,2.67,2.67,0,0,1,.94.64,2.88,2.88,0,0,1,.6,1,3.57,3.57,0,0,1,.21,1.24v5a.5.5,0,0,1-.52.52.45.45,0,0,1-.35-.15"/><path class="cls-1" d="M356.56,123.66l-.62,1.74-.49,1.36-.27.76a1,1,0,0,1-.2.36.39.39,0,0,1-.3.13.52.52,0,0,1-.37-.14.44.44,0,0,1-.15-.33,2.36,2.36,0,0,1,.14-.55q.14-.42.35-1t.39-1l.29-.71-2.75-7.83,1-.31,2.28,6.82,2.14-6.57a.74.74,0,0,1,.19-.31.43.43,0,0,1,.31-.12.5.5,0,0,1,.37.15.46.46,0,0,1,.15.34,3.55,3.55,0,0,1-.15.53q-.15.46-.39,1.18t-.57,1.63l-.66,1.9q-.34,1-.68,1.92"/><path class="cls-1" d="M55.35,104.22a8.14,8.14,0,1,1-.15-11.51,8.15,8.15,0,0,1,.15,11.51"/><path class="cls-1" d="M77.66,86.25l0,0,.87,3.42-3.76,1.57-1.8-3,.14-.06a11.5,11.5,0,0,1-4.1,0l-1.81,3-3.76-1.55.87-3.43.08,0a11.53,11.53,0,0,1-2.85-2.87h0l-3.42.88L56.6,80.49l3-1.81.06.14a11.56,11.56,0,0,1,0-4.1l-3-1.8,1.56-3.77,3.42.86,0,.1a11.75,11.75,0,0,1,1.6-1.85H43.53A2.53,2.53,0,0,0,41,70.79V87.29L43.32,89l-.08.09a11.36,11.36,0,0,1,3.7-1.59h0L47.37,84l4-.06.55,3.42h-.14a11.33,11.33,0,0,1,3.74,1.47l2.75-2.12,2.87,2.79-2,2.81L59,92.26a11.32,11.32,0,0,1,1.57,3.67h0l3.44.45.06,4-3.43.55v-.13a11.38,11.38,0,0,1-1.48,3.74l1.84,2.39h16a2.53,2.53,0,0,0,2.52-2.53V84.57a11.58,11.58,0,0,1-1.93,1.68"/><path class="cls-1" d="M78.72,79.89a8.28,8.28,0,1,1-4.47-10.83,8.29,8.29,0,0,1,4.47,10.83"/></g></svg>