<svg id="Partner" xmlns="http://www.w3.org/2000/svg" viewBox="0 0 400 180"><defs><style>.cls-1{fill:#000;}</style></defs><title>jz17-partner-capra</title><path class="cls-1" d="M120.58,128.93c-3.37,3-9,4.46-13.91,4.65-12.57.5-16.95-6.4-17.29-13.63s5.11-14.9,17.34-15.39a19.53,19.53,0,0,1,12.59,3.76l-4.12,3.55a13.12,13.12,0,0,0-8.27-2.3c-8.17.33-11.5,5.48-11.26,10.13s3.67,9.29,12,9a14,14,0,0,0,8.39-3.17Z"/><path class="cls-1" d="M282.38,105.33v.88a7.65,7.65,0,0,1,2.52.75,2.27,2.27,0,0,1,.93,3.12l-12.53,23h6.92l2.9-5.25h17.7l2.85,5.25h7l-15.12-27.73Zm3.3,17.59L292,111.06l6.29,11.86Z"/><path class="cls-1" d="M141,105.33v.88a7.65,7.65,0,0,1,2.52.75,2.27,2.27,0,0,1,.93,3.12l-12.53,23h6.92l2.9-5.25h17.7l2.85,5.25h7l-15.12-27.73H141Zm3.3,17.59,6.29-11.86,6.29,11.86Z"/><path class="cls-1" d="M203.15,105.33H180.61v.88s5.6.41,5.6,5.56v21.29h6.39v-8.2h9.58c14.62,0,16.31-15.28,5.19-18.92a13.55,13.55,0,0,0-4.23-.62m-1,14.72h-9.58v-9.87h9.58c8.13,0,8.18,9.87,0,9.87"/><path class="cls-1" d="M262,133.06l-9.57-8.87c9.93-3,10-15,.37-18.22a13.61,13.61,0,0,0-4.3-.64H225.93v.88s5.6.41,5.6,5.56v1.31h0v20h6.39v-8.19h7.36l8.69,8.2Zm-14.46-13h-9.58v-9.87h9.58c8.13,0,8.18,9.87,0,9.87"/><path class="cls-1" d="M118.24,150.63a6.52,6.52,0,0,1-4.18,1.34c-4.08,0-5.81-2.31-5.83-4.67s1.85-4.77,5.83-4.77a6.35,6.35,0,0,1,4,1.38l-1.38,1.1a4.26,4.26,0,0,0-2.65-.85c-2.65,0-3.8,1.63-3.78,3.14s1.07,3.07,3.78,3.07a4.55,4.55,0,0,0,2.76-.92Z"/><path class="cls-1" d="M140.12,147.29c0,2.34-1.78,4.68-5.64,4.68s-5.65-2.29-5.65-4.67,1.85-4.77,5.65-4.77,5.67,2.39,5.64,4.76m-9.25,0c0,1.49,1,3.08,3.61,3.08s3.57-1.6,3.6-3.09-1-3.23-3.6-3.23-3.66,1.72-3.61,3.25"/><polygon class="cls-1" points="157.78 142.7 159.86 142.7 159.86 151.77 158.57 151.77 158.57 151.78 152.79 145.66 152.79 151.77 150.72 151.77 150.72 142.71 152.4 142.71 157.78 148.32 157.78 142.7"/><path class="cls-1" d="M177.85,144.9a3.42,3.42,0,0,0-2.61-1c-1.54,0-2.28.53-2.28,1.2s1.13,1,2.45,1.14c2.29.23,4.43.72,4.43,2.88s-2.17,2.88-4.62,2.88c-2.25,0-4-.57-4.79-2.22l1.73-.74a3.3,3.3,0,0,0,3.09,1.44c1.3,0,2.53-.38,2.53-1.36s-1.08-1.2-2.54-1.33c-2.25-.22-4.32-.71-4.32-2.74,0-1.86,2.23-2.63,4.26-2.64,1.71,0,3.49.4,4.32,1.8Z"/><path class="cls-1" d="M200.06,142.73v5.18c0,2.68-2,4-4.76,4s-4.88-1.32-4.88-4v-5.18h2.06v5.18c0,1.63,1.13,2.5,2.84,2.5a2.37,2.37,0,0,0,2.68-2.5v-5.18h2.06Z"/><polygon class="cls-1" points="212.89 142.71 212.89 150.19 218.55 150.19 218.55 151.77 210.82 151.77 210.82 142.71 212.89 142.71"/><polygon class="cls-1" points="232.62 144.26 229.13 144.26 229.13 142.71 238.18 142.71 238.18 144.26 234.69 144.26 234.69 151.77 232.62 151.77 232.62 144.26"/><rect class="cls-1" x="248.78" y="142.71" width="2.06" height="9.05"/><polygon class="cls-1" points="268.49 142.7 270.56 142.7 270.56 151.77 269.27 151.77 269.27 151.78 263.49 145.66 263.49 151.77 261.42 151.77 261.42 142.71 263.1 142.71 268.49 148.32 268.49 142.7"/><path class="cls-1" d="M289.75,144.93A4.75,4.75,0,0,0,287,144c-2.35,0-3.78,1.47-3.78,3.34,0,1.49,1.05,3,3.78,3a4.17,4.17,0,0,0,2.48-.72v-1.6h-2.81v-1.53h4.71v3.82A6,6,0,0,1,287,152c-4.13,0-5.81-2.24-5.81-4.62,0-2.55,1.93-4.9,5.81-4.9a6.5,6.5,0,0,1,4.08,1.38Z"/><path class="cls-1" d="M225.67,77l-.75.53c-8.48,5.86-20.89,6.53-30.52,1-8.19-4.74-11.17-13.55-7.67-21a13.34,13.34,0,0,1,1-2,13.69,13.69,0,0,1,2.32-2.73A14.36,14.36,0,1,1,206.54,76v.62a21.18,21.18,0,0,0,10,.39A20.19,20.19,0,0,0,231,66.35a31.91,31.91,0,1,0-4.71,11.19Z"/></svg>