<?xml version="1.0" encoding="utf-8"?>
<!-- Generator: Adobe Illustrator 22.1.0, SVG Export Plug-In . SVG Version: 6.00 Build 0)  -->
<svg version="1.1" id="Layer_1" xmlns="http://www.w3.org/2000/svg" xmlns:xlink="http://www.w3.org/1999/xlink" x="0px" y="0px"
	 viewBox="0 0 283.5 110.4" style="enable-background:new 0 0 283.5 110.4;" xml:space="preserve">
<style type="text/css">
	.st0{fill:#000000;}
</style>
<g>
	<g>
		<path class="st0" d="M156.9,40.5c-0.2-0.9-0.6-1.7-1-2.4c-0.4-0.7-0.9-1.4-1.6-1.9c-0.6-0.5-1.4-1-2.2-1.3c-0.9-0.3-1.9-0.4-3-0.4
			c-1.7,0-3.1,0.3-4.3,1c-1.2,0.7-2.2,1.5-2.9,2.6c-0.8,1.1-1.3,2.3-1.7,3.7c-0.4,1.4-0.5,2.8-0.5,4.2c0,1.4,0.2,2.9,0.5,4.2
			c0.4,1.4,0.9,2.6,1.7,3.7c0.8,1.1,1.7,2,2.9,2.6c1.2,0.7,2.6,1,4.3,1c1.2,0,2.3-0.2,3.2-0.6c0.9-0.4,1.7-1,2.4-1.7
			c0.7-0.7,1.2-1.6,1.6-2.5c0.4-1,0.6-2,0.7-3.1h5.3c-0.1,1.8-0.5,3.5-1.2,5c-0.7,1.5-1.6,2.8-2.8,3.9c-1.2,1.1-2.5,1.9-4.1,2.5
			c-1.6,0.6-3.3,0.9-5.2,0.9c-2.3,0-4.4-0.4-6.3-1.3c-1.9-0.8-3.4-2-4.7-3.4c-1.3-1.4-2.3-3.1-2.9-5c-0.7-1.9-1-4-1-6.2
			c0-2.1,0.3-4.2,1-6.1c0.7-1.9,1.7-3.6,2.9-5c1.3-1.4,2.8-2.6,4.7-3.4c1.8-0.8,3.9-1.3,6.3-1.3c1.7,0,3.4,0.2,4.9,0.7
			c1.5,0.5,2.9,1.1,4.1,2c1.2,0.9,2.1,2,2.9,3.2c0.7,1.3,1.2,2.7,1.4,4.4H156.9z"/>
		<path class="st0" d="M166.8,30.8h5v4.6h-5V30.8z M166.8,39.2h5v21.9h-5V39.2z"/>
		<path class="st0" d="M177.3,30.8h5V42h0.1c0.3-0.5,0.8-1,1.3-1.4c0.5-0.4,1-0.8,1.6-1.1s1.2-0.5,1.9-0.7c0.7-0.2,1.3-0.2,1.9-0.2
			c1.8,0,3.3,0.3,4.7,0.9c1.3,0.6,2.4,1.4,3.3,2.5c0.9,1.1,1.5,2.3,2,3.7c0.4,1.4,0.7,2.9,0.7,4.5c0,1.5-0.2,2.9-0.6,4.3
			c-0.4,1.4-1,2.6-1.8,3.7c-0.8,1.1-1.8,1.9-3,2.5c-1.2,0.6-2.7,1-4.3,1c-0.8,0-1.5,0-2.3-0.1c-0.8-0.1-1.5-0.3-2.2-0.6
			c-0.7-0.3-1.3-0.7-1.9-1.1c-0.6-0.5-1-1-1.4-1.8H182v3h-4.7V30.8z M194.7,50.2c0-1-0.1-2-0.4-2.9c-0.3-0.9-0.7-1.8-1.2-2.5
			c-0.5-0.7-1.2-1.3-2-1.7c-0.8-0.4-1.7-0.7-2.7-0.7c-2.1,0-3.7,0.7-4.7,2.1c-1.1,1.4-1.6,3.3-1.6,5.6c0,1.1,0.1,2.1,0.4,3.1
			c0.3,0.9,0.7,1.8,1.2,2.4c0.6,0.7,1.2,1.2,2,1.6c0.8,0.4,1.7,0.6,2.7,0.6c1.1,0,2.1-0.2,2.9-0.7c0.8-0.5,1.4-1,1.9-1.8
			c0.5-0.7,0.9-1.5,1.1-2.5C194.6,52.1,194.7,51.1,194.7,50.2z"/>
		<path class="st0" d="M207.8,51.4c0,0.8,0.1,1.7,0.4,2.5c0.2,0.8,0.6,1.5,1.1,2.1c0.5,0.6,1.1,1.1,1.9,1.4c0.8,0.4,1.7,0.5,2.7,0.5
			c1.5,0,2.6-0.3,3.5-0.9c0.9-0.6,1.6-1.5,2-2.7h4.7c-0.3,1.2-0.7,2.2-1.4,3.2c-0.6,0.9-1.4,1.7-2.3,2.4c-0.9,0.6-1.9,1.1-3,1.4
			c-1.1,0.3-2.3,0.5-3.5,0.5c-1.8,0-3.4-0.3-4.7-0.8c-1.4-0.6-2.5-1.4-3.5-2.4c-0.9-1-1.7-2.2-2.1-3.6c-0.5-1.4-0.7-3-0.7-4.7
			c0-1.6,0.3-3,0.8-4.4c0.5-1.4,1.2-2.6,2.2-3.7c0.9-1.1,2.1-1.9,3.4-2.5c1.3-0.6,2.9-0.9,4.5-0.9c1.8,0,3.4,0.4,4.8,1.1
			c1.4,0.7,2.6,1.7,3.5,2.9c0.9,1.2,1.6,2.6,2,4.1c0.4,1.5,0.5,3.1,0.3,4.8H207.8z M219.4,48.2c-0.1-0.8-0.2-1.5-0.5-2.2
			c-0.3-0.7-0.7-1.3-1.1-1.8c-0.5-0.5-1.1-0.9-1.7-1.3c-0.7-0.3-1.4-0.5-2.3-0.5c-0.9,0-1.7,0.1-2.4,0.4c-0.7,0.3-1.3,0.7-1.8,1.2
			c-0.5,0.5-0.9,1.1-1.2,1.8c-0.3,0.7-0.5,1.5-0.5,2.3H219.4z"/>
		<path class="st0" d="M228.2,39.2h4.7v4.2h0.1c0.1-0.6,0.4-1.2,0.9-1.7c0.4-0.6,0.9-1.1,1.5-1.5s1.3-0.8,2-1.1
			c0.7-0.3,1.5-0.4,2.2-0.4c0.6,0,1,0,1.2,0c0.2,0,0.4,0.1,0.7,0.1v4.7c-0.3-0.1-0.7-0.1-1.1-0.1c-0.4,0-0.7-0.1-1.1-0.1
			c-0.8,0-1.6,0.2-2.4,0.5c-0.7,0.3-1.4,0.8-1.9,1.4c-0.6,0.6-1,1.4-1.3,2.4c-0.3,0.9-0.5,2-0.5,3.2v10.4h-5V39.2z"/>
	</g>
	<g>
		<g>
			<path class="st0" d="M113,23c-1.6-1.6-3.6-2.4-5.9-2.4c-2.2,0-4.3,0.9-5.9,2.4L88.8,35.5c-1.6,1.6-2.4,3.6-2.4,5.9
				c0,2.2,0.9,4.3,2.4,5.9c1.6,1.6,3.6,2.4,5.9,2.4c2.2,0,4.3-0.9,5.9-2.4L113,34.8C116.3,31.5,116.3,26.3,113,23z"/>
			<path class="st0" d="M113,78l-12.5-12.5c-1.6-1.6-3.7-2.4-5.9-2.4c-2.2,0-4.3,0.9-5.9,2.4c-1.6,1.6-2.4,3.6-2.4,5.9
				c0,2.2,0.9,4.3,2.4,5.9l12.5,12.5c1.6,1.6,3.6,2.4,5.9,2.4l0,0c2.2,0,4.3-0.9,5.9-2.4C116.3,86.5,116.3,81.2,113,78z"/>
			<path class="st0" d="M87.9,56.4L87.9,56.4C87.9,56.3,87.9,56.3,87.9,56.4c0-2.2-0.9-4.3-2.4-5.9L58.1,23
				c-1.6-1.6-3.6-2.4-5.9-2.4c-2.2,0-4.3,0.9-5.9,2.4c-3.2,3.2-3.2,8.5,0,11.7L68,56.4L46.4,78c-3.2,3.2-3.2,8.5,0,11.7
				c1.6,1.6,3.6,2.4,5.9,2.4s4.3-0.9,5.9-2.4l27.4-27.5C87.1,60.7,87.9,58.6,87.9,56.4C87.9,56.4,87.9,56.4,87.9,56.4L87.9,56.4z"/>
		</g>
	</g>
	<g>
		<path class="st0" d="M135.7,66.6H148v2.5h-9.3v4.3h8.6v2.4h-8.6v4.9h9.5v2.5h-12.5V66.6z"/>
		<path class="st0" d="M154.2,76.8l-4.3-5.7h3.3l2.6,3.7l2.7-3.7h3.2l-4.2,5.6l4.7,6.5h-3.3l-3.1-4.4l-3,4.4h-3.2L154.2,76.8z"/>
		<path class="st0" d="M163.8,71.1h2.6v1.6h0c0.4-0.7,0.9-1.2,1.6-1.5c0.7-0.3,1.4-0.5,2.2-0.5c1,0,1.8,0.2,2.5,0.5
			c0.7,0.3,1.3,0.8,1.8,1.4c0.5,0.6,0.8,1.3,1.1,2c0.2,0.8,0.4,1.6,0.4,2.5c0,0.8-0.1,1.6-0.3,2.3c-0.2,0.8-0.5,1.4-1,2
			c-0.4,0.6-1,1-1.7,1.4c-0.7,0.3-1.5,0.5-2.4,0.5c-0.4,0-0.8,0-1.2-0.1c-0.4-0.1-0.8-0.2-1.1-0.3c-0.4-0.2-0.7-0.4-1-0.6
			c-0.3-0.2-0.6-0.5-0.8-0.8h0v6h-2.7V71.1z M173.3,77.1c0-0.5-0.1-1.1-0.2-1.6c-0.1-0.5-0.4-1-0.6-1.4c-0.3-0.4-0.6-0.7-1.1-1
			c-0.4-0.2-0.9-0.4-1.5-0.4c-1.1,0-2,0.4-2.6,1.2c-0.6,0.8-0.9,1.8-0.9,3.1c0,0.6,0.1,1.2,0.2,1.7c0.2,0.5,0.4,1,0.7,1.3
			c0.3,0.4,0.7,0.7,1.1,0.9c0.4,0.2,0.9,0.3,1.5,0.3c0.6,0,1.1-0.1,1.6-0.4s0.8-0.6,1.1-1c0.3-0.4,0.5-0.8,0.6-1.3
			C173.3,78.2,173.3,77.7,173.3,77.1z"/>
		<path class="st0" d="M180.5,77.8c0,0.5,0.1,0.9,0.2,1.3c0.1,0.4,0.3,0.8,0.6,1.1c0.3,0.3,0.6,0.6,1,0.8c0.4,0.2,0.9,0.3,1.5,0.3
			c0.8,0,1.4-0.2,1.9-0.5c0.5-0.3,0.8-0.8,1.1-1.5h2.6c-0.1,0.7-0.4,1.2-0.7,1.7c-0.4,0.5-0.8,0.9-1.3,1.3c-0.5,0.3-1,0.6-1.7,0.8
			c-0.6,0.2-1.3,0.3-1.9,0.3c-1,0-1.8-0.2-2.6-0.5c-0.7-0.3-1.4-0.7-1.9-1.3s-0.9-1.2-1.2-2c-0.3-0.8-0.4-1.6-0.4-2.6
			c0-0.9,0.1-1.7,0.4-2.4c0.3-0.8,0.7-1.4,1.2-2c0.5-0.6,1.1-1,1.9-1.4c0.7-0.3,1.6-0.5,2.5-0.5c1,0,1.8,0.2,2.6,0.6
			c0.8,0.4,1.4,0.9,1.9,1.6c0.5,0.7,0.9,1.4,1.1,2.2c0.2,0.8,0.3,1.7,0.2,2.6H180.5z M186.9,76.1c0-0.4-0.1-0.8-0.3-1.2
			c-0.2-0.4-0.4-0.7-0.6-1c-0.3-0.3-0.6-0.5-1-0.7c-0.4-0.2-0.8-0.3-1.3-0.3c-0.5,0-0.9,0.1-1.3,0.2c-0.4,0.2-0.7,0.4-1,0.7
			c-0.3,0.3-0.5,0.6-0.7,1c-0.2,0.4-0.3,0.8-0.3,1.3H186.9z"/>
		<path class="st0" d="M191.7,71.1h2.6v2.3h0c0.1-0.3,0.2-0.6,0.5-1c0.2-0.3,0.5-0.6,0.8-0.8c0.3-0.3,0.7-0.5,1.1-0.6
			c0.4-0.2,0.8-0.2,1.2-0.2c0.3,0,0.5,0,0.7,0c0.1,0,0.2,0,0.4,0v2.6c-0.2,0-0.4-0.1-0.6-0.1c-0.2,0-0.4,0-0.6,0
			c-0.5,0-0.9,0.1-1.3,0.3c-0.4,0.2-0.8,0.4-1.1,0.8c-0.3,0.3-0.5,0.8-0.7,1.3s-0.3,1.1-0.3,1.8v5.7h-2.7V71.1z"/>
		<path class="st0" d="M200.2,66.6h2.7v2.5h-2.7V66.6z M200.2,71.1h2.7v12h-2.7V71.1z"/>
		<path class="st0" d="M207.9,79.3c0.1,0.8,0.4,1.3,0.9,1.6s1.2,0.5,1.9,0.5c0.3,0,0.5,0,0.9-0.1c0.3,0,0.6-0.1,0.9-0.2
			c0.3-0.1,0.5-0.3,0.7-0.5c0.2-0.2,0.3-0.4,0.3-0.7c0,0,0-0.1,0-0.3c0-0.2-0.1-0.4-0.4-0.6c-0.2-0.2-0.5-0.4-0.9-0.5
			c-0.4-0.1-0.8-0.2-1.3-0.3c-0.5-0.1-1-0.2-1.5-0.3c-0.5-0.1-1-0.2-1.5-0.4c-0.5-0.2-0.9-0.4-1.3-0.6c-0.4-0.3-0.7-0.6-0.9-1
			c-0.2-0.4-0.3-0.9-0.3-1.5c0-0.7,0.2-1.2,0.5-1.6c0.3-0.4,0.7-0.8,1.2-1.1c0.5-0.3,1.1-0.5,1.7-0.6c0.6-0.1,1.2-0.2,1.8-0.2
			c0.6,0,1.2,0.1,1.8,0.2c0.6,0.1,1.1,0.3,1.6,0.6c0.5,0.3,0.9,0.7,1.2,1.1c0.3,0.5,0.5,1,0.6,1.7h-2.8c-0.1-0.6-0.4-1.1-0.9-1.3
			c-0.5-0.2-1-0.3-1.6-0.3c-0.2,0-0.4,0-0.7,0c-0.3,0-0.5,0.1-0.7,0.2c-0.2,0.1-0.4,0.2-0.6,0.4c-0.2,0.2-0.2,0.4-0.2,0.6
			c0,0.3,0.1,0.6,0.3,0.8c0.2,0.2,0.5,0.4,0.9,0.5c0.4,0.1,0.8,0.2,1.3,0.3c0.5,0.1,1,0.2,1.5,0.3c0.5,0.1,1,0.2,1.5,0.4
			c0.5,0.2,0.9,0.4,1.3,0.6c0.4,0.3,0.7,0.6,0.9,1c0.2,0.4,0.3,0.9,0.3,1.5c0,0.7-0.2,1.3-0.5,1.8c-0.3,0.5-0.8,0.9-1.3,1.2
			c-0.5,0.3-1.1,0.5-1.8,0.7c-0.7,0.1-1.3,0.2-1.9,0.2c-0.8,0-1.5-0.1-2.2-0.3c-0.7-0.2-1.2-0.4-1.7-0.8c-0.5-0.3-0.9-0.8-1.1-1.3
			c-0.3-0.5-0.4-1.1-0.4-1.8H207.9z"/>
	</g>
</g>
</svg>
