<svg id="Partner" xmlns="http://www.w3.org/2000/svg" viewBox="0 0 400 180"><defs><style>.cls-1{fill:#fff;}</style></defs><title>jz17-partner-ciber</title><path class="cls-1" d="M107.39,122.54c9.56-.3,15-1.82,15-13.58V89c0-3.68.19-5.11-.34-7.21-.44-1.72-1.13-3.2-5.78-2.88-.92.07-1.4.08-6.1.59V74.42s22.83-5.4,28.58-6.85a25.71,25.71,0,0,1,4.49-.89,2.58,2.58,0,0,1,.26,1.13V109c0,11.8,5.46,13.27,14.46,13.59v5.25H107.39Z"/><path class="cls-1" d="M131.9,58.44c7,0,12.61-3.57,12.61-8s-5.65-8-12.61-8-12.62,3.56-12.62,8,5.64,8,12.62,8"/><path class="cls-1" d="M84.28,88.5c-.34-4.79-1.94-9-8-9-4.56,0-8.9,3.88-8.9,18,0,13.34,3.43,18,11.08,18,7,0,9.59-4.79,11.41-10.27L105.29,108c-5.26,13.35-14.16,21.47-29.22,21.47-18,0-31.06-11.77-31.06-32,0-18.59,12.57-32,30.84-32,14.84,0,24.19,7.54,27.85,21.69Z"/><path class="cls-1" d="M185,83.86c3.18-3.32,5.79-4.58,8.74-4.58,6.69,0,9.18,6.06,9.18,19s-2.94,18.57-9.87,18.57c-4.87,0-8.05-3.78-8.05-10.44Zm-21.44,44h13l3.88-9.23c4.33,7.26,11.48,10.79,19.64,10.79,13.81,0,25.24-11.86,25.24-32.49,0-14.79-6.4-30.85-23.3-30.85-7.49,0-13.17,2.73-16.79,8.42H185V49.56H163.52Z"/><path class="cls-1" d="M253.3,89.9c.11-6.65,2.73-11.8,10-11.8,6.15,0,9.12,5.39,8.9,11.8Zm41.32,11.61V99.8c0-23.77-14.06-34.28-32.09-34.28-19.85,0-32.42,13.36-32.42,32,0,20.18,13.37,31.93,32.42,31.93,14.49,0,24.66-5.59,32.09-16.43l-14.18-6.37a15.91,15.91,0,0,1-13.8,8.87c-8.09,0-14.13-5.34-14.13-14Z"/><path class="cls-1" d="M301.62,67.07h21.43l0,9.5h.24C327.59,69.72,336.49,66,344.7,65.5V87.87a27.89,27.89,0,0,0-11.6-3.08c-4,0-6.85,1.48-10,4.1v39H301.62Z"/><path class="cls-1" d="M363,70.43a6.47,6.47,0,1,1-1.89-4.56A6.22,6.22,0,0,1,363,70.43m-.93,0a5.54,5.54,0,1,0-1.62,3.9,5.33,5.33,0,0,0,1.62-3.9m-2.48,3.75h-1.22L356.92,71h-2.05v3.2h-1.09V66.68h3.16a2.56,2.56,0,0,1,1.91.66,2.09,2.09,0,0,1,.63,1.46,2.15,2.15,0,0,1-.35,1.15,1.94,1.94,0,0,1-1.09.78Zm-4.73-4.07h1.92a1.5,1.5,0,0,0,1.12-.39,1.3,1.3,0,0,0,.37-.94,1.05,1.05,0,0,0-.39-.88,1.59,1.59,0,0,0-1-.3h-2Z"/></svg>