<svg id="Partner" xmlns="http://www.w3.org/2000/svg" viewBox="0 0 400 180"><defs><style>.cls-1{fill:#000;}</style></defs><title>jz17-partner-computas</title><path class="cls-1" d="M59.84,85.26H71.41s-3.94,6.78-8.05,7c-8.48.48-12.29,1.09-14.23,8-1.39,4.84.85,6.36,8.9,6.72,6.72.3,5.69,7,5.69,7H51.66c-9.33,0-12.11-5.63-10-13.63C44,91.5,50.51,85.26,59.84,85.26Zm122.63-.06H168.3v.06c-1.39,3.88.48,6.48,6.72,6.48h.06c8.78,0,9.69,3.94,8.66,7.81-1,3.63-2.91,7.39-9.63,7.39h-2.54c1-3.88.73-2.6,1.39-5.15s2.3-5.63-2.24-5.69-4.78,3.39-5.21,5.09c-.36,1.27-7,26.46-7,26.46-.67,2.42.67,3.21,3,3.21s4-.73,4.66-3.21l3.69-13.87s3.75-.06,5.45-.06c8-.18,13.56-6.66,15.56-14C192.82,92.11,189.85,85.2,182.47,85.2ZM81.4,99.61c1.27-5,4.36-8.72,8.78-8.72s5.51,3.75,4.18,8.72c-1.27,4.6-4.3,8.66-8.78,8.66S80.13,104.22,81.4,99.61Zm-7.63,0c-2,7.57-.12,14.29,10.23,14.29s15.93-6.72,17.93-14.29c2.18-8.05-1-14.35-10.23-14.35S75.95,91.56,73.77,99.61Zm152.54,3.88c-2.18,8.11-9.87,10.36-16.11,10.42-5.21.06-13.08-3.45-11.14-10.48L204,85s8,1.15,6.54,6.6l-2.79,10.23c-.85,3.09,1.21,4.72,4.48,4.72a7.27,7.27,0,0,0,7-5.45L222,91.38c1-3.81,9.33-6.36,9.33-6.36Zm17.38-12.23h-9.14s2.85-6.06,6.48-6.42h4.36l2.24-8.48s7.45.91,6.12,6L247.2,106.7c-.3,1.15.18,1.7,1.51,1.7H253s-3.88,5.15-8.78,5.51c-5.57.36-6.12-1.94-5-6.42Zm66.92-6c5.87,0,12-.06,12-.06s-2,6.24-10.36,6.3c-4.18,0-6.06-.18-7.21,1.51-4.06,6.18,16.41-1.27,13.26,11-2.18,8.42-8.36,9.87-14.11,9.87H292.68s2.18-6.48,10.17-6.6c4.6-.06,7.93.06,8.66-2.36.36-1.21-1.45-1.88-3.15-2.12-4.66-.61-13.2.3-10.36-9.33C299.95,87.08,305.4,85.32,310.61,85.26Zm-197.23,6.6s5-6.54,12.41-6.66c4.66-.06,7.33,1.33,8.72,3.15a5.39,5.39,0,0,1,1.33,2.06A16.22,16.22,0,0,1,147,85.32c5.33,0,10.78,2.66,9,9.51l-5.15,19.08s-6.48-2.12-5.63-5.39l3.09-11.75c.73-2.72-.42-4.9-3.39-4.9a7.88,7.88,0,0,0-7.09,5.87L134.38,110c-.55,2.06-1.82,3.88-4.78,3.88s-3.33-1.82-2.79-3.88l3.45-13.26c1-3.63-2.24-4.9-5.33-4.9Zm3.63,16c1.27-4.84.85-3.15,1.51-5.81.67-2.48,2.3-5.57-2.3-5.63s-5,3.09-5.33,4.84-3.45,12.66-3.45,12.66S115.61,112.82,117,107.85Zm159.2-22.77c-9.87,1.15-14.78,10.17-15.68,13.93-1.45,5.81-1,13.69,7.69,14.9h15.14L291,85.08Zm-5.45,21.74c-2.48-.91-3.94-3-2.79-7.21,1.33-4.84,3.88-5.94,6.84-6.9a18.89,18.89,0,0,1,6.42-.61l-4.06,15.38A19.59,19.59,0,0,1,270.76,106.82Z"/><path class="cls-1" d="M345.08,38.51c3.9-.94,14-.15,18.79-.52a23.52,23.52,0,0,0-18.42-8.23,24.55,24.55,0,0,0-14.58,44.3C326,66,332.41,41.58,345.08,38.51Z"/><path class="cls-1" d="M365.81,40.9a13.2,13.2,0,0,1-12.17,8.25c-12.32.18-17.77,2.37-20.16,9.24-1.33,3.82-.45,7,1.8,7.93,3.4,1.33,11.15-8.63,17.06-3.1s-6.77,14.33-17,13.47A24.55,24.55,0,0,0,370,54.31C370,49,368.41,45.53,365.81,40.9Z"/></svg>