<?xml version="1.0" encoding="utf-8"?>
<!-- Generator: Adobe Illustrator 21.1.0, SVG Export Plug-In . SVG Version: 6.00 Build 0)  -->
<svg version="1.1" id="Layer_1" xmlns="http://www.w3.org/2000/svg" xmlns:xlink="http://www.w3.org/1999/xlink" x="0px" y="0px"
	 viewBox="0 0 283.5 110.4" style="enable-background:new 0 0 283.5 110.4;" xml:space="preserve">
<style type="text/css">
	.st0{fill:#000;}
</style>
<g>
	<path class="st0" d="M75.7,41.8C68.3,29,51.9,24.7,39.1,32.1C26.4,39.5,22,55.9,29.5,68.6c7.4,12.8,23.8,17.1,36.5,9.7
		c7.7-4.5,12.6-12.4,13.2-21.3c0-0.6,0.1-1.2,0.1-1.8c0-0.7,0-1.4-0.1-2.2C78.9,49.1,77.7,45.2,75.7,41.8z M75.3,58
		c-1.5,12.5-12.9,21.4-25.4,19.9C37.4,76.3,28.5,65,30,52.4C31.6,39.9,42.9,31,55.4,32.6c10.3,1.3,18.4,9.3,19.8,19.5
		c0.1,0.5-0.3,0.9-0.7,0.9c0,0-0.1,0-0.1,0h-9.8c-0.4,0-0.7-0.3-0.8-0.7c-1.5-6.2-7.8-9.9-14-8.4c-6.2,1.5-9.9,7.8-8.4,14
		c1.5,6.2,7.8,9.9,14,8.4c4.2-1.1,7.5-4.4,8.4-8.7c0.1-0.4,0.4-0.7,0.8-0.7h9.7C75,57,75.4,57.4,75.3,58
		C75.3,57.9,75.3,57.9,75.3,58L75.3,58z M125,47.8c-4.8,0-8.7,3.8-8.7,8.6c0,4.8,3.8,8.7,8.6,8.7c4.8,0,8.7-3.8,8.7-8.6c0,0,0,0,0,0
		c0.1-4.6-3.5-8.5-8.2-8.7C125.2,47.8,125.1,47.8,125,47.8L125,47.8z M125,61.6c-2.8,0.1-5.2-2-5.4-4.9c-0.1-2.8,2-5.2,4.9-5.4
		c2.8-0.1,5.2,2,5.4,4.9c0,0.1,0,0.2,0,0.2c0.1,2.7-2,5-4.6,5.1C125.1,61.6,125,61.6,125,61.6L125,61.6z M111.7,59.2
		c-0.1-0.1-0.2,0-0.3,0c-1,1.4-2.6,2.3-4.4,2.3c-2.8,0.1-5.2-2.2-5.2-5c-0.1-2.8,2.2-5.2,5-5.2c1.7,0,3.2,0.8,4.2,2.2
		c0.1,0.1,0.2,0.1,0.3,0c0,0,0,0,0,0l2.4-2c0.1-0.1,0.1-0.2,0-0.3c-1.7-2.2-4.2-3.4-6.9-3.4c-4.7-0.1-8.5,3.6-8.6,8.3
		c0,0.1,0,0.2,0,0.4c0,4.9,3.8,8.6,8.8,8.6c2.9,0,5.6-1.4,7.3-3.7c0.1-0.1,0-0.2-0.1-0.3L111.7,59.2z M251.6,54.6
		c-1.6-0.4-2.7-0.8-2.7-1.7c0-1.2,1.4-1.8,2.7-1.8c1.1,0,2.3,0.4,3.2,1.1c0.1,0.1,0.2,0,0.3,0l1.7-2.3c0.1-0.1,0.1-0.2,0-0.3
		c-1.5-1.2-3.4-1.7-5.3-1.7c-3,0-6.2,1.6-6.2,5.3c0,2,1.3,3.5,3.9,4.4c0.6,0.2,1.2,0.3,1.7,0.5c2,0.5,3.2,0.9,3.2,2.1
		s-1.3,1.8-2.6,1.8c-1.6,0-3.2-0.6-4.5-1.6c-0.1-0.1-0.2-0.1-0.3,0c0,0,0,0,0,0l-1.7,2.4c-0.1,0.1,0,0.2,0,0.3
		c1.9,1.4,4.2,2.2,6.5,2.2c3,0,6.2-1.8,6.2-5.2C257.6,56.1,253.4,55.1,251.6,54.6z M157.5,47.8c-2.2,0-4.4,0.8-6,2.4
		c-0.1,0.1-0.2,0.1-0.3,0c-2.6-2.8-6.9-3.2-10-0.9c0,0-0.1,0-0.1,0c0,0,0,0,0-0.1v-0.9c0-0.1-0.1-0.2-0.2-0.2h-3.2
		c-0.1,0-0.2,0.1-0.2,0.2c0,0,0,0,0,0v16.2c0,0.1,0.1,0.2,0.2,0.2l0,0h3.3c0.1,0,0.2-0.1,0.2-0.2l0,0v-11c0-0.1,0-0.1,0.1-0.1
		c1.1-1.3,2.6-2,4.3-2.1c1.1,0,2.2,0.5,3,1.3c0.6,0.7,0.9,1.6,0.9,3.1v8.8c0,0.1,0.1,0.2,0.2,0.2l0,0h3.3c0.1,0,0.2-0.1,0.2-0.2l0,0
		v-8.2c0-0.9-0.1-1.8-0.2-2.7c0-0.1,0-0.1,0.1-0.2c1.2-1.3,2.8-2.1,4.6-2.1c1.1,0,2.1,0.5,2.9,1.3c0.6,0.7,0.9,1.6,0.9,3.1v8.8
		c0,0.1,0.1,0.2,0.2,0.2c0,0,0,0,0,0h3.3c0.1,0,0.2-0.1,0.2-0.2c0,0,0,0,0,0v-8.2c0-2.6-0.5-4.3-1.5-5.7
		C162,48.8,159.8,47.8,157.5,47.8z M220.7,61.4c-0.5,0.1-1,0.1-1.5,0.1c-0.8,0-1.5-0.2-2.1-0.8c-0.4-0.6-0.5-1.3-0.4-1.9v-7.1
		c0-0.1,0.1-0.2,0.2-0.2c0,0,0,0,0,0h3c0.1,0,0.2-0.1,0.2-0.2c0,0,0,0,0,0v-2.9c0-0.1-0.1-0.2-0.2-0.2l0,0h-3
		c-0.1,0-0.2-0.1-0.2-0.2l0,0v-4c0-0.1-0.1-0.2-0.2-0.2l0,0h-3.3c-0.1,0-0.2,0.1-0.2,0.2l0,0v4c0,0.1-0.1,0.2-0.2,0.2c0,0,0,0,0,0
		H210c-0.1,0-0.2,0.1-0.2,0.2c0,0,0,0,0,0v2.9c0,0.1,0.1,0.2,0.2,0.2l0,0h2.8c0.1,0,0.2,0.1,0.2,0.2l0,0v7c0,2,0.4,3.4,1.4,4.4
		c1.2,1.3,2.9,2,4.7,2c0.8,0,1.6-0.1,2.4-0.3c0.1,0,0.2-0.1,0.1-0.2c0,0,0,0,0,0l-0.7-3C221,61.4,220.9,61.4,220.7,61.4
		C220.8,61.4,220.7,61.4,220.7,61.4z M240.6,48.1h-3.2c-0.1,0-0.2,0.1-0.2,0.2l0,0v0.9c0,0,0,0.1-0.1,0.1c0,0,0,0,0,0
		c-1.4-1-3-1.5-4.7-1.5c-1.4,0-2.8,0.3-4.1,1.1c-4.2,2.5-5.5,8-3,12.2c0.7,1.2,1.7,2.2,3,3c1.3,0.7,2.7,1.1,4.2,1.1
		c1.7,0,3.3-0.5,4.6-1.5c0,0,0.1,0,0.1,0c0,0,0,0,0,0.1v0.9c0,0.1,0.1,0.2,0.2,0.2c0,0,0,0,0,0h3.2c0.1,0,0.2-0.1,0.2-0.2
		c0,0,0,0,0,0V48.4C240.8,48.2,240.7,48.1,240.6,48.1C240.6,48.1,240.6,48.1,240.6,48.1L240.6,48.1z M237.1,59.3c0,0,0,0.1,0,0.1
		c-1,1.3-2.5,2.1-4.2,2.1c-2.8,0-5.1-2.2-5.1-5c0,0,0-0.1,0-0.1c-0.1-2.7,2-5,4.8-5.1c0.1,0,0.1,0,0.2,0c1.7,0,3.3,0.8,4.3,2.1
		c0,0,0,0.1,0,0.1L237.1,59.3z M182.5,48.9c-1.2-0.7-2.6-1.1-4.1-1.1c-1.7,0-3.3,0.5-4.7,1.5c0,0-0.1,0-0.1,0c0,0,0,0,0-0.1v-0.9
		c0-0.1-0.1-0.2-0.2-0.2h-3.1c-0.1,0-0.2,0.1-0.2,0.2c0,0,0,0,0,0v24.4c0,0.1,0.1,0.2,0.2,0.2c0,0,0,0,0,0h3.3
		c0.1,0,0.2-0.1,0.2-0.2c0,0,0,0,0,0v-9c0,0,0-0.1,0.1-0.1c0,0,0,0,0.1,0c1.3,1,2.9,1.4,4.5,1.4c1.5,0,2.9-0.4,4.2-1.1
		c4.2-2.6,5.5-8,2.9-12.2C184.8,50.6,183.8,49.6,182.5,48.9L182.5,48.9z M178,61.6c-1.6,0-3.2-0.8-4.2-2.1c0,0-0.1-0.1-0.1-0.1v-5.7
		c0-0.1,0-0.1,0.1-0.1c1.1-1.3,2.7-2.1,4.3-2.1c2.7,0,4.9,2.2,5,4.9c0,0.1,0,0.2,0,0.2C183.1,59.3,180.9,61.5,178,61.6
		C178,61.6,178,61.6,178,61.6L178,61.6z M205.9,48.2h-3.3c-0.1,0-0.2,0.1-0.2,0.2l0,0v10.9c0,0,0,0.1,0,0.1c-1.1,1.3-2.6,2-4.3,2.1
		c-1.1,0-2.2-0.5-3-1.3c-0.6-0.7-0.9-1.6-0.9-3.1v-8.8c0-0.1-0.1-0.2-0.2-0.2h-3.3c-0.1,0-0.2,0.1-0.2,0.2v8.3
		c0,2.6,0.5,4.3,1.5,5.7c1.4,1.8,3.6,2.8,5.9,2.8c1.6,0,3.1-0.5,4.4-1.5c0,0,0.1,0,0.1,0c0,0,0,0,0,0v0.9c0,0.1,0.1,0.2,0.2,0.2
		c0,0,0,0,0,0h3.2c0.1,0,0.2-0.1,0.2-0.2c0,0,0,0,0,0V48.4C206.1,48.2,206,48.1,205.9,48.2C205.9,48.1,205.9,48.1,205.9,48.2
		L205.9,48.2z"/>
</g>
</svg>
