<svg id="Partner" xmlns="http://www.w3.org/2000/svg" viewBox="0 0 400 180"><defs><style>.cls-1{fill:#000;}</style></defs><title>jz17-partner-couchbase</title><g id="Shape"><path class="cls-1" d="M150.79,106.91c-11.22,0-16.85-8.07-16.85-17S139.8,73,150.9,73a17.47,17.47,0,0,1,9.89,2.6l-3.2,5.25a11.8,11.8,0,0,0-6.8-1.88c-6,0-9.23,4.81-9.23,10.77,0,6.13,3.09,11.22,9.34,11.22a11.38,11.38,0,0,0,7.35-2.49l2.93,5a16.58,16.58,0,0,1-10.39,3.43ZM174.61,86.8c-3.59,0-4.75,3-4.75,7.46s1.44,7.57,5,7.57,4.86-3,4.86-7.4S178.25,86.8,174.61,86.8Zm.11,20.11c-8.4,0-12-6.3-12-12.49s3.65-12.65,12-12.65S186.93,88,186.93,94.2s-3.76,12.71-12.21,12.71Zm22.77-24.53V97.74c0,2.38.83,3.54,3.09,3.54,2.43,0,4.25-2.32,4.75-2.87v-16h6.74V99.28a32.74,32.74,0,0,0,.66,7H206a16.3,16.3,0,0,1-.5-3.2,9.54,9.54,0,0,1-7.74,3.76c-5.3,0-7.18-3.37-7.18-7.79V82.32h6.85v.06Zm31.22,24.53c-7.74,0-12.49-5-12.49-12.54,0-8.07,5.36-12.6,12.71-12.6a13.5,13.5,0,0,1,7.35,1.88l-2.15,4.64a8.9,8.9,0,0,0-5-1.38c-3.76,0-5.75,2.93-5.75,7.29s1.88,7.51,5.91,7.51a9,9,0,0,0,5.08-1.44l2,4.53a13,13,0,0,1-7.74,2.1Zm25.86-.55V90.94c0-2.38-.83-3.54-3.09-3.54-2.43,0-4.31,2.27-4.81,2.87v16h-6.74V70.94h6.74V85.19a9.79,9.79,0,0,1,7.46-3.43c5.31,0,7.18,3.37,7.18,7.79V106.3h-6.74v.06Zm19-5.25a8.79,8.79,0,0,0,3.2.5c3.48,0,5.64-2.54,5.64-7.46,0-4.42-1.49-7.07-4.92-7.07a5.52,5.52,0,0,0-3.92,1.77v12.27Zm0-30.11V84.25a8.52,8.52,0,0,1,5.86-2.49c6,0,10.17,4.09,10.17,12.38s-5.53,12.76-12.82,12.76a23.62,23.62,0,0,1-10-1.93v-34h6.8V71Zm32.1,24.81h-.83c-3.7,0-6.3,1.11-6.3,3.81,0,1.71,1.38,2.43,2.87,2.43a5.8,5.8,0,0,0,4.25-2V95.8Zm.72,10.55a12.21,12.21,0,0,1-.39-2.54,8.72,8.72,0,0,1-6.69,3.15c-4.09,0-7.24-2.43-7.24-6.74,0-6.24,6.41-8.51,12.76-8.51h.83V90.39c0-2-.83-3.2-3.81-3.2a10.29,10.29,0,0,0-6.08,2.21l-2.93-4.09a14.24,14.24,0,0,1,9.78-3.48c6.63,0,9.78,2.54,9.78,9v8.4a34.21,34.21,0,0,0,.66,7.18h-6.69Zm18.18.55a15.22,15.22,0,0,1-8.56-2.27l2.27-4.7a11,11,0,0,0,5.91,2c2.49,0,3.87-.72,3.87-2,0-1.55-2.71-2-6.13-3.65s-5.25-3.43-5.25-7.07c0-4.53,3.59-7.4,9.06-7.4a15.49,15.49,0,0,1,7.74,1.88l-2.32,4.59a10.27,10.27,0,0,0-5.08-1.49c-2.26,0-3.26.77-3.26,2,0,1.55,2.21,1.93,5,3,3.76,1.55,6.46,3.32,6.46,7.29C334.13,104.26,330.48,106.91,324.57,106.91Zm27.79-15.47c-.06-2.65-1.11-4.81-4-4.81-2.65,0-4.2,1.71-4.64,4.81Zm-2.54,10.5a12.18,12.18,0,0,0,6.24-1.66l2.15,4.31a16.33,16.33,0,0,1-9,2.32c-8.07,0-12.65-5-12.65-12.71s5.25-12.43,11.94-12.43c7.57,0,11.22,5.25,10.39,14.2H343.8c.28,3.59,2.15,6,6,6Z"/></g><path class="cls-1" d="M77.58,53.42A36.58,36.58,0,1,0,114.16,90,36.59,36.59,0,0,0,77.58,53.42Zm24.7,43A4.42,4.42,0,0,1,98.52,101c-4.31.77-13.37,1.22-20.94,1.22s-16.63-.44-20.94-1.22a4.42,4.42,0,0,1-3.76-4.59V82.15a4.75,4.75,0,0,1,3.76-4.59,49.13,49.13,0,0,1,6.58-.44,1.6,1.6,0,0,1,1.6,1.71v10l12.82-.28,12.82.28v-10a1.6,1.6,0,0,1,1.6-1.71,49.13,49.13,0,0,1,6.58.44,4.69,4.69,0,0,1,3.76,4.59c-.11,4.7-.11,9.5-.11,14.26Z"/></svg>