<?xml version="1.0" encoding="utf-8"?>
<!-- Generator: Adobe Illustrator 21.1.0, SVG Export Plug-In . SVG Version: 6.00 Build 0)  -->
<svg version="1.1" id="Layer_1" xmlns="http://www.w3.org/2000/svg" xmlns:xlink="http://www.w3.org/1999/xlink" x="0px" y="0px"
	 viewBox="0 0 283.5 110.4" style="enable-background:new 0 0 283.5 110.4;" xml:space="preserve">
<style type="text/css">
	.st0{fill:#000;}
</style>
<g>
	<g>
		<path class="st0" d="M73.4,17.8c-5.7,0-11.2,1.5-15.9,4l11.2,12.9c1.5-0.4,3.1-0.6,4.7-0.6c9.6,0,17.3,7.7,17.3,17.3
			c0,9.6-7.7,17.3-17.3,17.3c-6.7,0-12.6-3.9-15.4-9.5l-17.2,0c3.5,14.8,16.8,25.8,32.6,25.8c18.5,0,33.6-15,33.6-33.6
			C107,32.8,91.9,17.8,73.4,17.8z"/>
		<path class="st0" d="M56.1,51.3c0,2.8,0.7,5.5,1.9,7.8h3.9c0-8.5,3.6-16.2,9.3-21.6l-2.5-2.9c-2.7,0.8-5.2,2.2-7.2,4L50.9,26.4
			c2-1.8,4.2-3.4,6.6-4.7L53,16.6C41.4,27.1,34.1,42.3,34.1,59.1h6.7c-0.6-2.5-0.9-5.1-0.9-7.8H56.1z"/>
	</g>
	<g>
		<path class="st0" d="M191.4,38.3l0,34l6.7,0l0-28.8c1.7-0.1,5-0.3,7.1-0.3c4.6,0.2,6.1,2.3,6.1,10.9l0,18.2h6.7l0-16.9
			c0-12.9-3.3-17.5-13.1-17.7C199.9,37.7,191.4,38.3,191.4,38.3z"/>
		<rect x="178.3" y="38.2" class="st0" width="6.8" height="34.1"/>
		<path class="st0" d="M161.2,72.3l6.8,0l0-25.8l5,0l0-5.4l-5,0v-2.6c0-4.8,1.7-5.8,4.9-5.8l12.2,0v-5.6c0,0-10.1,0-14.2,0
			c-6.4,0-9.7,3.8-9.7,11.3v2.7l-3.5,0l0,5.4l3.5,0L161.2,72.3z"/>
		<path class="st0" d="M236.3,37.6c-10.4,0-13.9,4.5-13.9,17.7c0,6.8,1,11.1,3.1,13.8c2.1,2.7,5.4,3.8,10.7,3.8
			c5.3,0,13.2-0.4,13.2-0.4V67c0,0-11.4,0.4-13.8,0.4c-6.5,0-6.8-4.3-6.8-14c0-8.6,2.5-10.2,6.8-10.2c2.7,0,6.3,0.6,7.1,0.8l0,14.9
			l6.7-0.2l0-30.7l-6.7,0v10.2C241.9,38,239.2,37.6,236.3,37.6z"/>
		<path class="st0" d="M137.4,28.4c-7.1,0-12.3,0.7-12.3,0.7l0,29.1c0,0,6.3,0.3,7.4,0.3c0-0.6,0-24,0-24c0.6-0.1,3-0.2,5.4-0.2
			c8.1,0,8.7,2.3,8.7,16.5c0,14.1-0.5,16.1-8.7,16.1c-2.8,0-12.8-0.5-12.8-0.5v6c0,0,5.7,0.3,12.3,0.3c7.7,0,11.7-1.3,13.9-4.6
			c2.2-3.3,2.6-8.6,2.6-17.3C153.9,33.8,152.6,28.4,137.4,28.4z"/>
	</g>
	<g>
		<g>
			<path class="st0" d="M134.4,82c-0.9-0.5-1.8-0.8-2.8-0.8c-3.2,0-5.3,2.3-5.3,5.4c0,3.2,2.3,5.4,5.2,5.4c1,0,2.3-0.3,3-0.7
				l0.1,1.9c-1,0.4-2.3,0.5-3.1,0.5c-4.3,0-7.2-2.8-7.2-7.1c0-4.2,3.1-7,7.2-7c1.1,0,2.1,0.2,3.1,0.6L134.4,82z"/>
			<path class="st0" d="M141.1,83.2c3,0,5.1,2.2,5.1,5.2c0,2.9-2.1,5.2-5.1,5.2c-3,0-5.1-2.4-5.1-5.2
				C136,85.4,138.1,83.2,141.1,83.2z M141.1,92.2c2.2,0,3.1-2,3.1-3.7c0-1.9-1.2-3.7-3.1-3.7c-2,0-3.1,1.8-3.1,3.7
				C138,90.3,139,92.2,141.1,92.2z"/>
			<path class="st0" d="M148.6,83.5h1.8v1.6h0c0.5-1.1,1.9-1.8,3.3-1.8c2.6,0,3.7,1.6,3.7,4.3v5.9h-1.8v-5.2c0-2.3-0.5-3.5-2.1-3.6
				c-2.1,0-3,1.7-3,4.1v4.6h-1.8V83.5z"/>
			<path class="st0" d="M159.7,91.5c0.7,0.5,1.8,0.7,2.3,0.7c0.8,0,1.9-0.4,1.9-1.4c0-1.8-4.3-1.7-4.3-4.5c0-2.1,1.5-3.1,3.5-3.1
				c0.9,0,1.6,0.2,2.3,0.4l-0.2,1.6c-0.4-0.3-1.5-0.5-1.9-0.5c-0.9,0-1.8,0.4-1.8,1.2c0,2,4.3,1.5,4.3,4.6c0,2.1-1.7,3.1-3.5,3.1
				c-0.9,0-1.9-0.1-2.7-0.5L159.7,91.5z"/>
			<path class="st0" d="M176.8,93.5H175v-1.6h0c-0.5,1.1-1.9,1.8-3.3,1.8c-2.6,0-3.7-1.6-3.7-4.3v-5.9h1.8v5.2
				c0,2.3,0.5,3.5,2.1,3.6c2.1,0,3-1.7,3-4.1v-4.6h1.8V93.5z"/>
			<path class="st0" d="M180.1,78.8h1.8v14.7h-1.8V78.8z"/>
			<path class="st0" d="M190.5,85h-2.6v5.5c0,1.2,0.7,1.8,1.5,1.8c0.6,0,1-0.2,1.3-0.4v1.6c-0.4,0.1-1,0.3-1.6,0.3
				c-1.9,0-3.1-0.9-3.1-2.9V85h-2.3v-1.5h2.3v-2.3l1.8-0.6v2.9h2.6V85z"/>
			<path class="st0" d="M194.9,81.2h-2.1v-2.1h2.1V81.2z M193,83.5h1.8v10H193V83.5z"/>
			<path class="st0" d="M198.1,83.5h1.8v1.6h0c0.5-1.1,1.9-1.8,3.3-1.8c2.6,0,3.7,1.6,3.7,4.3v5.9h-1.8v-5.2c0-2.3-0.5-3.5-2.1-3.6
				c-2.1,0-3,1.7-3,4.1v4.6h-1.8V83.5z"/>
			<path class="st0" d="M218.8,93c0,3-1.6,4.8-5.2,4.8c-1.1,0-2-0.1-3.6-0.7l0.2-1.7c1.4,0.6,2.3,0.9,3.6,0.9c1.9,0,3.1-1.3,3.1-3.4
				v-1h0c-0.8,1-2.1,1.5-3.4,1.5c-2.9,0-4.3-2.3-4.3-4.9c0-2.6,1.5-5.3,4.5-5.3c1.8,0,2.7,0.6,3.3,1.7h0v-1.5h1.7V93z M217,88.6
				c0-2.1-1-3.9-2.9-3.9c-1.9,0-2.8,2-2.8,3.7c0,1.9,1.1,3.5,2.8,3.5C215.8,92,217,90.5,217,88.6z"/>
		</g>
	</g>
</g>
</svg>
