<svg id="Partner" xmlns="http://www.w3.org/2000/svg" viewBox="0 0 400 180"><defs><style>.cls-1{fill:#fff;}</style></defs><title>jz17-partner-driw</title><rect class="cls-1" x="193.87" y="54.57" width="13.94" height="70.86" rx="0.4" ry="0.4"/><path class="cls-1" d="M89.17,54.57H62.9a.4.4,0,0,0-.4.4V125a.4.4,0,0,0,.4.4H89.17a22.32,22.32,0,0,0,22.29-22.29V76.86A22.32,22.32,0,0,0,89.17,54.57Zm0,65.68H67.68V59.75H89.17a17.14,17.14,0,0,1,17.12,17.12v26.27A17.13,17.13,0,0,1,89.17,120.25Z"/><path class="cls-1" d="M337.44,54.76a.4.4,0,0,0-.34-.19H317.45a.4.4,0,0,0-.36.22L291,106.13V55a.4.4,0,0,0-.4-.4H269.28a.4.4,0,0,0-.36.22l-26.09,51.34V55a.4.4,0,0,0-.4-.4H224.92a.4.4,0,0,0-.4.4V125a.4.4,0,0,0,.4.4h28.41a.4.4,0,0,0,.36-.22l19-37.4V125a.4.4,0,0,0,.4.4H301.5a.4.4,0,0,0,.36-.22l35.6-70.06A.4.4,0,0,0,337.44,54.76Z"/><path class="cls-1" d="M164.77,93.24A20.11,20.11,0,0,0,157,54.57H128.59a.4.4,0,0,0-.4.4V125a.4.4,0,0,0,.4.4h8.76a.4.4,0,0,0,.4-.4V94.78h17l16.86,30.45a.4.4,0,0,0,.35.21h10a.4.4,0,0,0,.35-.59Zm2.83-18.56A10.56,10.56,0,0,1,157,85.22H137.74V64.13H157A10.56,10.56,0,0,1,167.6,74.67Z"/></svg>