<svg id="Partner" xmlns="http://www.w3.org/2000/svg" viewBox="0 0 400 180"><defs><style>.cls-1{fill:#000;}</style></defs><title>jz17-partner-embriq</title><path class="cls-1" d="M166.88,100.68a7.4,7.4,0,0,1,2.25.32V79c0-3.6-.68-6.37-3.87-9s-5.8-3.13-10.12-3.13H146.4c-5.34,0-8.64,1.2-11.71,4.8-3.07-3.78-6.14-4.8-11.6-4.8h-8.87C104.67,66.85,100,71.55,100,79v34h9.77L109.68,81c0-4,2.73-6.27,7.62-6.27h3.18c6.13-.09,9.32.83,9.32,6.46v31.91h9.66V81.15c0-6.27,4.21-6.46,10.57-6.46,5.8,0,9.32.92,9.32,6.27v20a7.23,7.23,0,0,1,2.11-.3Z"/><path class="cls-1" d="M241.23,79.21v33.85H251V81.33c0-5.63,3.18-6.73,9.32-6.64h3.41V66.85h-7.28C246.23,66.85,241.23,70.91,241.23,79.21Z"/><rect class="cls-1" x="272.72" y="66.85" width="9.77" height="46.21"/><path class="cls-1" d="M327.51,66.85H309.89c-9.78,0-15.35,3.88-15.35,12v22.69c0,6.73,6,11.53,14.32,11.53h23.3v16.42h9.67V79.11C341.84,71.37,337.41,66.85,327.51,66.85Zm4.66,36.34c0,1.29-1.13,1.93-2.61,1.93h-18c-4.66,0-7.28-2.12-7.28-5.9V80.4c0-3.87,3.18-5.72,7.73-5.72h12.05c5.11,0,8.07,2,8.07,6.27Z"/><path class="cls-1" d="M214.27,66.85H191V50.52h-9.77v49.9c0,3.87.79,7.1,4.66,9.68a20.6,20.6,0,0,0,11.14,3h17.16c9.78,0,14.9-4.52,14.9-12.36V79C229.05,71.64,223.48,66.85,214.27,66.85Zm5,32.74c0,4.24-3.3,5.53-8,5.53H199.5c-4.55,0-8.53-1.84-8.53-5.9V76.63c0-1.2,1-1.85,2.39-1.85h18c4.89,0,8,2.4,8,6.37Z"/><path class="cls-1" d="M356.4,103h-3.88c-1.46,0-2.49.6-2.49,1.85v6.09c0,1.23.84,1.91,2.34,1.91h5.78c.48,0,.84-.21.84-.62V105C359,103.63,358,103,356.4,103Z"/><path class="cls-1" d="M166.34,102.69h-4.11c-1.54,0-2.63.63-2.63,2v6.45c0,1.3.89,2,2.48,2h6.11c.51,0,.89-.22.89-.66v-7.62C169.08,103.38,168.08,102.69,166.34,102.69Z"/><path class="cls-1" d="M73.74,66.85H56.57C46.91,66.85,41,70.45,41,78.65v21.86c0,4.06.68,7.19,4.78,10,3.52,2.4,7.27,2.58,11.71,2.58h30.7v-7.93H58.85c-5.57,0-8-1.75-8-6.36V97.38L88.29,85V79.21C88.29,71.09,84,66.85,73.74,66.85Zm4.55,13.74L50.78,89.72V80.59c0-4.61,4-5.9,9-5.9h10.8c4.32,0,7.73,1.29,7.73,5.17Z"/></svg>