<?xml version="1.0" encoding="utf-8"?>
<!-- Generator: Adobe Illustrator 21.1.0, SVG Export Plug-In . SVG Version: 6.00 Build 0)  -->
<svg version="1.1" id="Layer_1" xmlns="http://www.w3.org/2000/svg" xmlns:xlink="http://www.w3.org/1999/xlink" x="0px" y="0px"
	 viewBox="0 0 283.5 110.3" style="enable-background:new 0 0 283.5 110.3;" xml:space="preserve">
<style type="text/css">
	.st0{clip-path:url(#SVGID_2_);fill:#000;}
	.st1{fill:#000;}
</style>
<g>
	<g>
		<defs>
			<rect id="SVGID_1_" x="30.1" y="11" width="223.3" height="88.3"/>
		</defs>
		<clipPath id="SVGID_2_">
			<use xlink:href="#SVGID_1_"  style="overflow:visible;"/>
		</clipPath>
		<path class="st0" d="M197.1,27l0,20.2c0,0.6,0.3,1.2,0.8,1.4l17.5,10.1c0.7,0.4,1.7-0.1,1.7-1V37.5c0-0.6-0.3-1.2-0.8-1.4
			L198.8,26C198,25.6,197.1,26.1,197.1,27L197.1,27z M251,11.2l-25.2,14.5c-0.7,0.4-1.2,1.2-1.2,2.1v29.1c0,1.2,1.4,2,2.4,1.4
			l25.2-14.5c0.7-0.4,1.2-1.2,1.2-2.1l0-29.1C253.4,11.4,252,10.6,251,11.2L251,11.2z M216.4,73l-7,4c-0.2,0.1-0.3,0.3-0.3,0.6
			l0,8.1c0,0.3,0.4,0.6,0.7,0.4l7-4c0.2-0.1,0.3-0.3,0.3-0.6v-8.1C217.1,73.1,216.7,72.9,216.4,73L216.4,73z M212.3,65.6l-10.5-6.1
			c-0.3-0.2-0.7-0.2-1,0l-10.5,6.1c-0.4,0.3-0.4,0.9,0,1.2l10.5,6.1c0.3,0.2,0.7,0.2,1,0l10.5-6.1C212.8,66.5,212.8,65.8,212.3,65.6
			L212.3,65.6z M229.2,66.7l4.7,2.7c0.3,0.2,0.6,0.2,0.9,0l4.7-2.7c0.4-0.2,0.4-0.8,0-1l-4.7-2.7c-0.3-0.2-0.6-0.2-0.9,0l-4.7,2.7
			C228.8,65.9,228.8,66.4,229.2,66.7L229.2,66.7z M225.5,73.2l4.7,2.7c0.3,0.2,0.4,0.5,0.4,0.8l0,5.4c0,0.5-0.5,0.7-0.9,0.5
			l-4.7-2.7c-0.3-0.2-0.4-0.5-0.4-0.8l0-5.4C224.6,73.2,225.1,72.9,225.5,73.2L225.5,73.2z"/>
	</g>
	<path class="st1" d="M178,67.8c-0.2-0.5-0.6-0.6-1-0.4c-0.4,0.3-8.7,5.2-8.7,5.2v-4.5c0-0.5-0.3-0.7-0.8-0.5l-2.7,1
		c-0.4,0.1-0.5,0.4-0.5,0.8v20c0,0.4,0.3,0.7,0.7,0.7h2.6c0.4,0,0.7-0.3,0.7-0.7V77.1c0,0,9.7-6,10.1-6.3c0.4-0.2,0.6-0.4,0.4-0.9
		C178.7,69.5,178,67.8,178,67.8"/>
	<path class="st1" d="M34.5,76.3c0.9-3.2,3.4-5.1,6.9-5.1c3.8,0,5.9,2.3,6.1,5.1H34.5L34.5,76.3z M51.7,77.5
		c0-5.6-3.8-10.2-10.1-10.2c-6.3,0-11.4,4.5-11.4,11.8c0,6.7,4.4,11.5,11.7,11.5c3.3,0,6.7-1.2,9.2-3.4c0.3-0.3,0.3-0.6,0.1-1
		l-1.3-1.9c-0.2-0.4-0.6-0.4-1-0.1c-2.3,1.7-4.6,2.5-7,2.5c-4.7,0-7.2-3.1-7.5-6.9H51c0.4,0,0.7-0.3,0.7-0.7V77.5L51.7,77.5z"/>
	<path class="st1" d="M66.3,86.6c-3.9,0-7.3-2.7-7.3-7.8c0-5.1,3.4-7.7,7.3-7.7c4.1,0,7.3,2.6,7.3,7.7C73.6,84,70.4,86.6,66.3,86.6
		 M74.2,99.3h2.6c0.4,0,0.7-0.3,0.7-0.7V68.1c0-0.5-0.3-0.7-0.8-0.5l-2.6,1c-0.4,0.1-0.5,0.4-0.5,0.8v1c-1.4-1.9-4.3-3.1-7.3-3.1
		c-6.1,0-11.3,4.5-11.3,11.7c0,6.3,4.1,11.7,11.1,11.7c3.2,0,6.3-1.4,7.5-3.1v11.1C73.6,99,73.8,99.3,74.2,99.3"/>
	<path class="st1" d="M90.7,90.6c2.4,0,5-0.8,6.8-3.3v2c0,0.4,0.3,0.7,0.7,0.7h2.6c0.4,0,0.7-0.3,0.7-0.7V68.2
		c0-0.6-0.3-0.7-0.8-0.6l-2.7,1c-0.4,0.1-0.5,0.4-0.5,0.8v11.1c0,3.9-2.5,6.2-6,6.2c-3.4,0-5.7-2.2-5.7-6.2V68.1
		c0-0.5-0.3-0.7-0.8-0.5l-2.7,1c-0.4,0.1-0.5,0.4-0.5,0.8v11.3C81.7,87.2,85.7,90.6,90.7,90.6"/>
	<path class="st1" d="M106.9,65.2l2.8-0.9c0.5-0.1,0.6-0.4,0.6-0.8v-3.4c0-0.4-0.3-0.7-0.8-0.6l-2.8,1c-0.4,0.1-0.6,0.3-0.6,0.8v3.2
		C106.1,65.1,106.4,65.4,106.9,65.2"/>
	<path class="st1" d="M106.9,90h2.6c0.4,0,0.7-0.3,0.7-0.7V68.1c0-0.5-0.3-0.7-0.8-0.5l-2.7,1c-0.4,0.1-0.5,0.4-0.5,0.8v20
		C106.2,89.7,106.5,90,106.9,90"/>
	<path class="st1" d="M115.7,90h2.6c0.4,0,0.7-0.3,0.7-0.7v-12c0-3.9,2.5-6.2,6-6.2c3.4,0,5.7,2.2,5.7,6.2v12c0,0.4,0.3,0.7,0.7,0.7
		h2.6c0.4,0,0.7-0.3,0.7-0.7V77.2c0-6.6-4-10-9-10c-2.4,0-5,0.8-6.8,3.3v-2.4c0-0.5-0.3-0.7-0.8-0.5l-2.7,1
		c-0.4,0.1-0.5,0.4-0.5,0.8v20C115,89.7,115.3,90,115.7,90"/>
	<path class="st1" d="M149.5,86.7c-4.6,0-7.4-3.4-7.4-7.8c0-4.4,2.8-7.8,7.4-7.8c4.5,0,7.3,3.4,7.3,7.8
		C156.9,83.2,154.1,86.7,149.5,86.7 M149.5,67.2c-6.7,0-11.4,5-11.4,11.7c0,6.7,4.8,11.7,11.4,11.7c6.7,0,11.4-5,11.4-11.7
		C160.9,72.2,156.2,67.2,149.5,67.2"/>
</g>
</svg>
