<svg id="Partner" xmlns="http://www.w3.org/2000/svg" viewBox="0 0 400 180"><defs><style>.cls-1{fill:#000;}</style></defs><title>jz17-partner-evry</title><path class="cls-1" d="M147.77,63.7c2.79-.48,6.52-1.17,7.54,6,.31,2.15.32,27,.32,27s2.68-2.56,10.91-15.5c6.24-9.81,13.13-22.47,15.72-26.9,1.52-2.6,4.31-5.3,9.15-1.68,5.39,4,5.51,7,3.14,11.11s-9,15.1-18.21,28.17c-8.39,11.87-12.41,16.57-15.94,20.49s-8.24,8.44-13.15,7.74c-6.52-.92-6-12.17-6.28-15.39s-1.54-28.78-.66-34.75C140.65,67.65,140.55,64.93,147.77,63.7Z"/><path class="cls-1" d="M236,64.36c3,1.63-.44,8.69-6.24,13-3.73,2.76-10.11,6.9-16.67,6.9A63.15,63.15,0,0,1,223.18,71C227.86,66.36,233.33,62.93,236,64.36Zm81.44-1.56c2.9-3.79,3.48-6.06-1.33-10.78-4.31-4.24-7.21-1.74-9.32.46-.35.42-10.13,10.17-20.42,22-8,9.25-14.95,17.84-14.95,17.84A90.77,90.77,0,0,1,272,79.31c.49-4.14,1.85-12.21,2.25-14.76,2-12.94-5.92-13.46-8.88-13.64-3.11-.19-4.59,1.47-5.52,5.42-.85,3.62-5.49,23.48-3.64,43.95.33,3.69,1,7.49,1.12,7.73l-1.87,2.61C238,105.68,226.09,93.7,226.09,93.7a55.77,55.77,0,0,0,12-5.52c5-3.05,14.61-10.6,13.59-23.91-.86-11.3-12.67-16.46-17-15.53-4,.84-10.88,5.67-17.41,11.59-.44-3.09-.52-6.49-3.67-6.87-2.31-.28-5,.83-6.93,1.85a11.22,11.22,0,0,0-5,4.81L194.33,77a1.33,1.33,0,0,1-1.1.82,7.34,7.34,0,0,0-5.47,4.56A6.35,6.35,0,0,0,189,89.12c-1.45,3.91-5.31,13-5.31,13-4.79,11.18-4.48,15.07-2.77,17.45.87,1.21,3.91,3,7.6,3.57,2.77.46,4.89-1.2,7.21-4.9C199.17,112.81,206,98.41,206,98.41s13.66,15,41.08,24.83c0,0-14.5,20-16.59,31.13,0,0-1.08,7.27,8.69,7.25a18.23,18.23,0,0,0,8.83-2.24,4.77,4.77,0,0,0,2.22-2.86,2.25,2.25,0,0,0-.21-1.55,4.8,4.8,0,0,0-1-1.05c-.5-.5-.43-1.15-.16-1.9,5.38-15.69,27.23-42.36,31.87-48.14C293.08,88.55,315.78,64.71,317.39,62.8Z"/><path class="cls-1" d="M84.79,108.65a11.87,11.87,0,0,1,.71,7c-.31,2.06-.68,4.1-1.08,6.14-.35,1.77-1.17,5.59,0,7s3.49,1.33,6.2,1c3-.37,18-3.48,33.86-10.13a30.29,30.29,0,0,0,6.2-3.51c4.3-3.3,5-10.21,5-10.21.11-1.32.09-3.21-1.64-4.19-1.26-.71-3-.27-5.6.44-4.31,1.17-15,5.27-18.68,6.38-1.5.45-4.45,1.16-5.59-.28-1.9-2.38.82-9.85,2.44-14s4.17-7.5,12-9.76c2.88-.83,7.59-2.32,9.51-3,2.1-.72,4.87-2.1,6.05-6.86,1.34-5.42-2.77-6.26-6.53-7.3-5.38-1.49-8.75-1.68-6.39-6.9,1-2.14,1.86-3.08,4-3.64s20.23-3.43,27.43-4.75c4-.73,5.4-2.91,7.09-6.41,3.64-7.58-.92-8.07-4.61-7.73-8.33.77-21.71,3.2-27.44,4-3.05.44-1-4.77-4.59-5a24.12,24.12,0,0,0-15.36,4.31c-2.25,1.75-3.33,7.15-3.33,7.15l-7,24.07c-.6,2.78-1.45,5.52-3.42,6.69C89.3,82.15,79.56,82.35,80.43,92.9,80.43,92.9,80.62,98.08,84.79,108.65Z"/></svg>