<svg id="Partner" xmlns="http://www.w3.org/2000/svg" viewBox="0 0 400 180"><defs><style>.cls-1{fill:#000;}</style></defs><title>jz17-partner-finn</title><path class="cls-1" d="M328.46,42.08H161.13a9,9,0,0,0-9,9v26a62.29,62.29,0,0,0-56-35H71.54a9,9,0,0,0-9,9v77.78a9,9,0,0,0,9,9H328.46a9,9,0,0,0,9-9V51.11A9,9,0,0,0,328.46,42.08Zm2.78,86.81a2.79,2.79,0,0,1-2.78,2.78H158.35V51.11a2.79,2.79,0,0,1,2.78-2.78H328.46a2.79,2.79,0,0,1,2.78,2.78Zm-262.49,0V51.11a2.79,2.79,0,0,1,2.78-2.78h24.6a56,56,0,0,1,56,56v27.38H71.54A2.79,2.79,0,0,1,68.75,128.89Z"/><rect class="cls-1" x="218.92" y="73.75" width="9.86" height="32.5" rx="1.77" ry="1.77"/><path class="cls-1" d="M209.1,73.75H186.57a1.77,1.77,0,0,0-1.77,1.77v29a1.77,1.77,0,0,0,1.77,1.77h6.31a1.77,1.77,0,0,0,1.77-1.77v-6h11.5a1.77,1.77,0,0,0,1.77-1.77V92a1.77,1.77,0,0,0-1.77-1.77h-11.5V82.86H209.1a1.77,1.77,0,0,0,1.77-1.77V75.52A1.77,1.77,0,0,0,209.1,73.75Z"/><path class="cls-1" d="M303,73.75h-6.31a1.77,1.77,0,0,0-1.77,1.77v14.2l-9.87-14.91a2.36,2.36,0,0,0-2-1.06h-4.85a1.77,1.77,0,0,0-1.77,1.77v29a1.77,1.77,0,0,0,1.77,1.77h6.31a1.77,1.77,0,0,0,1.77-1.77v-14L296,105.18a2.36,2.36,0,0,0,2,1.07H303a1.77,1.77,0,0,0,1.77-1.77v-29A1.77,1.77,0,0,0,303,73.75Z"/><path class="cls-1" d="M265,73.75H258.7a1.77,1.77,0,0,0-1.77,1.77v14.2l-9.87-14.91a2.36,2.36,0,0,0-2-1.06h-4.85a1.77,1.77,0,0,0-1.77,1.77v29a1.77,1.77,0,0,0,1.77,1.77h6.31a1.77,1.77,0,0,0,1.77-1.77v-14L258,105.18a2.36,2.36,0,0,0,2,1.07H265a1.77,1.77,0,0,0,1.77-1.77v-29A1.77,1.77,0,0,0,265,73.75Z"/></svg>