<?xml version="1.0" encoding="utf-8"?>
<!-- Generator: Adobe Illustrator 21.1.0, SVG Export Plug-In . SVG Version: 6.00 Build 0)  -->
<svg version="1.1" id="Layer_1" xmlns="http://www.w3.org/2000/svg" xmlns:xlink="http://www.w3.org/1999/xlink" x="0px" y="0px"
	 viewBox="0 0 283.5 110.4" style="enable-background:new 0 0 283.5 110.4;" xml:space="preserve">
<style type="text/css">
	.st0{fill:#000;}
</style>
<g>
	<g>
		<path class="st0" d="M247.5,71.4L247.5,71.4l-1-1.6l0,0l-0.8,1.4l0,0L247.5,71.4z M245.4,65.9L245.4,65.9l1.1,2h0.1l1-1.9v-0.1
			H245.4z M244.6,66.4L244.6,66.4l0.1,4.6l0,0l1.3-2.1v-0.1L244.6,66.4z M248.7,71.1v-4.9l0,0l-1.5,2.7V69L248.7,71.1L248.7,71.1z
			 M241.6,53.4L241.6,53.4c0,0.8,0,2.2,0,2.2l0.7,1.2c0.3,0.3,1.9,8.5,1.9,8.5l2.1-1.1c-0.2-0.3-0.3-0.6-0.3-1c0-0.2,0-0.3,0.1-0.4
			c-0.1,0-0.6-0.1-0.7-0.3c-0.1-0.2-0.2-1.8,0.1-2.3c0-0.1-0.1-0.2-0.2-0.3c-0.3-0.4-1.5-1.8-1.5-2c0-0.2,0.3-0.5,0.3-0.5
			L241.6,53.4z M230.7,77.7c0-0.2-0.3-2.1-0.3-2.6c-2.3-0.2-3.4-0.4-3.6-0.8c-0.3-0.4,2.6-18.1,2.9-18.5c0.2-0.2,0.8-0.8,0.9-0.9
			s0-3.9,0-4.8h-0.1c-0.2,0-4,3.8-5.3,3.6c-0.9-0.1-1.8-0.6-2.3-0.9l2,31.5c2.2,0.7,4.4,1.1,6.8,1.3l0.7-1.1v-1.7l-0.9-4.9
			C231.2,78,230.7,77.8,230.7,77.7z M233.8,24.8c-4.5,0-8.8,1-12.7,2.8l1.1,17.7c0.5-0.1,0.8-0.1,0.9,0c0.2,0.2,0.8,1.6,0.8,1.8
			c0,0.2,0,0.3-0.2,0.5c0.5,0.2,1.5,0.4,1.5,0.4s2.8-3.7,3.5-4.2c0.2-0.1,2.3-1.1,3.3-1.5c0.1-0.1,0.2-0.2,0.2-0.3
			c0-0.3,0.3-1.9,0.3-2.3c0-0.3,0.7-0.8,0.8-1.3c0.1-0.4,0.1-2.5,0.2-2.8c0.1-0.3,1.8-1.5,2.3-1.8c0.3-0.2,2.3-0.1,2.5-0.1
			c0.8,0.2,1.6,0.9,1.6,1.3c0,0.3-0.1,3.1-0.1,3.1c0,0.3,1,1.8,1,2.3c0,0.5-0.1,1.6-0.1,1.8c0,0.1,0.1,0.3,0.2,0.4
			c0.6,0.3,2.9,1.8,3.3,2c0.4,0.3,1.8,6.8,1.8,6.8l1.8,3.7c0,0,0.5-0.2,0.7-0.1c0.2,0.1,0.3,4.4,0.3,4.4l0,0
			c0.3,0.5,0.8,1.7,0.8,2.1c0,0.4-0.4,0.8-0.9,1.2c0,0.1,0,0.2,0,0.3c0,0.4-0.2,0.8-0.3,1c0.7,0.3,1.8,0.9,1.8,1c0,0.3,0,0.5,0,6.6
			c0,0-0.8,0.6-0.8,0.6s-2.6-0.2-4.2-0.3c0.1,1.2,0.2,2.2,0.1,2.4c-0.8,0.3-2.6,0.6-3.9,0.7c-0.3,0.9-1.1,3.9-1.3,3.9
			c-0.3,0-0.5,0-0.5,0s-1.6,2.3-1.6,2.5c0,0.2,0.6,2.2,0.6,2.2L240,85c13.8-2.9,24.1-15.2,24.1-29.8
			C264.3,38.5,250.6,24.8,233.8,24.8z"/>
		<path class="st0" d="M219.7,50.9c-0.4-0.3-1.1-1.9-1-2.9c0-0.8,0.6-1.8,0.8-2.2c0.1-0.1,0.3-0.2,0.5-0.3l-1.1-17.1
			c-9.5,5.2-15.9,15.2-15.9,26.8c0,12.9,8.1,23.9,19.4,28.3l-2.1-32.5C220.1,51.1,219.8,51,219.7,50.9z"/>
	</g>
	<g>
		<path class="st0" d="M115.9,40.9c1.3,0,2.3,1,2.3,2.3c0,1.3-1,2.3-2.3,2.3c-1.3,0-2.3-1-2.3-2.3C113.7,41.9,114.7,40.9,115.9,40.9
			z"/>
		<path class="st0" d="M114.2,49.9c0-0.3,0.3-0.7,0.7-0.7h2.2c0.3,0,0.7,0.3,0.7,0.7v16.6h-2.9c-0.3,0-0.7-0.3-0.7-0.7V49.9
			L114.2,49.9z"/>
		<path class="st0" d="M146.4,40.9c1.3,0,2.3,1,2.3,2.3c0,1.3-1,2.3-2.3,2.3c-1.3,0-2.3-1-2.3-2.3C144.2,41.9,145.1,40.9,146.4,40.9
			z"/>
		<path class="st0" d="M144.7,49.9c0-0.3,0.3-0.7,0.7-0.7h2.2c0.3,0,0.7,0.3,0.7,0.7v16.6h-2.9c-0.3,0-0.7-0.3-0.7-0.7L144.7,49.9
			L144.7,49.9z"/>
		<path class="st0" d="M138.6,40.4h-2.2c-0.3,0-0.7,0.3-0.7,0.7v9.6c-1.5-1.3-3.4-1.8-5.3-1.8c-1.6,0-3,0.4-4.2,1.1
			c-2.6,1.5-4.4,4.4-4.4,7.9c0,3.4,1.8,6.3,4.4,7.9c1.2,0.7,2.8,1.2,4.4,1.2c2.1,0,3.9-0.7,5.4-1.9v0.9c0,0.3,0.3,0.7,0.7,0.7h2.8
			V41.1C139.2,40.8,139,40.4,138.6,40.4z M135.8,61.2c-1.2,1.6-3,2.4-4.8,2.4c-3.4,0-5.7-2.6-5.7-5.7c0-3,2.2-5.7,5.5-5.7
			c2.1,0,3.9,1.1,4.9,2.4V61.2z"/>
		<path class="st0" d="M169.1,49.2H167c-0.3,0-0.7,0.3-0.7,0.7v0.9c-1.6-1.3-3.4-1.9-5.5-1.9c-1.6,0-3,0.4-4.2,1.1
			c-2.6,1.5-4.4,4.4-4.4,7.9s1.8,6.3,4.4,7.9c1.2,0.7,2.8,1.2,4.4,1.2c2.1,0,3.9-0.7,5.2-1.8V66c0,2.2-0.3,3.5-0.9,4.4
			c-0.8,1.3-2.3,2-4.2,2c-2.6,0-4.1-1.2-5.4-2.7l0,0c-0.3-0.2-0.6-0.2-0.8,0l-0.1,0.1l-2,1.8c1.1,1.8,3.9,4,8.4,4
			c3.4,0,6-1.6,7.5-4.3c0.7-1.3,1-3.1,1-5.7V49.8C169.8,49.6,169.5,49.2,169.1,49.2z M166.2,61.2c-1.2,1.6-3,2.4-4.8,2.4
			c-3.4,0-5.7-2.6-5.7-5.7c0-3,2.2-5.7,5.5-5.7c2.1,0,3.9,1.1,4.9,2.4V61.2z"/>
		<path class="st0" d="M72.4,58c0-5.1-3.5-9.1-8.3-9.1c-4.9,0-8.5,3.9-8.5,9.1s3.9,9.1,9,9.1c3.5,0,6-1.6,7.3-3.3L70,61.9
			c-0.3-0.2-0.5-0.1-0.7,0c-0.1,0.1-0.2,0.2-0.2,0.2c-0.9,0.9-2.3,1.8-4.4,1.8c-3,0-5.4-2.3-5.6-5.2h12.7c0.3,0,0.7-0.3,0.7-0.6
			C72.4,58.1,72.4,58,72.4,58L72.4,58z M59.3,55.7c0.6-2.3,2.6-3.8,4.9-3.8c2.1,0,4,1.5,4.5,3.8H59.3z"/>
		<path class="st0" d="M190.6,58c0-5.1-3.5-9.1-8.3-9.1c-4.9,0-8.5,3.9-8.5,9.1s3.9,9.1,9,9.1c3.5,0,6-1.6,7.3-3.3l-1.9-1.8
			c-0.3-0.2-0.5-0.1-0.7,0c-0.1,0.1-0.2,0.2-0.2,0.2c-0.9,0.9-2.3,1.8-4.4,1.8c-3,0-5.5-2.3-5.6-5.2h12.7c0.3,0,0.7-0.3,0.7-0.6l0,0
			l0,0C190.6,58.1,190.6,58,190.6,58L190.6,58z M177.5,55.7c0.6-2.3,2.6-3.8,4.9-3.8c2.1,0,4,1.5,4.5,3.8H177.5z"/>
		<path class="st0" d="M49.7,40.9c1.3,0,2.3,1,2.3,2.3c0,1.3-1,2.3-2.3,2.3c-1.3,0-2.3-1-2.3-2.3C47.5,41.9,48.5,40.9,49.7,40.9z"/>
		<path class="st0" d="M51.5,68c0,2.3-0.3,3.8-1.1,4.9c-1.3,1.8-3.4,2.9-5.7,2.9c-0.8,0-1.6-0.1-2.1-0.3l0.6-2.6
			c0.1-0.3,0.4-0.6,0.8-0.5h0.7c1,0,2.1-0.4,2.7-1.3c0.5-0.6,0.7-1.5,0.7-3.1v-0.7V49.7c0-0.3,0.3-0.7,0.7-0.7h2.2
			c0.3,0,0.7,0.3,0.7,0.7v17.4L51.5,68L51.5,68z"/>
		<path class="st0" d="M91.4,51.9c-1.5-1.8-3.8-3-6.3-3s-4.3,1.2-5.2,2v-1c0-0.3-0.3-0.7-0.7-0.7h-2c-0.3,0-0.7,0.3-0.7,0.7v16
			c0,0.3,0.3,0.7,0.7,0.7h2.2c0.3,0,0.7-0.3,0.7-0.7V54.7c1-1.3,2.7-2.4,4.9-2.4c1.4,0,2.8,0.7,3.6,1.7c0.6,0.8,1,1.8,1,4v0.7v7.3
			c0,0.3,0.3,0.7,0.7,0.7h2.2h0.7v-8.5C93.1,55.1,92.5,53.4,91.4,51.9z"/>
		<path class="st0" d="M107.1,52.9L107.1,52.9C107.1,53,107.1,52.9,107.1,52.9L107.1,52.9z"/>
		<path class="st0" d="M98.1,62.5L98.1,62.5L98.1,62.5C98.2,62.5,98.2,62.5,98.1,62.5z"/>
		<path class="st0" d="M96.7,64.6c1.9,1.5,4.2,2.4,7,2.4c3.4,0,6.5-2,6.5-5.3c0-3.6-3.6-4.8-6.3-5.5c-1.8-0.4-3.1-0.8-3.1-2
			c0-1.3,1.4-2.2,3.1-2.2c1.2,0,2.3,0.4,3.2,1l0,0c0.3,0.2,0.8,0.1,0.9-0.2l0.9-1.3l0.1-0.1c0.3-0.3,0.3-0.7,0-0.9l-0.1-0.1
			c-1.3-0.9-3-1.5-5.2-1.5c-3.1,0-6.4,1.7-6.4,5.4c0,2.4,1.8,3.8,3.9,4.4c2.5,0.8,5.5,0.9,5.5,2.9c0,1.3-1.5,2.2-3,2.2
			c-1.5,0-3.1-0.5-4.5-1.5l0,0c-0.3-0.3-0.7-0.2-0.9,0.1L96.7,64.6z"/>
		<path class="st0" d="M42.8,51.6c0-0.3-0.3-0.7-0.7-0.7H31.7v2.9c0,0.3,0.3,0.6,0.7,0.6h6.7V61c-1.3,1.3-3.6,2.4-6.3,2.4
			c-5.5,0-9.7-3.9-9.7-9.7c0-5.5,4.1-9.7,9.3-9.7c2.5,0,4.9,1,6.5,2.4l0,0l0,0c0.3,0.3,0.6,0.3,0.8,0l0,0l0,0l1.6-1.5l0,0l0,0l0,0
			c0.2-0.3,0.3-0.6,0.1-0.8c0,0,0-0.1-0.1-0.1l0,0l0,0l0,0l0,0c-2.3-2.2-5.5-3.5-9-3.5c-7.4,0-13,5.8-13,13.3
			c0,7.6,5.7,13.3,13.3,13.3c3.9,0,7.8-2,10-4.8L42.8,51.6L42.8,51.6z"/>
	</g>
</g>
</svg>
