<?xml version="1.0" encoding="utf-8"?>
<!-- Generator: Adobe Illustrator 21.1.0, SVG Export Plug-In . SVG Version: 6.00 Build 0)  -->
<svg version="1.1" id="Layer_1" xmlns="http://www.w3.org/2000/svg" xmlns:xlink="http://www.w3.org/1999/xlink" x="0px" y="0px"
	 viewBox="0 0 283.5 110.4" style="enable-background:new 0 0 283.5 110.4;" xml:space="preserve">
<style type="text/css">
	.st0{fill:#000;}
</style>
<g>
	<g>
		<circle class="st0" cx="226.7" cy="50.3" r="3"/>
		<path class="st0" d="M132.7,55.2c-3.2,0-5.3,1.4-6.4,4.1l-0.4-3.7h-3.7V76h4.4V65.2c0-1.3,0.3-2.4,0.8-3.3
			c0.5-0.9,1.1-1.6,1.9-2.1c0.8-0.5,1.6-0.7,2.5-0.7c1.1,0,1.9,0.2,2.6,0.5l0.7-4C134.4,55.3,133.6,55.2,132.7,55.2z"/>
		<path class="st0" d="M144.8,55.2c-3.2,0-5.6,0.9-7.3,2.8c-1.7,1.9-2.6,4.5-2.6,7.8c0,3.3,0.9,5.9,2.7,7.8c1.8,1.9,4.3,2.8,7.5,2.8
			c4.3,0,7.2-1.6,8.8-4.7l-3.6-1.5c-0.3,0.9-0.9,1.6-1.8,2.1c-0.9,0.5-2,0.7-3.3,0.7c-1.6,0-3-0.5-4-1.4c-1-0.9-1.7-2.3-1.9-4.1
			h14.9c0.1-0.7,0.2-1.5,0.2-2.2c0-3-0.8-5.4-2.5-7.3C150.1,56.1,147.8,55.2,144.8,55.2z M139.2,64.1c0.2-1.8,0.8-3.1,1.8-4
			c1-0.9,2.2-1.4,3.8-1.4c1.5,0,2.7,0.5,3.6,1.4c0.9,1,1.5,2.3,1.7,4H139.2z"/>
		<path class="st0" d="M166.1,55.2c-3.2,0-5.6,0.9-7.3,2.8c-1.7,1.9-2.6,4.5-2.6,7.8c0,3.3,0.9,5.9,2.7,7.8c1.8,1.9,4.3,2.8,7.5,2.8
			c4.3,0,7.2-1.6,8.8-4.7l-3.6-1.5c-0.3,0.9-0.9,1.6-1.8,2.1c-0.9,0.5-2,0.7-3.3,0.7c-1.6,0-3-0.5-4-1.4c-1-0.9-1.7-2.3-1.9-4.1
			h14.9c0.1-0.7,0.2-1.5,0.2-2.2c0-3-0.8-5.4-2.5-7.3C171.4,56.1,169.1,55.2,166.1,55.2z M160.4,64.1c0.2-1.8,0.8-3.1,1.8-4
			c1-0.9,2.2-1.4,3.8-1.4c1.5,0,2.7,0.5,3.6,1.4c0.9,1,1.5,2.3,1.7,4H160.4z"/>
		<path class="st0" d="M189.5,55.2c-1.5,0-2.9,0.3-4.1,0.9c-1.2,0.6-2.1,1.6-2.8,2.9l-0.2-3.4h-3.9V76h4.4V65.2
			c0-2.2,0.5-3.8,1.6-4.8c1.1-1,2.4-1.6,3.9-1.6c2.9,0,4.4,1.8,4.4,5.4V76h4.4V62.8c0-2.4-0.7-4.3-2.1-5.6
			C193.6,55.8,191.8,55.2,189.5,55.2z"/>
		<path class="st0" d="M212.3,55.2c-1.5,0-2.8,0.3-3.9,1c-1.2,0.7-2,1.5-2.7,2.7V47.2h-4.4V76h3.8l0.2-3.8c0.6,1.3,1.5,2.3,2.7,3.1
			c1.2,0.8,2.6,1.1,4.2,1.1c2.8,0,5-0.9,6.6-2.8c1.6-1.9,2.4-4.5,2.4-7.8c0-3.3-0.8-5.9-2.4-7.8C217.3,56.1,215.1,55.2,212.3,55.2z
			 M215.4,71c-1,1.3-2.4,1.9-4.1,1.9c-1.7,0-3-0.6-4-1.7c-1-1.1-1.5-2.7-1.6-4.6V65c0.1-2,0.7-3.5,1.6-4.6c1-1.1,2.3-1.7,4-1.7
			c1.8,0,3.1,0.6,4.1,1.9c1,1.2,1.5,3,1.5,5.2C216.9,68,216.4,69.8,215.4,71z"/>
		<rect x="224.5" y="55.6" class="st0" width="4.4" height="20.4"/>
		<path class="st0" d="M237.3,59.3l-0.4-3.7h-3.7V76h4.4V65.2c0-1.3,0.3-2.4,0.8-3.3c0.5-0.9,1.1-1.6,1.9-2.1
			c0.8-0.5,1.6-0.7,2.5-0.7c1.1,0,1.9,0.2,2.6,0.5l0.7-4c-0.5-0.3-1.3-0.4-2.2-0.4C240.6,55.2,238.4,56.5,237.3,59.3z"/>
		<path class="st0" d="M261.6,47.2v11.7c-0.6-1.1-1.5-2-2.6-2.7c-1.1-0.7-2.5-1-4-1c-2.8,0-5,0.9-6.6,2.8c-1.6,1.9-2.4,4.5-2.4,7.8
			c0,3.3,0.8,5.9,2.4,7.8c1.6,1.9,3.8,2.8,6.6,2.8c1.5,0,2.9-0.4,4.1-1.1c1.2-0.7,2.1-1.7,2.7-2.9l0.2,3.6h3.8V47.2H261.6z
			 M261.6,66c0,2.1-0.5,3.8-1.5,5c-1,1.2-2.4,1.8-4.1,1.8c-1.8,0-3.1-0.6-4.1-1.9c-1-1.2-1.5-3-1.5-5.2c0-2.2,0.5-4,1.5-5.2
			c1-1.2,2.4-1.9,4.1-1.9c1.7,0,3.1,0.6,4.1,1.8c1,1.2,1.5,2.9,1.5,5V66z"/>
		<path class="st0" d="M106.1,65.9h8.2v0.8c0,2-0.7,3.5-2,4.6c-1.3,1.1-3.1,1.6-5.2,1.6c-2.7,0-4.8-0.9-6.3-2.6
			c-1.4-1.8-2.1-4.2-2.1-7.5c0-3.2,0.7-5.7,2.2-7.4c1.5-1.8,3.5-2.6,6.1-2.6c1.7,0,3.2,0.4,4.4,1.1c1.2,0.8,2.1,1.9,2.6,3.3l4-1.9
			c-1-2.2-2.4-3.8-4.2-4.8c-1.8-1-4.1-1.5-6.8-1.5c-2.6,0-4.8,0.6-6.7,1.7c-1.9,1.1-3.4,2.7-4.5,4.8c-1.1,2.1-1.6,4.5-1.6,7.4
			c0,2.9,0.5,5.3,1.5,7.4c1,2.1,2.5,3.7,4.4,4.8c1.9,1.1,4.1,1.7,6.6,1.7c1.9,0,3.6-0.3,5-1c1.4-0.7,2.5-1.6,3.3-2.8l0.1,3.4h3.2
			V62.3h-12.1V65.9z"/>
	</g>
	<path class="st0" d="M77.8,49.5c-2.3-2.3-5.4-3.6-8.7-3.6c-3.3,0-6.4,1.3-8.7,3.6l-1.9,1.9l-1.4-1.4l0,0l-6.6-6.6L37.1,30.2
		l-0.2-0.2l-1.5,1.5c-1.9,1.9-3.4,4.3-4.3,6.9c-2.1,6.4-0.5,13.4,4.3,18.1l1,1l8.1,8l-7,7l-0.1,0.1c-0.1,0.2-0.3,0.3-0.5,0.4
		c-0.1,0.1-0.1,0.1-0.2,0.2c-0.2,0.1-0.3,0.2-0.5,0.3l0,0c-4.7,3.3-11.1,3.2-15.7-0.2l-3.1,3.1c2.3,1.9,5.1,3.1,8,3.6
		c1.3,0.2,2.6,0.3,3.9,0.2c3.3-0.2,6.5-1.3,9.2-3.1l0.7-0.6c1.6,1.3,3.4,2.3,5.4,2.9c6.4,2.1,13.4,0.5,18.2-4.3L80.1,58l2.5,2.5
		l3.1-3.1L77.8,49.5z M39.4,54.5l-1-1c-3.6-3.6-4.8-8.9-3.2-13.7c0.4-1.3,1-2.5,1.8-3.6l10.4,10.3l5.8,5.8l2.2,2.2l-7.9,7.9
		L39.4,54.5z M61.4,70.5l-1.6,1.6c-4.7,4.7-11.9,5.3-17.2,1.4l16-16l2.3,2.3c1.5,1.5,2.3,3.5,2.3,5.6C63.1,67.4,62.5,69.1,61.4,70.5
		z M67.5,64.5c-0.2-2.9-1.5-5.6-3.5-7.6l-2.3-2.3l1.9-1.9c1.5-1.5,3.5-2.3,5.6-2.3c2.1,0,4.1,0.8,5.6,2.3l2.3,2.3L67.5,64.5z"/>
</g>
</svg>
