<?xml version="1.0" encoding="utf-8"?>
<!-- Generator: Adobe Illustrator 21.0.0, SVG Export Plug-In . SVG Version: 6.00 Build 0)  -->
<svg version="1.1" id="Partner" xmlns="http://www.w3.org/2000/svg" xmlns:xlink="http://www.w3.org/1999/xlink" x="0px" y="0px"
	 viewBox="0 0 400 180" style="enable-background:new 0 0 400 180;" xml:space="preserve">
<style type="text/css">
	.st0{fill-rule:evenodd;clip-rule:evenodd;fill:#000;}
</style>
<title>jz17-partner-driw</title>
<g>
	<polygon class="st0" points="52.8,33.4 107.7,33.4 107.7,41.1 52.8,41.1 52.8,33.4 	"/>
	<polygon class="st0" points="52.8,48.1 107.7,48.1 107.7,55.8 52.8,55.8 52.8,48.1 	"/>
	<polygon class="st0" points="68.1,62.8 91.7,62.8 91.7,71.1 68.1,71.1 68.1,62.8 	"/>
	<polygon class="st0" points="68.1,78.2 91.7,78.2 91.7,85.8 68.1,85.8 68.1,78.2 	"/>
	<polygon class="st0" points="68.1,92.8 91.7,92.8 91.7,100.5 68.1,100.5 68.1,92.8 	"/>
	<polygon class="st0" points="68.1,108.2 91.7,108.2 91.7,115.8 68.1,115.8 68.1,108.2 	"/>
	<polygon class="st0" points="52.8,122.9 107.7,122.9 107.7,130.5 52.8,130.5 52.8,122.9 	"/>
	<polygon class="st0" points="52.8,137.6 107.7,137.6 107.7,145.9 52.8,145.9 52.8,137.6 	"/>
	<path class="st0" d="M115.3,48.1h84.3c0.6,1.3,2.6,6.4,2.6,7.7h-86.9V48.1L115.3,48.1z"/>
	<polygon class="st0" points="130.7,62.8 154.3,62.8 154.3,71.1 130.7,71.1 130.7,62.8 	"/>
	<path class="st0" d="M177.9,62.8h24.9c0,1.9-0.6,6.4-1.3,8.3h-23.6V62.8L177.9,62.8z"/>
	<path class="st0" d="M130.7,92.8h60.7c1.9,1.3,5.8,5.7,7,7.7h-67.7V92.8L130.7,92.8z"/>
	<polygon class="st0" points="130.7,108.2 154.3,108.2 154.3,115.8 130.7,115.8 130.7,108.2 	"/>
	<path class="st0" d="M177.9,108.2h23.6c0.6,0.6,1.3,5.8,1.3,7.7h-24.9V108.2L177.9,108.2z"/>
	<path class="st0" d="M115.3,122.9h86.9c0,1.9-1.9,7-2.6,7.7h-84.3V122.9L115.3,122.9z"/>
	<path class="st0" d="M115.3,137.6h78.6c-7,6.4-13.4,8.3-24.3,8.3H162h-46.6V137.6L115.3,137.6z"/>
	<polygon class="st0" points="224.6,78.2 269.3,78.2 271.8,85.2 274.4,78.2 319.1,78.2 319.1,85.8 295.5,85.8 295.5,79.4
		292.9,85.8 250.8,85.8 248.2,79.4 248.2,85.8 224.6,85.8 224.6,78.2 	"/>
	<polygon class="st0" points="224.6,92.8 248.2,92.8 248.2,100.5 224.6,100.5 224.6,92.8 	"/>
	<polygon class="st0" points="224.6,108.2 248.2,108.2 248.2,115.8 224.6,115.8 224.6,108.2 	"/>
	<polygon class="st0" points="209.2,122.9 248.2,122.9 248.2,130.5 209.2,130.5 209.2,122.9 	"/>
	<polygon class="st0" points="209.2,137.6 248.2,137.6 248.2,145.9 209.2,145.9 209.2,137.6 	"/>
	<polygon class="st0" points="290.4,33.4 334.4,33.4 334.4,41.1 287.8,41.1 290.4,33.4 	"/>
	<polygon class="st0" points="285.2,48.1 334.4,48.1 334.4,55.8 282.1,55.8 285.2,48.1 	"/>
	<polygon class="st0" points="279.5,62.8 319.1,62.8 319.1,71.1 276.9,71.1 279.5,62.8 	"/>
	<polygon class="st0" points="295.5,92.8 319.1,92.8 319.1,100.5 295.5,100.5 295.5,92.8 	"/>
	<polygon class="st0" points="295.5,108.2 319.1,108.2 319.1,115.8 295.5,115.8 295.5,108.2 	"/>
	<polygon class="st0" points="295.5,122.9 334.4,122.9 334.4,130.5 295.5,130.5 295.5,122.9 	"/>
	<polygon class="st0" points="295.5,137.6 334.4,137.6 334.4,145.9 295.5,145.9 295.5,137.6 	"/>
	<polygon class="st0" points="253.3,92.8 290.4,92.8 287.8,100.5 255.9,100.5 253.3,92.8 	"/>
	<polygon class="st0" points="258.4,108.2 285.2,108.2 282.7,115.8 261,115.8 258.4,108.2 	"/>
	<polygon class="st0" points="263.5,122.9 280.1,122.9 277.6,130.5 266.1,130.5 263.5,122.9 	"/>
	<polygon class="st0" points="268.6,137.6 275,137.6 272.5,145.9 271.2,145.9 268.6,137.6 	"/>
	<path class="st0" d="M130.7,85.8h60.7c1.9-1.3,5.8-5.7,7-7.7h-67.7V85.8L130.7,85.8z"/>
	<polygon class="st0" points="253.3,33.4 209.2,33.4 209.2,41.1 256.5,41.1 253.3,33.4 	"/>
	<polygon class="st0" points="258.4,48.1 209.2,48.1 209.2,55.8 261.6,55.8 258.4,48.1 	"/>
	<polygon class="st0" points="264.2,62.8 225.2,62.8 225.2,71.1 266.7,71.1 264.2,62.8 	"/>
	<path class="st0" d="M115.3,41.1h78.6c-7-5.7-13.4-7.7-24.3-7.7H162h-46.6V41.1L115.3,41.1z"/>
	<path class="st0" d="M343.4,139.5c0-4.5,3.2-7.7,7.7-7.7c3.8,0,7,3.2,7,7.7s-3.2,7.7-7,7.7C346.6,147.1,343.4,143.9,343.4,139.5
		L343.4,139.5z M351,148.4c4.5,0,8.9-3.8,8.9-8.9c0-5.1-4.5-8.9-8.9-8.9c-5.1,0-8.9,3.8-8.9,8.9C342.1,144.6,345.9,148.4,351,148.4
		L351,148.4z M349.1,140.1h1.9l2.6,4.5h1.9l-3.2-4.5c1.3,0,2.6-1.3,2.6-3.2c0-1.9-1.3-2.6-3.8-2.6h-3.8v10.2h1.9V140.1L349.1,140.1z
		 M349.1,138.8v-3.2h1.9c1.3,0,2.6,0,2.6,1.3c0,1.9-1.3,1.9-2.6,1.9H349.1L349.1,138.8z"/>
</g>
</svg>
