<?xml version="1.0" encoding="utf-8"?>
<!-- Generator: Adobe Illustrator 21.1.0, SVG Export Plug-In . SVG Version: 6.00 Build 0)  -->
<svg version="1.1" id="Layer_1" xmlns="http://www.w3.org/2000/svg" xmlns:xlink="http://www.w3.org/1999/xlink" x="0px" y="0px"
	 viewBox="0 0 283.5 110.4" style="enable-background:new 0 0 283.5 110.4;" xml:space="preserve">
<style type="text/css">
	.st0{fill:#000;}
</style>
<g>
	<rect x="31.1" y="44.5" class="st0" width="10.8" height="38.7"/>
	<path class="st0" d="M36.5,26.1c-3.6,0-6.3,3.2-6.3,6.4c0,3,2.7,6.2,6.3,6.2c3.5,0,6.3-3.1,6.3-6.4C42.9,28.9,39.8,26.1,36.5,26.1z
		"/>
	<path class="st0" d="M69.2,43.5c-4.4,0-8.2,1.4-11.4,6.1h-0.2v-5H47.2v38.7h10.8v-22c0-5.3,2.7-9,7.1-9c3.4,0,6.8,1.9,6.8,7.5v23.6
		h10.8V56.9C82.8,49.5,78.5,43.5,69.2,43.5z"/>
	<path class="st0" d="M131.9,43.5c-3.2,0-7.5,0.9-11.4,6c-2.7-5.3-7.8-6-10.4-6c-4.4,0-8.2,1-11.7,6.1h-0.1v-5H88v38.7h10.8V59.7
		c0-3.8,1.7-7.5,6.1-7.5c4.5,0,5.9,3.1,5.9,7.2v23.9h10.8V59.1c0-3.1,2-6.9,6.2-6.9c4.1,0,5.8,3.1,5.8,6.1v24.9h10.8V55.4
		C144.4,47.3,138.6,43.5,131.9,43.5z"/>
	<path class="st0" d="M168.3,43.5c-11.7,0-19.8,8-19.8,20.5c0,12.3,8.1,20.3,19.8,20.3c9.1,0,16.2-4.1,18.8-12l-10.5-0.8
		c-1.5,3-4.4,4.6-7.8,4.6c-5.8,0-8.6-4.5-9-9h28.3v-3C188.1,51.4,180,43.5,168.3,43.5z M159.8,60c0.6-4.4,3.4-8.3,9-8.3
		c5.2,0,8.1,4.5,8.4,8.3H159.8z"/>
	<path class="st0" d="M205.9,33.4h-10.8v11.1h-5v8.3h5v20.8c0,8.4,4.3,10.1,11.4,10.1c1.7,0,3.5-0.2,5.2-0.5v-8.5
		c-0.7,0.2-1.3,0.2-2.2,0.2c-2.8,0-3.5-0.8-3.5-2.6V52.8h5.7v-8.3h-5.7V33.4z"/>
	<path class="st0" d="M253.2,83.2c-0.3-1.4-0.5-2.8-0.5-4.8V56c0-8.9-8-12.5-17.5-12.5c-13.6,0-17.8,7.6-18.1,13.5h10.4
		c0.2-3.5,2.9-5.7,7.3-5.7c4.7,0,7.6,2.3,7.6,6.9v1.8l-10,0.6c-15.1,0.9-16.5,7.8-16.5,11.9c0,8.8,7.5,11.8,13.6,11.8
		c4.5,0,9.6-1.4,13.2-6.1h0.2v5H253.2z M242.3,69.9c0,4.7-5.5,6.5-8.9,6.5c-3.6,0-6.8-1.1-6.8-4.5c0-2.8,1.7-4.3,6.6-4.7l9-0.8V69.9
		z"/>
</g>
</svg>
