<svg xmlns="http://www.w3.org/2000/svg" viewBox="0 0 400 180"><defs><style>.cls-1,.cls-2{fill:#000;}.cls-1{fill-rule:evenodd;}</style></defs><title>jz17-partner-itera</title><g id="Partner"><path class="cls-1" d="M324.71,93.41c-1.83-.29-2.9,2.31-7.25,6.54a28.34,28.34,0,0,1-9.24,6.58c-6.18,2.62-7.25-.9-6.63-6,.66-5.39,3-12.31,3.76-16a6.1,6.1,0,0,0-.81-4.72c-1.26-1.94-4.26-3-5.81-1.14-2.29,2.71-3.3,4.69-10.66,13.92-6.49,8.14-14.84,14.84-19.54,11.2-2.57-2-2.87-6,0-11.58,3.1-6.08,10.26-13.06,16.63-17.7,8.34-6.07,12.94-7.05,13.83-7.29,1.12-.3,2-.33,2.37.13.93,1.16-1.55,2.52-.75,5.17a4.16,4.16,0,0,0,3.63,2.71c1.63.13,5.51-.88,6.33-5.93s-3.84-14-25.3-5.76C268.84,69.81,252.2,85.8,249.31,98.8c-3.21,2.07-7.21,3.79-11.28,3.48-7.58-.58-6.93-9.82-3.2-16.91s10.44-12.13,12.51-14c2.88-2.66,5.66-3,4-7.7-1.17-3.26-3-3.45-6.12-2.56a138.48,138.48,0,0,1-21.8,4.35c-.19-3.57-2.37-7.06-7.16-7-4.94,0-10.06,4.6-11,10.36-1,6.26,2.06,9.46,4.81,10.62-5.68,10.49-17.75,23.4-29.42,24.28-3.29.24-6.31-.9-7.86-2.7,7.8-4.47,15.51-10.48,19.83-19.45,5.69-11.81,0-18.75-8.23-18.75-9.23,0-26.12,9.37-31.26,25.47a27.6,27.6,0,0,0-.4,14.89,46.71,46.71,0,0,1-15,2.8c-7.31,0-7.43-5.62-5.66-9.43,1.25-2.67,11.27-24.08,18.16-38.64,22.16-3.92,51.86-9.15,57.3-10.14,3.31-.61,7.3-.82,7.06-3.61-.18-2.13-2.85-2.07-5-2l-53.13,2.7c5.65-13.72-7.6-19-9.83-16-.89,1.2-4.41,8.25-8.63,16.91l-9.79.48c-4.34.33-11.42,1-12.43,8.12-.78,5.54,4.94,8.8,11.41,7.61l3.28-.6c-4.6,9.63-8.7,18.33-10,21.15-3.16,6.94-6.46,13.21-7.21,19.07-4.68,2.77-9.8,4.84-14.24,4.67-7.31-.28-7.09-6-5.54-9.42,1.11-2.43,3-6.7,5.51-12,3.36-7.23.13-12.79-5.11-14.65-3.56-1.26-6.83-1.34-8.25-.07-1.83,1.63-.44,5.73-2,9.06-3.25,6.67-5.73,12.45-7.41,16-3.63,7.66-3,14.31.8,18.54,2.71,3,7.25,5,13.38,5,7.31,0,16.33-4,23.77-9a15.84,15.84,0,0,0,.87,1.77c2.33,4.06,7.27,6.87,14.1,6.87,7.49,0,18.26-3.69,26.73-8.46,3.08,4.24,8.15,7.24,15.84,7.36,22.18.33,39.71-20.74,46.68-37.44a73.51,73.51,0,0,0,13.77-3.92S212.44,94,216.82,108.3c1.74,5.67,7.64,10.39,16.09,9.57,6.78-.66,12.65-4.5,17.18-8.75,3,7.49,10.75,8.67,16,7.92,13-1.88,21.59-14.69,21.59-14.69s-1.35,4.93.46,9.22c1.31,3.11,4.43,6,10.25,6,13.13,0,23.46-13.4,25.58-16.7,3.44-5.38,2.61-7.16.76-7.45m-156,1.51c-.29-.69-1.84-6.64,2.74-14.15,3.83-6.3,10.49-10,13.11-7.79,1.8,1.54-.14,6.81-5.9,13.44a38.09,38.09,0,0,1-10,8.51"/><path class="cls-1" d="M97.65,64.78a12.88,12.88,0,0,0,12.06-9.53c1.2-5.27-2.27-9.54-7.74-9.54A12.89,12.89,0,0,0,89.9,55.26c-1.2,5.27,2.28,9.53,7.74,9.53"/><path class="cls-2" d="M82.95,148.9H81.56l-6.28-13.56.1,16.41H73.69V133.13H76l6.28,13.71,6.28-13.71h2.28v18.62H89.13l.1-16.41Z"/><path class="cls-2" d="M94.54,151.75l6.58-18.87h1.24l6.58,18.87H107l-1.71-5.21H98.17l-1.71,5.21Zm4.1-6.68h6.18l-3.08-9.36Z"/><path class="cls-2" d="M116,142.74l-1.61,1.86v7.15h-1.69V133.13h1.69v9.29l7.77-9.29h2.19l-7.25,8.34,8,10.28h-2.21Z"/><path class="cls-2" d="M138.61,142.84h-8.24v7.35h9.11v1.56h-10.8V133.13h10.8v1.56h-9.11v6.58h8.24Z"/><path class="cls-2" d="M148.29,151.75l6.58-18.87h1.24l6.58,18.87h-1.91l-1.71-5.21h-7.15l-1.71,5.21Zm4.1-6.68h6.18l-3.08-9.36Z"/><path class="cls-2" d="M171.87,151.75V133.13h5.07c6.08,0,7.85,4,7.85,9.31s-1.76,9.31-7.85,9.31Zm1.69-1.56H177c4.47,0,6-3.28,6-7.75s-1.49-7.75-6-7.75h-3.48Z"/><path class="cls-2" d="M189.87,151.75V133.13h1.74v18.62Z"/><path class="cls-2" d="M206.76,142.84h-8v8.91h-1.69V133.13h10.55v1.56h-8.86v6.58h8Z"/><path class="cls-2" d="M221.65,142.84h-8v8.91H212V133.13h10.55v1.56h-8.86v6.58h8Z"/><path class="cls-2" d="M236.8,142.84h-8.24v7.35h9.11v1.56h-10.8V133.13h10.8v1.56h-9.11v6.58h8.24Z"/><path class="cls-2" d="M243.94,151.75h-1.69V133.13h5.84c4.64,0,6.08,2,6.08,5.24,0,2.48-.87,4.27-3.43,4.94l4.44,8.44h-2l-4.17-8.17c-.27,0-.55,0-.82,0h-4.3Zm0-9.71h4.59c3.3,0,3.8-1.69,3.8-3.68s-.5-3.68-3.8-3.68h-4.59Z"/><path class="cls-2" d="M268.85,142.84H260.6v7.35h9.11v1.56h-10.8V133.13h10.8v1.56H260.6v6.58h8.24Z"/><path class="cls-2" d="M286,151.75l-10-15.17,0,15.17h-1.69V133.13h1.27l10,15.17,0-15.17h1.69v18.62Z"/><path class="cls-2" d="M299.13,132.88a11.89,11.89,0,0,1,4.84.87v1.66a11.57,11.57,0,0,0-4.84-1c-4.07,0-5.54,3.5-5.54,8s1.47,8,5.54,8a11.57,11.57,0,0,0,4.84-1v1.66a11.92,11.92,0,0,1-4.84.87c-5.56,0-7.33-4.27-7.33-9.56S293.57,132.88,299.13,132.88Z"/><path class="cls-2" d="M318.5,142.84h-8.24v7.35h9.11v1.56h-10.8V133.13h10.8v1.56h-9.11v6.58h8.24Z"/></g></svg>