<svg id="Partner" xmlns="http://www.w3.org/2000/svg" viewBox="0 0 400 180"><defs><style>.cls-1{fill:#fff;}</style></defs><title>jz17-partner-jetbrains</title><polygon class="cls-1" points="266.35 74.96 262.35 74.96 262.35 74.17 271.2 74.17 271.2 74.96 267.2 74.96 267.2 85.65 266.35 85.65 266.35 74.96"/><polygon class="cls-1" points="272.5 74.17 273.35 74.17 273.35 79.49 280.69 79.49 280.69 74.17 281.54 74.17 281.54 85.65 280.69 85.65 280.69 80.27 273.35 80.27 273.35 85.65 272.5 85.65 272.5 74.17"/><polygon class="cls-1" points="283.66 74.08 291.96 74.08 291.96 74.88 284.52 74.88 284.52 79.46 291.21 79.46 291.21 80.26 284.52 80.26 284.52 84.94 292.04 84.94 292.04 85.74 283.66 85.74 283.66 74.08"/><path class="cls-1" d="M297.19,74.08h3.88c3.67,0,6.2,2.52,6.2,5.8v0a5.84,5.84,0,0,1-6.2,5.83h-3.88Zm.87.8V84.94h3a5,5,0,0,0,5.3-5v0a5,5,0,0,0-5.3-5Z"/><path class="cls-1" d="M308.9,74.08h4.9a4.59,4.59,0,0,1,3.28,1.15,3.08,3.08,0,0,1,.88,2.17v0c0,1.95-1.45,3.07-3.42,3.33l3.85,5h-1.1l-3.72-4.83h-3.82v4.83h-.87Zm4.8,6c1.95,0,3.4-1,3.4-2.67v0c0-1.57-1.23-2.55-3.35-2.55h-4v5.25Z"/><rect class="cls-1" x="319.75" y="74.08" width="0.87" height="11.67"/><polygon class="cls-1" points="321.89 74.08 322.85 74.08 327.42 84.81 332 74.08 332.92 74.08 327.79 85.83 327.02 85.83 321.89 74.08"/><polygon class="cls-1" points="333.24 74.17 341.4 74.17 341.4 74.96 334.09 74.96 334.09 79.47 340.66 79.47 340.66 80.26 334.09 80.26 334.09 84.86 341.48 84.86 341.48 85.65 333.24 85.65 333.24 74.17"/><polygon class="cls-1" points="266.35 90.01 262.35 90.01 262.35 89.22 271.2 89.22 271.2 90.01 267.2 90.01 267.2 100.69 266.35 100.69 266.35 90.01"/><path class="cls-1" d="M271.09,95v0a5.77,5.77,0,1,1,11.54,0v0a5.77,5.77,0,1,1-11.54,0m10.65,0v0a5,5,0,0,0-4.9-5.16A4.91,4.91,0,0,0,272,94.92v0a5,5,0,0,0,4.9,5.16A4.91,4.91,0,0,0,281.74,95"/><path class="cls-1" d="M287.85,89.22h3.82c3.61,0,6.1,2.47,6.1,5.7v0a5.74,5.74,0,0,1-6.1,5.74h-3.82Zm.85.79v9.9h3A4.87,4.87,0,0,0,296.88,95v0A4.9,4.9,0,0,0,291.67,90Z"/><polygon class="cls-1" points="299.38 89.22 307.54 89.22 307.54 90.01 300.23 90.01 300.23 94.51 306.8 94.51 306.8 95.3 300.23 95.3 300.23 99.91 307.62 99.91 307.62 100.69 299.38 100.69 299.38 89.22"/><polygon class="cls-1" points="308.08 89.22 309.03 89.22 313.52 99.78 318.03 89.22 318.93 89.22 313.88 100.78 313.13 100.78 308.08 89.22"/><polygon class="cls-1" points="320.06 89.22 328.22 89.22 328.22 90.01 320.91 90.01 320.91 94.51 327.48 94.51 327.48 95.3 320.91 95.3 320.91 99.91 328.3 99.91 328.3 100.69 320.06 100.69 320.06 89.22"/><polygon class="cls-1" points="329.75 89.22 330.6 89.22 330.6 99.91 337.33 99.91 337.33 100.69 329.75 100.69 329.75 89.22"/><path class="cls-1" d="M337.43,95v0a5.77,5.77,0,1,1,11.54,0v0a5.77,5.77,0,1,1-11.54,0m10.65,0v0a5,5,0,0,0-4.9-5.16,4.91,4.91,0,0,0-4.87,5.13v0a5,5,0,0,0,4.9,5.16A4.91,4.91,0,0,0,348.08,95"/><path class="cls-1" d="M350.58,89.22h4.16c2.52,0,4.26,1.29,4.26,3.51v0c0,2.41-2.08,3.65-4.47,3.65h-3.1v4.28h-.85Zm4,6.41c2.13,0,3.57-1.11,3.57-2.82v0c0-1.82-1.41-2.77-3.47-2.77h-3.25v5.62Z"/><path class="cls-1" d="M41,96.7l4.77-4.5c1.3,1.56,2.52,2.48,4.2,2.48,1.83,0,3-1.26,3-3.74V74h7.36V91c0,3.36-.84,5.72-2.63,7.51a10.06,10.06,0,0,1-7.32,2.71A10.91,10.91,0,0,1,41,96.7"/><polygon class="cls-1" points="62.82 74.04 84.3 74.04 84.3 80.29 70.14 80.29 70.14 84.38 82.96 84.38 82.96 90.21 70.14 90.21 70.14 94.45 84.49 94.45 84.49 100.74 62.82 100.74 62.82 74.04"/><polygon class="cls-1" points="92.92 80.52 84.94 80.52 84.94 74.04 108.33 74.04 108.33 80.52 100.32 80.52 100.32 100.74 92.92 100.74 92.92 80.52"/><path class="cls-1" d="M109.66,74h13.69c3.36,0,5.72.84,7.29,2.37a6,6,0,0,1,1.72,4.35v.08a6.18,6.18,0,0,1-4.12,6c3.24,1.07,5.3,2.9,5.3,6.52v.08c0,4.58-3.74,7.36-10.11,7.36H109.66Zm15.41,8.24c0-1.49-1.18-2.29-3.36-2.29h-4.84v4.69h4.65c2.25,0,3.55-.76,3.55-2.33Zm-2.56,7.59h-5.65v4.92h5.72c2.29,0,3.55-.88,3.55-2.44v-.08c0-1.45-1.14-2.4-3.62-2.4"/><path class="cls-1" d="M135,74h12.63c4.08,0,6.9,1.07,8.7,2.86a8.34,8.34,0,0,1,2.37,6.22v.08a8.46,8.46,0,0,1-5.49,8.24l6.37,9.31h-8.51l-5.38-8.09h-3.28v8.09H135Zm12.32,12.82c2.48,0,4-1.22,4-3.17v-.08c0-2.14-1.56-3.2-4-3.2h-4.88v6.45Z"/><path class="cls-1" d="M169.29,73.85h7.13l11.37,26.89h-7.93l-1.91-4.81H167.61l-1.91,4.81H158Zm6.48,16.33-3-7.55-3,7.55Z"/><rect class="cls-1" x="188.66" y="74.04" width="7.4" height="26.7"/><polygon class="cls-1" points="199.04 74.04 205.94 74.04 216.93 88.15 216.93 74.04 224.25 74.04 224.25 100.74 217.81 100.74 206.36 86.09 206.36 100.74 199.04 100.74 199.04 74.04"/><path class="cls-1" d="M225.05,96.77l4.12-4.92a13.83,13.83,0,0,0,8.66,3.2c2,0,3.09-.69,3.09-1.83v-.08c0-1.14-.88-1.72-4.54-2.59-5.68-1.3-10.07-2.9-10.07-8.35v-.08c0-5,3.93-8.54,10.34-8.54a16.81,16.81,0,0,1,11,3.55l-3.7,5.23a13.11,13.11,0,0,0-7.48-2.63c-1.79,0-2.67.72-2.67,1.72v.08c0,1.22.92,1.75,4.65,2.59,6.1,1.34,9.92,3.32,9.92,8.32v.08c0,5.45-4.31,8.7-10.8,8.7a18.72,18.72,0,0,1-12.51-4.43"/></svg>