<svg id="Partner" xmlns="http://www.w3.org/2000/svg" viewBox="0 0 400 180"><defs><style>.cls-1{fill:#000;fill-rule:evenodd;}</style></defs><title>jz17-partner-kantega</title><path class="cls-1" d="M343.35,89.71A6.74,6.74,0,0,0,341.64,87a4.81,4.81,0,0,0-3.21-1.22,13.23,13.23,0,0,0-6.16,1.76,24.26,24.26,0,0,0-5.86,4.69,25.12,25.12,0,0,0-4.67,6.24,18.21,18.21,0,0,0-2.16,6.83q-.5,3.91,1.28,3.91,1.58,0,4.41-1.93l5.84-4.69Q336.29,97.76,343.35,89.71Zm-70.69,46.21a18.81,18.81,0,0,0,4.62-3.91,57.53,57.53,0,0,0,8-11.52l-12.17,5a23.54,23.54,0,0,0-6.89,4.24,7.23,7.23,0,0,0-2.71,4.52,2.16,2.16,0,0,0,1,2,4,4,0,0,0,3,1.16A10.11,10.11,0,0,0,272.66,135.92ZM297.14,83A18.85,18.85,0,0,0,290,84.58a29.79,29.79,0,0,0-7.23,4.25,27.3,27.3,0,0,0-5.72,6.07,15,15,0,0,0-2.77,7Q274,105,276.75,105a11.62,11.62,0,0,0,5.9-2,40,40,0,0,0,6.51-5,142.42,142.42,0,0,0,12.08-13.68A5.92,5.92,0,0,0,297.14,83Zm-40.09,3.07q.38-1.55.38-1.58a2.57,2.57,0,0,0-.38-2,2.26,2.26,0,0,0-1.93-.9,9.92,9.92,0,0,0-4.25,1A17,17,0,0,0,247,85.3a26.28,26.28,0,0,0-5.3,6.83.33.33,0,0,1,.23-.06.57.57,0,0,0-.27.17,21.26,21.26,0,0,0-1.95,4.35,14.42,14.42,0,0,0-.88,3.59q1-.61,2.16-1.2a85.92,85.92,0,0,0,12.69-8.72A14,14,0,0,0,257.06,86.06Zm82-6.83a12.31,12.31,0,0,1,5.25,1.11,11.15,11.15,0,0,1,3.8,3.53l2.21-2.37A3.71,3.71,0,0,1,353,80a3,3,0,0,1,2,.67,3,3,0,0,1,1.16,2.77,4,4,0,0,1-.82,1.87l-2.54,3.21a26,26,0,0,0-4.52,7.71,33.37,33.37,0,0,0-1.72,7.23q-.55,4.62,0,5.29l.29.34a1.73,1.73,0,0,0,1.37-.23l6.39-3.64q1.55-1,2.92,1.43t-.88,3.87q-4.79,3-6.62,4a10.69,10.69,0,0,1-4.52,1.64q-4.14,0-5.08-3a24.18,24.18,0,0,1-.82-5,32.59,32.59,0,0,1,0-4.73l.06-.29a69.31,69.31,0,0,1-10.15,8.87l-5,2.77a11.65,11.65,0,0,1-4.35,1,8.41,8.41,0,0,1-4.25-1,7.31,7.31,0,0,1-2.31-2.71,10.62,10.62,0,0,1-1-4.29,6,6,0,0,0,.06-.88,3.45,3.45,0,0,0-.06-.67q-.55.44-1.22.93l-.93.78q-3.53,2.59-5.4,3.68l-.06.06q-10.3,5.46-10.68,5.63l-5.57,10.09a55.23,55.23,0,0,1-6.3,8.55,27.72,27.72,0,0,1-7.21,5.9,16.13,16.13,0,0,1-5.63,2,12.1,12.1,0,0,1-2.65.29,9.42,9.42,0,0,1-2.37-.29,10.49,10.49,0,0,1-4.85-2.25,7.29,7.29,0,0,1-3-7.35q.53-5.46,6.83-10.19,5.69-4.25,17.71-9,4.73-1.89,8.49-3.76l3.3-8.11a41.66,41.66,0,0,1-9.16,6.39,18.08,18.08,0,0,1-7.77,2,8.29,8.29,0,0,1-6.85-3.13,8.67,8.67,0,0,1-1.7-4.58,95.16,95.16,0,0,1-7.94,5.84,44.9,44.9,0,0,1-7.56,3.91,23.25,23.25,0,0,1-6.62,1.55h-1q-.76,0-1.55-.06A11.37,11.37,0,0,1,239,114a.16.16,0,0,1-.11-.06.51.51,0,0,1-.23-.06.16.16,0,0,1-.1-.06,10.65,10.65,0,0,1-4-3.53l-.11-.17a.53.53,0,0,1-.11-.32h-.06a54.72,54.72,0,0,1-18.7,5.13,8.11,8.11,0,0,1-6.89-2.92,9.74,9.74,0,0,1-1.87-3.47,10.5,10.5,0,0,1-.44-3.76q-16,13.57-22.23,13.57a4.66,4.66,0,0,1-3.91-1.77,5.16,5.16,0,0,1-1.16-4.18q.44-3.91,5-11.64,4.58-7.17,4.75-8.43.32-3.15-2.82-3.15t-7.44,2.71a59.92,59.92,0,0,0-8.38,6.62q-3.15,2.92-13.79,14.5a4.18,4.18,0,0,1-3,1.49q-3.53,0-3.21-3.32l.5-1.55A96.84,96.84,0,0,0,158,93.12l-7.06,6.41a3.54,3.54,0,0,1-.72.53l-2,1.83Q136.07,112.64,131,112.64a5.13,5.13,0,0,1-5-3,10.85,10.85,0,0,1-.88-6.16l.06-.29A67.51,67.51,0,0,1,115,112.09l-5,2.77a11.76,11.76,0,0,1-4.41,1,7.91,7.91,0,0,1-4.2-1,6.29,6.29,0,0,1-2.25-2.71,12.38,12.38,0,0,1-1-7.21q.38-4.58,5.13-12.4A32,32,0,0,1,107,87.9a28.42,28.42,0,0,1,8.17-6.18,20.05,20.05,0,0,1,9.37-2.48,12.09,12.09,0,0,1,5.19,1.11,11,11,0,0,1,3.85,3.53l2.16-2.37A3.67,3.67,0,0,1,138.44,80a3.22,3.22,0,0,1,2.1.67,2.88,2.88,0,0,1,1.11,2.77,3.85,3.85,0,0,1-.71,1.87l-2.71,3.21a24.85,24.85,0,0,0-4.35,7.71,31.45,31.45,0,0,0-1.77,7.23q-.21,2.25.44,2.25l1.83-.88a84.71,84.71,0,0,0,10.07-8.22l4-3.47q.29-.21.55-.44L159.18,83a5.36,5.36,0,0,1,4-1.95q3.85,0,3.7,4.52a39.29,39.29,0,0,1-2.54,9.83,69.61,69.61,0,0,1,11.24-9,27.37,27.37,0,0,1,5.57-2.82,17.82,17.82,0,0,1,5.63-1q4.64,0,7,2.71a8.34,8.34,0,0,1,2,7.06q-.44,3-3.8,8.38-4.43,6.51-5.19,8.66l-.44,1.43a.34.34,0,0,0,.17.32l1.7-.76A147,147,0,0,0,205.5,97.7q3.62-3.24,5.67-5.29l5.13-7.94.29-.4.88-1.55,5.9-8.76Q209.24,75,193.48,77.25a3.17,3.17,0,0,1-2.38-.61,3.08,3.08,0,0,1-1.2-2.16,2.86,2.86,0,0,1,.55-2.31,3,3,0,0,1,2.1-1.2q17.42-2.54,32.91-3.76l-.06.06q1.26-.17,2.54-.23l5.69-8.43a3.44,3.44,0,0,1,3-1.76q3.57,0,3.19,3.19l-.55,1.72-3.13,4.69q6-.4,11.73-.5a2.92,2.92,0,0,1,2.21.82,3.35,3.35,0,0,1,1,2.31,3.12,3.12,0,0,1-.88,2.27,3.19,3.19,0,0,1-2.16.93q-6.74.17-13.85.67h0q-1.16,0-2.27.15l-7.33,11h-.06a146.33,146.33,0,0,0-8.72,13.41,19,19,0,0,0-2.31,6.16,5.09,5.09,0,0,0,.5,3.26,2.48,2.48,0,0,0,2.42,1.43A30.63,30.63,0,0,0,227.22,106a38.85,38.85,0,0,0,5.19-2.38,6.3,6.3,0,0,1-.11-1.2q.23-3.42.29-3.47a24.92,24.92,0,0,1,3.07-9.83,29.81,29.81,0,0,1,6.07-7.56A27.54,27.54,0,0,1,249,76.7a16.61,16.61,0,0,1,6.77-1.7,9,9,0,0,1,6.73,2.52A7.36,7.36,0,0,1,264.38,84a17.37,17.37,0,0,1-2.8,7.1,41.54,41.54,0,0,1-3.09,3.59q-4.64,4.52-14.39,10-1.72,1-3.38,1.87l-.15.11a5,5,0,0,0,4,1.89h.76q3.7,0,9.65-3.49,1.49-.93,3.15-2.14a102.37,102.37,0,0,0,10.25-8.05l2-1.77a.87.87,0,0,1,.29-.15q.27-.5.55-.93a34.26,34.26,0,0,1,7.59-8.22,38.5,38.5,0,0,1,9.54-5.46,25.55,25.55,0,0,1,9.5-2,12.89,12.89,0,0,1,7.59,2.19l.17-.15a3.55,3.55,0,0,1,3-1.66q3.59,0,3.21,3.21l-.61,1.7-3,4.69Q302.1,99.8,298.57,108l2.92-1.66q2.71-1.87,7.29-5.08l1-.82,5.11-4.31.29-.21,2.42-3.42a26.13,26.13,0,0,1,1.81-2.33l2-2.25a30,30,0,0,1,8.28-6.18A19.72,19.72,0,0,1,339,79.23ZM128.19,48l.06.06a3.47,3.47,0,0,1,.61,2.59,3.78,3.78,0,0,1-1,1.93q-.11.06-.11.11-2.1,2.16-6.62,6.39-4.85,4.35-7.44,6.39l-1.72,1.28q-4.56,3.47-9.81,6.83-6.3,3.82-12.8,7t-12.46,5.3a.32.32,0,0,0-.21.27q1.55,10.27,2.92,17.21a43.16,43.16,0,0,0,2.75,9.16q1.77,4.06,3.7,4.12a13.38,13.38,0,0,0,4.85-1.37q1.49-.67,3.15-1.6a.17.17,0,0,0,.06-.11q2.16-1,3.53,1.66,1.22,2.54-.72,3.85-7,4.92-12,4.52h-.11a8.94,8.94,0,0,1-4.5-1.43,10.5,10.5,0,0,1-3.43-3.53.17.17,0,0,0-.15-.1,33.19,33.19,0,0,1-3.59-10.38l-1.87-12a61.51,61.51,0,0,0-1.83-8.76.67.67,0,0,0-.11-.17.4.4,0,0,0-.21-.06.18.18,0,0,0-.17.11l-12,16.26q-4.79,6.47-5.19,7a38.74,38.74,0,0,0-3,4.85,3.87,3.87,0,0,1-3.8,2.1h-.11a3.31,3.31,0,0,1-2.42-1,3.06,3.06,0,0,1-.5-2.54l.06-.11.32-1.11v-.06h.06a70.11,70.11,0,0,1,3.82-6.16.21.21,0,0,0,0-.11q.84-1.16,5.19-7.29l14.23-19a99.7,99.7,0,0,0,7.88-11.68v-.17l3-6.12a26.65,26.65,0,0,0,1.76-5.63q.06-.82-.44-.93l-.06-.06a3.76,3.76,0,0,0-1.81.46,13.72,13.72,0,0,0-2.8,1.7,73.77,73.77,0,0,0-7.23,6.45q-.11.06-.11.11a125.62,125.62,0,0,0-8.09,9.92q-2.59,3.53-5.19,2.1A3,3,0,0,1,51,74.27a4,4,0,0,1,.72-2.59,56.66,56.66,0,0,1,9.43-12,43.06,43.06,0,0,1,10.13-8.28q5.19-3.24,8.78-3a5.43,5.43,0,0,1,4.79,2.82,8.38,8.38,0,0,1,.61,5.63,38.87,38.87,0,0,1-4.08,10.91,100,100,0,0,1-6.45,10.91.23.23,0,0,0-.06.17.21.21,0,0,0,.06.15.66.66,0,0,0,.17.11h.17a110.56,110.56,0,0,0,10.57-4.46A128.73,128.73,0,0,0,98,68v.06a116.53,116.53,0,0,0,11-7.61q2.33-1.7,4.37-3.42,1.14-1.14,4.73-4.41l4.46-4.41a3.78,3.78,0,0,1,3.15-1.37h.06A3.79,3.79,0,0,1,128.19,48Zm.5,41.69A5.11,5.11,0,0,0,127,87a4.47,4.47,0,0,0-3.15-1.22,13,13,0,0,0-6.16,1.76,24.76,24.76,0,0,0-5.8,4.69,24,24,0,0,0-4.62,6.24,18.08,18.08,0,0,0-2.27,6.83q-.5,3.91,1.32,3.91,1.55,0,4.37-1.93l5.9-4.69Q121.74,97.76,128.69,89.71Z"/></svg>