<svg id="Partner" xmlns="http://www.w3.org/2000/svg" viewBox="0 0 400 180"><defs><style>.cls-1{fill:#000;}</style></defs><title>jz17-partner-kodemaker</title><path class="cls-1" d="M54.45,69.57V86.43h.12l8.49-16.87H75.26L64.18,88.77l12.43,24.74h-13L56.85,98.19l-2.4,3.69v11.63H43V69.57Z"/><path class="cls-1" d="M77.16,81A18.63,18.63,0,0,1,79.81,74a10.77,10.77,0,0,1,4.86-4,19.15,19.15,0,0,1,7.39-1.26A19.16,19.16,0,0,1,99.45,70a10.77,10.77,0,0,1,4.86,4A18.64,18.64,0,0,1,107,81a58.94,58.94,0,0,1,.8,10.5A58.93,58.93,0,0,1,107,102a18.62,18.62,0,0,1-2.65,7.08A10.18,10.18,0,0,1,99.45,113a20.5,20.5,0,0,1-7.39,1.17A20.49,20.49,0,0,1,84.67,113a10.18,10.18,0,0,1-4.86-3.91A18.61,18.61,0,0,1,77.16,102a58.9,58.9,0,0,1-.8-10.49A58.91,58.91,0,0,1,77.16,81ZM88.3,98.9a26.28,26.28,0,0,0,.52,4.65,4.52,4.52,0,0,0,1.17,2.4,3.48,3.48,0,0,0,4.12,0,4.53,4.53,0,0,0,1.17-2.4,26.46,26.46,0,0,0,.52-4.65q.12-2.92.12-7.36t-.12-7.36a26.49,26.49,0,0,0-.52-4.65,4.52,4.52,0,0,0-1.17-2.4,3.47,3.47,0,0,0-4.12,0,4.51,4.51,0,0,0-1.17,2.4,26.31,26.31,0,0,0-.52,4.65q-.12,2.92-.12,7.36T88.3,98.9Z"/><path class="cls-1" d="M128.5,69.57q5,0,7.76,1.82a11.27,11.27,0,0,1,4.15,4.86,20.75,20.75,0,0,1,1.69,7q.31,4,.31,8.28t-.31,8.28a20.74,20.74,0,0,1-1.69,7,11.27,11.27,0,0,1-4.15,4.86q-2.77,1.82-7.76,1.81H111.88V69.57Zm-2.89,35.7a6.33,6.33,0,0,0,2.65-.46,3.15,3.15,0,0,0,1.51-1.94,15.81,15.81,0,0,0,.68-4.19q.15-2.71.15-7.14t-.15-7.14a15.83,15.83,0,0,0-.68-4.18,3.15,3.15,0,0,0-1.51-1.94,6.31,6.31,0,0,0-2.65-.46h-2.28v27.45Z"/><path class="cls-1" d="M173.25,69.57v9.36H158.66v7.51h13.66v9H158.66v8.74H173.8v9.36H147.21V69.57Z"/><path class="cls-1" d="M193.93,69.57l4.62,26h.12l4.62-26h16.37v43.95H208.95V80.77h-.12l-6.09,32.75h-8.25l-6.09-32.75h-.12v32.75H177.56V69.57Z"/><path class="cls-1" d="M246.25,69.57,257,113.51H244.77l-1.17-7.69h-9.11l-1.17,7.69h-12l10.53-43.95Zm-7.26,9L235.85,97.2h6.4l-3.14-18.65Z"/><path class="cls-1" d="M269.88,69.57V86.43H270l8.49-16.87h12.19L279.61,88.77,292,113.51H279l-6.71-15.33-2.4,3.69v11.63H258.44V69.57Z"/><path class="cls-1" d="M319.13,69.57v9.36H304.54v7.51H318.2v9H304.54v8.74h15.14v9.36H293.09V69.57Z"/><path class="cls-1" d="M341.74,69.57a15.92,15.92,0,0,1,5.56.86A9.54,9.54,0,0,1,351,72.86a9.4,9.4,0,0,1,2.09,3.72,16.24,16.24,0,0,1,.65,4.68A12.84,12.84,0,0,1,352,88.4a7.86,7.86,0,0,1-5.69,3.32v.12q4.1.37,5.63,2.89a13.41,13.41,0,0,1,1.53,7v5.54q0,.92.06,1.75a13.9,13.9,0,0,0,.18,1.51,3.94,3.94,0,0,0,.31,1c.16.25.33.48.49.71a2.38,2.38,0,0,0,.8.65v.62H343.19a7.57,7.57,0,0,1-.64-2,23,23,0,0,1-.31-2.34q-.09-1.17-.12-2.25c0-.72,0-1.3,0-1.75v-3a21.28,21.28,0,0,0-.19-3.08,4.87,4.87,0,0,0-.65-1.94,2.46,2.46,0,0,0-1.17-1,4.84,4.84,0,0,0-1.75-.28h-3v17.6H323.87V69.57Zm-4.15,18.59a4.39,4.39,0,0,0,3.63-1.45,5.84,5.84,0,0,0,1.17-3.79A5.55,5.55,0,0,0,341.25,79a5,5,0,0,0-3.72-1.17h-2.22V88.15Z"/><path class="cls-1" d="M353.73,68.07a3.75,3.75,0,0,1,.82-1.19,3.82,3.82,0,0,1,1.21-.79,3.78,3.78,0,0,1,4.94,2,3.62,3.62,0,0,1,.3,1.48,3.71,3.71,0,0,1-.3,1.5,3.83,3.83,0,0,1-.82,1.2,3.68,3.68,0,0,1-1.2.79,3.93,3.93,0,0,1-2.92,0,3.71,3.71,0,0,1-1.21-.79,3.78,3.78,0,0,1-.82-1.2,3.72,3.72,0,0,1-.3-1.5A3.63,3.63,0,0,1,353.73,68.07Zm.62,2.76a3.13,3.13,0,0,0,.65,1,3,3,0,0,0,1,.68,3.06,3.06,0,0,0,1.23.25,3,3,0,0,0,1.22-.25,3,3,0,0,0,1-.68,3.14,3.14,0,0,0,.65-1,3.41,3.41,0,0,0,.24-1.28,3.32,3.32,0,0,0-.24-1.26,3.06,3.06,0,0,0-1.64-1.69,3,3,0,0,0-1.22-.25,3.05,3.05,0,0,0-2.87,1.93,3.32,3.32,0,0,0-.24,1.26A3.41,3.41,0,0,0,354.35,70.83Z"/><path class="cls-1" d="M359.14,71.85h-.84L357.62,70H356.5v1.81h-.8V67.44h1.91a1.64,1.64,0,0,1,1.17.36,1.24,1.24,0,0,1,.38.93,1.17,1.17,0,0,1-.8,1.17ZM356.5,69.4h1a1,1,0,0,0,.64-.18.62.62,0,0,0,.21-.5.59.59,0,0,0-.21-.47.86.86,0,0,0-.58-.18H356.5Z"/></svg>