<svg id="Partner" xmlns="http://www.w3.org/2000/svg" viewBox="0 0 400 180"><defs><style>.cls-1{fill:#000;}</style></defs><title>jz17-partner-microsoft</title><path class="cls-1" d="M41,54H73.3q0,16.15,0,32.3H41V54Z"/><path class="cls-1" d="M76.6,54h32.3q0,16.15,0,32.3H76.6q0-16.15,0-32.3Z"/><path class="cls-1" d="M332.31,66.36a12.68,12.68,0,0,1,10.18-1.2c0,2,0,4,0,6a6.66,6.66,0,0,0-5.15-.47A4.08,4.08,0,0,0,335,73.94a44,44,0,0,0-.13,5.23h10.22c0-2.21,0-4.43,0-6.64,2.32-.66,4.61-1.4,6.91-2.09,0,2.91,0,5.83,0,8.75,2.3,0,4.61,0,6.91,0v5.67c-2.31-.1-4.63,0-6.94,0,0,3.26,0,6.52,0,9.79,0,1.81-.1,3.62.11,5.42a3.51,3.51,0,0,0,1.51,2.79,5.21,5.21,0,0,0,5.31-.5V108a13.67,13.67,0,0,1-6.39,1,7.77,7.77,0,0,1-5.51-2.53,10.43,10.43,0,0,1-2-6.67c0-5,0-10,0-15H334.9q0,11.78,0,23.57h-7q0-11.78,0-23.56c-1.62,0-3.24,0-4.86,0,0-1.86,0-3.73,0-5.6,1.61,0,3.23,0,4.84,0,.12-2.48-.26-5,.48-7.45a9.53,9.53,0,0,1,3.94-5.38Z"/><path class="cls-1" d="M182.73,66.76a4.27,4.27,0,0,1,3.87,1.37,4,4,0,0,1,.49,4.54,4.35,4.35,0,0,1-4.65,1.95,4,4,0,0,1-3.24-3.89,4,4,0,0,1,3.54-4Z"/><path class="cls-1" d="M129.18,67.63h10.16q4.74,12,9.51,24.08c.81,2,1.57,4,2.41,6,4.07-10,8.2-20,12.23-30.09,3.26-.05,6.52,0,9.78,0q0,20.37,0,40.74c-2.35,0-4.7,0-7.05,0,0-10,0-20,0-30.07,0-.45,0-.9,0-1.35a5.41,5.41,0,0,0-.37.65c-4,10.26-8.15,20.49-12.17,30.75-1.67.06-3.35,0-5,0-4.17-10.26-8.28-20.54-12.42-30.8-.11-.21-.23-.42-.35-.62-.09,4.39,0,8.78,0,13.18q0,9.12,0,18.24h-6.65q0-20.37,0-40.74Z"/><path class="cls-1" d="M202,79.14a19.13,19.13,0,0,1,10.38,0,8.38,8.38,0,0,1,2,.83c0,2.23,0,4.45,0,6.68a11.1,11.1,0,0,0-8-2.45,8.2,8.2,0,0,0-5.8,3.22,11.27,11.27,0,0,0-1.85,8.09,8.76,8.76,0,0,0,2.82,5.81A8.85,8.85,0,0,0,208,103.3a13.31,13.31,0,0,0,6.27-2.57c0,2.11,0,4.22,0,6.33a17,17,0,0,1-9.55,2,14.16,14.16,0,0,1-9.1-3.8,14.55,14.55,0,0,1-4.23-9.78,17.7,17.7,0,0,1,2.76-10.84A14.06,14.06,0,0,1,202,79.14Z"/><path class="cls-1" d="M278.27,78.7a18.48,18.48,0,0,1,9.67,1c0,2.14,0,4.28,0,6.42A12.31,12.31,0,0,0,280.61,84a3.76,3.76,0,0,0-3.34,1.84,3,3,0,0,0,1,3.57c2,1.32,4.34,1.89,6.4,3.08a9.2,9.2,0,0,1,4,3.81,8.52,8.52,0,0,1-1.82,9.83c-2.58,2.41-6.3,3.08-9.72,3a20.77,20.77,0,0,1-7.1-1.63c0-2.25,0-4.5,0-6.75a15.28,15.28,0,0,0,6.34,2.74,8.16,8.16,0,0,0,4.82-.44,2.79,2.79,0,0,0,.83-4,8.41,8.41,0,0,0-3-2,29.24,29.24,0,0,1-6-3.09,7.23,7.23,0,0,1-2.61-4,8.91,8.91,0,0,1,1-7,10.4,10.4,0,0,1,7-4.27Z"/><path class="cls-1" d="M229.95,79.62a7.88,7.88,0,0,1,6.48-.55c0,2.33,0,4.66,0,7A7.43,7.43,0,0,0,231.7,85a5.8,5.8,0,0,0-4.37,3.49,12.91,12.91,0,0,0-1,6q0,7,0,14h-6.89q0-14.59,0-29.19c2.3,0,4.6,0,6.9,0,0,1.67,0,3.34,0,5a9,9,0,0,1,3.61-4.58Z"/><path class="cls-1" d="M179.82,79.18c2.32,0,4.64,0,7,0,0,9.73,0,19.45,0,29.18h-6.94q0-14.6,0-29.19Z"/><path class="cls-1" d="M265.39,86a12.35,12.35,0,0,0-6.1-6.17,18.54,18.54,0,0,0-10-1.18,13.94,13.94,0,0,0-9.18,4.91,15.56,15.56,0,0,0-3.22,8.92,16.76,16.76,0,0,0,2.56,10.91,13.23,13.23,0,0,0,8.07,5.26,20.06,20.06,0,0,0,8.18,0,13.52,13.52,0,0,0,8-4.95,15.48,15.48,0,0,0,3.07-8.5A19.16,19.16,0,0,0,265.39,86Zm-6.75,13.4a6.38,6.38,0,0,1-3.43,3.37,9.42,9.42,0,0,1-5.69.25,7,7,0,0,1-4.38-3.61,13.48,13.48,0,0,1-1.06-7.31,9.29,9.29,0,0,1,2.7-6.09,7.31,7.31,0,0,1,4.6-1.81,7.52,7.52,0,0,1,5.84,2,9.42,9.42,0,0,1,2.41,6.09A15.31,15.31,0,0,1,258.64,99.39Z"/><path class="cls-1" d="M321.35,86.83a12.46,12.46,0,0,0-6-6.79A18.09,18.09,0,0,0,305,78.63a14.47,14.47,0,0,0-7.72,3.31,14.31,14.31,0,0,0-4.61,9,19.34,19.34,0,0,0,1.1,10.14,13,13,0,0,0,7.1,6.89,18.79,18.79,0,0,0,9.84.83,13.64,13.64,0,0,0,8.59-5,16,16,0,0,0,3.16-9.95A18.61,18.61,0,0,0,321.35,86.83Zm-6.3,9.9a9.1,9.1,0,0,1-1.81,4.29,6.54,6.54,0,0,1-4.08,2.2,9.23,9.23,0,0,1-5-.54,7.08,7.08,0,0,1-3.68-3.86,13.87,13.87,0,0,1-.83-6.36,10.09,10.09,0,0,1,2.12-5.81,7.15,7.15,0,0,1,5.1-2.45,7.66,7.66,0,0,1,5.6,1.65A8,8,0,0,1,315,90.49,17.74,17.74,0,0,1,315,96.73Z"/><path class="cls-1" d="M41,89.65H73.3q0,16.15,0,32.3H41V89.65Z"/><path class="cls-1" d="M76.6,89.65h32.3V122H76.6q0-16.15,0-32.3Z"/></svg>