<svg id="Partner" xmlns="http://www.w3.org/2000/svg" viewBox="0 0 400 180"><defs><style>.cls-1{fill:#fff;}</style></defs><title>jz17-partner-miles</title><rect class="cls-1" x="198.5" y="47.19" width="15.58" height="83.97"/><path class="cls-1" d="M298.56,113.65c4,3.55,10.07,5.68,15.94,5.68,4.2,0,7.43-2,7.43-4.85,0-8.63-28.16-5.56-28.16-24,0-11,10.79-17.86,22.29-17.86,7.55,0,15.82,2.84,19.65,5.8l-7.31,11.12a19.77,19.77,0,0,0-11.15-3.9c-4.31,0-7.91,1.66-7.91,4.61,0,7.45,28.16,4.49,28.16,24.36,0,11-10.9,17.74-23.13,17.74A40.56,40.56,0,0,1,291,124.65Z"/><path class="cls-1" d="M104.44,74.25A25.69,25.69,0,0,1,78.69,48.37H62.5v82.79H78.68V79.55A4.34,4.34,0,0,0,80,81a39.23,39.23,0,0,0,24.47,8.14A39.23,39.23,0,0,0,128.91,81a4.32,4.32,0,0,0,1.29-1.48v51.61h16.18V48.37H130.18a25.69,25.69,0,0,1-25.75,25.89"/><path class="cls-1" d="M267,95.11a11.53,11.53,0,0,0-11.5-10.05c-6.47,0-11.74,4.85-12.46,10.05Zm14.5,27c-5.63,6.62-14.86,10.29-23.85,10.29-17.37,0-30.43-11.83-30.43-29.8,0-16,11-29.92,28.28-29.92C271.6,72.64,283,86,283,102a24.78,24.78,0,0,1-.36,4.37H242.36c.84,8,7.43,13.6,15.7,13.6a20.67,20.67,0,0,0,14.62-6.62Z"/><path class="cls-1" d="M180.53,131.16H165V73.8h15.58Zm-7.79-87.52a9.82,9.82,0,1,1-10.19,9.82,9.91,9.91,0,0,1,10.19-9.82"/></svg>