<svg id="Partner" xmlns="http://www.w3.org/2000/svg" viewBox="0 0 400 180"><defs><style>.cls-1{fill:#fff;}</style></defs><title>jz17-partner-nav</title><polygon class="cls-1" points="89.17 117.26 102.86 83.36 116.02 83.36 102.34 117.26 89.17 117.26"/><polygon class="cls-1" points="258.15 117.26 271.67 83.36 278.85 83.36 265.33 117.26 258.15 117.26"/><polygon class="cls-1" points="284.74 117.26 298.26 83.36 302.07 83.36 288.55 117.26 284.74 117.26"/><path class="cls-1" d="M189.61,95.05h-1.93a5,5,0,1,0,0,10h6.9v-5A5,5,0,0,0,189.61,95.05Z"/><path class="cls-1" d="M188.56,21a67,67,0,1,0,67,67A67,67,0,0,0,188.56,21Zm45.2,95.14a1.79,1.79,0,0,1-1.59,1.12H220a1.79,1.79,0,0,1-1.59-1.12L206.91,87.5V105h3.67s1.07,0,.91.85h0c0,.08-4.12,10.28-4.12,10.28a1.79,1.79,0,0,1-1.59,1.12H195.5a.91.91,0,0,1-.91-.91v-9.84l-3.88,9.62a1.8,1.8,0,0,1-1.6,1.12h-1.33c-6.07,0-10.95-2.48-13.91-6.64l-2.23,5.51a1.79,1.79,0,0,1-1.59,1.12H160a.91.91,0,0,1-.91-.91V103.49c0-3.69-.14-4.94-.69-6a2.58,2.58,0,0,0-1.32-1.11c-.91-.43-1.41-.49-3.76-.49h-4.09v20.45a.91.91,0,0,1-.91.91H137.8a.9.9,0,0,1-.91-.91V95.9h-4.07c-1,0-.56-1.07-.56-1.07l4.33-10.73a1.26,1.26,0,0,1,1.12-.73H148.3a.92.92,0,0,1,.91.91V94.41l4.17-10.32a1.26,1.26,0,0,1,1.12-.73h4.58c3.9,0,5.71.42,7.73,1.6a8.74,8.74,0,0,1,2.51,2.3c1.36,1.85,1.77,3.65,1.86,8.69,1.58-7.59,6.66-12.59,14.24-12.59,3.39,0,9.17,2.32,9.17,7.76V84.27a.92.92,0,0,1,.91-.91h22.9a1.25,1.25,0,0,1,1.12.73l6.59,20.18,6.59-20.18a1.24,1.24,0,0,1,1.11-.73h11.91s1.28,0,.84,1.1Z"/></svg>