<svg id="Partner" xmlns="http://www.w3.org/2000/svg" viewBox="0 0 400 180"><defs><style>.cls-1{fill:#fff;}</style></defs><title>jz17-partner-netcompany</title><path class="cls-1" d="M345.08,96.33l-7.91-20.88h-7l11.71,28.48c-.95,2.53-2.21,3.16-4.11,3.16a8.42,8.42,0,0,1-3.8-.95l-2.21,4.75a14.71,14.71,0,0,0,6.64,1.58c4.43,0,7-2.21,9.18-7.91L359,75.44h-6.64Zm-43,7.28h6.64V87.47c0-4.43,2.53-7,6.33-7s6,2.53,6,7v16.14h6.64v-18c0-6.64-3.8-10.76-10.13-10.76-4.43,0-7,2.21-8.86,5.06V75.44H302Zm-20.57-4.11c-3.16,0-5.38-1.58-5.38-4.43h0c0-2.85,2.53-4.75,6.64-4.75a17.21,17.21,0,0,1,6.33,1.27v1.9c0,3.8-3.48,6-7.59,6m-1.9,4.75a11.49,11.49,0,0,0,9.18-4.11v3.48h6.33V86.84c0-3.8-.95-6.64-3.16-8.86-1.9-1.9-5.06-3.16-9.49-3.16A27.06,27.06,0,0,0,271.67,77l1.58,5.06a22.44,22.44,0,0,1,8.23-1.9c4.43,0,7,2.21,7,6.33v.63a25.3,25.3,0,0,0-7.59-1.27c-7,0-11.71,2.85-11.71,9.18h0c.32,6.33,5.06,9.18,10.44,9.18m-28.48-5.7c-4.43,0-8.23-3.8-8.23-9.18h0c0-5.38,3.8-9.18,8.23-9.18s8.23,3.48,8.23,9.18h0c0,5.7-3.48,9.18-8.23,9.18m-14.56,13.61h6.64v-13a12,12,0,0,0,9.81,5.06c6.64,0,13.29-5.38,13.29-14.56h0c0-9.49-6.64-14.56-13.29-14.56-4.75,0-7.59,2.21-9.81,5.38V75.76h-6.64Zm-50-8.54h6.64V87.47c0-4.43,2.53-7,6-7s5.7,2.53,5.7,7v16.14h6.64V87.47c0-4.43,2.53-7,6-7,3.8,0,5.7,2.53,5.7,7v16.14h6.33v-18c0-7-3.8-10.76-9.81-10.76a10.77,10.77,0,0,0-9.49,5.06,9.9,9.9,0,0,0-17.09-.32V75.13h-6.64ZM166,98.54c-5.06,0-8.54-4.11-8.54-9.18h0c0-5.06,3.48-8.86,8.54-8.86s8.54,4.11,8.54,9.18h0c0,5.06-3.16,8.86-8.54,8.86m0,5.7a14.73,14.73,0,0,0,15.19-14.87h0c0-8.23-6.33-14.56-15.19-14.56A14.93,14.93,0,0,0,150.8,89.68h0c0,8.23,6.64,14.56,15.19,14.56m-29.11,0a14.77,14.77,0,0,0,11.71-5.38l-3.8-3.8a9.46,9.46,0,0,1-7.28,3.48c-5.06,0-8.54-4.11-8.54-9.18h0c0-5.06,3.48-8.86,8.23-8.86,3.16,0,5.38,1.58,7.28,3.48l4.11-4.43c-2.53-2.85-6-4.75-11.39-4.75a14.66,14.66,0,0,0-14.87,14.87h0a14.32,14.32,0,0,0,14.56,14.56m-23.41,0a10.12,10.12,0,0,0,5.7-1.58V97.28a8.76,8.76,0,0,1-4.11.95c-2.21,0-3.48-.95-3.48-3.48V80.82h7.59v-5.7h-7.59V67.53h-6.64v7.91h-3.48v5.7h3.48V96c.32,6,3.8,8.23,8.54,8.23M78,87.47c.63-4.43,3.48-7.59,7.28-7.59,4.43,0,6.64,3.16,7.28,7.59Zm8.23,16.77A15.25,15.25,0,0,0,98,98.86l-3.8-3.48c-2.21,2.21-4.43,3.48-7.59,3.48a8,8,0,0,1-8.23-7.28H99.22v-1.9c0-8.23-4.43-15.19-13.61-15.19-8.23,0-13.92,6.64-13.92,14.87h0c0,9.18,6.33,14.87,14.56,14.87M41,103.61h6.64V87.47c0-4.43,2.53-7,6.33-7s6,2.53,6,7v16.14h6.64v-18c0-6.64-3.8-10.76-10.13-10.76-4.43,0-7,2.21-8.86,5.06V75.44H41Z"/></svg>