<?xml version="1.0" encoding="utf-8"?>
<!-- Generator: Adobe Illustrator 21.1.0, SVG Export Plug-In . SVG Version: 6.00 Build 0)  -->
<svg version="1.1" id="Layer_1" xmlns="http://www.w3.org/2000/svg" xmlns:xlink="http://www.w3.org/1999/xlink" x="0px" y="0px"
	 viewBox="0 0 283.5 110.4" style="enable-background:new 0 0 283.5 110.4;" xml:space="preserve">
<style type="text/css">
	.st0{fill:#000;}
</style>
<g>
	<path class="st0" d="M767.8,664.8c-7.3,0-13.4-4.4-15.3-10.5h40.5l5.6-7.8h-46c1.9-6,8-10.5,15.3-10.5h27.8l5.6-7.8h-34
		c-13.6,0-24.6,9.9-24.6,22.2c0,12.3,11,22.2,24.6,22.2h29.2l5.6-7.8H767.8 M652,672.6c-13.6,0-24.6-9.9-24.6-22.2
		c0-12.3,11-22.2,24.6-22.2h34l-5.6,7.8h-27.8c-8.8,0-15.9,6.4-15.9,14.4c0,7.9,7.1,14.4,15.9,14.4h34.1l-5.6,7.8H652z M472.2,664.8
		c8.8,0,15.9-6.4,15.9-14.4c0-7.9-7.1-14.4-15.9-14.4h-27.3c-8.8,0-15.9,6.4-15.9,14.4c0,7.9,7.1,14.4,15.9,14.4H472.2z
		 M444.3,672.6c-13.6,0-24.6-9.9-24.6-22.2c0-12.3,11-22.2,24.6-22.2h28.6c13.6,0,24.6,9.9,24.6,22.2c0,12.3-11,22.2-24.6,22.2
		L444.3,672.6z M543.9,658.2c9.2,0,16.6-6.7,16.6-15c0-8.3-7.5-15-16.6-15h-41.4v44.4h9.5V636h31.3c4.4,0,8,3.2,8,7.2
		c0,4-3.6,7.2-8,7.2l-26.7,0l28.2,22.2h13.8l-19-14.4L543.9,658.2z M700.5,664.8v-36.6h-9.5v40.2c0,1.1,0.5,2.2,1.4,3
		c0.9,0.8,2.2,1.3,3.5,1.3h43.2l5.6-7.8H700.5z M584.6,656.9h25.3l-13.3-19.4l-24.5,35.1l-11.2,0l29.8-42.1c1.3-1.7,3.4-2.7,5.8-2.7
		c2.3,0,4.5,1,5.8,2.7l29.9,42.2l-11.2,0l-5.2-7.8h-25.6L584.6,656.9z"/>
	<path class="st0" d="M810,630c0.8,0,1.2,0,1.6,0.1c1.1,0.3,1.2,1.2,1.2,1.6c0,0.1,0,0.3-0.1,0.5c-0.1,0.2-0.2,0.6-0.8,1
		c-0.1,0-0.1,0.1-0.3,0.1l1.4,2.3h-1.4l-1.3-2.1h-0.8v2.1h-1.2V630H810 M810.5,632.5c0.4,0,0.8,0,1-0.4c0.1-0.1,0.2-0.3,0.2-0.5
		c0-0.3-0.2-0.5-0.5-0.7c-0.3-0.1-0.6-0.1-1.1-0.1h-0.3v1.6H810.5z M806.2,632.9c0-2.2,1.9-3.9,4.3-3.9c2.4,0,4.3,1.8,4.3,3.9
		c0,2.2-1.9,3.9-4.3,3.9C808.1,636.8,806.2,635.1,806.2,632.9z M810.5,637.9c3.1,0,5.5-2.2,5.5-5c0-2.8-2.5-5-5.5-5
		c-3.1,0-5.5,2.2-5.5,5C805,635.7,807.5,637.9,810.5,637.9z"/>
</g>
<g>
	<path class="st0" d="M238.7,64.6c-4.7,0-8.7-2.9-9.9-6.8H255l3.6-5.1h-29.8c1.2-3.9,5.2-6.8,9.9-6.8h18l3.6-5.1h-22
		c-8.8,0-15.9,6.4-15.9,14.4c0,7.9,7.1,14.4,15.9,14.4h18.9l3.6-5.1H238.7 M163.8,69.7c-8.8,0-15.9-6.4-15.9-14.4
		c0-7.9,7.1-14.4,15.9-14.4h22l-3.6,5.1h-18c-5.7,0-10.3,4.2-10.3,9.3c0,5.1,4.6,9.3,10.3,9.3h22.1l-3.6,5.1H163.8z M47.5,64.6
		c5.7,0,10.3-4.2,10.3-9.3c0-5.1-4.6-9.3-10.3-9.3H29.8c-5.7,0-10.3,4.2-10.3,9.3c0,5.1,4.6,9.3,10.3,9.3H47.5z M29.4,69.7
		c-8.8,0-15.9-6.4-15.9-14.4c0-7.9,7.1-14.4,15.9-14.4h18.5c8.8,0,15.9,6.4,15.9,14.4c0,7.9-7.1,14.4-15.9,14.4L29.4,69.7z
		 M93.9,60.4c5.9,0,10.8-4.4,10.8-9.7c0-5.4-4.8-9.7-10.8-9.7H67.1v28.7h6.1V46h20.3c2.9,0,5.2,2.1,5.2,4.7c0,2.6-2.3,4.7-5.2,4.7
		l-17.3,0l18.3,14.4h8.9l-12.3-9.3L93.9,60.4z M195.2,64.6V41h-6.1v26c0,0.7,0.3,1.4,0.9,1.9c0.6,0.5,1.4,0.8,2.2,0.8h27.9l3.6-5.1
		H195.2z M120.2,59.6h16.3L128,47l-15.9,22.7l-7.2,0l19.3-27.3c0.8-1.1,2.2-1.8,3.8-1.8c1.5,0,2.9,0.6,3.7,1.7L151,69.7l-7.2,0
		l-3.4-5.1h-16.6L120.2,59.6z"/>
	<path class="st0" d="M266.1,42.1c0.5,0,0.8,0,1,0.1c0.7,0.2,0.8,0.8,0.8,1c0,0,0,0.2,0,0.3c0,0.1-0.1,0.4-0.5,0.6
		c0,0-0.1,0-0.2,0.1l0.9,1.5h-0.9l-0.8-1.4h-0.5v1.4h-0.8v-3.6H266.1 M266.4,43.8c0.2,0,0.5,0,0.7-0.2c0.1-0.1,0.1-0.2,0.1-0.3
		c0-0.2-0.1-0.4-0.3-0.4c-0.2-0.1-0.4-0.1-0.7-0.1h-0.2v1H266.4z M263.6,44c0-1.4,1.3-2.5,2.8-2.5c1.6,0,2.8,1.1,2.8,2.5
		c0,1.4-1.3,2.5-2.8,2.5C264.9,46.6,263.6,45.4,263.6,44z M266.4,47.3c2,0,3.6-1.4,3.6-3.2c0-1.8-1.6-3.2-3.6-3.2
		c-2,0-3.6,1.4-3.6,3.2C262.8,45.8,264.4,47.3,266.4,47.3z"/>
</g>
</svg>
