<svg id="Partner" xmlns="http://www.w3.org/2000/svg" viewBox="0 0 400 180"><defs><style>.cls-1,.cls-2,.cls-3{fill:#fff;}.cls-2{stroke:#6d6e70;stroke-width:0.73px;}.cls-3{stroke:#fff;stroke-width:0.69px;}</style></defs><title>jz17-partner-politiet</title><path class="cls-1" d="M140.79,65.73h15.12c8.76,0,13.23,1.71,13.23,12.49s-4.61,12.63-13.27,12.63h-6.08v8.8h-9Zm15.12,18c2,0,4.19-.18,4.19-5.39S157.8,73,155.86,73h-6.08V83.7Z"/><path class="cls-1" d="M171.94,82.69c0-14.89,6.59-17.51,16.73-17.51s16.64,2.53,16.64,17.42-6.55,17.61-16.73,17.61S171.94,97.58,171.94,82.69ZM195.86,84V81.35c0-6.41-1.61-8.53-7.28-8.53s-7.19,2-7.19,8.44v2.67c0,6.41,1.66,8.8,7.28,8.8S195.86,90.43,195.86,84Z"/><path class="cls-1" d="M209.49,65.73h9V92.09h15.26v7.56H209.49Z"/><path class="cls-1" d="M237.51,65.73h9.08V99.65h-9.08Z"/><path class="cls-1" d="M261.15,73.52H250.36V65.73H281v7.79H270.18V99.65h-9Z"/><path class="cls-1" d="M284.79,65.73h9.08V99.65h-9.08Z"/><path class="cls-1" d="M299.44,65.73h24.29v7.79H308.47v5.21h12.31v7.79H308.47v5.58h15.26v7.56H299.44Z"/><path class="cls-1" d="M337.14,73.52H326.35V65.73H357v7.79H346.17V99.65h-9Z"/><polygon class="cls-1" points="49.35 66.18 47.65 61.49 50.52 53.54 53.38 61.49 51.72 66.17 51.03 65.92 52.61 61.49 50.52 55.7 48.43 61.49 50.04 65.93 49.35 66.18 49.35 66.18"/><path class="cls-2" d="M46.77,66.06h0"/><path class="cls-1" d="M98,124.65H54V122a2.93,2.93,0,0,0-2.61-2.92H49.3v-6H46.5V82.7A8.34,8.34,0,0,1,39,74.21c0-4.6,3.48-8.41,7.76-8.52h7.4v.73H46.77c-3.88.09-7,3.58-7,7.78S42.9,81.9,46.79,82h.36l.08.36V112.4H50v6h1.38a3.67,3.67,0,0,1,3.3,3.65v1.88H97.29V122a3.55,3.55,0,0,1,3.5-3.63H102v-6h2.8V82l.35,0a7.6,7.6,0,0,0,7.17-7.79c0-4.21-3.17-7.7-7.07-7.78H97.77v-.73h7.5c4.3.09,7.79,3.91,7.79,8.52a8.32,8.32,0,0,1-7.52,8.5v30.42h-2.8v6l-2,0A2.8,2.8,0,0,0,98,122v2.61Z"/><polygon class="cls-1" points="100.34 66.17 98.66 61.48 101.52 53.54 104.39 61.48 102.72 66.17 102.03 65.92 103.61 61.49 101.52 55.69 99.44 61.49 101.03 65.93 100.34 66.17 100.34 66.17"/><path class="cls-1" d="M105.06,82.6,105,82.1l.22-.08a2.82,2.82,0,0,0,0-5.59l0-.49a3.21,3.21,0,0,1,2.86,3.28,3.33,3.33,0,0,1-1.29,2.68,8.07,8.07,0,0,0,.09-15.35,3.33,3.33,0,0,1,1.26,2.66,3.22,3.22,0,0,1-2.87,3.28l0-.49a2.82,2.82,0,0,0,0-5.59h-.2l-.06-.48.27-.1c4.23.09,7.67,3.85,7.67,8.39s-3.43,8.29-7.65,8.39Z"/><path class="cls-1" d="M46.78,82.59c-4.23-.09-7.66-3.86-7.66-8.39s3.44-8.3,7.66-8.39h.27l0,.47-.22.12a2.83,2.83,0,0,0,0,5.59l0,.49a3.21,3.21,0,0,1-2.86-3.28,3.34,3.34,0,0,1,1.26-2.66,8.07,8.07,0,0,0,.07,15.35A3.35,3.35,0,0,1,44,79.21a3.21,3.21,0,0,1,2.86-3.28l0,.49a2.82,2.82,0,0,0,0,5.58l.24,0,0,.51-.24.05Z"/><path class="cls-1" d="M65,114.7H63a.24.24,0,0,1-.24-.24v-2a.24.24,0,0,1,.24-.24h2a.24.24,0,0,1,.24.24v2a.24.24,0,0,1-.24.24Zm-1.79-.49h1.55v-1.55H63.22v1.55Z"/><path class="cls-1" d="M71,120.49H69a.25.25,0,0,1-.24-.24v-2A.24.24,0,0,1,69,118h2a.24.24,0,0,1,.24.24v2a.25.25,0,0,1-.24.24ZM69.2,120h1.55v-1.55H69.2V120Z"/><path class="cls-1" d="M59,108.89H57a.24.24,0,0,1-.24-.24v-2a.24.24,0,0,1,.24-.24h2a.24.24,0,0,1,.24.24v2a.24.24,0,0,1-.24.24Zm-1.79-.48h1.54v-1.55H57.23v1.55Z"/><path class="cls-1" d="M59,120.49H57a.25.25,0,0,1-.24-.24v-2A.24.24,0,0,1,57,118h2a.24.24,0,0,1,.24.24v2a.25.25,0,0,1-.24.24ZM57.24,120h1.55v-1.55H57.24V120Z"/><path class="cls-1" d="M82.94,120.49h-2a.25.25,0,0,1-.24-.24v-2a.24.24,0,0,1,.24-.24h2a.24.24,0,0,1,.24.24v2a.25.25,0,0,1-.24.24ZM81.15,120h1.54v-1.55H81.15V120Z"/><path class="cls-1" d="M88.92,114.7h-2a.24.24,0,0,1-.24-.24v-2a.24.24,0,0,1,.24-.24h2a.24.24,0,0,1,.24.24v2a.24.24,0,0,1-.24.24Zm-1.79-.49h1.55v-1.55H87.13v1.55Z"/><path class="cls-1" d="M94.91,108.89h-2a.24.24,0,0,1-.24-.24v-2a.24.24,0,0,1,.24-.24h2a.24.24,0,0,1,.24.24v2a.24.24,0,0,1-.24.24Zm-1.79-.48h1.55v-1.55H93.12v1.55Z"/><path class="cls-1" d="M94.91,120.49h-2a.25.25,0,0,1-.24-.24v-2a.24.24,0,0,1,.24-.24h2a.24.24,0,0,1,.24.24v2a.25.25,0,0,1-.24.24ZM93.11,120h1.55v-1.55H93.11V120Z"/><path class="cls-1" d="M105.18,112.88H97.86a.24.24,0,0,1-.24-.24V66.05a.24.24,0,0,1,.24-.24h7.32a.24.24,0,0,1,.25.24v46.59a.24.24,0,0,1-.25.24Zm-7.07-.48h6.83V66.3H98.1v46.1Z"/><path class="cls-1" d="M54.19,112.89H46.86a.24.24,0,0,1-.24-.24V66.06a.24.24,0,0,1,.24-.24h7.32a.24.24,0,0,1,.24.24v46.59a.24.24,0,0,1-.24.24Zm-7.08-.49h6.84V66.3H47.11v46.1Z"/><polygon class="cls-1" points="50.77 66.04 50.28 66.04 50.28 54.68 50.77 54.68 50.77 66.04 50.77 66.04"/><polygon class="cls-1" points="52.94 61.73 48.04 61.73 48.04 61.25 52.94 61.25 52.94 61.73 52.94 61.73"/><path class="cls-1" d="M51.42,119H49.66a.24.24,0,0,1-.24-.24v-6.11a.25.25,0,0,1,.24-.25h1.75a.25.25,0,0,1,.24.25v6.11a.24.24,0,0,1-.24.24Zm-1.51-.48h1.27v-5.63H49.91v5.63Z"/><path class="cls-1" d="M97.65,124.53H54.35a.24.24,0,0,1-.24-.24V122a3,3,0,0,0-2.74-3l0-.48A3.53,3.53,0,0,1,54.59,122v2H97.41v-2a3.54,3.54,0,0,1,3.2-3.52l0,.48a3.06,3.06,0,0,0-2.76,3v2.24a.24.24,0,0,1-.24.24Z"/><path class="cls-1" d="M96.45,123.23H55.54a.25.25,0,0,1-.24-.24V122a4.27,4.27,0,0,0-3.92-4.24l0-.49A4.77,4.77,0,0,1,55.79,122v.7H96.21V122a4.77,4.77,0,0,1,4.37-4.73l0,.49A4.28,4.28,0,0,0,96.7,122V123a.25.25,0,0,1-.24.24Z"/><path class="cls-1" d="M54.43,70.23H46.62V67.73h7.81v2.49Zm-7.32-.49h6.83V68.22H47.11v1.52Z"/><polygon class="cls-1" points="51.59 76.61 51.19 76.32 53.94 72.36 53.91 70.74 50.72 75.34 50.32 75.06 54.38 69.2 54.38 72.5 51.59 76.61 51.59 76.61"/><polygon class="cls-1" points="46.66 83.72 46.66 80.43 49.45 76.32 49.85 76.6 47.1 80.57 47.13 82.18 50.32 77.58 50.73 77.86 46.66 83.72 46.66 83.72"/><polygon class="cls-1" points="51.59 89.56 51.19 89.28 53.94 85.32 53.91 83.7 50.72 88.3 50.32 88.03 54.38 82.16 54.38 85.46 51.59 89.56 51.59 89.56"/><polygon class="cls-1" points="46.66 96.69 46.66 93.39 49.45 89.29 49.85 89.56 47.1 93.53 47.13 95.14 50.32 90.55 50.72 90.83 46.66 96.69 46.66 96.69"/><polygon class="cls-1" points="51.6 102.33 51.2 102.05 53.94 98.16 53.91 96.53 50.72 101.07 50.32 100.79 54.38 95.01 54.38 98.3 51.6 102.33 51.6 102.33"/><polygon class="cls-1" points="46.66 109.37 46.66 106.08 49.44 102.05 49.84 102.33 47.1 106.22 47.13 107.84 50.32 103.31 50.72 103.59 46.66 109.37 46.66 109.37"/><path class="cls-1" d="M54.43,110.85H46.62v-2.49h7.81v2.49Zm-7.32-.49h6.83v-1.52H47.11v1.52Z"/><path class="cls-1" d="M54.38,109.37,46.7,98.44l0-3.43,7.68,10.93,0,3.43ZM47.15,96.55V98.3l6.75,9.53v-1.75l-6.75-9.53Z"/><path class="cls-1" d="M54.38,96.68,46.7,85.6l0-3.44,7.68,11.09,0,3.43Zm-7.24-13v1.74l6.75,9.67V93.39l-6.75-9.67Z"/><path class="cls-1" d="M54.38,83.72,46.7,72.64l0-3.44,7.68,11.09,0,3.44Zm-7.24-13V72.5l6.75,9.67V80.43l-6.75-9.67Z"/><path class="cls-1" d="M102.38,119h-1.75a.24.24,0,0,1-.25-.24v-6.12a.24.24,0,0,1,.25-.24h1.75a.24.24,0,0,1,.25.24v6.12a.24.24,0,0,1-.25.24Zm-1.5-.48h1.26v-5.64h-1.26v5.64Z"/><polygon class="cls-1" points="97.66 83.72 97.66 80.42 100.45 76.32 100.85 76.59 98.11 80.56 98.14 82.18 101.32 77.57 101.72 77.85 97.66 83.72 97.66 83.72"/><polygon class="cls-1" points="102.6 76.59 102.2 76.32 104.94 72.36 104.91 70.74 101.72 75.34 101.32 75.06 105.39 69.19 105.39 72.5 102.6 76.59 102.6 76.59"/><polygon class="cls-1" points="102.61 102.33 102.21 102.05 104.94 98.16 104.91 96.53 101.72 101.07 101.32 100.79 105.39 95.01 105.39 98.3 102.61 102.33 102.61 102.33"/><polygon class="cls-1" points="97.66 109.38 97.66 106.1 100.45 102.05 100.85 102.33 98.11 106.23 98.14 107.86 101.32 103.31 101.72 103.59 97.66 109.38 97.66 109.38"/><polygon class="cls-1" points="97.66 96.68 97.66 93.39 100.45 89.28 100.85 89.56 98.11 93.53 98.14 95.14 101.32 90.54 101.72 90.82 97.66 96.68 97.66 96.68"/><polygon class="cls-1" points="102.6 89.56 102.2 89.28 104.94 85.32 104.91 83.7 101.73 88.3 101.33 88.02 105.39 82.16 105.39 85.46 102.6 89.56 102.6 89.56"/><polygon class="cls-1" points="101.77 66.03 101.28 66.03 101.28 54.68 101.77 54.68 101.77 66.03 101.77 66.03"/><polygon class="cls-1" points="104 61.73 99.1 61.73 99.1 61.24 104 61.24 104 61.73 104 61.73"/><path class="cls-1" d="M105.42,70.22H97.61V67.73h7.81v2.49Zm-7.32-.49h6.83V68.21H98.1v1.52Z"/><path class="cls-1" d="M105.39,83.72,97.71,72.64l0-3.44,7.68,11.09,0,3.44Zm-7.24-13V72.5l6.75,9.67V80.42l-6.75-9.67Z"/><path class="cls-1" d="M105.39,96.68,97.71,85.6l0-3.44,7.68,11.09,0,3.43Zm-7.24-13v1.74l6.75,9.67V93.39l-6.75-9.67Z"/><path class="cls-1" d="M105.39,109.38l-7.68-11,0-3.43,7.68,11,0,3.43ZM98.15,96.55v1.75l6.75,9.55V106.1l-6.75-9.55Z"/><path class="cls-1" d="M105.42,110.84H97.61v-2.49h7.81v2.49Zm-7.32-.49h6.83v-1.52H98.1v1.52Z"/><path class="cls-1" d="M65.09,122.16h-2a.24.24,0,0,1-.24-.24v-1.57H61.25a.25.25,0,0,1-.24-.25v-2a.24.24,0,0,1,.24-.24h1.57v-1.57a.24.24,0,0,1,.24-.24h2a.24.24,0,0,1,.24.24v1.57H66.9a.24.24,0,0,1,.24.24v2a.25.25,0,0,1-.24.25H65.34v1.57a.24.24,0,0,1-.24.24Zm-1.79-.49h1.54v-1.57a.24.24,0,0,1,.24-.24h1.57v-1.54H65.09a.25.25,0,0,1-.24-.24V116.5H63.31v1.57a.25.25,0,0,1-.24.24H61.49v1.54h1.57a.24.24,0,0,1,.24.24v1.57Z"/><path class="cls-1" d="M77,122.16H75a.24.24,0,0,1-.24-.24v-1.57H73.19a.25.25,0,0,1-.24-.25v-2a.24.24,0,0,1,.24-.24h1.57v-1.57A.24.24,0,0,1,75,116h2a.24.24,0,0,1,.24.24v1.57h1.57a.24.24,0,0,1,.24.24v2a.25.25,0,0,1-.24.25H77.27v1.57a.24.24,0,0,1-.24.24Zm-1.79-.49h1.54v-1.57a.24.24,0,0,1,.24-.24H78.6v-1.54H77a.25.25,0,0,1-.24-.24V116.5H75.24v1.57a.25.25,0,0,1-.24.24H73.43v1.54H75a.24.24,0,0,1,.24.24v1.57Z"/><path class="cls-1" d="M59.12,104.8h-2a.24.24,0,0,1-.24-.24V103H55.28a.24.24,0,0,1-.24-.24v-2a.24.24,0,0,1,.24-.24h1.57V98.9a.25.25,0,0,1,.24-.25h2a.25.25,0,0,1,.24.25v1.57h1.57a.24.24,0,0,1,.24.24v2a.24.24,0,0,1-.24.24H59.37v1.57a.24.24,0,0,1-.24.24Zm-1.78-.49h1.54v-1.57a.24.24,0,0,1,.24-.24h1.57V101H59.12a.24.24,0,0,1-.24-.24V99.15H57.34v1.57a.24.24,0,0,1-.24.24H55.52v1.55h1.57a.24.24,0,0,1,.24.24v1.57Z"/><path class="cls-1" d="M59.12,116.39h-2a.24.24,0,0,1-.24-.24v-1.57H55.28a.24.24,0,0,1-.24-.24v-2a.25.25,0,0,1,.24-.25h1.57v-1.57a.24.24,0,0,1,.24-.24h2a.24.24,0,0,1,.24.24v1.57h1.57a.25.25,0,0,1,.24.25v2a.24.24,0,0,1-.24.24H59.37v1.57a.24.24,0,0,1-.24.24Zm-1.78-.48h1.54v-1.57a.25.25,0,0,1,.24-.25h1.57v-1.54H59.12a.24.24,0,0,1-.24-.24v-1.57H57.34v1.57a.24.24,0,0,1-.24.24H55.52v1.54h1.57a.25.25,0,0,1,.24.25v1.57Z"/><path class="cls-1" d="M89,122.16h-2a.24.24,0,0,1-.24-.24v-1.57H85.12a.25.25,0,0,1-.24-.25v-2a.24.24,0,0,1,.24-.24h1.57v-1.57a.24.24,0,0,1,.24-.24h2a.24.24,0,0,1,.24.24v1.57h1.57a.24.24,0,0,1,.24.24v2a.25.25,0,0,1-.24.25H89.21v1.57a.24.24,0,0,1-.24.24Zm-1.79-.49h1.54v-1.57a.24.24,0,0,1,.24-.24h1.57v-1.54H89a.25.25,0,0,1-.24-.24V116.5H87.18v1.57a.25.25,0,0,1-.24.24H85.37v1.54h1.57a.24.24,0,0,1,.24.24v1.57Z"/><path class="cls-1" d="M94.94,104.8h-2a.24.24,0,0,1-.24-.24V103H91.1a.24.24,0,0,1-.24-.24v-2a.24.24,0,0,1,.24-.24h1.56V98.9a.25.25,0,0,1,.24-.25h2a.25.25,0,0,1,.24.25v1.57h1.57a.24.24,0,0,1,.24.24v2a.24.24,0,0,1-.24.24H95.18v1.57a.24.24,0,0,1-.24.24Zm-1.79-.49H94.7v-1.57a.24.24,0,0,1,.24-.24h1.57V101H94.94a.24.24,0,0,1-.24-.24V99.15H93.15v1.57a.24.24,0,0,1-.24.24H91.34v1.55H92.9a.24.24,0,0,1,.24.24v1.57Z"/><path class="cls-1" d="M94.94,116.39h-2a.24.24,0,0,1-.24-.24v-1.57H91.1a.24.24,0,0,1-.24-.24v-2a.25.25,0,0,1,.24-.25h1.56v-1.57a.24.24,0,0,1,.24-.24h2a.24.24,0,0,1,.24.24v1.57h1.57a.25.25,0,0,1,.24.25v2a.24.24,0,0,1-.24.24H95.18v1.57a.24.24,0,0,1-.24.24Zm-1.79-.48H94.7v-1.57a.25.25,0,0,1,.24-.25h1.57v-1.54H94.94a.24.24,0,0,1-.24-.24v-1.57H93.15v1.57a.24.24,0,0,1-.24.24H91.34v1.54H92.9a.25.25,0,0,1,.24.25v1.57Z"/><path class="cls-1" d="M75.13,52.48a3.79,3.79,0,0,0,.84.11,6.2,6.2,0,0,0,1-.11l-.23,3.3a1.89,1.89,0,0,0-.73-.16,1.83,1.83,0,0,0-.71.15Z"/><path class="cls-1" d="M59.3,56.41a1.94,1.94,0,0,0-.64-.12,2.77,2.77,0,0,0-.6.07s-.74-2.35-.27-3.47c.35-.83,2.09-1,3.61-1.11,2-.08,4.47,0,4.47,0a1.3,1.3,0,0,0-.23.45c-.06.24-.1.44-.1.44s-2.19-.14-3.17-.07-2.52.22-3,.64a1.63,1.63,0,0,0-.35,1.46C59.15,55.45,59.3,56.41,59.3,56.41Z"/><path class="cls-1" d="M67.86,56a1.88,1.88,0,0,0-.44-.06,2,2,0,0,0-1,.32s-.79-2.93-.25-4.1c.32-.69,1.73-.89,3.7-.83a22.54,22.54,0,0,1,4.88,1v.52a21.61,21.61,0,0,0-4.09-.72c-1.81-.06-2.31.08-2.62.41a2.44,2.44,0,0,0-.32,1.72C67.73,55,67.86,56,67.86,56Z"/><path class="cls-1" d="M92.82,56.4a1.92,1.92,0,0,1,.64-.12,2.06,2.06,0,0,1,.59.09s.75-2.37.28-3.48c-.35-.83-2.09-1-3.61-1.11-2-.08-4.5,0-4.5,0a1.28,1.28,0,0,1,.23.45c.06.24.09.44.09.44s2.23-.14,3.2-.07,2.53.22,3,.64A1.62,1.62,0,0,1,93,54.74C93,55.45,92.82,56.4,92.82,56.4Z"/><path class="cls-1" d="M84.29,56a2,2,0,0,1,.44-.06,1.94,1.94,0,0,1,1,.32s.76-2.89.22-4.07c-.32-.69-1.73-.89-3.7-.83a22.53,22.53,0,0,0-4.87,1v.52a21.87,21.87,0,0,1,4.09-.72c1.81-.06,2.32.08,2.62.41a2.69,2.69,0,0,1,.35,1.76A15.35,15.35,0,0,1,84.29,56Z"/><path class="cls-1" d="M71.61,66h21l2-8.9a3,3,0,0,0-1.12-.31,1.18,1.18,0,0,0-1.14.55c-.38.79.6,1.64.6,1.64l-.5.66A3.12,3.12,0,0,0,91,58.44c-.32-.07-.94.19-.94,1.36,0,1,.23,1.38.83,1.35S92.57,60,92.57,60l.29.62L91.76,62.8a7.46,7.46,0,0,1-2.82.45c-2.59,0-2.82-.49-2.82-.49L85,60.63l.29-.63s1,1.09,1.64,1.16.86-.38.86-1.35-.54-1.45-1-1.36c-.68.14-1.38,1.13-1.38,1.13L85,58.93s1-.81.91-1.52c-.12-1-1.31-1-1.31-1s-1,0-1.3.81.87,1.7.87,1.7l-.5.66s-.71-1-1.44-1.15c-.23,0-.92.1-.91,1.44,0,.91.26,1.31.83,1.28S83.78,60,83.78,60l.29.62L83,62.77s-.25.48-2.62.48h-.05c-2.38,0-2.64-.35-2.64-.35L76.4,60.52l.35-.63s1,1.18,1.6,1.2,1-.38,1.05-1.32c.08-1.16-.6-1.61-1-1.51a4.43,4.43,0,0,0-1.6,1.14l-.37-.6s1.17-1.1.88-1.92S76,56.1,76,56.1s-1,.08-1.27.78.87,1.92.87,1.92l-.37.6s-1-1.08-1.66-1.15c-.44,0-1,.48-1,1.36,0,1.11.45,1.5,1,1.47s1.62-1.22,1.62-1.22l.34.62-1.25,2.37s0,.38-2.72.38c-2.37,0-2.62-.48-2.62-.48l-1.08-2.15.29-.62s1,1.12,1.66,1.15.83-.37.84-1.28c0-1.34-.68-1.48-.92-1.44-.73.13-1.44,1.15-1.44,1.15l-.5-.66s1.13-.89.87-1.7-1.3-.81-1.3-.81-1.19,0-1.31,1c-.09.71.91,1.52.91,1.52l-.49.66s-.71-1-1.38-1.13c-.43-.09-1,.26-1,1.36s.26,1.41.85,1.35S66.67,60,66.67,60l.29.63-1.08,2.13s-.24.45-2.82.49a7.46,7.46,0,0,1-2.82-.45l-1.09-2.17.28-.62s1,1.13,1.67,1.15.83-.37.83-1.35c0-1.17-.62-1.44-.94-1.36a3.11,3.11,0,0,0-1.41,1.15l-.5-.66s1-.84.6-1.64a1.18,1.18,0,0,0-1.14-.55,3,3,0,0,0-1.12.31l2,8.9h21"/><circle class="cls-1" cx="76.06" cy="48.86" r="3.1"/><path class="cls-1" d="M76.06,52.21a3.35,3.35,0,1,1,3.35-3.34,3.35,3.35,0,0,1-3.35,3.34Zm0-6.21a2.86,2.86,0,1,0,2.86,2.86A2.86,2.86,0,0,0,76.06,46Z"/><path class="cls-1" d="M81,111.78l-.6.52H81Z"/><path class="cls-1" d="M71.61,112.31l-.55-.48v.48Z"/><path class="cls-1" d="M86.94,105.59l-.78.93h.78Z"/><path class="cls-1" d="M65.82,106.52l-.73-.87v.87Z"/><path class="cls-1" d="M59,97.28H57a.24.24,0,0,1-.24-.24V95a.24.24,0,0,1,.24-.24h1.5a.24.24,0,0,1,.22.15c.18.4.35.79.54,1.17l0,1a.24.24,0,0,1-.24.24Zm-1.79-.48h1.54v-.61c-.14-.25-.3-.59-.45-.94H57.23V96.8Z"/><path class="cls-1" d="M94.91,97.28h-2a.24.24,0,0,1-.24-.24v-.68c.24-.55.44-1,.64-1.45a.24.24,0,0,1,.22-.14h1.41a.24.24,0,0,1,.24.24v2a.24.24,0,0,1-.24.24Zm-1.8-.48h1.56V95.24h-1q-.27.62-.56,1.22v.33Z"/><path class="cls-1" d="M65.09,110.6h-2a.24.24,0,0,1-.24-.24v-1.57H61.25a.24.24,0,0,1-.24-.24v-2a.24.24,0,0,1,.24-.24h1.57v-1.57a.24.24,0,0,1,.24-.24h1.27a.24.24,0,0,1,.19.09l.75.94a.25.25,0,0,1,.05.16v.63h.49a.24.24,0,0,1,.18.08c.36.42.72.82,1.08,1.21a.26.26,0,0,1,.06.17v.81a.24.24,0,0,1-.24.24H65.34v1.57a.24.24,0,0,1-.24.24Zm-1.79-.48h1.54v-1.57a.24.24,0,0,1,.24-.24h1.57v-.47l-.95-1.07h-.62a.25.25,0,0,1-.24-.24v-.78l-.63-.79h-.91v1.57a.25.25,0,0,1-.24.24H61.49v1.54h1.57a.24.24,0,0,1,.24.24v1.57Z"/><path class="cls-1" d="M71.06,116.39H69a.24.24,0,0,1-.24-.24v-1.57H67.22a.24.24,0,0,1-.24-.24v-2a.25.25,0,0,1,.24-.25h1.57v-1.57a.24.24,0,0,1,.24-.24h.58a.26.26,0,0,1,.17.06c.5.48,1,.92,1.45,1.33a.24.24,0,0,1,.08.18v.23h.3a.24.24,0,0,1,.16.06c.45.39.87.73,1.26,1.06a.25.25,0,0,1,.09.19v1a.24.24,0,0,1-.24.24H71.31v1.57a.24.24,0,0,1-.24.24Zm-1.79-.48h1.54v-1.57a.25.25,0,0,1,.24-.25h1.57v-.61l-1.11-.93h-.45a.24.24,0,0,1-.24-.24v-.37c-.42-.38-.86-.77-1.31-1.2h-.24v1.57a.24.24,0,0,1-.24.24H67.46v1.54H69a.25.25,0,0,1,.24.25v1.57Z"/><path class="cls-1" d="M57.77,93.42h-.68a.24.24,0,0,1-.24-.24V91.6H55.28a.24.24,0,0,1-.24-.24v-2a.24.24,0,0,1,.24-.24h1.44a.25.25,0,0,1,.24.19,36.76,36.76,0,0,0,1,3.82.24.24,0,0,1,0,.22.24.24,0,0,1-.2.1Zm-2.25-2.3H56.9c-.13-.49-.26-1-.38-1.55h-1v1.55Z"/><path class="cls-1" d="M83,116.39H81a.24.24,0,0,1-.24-.24v-1.57H79.16a.24.24,0,0,1-.24-.24v-1a.25.25,0,0,1,.09-.19q.57-.46,1.21-1a.24.24,0,0,1,.16-.06h.36v-.28a.26.26,0,0,1,.08-.19c.45-.4.91-.83,1.39-1.28a.24.24,0,0,1,.17-.06H83a.24.24,0,0,1,.24.24v1.57h1.57a.25.25,0,0,1,.24.25v2a.24.24,0,0,1-.24.24H83.24v1.57a.24.24,0,0,1-.24.24Zm-1.78-.48h1.54v-1.57a.25.25,0,0,1,.24-.25h1.57v-1.54H83a.24.24,0,0,1-.24-.24v-1.57h-.28c-.43.41-.85.79-1.25,1.16v.42a.24.24,0,0,1-.24.24h-.51l-1.06.89v.65H81a.25.25,0,0,1,.24.25v1.57Z"/><path class="cls-1" d="M89,110.6h-2a.24.24,0,0,1-.24-.24v-1.57H85.12a.24.24,0,0,1-.24-.24v-.86a.25.25,0,0,1,.06-.17c.34-.38.68-.76,1-1.16a.24.24,0,0,1,.19-.09h.54v-.69a.24.24,0,0,1,.06-.16l.7-.88a.25.25,0,0,1,.19-.09H89a.24.24,0,0,1,.24.24v1.57h1.57a.24.24,0,0,1,.24.24v2a.24.24,0,0,1-.24.24H89.21v1.57a.24.24,0,0,1-.24.24Zm-1.79-.48h1.54v-1.57a.24.24,0,0,1,.24-.24h1.57v-1.54H89a.25.25,0,0,1-.24-.24v-1.57h-1l-.58.73v.85a.25.25,0,0,1-.24.24h-.67l-.9,1v.53h1.57a.24.24,0,0,1,.24.24v1.57Z"/><path class="cls-1" d="M94.94,93.43H94.2a.25.25,0,0,1-.2-.1.24.24,0,0,1,0-.22,36,36,0,0,0,1-3.82.25.25,0,0,1,.24-.19h1.5a.25.25,0,0,1,.24.25v2a.24.24,0,0,1-.24.24H95.18v1.57a.24.24,0,0,1-.24.24Zm.14-2.3h1.43V89.58H95.45q-.18.81-.38,1.54Z"/><path class="cls-1" d="M76,115.95l-.13-.08c-.12-.07-12-7.69-17.74-21.08-3.64-8.51-4-28.57-4-28.77v-.25H97.82V66c0,.2-.31,20.26-4,28.77-5.73,13.39-17.62,21-17.74,21.08l-.13.08ZM54.65,66.25c0,2.33.53,20.42,3.91,28.34,5.35,12.5,16.12,19.91,17.42,20.78,1.31-.87,12.08-8.28,17.43-20.78,3.38-7.91,3.86-26,3.91-28.34Z"/><path class="cls-1" d="M75.76,72.35l-1.6-.18a2.33,2.33,0,0,1-.81-.25c-.14,0-.26.19-.22.31a4,4,0,0,0,1,.3L76,72.7Z"/><path class="cls-1" d="M57.63,67.65a14.71,14.71,0,0,0,.21,3.68A23.54,23.54,0,0,0,59.27,75a21.18,21.18,0,0,1,1.67-1.7,3.41,3.41,0,0,1,2.46-.92h2v-2h-2a7.65,7.65,0,0,1-3-.74C59.27,68.94,57.63,67.65,57.63,67.65Z"/><path class="cls-1" d="M77.81,70.58h.09l.57.11"/><path class="cls-1" d="M76.9,45.24V42.88h1.79V41.3H76.87V39.35H75.23V41.3H73.41v1.59H75.2v2.35a3.68,3.68,0,0,1,.86-.11A3.75,3.75,0,0,1,76.9,45.24Z"/><path class="cls-1" d="M65.69,54.82a14.24,14.24,0,0,0-3,.93,12.38,12.38,0,0,0-2.57,1.46,1.4,1.4,0,0,1,0,.6A12.79,12.79,0,0,1,63,56.15a15.51,15.51,0,0,1,2.77-.86Z"/><path class="cls-1" d="M68.08,54.51l.05.48s3.42-.37,6.64-.42V54.1C72.86,54.12,69.41,54.35,68.08,54.51Z"/><path class="cls-1" d="M86.4,54.85a12.9,12.9,0,0,1,3,.9,11.49,11.49,0,0,1,2.43,1.35,1.21,1.21,0,0,0-.1.55,11.56,11.56,0,0,0-2.64-1.51,13.75,13.75,0,0,0-2.8-.83Z"/><path class="cls-1" d="M84,54.51,84,55s-3.49-.37-6.71-.41l0-.48C79.19,54.12,82.68,54.35,84,54.51Z"/><path class="cls-1" d="M78.34,71c.08,0,.13-.29.13-.29l-.68-.11s0,.36.1.38A1.79,1.79,0,0,0,78.34,71Zm15,12.46a2.68,2.68,0,0,1-1.46-.07,4.32,4.32,0,0,0-1.05-.24,4.43,4.43,0,0,0-1,.18A10.58,10.58,0,0,1,92,80.79c1.56-1.39,3.67-4.3,3.06-6.92s-2-3.46-3.85-3.44c-2,0-3.08.55-3.71,2.08a14.75,14.75,0,0,0-.27,1.92,10.67,10.67,0,0,1-.82,1.28,13.86,13.86,0,0,0-.9,2.16l.22,0,1.53-1.56.11.89-1.73,2.19a14.47,14.47,0,0,0-1.76,3.32l.41-.09a13.55,13.55,0,0,1,2.94-2.74c.7-.52,1.88-1.31,2.13-2.1a3.63,3.63,0,0,0,.05-1.65,2.7,2.7,0,0,1,.81,1.23,3.21,3.21,0,0,1,.1,1.39,8,8,0,0,0,.54-2.8c-.21-1.47-.58-1.79-1.28-2a7.47,7.47,0,0,0-.8-.06A1.79,1.79,0,0,1,90,71.67a2.71,2.71,0,0,1,3.53,1.14,4.24,4.24,0,0,1-.34,4.66,25.16,25.16,0,0,1-5.28,4.48c-2.07,1.42-3.77,3.29-3.51,5.26.35,2.52,2.42,5.53,3.42,7.05s1.51,3.38.59,4.69a3.23,3.23,0,0,1-4.28.82c-1.09-.79-2.4-3-3.48-5.9a14.47,14.47,0,0,0-2-3.78l.18-8.33.6.28a6.65,6.65,0,0,1,.31-1.47c.31-.83,1.4-2.25,2.05-3.87a12.06,12.06,0,0,0,.65-3.88,4.38,4.38,0,0,0,.7-.77l0-.77-.67-.44h0l1.28-2c-.23-.1-.8.18-.8.18s-.55-.67-.88,0a.43.43,0,0,0,.27.65l-.24.36-1.37-.35-.11-.5s.63.42.8-.22-.54-.53-.54-.53.21-.41-.38-.57-.58.33-.58.33-.6-.39-.73.18.48.57.48.57l-.38.41L78,69.11l-.15-.46s.73,0,.63-.59-.81-.3-.81-.3a.55.55,0,0,0-.63-.31l.2,2.07,4.58,1.07-.52.2-4.17-1-1.42,1,.15,1.1.68.85-.58.94,2.17.21-.24.56a20.47,20.47,0,0,0-2.68.53,23.61,23.61,0,0,0-4,2.73,3.52,3.52,0,0,0-.71,1.09l-3.22-1.66-.17-.66-.73.2-.77-.45a6.53,6.53,0,0,0,1-1.66,2.63,2.63,0,0,0-.18-1.6l-.28-.18,0,1.19-.78.29-.49,1.29-.25-.17v-6.1H63.53V74.8s-.09-.15-.85-.22a2.82,2.82,0,0,0-1.39.24l-.24.3,1.21.15.21.78,1.07.29V77a1.31,1.31,0,0,0-1.1.42,3.27,3.27,0,0,0-.94,1.46l.08.33c.19-.21.53-.79.69-.75a2.17,2.17,0,0,1,.86.32l.41-.35v8.4a1.91,1.91,0,0,0-1-.07,3.66,3.66,0,0,0-.75.24l-.18.35s.81-.2,1.11.06.14.42.27.65.37.23.46.39l0,1.36-.63,1.06-.06.56.83-.68v2.93H64.6V90.94l.47.07,1.36-1.51s.75,0,.93.37,0,.67.18.85l.28.14,7-8.43L72,85.9l.55,1.46,1.36,1.5.45,2.73-3.47,1.64a11.66,11.66,0,0,0-.55,2.16c-.24,1.4-.39,2.47-.39,2.47L70.22,99,66,98.59l-.31-1.12A7,7,0,0,0,66.61,96a2.73,2.73,0,0,0-.08-1.91l-.26-.3-.1,1.26-.71.16-.17,1.31-.41,0a3,3,0,0,0-1.14-1.36,2.47,2.47,0,0,0-1.8-.3l-.16.2,1.24.37-.2.84,1.42.58-.18.31-1.3.23-.15.45-1.22-.06.13.22a2.38,2.38,0,0,0,1.48.5,2.84,2.84,0,0,0,1.49-.39L65,99.41l-.66.66.21.24.61-.06,4.7,1,.89.76,1.54-.69a2.35,2.35,0,0,1,.3-1.17c.19-.27.56-.76.8-1.08,0,0-.73-1.28-.85-1.54a7.76,7.76,0,0,1-.31-2.88c.18-.84,2.77-3,2.77-3l.72-1.5.32.15-.73,1.6a8.94,8.94,0,0,0-2.74,2.93,7.07,7.07,0,0,0,.31,2.6c.14.27.74,1.36.74,1.36a13.67,13.67,0,0,0,1.64,1.84,4.66,4.66,0,0,1,1.63,2.32,21.58,21.58,0,0,1,.41,4.75c0,.61,0,1.14,0,1.14l-1,.23s-.8-1.43-1.18-1.6c-.81-.36-1.5-.63-1.5-.63l-.34.12.89.73-.1,1.09,1.42.89a4.65,4.65,0,0,1-1.19.32c-.85,0-1.51,1.37-1.51,1.37l0,.28.92-.49.79.43,1.21-1,.24.2a4.51,4.51,0,0,0-.07,1.61,4.4,4.4,0,0,0,.66,1.43l.36.06-.33-1.32.76-.66L77,110.61l1.09-.76,1,.78.14-.17a38.27,38.27,0,0,1,.36-6.08,2,2,0,0,0,.54-.89A5.75,5.75,0,0,0,80,102a3.16,3.16,0,0,1-.49-.92,15.1,15.1,0,0,1-.3-4c0-.49,0-1,0-1.38a31.6,31.6,0,0,0,2.31,3.45c1.7,2.07,3.74,2.48,4.93,2.12A4.59,4.59,0,0,0,90,95.69c-1.74-4.31-1.42-5-1.42-5l3-1.27-.06-.2-1.11.05L89,89h-.83l0-.45,4.27-1.9-.07-.24-.82.09-1.72-.38-1.5.32.16-.75ZM82.15,71.34l.37.19,0,.42-.46.41-.12-.46-.33-.36ZM64.64,89.72V88.5s.8-.07.82.41S64.64,89.72,64.64,89.72Zm2.67-1.58-.81-.54,0-1.9-1-1.66-.37,0,.5,1-.5.9.46,1.16-.37.36-.64-.79v-9.5l.85.47-.3.57.5.36.41-.16L70,81.52l-.26,1L71,82.36ZM73,78.09a13.61,13.61,0,0,0-1.46,2.22l-.32-.16a10.69,10.69,0,0,1,1.6-2.37,11.09,11.09,0,0,1,2.54-.42l0,.35A12.08,12.08,0,0,0,73,78.09Zm3.66-7.33.78-.55,2.48.54.1.4a10.13,10.13,0,0,0-1.23-.34c-.12.45-.3.5-.41.55a1.33,1.33,0,0,1-.68,0c-.29-.13-.3-.66-.3-.66a1.52,1.52,0,0,0-.6.32Zm.42,2.08-.2-.61,1.76.2.14.61Z"/><line class="cls-3" x1="128.04" y1="65.64" x2="128.04" y2="124.64"/><path class="cls-1" d="M140.89,110h4.93c3.05,0,4.52,1,4.52,4.22s-1.52,4.24-4.56,4.24h-3.05v4.41h-1.84Zm4.93,6.89c1.54,0,2.68-.25,2.68-2.63s-1.2-2.67-2.72-2.67h-3.05v5.3Z"/><path class="cls-1" d="M151.59,116.44c0-5.51,2.44-6.66,5.65-6.66s5.61,1.11,5.61,6.62-2.44,6.66-5.65,6.66S151.59,121.95,151.59,116.44Zm9.32.44V116c0-3.67-1.41-4.56-3.71-4.56s-3.67.85-3.67,4.52v.9c0,3.69,1.43,4.59,3.71,4.59S160.92,120.57,160.92,116.88Z"/><path class="cls-1" d="M164.7,110h1.84v11.25h6.71v1.62H164.7Z"/><path class="cls-1" d="M175,110h1.85v12.87H175Z"/><path class="cls-1" d="M182.88,111.65h-4.25V110h10.31v1.66h-4.22v11.21h-1.84Z"/><path class="cls-1" d="M190.72,110h1.85v12.87h-1.85Z"/><path class="cls-1" d="M195.21,110h8v1.66H197v3.67h4.77V117H197v4.27h6.14v1.62h-8Z"/><path class="cls-1" d="M208.55,111.65h-4.26V110H214.6v1.66h-4.22v11.21h-1.84Z"/><path class="cls-1" d="M215.38,122.42l.3-1.59a20.6,20.6,0,0,0,3.9.51c2,0,2.81-.32,2.81-2,0-1.48-.49-1.66-2.68-2.14-3.34-.74-4.22-1.29-4.22-3.88s1.59-3.44,4.41-3.44a18.38,18.38,0,0,1,3.86.42l-.3,1.59a23,23,0,0,0-3.6-.35c-1.69,0-2.49.39-2.49,1.76s.53,1.73,2.75,2.23c2.86.62,4.18,1.06,4.18,3.8s-1.66,3.67-4.75,3.67A16.58,16.58,0,0,1,215.38,122.42Z"/><path class="cls-1" d="M231.09,110h1.85v12.87h-1.85Z"/><path class="cls-1" d="M243.15,110h2.14l-4.89,5,5.12,7.87h-2.15l-4.25-6.57L237.43,118v4.85h-1.85V110h1.85v5.83Z"/><path class="cls-1" d="M250.38,111.65h-4.26V110h10.31v1.66h-4.22v11.21h-1.84Z"/><path class="cls-1" d="M256,117.23h4.89v1.59H256Z"/><path class="cls-1" d="M264.74,111.65h-4.26V110h10.31v1.66h-4.22v11.21h-1.84Z"/><path class="cls-1" d="M269.44,122.62l.23-1.62a21.16,21.16,0,0,0,3,.32c2.07,0,2.31-.87,2.31-3.18V110h1.84v8.32c0,3.5-1,4.64-4.15,4.64A16.82,16.82,0,0,1,269.44,122.62Z"/><path class="cls-1" d="M279.19,110h8v1.66H281v3.67h4.77V117H281v4.27h6.14v1.62h-8Z"/><path class="cls-1" d="M289.15,110H291l6.46,9.57V110h1.77v12.87h-1.61L290.92,113v9.83h-1.77Z"/><path class="cls-1" d="M301.7,110h8v1.66h-6.14v3.67h4.77V117h-4.77v4.27h6.14v1.62h-8Z"/><path class="cls-1" d="M311.06,122.42l.3-1.59a20.6,20.6,0,0,0,3.9.51c2,0,2.81-.32,2.81-2,0-1.48-.49-1.66-2.68-2.14-3.34-.74-4.22-1.29-4.22-3.88s1.59-3.44,4.41-3.44a18.37,18.37,0,0,1,3.86.42l-.3,1.59a23,23,0,0,0-3.6-.35c-1.69,0-2.49.39-2.49,1.76s.53,1.73,2.75,2.23c2.86.62,4.18,1.06,4.18,3.8s-1.66,3.67-4.75,3.67A16.58,16.58,0,0,1,311.06,122.42Z"/><path class="cls-1" d="M325.06,111.65h-4.26V110h10.31v1.66H326.9v11.21h-1.84Z"/><path class="cls-1" d="M332.77,110h8v1.66h-6.14v3.67h4.77V117h-4.77v4.27h6.14v1.62h-8Z"/><path class="cls-1" d="M352.67,122.86h-2.14l-3-4.59h-3v4.59h-1.84V110h4.75c3.05,0,4.52.94,4.52,4.13,0,2.44-.9,3.44-2.54,3.81Zm-5.19-6.16c1.64,0,2.68-.26,2.68-2.54s-1.11-2.58-2.72-2.58h-2.88v5.12Z"/></svg>