<svg id="Partner" xmlns="http://www.w3.org/2000/svg" viewBox="0 0 400 180"><defs><style>.cls-1{fill:#000;}</style></defs><title>jz17-partner-schibsted</title><path class="cls-1" d="M64.93,87.09l-7.32-1.8c-3.36-.9-6.24-2.28-6.24-5.28,0-3.84,3.36-5.4,6.84-5.4,4.14,0,7.31,1.32,9.17,4.92l6.54-2.88C71.16,70.23,66,67.9,58.87,67.9c-8.27,0-15.29,4.68-15.29,12.71,0,7.55,4.56,10.13,10.25,11.58L61,93.93c3.3,1,5.88,2.4,5.88,5.58,0,4-4.08,5.64-8.4,5.64-4.79,0-8.69-2.34-10.31-6.48L41,101.48C43.22,108.74,50.42,112,58.27,112,67.69,112,74.7,106.82,74.7,99,74.7,91.35,70,88.29,64.93,87.09Z"/><path class="cls-1" d="M96.76,67.9c-9.36,0-17.09,5.64-17.09,15.77V97.35c0,9.53,8.09,14.75,17.39,14.75,8.16,0,16-4.56,16-14.1V96.69h-7.56v.6c0,5.58-4.56,7.74-8.46,7.74-5,0-9.48-2.94-9.48-8.1V83.25c0-6.12,5.1-8.27,9.18-8.27,3.89,0,8.75,2.16,8.75,7.73v.6h7.56V82C113.07,72.46,104.91,67.9,96.76,67.9Z"/><polygon class="cls-1" points="144.59 86.07 127.5 86.07 127.5 68.62 119.52 68.62 119.52 111.38 127.5 111.38 127.5 93.09 144.59 93.09 144.59 111.38 152.56 111.38 152.56 68.62 144.59 68.62 144.59 86.07"/><rect class="cls-1" x="162" y="68.62" width="7.97" height="42.76"/><path class="cls-1" d="M204.91,88.77v-.06c4.38-2,6.06-5.22,6.06-9.06,0-7.38-4.92-11-13.19-11H179.43v42.76H198.8c7.07,0,13.49-4.25,13.49-12.29C212.29,94.29,209.83,90.09,204.91,88.77ZM187.4,75.39h9.06c4,0,6.71,1.56,6.71,5.28,0,3.48-2.34,5.52-6.35,5.52H187.4Zm10,29.21h-10V92.91h10.07c4.44,0,6.9,1.8,6.9,5.7S201.68,104.6,197.41,104.6Z"/><path class="cls-1" d="M239.25,87.09l-7.32-1.8c-3.36-.9-6.24-2.28-6.24-5.28,0-3.84,3.36-5.4,6.84-5.4,4.14,0,7.32,1.32,9.17,4.92l6.54-2.88c-2.76-6.42-7.91-8.75-15-8.75-8.27,0-15.29,4.68-15.29,12.71,0,7.55,4.56,10.13,10.25,11.58l7.2,1.74c3.3,1,5.88,2.4,5.88,5.58,0,4-4.08,5.64-8.4,5.64-4.79,0-8.69-2.34-10.31-6.48l-7.2,2.82c2.21,7.26,9.42,10.56,17.26,10.56C242,112,249,106.82,249,99,249,91.35,244.35,88.29,239.25,87.09Z"/><polygon class="cls-1" points="251.95 75.45 264.25 75.45 264.25 111.38 272.17 111.38 272.17 75.45 284.46 75.45 284.46 68.62 251.95 68.62 251.95 75.45"/><polygon class="cls-1" points="297.17 93.09 316.42 93.09 316.42 86.07 297.17 86.07 297.17 75.63 318.88 75.63 318.88 68.62 289.2 68.62 289.2 111.38 319.12 111.38 319.12 104.36 297.17 104.36 297.17 93.09"/><path class="cls-1" d="M342.15,68.62H325.48v42.76H342.2c8.45,0,16.8-5.64,16.8-15.77V84.21C359,74.68,351.44,68.62,342.15,68.62Zm8.93,27.47c0,6.12-5.1,8.28-9.17,8.28h-8.46V75.63h8.15c5,0,9.48,2.94,9.48,8.1Z"/></svg>