<?xml version="1.0" encoding="utf-8"?>
<!-- Generator: Adobe Illustrator 22.1.0, SVG Export Plug-In . SVG Version: 6.00 Build 0)  -->
<svg version="1.1" id="Layer_1" xmlns="http://www.w3.org/2000/svg" xmlns:xlink="http://www.w3.org/1999/xlink" x="0px" y="0px"
	 viewBox="0 0 283.5 110.4" style="enable-background:new 0 0 283.5 110.4;" xml:space="preserve">
<style type="text/css">
	.st0{fill:#000000;}
</style>
<g>
	<g>
		<path class="st0" d="M77.2,64.2V30H24.5v52.7h52.7V66.8h-7C67.3,74.2,58.5,79,48.6,79c-10.4,0-15.2-5.9-15.2-13.2
			c0-6.3,4.5-10.6,10.9-10.6c2,0,8.9,0.8,9.8,9h4c-0.5-7.1-6.6-13.5-6.6-20c0-7.7,6-10.6,12.8-10.6c3,0,4.7,0.4,6.5,1v4.9h-3
			c0-2.8-0.7-4-2.5-4c-1.4,0-2.2,1.1-2.2,2.6c0,2.1,1.1,4.1,2.3,6.5l1.7,3.5c2,4.4,4,9.6,4,13.6c0,0.9-0.1,1.8-0.2,2.6H77.2z
			 M47.3,76.1c5.3,0,10.1-3.4,10.8-9.3H46.3c0-4.2-2.4-5.9-5.2-5.9c-2.7,0-4.8,2.1-4.8,5.8C36.4,70.3,39,76.1,47.3,76.1"/>
		<path class="st0" d="M92,50.3l3.8-1.5c0.9,2.2,2.9,3.4,5.4,3.4c2.3,0,4.4-0.9,4.4-3c0-1.7-1.4-2.4-3.1-2.9l-3.8-0.9
			c-3-0.8-5.4-2.1-5.4-6.1c0-4.2,3.7-6.7,8-6.7c3.7,0,6.4,1.2,7.9,4.6l-3.4,1.5c-1-1.9-2.6-2.6-4.8-2.6c-1.8,0-3.6,0.8-3.6,2.8
			c0,1.6,1.5,2.3,3.3,2.8l3.8,1c2.7,0.6,5.1,2.2,5.1,6.2c0,4.1-3.7,6.9-8.6,6.9C96.9,55.8,93.1,54.1,92,50.3"/>
		<path class="st0" d="M112.3,48.1v-7.2c0-5.3,4.1-8.3,9-8.3c4.3,0,8.6,2.4,8.6,7.4v0.7h-4v-0.3c0-2.9-2.6-4.1-4.6-4.1
			c-2.1,0-4.8,1.1-4.8,4.3v7.2c0,2.7,2.3,4.2,5,4.2c2,0,4.4-1.1,4.4-4.1v-0.3l4,0v0.7c0,5-4.1,7.4-8.4,7.4
			C116.5,55.8,112.3,53.1,112.3,48.1"/>
	</g>
	<polygon class="st0" points="133.2,33 137.4,33 137.4,42.2 146.4,42.2 146.4,33 150.5,33 150.5,55.5 146.4,55.5 146.4,45.9 
		137.4,45.9 137.4,55.5 133.2,55.5 	"/>
	<rect x="155.5" y="33" class="st0" width="4.2" height="22.5"/>
	<g>
		<path class="st0" d="M164.7,33h9.6c4.3,0,6.9,1.9,6.9,5.8c0,2-0.9,3.7-3.2,4.8v0c2.6,0.7,3.9,2.9,3.9,5.4c0,4.2-3.4,6.5-7.1,6.5
			h-10.2V33z M173.8,42.2c2.1,0,3.3-1.1,3.3-2.9c0-2-1.4-2.8-3.5-2.8h-4.8v5.7H173.8z M174.1,51.9c2.2,0,3.7-1.1,3.7-3.1
			c0-2-1.3-3-3.6-3h-5.3v6.1H174.1z"/>
		<path class="st0" d="M183.5,50.3l3.8-1.5c0.8,2.2,2.9,3.4,5.4,3.4c2.3,0,4.4-0.9,4.4-3c0-1.7-1.4-2.4-3.1-2.9l-3.8-0.9
			c-3-0.8-5.4-2.1-5.4-6.1c0-4.2,3.7-6.7,8-6.7c3.8,0,6.5,1.2,7.9,4.6l-3.4,1.5c-1-1.9-2.7-2.6-4.8-2.6c-1.8,0-3.6,0.8-3.6,2.8
			c0,1.6,1.5,2.3,3.3,2.8l3.8,1c2.7,0.6,5.1,2.2,5.1,6.2c0,4.1-3.7,6.9-8.6,6.9C188.5,55.8,184.7,54.1,183.5,50.3"/>
	</g>
	<polygon class="st0" points="209.2,36.6 202.7,36.6 202.7,33 219.8,33 219.8,36.6 213.4,36.6 213.4,55.5 209.2,55.5 	"/>
	<polygon class="st0" points="222.3,33 237.9,33 237.9,36.7 226.5,36.7 226.5,42.2 236.6,42.2 236.6,45.9 226.5,45.9 226.5,51.8 
		238,51.8 238,55.5 222.3,55.5 	"/>
	<g>
		<path class="st0" d="M241.4,33h8.8c4.9,0,8.8,3.2,8.8,8.2v6c0,5.3-4.4,8.3-8.8,8.3h-8.8V33z M250,51.8c2.1,0,4.8-1.1,4.8-4.3v-6.5
			c0-2.7-2.3-4.3-5-4.3h-4.3v15.1H250z"/>
	</g>
	<g>
		<path class="st0" d="M93.3,63.4h1.8l5.4,9.8h0l5.3-9.8h1.8v16.1h-1.4V65.9h0l-5.1,9.3h-1.1l-5.1-9.3h-0.1v13.7h-1.4V63.4z"/>
		<path class="st0" d="M116.1,63.4h1.4l5.9,16.2h-1.5l-1.8-5.1h-6.7l-1.9,5.1H110L116.1,63.4z M119.7,73.3l-2.9-8.2h0l-3,8.2H119.7z
			"/>
		<path class="st0" d="M125.9,63.4h5.5c3.1,0,5.2,1.8,5.2,4.7c0,2.3-1.3,4.3-4.2,4.7l4.9,6.8h-1.6l-4.8-6.7h-3.6v6.7h-1.4V63.4z
			 M131,71.7c2.7,0,4.2-1.1,4.2-3.6c0-2.3-1.6-3.5-4.2-3.5h-3.6v7.1H131z"/>
		<path class="st0" d="M139.9,63.4h1.4v8.8l8.3-8.8h1.7l-6,6.4l6.4,9.8H150l-5.7-8.8l-3.1,3.1v5.6h-1.4V63.4z"/>
		<path class="st0" d="M153.9,63.4H164v1.3h-8.6v5.9h7.2v1.2h-7.2v6.5h8.7v1.3h-10.1V63.4z"/>
		<path class="st0" d="M171.3,64.7h-5.5v-1.2h12.3v1.2h-5.4v14.9h-1.4V64.7z"/>
		<path class="st0" d="M180.6,63.4h5.5c3.1,0,5.1,1.9,5.1,4.8c0,2.8-2,4.9-5.4,4.9H182v6.5h-1.4V63.4z M185.4,71.9
			c2.7,0,4.4-1.2,4.4-3.6c0-2.2-1.6-3.6-3.8-3.6H182v7.2H185.4z"/>
		<path class="st0" d="M194.1,63.4h1.4v14.9h8.5v1.3h-9.9V63.4z"/>
		<path class="st0" d="M211.9,63.4h1.4l5.9,16.2h-1.5l-1.8-5.1h-6.7l-1.9,5.1h-1.4L211.9,63.4z M215.4,73.3l-2.9-8.2h0l-3,8.2H215.4
			z"/>
		<path class="st0" d="M221.3,74.5v-5.8c0-3.3,2.5-5.6,6-5.6c3.3,0,5.6,1.9,5.6,4.7v0.9h-1.4V68c0-2.2-1.7-3.6-4.3-3.6
			c-2.6,0-4.5,1.7-4.5,4.4v5.5c0,2.6,1.9,4.3,4.6,4.3c2.6,0,4.2-1.4,4.2-3.6v-0.4h1.4v0.6c0,2.9-2.3,4.7-5.6,4.7
			C224,79.9,221.3,78,221.3,74.5z"/>
		<path class="st0" d="M236,63.4h10.1v1.3h-8.6v5.9h7.2v1.2h-7.2v6.5h8.7v1.3H236V63.4z"/>
		<path class="st0" d="M247.6,76.1l1.3-0.5c0.7,1.9,2.3,3,4.7,3c2.3,0,4.1-1.2,4.1-3.2c0-1.9-1.1-2.6-2.6-3.1l-3.2-0.9
			c-2.3-0.7-3.5-1.9-3.5-4.1c0-2.5,2.2-4.2,5-4.2c2.4,0,4.4,0.9,5.3,2.9l-1.2,0.5c-0.7-1.4-2.1-2.2-4-2.2c-1.8,0-3.6,0.9-3.6,2.8
			c0,1.3,0.7,2.3,2.8,3l3.2,0.9c1.9,0.5,3.2,1.7,3.2,4.2c0,2.7-2.2,4.6-5.5,4.6C250.5,79.9,248.3,78.5,247.6,76.1z"/>
	</g>
</g>
</svg>
