<svg id="Partner" xmlns="http://www.w3.org/2000/svg" viewBox="0 0 400 180"><defs><style>.cls-1{fill:#000;}</style></defs><title>jz17-partner-skatteetaten</title><g id="_Group_" data-name="&lt;Group&gt;"><path class="cls-1" d="M259,137.84H141v-118H259Zm-115.63-2.41H256.61V22.2H143.39Z"/></g><path class="cls-1" d="M148.25,160a9.09,9.09,0,0,1-2.48-.31,5.78,5.78,0,0,1-1.89-.9,4,4,0,0,1-1.22-1.46,4.74,4.74,0,0,1-.47-2h3.16a2.19,2.19,0,0,0,.86,1.63,3.5,3.5,0,0,0,2,.51,4.14,4.14,0,0,0,.88-.09,2.53,2.53,0,0,0,.75-.29,1.5,1.5,0,0,0,.52-.5,1.33,1.33,0,0,0,.19-.73,1.22,1.22,0,0,0-.21-.74,1.63,1.63,0,0,0-.62-.5,5.33,5.33,0,0,0-1-.36l-1.32-.32q-1-.22-1.87-.5a5.84,5.84,0,0,1-1.54-.73,3.28,3.28,0,0,1-1-1.14,3.65,3.65,0,0,1-.38-1.75A3.91,3.91,0,0,1,143,148a3.56,3.56,0,0,1,1.12-1.28,5.08,5.08,0,0,1,1.69-.75,8.6,8.6,0,0,1,2.11-.25A8,8,0,0,1,150,146a4.91,4.91,0,0,1,1.65.77,4,4,0,0,1,1.12,1.28,4.25,4.25,0,0,1,.5,1.77h-3.07a1.83,1.83,0,0,0-.74-1.25,2.73,2.73,0,0,0-1.64-.44,2.8,2.8,0,0,0-1.56.38,1.18,1.18,0,0,0-.59,1,1,1,0,0,0,.22.66,1.86,1.86,0,0,0,.64.45,5.84,5.84,0,0,0,1,.34l1.42.33a17.27,17.27,0,0,1,1.77.49,5.51,5.51,0,0,1,1.51.76,3.67,3.67,0,0,1,1,1.2,3.71,3.71,0,0,1,.39,1.8,3.91,3.91,0,0,1-1.59,3.26,5.38,5.38,0,0,1-1.75.86,7.69,7.69,0,0,1-2.18.29"/><path class="cls-1" d="M159.18,155.41l-1,1v3.25h-2.85V146h2.85v4.26c0,.73,0,1.35,0,1.87s0,1-.06,1.27l3.22-3.51h3.35l-3.49,3.62,3.9,6.16h-3.35Z"/><path class="cls-1" d="M169.67,158a2.21,2.21,0,0,0,1.55-.53,1.75,1.75,0,0,0,.58-1.34v-1.27a2.77,2.77,0,0,1-.76.32l-.93.23a4.47,4.47,0,0,0-1.41.5,1,1,0,0,0-.46.94,1,1,0,0,0,.42.9,1.9,1.9,0,0,0,1,.26m2.43,1.63a1.82,1.82,0,0,1-.2-.47,3.62,3.62,0,0,1-.13-.73h0a3.59,3.59,0,0,1-1.15,1.07,3.66,3.66,0,0,1-1.81.38,4.41,4.41,0,0,1-1.33-.19,3.2,3.2,0,0,1-1.07-.56,2.5,2.5,0,0,1-.7-.93,3.14,3.14,0,0,1-.25-1.28,2.69,2.69,0,0,1,.3-1.34,2.45,2.45,0,0,1,.82-.87,4,4,0,0,1,1.21-.5,11.85,11.85,0,0,1,1.51-.27,7.7,7.7,0,0,0,1.88-.44.85.85,0,0,0,.58-.81,1.1,1.1,0,0,0-.35-.85,1.59,1.59,0,0,0-1.1-.32,1.88,1.88,0,0,0-1.24.35,1.33,1.33,0,0,0-.47.94H165.9a3,3,0,0,1,1.1-2.25,4,4,0,0,1,1.34-.72,6.11,6.11,0,0,1,1.89-.26,8.16,8.16,0,0,1,1.62.14,3.69,3.69,0,0,1,1.19.45,2.71,2.71,0,0,1,1.13,1.18,4,4,0,0,1,.36,1.74v5q0,1.12.37,1.36v.16Z"/><path class="cls-1" d="M175.83,149.89h1.47v-3.12h2.83v3.12H182v1.84h-1.91v4.85a.84.84,0,0,0,.28.75,1.42,1.42,0,0,0,.8.19h.33l.33,0H182v2.15l-.66.09a8,8,0,0,1-1,.06,5.84,5.84,0,0,1-1.24-.12,2.42,2.42,0,0,1-1-.42,2,2,0,0,1-.62-.79,3,3,0,0,1-.22-1.24v-5.47h-1.47Z"/><path class="cls-1" d="M182.88,149.89h1.47v-3.12h2.83v3.12h1.91v1.84h-1.91v4.85a.84.84,0,0,0,.28.75,1.42,1.42,0,0,0,.8.19h.33l.33,0h.15v2.15l-.66.09a8,8,0,0,1-1,.06,5.84,5.84,0,0,1-1.24-.12,2.42,2.42,0,0,1-1-.42,2,2,0,0,1-.62-.79,3,3,0,0,1-.22-1.24v-5.47h-1.47Z"/><path class="cls-1" d="M195.16,151.66a1.9,1.9,0,0,0-1.51.59,3,3,0,0,0-.66,1.6h4.17a2.56,2.56,0,0,0-.61-1.61,1.81,1.81,0,0,0-1.4-.58m.15,8.31a5.6,5.6,0,0,1-2.15-.39,4.73,4.73,0,0,1-1.63-1.1,4.83,4.83,0,0,1-1-1.63,5.69,5.69,0,0,1-.36-2,5.6,5.6,0,0,1,.37-2,5,5,0,0,1,1-1.64,4.7,4.7,0,0,1,1.58-1.09,5.52,5.52,0,0,1,3.92-.07,4.38,4.38,0,0,1,2.69,2.92,8.23,8.23,0,0,1,.37,2.64H193a3,3,0,0,0,.74,1.73,2.13,2.13,0,0,0,1.63.62,2.23,2.23,0,0,0,1.11-.25,1.71,1.71,0,0,0,.67-.71h2.79a4,4,0,0,1-.58,1.2,4.1,4.1,0,0,1-1,1,4.5,4.5,0,0,1-1.35.64,5.93,5.93,0,0,1-1.71.23"/><path class="cls-1" d="M206.11,151.66a1.9,1.9,0,0,0-1.51.59,3,3,0,0,0-.66,1.6h4.17a2.56,2.56,0,0,0-.61-1.61,1.81,1.81,0,0,0-1.4-.58m.15,8.31a5.6,5.6,0,0,1-2.15-.39,4.73,4.73,0,0,1-1.63-1.1,4.83,4.83,0,0,1-1-1.63,5.69,5.69,0,0,1-.36-2,5.6,5.6,0,0,1,.37-2,5,5,0,0,1,1-1.64,4.7,4.7,0,0,1,1.58-1.09,5.51,5.51,0,0,1,3.92-.07,4.38,4.38,0,0,1,2.69,2.92,8.23,8.23,0,0,1,.37,2.64h-7.13a3,3,0,0,0,.74,1.73,2.13,2.13,0,0,0,1.63.62,2.23,2.23,0,0,0,1.11-.25,1.71,1.71,0,0,0,.67-.71h2.79a4,4,0,0,1-.58,1.2,4.1,4.1,0,0,1-1,1,4.5,4.5,0,0,1-1.35.64,5.93,5.93,0,0,1-1.71.23"/><path class="cls-1" d="M211.75,149.89h1.47v-3.12h2.83v3.12H218v1.84h-1.91v4.85a.84.84,0,0,0,.28.75,1.42,1.42,0,0,0,.8.19h.33l.33,0h.15v2.15l-.66.09a8,8,0,0,1-1,.06,5.84,5.84,0,0,1-1.24-.12,2.42,2.42,0,0,1-1-.42,2,2,0,0,1-.62-.79,3,3,0,0,1-.22-1.24v-5.47h-1.47Z"/><path class="cls-1" d="M223.49,158a2.21,2.21,0,0,0,1.55-.53,1.75,1.75,0,0,0,.58-1.34v-1.27a2.77,2.77,0,0,1-.76.32l-.93.23a4.47,4.47,0,0,0-1.41.5,1,1,0,0,0-.46.94,1,1,0,0,0,.42.9,1.9,1.9,0,0,0,1,.26m2.43,1.63a1.74,1.74,0,0,1-.2-.47,3.45,3.45,0,0,1-.13-.73h0a3.59,3.59,0,0,1-1.15,1.07,3.66,3.66,0,0,1-1.81.38,4.41,4.41,0,0,1-1.33-.19,3.2,3.2,0,0,1-1.07-.56,2.5,2.5,0,0,1-.7-.93,3.14,3.14,0,0,1-.25-1.28,2.69,2.69,0,0,1,.3-1.34,2.45,2.45,0,0,1,.82-.87,4,4,0,0,1,1.21-.5,11.85,11.85,0,0,1,1.51-.27,7.7,7.7,0,0,0,1.88-.44.85.85,0,0,0,.58-.81,1.1,1.1,0,0,0-.35-.85,1.59,1.59,0,0,0-1.1-.32,1.88,1.88,0,0,0-1.24.35,1.33,1.33,0,0,0-.47.94h-2.66a3,3,0,0,1,1.1-2.25,4,4,0,0,1,1.34-.72,6.11,6.11,0,0,1,1.89-.26,8.16,8.16,0,0,1,1.62.14,3.69,3.69,0,0,1,1.19.45,2.71,2.71,0,0,1,1.13,1.18,4,4,0,0,1,.36,1.74v5c0,.75.12,1.2.37,1.36v.16Z"/><path class="cls-1" d="M229.65,149.89h1.47v-3.12h2.83v3.12h1.91v1.84h-1.91v4.85a.84.84,0,0,0,.29.75,1.42,1.42,0,0,0,.8.19h.33l.33,0h.15v2.15l-.66.09a8,8,0,0,1-1,.06,5.88,5.88,0,0,1-1.24-.12,2.41,2.41,0,0,1-1-.42,2,2,0,0,1-.62-.79,3,3,0,0,1-.22-1.24v-5.47h-1.47Z"/><path class="cls-1" d="M241.92,151.66a1.9,1.9,0,0,0-1.51.59,3,3,0,0,0-.66,1.6h4.17a2.56,2.56,0,0,0-.61-1.61,1.81,1.81,0,0,0-1.4-.58m.15,8.31a5.59,5.59,0,0,1-2.15-.39,4.71,4.71,0,0,1-1.63-1.1,4.79,4.79,0,0,1-1-1.63,5.69,5.69,0,0,1-.36-2,5.6,5.6,0,0,1,.37-2,5,5,0,0,1,1-1.64,4.7,4.7,0,0,1,1.58-1.09,5.51,5.51,0,0,1,3.92-.07,4.38,4.38,0,0,1,2.69,2.92,8.23,8.23,0,0,1,.37,2.64h-7.13a3,3,0,0,0,.74,1.73,2.13,2.13,0,0,0,1.63.62,2.23,2.23,0,0,0,1.11-.25,1.71,1.71,0,0,0,.67-.71h2.79a4,4,0,0,1-.58,1.2,4.1,4.1,0,0,1-1,1,4.5,4.5,0,0,1-1.35.64,5.93,5.93,0,0,1-1.71.23"/><path class="cls-1" d="M251.11,151.38h.06a3.16,3.16,0,0,1,1.22-1.32,3.52,3.52,0,0,1,1.79-.44,3.22,3.22,0,0,1,2.51,1,3.79,3.79,0,0,1,.89,2.64v6.43h-2.86v-5.88a1.92,1.92,0,0,0-.41-1.29,1.51,1.51,0,0,0-1.22-.49,1.71,1.71,0,0,0-1.36.61,2.3,2.3,0,0,0-.51,1.54v5.51h-2.88v-9.78h2.79Z"/><path class="cls-1" d="M200.08,101.14c-19.86,0-36-8.78-36-19.61S180.19,61.94,200,61.92V52.25a61.45,61.45,0,0,1,17.07,2.32l-17,17.11v9.84l17-17.28c11.29,3.31,19,9.81,19,17.28,0,10.83-16.11,19.61-36,19.61"/></svg>