<svg id="Partner" xmlns="http://www.w3.org/2000/svg" viewBox="0 0 400 180"><defs><style>.cls-1{fill:#000;}</style></defs><title>jz17-partner-soprasteria</title><path class="cls-1" d="M213.92,102.71c-.26.17-.58.37-.87.54l-.09.05h.09c5.68,1.56,11.3,1.5,12.38-2,1.4-4.57-7.63-9.48-11.9-11.82-.91-.5-1.31-.19-.73.48,2.69,3.1,6.52,9.2,1.12,12.78"/><path class="cls-1" d="M262.86,82.66h-4.78v-4h4.78V72.71h4.64v5.94h7.63v4H267.5V94.72c0,3,.84,4.6,4.7,4.6a14.94,14.94,0,0,0,3.14-.42v4.17a30.54,30.54,0,0,1-4.61.35c-7.31,0-7.87-5.26-7.87-8.15Z"/><rect class="cls-1" x="324.46" y="78.63" width="4.75" height="24.84"/><path class="cls-1" d="M337.6,90.87c0,6.77,5.58,8.45,8.22,8.45,5,0,8.6-2.85,8.6-8.55s-4-8.31-8.65-8.31c-2.61,0-8.17,1.53-8.17,8.41m-4.83,0c0-9.34,7.55-12.52,12.8-12.52,6,0,8.85,3.42,8.85,3.42l.25-3.09H359v24.89h-4.34l-.24-3.29s-3,3.29-8.9,3.29-12.75-3.46-12.75-12.71"/><path class="cls-1" d="M329.94,72.89A3.11,3.11,0,1,0,326.83,76a3.11,3.11,0,0,0,3.11-3.11"/><path class="cls-1" d="M321,82.9V78.69c-4.69-.43-8,.7-10.55,3.38l-.25-3.43h-4.5V103.5h4.75V90.62c0-3.59,2.9-8.15,10.55-7.72"/><path class="cls-1" d="M276.27,90.91c0-7.77,5.74-12.76,13.42-12.76s12.86,5.57,12.86,12.33c0,0,0,1.06-.1,2l-21.23.09c.2,3.84,4.63,6.73,9.21,6.73a11.48,11.48,0,0,0,7.84-3l3.4,3a15.24,15.24,0,0,1-11.24,4.32c-8.37,0-14.15-4.89-14.15-12.47Zm21.06-2.13c0-3.38-3.4-6.19-7.58-6.19-4.47,0-8.17,2.76-8.47,6.19Z"/><path class="cls-1" d="M247.91,88.67c-4.78-.85-9.48-1.45-9.48-3.68,0-1.45,1.44-2.73,5.63-2.73,3.11,0,6.7.72,7.67,2.92l4.41-1.85c-1.69-3.39-6.67-5-12.41-5-5,0-10.39,1.9-10.39,7,0,4.39,4,5.76,10.59,7,4.41.83,8.47,1.25,8.47,3.62,0,1.5-2,3.42-7,3.42-3.55,0-7.14-.74-8.23-3.27l-4.27,1.79c1.75,3.91,6.4,5.93,11.79,5.93,10.76,0,12.84-5.12,12.84-8,0-4.84-4.81-6.23-9.62-7.08"/><path class="cls-1" d="M111.05,82.46c-4.61,0-8.65,2.61-8.65,8.31s3.56,8.55,8.6,8.55c2.64,0,8.22-1.07,8.22-8.45s-5.56-8.41-8.17-8.41m.25,21.07a11.59,11.59,0,0,1-8.9-3.78v10.47H97.82V78.63h4.34l.25,3.09s2.89-3.42,8.85-3.42c5.25,0,12.8,2.67,12.8,12.52s-6.8,12.71-12.75,12.71"/><path class="cls-1" d="M146.74,90.87c0,6.77,5.57,8.45,8.22,8.45,5,0,8.6-2.85,8.6-8.55s-4-8.31-8.65-8.31c-2.61,0-8.17,1.53-8.17,8.41m-4.83,0c0-9.34,7.55-12.52,12.8-12.52,6,0,8.85,3.42,8.85,3.42l.25-3.09h4.34v24.89h-4.33l-.26-3.29s-3,3.29-8.9,3.29-12.75-3.46-12.75-12.71"/><path class="cls-1" d="M142.26,82.9V78.69c-4.69-.43-8,.7-10.55,3.38l-.25-3.43H127V103.5h4.75V90.62c0-3.59,2.9-8.15,10.55-7.72"/><path class="cls-1" d="M56,88.67c-4.78-.85-9.48-1.45-9.48-3.68,0-1.45,1.44-2.73,5.63-2.73,3.11,0,6.7.72,7.67,2.92l4.41-1.85c-1.69-3.39-6.68-5-12.41-5-5,0-10.39,1.9-10.39,7,0,4.39,4,5.76,10.6,7,4.4.83,8.47,1.25,8.47,3.62,0,1.5-2,3.42-7,3.42-3.55,0-7.14-.74-8.23-3.27L41,97.86c1.75,3.91,6.4,5.93,11.79,5.93,10.76,0,12.84-5.12,12.84-8,0-4.84-4.81-6.23-9.62-7.08"/><path class="cls-1" d="M81.4,78.3c-6.35,0-13.87,3.17-13.87,12.52s6.77,12.85,13.87,12.85,13.87-3.59,13.87-12.85S87.76,78.3,81.4,78.3m0,21c-3.9,0-9-1.69-9-8.45s5.7-8.27,9-8.27,9,1.4,9,8.27-5.14,8.45-9,8.45"/><path class="cls-1" d="M213,103.3s-7.15,4.49-19.76,4.49c-4.89,0-9-.75-10.74-2.46a11.08,11.08,0,0,1-2.83-7.63c0-2.39,1-4.4,3.06-4.4,5.32,0,21.89,8.43,30.26,10"/><path class="cls-1" d="M189.15,77.25c.26-.17.58-.37.87-.54l.09-.05H190c-5.68-1.56-11.3-1.5-12.38,2-1.4,4.57,7.63,9.48,11.9,11.82.91.5,1.31.19.73-.48-2.69-3.1-6.52-9.2-1.12-12.78"/><path class="cls-1" d="M190.1,76.66s7.15-4.49,19.76-4.49c4.89,0,9,.75,10.74,2.46a11.08,11.08,0,0,1,2.83,7.63c0,2.39-1,4.4-3.06,4.4-5.32,0-21.89-8.43-30.26-10"/></svg>