<?xml version="1.0" encoding="utf-8"?>
<!-- Generator: Adobe Illustrator 21.1.0, SVG Export Plug-In . SVG Version: 6.00 Build 0)  -->
<svg version="1.1" id="Layer_1" xmlns="http://www.w3.org/2000/svg" xmlns:xlink="http://www.w3.org/1999/xlink" x="0px" y="0px"
	 viewBox="0 0 283.5 110.4" style="enable-background:new 0 0 283.5 110.4;" xml:space="preserve">
<style type="text/css">
	.st0{fill:#000;}
</style>
<g>
	<path class="st0" d="M19.4,58.4h2.7v0.8c0,2.1,1.1,3,4,3h6.1c4.3,0,5.7-0.2,5.7-2.7v-0.1c0-1.6-0.5-2.5-3.9-2.5h-8.8
		c-4,0-5.6-1.3-5.6-4.5v-1c0-2.8,1.6-4.3,8.7-4.3h4.4c6.5,0,7.4,1.9,7.4,4.3v0.9h-2.7V52c0-2.6-1.7-2.7-4.9-2.7h-5
		c-4.1,0-5,0.4-5,2.3v0.6c0,1.4,0.5,2.2,3.5,2.2h7.6c4.3,0,7.2,0.4,7.2,5v0.1c0,4.8-4.4,4.9-7.9,4.9h-5.3c-4.3,0-8.2,0-8.2-5.2V58.4
		z"/>
	<path class="st0" d="M44.7,47.3h2.7V50h0.1c0.8-2.1,3.2-3,5.7-3h5.4c4.1,0,7.9,1.3,7.9,7.2v3c0,5.5-2.5,7.4-8.3,7.4h-5.5
		c-3,0-4.4-0.8-5-2.5h-0.1v8.2h-2.9L44.7,47.3L44.7,47.3z M63.6,54.2c0-3.3-1.1-4.9-5.1-4.9h-5.7c-3.8,0-5.2,2-5.2,4.9v3.2
		c0,4.1,2.5,4.7,5.6,4.7h5.1c3.4,0,5.3-0.7,5.3-4.7L63.6,54.2L63.6,54.2z"/>
	<path class="st0" d="M102.9,47.3h2.7v2.5h0.1c1.1-2.2,3.2-2.7,5.2-2.7h2.7c5.4,0,7.1,1.7,7.1,5.9v2H118v-0.7c0-4.2-0.9-4.9-6-4.9
		h-1.7c-3,0-4.5,1.9-4.5,4.1v10.8h-2.9V47.3z"/>
	<path class="st0" d="M126.5,49.6h-3.8v-2.3h3.8v-4h2.9v4h11.4v2.3h-11.4v8.5c0,3.2,1.1,4.1,4.3,4.1h0.9c3.8,0,4.4-0.8,4.4-4.4v-1.3
		h2.3v1.9c0,3.4-0.3,6.1-6.6,6.1h-1.6c-5.4,0-6.6-2.6-6.6-5.4V49.6z"/>
	<path class="st0" d="M144.9,47.3h6v3.2h0.1c0.7-2.7,3.4-3.5,6.2-3.5c4.7,0,6.5,2,6.5,6.7c0,0.4,0,0.9-0.1,1.5h-5.6
		c0-2.2-0.5-3.2-3.1-3.2c-2.2,0-3.8,0.8-3.8,2.9v9.4h-6.4L144.9,47.3L144.9,47.3z"/>
	<path class="st0" d="M166.1,58.3c0-4.7,3.2-4.9,9.4-4.9c3.5,0,5.4,0.1,6.7,1.4v-1.5c0-1.7-0.5-2.3-3-2.3h-3.8
		c-1.9,0-2.4,0.2-2.5,1.4h-6.2c0-4.6,2.3-5.4,7.7-5.4h7.4c4.4,0,6.7,2.1,6.7,6.1v11.2h-6.1v-1.9c-1.8,1.8-2.5,2.2-5.6,2.2h-4.4
		c-3.9,0-6.4-0.8-6.4-4.8L166.1,58.3L166.1,58.3z M177.5,60.6c4.4,0,4.8-0.7,4.8-1.8c0-1.3-0.4-1.7-3.9-1.7h-2.8
		c-2.7,0-3.3,0.6-3.3,2c0,1.1,0.9,1.6,3.4,1.6L177.5,60.6L177.5,60.6z"/>
	<path class="st0" d="M191.8,54.3c0-4.3,1-7.2,9.1-7.2h1.9c2.6,0,5.3,0.7,5.7,3.4h0.1V40.1h6.4v24.2h-6v-3.1H209
		c-0.7,2.1-2.3,3.4-6.2,3.4H201c-8.1,0-9.1-2.9-9.1-7.2L191.8,54.3L191.8,54.3z M198.1,56.8c0,1.9,0.3,3,3.4,3h3.8
		c2.5,0,3.9-0.6,3.9-3.1v-1.7c0-2.6-1.3-3.1-3.9-3.1h-3.8c-3.1,0-3.4,1.1-3.4,3L198.1,56.8L198.1,56.8z"/>
	<path class="st0" d="M218.7,58.3c0-4.7,3.2-4.9,9.4-4.9c3.5,0,5.4,0.1,6.7,1.4v-1.5c0-1.7-0.5-2.3-3-2.3H228
		c-1.9,0-2.4,0.2-2.5,1.4h-6.2c0-4.6,2.3-5.4,7.7-5.4h7.4c4.4,0,6.7,2.1,6.7,6.1v11.2H235v-1.9c-1.8,1.8-2.5,2.2-5.6,2.2h-4.4
		c-3.9,0-6.4-0.8-6.4-4.8L218.7,58.3L218.7,58.3z M230.1,60.6c4.4,0,4.8-0.7,4.8-1.8c0-1.3-0.4-1.7-3.9-1.7h-2.8
		c-2.7,0-3.3,0.6-3.3,2c0,1.1,0.9,1.6,3.4,1.6L230.1,60.6L230.1,60.6z"/>
	<path class="st0" d="M245.3,47.3h6v3.2h0.1c0.7-2.7,3.4-3.5,6.2-3.5c4.7,0,6.5,2,6.5,6.7c0,0.4,0,0.9-0.1,1.5h-5.6
		c0-2.2-0.5-3.2-3.1-3.2c-2.2,0-3.8,0.8-3.8,2.9v9.4h-6.4V47.3z"/>
	<path class="st0" d="M87.4,49.3h-5.8c-3.4,0-5.7,0.8-5.7,4.7v3.4c0,4,2.3,4.7,5.7,4.7h5.8c3.4,0,5.7-0.8,5.7-4.7V54
		C93.1,50.1,90.8,49.3,87.4,49.3"/>
	<path class="st0" d="M87.1,44.5h-5.3c-7,0-12,1.7-12,8.8v4.8c0,7.2,5.1,8.8,12,8.8h5.3c7,0,12-1.7,12-8.8v-4.8
		C99.2,46.2,94.1,44.5,87.1,44.5 M95.9,57.6c0,5.6-4,6.9-9.4,6.9h-4.1c-5.4,0-9.4-1.3-9.4-6.9v-3.8c0-5.6,4-6.9,9.4-6.9h4.1
		c5.4,0,9.4,1.3,9.4,6.9V57.6z"/>
	<path class="st0" d="M19.4,58.4h2.7v0.8c0,2.1,1.1,3,4,3h6.1c4.3,0,5.7-0.2,5.7-2.7v-0.1c0-1.6-0.5-2.5-3.9-2.5h-8.8
		c-4,0-5.6-1.3-5.6-4.5v-1c0-2.8,1.6-4.3,8.7-4.3h4.4c6.5,0,7.4,1.9,7.4,4.3v0.9h-2.7V52c0-2.6-1.7-2.7-4.9-2.7h-5
		c-4.1,0-5,0.4-5,2.3v0.6c0,1.4,0.5,2.2,3.5,2.2h7.6c4.3,0,7.2,0.4,7.2,5v0.1c0,4.8-4.4,4.9-7.9,4.9h-5.3c-4.3,0-8.2,0-8.2-5.2V58.4
		z"/>
	<path class="st0" d="M44.7,47.3h2.7V50h0.1c0.8-2.1,3.2-3,5.7-3h5.4c4.1,0,7.9,1.3,7.9,7.2v3c0,5.5-2.5,7.4-8.3,7.4h-5.5
		c-3,0-4.4-0.8-5-2.5h-0.1v8.2h-2.9L44.7,47.3L44.7,47.3z M63.6,54.2c0-3.3-1.1-4.9-5.1-4.9h-5.7c-3.8,0-5.2,2-5.2,4.9v3.2
		c0,4.1,2.5,4.7,5.6,4.7h5.1c3.4,0,5.3-0.7,5.3-4.7L63.6,54.2L63.6,54.2z"/>
	<path class="st0" d="M102.9,47.3h2.7v2.5h0.1c1.1-2.2,3.2-2.7,5.2-2.7h2.7c5.4,0,7.1,1.7,7.1,5.9v2H118v-0.7c0-4.2-0.9-4.9-6-4.9
		h-1.7c-3,0-4.5,1.9-4.5,4.1v10.8h-2.9V47.3z"/>
	<path class="st0" d="M126.5,49.6h-3.8v-2.3h3.8v-4h2.9v4h11.4v2.3h-11.4v8.5c0,3.2,1.1,4.1,4.3,4.1h0.9c3.8,0,4.4-0.8,4.4-4.4v-1.3
		h2.3v1.9c0,3.4-0.3,6.1-6.6,6.1h-1.6c-5.4,0-6.6-2.6-6.6-5.4V49.6z"/>
	<path class="st0" d="M144.9,47.3h6v3.2h0.1c0.7-2.7,3.4-3.5,6.2-3.5c4.7,0,6.5,2,6.5,6.7c0,0.4,0,0.9-0.1,1.5h-5.6
		c0-2.2-0.5-3.2-3.1-3.2c-2.2,0-3.8,0.8-3.8,2.9v9.4h-6.4L144.9,47.3L144.9,47.3z"/>
	<path class="st0" d="M166.1,58.3c0-4.7,3.2-4.9,9.4-4.9c3.5,0,5.4,0.1,6.7,1.4v-1.5c0-1.7-0.5-2.3-3-2.3h-3.8
		c-1.9,0-2.4,0.2-2.5,1.4h-6.2c0-4.6,2.3-5.4,7.7-5.4h7.4c4.4,0,6.7,2.1,6.7,6.1v11.2h-6.1v-1.9c-1.8,1.8-2.5,2.2-5.6,2.2h-4.4
		c-3.9,0-6.4-0.8-6.4-4.8L166.1,58.3L166.1,58.3z M177.5,60.6c4.4,0,4.8-0.7,4.8-1.8c0-1.3-0.4-1.7-3.9-1.7h-2.8
		c-2.7,0-3.3,0.6-3.3,2c0,1.1,0.9,1.6,3.4,1.6L177.5,60.6L177.5,60.6z"/>
	<path class="st0" d="M191.8,54.3c0-4.3,1-7.2,9.1-7.2h1.9c2.6,0,5.3,0.7,5.7,3.4h0.1V40.1h6.4v24.2h-6v-3.1H209
		c-0.7,2.1-2.3,3.4-6.2,3.4H201c-8.1,0-9.1-2.9-9.1-7.2L191.8,54.3L191.8,54.3z M198.1,56.8c0,1.9,0.3,3,3.4,3h3.8
		c2.5,0,3.9-0.6,3.9-3.1v-1.7c0-2.6-1.3-3.1-3.9-3.1h-3.8c-3.1,0-3.4,1.1-3.4,3L198.1,56.8L198.1,56.8z"/>
	<path class="st0" d="M218.7,58.3c0-4.7,3.2-4.9,9.4-4.9c3.5,0,5.4,0.1,6.7,1.4v-1.5c0-1.7-0.5-2.3-3-2.3H228
		c-1.9,0-2.4,0.2-2.5,1.4h-6.2c0-4.6,2.3-5.4,7.7-5.4h7.4c4.4,0,6.7,2.1,6.7,6.1v11.2H235v-1.9c-1.8,1.8-2.5,2.2-5.6,2.2h-4.4
		c-3.9,0-6.4-0.8-6.4-4.8L218.7,58.3L218.7,58.3z M230.1,60.6c4.4,0,4.8-0.7,4.8-1.8c0-1.3-0.4-1.7-3.9-1.7h-2.8
		c-2.7,0-3.3,0.6-3.3,2c0,1.1,0.9,1.6,3.4,1.6L230.1,60.6L230.1,60.6z"/>
	<path class="st0" d="M245.3,47.3h6v3.2h0.1c0.7-2.7,3.4-3.5,6.2-3.5c4.7,0,6.5,2,6.5,6.7c0,0.4,0,0.9-0.1,1.5h-5.6
		c0-2.2-0.5-3.2-3.1-3.2c-2.2,0-3.8,0.8-3.8,2.9v9.4h-6.4V47.3z"/>
	<path class="st0" d="M87.4,49.3h-5.8c-3.4,0-5.7,0.8-5.7,4.7v3.4c0,4,2.3,4.7,5.7,4.7h5.8c3.4,0,5.7-0.8,5.7-4.7V54
		C93.1,50.1,90.8,49.3,87.4,49.3"/>
	<path class="st0" d="M87.1,44.5h-5.3c-7,0-12,1.7-12,8.8v4.8c0,7.2,5.1,8.8,12,8.8h5.3c7,0,12-1.7,12-8.8v-4.8
		C99.2,46.2,94.1,44.5,87.1,44.5 M95.9,57.6c0,5.6-4,6.9-9.4,6.9h-4.1c-5.4,0-9.4-1.3-9.4-6.9v-3.8c0-5.6,4-6.9,9.4-6.9h4.1
		c5.4,0,9.4,1.3,9.4,6.9V57.6z"/>
</g>
</svg>
