<?xml version="1.0" encoding="utf-8"?>
<!-- Generator: Adobe Illustrator 21.1.0, SVG Export Plug-In . SVG Version: 6.00 Build 0)  -->
<svg version="1.1" id="Layer_1" xmlns="http://www.w3.org/2000/svg" xmlns:xlink="http://www.w3.org/1999/xlink" x="0px" y="0px"
	 viewBox="0 0 283.5 110.4" style="enable-background:new 0 0 283.5 110.4;" xml:space="preserve">
<style type="text/css">
	.st0{fill:#000;}
</style>
<g>
	<g>
		<path class="st0" d="M149.5,85c-6.1,0-7.5,4.1-7.5,8.4c0,4.3,1.4,8.4,7.5,8.4c6.1,0,7.5-4.1,7.5-8.4C157,89.1,155.6,85,149.5,85
			 M149.5,100.7c-3.8,0-4.1-3.9-4.1-7.3c0-3.4,0.3-7.3,4.1-7.3c3.8,0,4.1,3.9,4.1,7.3C153.6,96.8,153.3,100.7,149.5,100.7"/>
		<path class="st0" d="M127.5,97.9c0,1-1.3,2.7-3.5,2.7c-2.3,0-3.2-1.1-3.2-3.9c0-3.2,1.5-4,6.7-4V97.9z M124.3,86.3
			c2.9,0,3.2,1.2,3.2,2.4v2.7c-5.2,0-10.2,0.6-10.2,5.5c0,3.6,2.9,4.9,5.9,4.9c3.8,0,5-2.2,5-2.2c0.4,1.3,1.4,1.9,2.7,1.9h1.8v-1.1
			h-0.5c-0.9,0-1.3-0.4-1.3-1.5v-8.6c0-3.3-1.5-5.2-6.4-5.2c-3.7,0-6.1,1.9-6.1,1.9v1.9C118.4,88.8,121,86.3,124.3,86.3"/>
		<path class="st0" d="M115.8,86.5v-1.1h-2.7v-4.2l-3.4,2v14.9c0,2.3,1,3.3,3.4,3.3c0.3,0,2.7,0,2.7,0v-1.1h-1.2
			c-1.1,0-1.4-0.6-1.4-1.5V86.5H115.8z"/>
		<path class="st0" d="M140.9,86.5v-1.1h-2.7v-4.2l-3.4,2v14.9c0,2.3,1,3.3,3.4,3.3c0.3,0,2.7,0,2.7,0v-1.1h-1.2
			c-1.1,0-1.4-0.6-1.4-1.5V86.5H140.9z"/>
		<polygon class="st0" points="163.4,85.4 160,85.4 160,93.4 160,101.4 163.4,101.4 163.4,93.4 		"/>
		<polygon class="st0" points="163.4,80.2 160,80.2 160,81.8 160,83.4 163.4,83.4 163.4,81.8 		"/>
		<path class="st0" d="M98.9,100.3c3.1,0,4.7-2,4.7-4c0-1.8-0.9-3-2.9-3.9c-0.6-0.3-3.3-1.5-4.3-2c-2.1-1.1-3.5-2.8-3.5-5.1
			c0-3.5,3.5-5.5,7-5.5c4.1,0,6.2,1.8,6.2,1.8v1.9c0,0-2.7-2.3-6-2.3c-2,0-4,1-4.2,3c-0.1,1.3,0.4,2.1,2.4,3.1
			c0.8,0.4,3.5,1.7,4.2,2c2.4,1.1,4.5,3,4.5,6.1c0,3.8-3.2,6.4-8,6.4c-3.8,0-6.3-1.9-6.3-1.9v-2C92.8,97.9,95.7,100.3,98.9,100.3"/>
		<polygon class="st0" points="166.9,80.2 166.9,90.8 166.9,101.4 170.3,101.4 170.3,90.8 170.3,80.2 		"/>
	</g>
	<g>
		<path class="st0" d="M161.2,41.6c0-0.2-0.1-0.3-0.3-0.4L143.3,31c-0.4-0.2-1.1-0.2-1.5,0l-17.6,10.2c-0.2,0.1-0.3,0.3-0.3,0.4
			c0,0.2,0.1,0.3,0.3,0.4l17.6,10.2c0.4,0.2,1.1,0.2,1.5,0L160.9,42C161.1,41.9,161.2,41.7,161.2,41.6z"/>
		<path class="st0" d="M177.9,44.1l-9.1-5.3c-0.1-0.1-0.2-0.1-0.3,0c-0.1,0-0.1,0.1-0.1,0.3l0,10.5c0,0.3,0.2,0.6,0.4,0.7l9.1,5.3
			c0.1,0.1,0.2,0.1,0.3,0c0.1,0,0.1-0.1,0.1-0.3l0-10.5C178.3,44.5,178.1,44.2,177.9,44.1z"/>
		<path class="st0" d="M162.6,34c0.1,0.1,0.2,0.1,0.4,0l13.4-7.7c0.3-0.2,0.6-0.6,0.6-1l0-15.5c0-0.2-0.1-0.3-0.2-0.4
			c-0.1-0.1-0.2-0.1-0.4,0L163,17.2c-0.3,0.2-0.6,0.6-0.6,1l0,15.5C162.4,33.8,162.5,33.9,162.6,34z"/>
		<path class="st0" d="M190.5,34.5L179.3,28c-0.3-0.2-0.7-0.2-1,0l-11.2,6.5c-0.1,0.1-0.2,0.2-0.2,0.3c0,0.1,0.1,0.2,0.2,0.3
			l11.2,6.5c0.3,0.2,0.7,0.2,1,0l11.2-6.5c0.1-0.1,0.2-0.2,0.2-0.3C190.7,34.6,190.6,34.5,190.5,34.5z"/>
		<path class="st0" d="M143.6,28.3l15.6,9c0.2,0.1,0.4,0.1,0.5,0c0.1-0.1,0.2-0.2,0.2-0.4l0-18c0-0.4-0.3-1-0.7-1.2l-15.6-9
			c-0.2-0.1-0.4-0.1-0.5,0c-0.1,0.1-0.2,0.2-0.2,0.4v18C143,27.6,143.3,28.1,143.6,28.3z"/>
		<path class="st0" d="M163.2,43.9c-0.1-0.1-0.3-0.1-0.5,0.1L145,54.1c-0.4,0.2-0.8,0.8-0.8,1.3l0,20.4c0,0.2,0.1,0.4,0.2,0.5
			c0.1,0.1,0.3,0.1,0.5-0.1L162.6,66c0.4-0.2,0.8-0.8,0.8-1.3l0-20.4C163.4,44.1,163.3,43.9,163.2,43.9z"/>
	</g>
</g>
</svg>
