<?xml version="1.0" encoding="utf-8"?>
<!-- Generator: Adobe Illustrator 21.1.0, SVG Export Plug-In . SVG Version: 6.00 Build 0)  -->
<svg version="1.1" id="Layer_1" xmlns="http://www.w3.org/2000/svg" xmlns:xlink="http://www.w3.org/1999/xlink" x="0px" y="0px"
	 viewBox="0 0 283.5 110.4" style="enable-background:new 0 0 283.5 110.4;" xml:space="preserve">
<style type="text/css">
	.st0{fill:#000;}
</style>
<g>
	<polygon class="st0" points="41.5,56.2 58.2,53.5 68.4,43.1 49.9,48.3 	"/>
	<polygon class="st0" points="41.5,56.2 59.5,74.6 79.1,77.4 58.2,53.5 	"/>
	<g>
		<polygon class="st0" points="103.7,64.8 90,44 96.8,35.9 108.9,56.7 		"/>
		<polygon class="st0" points="58.2,53.5 68.4,43.1 86.9,67.1 79.1,77.4 		"/>
	</g>
	<polygon class="st0" points="80.9,79.5 88.4,88.1 68,83.1 61.1,76.2 	"/>
	<g>
		<polygon class="st0" points="80.9,79.5 88.4,88.1 102.5,66.6 96.6,57.7 		"/>
		<polygon class="st0" points="80.9,54.8 88.4,65.1 95.4,55.9 88.6,45.7 		"/>
		<polygon class="st0" points="70.5,41 79.4,52.8 95.6,33.9 88.7,22.3 		"/>
	</g>
	<polygon class="st0" points="51.7,46.6 67.9,31.4 88.7,22.3 70.5,41 	"/>
	<path class="st0" d="M136.2,46.3c-1-1.2-1.8-1.8-3-1.8c-1.4,0-2.2,0.9-2.2,2.3c0,3.3,10.6,3.1,10.6,11.3c0,4.3-3.5,7.9-8.1,7.9
		c-3.6,0-6.5-1.9-7.8-5.3l3.3-2.4h0.4c1,2.3,2.4,3.3,4.2,3.3c2.1,0,3.5-1.4,3.5-3.6c0-4.7-10.6-4.4-10.6-11.3c0-3.8,3-6.6,6.7-6.6
		c2.9,0,5,1.4,6.5,3.8l-3.1,2.3L136.2,46.3L136.2,46.3z"/>
	<path class="st0" d="M159.8,40.7l0.3,0.2l6.1,8.3l6.1-8.3l0.3-0.2h4.4l0.2,0.2l-8.9,12.4v12l-0.2,0.2h-3.8l-0.2-0.2v-12l-8.9-12.4
		l0.2-0.2C155.4,40.7,159.8,40.7,159.8,40.7z"/>
	<path class="st0" d="M202.5,46.3c-1-1.2-1.8-1.8-3-1.8c-1.4,0-2.2,0.9-2.2,2.3c0,3.3,10.6,3.1,10.6,11.3c0,4.3-3.5,7.9-8.1,7.9
		c-3.6,0-6.5-1.9-7.8-5.3l3.3-2.4h0.4c1,2.3,2.4,3.3,4.2,3.3c2.1,0,3.5-1.4,3.5-3.6c0-4.7-10.6-4.4-10.6-11.3c0-3.8,3-6.6,6.7-6.6
		c2.9,0,5,1.4,6.5,3.8l-3.1,2.3L202.5,46.3L202.5,46.3z"/>
	<path class="st0" d="M241.1,40.7l0.2,0.2v3.8l-0.2,0.2h-11.7v5.2h8.7l0.2,0.2V54l-0.2,0.2h-8.7v7.1h12.4l0.2,0.2v3.8l-0.2,0.2
		h-16.3l-0.2-0.2V40.8l0.2-0.2L241.1,40.7L241.1,40.7z"/>
</g>
</svg>
