<svg id="Partner" xmlns="http://www.w3.org/2000/svg" viewBox="0 0 400 180"><defs><style>.cls-1{fill:none;}.cls-2,.cls-3{fill:#fff;}.cls-2{opacity:0.9;}</style></defs><title>jz17-partner-tapad</title><polygon class="cls-1" points="128.17 100.26 142.36 100.26 135.27 81.41 128.17 100.26"/><polygon class="cls-1" points="247.13 100.26 261.33 100.26 254.24 81.41 247.13 100.26"/><path class="cls-1" d="M203.43,72.2h-7.1V89.5h7c6.66,0,11.09-3,11.09-8.54v-.22C214.41,75.08,210.3,72.2,203.43,72.2Z"/><path class="cls-1" d="M313.31,74.09H309v32.38h4.32c11.87,0,19.52-4.88,19.52-16.08v-.22C332.83,79,325.18,74.09,313.31,74.09Z"/><path class="cls-2" d="M148.35,50.91H122.62L89.91,129.09h27.73l4-10.43H148.8l4.1,10.43h17.48V103.53Zm-20.19,49.35,7.1-18.85,7.1,18.85Z"/><path class="cls-2" d="M205.31,51.46H170.38v52.07l10.7,25.56h15.26V108h8.43a52.91,52.91,0,0,0,13.63-1.66L236,64.3C230.39,55.74,219.38,51.46,205.31,51.46ZM214.41,81c0,5.55-4.43,8.54-11.09,8.54h-7V72.2h7.1c6.88,0,11,2.88,11,8.54Z"/><polygon class="cls-3" points="170.38 129.09 181.07 129.09 170.38 103.53 170.38 129.09"/><path class="cls-2" d="M267.32,50.91H241.59L236,64.3a26.48,26.48,0,0,1,4,14.77v.22c0,14.32-8.35,23.52-21.64,27.06l-9.51,22.73H236.6l4-10.43h27.17l4.1,10.43H283V88.45Zm-20.19,49.35,7.1-18.85,7.1,18.85Z"/><path class="cls-3" d="M240,79.3v-.22a26.48,26.48,0,0,0-4-14.77l-17.6,42.06C231.67,102.81,240,93.61,240,79.3Z"/><path class="cls-2" d="M312.75,51.46H283v37l17,40.65h11.83c31.39,0,47.13-16.3,47.13-39.26v-.22C359,66.66,343.59,51.46,312.75,51.46Zm20.08,38.93c0,11.2-7.65,16.08-19.52,16.08H309V74.09h4.32c11.87,0,19.52,4.88,19.52,16.08Z"/><polygon class="cls-3" points="283.03 129.09 300.04 129.09 283.03 88.45 283.03 129.09"/><polygon class="cls-2" points="41 50.91 41 72.86 63.84 72.86 89.8 50.91 41 50.91"/><polygon class="cls-2" points="63.84 72.86 63.84 129.09 89.8 129.09 89.8 72.86 63.84 72.86 63.84 72.86"/><polygon class="cls-3" points="112.64 50.91 89.8 50.91 63.84 72.86 89.8 72.86 112.64 72.86 112.64 50.91"/><polygon class="cls-3" points="89.8 50.91 89.8 50.91 63.84 72.86 63.84 72.86 89.8 50.91"/></svg>