<?xml version="1.0" encoding="utf-8"?>
<!-- Generator: Adobe Illustrator 22.1.0, SVG Export Plug-In . SVG Version: 6.00 Build 0)  -->
<svg version="1.1" id="Layer_1" xmlns="http://www.w3.org/2000/svg" xmlns:xlink="http://www.w3.org/1999/xlink" x="0px" y="0px"
	 viewBox="0 0 283.5 110.4" style="enable-background:new 0 0 283.5 110.4;" xml:space="preserve">
<style type="text/css">
	.st0{opacity:0.7;fill:#000000;enable-background:new    ;}
	.st1{fill:#000000;}
</style>
<g>
	<g>
		<rect x="24.3" y="46.8" class="st0" width="19.3" height="31.8"/>
		<rect x="10" y="31.8" class="st1" width="47.8" height="15"/>
	</g>
	<g>
		<rect x="122.1" y="31.8" class="st1" width="19.2" height="46.8"/>
		<path class="st0" d="M145.9,64.1h-4.5V31.8h4.5C169.2,31.8,169.3,64.1,145.9,64.1z"/>
	</g>
	<g>
		<polygon class="st1" points="247.3,31.7 247.3,78.7 228.1,78.7 228.1,31.8 		"/>
		<path class="st0" d="M247.3,78.7c34.9,0,34.9-46.9,0-46.9V78.7z"/>
	</g>
	<g>
		<polygon class="st0" points="83.9,69.2 78.2,78.6 55.4,78.6 72.4,50.6 		"/>
		<polygon class="st1" points="84,31.8 112.6,78.6 89.7,78.6 72.4,50.6 		"/>
	</g>
	<g>
		<polygon class="st1" points="201.5,50.6 184.2,78.6 161.3,78.6 189.9,31.8 		"/>
		<polygon class="st0" points="201.5,50.6 218.5,78.6 195.7,78.6 190,69.2 		"/>
	</g>
</g>
</svg>
