<svg id="Partner" xmlns="http://www.w3.org/2000/svg" viewBox="0 0 400 180"><defs><style>.cls-1,.cls-2{fill:#000;}.cls-1{fill-rule:evenodd;}</style></defs><title>jz17-partner-teleplan</title><polygon class="cls-1" points="147.39 107.03 137.96 107.03 137.96 69.89 124.31 69.89 124.31 61.9 161.02 61.9 161.02 69.89 147.39 69.89 147.39 107.03"/><path class="cls-1" d="M175.91,87c-.5-5.41-4-7-6.78-7-4.15,0-6.35,2.63-6.85,7h13.63m8.67,10.24c-2.32,8-9,10.69-14.71,10.69-9.43,0-16.65-4.54-16.65-18.3,0-4,1.39-16.91,16-16.91,6.61,0,15.72,3.15,15.72,18.43v1.57H162c.26,2.5.76,8.17,7.86,8.17,2.46,0,5-1.26,5.66-3.65h9"/><rect class="cls-2" x="189.81" y="61.91" width="8.8" height="45.12"/><path class="cls-1" d="M225.83,87c-.5-5.41-4-7-6.8-7-4.15,0-6.36,2.63-6.86,7h13.65m8.67,10.24c-2.33,8-9,10.69-14.71,10.69-9.43,0-16.66-4.54-16.66-18.3,0-4,1.38-16.91,16-16.91,6.59,0,15.71,3.15,15.71,18.43v1.57H211.93c.24,2.5.74,8.17,7.86,8.17,2.44,0,5-1.26,5.65-3.65h9.05"/><path class="cls-1" d="M256.69,100.68c5.65,0,7.23-6.15,7.23-10.11,0-5.28-1.89-10.25-7.48-10.25-6,0-7.49,5.41-7.49,10.75,0,5,2.15,9.61,7.74,9.61m-7.74-22.25h.13c1.63-2.63,4.09-5.72,10-5.72,7.36,0,13.89,5.67,13.89,17.23,0,9.19-4.14,18-14.08,18-6.16,0-8.37-3.33-9.44-5.17h-.11V120h-8.8V73.59h8.41v4.84"/><rect class="cls-2" x="276.86" y="61.91" width="8.8" height="45.12"/><path class="cls-1" d="M312.56,90.75c-.89.7-2.33,1.26-6,1.83-3.26.56-6,1.37-6,5a3.84,3.84,0,0,0,4.07,4c3.91,0,7.87-2.5,7.87-6.6V90.75m8.61,9.75c0,4,.87,4.85,1.94,5.22V107h-9.5a14.67,14.67,0,0,1-.81-4A13.61,13.61,0,0,1,302,107.92c-5,0-10.17-2.83-10.17-9.75,0-6.54,4.15-9.87,9.74-10.69l7.91-1.2c1.39-.19,3.09-.74,3.09-2.63,0-3.71-3.52-3.91-5.8-3.91-4.39,0-5.15,2.7-5.4,4.67h-8.5c1-10.26,8.11-11.71,15-11.71,4.72,0,13.34,1.45,13.34,9.69v18.1"/><path class="cls-1" d="M356.74,107h-8.8V86.73c0-2.45-.12-6.6-5.72-6.6-3.89,0-6.91,2.63-6.91,7.73V107h-8.8V73.59h8.43V78.5H335a10.79,10.79,0,0,1,10.05-5.8c6.54,0,11.64,3.83,11.64,11.19V107"/><path class="cls-1" d="M54.7,102.5a33.24,33.24,0,0,0,9,8v1.84a32.32,32.32,0,0,1-15.62-9.81H54.7m9,3.5v3.25A32.19,32.19,0,0,1,56,102.5h5.34a41.86,41.86,0,0,0,2.33,3.5m-1.13-3.5h1.13v1.73c-.39-.58-.77-1.15-1.13-1.73m1.13-22.66H57.15a68.2,68.2,0,0,1,1.24-9.55h5.3v9.55m-6.34-9.55a69.51,69.51,0,0,0-1.23,9.55H49a48.87,48.87,0,0,1,1.27-9.55h7.08m-8.14,0A50.45,50.45,0,0,0,48,79.84H40.06a31.88,31.88,0,0,1,1.87-9.55h7.28M63.69,80.86V91.41H58c-.27-1.19-.48-2.42-.64-3.66a44.79,44.79,0,0,1-.31-6.89h6.59m-7.61,0a45.44,45.44,0,0,0,.31,7c.15,1.19.36,2.37.6,3.53H50.31c-.13-.49-.26-1-.38-1.51a38.79,38.79,0,0,1-.94-9h7.09m-8.13,0a40.61,40.61,0,0,0,1,9.27c.1.43.21.86.32,1.28H41.68A32.08,32.08,0,0,1,40,81.22v-.36H48M63.69,92.43v9H62a36.08,36.08,0,0,1-3.66-9h5.4m-6.46,0a36.72,36.72,0,0,0,3.55,9H55.22a30,30,0,0,1-4.6-9h6.61m-7.67,0a31.39,31.39,0,0,0,4.39,9H47.2a32.28,32.28,0,0,1-5.17-9h7.51M88,79.84H81.43V70.37h5.31A67.87,67.87,0,0,1,88,79.84M43.81,64.27h0A30.18,30.18,0,0,0,41,69.86a33.29,33.29,0,1,0,62.78.52h.06l-.24-.69a29.51,29.51,0,0,0-2.77-5.41l-.16-.25H74.07v49.4c-.59,0-1.18.05-1.77.05l-1.23,0V64H44l-.14.25M89,79.84a69.13,69.13,0,0,0-1.22-9.47h7.1a50.4,50.4,0,0,1,1.24,9.47H89m8.13,0a49.63,49.63,0,0,0-1.2-9.47h6.75a32.11,32.11,0,0,1,1.85,9.47H97.14M81.43,91.41V80.86H88a44.86,44.86,0,0,1-.31,6.89c-.16,1.24-.37,2.47-.64,3.66H81.43m6.7,0c.25-1.16.46-2.33.6-3.53a45.32,45.32,0,0,0,.31-7h7.09a38.91,38.91,0,0,1-.95,9c-.12.51-.25,1-.38,1.51H88.13m7.74,0c.11-.42.22-.85.32-1.28a39.7,39.7,0,0,0,1-9.27h7.39v.36a32.17,32.17,0,0,1-1.65,10.19h-7M81.43,101.48v-9h5.4a35.81,35.81,0,0,1-3.65,9H81.43m0,1h1.14c-.37.59-.75,1.17-1.14,1.75V102.5m0,6.75V106q1.27-1.71,2.34-3.5H89.1a32,32,0,0,1-7.67,6.75m2.91-7.77a37.15,37.15,0,0,0,3.55-9h6.6a29.93,29.93,0,0,1-4.6,9H84.35m-2.91,9a33.19,33.19,0,0,0,9-8h6.09a32.27,32.27,0,0,1-15.09,9.66v-1.69m9.75-9a31,31,0,0,0,4.4-9h7a32,32,0,0,1-5.16,9h-6.2M51.84,55.34h0a30.91,30.91,0,0,0-6.11,5.71l-.63.82H99.29L98.65,61a30.89,30.89,0,0,0-6-5.7Z"/><path class="cls-2" d="M271.39,150.66a9.28,9.28,0,0,1-6.15-1.87,6.54,6.54,0,0,1-2.22-5.3,11.74,11.74,0,0,1,3.43-8.73,11.91,11.91,0,0,1,8.71-3.37,19.11,19.11,0,0,1,3.7.34A13.29,13.29,0,0,1,282.4,133l-1,4.33h-.54a9.53,9.53,0,0,0-2.81-2,7.51,7.51,0,0,0-2.92-.55,6.39,6.39,0,0,0-2.93.67,6.91,6.91,0,0,0-2.24,1.8,8,8,0,0,0-1.37,2.55,9.49,9.49,0,0,0-.49,3.07,4.12,4.12,0,0,0,1.21,3.28,5.93,5.93,0,0,0,3.94,1.05h.59l.6,0,.82-3.58h-2.88l.81-3.52h7.73l-2.11,9.14a34.64,34.64,0,0,1-3.51,1,16.76,16.76,0,0,1-3.85.44"/><polygon class="cls-2" points="296.24 150.26 282.91 150.26 287.18 131.78 291.96 131.78 288.52 146.73 297.07 146.73 296.24 150.26"/><path class="cls-2" d="M318.74,138.66a13.46,13.46,0,0,1-.77,4.47,11.27,11.27,0,0,1-2.23,3.84,11,11,0,0,1-3.72,2.74,12,12,0,0,1-4.91.95,8.42,8.42,0,0,1-5.91-2,6.93,6.93,0,0,1-2.14-5.38,12.92,12.92,0,0,1,.82-4.59,11.67,11.67,0,0,1,2.34-3.82,10.91,10.91,0,0,1,3.68-2.56,11.71,11.71,0,0,1,4.78-1,8.45,8.45,0,0,1,5.92,2,6.88,6.88,0,0,1,2.13,5.31m-6.81,6.3a8.45,8.45,0,0,0,1.32-2.56,10.84,10.84,0,0,0,.48-3.36,4.66,4.66,0,0,0-.95-3.11,3.33,3.33,0,0,0-2.7-1.12,4.74,4.74,0,0,0-2.19.53,6,6,0,0,0-1.92,1.6,7.9,7.9,0,0,0-1.37,2.56,10.77,10.77,0,0,0-.52,3.45,4.64,4.64,0,0,0,1,3.2,3.4,3.4,0,0,0,2.68,1.08,4.8,4.8,0,0,0,2.29-.59,5.83,5.83,0,0,0,1.91-1.69"/><path class="cls-2" d="M337.83,136a4.18,4.18,0,0,1-.92,2.78,5.71,5.71,0,0,1-2.83,1.66l0,.1a5,5,0,0,1,2.29,1.25,3.19,3.19,0,0,1,.78,2.31,5.21,5.21,0,0,1-2.39,4.56,11.89,11.89,0,0,1-6.77,1.64h-8l4.26-18.48H331a9.75,9.75,0,0,1,5.1,1.1,3.45,3.45,0,0,1,1.76,3.08m-5.56,8.21a1.57,1.57,0,0,0-.77-1.47,5,5,0,0,0-2.43-.45h-2.5l-1.05,4.56h2.4a6.32,6.32,0,0,0,3.22-.67,2.17,2.17,0,0,0,1.13-2m.55-7.43a1.25,1.25,0,0,0-.65-1.17,3.7,3.7,0,0,0-1.8-.36H328.2l-.9,3.87h2.18a4.34,4.34,0,0,0,2.45-.59,2,2,0,0,0,.88-1.74"/><polygon class="cls-2" points="357 131.78 356.19 135.31 347.54 135.31 346.78 138.59 354.82 138.59 353.99 142.12 345.96 142.12 344.9 146.73 353.52 146.73 352.73 150.26 339.32 150.26 343.58 131.78 357 131.78"/></svg>