<?xml version="1.0" encoding="utf-8"?>
<!-- Generator: Adobe Illustrator 21.1.0, SVG Export Plug-In . SVG Version: 6.00 Build 0)  -->
<svg version="1.1" id="Layer_1" xmlns="http://www.w3.org/2000/svg" xmlns:xlink="http://www.w3.org/1999/xlink" x="0px" y="0px"
	 viewBox="0 0 283.5 110.3" style="enable-background:new 0 0 283.5 110.3;" xml:space="preserve">
<style type="text/css">
	.st0{fill:#000;}
</style>
<g>
	<path class="st0" d="M132.2,44.6c-1.1,0-2.2-0.8-3.2-2.4c-0.7-1.1-1.1-2-1.1-2.5c0-1,0.7-1.9,2-2.8c1.3-0.8,2.7-1.3,4.3-1.3h25.4
		c1.6,0,2.4,0.7,2.4,2.2c0,1.7-0.5,3.3-1.4,4.7c-0.9,1.4-1.9,2.1-3,2.1h-8.3v28.1c0,1.7-0.5,3.3-1.4,4.7c-0.9,1.4-1.9,2.1-3,2.1
		c-1.1,0-2.2-0.8-3.2-2.4c-0.7-1.1-1.1-2-1.1-2.5V44.6L132.2,44.6L132.2,44.6z"/>
	<path class="st0" d="M163.9,66.4c0.5,1.9,1.4,3.5,3,4.7c1.5,1.2,3.4,1.8,5.5,1.8c1.8,0,4-0.6,6.5-1.9c1.2-0.6,2.2-0.9,3.2-0.9
		c1.3,0,2,0.6,2,1.8c0,1.1-0.2,2.1-0.7,3.1s-1.1,1.7-1.8,2.2c-1.4,0.9-3,1.5-4.7,2s-3.4,0.7-5.1,0.7c-3,0-5.7-0.8-8.2-2.4
		c-2.5-1.6-4.4-3.6-5.8-6.1c-1.4-2.5-2.1-5.1-2.1-8c0-3.2,0.7-6,2.2-8.5c1.5-2.5,3.4-4.5,5.8-5.9c2.4-1.4,5-2.1,7.9-2.1
		c2.8,0,5.3,0.7,7.5,2c2.2,1.3,3.9,3,5.1,5.2c1.2,2.2,1.8,4.5,1.8,7.1c0,1.3-0.3,2.5-1,3.6c-0.7,1.1-1.4,1.6-2.3,1.6L163.9,66.4
		L163.9,66.4z M171.6,53.9L171.6,53.9c-2,0-3.7,0.6-5.1,1.7c-1.4,1.1-2.3,2.7-2.6,4.6h14.7c-0.1-1.8-0.8-3.3-2.1-4.5
		C175.1,54.5,173.5,53.9,171.6,53.9L171.6,53.9z"/>
	<path class="st0" d="M197.7,79.4c-1.9,0-3.5-0.7-4.8-2.2c-1.4-1.5-2.1-3.2-2.1-5.2V39c0-0.9,0.6-1.8,1.9-2.6s2.6-1.2,4.1-1.2
		c1.5,0,2.3,0.7,2.3,2.1v32.1c0,0.5,0.1,1,0.3,1.3c0.2,0.4,0.6,0.7,1.2,0.9c0.7,0.3,1,0.9,1,1.7c0,1.5-0.4,2.9-1.2,4.2
		C199.6,78.8,198.7,79.4,197.7,79.4L197.7,79.4z"/>
	<path class="st0" d="M210.3,43.6c-1.1,0-2.2-0.8-3.4-2.5c-0.8-1.2-1.2-2.1-1.2-2.8c0-1,0.7-2,2.1-2.9c1.4-0.9,2.9-1.4,4.5-1.4
		c1.7,0,2.6,0.8,2.6,2.4c0,1.2-0.2,2.4-0.7,3.6c-0.5,1.1-1.1,2.1-1.8,2.7C211.7,43.3,211,43.7,210.3,43.6L210.3,43.6z M210.3,79.4
		L210.3,79.4c-1,0-2-0.8-3.1-2.4c-0.7-1.1-1-1.9-1-2.4V51.4c0-0.9,0.6-1.8,1.9-2.6c1.3-0.8,2.6-1.2,4.1-1.2c1.5,0,2.3,0.7,2.3,2.1
		v23.2c0,1.1-0.2,2.2-0.7,3.2c-0.4,1-1,1.8-1.6,2.4C211.5,79.1,210.9,79.4,210.3,79.4z"/>
	<path class="st0" d="M234.4,79.4c-3,0-5.7-0.7-8.1-2.2c-2.4-1.5-4.3-3.4-5.6-5.9c-1.4-2.4-2-5.1-2-7.9c0-3.1,0.8-5.9,2.3-8.4
		c1.5-2.5,3.5-4.5,6-5.9c2.5-1.4,5.1-2.1,7.9-2.1c2.4,0,4.7,0.7,7,2c1.4-1,2.9-1.4,4.4-1.4c1.5,0,2.3,0.7,2.3,2.1v23.2
		c0,1.1-0.2,2.2-0.7,3.2c-0.4,1-1,1.8-1.6,2.4c-0.6,0.6-1.3,0.9-1.9,0.9c-1,0-2-0.8-3.1-2.4c-0.4-0.7-0.7-1.2-0.9-1.7
		c-0.3,0.9-0.8,1.7-1.3,2.4c-0.5,0.7-1.1,1.1-1.8,1.3C236.4,79.3,235.5,79.4,234.4,79.4L234.4,79.4z M235,71.7L235,71.7
		c1.9,0,3.6-0.5,5.2-1.5V56.1c-1.5-0.9-3.3-1.3-5.2-1.3c-2.4,0-4.3,0.8-5.9,2.4c-1.6,1.6-2.4,3.6-2.4,6c0,2.4,0.8,4.4,2.4,6.1
		C230.7,70.9,232.7,71.7,235,71.7z"/>
	<path class="st0" d="M89.8,75.5c10.8-6.3,18.5-14.1,22.1-22.5c1.5-6,2.3-12.5,2.3-19.4c0-1,0-1.9-0.1-2.7
		C113.4,41,100.3,53.7,83,62c-20.9,10-36.5,12.7-43.5,5.1c2.4,4.8,5.7,9.6,9.4,14C57.5,88.7,71.6,86,89.8,75.5z"/>
	<path class="st0" d="M80.6,54.8c19.7-9.5,33.4-23,31-32c-3.9-6.8-11.9-9.4-20.4-9.4c-25.3,0-56.3,16.6-56.3,37.9
		c0,2.7,0.6,5.8,1.7,9C42.4,68,60,64.8,80.6,54.8z"/>
	<path class="st0" d="M78.9,85L78.9,85c-13.9,5.6-21.8,3.8-26.2,0.3l-0.1,0C59.5,92,67.2,96.8,74,96.8c11.9,0,28.1-14.4,35.8-36.7
		C105.5,68.1,96.2,78,78.9,85L78.9,85z"/>
</g>
</svg>
