<?xml version="1.0" encoding="utf-8"?>
<!-- Generator: Adobe Illustrator 21.1.0, SVG Export Plug-In . SVG Version: 6.00 Build 0)  -->
<svg version="1.1" id="Layer_1" xmlns="http://www.w3.org/2000/svg" xmlns:xlink="http://www.w3.org/1999/xlink" x="0px" y="0px"
	 viewBox="0 0 283.5 110.4" style="enable-background:new 0 0 283.5 110.4;" xml:space="preserve">
<style type="text/css">
	.st0{fill:#000;}
</style>
<g>
	<g>
		<g>
			<path class="st0" d="M108.2,70.8h-6.3V48.4h-8.2V43h22.7v5.4h-8.2V70.8z"/>
			<path class="st0" d="M141.7,70.8h-6.4V43h6.4V70.8z"/>
			<path class="st0" d="M254,65.3h11v5.5h-17.4V43h6.4V65.3z"/>
		</g>
		<path class="st0" d="M162.8,43h10.3c7.6,0,15.2,4,15.2,13.9c0,9.3-7.4,14-14.8,14l-10.7,0V43z M169,65.4h3.9
			c5.3,0,8.9-3.3,8.9-8.6c0-5-3.6-8.4-8.7-8.4H169V65.4z"/>
		<path class="st0" d="M223.7,70.8h7L219.2,43h-6.6L201,70.8h6.8l2.1-5.5h11.8L223.7,70.8z M211.6,60.4l4.2-10.9l4.2,10.9H211.6z"/>
	</g>
	<g>
		
			<rect x="37.2" y="41.3" transform="matrix(0.7071 -0.7071 0.7071 0.7071 -20.6875 44.1382)" class="st0" width="11.5" height="11.5"/>
		
			<rect x="37.2" y="57.6" transform="matrix(0.7071 -0.7071 0.7071 0.7071 -32.2248 48.9174)" class="st0" width="11.5" height="11.5"/>
		
			<rect x="20.8" y="41.3" transform="matrix(0.7071 -0.7071 0.7071 0.7071 -25.4667 32.6)" class="st0" width="11.5" height="11.5"/>
		
			<rect x="53.5" y="41.3" transform="matrix(0.7071 -0.7071 0.7071 0.7071 -15.9088 55.6764)" class="st0" width="11.5" height="11.5"/>
	</g>
</g>
</svg>
