<svg id="Partner" xmlns="http://www.w3.org/2000/svg" viewBox="0 0 400 180"><defs><style>.cls-1,.cls-2{fill:#000;}.cls-1{fill-rule:evenodd;}</style></defs><title>jz17-partner-vaadin</title><path class="cls-1" d="M221.67,71.43a4.82,4.82,0,0,1-5,5h-.55a4.83,4.83,0,0,1-5-5V70.7a4.83,4.83,0,0,1,5-5h.55a4.82,4.82,0,0,1,5,5Zm-102,33.13a5,5,0,0,1-.75,9.89h-4.22a5,5,0,0,1-4.21-2.38,18.6,18.6,0,1,1,9.17-16.61Zm-10.2-8.69a8.28,8.28,0,0,0-8.31-8.19,8.39,8.39,0,0,0-8.31,8.55,8.29,8.29,0,0,0,8.19,8.19,8.42,8.42,0,0,0,8.43-8.56M184,87.58a8.28,8.28,0,0,0-8.19,8.31,8.4,8.4,0,0,0,8.56,8.31A8.29,8.29,0,0,0,192.53,96,8.43,8.43,0,0,0,184,87.58m18.8,16.91a5,5,0,0,1-.75,9.89H197.8a5.05,5.05,0,0,1-4.25-2.45,18,18,0,0,1-9.08,2.47,18.66,18.66,0,0,1-18.93-18.5,18.45,18.45,0,0,1,18.3-18.51,19.22,19.22,0,0,1,9,2.21V69.93c0-3.3,2.57-4.47,5-4.47s5,1.17,5,4.47v34.56Zm-146,7.32L46.61,87.65H46a5,5,0,1,1,0-9.94h3.94a5,5,0,0,1,4.59,3.06l7.78,20.4,7.8-20.43a5.14,5.14,0,0,1,4.57-3H78.6a5,5,0,1,1,0,9.94H78L67.8,111.81c-.7,1.63-2,3-5.5,3s-4.82-1.4-5.53-3m104-7.25a5,5,0,0,1-.75,9.89h-4.21a5,5,0,0,1-4.21-2.38,18.6,18.6,0,1,1,9.17-16.61Zm-10.2-8.69a8.28,8.28,0,0,0-8.31-8.19A8.39,8.39,0,0,0,134,96.24a8.29,8.29,0,0,0,8.19,8.19,8.43,8.43,0,0,0,8.43-8.56m91.11-1.75,0,16.18c0,3.29-2.4,4.16-5.54,4.16-2.39,0-5-.87-5-4.16,0-.32,0-21.81,0-21.81a5,5,0,0,1,.75-9.89h4.22a5,5,0,0,1,4.18,2.34A17.29,17.29,0,0,1,251,77.35c10.61,0,17.13,7.79,17.16,17.48v9.71a5,5,0,0,1-.74,9.89h-4.77a5.06,5.06,0,0,1-5-5V94.26c0-4.4-2.88-7.78-8.06-7.78a7.93,7.93,0,0,0-7.89,7.63m-21,20.34h-4.22a5.06,5.06,0,0,1-5-5v-26a4.83,4.83,0,0,1,5-5H217a4.83,4.83,0,0,1,5,5v21.06a5,5,0,0,1-.75,9.89Z"/><path class="cls-2" d="M356.29,98.85l-26.87,9.07v.57a4.44,4.44,0,0,1-8.88,0V105a4.48,4.48,0,0,1,2.73-4.09l23.52-7-23.55-7a4.58,4.58,0,0,1-2.7-4.09V79.37a4.44,4.44,0,1,1,8.88,0v.57L356.29,89c1.46.62,2.71,1.75,2.71,4.91s-1.25,4.3-2.71,4.93M296,119.73v-17c0-7.75,6-8.35,8.95-8.61-3-.42-8.95-1-8.95-8.77v-17c0-3.58-1.62-5.11-4-5.11h-2.13A3.5,3.5,0,0,1,286,59.32a3.58,3.58,0,0,1,3.84-3.83h6.3c7.41,0,11.08,3.49,11.08,11.33V84.2c0,5.2,2.21,5.71,4.34,5.71a4.09,4.09,0,1,1,0,8.18c-2.13,0-4.34.51-4.34,5.71v17.38c0,7.84-3.66,11.33-11.08,11.33h-6.3a3.58,3.58,0,0,1-3.84-3.83,3.5,3.5,0,0,1,3.84-3.84H292c2.39,0,4-1.53,4-5.11"/></svg>