<svg id="Partner" xmlns="http://www.w3.org/2000/svg" viewBox="0 0 400 180"><defs><style>.cls-1{fill:#fff;}</style></defs><title>jz17-partner-videxio</title><path class="cls-1" d="M80.3,32.55a18.32,18.32,0,0,1,5.59-13.18,15.41,15.41,0,1,0,0,26.36A18.32,18.32,0,0,1,80.3,32.55Z"/><path class="cls-1" d="M104.66,43.45a18.33,18.33,0,0,1,0-21.8,18.52,18.52,0,0,1,2-2.28,15.41,15.41,0,1,0,0,26.36A18.52,18.52,0,0,1,104.66,43.45Z"/><path class="cls-1" d="M119.45,17.14a15.41,15.41,0,1,0,15.41,15.41A15.34,15.34,0,0,0,119.45,17.14Z"/><path class="cls-1" d="M107,77.13c0,.16,0,.35,0,.58a5.41,5.41,0,0,1-.1.74c0,.28-.11.59-.19.94s-.19.75-.31,1.2L93.5,119.44a3.69,3.69,0,0,1-.65,1.32,2.73,2.73,0,0,1-1.35.8,11.16,11.16,0,0,1-2.55.38q-1.62.1-4.21.1c-1.7,0-3.09,0-4.16-.12a11.42,11.42,0,0,1-2.53-.41,2.71,2.71,0,0,1-1.32-.79,3.9,3.9,0,0,1-.65-1.28L63.17,80.59c-.19-.64-.35-1.22-.46-1.73a8.16,8.16,0,0,1-.19-1.11c0-.23,0-.43,0-.63a1.35,1.35,0,0,1,.26-.84,1.85,1.85,0,0,1,.94-.6,7.12,7.12,0,0,1,1.86-.34c.78-.06,1.77-.1,3-.1s2.37,0,3.18.12a9.94,9.94,0,0,1,1.9.34,1.82,1.82,0,0,1,1,.62,3.43,3.43,0,0,1,.48,1l9.78,31.53.29,1.2.29-1.2L95,77.33a2.75,2.75,0,0,1,.46-1,2,2,0,0,1,1-.62,9.17,9.17,0,0,1,1.8-.34,29.29,29.29,0,0,1,3-.12c1.19,0,2.16,0,2.92.1a6.23,6.23,0,0,1,1.76.34,1.67,1.67,0,0,1,.87.6A1.44,1.44,0,0,1,107,77.13Z"/><path class="cls-1" d="M124.73,66.69c0,2.44-.5,4.13-1.49,5.06s-2.84,1.39-5.54,1.39-4.57-.45-5.51-1.34-1.42-2.52-1.42-4.86.49-4.13,1.47-5.08,2.83-1.42,5.56-1.42,4.53.46,5.49,1.37S124.73,64.35,124.73,66.69Zm-.92,53.43a1.31,1.31,0,0,1-.29.84,2.14,2.14,0,0,1-1,.6,8.35,8.35,0,0,1-1.86.36c-.77.07-1.75.12-2.94.12s-2.16,0-2.94-.12a8.25,8.25,0,0,1-1.85-.36,2.12,2.12,0,0,1-1-.6,1.3,1.3,0,0,1-.29-.84V77.28a1.31,1.31,0,0,1,.29-.84,2.19,2.19,0,0,1,1-.62,8,8,0,0,1,1.85-.41,29.51,29.51,0,0,1,5.87,0,8.15,8.15,0,0,1,1.86.41,2.21,2.21,0,0,1,1,.62,1.32,1.32,0,0,1,.29.84Z"/><path class="cls-1" d="M174.16,120.12a1.59,1.59,0,0,1-.24.89,1.79,1.79,0,0,1-.82.6,5.56,5.56,0,0,1-1.57.33c-.66.07-1.47.1-2.43.1s-1.86,0-2.5-.1a5.83,5.83,0,0,1-1.57-.33,2,2,0,0,1-.86-.6,1.45,1.45,0,0,1-.27-.89v-4.77a27.4,27.4,0,0,1-7,5.53,16.58,16.58,0,0,1-8.06,2,16.77,16.77,0,0,1-8.31-1.9,15.81,15.81,0,0,1-5.54-5.12,22.23,22.23,0,0,1-3.1-7.54,41.58,41.58,0,0,1-1-9.07,39.47,39.47,0,0,1,1.23-10.3,23.34,23.34,0,0,1,3.58-7.8,16,16,0,0,1,5.88-5,18.09,18.09,0,0,1,8.09-1.73,14.52,14.52,0,0,1,6.55,1.47,23.32,23.32,0,0,1,5.82,4.31V61a1.51,1.51,0,0,1,.26-.87,2,2,0,0,1,1-.65,8.54,8.54,0,0,1,1.85-.41,30.45,30.45,0,0,1,5.87,0,8.07,8.07,0,0,1,1.83.41,2.08,2.08,0,0,1,1,.65,1.41,1.41,0,0,1,.29.87Zm-12-28.69a26.67,26.67,0,0,0-5-5,8.34,8.34,0,0,0-5-1.73,7,7,0,0,0-4.07,1.17A8.63,8.63,0,0,0,145.35,89a16.52,16.52,0,0,0-1.54,4.4,24.21,24.21,0,0,0-.51,5,31.26,31.26,0,0,0,.44,5.25,16.06,16.06,0,0,0,1.42,4.55,8.59,8.59,0,0,0,2.62,3.2,6.8,6.8,0,0,0,4.14,1.2,8.26,8.26,0,0,0,2.43-.36,9.23,9.23,0,0,0,2.4-1.18,16.4,16.4,0,0,0,2.53-2.14c.87-.88,1.81-2,2.84-3.25Z"/><path class="cls-1" d="M223.54,97.39a4.66,4.66,0,0,1-1,3.28,3.54,3.54,0,0,1-2.72,1.06H193.69a17.85,17.85,0,0,0,.65,5,9.49,9.49,0,0,0,2.07,3.8,9,9,0,0,0,3.66,2.38,15.6,15.6,0,0,0,5.37.82,29.57,29.57,0,0,0,5.58-.46,35.47,35.47,0,0,0,4.16-1c1.17-.37,2.15-.7,2.92-1a5.33,5.33,0,0,1,1.88-.46,1.41,1.41,0,0,1,.72.17,1.25,1.25,0,0,1,.48.6,4,4,0,0,1,.27,1.23q.07.79.07,2c0,.7,0,1.31,0,1.81s-.08.92-.14,1.27a3,3,0,0,1-.8,1.59,5.88,5.88,0,0,1-1.71.92,27.56,27.56,0,0,1-3.56,1.13q-2.17.55-5,1a41.54,41.54,0,0,1-6,.4,31.57,31.57,0,0,1-10-1.44,17.85,17.85,0,0,1-7.2-4.38,18.24,18.24,0,0,1-4.31-7.41,34.79,34.79,0,0,1-1.42-10.49,33.44,33.44,0,0,1,1.49-10.33A21.65,21.65,0,0,1,187.2,81a18.63,18.63,0,0,1,6.9-4.89,23.77,23.77,0,0,1,9.18-1.68A24,24,0,0,1,212.49,76a16.58,16.58,0,0,1,6.28,4.41,17.67,17.67,0,0,1,3.61,6.66,29.13,29.13,0,0,1,1.16,8.38Zm-11.75-3.47q.15-5.1-2-8T203,83a8.76,8.76,0,0,0-4,.87,8.1,8.1,0,0,0-2.84,2.33,10.57,10.57,0,0,0-1.73,3.47,17.09,17.09,0,0,0-.7,4.25Z"/><path class="cls-1" d="M266.81,119.25a3.08,3.08,0,0,1,.36,1.35,1.06,1.06,0,0,1-.7.87,6,6,0,0,1-2.07.46c-.94.07-2.17.12-3.71.12s-2.61,0-3.49-.07a9.47,9.47,0,0,1-2.07-.29,2.87,2.87,0,0,1-1.11-.53,2.08,2.08,0,0,1-.56-.79l-7.94-15.26-7.94,15.26a2.19,2.19,0,0,1-.53.79,2.62,2.62,0,0,1-1,.53,8.35,8.35,0,0,1-1.95.29c-.83,0-1.93.07-3.27.07s-2.54,0-3.37-.12a4.7,4.7,0,0,1-1.83-.46,1,1,0,0,1-.6-.87,2.74,2.74,0,0,1,.41-1.35l11.88-21.13-11-19.84a3.83,3.83,0,0,1-.46-1.47,1,1,0,0,1,.6-.94,5.84,5.84,0,0,1,2-.48,36.62,36.62,0,0,1,3.73-.15c1.41,0,2.54,0,3.39.07a14.79,14.79,0,0,1,2,.22,2.14,2.14,0,0,1,1.06.45,3,3,0,0,1,.58.8l7.65,14.34,7.61-14.34a1.87,1.87,0,0,1,.43-.67,2.15,2.15,0,0,1,.92-.48,8.56,8.56,0,0,1,1.71-.29c.72-.06,1.71-.1,3-.1,1.41,0,2.55,0,3.39.1a4.35,4.35,0,0,1,1.83.43,1,1,0,0,1,.53.94,3.78,3.78,0,0,1-.55,1.56L255,97.78Z"/><path class="cls-1" d="M285.38,66.69c0,2.44-.5,4.13-1.49,5.06s-2.84,1.39-5.53,1.39-4.57-.45-5.52-1.34-1.41-2.52-1.41-4.86.48-4.13,1.47-5.08,2.83-1.42,5.56-1.42,4.52.46,5.49,1.37S285.38,64.35,285.38,66.69Zm-.92,53.43a1.29,1.29,0,0,1-.29.84,2.13,2.13,0,0,1-1,.6,8.2,8.2,0,0,1-1.85.36c-.77.07-1.75.12-2.94.12s-2.16,0-2.93-.12a8.35,8.35,0,0,1-1.86-.36,2.13,2.13,0,0,1-1-.6,1.28,1.28,0,0,1-.29-.84V77.28a1.29,1.29,0,0,1,.29-.84,2.2,2.2,0,0,1,1-.62,8.15,8.15,0,0,1,1.86-.41,29.5,29.5,0,0,1,5.87,0,8,8,0,0,1,1.85.41,2.2,2.2,0,0,1,1,.62,1.29,1.29,0,0,1,.29.84Z"/><path class="cls-1" d="M337.5,98.22a32.67,32.67,0,0,1-1.44,10,21,21,0,0,1-4.38,7.8,19.45,19.45,0,0,1-7.36,5.05A27.62,27.62,0,0,1,314,122.86a28.36,28.36,0,0,1-10-1.59,17.87,17.87,0,0,1-7-4.63,18.94,18.94,0,0,1-4.14-7.46,34.76,34.76,0,0,1-1.35-10.11A32.43,32.43,0,0,1,293,89a21.1,21.1,0,0,1,4.41-7.8,19.63,19.63,0,0,1,7.34-5A27.43,27.43,0,0,1,315,74.43,29,29,0,0,1,325,76a17.52,17.52,0,0,1,7,4.6,19.14,19.14,0,0,1,4.11,7.46A35,35,0,0,1,337.5,98.22ZM325,98.7a31.88,31.88,0,0,0-.51-5.86,13.75,13.75,0,0,0-1.71-4.64,8.59,8.59,0,0,0-3.2-3.08,10.33,10.33,0,0,0-5-1.11,10.63,10.63,0,0,0-4.71,1,8.42,8.42,0,0,0-3.32,2.89,13.92,13.92,0,0,0-1.95,4.57,25.88,25.88,0,0,0-.65,6.09,30.16,30.16,0,0,0,.53,5.84,14.43,14.43,0,0,0,1.71,4.65,8.08,8.08,0,0,0,3.2,3.06,10.5,10.5,0,0,0,5,1.08,10.76,10.76,0,0,0,4.77-1,8.62,8.62,0,0,0,3.32-2.86,13.35,13.35,0,0,0,1.92-4.55A26.91,26.91,0,0,0,325,98.7Z"/></svg>