<svg id="Partner" xmlns="http://www.w3.org/2000/svg" viewBox="0 0 400 180"><defs><style>.cls-1{fill:#000;}</style></defs><title>jz17-partner-vimond</title><path class="cls-1" d="M67.51,97.24l-4.66,16.35-1.71,6.34h-.59l-1.71-6.34L54.17,97.24c-.59-2-1.74-2.72-3.22-2.72H41l10.71,33.93c.85,2.61,1.7,3.52,4.26,3.52h9.75c2.56,0,3.41-.91,4.26-3.52L80.68,94.52h-10C69.25,94.52,68.1,95.22,67.51,97.24Z"/><rect class="cls-1" x="84.07" y="94.52" width="11.45" height="37.29"/><path class="cls-1" d="M128,96.71l-4.85,11.21h-.48l-5.17-11.21c-.68-1.36-1.35-2.19-3-2.19h-14v37.29H111V109.22h.53l6.71,12.44c.83,1.46,1.3,2,2.68,2h3.27c1.38,0,1.92-.57,2.68-2l6.71-12.44h.53v22.59H145V94.52H131C129.37,94.52,128.72,95.2,128,96.71Z"/><path class="cls-1" d="M172.5,94.52H160.09c-3.89,0-5.91.7-7.35,2.13-2.18,2.13-4.05,6.23-4.05,16.51s1.87,14.38,4.05,16.51c1.44,1.44,3.46,2.13,7.35,2.13H172.5c3.89,0,5.91-.69,7.35-2.13,2.18-2.13,4-6.23,4-16.51s-1.87-14.38-4-16.51C178.41,95.22,176.39,94.52,172.5,94.52Zm-1.39,28.18c-.32.32-.85.43-2.45.43h-4.74c-1.6,0-2.13-.11-2.45-.43s-1-1.33-1-9.54.64-9.16,1-9.53.85-.43,2.45-.43h4.74c1.6,0,2.13.11,2.45.43s1,1.38,1,9.53S171.49,122.33,171.11,122.7Z"/><path class="cls-1" d="M212.14,113.59h-.27l-9.69-16.35a4.87,4.87,0,0,0-4.9-2.72h-9.75v37.29h10.82V110.5h.27l11.51,18.59a4.91,4.91,0,0,0,4.9,2.72H223V94.52H212.14Z"/><path class="cls-1" d="M258.59,97.67c-2.24-2.24-5.49-3.15-11.4-3.15H228v37.29h19.23c5.91,0,9.16-.85,11.4-3.09,2.56-2.56,3.78-6.23,3.78-15.55S261.15,100.22,258.59,97.67Zm-9,24.82c-.64.64-1.6.9-4.16.9h-6V102.94h6c2.61,0,3.52.21,4.16.85s1,2.35,1,9.38S250.23,121.85,249.59,122.49Z"/><path class="cls-1" d="M348.9,67.72,280.05,46V67c0,3.11,1.25,5.4,5.73,6.78L346.5,92.91c2.45.8,6.3,2.11,8.6,3.76,2.86,2.06,3.9,3.93,3.9,6.32V78C359,72.9,354.4,69.52,348.9,67.72ZM358,97.88a14.41,14.41,0,0,0-2.32-2c-2.26-1.62-5.75-2.88-8.87-3.9L286.08,72.82c-4.17-1.29-5-3.26-5-5.82V47.36L348.6,68.68c3.5,1.14,9.4,3.88,9.4,9.29Z"/><path class="cls-1" d="M355.1,96.67c-2.29-1.65-6.15-3-8.6-3.76l-7-2.21-25.72,8.1V103c0,5.07-4.6,8.45-10.1,10.24l-9,2.9a52,52,0,0,0-9.61,3.79,9.3,9.3,0,0,0-5,7.79h0c0,1.89,1.53,4.58,7.16,4.26a42.22,42.22,0,0,0,7.46-1.63l54.23-17.12c5.5-1.8,10.1-5.17,10.1-10.24C359,100.59,358,98.72,355.1,96.67Z"/><path class="cls-1" d="M285.78,73.77c-4.48-1.38-5.73-3.66-5.73-6.78V60.24L246.32,49.56v21c0,3.11,1.25,5.4,5.73,6.78l42.28,13.37.34-.11c2.58-.83,4.36-1.38,6.61-2.12,0,0,6.45-2.37,8.74-4a10.81,10.81,0,0,0,2.41-2.29Z"/><path class="cls-1" d="M312.44,82.17A10.81,10.81,0,0,1,310,84.46c-2.29,1.65-8.74,4-8.74,4-2.25.74-4,1.29-6.61,2.12A77.22,77.22,0,0,0,286,93.68c-3.69,1.76-5.91,4-5.91,8.15v25.89a9.3,9.3,0,0,1,5-7.79,52,52,0,0,1,9.61-3.79l9-2.9c5.5-1.8,10.1-5.17,10.1-10.24V82.59Zm.34,20.82c0,5.41-5.9,8.15-9.41,9.29l-9,2.9a52.15,52.15,0,0,0-9.78,3.86,10.91,10.91,0,0,0-3.53,3.05V101.83c0-3.34,1.55-5.44,5.34-7.25a60.26,60.26,0,0,1,7.22-2.6l1.37-.43,2.87-.92,3.75-1.2c.3-.11,6.64-2.45,9-4.16a12.81,12.81,0,0,0,2.17-1.93Z"/></svg>