<svg id="Partner" xmlns="http://www.w3.org/2000/svg" viewBox="0 0 397.78 179"><defs><style>.cls-1{fill:#000;}</style></defs><title>jz17-partner-visma</title><path class="cls-1" d="M73,65.1c17,1.45,35.74,10.08,46.43,22.33,13.7,15.69,9,31.37-10.53,35s-46.42-6.08-60.11-21.77c-10.48-12-10.17-24-.72-30.63l54.23,40.06Z"/><path class="cls-1" d="M341,122.37,334.21,95c-1-3.25-1.36-6.51-2-9.76H332c-.6,3.33-.83,6.58-1.74,9.91l-6.89,27.24h-11.8l15.81-57h9.23l16.5,57Z"/><path class="cls-1" d="M160.91,65.32l6.81,27.39c1,3.25,1.36,6.51,2,9.76h.15c.6-3.33.84-6.59,1.74-9.91l6.88-27.23h11.8l-15.81,57H165.3l-16.49-57Z"/><rect class="cls-1" x="198.82" y="65.32" width="11.28" height="57.05"/><polygon class="cls-1" points="273.83 65.32 279.36 98.99 279.51 98.99 284.04 65.32 299.18 65.32 305.16 122.37 293.58 122.37 290.86 81.29 290.71 81.29 288.89 95.36 284.04 122.37 275.35 122.37 269.82 95.06 267.92 82.35 267.92 81.29 267.78 81.29 266.12 122.37 254 122.37 259 65.32 273.83 65.32"/><path class="cls-1" d="M238.05,65.32a14.13,14.13,0,0,0-4.43,6.16c-2.95,7.11.21,12.57,3,17.39.4.71.83,1.43,1.22,2.15,6.08,10.44,8.49,18.12,3.95,29.08-.32.78-1.08,2.24-1.08,2.24H227.13a14.17,14.17,0,0,0,4.15-5.38c3.12-7.53-.56-14.41-4.12-21.08-4.28-8-8.71-16.3-4-27.66.45-1.07,1.42-2.91,1.42-2.91Z"/><path class="cls-1" d="M352.19,69.17a5.56,5.56,0,1,1,5.53-5.58,5.57,5.57,0,0,1-5.53,5.58m0-12.41A6.85,6.85,0,1,0,359,63.59a6.81,6.81,0,0,0-6.81-6.83m-.87,7.49h.46c1.39,0,1.25.81,1.25,1.75a3.45,3.45,0,0,0,.23,1.54H355a10.08,10.08,0,0,1-.2-2.33,1.46,1.46,0,0,0-1.57-1.55v0a1.75,1.75,0,0,0,1.6-1.95,1.88,1.88,0,0,0-2-2.09h-3.32v8h1.8Zm0-3.34h.81c.57,0,.94.3.94,1,0,.52-.22,1.18-.94,1.18h-.81Z"/></svg>