<?xml version="1.0" encoding="utf-8"?>
<!-- Generator: Adobe Illustrator 22.1.0, SVG Export Plug-In . SVG Version: 6.00 Build 0)  -->
<svg version="1.1" id="Layer_1" xmlns="http://www.w3.org/2000/svg" xmlns:xlink="http://www.w3.org/1999/xlink" x="0px" y="0px"
	 viewBox="0 0 283.5 110.4" style="enable-background:new 0 0 283.5 110.4;" xml:space="preserve">
<style type="text/css">
	.st0{fill:#000000;}
</style>
<g>
	<g>
		<path class="st0" d="M114.3,73.7l-13.5-30.7h1.2h4h0.2h1l7.1,16.4l7.1-16.4h1.3h5.2L114.3,73.7z"/>
		<path class="st0" d="M131.6,42.9h6v30.2h-6V42.9z"/>
		<path class="st0" d="M154.8,73.7l-13.5-30.7h1.2h4h0.2h1l7.1,16.4l7.1-16.4h1.3h5.2L154.8,73.7z"/>
		<path class="st0" d="M189.1,42.9v6H177v6h9v6h-9v6h12.1v6H177h-6V42.9H189.1z"/>
		<path class="st0" d="M211.1,59.6V42.9h6v30.7l-18.1-17.3v16.7h-6V42.4L211.1,59.6z"/>
		<path class="st0" d="M228.2,43c4.1,0,8,1.5,11,4.4c5.4,5.4,5.4,15.9,0,21.3c-3,2.9-6.9,4.4-11,4.4h-7.4V43L228.2,43L228.2,43z
			 M228.2,67.1c2.5,0,4.8-0.7,6.5-2.5c1.8-1.8,2.5-4.1,2.5-6.6c0-2.5-0.7-4.8-2.5-6.6c-1.8-1.8-4.1-2.5-6.5-2.5h-1.4v18.1H228.2
			L228.2,67.1z"/>
		<path class="st0" d="M264,42.9v6h-12.1v6h9v6h-9v6H264v6h-12.1h-6V42.9H264z"/>
	</g>
	<g>
		<polygon class="st0" points="53.4,25.8 52.3,27.7 46.6,39.5 46.7,39.5 58,63.2 64.6,49.3 		"/>
		<polygon class="st0" points="48.3,42.8 53.4,25.9 46.6,39.5 46.7,39.5 		"/>
		<polygon class="st0" points="19.5,67.5 33.1,67.5 39.3,54.5 46.1,40.6 46.6,39.5 46.6,39.5 53.4,25.9 46.9,12.2 		"/>
		<g>
			<polygon class="st0" points="51.3,84.6 52.4,82.7 58.1,70.9 58,70.9 46.7,47.2 40.1,61.1 			"/>
			<polygon class="st0" points="56.4,67.6 51.3,84.5 58.1,70.9 58,70.9 			"/>
			<polygon class="st0" points="85.2,42.9 71.6,42.9 65.4,55.9 58.7,69.8 58.2,70.9 58.1,70.9 51.4,84.5 57.8,98.2 			"/>
		</g>
	</g>
</g>
</svg>
