<?xml version="1.0" encoding="utf-8"?>
<!-- Generator: Adobe Illustrator 21.1.0, SVG Export Plug-In . SVG Version: 6.00 Build 0)  -->
<svg version="1.1" id="Layer_1" xmlns="http://www.w3.org/2000/svg" xmlns:xlink="http://www.w3.org/1999/xlink" x="0px" y="0px"
	 viewBox="0 0 283.5 110.4" style="enable-background:new 0 0 283.5 110.4;" xml:space="preserve">
<style type="text/css">
	.st0{fill:#000;}
</style>
<g>
	<path class="st0" d="M79.6,36L54,70.4c-2.1,2.9-4.3,4.3-6.4,4.3c-2.2,0-4.3-1.4-6.4-4.3L16,36h14.7l17,23.6L64.8,36H79.6z"/>
	<path class="st0" d="M90.2,74.1H82V47.5h8.2V74.1z"/>
	<path class="st0" d="M136.1,47.5l-18,24.1c-1.5,2-3,3-4.5,3c-1.5,0-3-1-4.5-3l-17.5-24h10.3L113.8,64l12-16.5H136.1z"/>
	<path class="st0" d="M166.4,67.3l-5.3,6.9h-24.4V47.5h29.7l-5.3,6.9H145v2.8h20.1l-5.3,6.9H145v3.2H166.4z"/>
	<path class="st0" d="M199.5,70.7c0,2.4-1.1,3.6-3.3,3.6c-1.6,0-3.1-0.6-4.5-1.8l-15.6-13.1v14.6h-8.3V50.9c0-1,0.3-1.8,0.9-2.4
		c0.6-0.6,1.5-1,2.7-1c1.5,0,2.9,0.5,4.2,1.6l15.6,13.1V47.5h8.3V70.7z"/>
	<path class="st0" d="M236.7,60.6c0,3.9-1.5,7.1-4.6,9.7c-3,2.6-6.9,3.9-11.5,3.9h-17.9V57.5h8.3v9.8h9.6c2.3,0,4.2-0.6,5.7-1.8
		c1.5-1.2,2.2-2.7,2.2-4.6c0-1.9-0.7-3.5-2.2-4.7c-1.5-1.2-3.4-1.8-5.6-1.8h-17.9l5.3-6.9h12.6c4.7,0,8.6,1.2,11.6,3.6
		C235.2,53.5,236.7,56.7,236.7,60.6z"/>
	<path class="st0" d="M267.5,67.3l-5.3,6.9h-23.6V47.5h29l-5.3,6.9h-15.4v2.8h19.4l-5.3,6.9h-14.1v3.2H267.5z"/>
	<g>
		<path class="st0" d="M92.9,44.5h-1.5v-8.6h1.5V44.5z M103,44.5h-3.2l-5.5-2.8c-0.5-0.3-0.9-0.8-0.9-1.5c0-0.7,0.4-1.2,0.9-1.5
			c5.4-2.8,5.4-2.8,5.4-2.8h3.3l-8.4,4.3L103,44.5z"/>
		<path class="st0" d="M114.5,42.1c0,1.3-1,2.3-2.3,2.3h-6.6c-1.3,0-2.3-1-2.3-2.3v-3.9c0-1.3,1-2.3,2.3-2.3h6.6
			c1.3,0,2.3,1,2.3,2.3V42.1z M113,43v-5.6h-8.3V43H113z"/>
		<path class="st0" d="M127.6,35.9v7c0,0.9-0.7,1.7-1.7,1.7c-0.5,0-0.9-0.2-1.2-0.5l-7-7.1v7.5h-1.5v-7c0-0.9,0.7-1.7,1.7-1.7
			c0.5,0,0.9,0.2,1.2,0.5l7,7.1v-7.5H127.6z"/>
		<path class="st0" d="M140.6,42.1c0,1.3-1,2.3-2.3,2.3h-9V43h9.8v-2.1h-7.9c-1.3,0-2.3-1-2.3-2.3v-0.4c0-1.3,1-2.3,2.3-2.3h9v1.5
			h-9.8v2.1h7.9c1.3,0,2.3,1,2.3,2.3V42.1z"/>
		<path class="st0" d="M153.2,42.1c0,1.3-1,2.3-2.3,2.3h-6.6c-1.3,0-2.3-1-2.3-2.3v-6.2h1.5V43h8.3v-7.1h1.5V42.1z"/>
		<path class="st0" d="M164.1,44.5h-6.7c-1.3,0-2.3-1-2.3-2.3v-6.2h1.5V43h7.6V44.5z"/>
		<path class="st0" d="M176.4,44.5h-9c-1.3,0-2.3-1-2.3-2.3v-3.9c0-1.3,1-2.3,2.3-2.3h9v1.5h-9.8v2.1h9.8v1.5h-9.8V43h9.8V44.5z"/>
		<path class="st0" d="M189.5,35.9v7c0,0.9-0.7,1.7-1.7,1.7c-0.5,0-0.9-0.2-1.2-0.5l-7-7.1v7.5h-1.5v-7c0-0.9,0.7-1.7,1.7-1.7
			c0.5,0,0.9,0.2,1.2,0.5l7,7.1v-7.5H189.5z"/>
		<path class="st0" d="M202,37.4h-4.8v7.1h-1.5v-7.1h-4.8v-1.5H202V37.4z"/>
	</g>
</g>
</svg>
