<svg id="Partner" xmlns="http://www.w3.org/2000/svg" viewBox="0 0 400 180"><defs><style>.cls-1{fill:#fff;}</style></defs><title>jz17-partner-vivende</title><path class="cls-1" d="M121.47,64.68,89,108.19q-4,5.41-8.15,5.41t-8.15-5.48L41,64.68H59.58L81.1,94.49l21.65-29.81Z"/><path class="cls-1" d="M134.85,113H124.42V79.22h10.43Z"/><path class="cls-1" d="M192.91,79.22l-22.74,30.46q-2.81,3.79-5.71,3.79t-5.71-3.84L136.58,79.22h13l15.06,20.87,15.16-20.87Z"/><path class="cls-1" d="M231.24,104.25,224.5,113H193.66V79.22h37.58L224.5,88H204.14v3.56H229.6l-6.74,8.7H204.14v4Z"/><path class="cls-1" d="M273.1,108.6q0,4.59-4.16,4.59a8.84,8.84,0,0,1-5.71-2.25L243.49,94.43V113H233V83.57a4.23,4.23,0,0,1,1.19-3.09,4.53,4.53,0,0,1,3.39-1.22,8.13,8.13,0,0,1,5.29,2l19.74,16.52V79.22H273.1Z"/><path class="cls-1" d="M320.17,95.78a15.42,15.42,0,0,1-5.78,12.28Q308.61,113,299.82,113h-22.6V91.9H287.7v12.35h12.12A11.17,11.17,0,0,0,307,102a7.07,7.07,0,0,0,2.81-5.82A7.31,7.31,0,0,0,307,90.28,10.9,10.9,0,0,0,299.82,88h-22.6l6.64-8.75h16q8.93,0,14.64,4.58A14.63,14.63,0,0,1,320.17,95.78Z"/><path class="cls-1" d="M359,104.25l-6.74,8.7h-29.9V79.22H359L352.26,88H332.85v3.56h24.52l-6.74,8.7H332.85v4Z"/><path class="cls-1" d="M138.27,75.41h-1.89V64.57h1.89Zm12.73,0h-4.11l-7-3.58a2.11,2.11,0,0,1,0-3.77l6.86-3.5h4.12L140.25,70Z"/><path class="cls-1" d="M165.52,72.47a2.94,2.94,0,0,1-2.95,2.95h-8.41a2.94,2.94,0,0,1-2.95-2.95v-5a2.94,2.94,0,0,1,2.95-2.95h8.41a2.94,2.94,0,0,1,2.95,2.95Zm-1.89,1.06V66.46H153.1v7.07Z"/><path class="cls-1" d="M182.14,64.57v8.9A2.13,2.13,0,0,1,178.51,75l-8.9-9v9.49h-1.89v-8.9A2.13,2.13,0,0,1,171.36,65l8.9,9V64.57Z"/><path class="cls-1" d="M198.61,72.47a2.94,2.94,0,0,1-2.95,2.95H184.31V73.53h12.42V70.93h-10A2.94,2.94,0,0,1,183.8,68v-.47a2.94,2.94,0,0,1,2.95-2.95H198.1v1.89H185.68V69h10A2.94,2.94,0,0,1,198.61,72Z"/><path class="cls-1" d="M214.56,72.47a2.94,2.94,0,0,1-2.95,2.95h-8.41a2.94,2.94,0,0,1-2.95-2.95v-7.9h1.89v9h10.53v-9h1.89Z"/><path class="cls-1" d="M228.24,75.41h-8.53a2.94,2.94,0,0,1-2.95-2.95v-7.9h1.89v9h9.59Z"/><path class="cls-1" d="M243.8,75.41H232.45a2.94,2.94,0,0,1-2.95-2.95v-5a2.94,2.94,0,0,1,2.95-2.95H243.8v1.89H231.39V69H243.8v1.89H231.39v2.59H243.8Z"/><path class="cls-1" d="M260.43,64.57v8.9A2.13,2.13,0,0,1,256.79,75l-8.9-9v9.49H246v-8.9A2.13,2.13,0,0,1,249.64,65l8.9,9V64.57Z"/><path class="cls-1" d="M276.22,66.46H270.1v9h-1.89v-9h-6.13V64.57h14.14Z"/></svg>