<svg id="Partner" xmlns="http://www.w3.org/2000/svg" viewBox="0 0 400 180"><defs><style>.cls-1{fill:#000;}</style></defs><title>jz17-partner-webstep</title><path class="cls-1" d="M134.8,118.19c-7.75,0-13.14-3.87-13.14-12V74.48C121.66,66.81,126.3,62,134,62h24.09v8.17H136.91c-4.38,0-7.08,1.68-7.08,6.32v9.6h24v8.09h-24v9.43c0,4.72,2.7,6.4,7.16,6.4h21.14v8.17Z"/><path class="cls-1" d="M222.88,70.18c-5.53,0-7.11,1.94-7.16,5.37,0,1.26,0,2.75,0,4.4a5.55,5.55,0,0,0,1.94,4.55c1.6,1.26,3.29,1.26,5.23,1.26H230c7.24,0,14,4,14,11.54v8.93c0,7.92-5.24,12-12.9,12H208.43V110h20.18c7.83,0,7.08-4.13,7.08-10.36,0-4.55-2.7-5.73-6.82-5.73h-8.68c-6.82,0-12.64-4.49-12.64-11.82V73.89a12.09,12.09,0,0,1,4.16-9.37C213.79,62.74,216.82,62,220,62h21.3v8.17Z"/><path class="cls-1" d="M265.82,70.18v48h-8.17v-48H245.19V62h33v8.17Z"/><path class="cls-1" d="M198.29,87.85c4.08,1.94,6.09,5.57,6.09,11.15v6.3c0,7.83-4,12.89-12,12.89H164.11V62h20.17l3.95.1c8,0,12,5.17,12,12.72V80c0,3.49-.32,5.82-1.82,7.77Zm95.41,30.34c-7.75,0-13.14-3.87-13.14-12V74.48c0-7.67,4.63-12.47,12.38-12.47H317v8.17H295.81c-4.38,0-7.08,1.68-7.08,6.32v9.6h24v8.09h-24v9.43c0,4.72,2.69,6.4,7.16,6.4H317v8.17Zm-121.45-48V86.1h13.28c3.87,0,6.49-1.58,6.49-5.71V76.27c0-4.3-2.78-6.09-6.74-6.09Zm24,30.25c0-4.13-2.27-6.15-6.32-6.25h-17.6V110h17.6c4,.09,6.32-1.68,6.32-5.81Z"/><path class="cls-1" d="M323,70.18V62h23.46c6.82,0,12.38,3.79,12.47,11,.08,4,.08,5.29.08,9.33,0,7.5-4.63,12-12.13,12H331.16v23.77H323V86.08h21.1c4.46,0,6.74-.42,6.74-5.05V75.82c0-3.88-3-5.64-6.57-5.64Z"/><path class="cls-1" d="M110.82,62l-9.67,41.94-.41,3.48-.4-3.58-7.77-36c-.67-3.54-2.56-6.11-6.52-6.11h0c-4,0-5.85,2.57-6.52,6.11l-7.78,36-.42,3.54-.39-3.51L63.69,72.56C62.21,65.54,57.46,62,50.3,62L41,62v8h9.08a5.83,5.83,0,0,1,5.68,4.52l8.7,37.81c.76,3.2,3.09,6,6.63,6A6.81,6.81,0,0,0,78,112.77l7.73-35.86.3-2.55.28,2.56,7.73,35.85a6.81,6.81,0,0,0,6.94,5.48c3.54,0,5.87-2.78,6.63-6L119.19,62Z"/></svg>