<svg xmlns="http://www.w3.org/2000/svg" viewBox="0 0 400 180"><defs><style>.cls-1{fill:#000;}</style></defs><title>jz17-partner-xebialabs</title><g id="Partner"><path class="cls-1" d="M60,89.44,42.21,64h12L66.78,83.72,79.22,64H90.76L73.27,89.44l19.37,27.89H80.58L66.48,94.8l-14,22.54H41Z"/><path class="cls-1" d="M97.47,102.41a9.37,9.37,0,0,0,9.73,8.59,11.9,11.9,0,0,0,9.73-4.9l6.48,4.9a18.84,18.84,0,0,1-15.3,7.24c-10.93,0-19.68-7.61-19.68-19s8.75-19,19.68-19c10.1,0,17,7.09,17,19.68v2.49ZM116,95.63c-.08-5.28-3.54-8.59-9.2-8.59-5.35,0-8.67,3.39-9.35,8.59Z"/><path class="cls-1" d="M127.47,60.35h9V85.75h.23c1.88-2.34,5.5-5.5,12.29-5.5,10.33,0,17.49,8.29,17.49,19s-6.71,19-17.87,19c-5.05,0-9.8-2-12.44-6.33h-.15v5.43h-8.59Zm19.37,28c-6.63,0-10.63,5.2-10.63,10.86s4,10.86,10.63,10.86,10.63-5.2,10.63-10.86S153.48,88.39,146.85,88.39Z"/><path class="cls-1" d="M175,63.44a5.44,5.44,0,1,1-5.73,5.43A5.57,5.57,0,0,1,175,63.44ZM170.6,81.15h9v36.19h-9Z"/><path class="cls-1" d="M208.14,112.36h-.23c-2.56,4.07-6.79,5.88-11.61,5.88-6.71,0-13.19-3.69-13.19-10.86,0-11.76,13.72-12.59,22.77-12.59h2.26v-1c0-4.45-3.47-6.78-8.29-6.78a14.23,14.23,0,0,0-9.65,3.77l-4.75-4.75c4-4.07,9.65-5.8,15.38-5.8,15.46,0,15.46,11.16,15.46,16.28v20.81h-8.14Zm-.53-11.23h-1.88c-5,0-13.57.38-13.57,5.58,0,3.32,3.39,4.75,6.33,4.75,6.18,0,9.12-3.24,9.12-8.29Z"/><path class="cls-1" d="M223.22,64h7.24v46.59H255v6.79H223.22Z"/><path class="cls-1" d="M259.26,86a21.08,21.08,0,0,1,14.17-5.28c10.55,0,14.93,5.73,14.93,11.91v18.24a55.06,55.06,0,0,0,.3,6.48h-6q-.23-2.71-.23-5.43h-.15c-3,4.6-7.09,6.33-12.51,6.33-6.63,0-12.36-3.77-12.36-10.7,0-9.2,8.82-12.36,19.68-12.36h5V93.67c0-3.69-2.71-7.54-8.52-7.54-5.2,0-7.69,2.19-10.18,4.07Zm19.15,14.17c-6.41,0-14.25,1.13-14.25,6.86,0,4.07,3,5.81,7.69,5.81,7.54,0,10.18-5.58,10.18-10.4v-2.26Z"/><path class="cls-1" d="M292.2,60.35H299V86.73h.15c2.41-3.69,7.31-6,12.44-6,11,0,18.17,8.07,18.17,18.77,0,10.55-7.09,18.77-18.17,18.77-4.82,0-9.8-2.19-12.44-6H299v5.13H292.2Zm30.31,39.13C322.51,92.23,318,87,310.75,87S299,92.23,299,99.47s4.52,12.44,11.76,12.44S322.51,106.71,322.51,99.47Z"/><path class="cls-1" d="M352.74,90.58A9.06,9.06,0,0,0,345.43,87c-3.17,0-6,1.43-6,4,0,4.3,6.11,4.9,9.12,5.58C354.48,98,359,100.3,359,107c0,8.07-7.39,11.23-14.47,11.23-5.88,0-10.25-1.51-13.8-6.33l5.13-4.22c2.19,2.19,4.75,4.22,8.67,4.22,3.47,0,7.24-1.43,7.24-4.52,0-4.07-5.65-4.82-8.59-5.5-5.8-1.43-10.93-3.32-10.93-10.18,0-7.46,6.86-11,13.57-11,4.75,0,9.65,1.66,12.21,5.88Z"/></g></svg>