<?xml version="1.0" encoding="utf-8"?>
<!-- Generator: Adobe Illustrator 21.1.0, SVG Export Plug-In . SVG Version: 6.00 Build 0)  -->
<svg version="1.1" xmlns="http://www.w3.org/2000/svg" xmlns:xlink="http://www.w3.org/1999/xlink" x="0px" y="0px"
	 viewBox="0 0 518 518" style="enable-background:new 0 0 518 518;" xml:space="preserve">
<style type="text/css">
	.st0{display:none;}
	.st1{display:inline;fill:none;stroke:#010101;stroke-width:11.3386;stroke-linecap:round;stroke-linejoin:round;}
	.st2{display:inline;fill:none;stroke:#010101;stroke-width:14.1732;stroke-linecap:round;stroke-linejoin:round;}
	.st3{display:inline;}
	.st4{fill:none;stroke:#010101;stroke-width:14.1732;stroke-linecap:round;stroke-linejoin:round;}
	.st5{fill:none;stroke:#000000;stroke-miterlimit:10;}
	.st6{fill:none;}
	.st7{fill:#212121;}
</style>
<g id="Layer_2" class="st0">
</g>
<g id="Layer_1" class="st0">
	<g class="st3">
		<g id="XMLID_1_">
			<g>
				<polygon class="st5" points="0,-1679.9 0,-1708 28.1,-1708 56.1,-1708 84.2,-1708 112.3,-1708 140.3,-1708 168.4,-1708 
					196.5,-1708 224.5,-1708 252.6,-1708 280.7,-1708 308.7,-1708 336.8,-1708 364.9,-1708 392.9,-1708 421,-1708 449,-1708 
					477.1,-1708 505.2,-1708 533.3,-1708 561.3,-1708 589.4,-1708 617.5,-1708 645.5,-1708 673.6,-1708 701.6,-1708 729.7,-1708 
					757.8,-1708 785.8,-1708 813.9,-1708 842,-1708 870,-1708 898.1,-1708 926.2,-1708 954.2,-1708 982.3,-1708 1010.4,-1708 
					1038.4,-1708 1066.5,-1708 1094.6,-1708 1122.6,-1708 1150.7,-1708 1178.8,-1708 1206.8,-1708 1234.9,-1708 1263,-1708 
					1291,-1708 1319.1,-1708 1347.2,-1708 1375.2,-1708 1403.3,-1708 1431.4,-1708 1459.4,-1708 1487.5,-1708 1515.6,-1708 
					1543.6,-1708 1571.7,-1708 1599.8,-1708 1627.8,-1708 1655.9,-1708 1683.9,-1708 1712,-1708 1740.1,-1708 1768.2,-1708 
					1796.2,-1708 1824.3,-1708 1852.3,-1708 1880.4,-1708 1908.5,-1708 1936.5,-1708 1964.6,-1708 1992.7,-1708 2020.7,-1708 
					2048.8,-1708 2076.9,-1708 2104.9,-1708 2133,-1708 2161.1,-1708 2189.1,-1708 2217.2,-1708 2245.3,-1708 2273.3,-1708 
					2301.4,-1708 2329.5,-1708 2357.5,-1708 2385.6,-1708 2413.7,-1708 2441.7,-1708 2469.8,-1708 2497.9,-1708 2525.9,-1708 
					2554,-1708 2582.1,-1708 2610.1,-1708 2638.2,-1708 2666.3,-1708 2694.3,-1708 2722.4,-1708 2750.4,-1708 2778.5,-1708 
					2806.6,-1708 2834.6,-1708 2834.6,-1679.9 2834.6,-1651.9 2834.6,-1623.8 2834.6,-1595.7 2834.6,-1567.7 2834.6,-1539.6 
					2834.6,-1511.5 2834.6,-1483.5 2834.6,-1455.4 2834.6,-1427.3 2834.6,-1399.3 2834.6,-1371.2 2834.6,-1343.1 2834.6,-1315.1 
					2834.6,-1287 2834.6,-1258.9 2834.6,-1230.9 2834.6,-1202.8 2834.6,-1174.8 2834.6,-1146.7 2834.6,-1118.6 2834.6,-1090.6 
					2834.6,-1062.5 2834.6,-1034.4 2834.6,-1006.4 2834.6,-978.3 2834.6,-950.2 2834.6,-922.2 2834.6,-894.1 2834.6,-866 
					2834.6,-838 2834.6,-809.9 2834.6,-781.8 2834.6,-753.8 2834.6,-725.7 2834.6,-697.6 2834.6,-669.6 2834.6,-641.5 
					2834.6,-613.4 2834.6,-585.4 2834.6,-557.3 2834.6,-529.2 2834.6,-501.2 2834.6,-473.1 2834.6,-445 2834.6,-417 2834.6,-388.9 
					2834.6,-360.8 2834.6,-332.8 2834.6,-304.7 2834.6,-276.6 2834.6,-248.6 2834.6,-220.5 2834.6,-192.4 2834.6,-164.4 
					2834.6,-136.3 2834.6,-108.3 2834.6,-80.2 2834.6,-52.1 2834.6,-24 2834.6,4 2834.6,32.1 2834.6,60.2 2834.6,88.2 2834.6,116.3 
					2834.6,144.3 2834.6,172.4 2834.6,200.5 2834.6,228.5 2834.6,256.6 2834.6,284.7 2834.6,312.7 2834.6,340.8 2834.6,368.9 
					2834.6,396.9 2834.6,425 2834.6,453.1 2834.6,481.1 2834.6,509.2 2834.6,537.3 2834.6,565.3 2834.6,593.4 2834.6,621.5 
					2834.6,649.5 2834.6,677.6 2834.6,705.7 2834.6,733.7 2834.6,761.8 2834.6,789.9 2834.6,817.9 2834.6,846 2834.6,874 
					2834.6,902.1 2834.6,930.2 2834.6,958.3 2834.6,986.3 2834.6,1014.4 2834.6,1042.4 2834.6,1070.5 2834.6,1098.6 2834.6,1126.7 
					2806.6,1126.7 2778.5,1126.7 2750.4,1126.7 2722.4,1126.7 2694.3,1126.7 2666.3,1126.7 2638.2,1126.7 2610.1,1126.7 
					2582.1,1126.7 2554,1126.7 2525.9,1126.7 2497.9,1126.7 2469.8,1126.7 2441.7,1126.7 2413.7,1126.7 2385.6,1126.7 
					2357.5,1126.7 2329.5,1126.7 2301.4,1126.7 2273.3,1126.7 2245.3,1126.7 2217.2,1126.7 2189.1,1126.7 2161.1,1126.7 
					2133,1126.7 2104.9,1126.7 2076.9,1126.7 2048.8,1126.7 2020.7,1126.7 1992.7,1126.7 1964.6,1126.7 1936.5,1126.7 
					1908.5,1126.7 1880.4,1126.7 1852.3,1126.7 1824.3,1126.7 1796.2,1126.7 1768.2,1126.7 1740.1,1126.7 1712,1126.7 
					1683.9,1126.7 1655.9,1126.7 1627.8,1126.7 1599.8,1126.7 1571.7,1126.7 1543.6,1126.7 1515.6,1126.7 1487.5,1126.7 
					1459.4,1126.7 1431.4,1126.7 1403.3,1126.7 1375.2,1126.7 1347.2,1126.7 1319.1,1126.7 1291,1126.7 1263,1126.7 1234.9,1126.7 
					1206.8,1126.7 1178.8,1126.7 1150.7,1126.7 1122.6,1126.7 1094.6,1126.7 1066.5,1126.7 1038.4,1126.7 1010.4,1126.7 
					982.3,1126.7 954.2,1126.7 926.2,1126.7 898.1,1126.7 870,1126.7 842,1126.7 813.9,1126.7 785.8,1126.7 757.8,1126.7 
					729.7,1126.7 701.6,1126.7 673.6,1126.7 645.5,1126.7 617.5,1126.7 589.4,1126.7 561.3,1126.7 533.3,1126.7 505.2,1126.7 
					477.1,1126.7 449,1126.7 421,1126.7 392.9,1126.7 364.9,1126.7 336.8,1126.7 308.7,1126.7 280.7,1126.7 252.6,1126.7 
					224.5,1126.7 196.5,1126.7 168.4,1126.7 140.3,1126.7 112.3,1126.7 84.2,1126.7 56.1,1126.7 28.1,1126.7 0,1126.7 0,1098.6 
					0,1070.5 0,1042.4 0,1014.4 0,986.3 0,958.3 0,930.2 0,902.1 0,874 0,846 0,817.9 0,789.9 0,761.8 0,733.7 0,705.7 0,677.6 
					0,649.5 0,621.5 0,593.4 0,565.3 0,537.3 0,509.2 0,481.1 0,453.1 0,425 0,396.9 0,368.9 0,340.8 0,312.7 0,284.7 0,256.6 
					0,228.5 0,200.5 0,172.4 0,144.3 0,116.3 0,88.2 0,60.2 0,32.1 0,4 0,-24 0,-52.1 0,-80.2 0,-108.3 0,-136.3 0,-164.4 0,-192.4 
					0,-220.5 0,-248.6 0,-276.6 0,-304.7 0,-332.8 0,-360.8 0,-388.9 0,-417 0,-445 0,-473.1 0,-501.2 0,-529.2 0,-557.3 0,-585.4 
					0,-613.4 0,-641.5 0,-669.6 0,-697.6 0,-725.7 0,-753.8 0,-781.8 0,-809.9 0,-838 0,-866 0,-894.1 0,-922.2 0,-950.2 0,-978.3 
					0,-1006.4 0,-1034.4 0,-1062.5 0,-1090.6 0,-1118.6 0,-1146.7 0,-1174.8 0,-1202.8 0,-1230.9 0,-1258.9 0,-1287 0,-1315.1 
					0,-1343.1 0,-1371.2 0,-1399.3 0,-1427.3 0,-1455.4 0,-1483.5 0,-1511.5 0,-1539.6 0,-1567.7 0,-1595.7 0,-1623.8 0,-1651.9 
									"/>
				<polyline class="st5" points="0,509.2 28.1,509.2 56.1,509.2 84.2,509.2 112.3,509.2 140.3,509.2 168.4,509.2 196.5,509.2 
					224.5,509.2 252.6,509.2 280.7,509.2 308.7,509.2 336.8,509.2 364.9,509.2 392.9,509.2 421,509.2 449,509.2 477.1,509.2 
					505.2,509.2 533.3,509.2 561.3,509.2 589.4,509.2 617.5,509.2 645.5,509.2 673.6,509.2 701.6,509.2 729.7,509.2 757.8,509.2 
					785.8,509.2 813.9,509.2 842,509.2 870,509.2 898.1,509.2 926.2,509.2 954.2,509.2 982.3,509.2 1010.4,509.2 1038.4,509.2 
					1066.5,509.2 1094.6,509.2 1122.6,509.2 1150.7,509.2 1178.8,509.2 1206.8,509.2 1234.9,509.2 1263,509.2 1291,509.2 
					1319.1,509.2 1347.2,509.2 1375.2,509.2 1403.3,509.2 1431.4,509.2 1459.4,509.2 1487.5,509.2 1515.6,509.2 1543.6,509.2 
					1571.7,509.2 1599.8,509.2 1627.8,509.2 1655.9,509.2 1683.9,509.2 1712,509.2 1740.1,509.2 1768.2,509.2 1796.2,509.2 
					1824.3,509.2 1852.3,509.2 1880.4,509.2 1908.5,509.2 1936.5,509.2 1964.6,509.2 1992.7,509.2 2020.7,509.2 2048.8,509.2 
					2076.9,509.2 2104.9,509.2 2133,509.2 2161.1,509.2 2189.1,509.2 2217.2,509.2 2245.3,509.2 2273.3,509.2 2301.4,509.2 
					2329.5,509.2 2357.5,509.2 2385.6,509.2 2413.7,509.2 2441.7,509.2 2469.8,509.2 2497.9,509.2 2525.9,509.2 2554,509.2 
					2582.1,509.2 2610.1,509.2 2638.2,509.2 2666.3,509.2 2694.3,509.2 2722.4,509.2 2750.4,509.2 2778.5,509.2 2806.6,509.2 
					2834.6,509.2 				"/>
				<polyline class="st5" points="0,481.1 28.1,481.1 56.1,481.1 84.2,481.1 112.3,481.1 140.3,481.1 168.4,481.1 196.5,481.1 
					224.5,481.1 252.6,481.1 280.7,481.1 308.7,481.1 336.8,481.1 364.9,481.1 392.9,481.1 421,481.1 449,481.1 477.1,481.1 
					505.2,481.1 533.3,481.1 561.3,481.1 589.4,481.1 617.5,481.1 645.5,481.1 673.6,481.1 701.6,481.1 729.7,481.1 757.8,481.1 
					785.8,481.1 813.9,481.1 842,481.1 870,481.1 898.1,481.1 926.2,481.1 954.2,481.1 982.3,481.1 1010.4,481.1 1038.4,481.1 
					1066.5,481.1 1094.6,481.1 1122.6,481.1 1150.7,481.1 1178.8,481.1 1206.8,481.1 1234.9,481.1 1263,481.1 1291,481.1 
					1319.1,481.1 1347.2,481.1 1375.2,481.1 1403.3,481.1 1431.4,481.1 1459.4,481.1 1487.5,481.1 1515.6,481.1 1543.6,481.1 
					1571.7,481.1 1599.8,481.1 1627.8,481.1 1655.9,481.1 1683.9,481.1 1712,481.1 1740.1,481.1 1768.2,481.1 1796.2,481.1 
					1824.3,481.1 1852.3,481.1 1880.4,481.1 1908.5,481.1 1936.5,481.1 1964.6,481.1 1992.7,481.1 2020.7,481.1 2048.8,481.1 
					2076.9,481.1 2104.9,481.1 2133,481.1 2161.1,481.1 2189.1,481.1 2217.2,481.1 2245.3,481.1 2273.3,481.1 2301.4,481.1 
					2329.5,481.1 2357.5,481.1 2385.6,481.1 2413.7,481.1 2441.7,481.1 2469.8,481.1 2497.9,481.1 2525.9,481.1 2554,481.1 
					2582.1,481.1 2610.1,481.1 2638.2,481.1 2666.3,481.1 2694.3,481.1 2722.4,481.1 2750.4,481.1 2778.5,481.1 2806.6,481.1 
					2834.6,481.1 				"/>
				<polyline class="st5" points="0,453.1 28.1,453.1 56.1,453.1 84.2,453.1 112.3,453.1 140.3,453.1 168.4,453.1 196.5,453.1 
					224.5,453.1 252.6,453.1 280.7,453.1 308.7,453.1 336.8,453.1 364.9,453.1 392.9,453.1 421,453.1 449,453.1 477.1,453.1 
					505.2,453.1 533.3,453.1 561.3,453.1 589.4,453.1 617.5,453.1 645.5,453.1 673.6,453.1 701.6,453.1 729.7,453.1 757.8,453.1 
					785.8,453.1 813.9,453.1 842,453.1 870,453.1 898.1,453.1 926.2,453.1 954.2,453.1 982.3,453.1 1010.4,453.1 1038.4,453.1 
					1066.5,453.1 1094.6,453.1 1122.6,453.1 1150.7,453.1 1178.8,453.1 1206.8,453.1 1234.9,453.1 1263,453.1 1291,453.1 
					1319.1,453.1 1347.2,453.1 1375.2,453.1 1403.3,453.1 1431.4,453.1 1459.4,453.1 1487.5,453.1 1515.6,453.1 1543.6,453.1 
					1571.7,453.1 1599.8,453.1 1627.8,453.1 1655.9,453.1 1683.9,453.1 1712,453.1 1740.1,453.1 1768.2,453.1 1796.2,453.1 
					1824.3,453.1 1852.3,453.1 1880.4,453.1 1908.5,453.1 1936.5,453.1 1964.6,453.1 1992.7,453.1 2020.7,453.1 2048.8,453.1 
					2076.9,453.1 2104.9,453.1 2133,453.1 2161.1,453.1 2189.1,453.1 2217.2,453.1 2245.3,453.1 2273.3,453.1 2301.4,453.1 
					2329.5,453.1 2357.5,453.1 2385.6,453.1 2413.7,453.1 2441.7,453.1 2469.8,453.1 2497.9,453.1 2525.9,453.1 2554,453.1 
					2582.1,453.1 2610.1,453.1 2638.2,453.1 2666.3,453.1 2694.3,453.1 2722.4,453.1 2750.4,453.1 2778.5,453.1 2806.6,453.1 
					2834.6,453.1 				"/>
				<polyline class="st5" points="0,425 28.1,425 56.1,425 84.2,425 112.3,425 140.3,425 168.4,425 196.5,425 224.5,425 252.6,425 
					280.7,425 308.7,425 336.8,425 364.9,425 392.9,425 421,425 449,425 477.1,425 505.2,425 533.3,425 561.3,425 589.4,425 
					617.5,425 645.5,425 673.6,425 701.6,425 729.7,425 757.8,425 785.8,425 813.9,425 842,425 870,425 898.1,425 926.2,425 
					954.2,425 982.3,425 1010.4,425 1038.4,425 1066.5,425 1094.6,425 1122.6,425 1150.7,425 1178.8,425 1206.8,425 1234.9,425 
					1263,425 1291,425 1319.1,425 1347.2,425 1375.2,425 1403.3,425 1431.4,425 1459.4,425 1487.5,425 1515.6,425 1543.6,425 
					1571.7,425 1599.8,425 1627.8,425 1655.9,425 1683.9,425 1712,425 1740.1,425 1768.2,425 1796.2,425 1824.3,425 1852.3,425 
					1880.4,425 1908.5,425 1936.5,425 1964.6,425 1992.7,425 2020.7,425 2048.8,425 2076.9,425 2104.9,425 2133,425 2161.1,425 
					2189.1,425 2217.2,425 2245.3,425 2273.3,425 2301.4,425 2329.5,425 2357.5,425 2385.6,425 2413.7,425 2441.7,425 2469.8,425 
					2497.9,425 2525.9,425 2554,425 2582.1,425 2610.1,425 2638.2,425 2666.3,425 2694.3,425 2722.4,425 2750.4,425 2778.5,425 
					2806.6,425 2834.6,425 				"/>
				<polyline class="st5" points="0,396.9 28.1,396.9 56.1,396.9 84.2,396.9 112.3,396.9 140.3,396.9 168.4,396.9 196.5,396.9 
					224.5,396.9 252.6,396.9 280.7,396.9 308.7,396.9 336.8,396.9 364.9,396.9 392.9,396.9 421,396.9 449,396.9 477.1,396.9 
					505.2,396.9 533.3,396.9 561.3,396.9 589.4,396.9 617.5,396.9 645.5,396.9 673.6,396.9 701.6,396.9 729.7,396.9 757.8,396.9 
					785.8,396.9 813.9,396.9 842,396.9 870,396.9 898.1,396.9 926.2,396.9 954.2,396.9 982.3,396.9 1010.4,396.9 1038.4,396.9 
					1066.5,396.9 1094.6,396.9 1122.6,396.9 1150.7,396.9 1178.8,396.9 1206.8,396.9 1234.9,396.9 1263,396.9 1291,396.9 
					1319.1,396.9 1347.2,396.9 1375.2,396.9 1403.3,396.9 1431.4,396.9 1459.4,396.9 1487.5,396.9 1515.6,396.9 1543.6,396.9 
					1571.7,396.9 1599.8,396.9 1627.8,396.9 1655.9,396.9 1683.9,396.9 1712,396.9 1740.1,396.9 1768.2,396.9 1796.2,396.9 
					1824.3,396.9 1852.3,396.9 1880.4,396.9 1908.5,396.9 1936.5,396.9 1964.6,396.9 1992.7,396.9 2020.7,396.9 2048.8,396.9 
					2076.9,396.9 2104.9,396.9 2133,396.9 2161.1,396.9 2189.1,396.9 2217.2,396.9 2245.3,396.9 2273.3,396.9 2301.4,396.9 
					2329.5,396.9 2357.5,396.9 2385.6,396.9 2413.7,396.9 2441.7,396.9 2469.8,396.9 2497.9,396.9 2525.9,396.9 2554,396.9 
					2582.1,396.9 2610.1,396.9 2638.2,396.9 2666.3,396.9 2694.3,396.9 2722.4,396.9 2750.4,396.9 2778.5,396.9 2806.6,396.9 
					2834.6,396.9 				"/>
				<polyline class="st5" points="0,368.9 28.1,368.9 56.1,368.9 84.2,368.9 112.3,368.9 140.3,368.9 168.4,368.9 196.5,368.9 
					224.5,368.9 252.6,368.9 280.7,368.9 308.7,368.9 336.8,368.9 364.9,368.9 392.9,368.9 421,368.9 449,368.9 477.1,368.9 
					505.2,368.9 533.3,368.9 561.3,368.9 589.4,368.9 617.5,368.9 645.5,368.9 673.6,368.9 701.6,368.9 729.7,368.9 757.8,368.9 
					785.8,368.9 813.9,368.9 842,368.9 870,368.9 898.1,368.9 926.2,368.9 954.2,368.9 982.3,368.9 1010.4,368.9 1038.4,368.9 
					1066.5,368.9 1094.6,368.9 1122.6,368.9 1150.7,368.9 1178.8,368.9 1206.8,368.9 1234.9,368.9 1263,368.9 1291,368.9 
					1319.1,368.9 1347.2,368.9 1375.2,368.9 1403.3,368.9 1431.4,368.9 1459.4,368.9 1487.5,368.9 1515.6,368.9 1543.6,368.9 
					1571.7,368.9 1599.8,368.9 1627.8,368.9 1655.9,368.9 1683.9,368.9 1712,368.9 1740.1,368.9 1768.2,368.9 1796.2,368.9 
					1824.3,368.9 1852.3,368.9 1880.4,368.9 1908.5,368.9 1936.5,368.9 1964.6,368.9 1992.7,368.9 2020.7,368.9 2048.8,368.9 
					2076.9,368.9 2104.9,368.9 2133,368.9 2161.1,368.9 2189.1,368.9 2217.2,368.9 2245.3,368.9 2273.3,368.9 2301.4,368.9 
					2329.5,368.9 2357.5,368.9 2385.6,368.9 2413.7,368.9 2441.7,368.9 2469.8,368.9 2497.9,368.9 2525.9,368.9 2554,368.9 
					2582.1,368.9 2610.1,368.9 2638.2,368.9 2666.3,368.9 2694.3,368.9 2722.4,368.9 2750.4,368.9 2778.5,368.9 2806.6,368.9 
					2834.6,368.9 				"/>
				<polyline class="st5" points="0,340.8 28.1,340.8 56.1,340.8 84.2,340.8 112.3,340.8 140.3,340.8 168.4,340.8 196.5,340.8 
					224.5,340.8 252.6,340.8 280.7,340.8 308.7,340.8 336.8,340.8 364.9,340.8 392.9,340.8 421,340.8 449,340.8 477.1,340.8 
					505.2,340.8 533.3,340.8 561.3,340.8 589.4,340.8 617.5,340.8 645.5,340.8 673.6,340.8 701.6,340.8 729.7,340.8 757.8,340.8 
					785.8,340.8 813.9,340.8 842,340.8 870,340.8 898.1,340.8 926.2,340.8 954.2,340.8 982.3,340.8 1010.4,340.8 1038.4,340.8 
					1066.5,340.8 1094.6,340.8 1122.6,340.8 1150.7,340.8 1178.8,340.8 1206.8,340.8 1234.9,340.8 1263,340.8 1291,340.8 
					1319.1,340.8 1347.2,340.8 1375.2,340.8 1403.3,340.8 1431.4,340.8 1459.4,340.8 1487.5,340.8 1515.6,340.8 1543.6,340.8 
					1571.7,340.8 1599.8,340.8 1627.8,340.8 1655.9,340.8 1683.9,340.8 1712,340.8 1740.1,340.8 1768.2,340.8 1796.2,340.8 
					1824.3,340.8 1852.3,340.8 1880.4,340.8 1908.5,340.8 1936.5,340.8 1964.6,340.8 1992.7,340.8 2020.7,340.8 2048.8,340.8 
					2076.9,340.8 2104.9,340.8 2133,340.8 2161.1,340.8 2189.1,340.8 2217.2,340.8 2245.3,340.8 2273.3,340.8 2301.4,340.8 
					2329.5,340.8 2357.5,340.8 2385.6,340.8 2413.7,340.8 2441.7,340.8 2469.8,340.8 2497.9,340.8 2525.9,340.8 2554,340.8 
					2582.1,340.8 2610.1,340.8 2638.2,340.8 2666.3,340.8 2694.3,340.8 2722.4,340.8 2750.4,340.8 2778.5,340.8 2806.6,340.8 
					2834.6,340.8 				"/>
				<polyline class="st5" points="0,312.7 28.1,312.7 56.1,312.7 84.2,312.7 112.3,312.7 140.3,312.7 168.4,312.7 196.5,312.7 
					224.5,312.7 252.6,312.7 280.7,312.7 308.7,312.7 336.8,312.7 364.9,312.7 392.9,312.7 421,312.7 449,312.7 477.1,312.7 
					505.2,312.7 533.3,312.7 561.3,312.7 589.4,312.7 617.5,312.7 645.5,312.7 673.6,312.7 701.6,312.7 729.7,312.7 757.8,312.7 
					785.8,312.7 813.9,312.7 842,312.7 870,312.7 898.1,312.7 926.2,312.7 954.2,312.7 982.3,312.7 1010.4,312.7 1038.4,312.7 
					1066.5,312.7 1094.6,312.7 1122.6,312.7 1150.7,312.7 1178.8,312.7 1206.8,312.7 1234.9,312.7 1263,312.7 1291,312.7 
					1319.1,312.7 1347.2,312.7 1375.2,312.7 1403.3,312.7 1431.4,312.7 1459.4,312.7 1487.5,312.7 1515.6,312.7 1543.6,312.7 
					1571.7,312.7 1599.8,312.7 1627.8,312.7 1655.9,312.7 1683.9,312.7 1712,312.7 1740.1,312.7 1768.2,312.7 1796.2,312.7 
					1824.3,312.7 1852.3,312.7 1880.4,312.7 1908.5,312.7 1936.5,312.7 1964.6,312.7 1992.7,312.7 2020.7,312.7 2048.8,312.7 
					2076.9,312.7 2104.9,312.7 2133,312.7 2161.1,312.7 2189.1,312.7 2217.2,312.7 2245.3,312.7 2273.3,312.7 2301.4,312.7 
					2329.5,312.7 2357.5,312.7 2385.6,312.7 2413.7,312.7 2441.7,312.7 2469.8,312.7 2497.9,312.7 2525.9,312.7 2554,312.7 
					2582.1,312.7 2610.1,312.7 2638.2,312.7 2666.3,312.7 2694.3,312.7 2722.4,312.7 2750.4,312.7 2778.5,312.7 2806.6,312.7 
					2834.6,312.7 				"/>
				<polyline class="st5" points="0,284.7 28.1,284.7 56.1,284.7 84.2,284.7 112.3,284.7 140.3,284.7 168.4,284.7 196.5,284.7 
					224.5,284.7 252.6,284.7 280.7,284.7 308.7,284.7 336.8,284.7 364.9,284.7 392.9,284.7 421,284.7 449,284.7 477.1,284.7 
					505.2,284.7 533.3,284.7 561.3,284.7 589.4,284.7 617.5,284.7 645.5,284.7 673.6,284.7 701.6,284.7 729.7,284.7 757.8,284.7 
					785.8,284.7 813.9,284.7 842,284.7 870,284.7 898.1,284.7 926.2,284.7 954.2,284.7 982.3,284.7 1010.4,284.7 1038.4,284.7 
					1066.5,284.7 1094.6,284.7 1122.6,284.7 1150.7,284.7 1178.8,284.7 1206.8,284.7 1234.9,284.7 1263,284.7 1291,284.7 
					1319.1,284.7 1347.2,284.7 1375.2,284.7 1403.3,284.7 1431.4,284.7 1459.4,284.7 1487.5,284.7 1515.6,284.7 1543.6,284.7 
					1571.7,284.7 1599.8,284.7 1627.8,284.7 1655.9,284.7 1683.9,284.7 1712,284.7 1740.1,284.7 1768.2,284.7 1796.2,284.7 
					1824.3,284.7 1852.3,284.7 1880.4,284.7 1908.5,284.7 1936.5,284.7 1964.6,284.7 1992.7,284.7 2020.7,284.7 2048.8,284.7 
					2076.9,284.7 2104.9,284.7 2133,284.7 2161.1,284.7 2189.1,284.7 2217.2,284.7 2245.3,284.7 2273.3,284.7 2301.4,284.7 
					2329.5,284.7 2357.5,284.7 2385.6,284.7 2413.7,284.7 2441.7,284.7 2469.8,284.7 2497.9,284.7 2525.9,284.7 2554,284.7 
					2582.1,284.7 2610.1,284.7 2638.2,284.7 2666.3,284.7 2694.3,284.7 2722.4,284.7 2750.4,284.7 2778.5,284.7 2806.6,284.7 
					2834.6,284.7 				"/>
				<polyline class="st5" points="0,256.6 28.1,256.6 56.1,256.6 84.2,256.6 112.3,256.6 140.3,256.6 168.4,256.6 196.5,256.6 
					224.5,256.6 252.6,256.6 280.7,256.6 308.7,256.6 336.8,256.6 364.9,256.6 392.9,256.6 421,256.6 449,256.6 477.1,256.6 
					505.2,256.6 533.3,256.6 561.3,256.6 589.4,256.6 617.5,256.6 645.5,256.6 673.6,256.6 701.6,256.6 729.7,256.6 757.8,256.6 
					785.8,256.6 813.9,256.6 842,256.6 870,256.6 898.1,256.6 926.2,256.6 954.2,256.6 982.3,256.6 1010.4,256.6 1038.4,256.6 
					1066.5,256.6 1094.6,256.6 1122.6,256.6 1150.7,256.6 1178.8,256.6 1206.8,256.6 1234.9,256.6 1263,256.6 1291,256.6 
					1319.1,256.6 1347.2,256.6 1375.2,256.6 1403.3,256.6 1431.4,256.6 1459.4,256.6 1487.5,256.6 1515.6,256.6 1543.6,256.6 
					1571.7,256.6 1599.8,256.6 1627.8,256.6 1655.9,256.6 1683.9,256.6 1712,256.6 1740.1,256.6 1768.2,256.6 1796.2,256.6 
					1824.3,256.6 1852.3,256.6 1880.4,256.6 1908.5,256.6 1936.5,256.6 1964.6,256.6 1992.7,256.6 2020.7,256.6 2048.8,256.6 
					2076.9,256.6 2104.9,256.6 2133,256.6 2161.1,256.6 2189.1,256.6 2217.2,256.6 2245.3,256.6 2273.3,256.6 2301.4,256.6 
					2329.5,256.6 2357.5,256.6 2385.6,256.6 2413.7,256.6 2441.7,256.6 2469.8,256.6 2497.9,256.6 2525.9,256.6 2554,256.6 
					2582.1,256.6 2610.1,256.6 2638.2,256.6 2666.3,256.6 2694.3,256.6 2722.4,256.6 2750.4,256.6 2778.5,256.6 2806.6,256.6 
					2834.6,256.6 				"/>
				<polyline class="st5" points="0,228.5 28.1,228.5 56.1,228.5 84.2,228.5 112.3,228.5 140.3,228.5 168.4,228.5 196.5,228.5 
					224.5,228.5 252.6,228.5 280.7,228.5 308.7,228.5 336.8,228.5 364.9,228.5 392.9,228.5 421,228.5 449,228.5 477.1,228.5 
					505.2,228.5 533.3,228.5 561.3,228.5 589.4,228.5 617.5,228.5 645.5,228.5 673.6,228.5 701.6,228.5 729.7,228.5 757.8,228.5 
					785.8,228.5 813.9,228.5 842,228.5 870,228.5 898.1,228.5 926.2,228.5 954.2,228.5 982.3,228.5 1010.4,228.5 1038.4,228.5 
					1066.5,228.5 1094.6,228.5 1122.6,228.5 1150.7,228.5 1178.8,228.5 1206.8,228.5 1234.9,228.5 1263,228.5 1291,228.5 
					1319.1,228.5 1347.2,228.5 1375.2,228.5 1403.3,228.5 1431.4,228.5 1459.4,228.5 1487.5,228.5 1515.6,228.5 1543.6,228.5 
					1571.7,228.5 1599.8,228.5 1627.8,228.5 1655.9,228.5 1683.9,228.5 1712,228.5 1740.1,228.5 1768.2,228.5 1796.2,228.5 
					1824.3,228.5 1852.3,228.5 1880.4,228.5 1908.5,228.5 1936.5,228.5 1964.6,228.5 1992.7,228.5 2020.7,228.5 2048.8,228.5 
					2076.9,228.5 2104.9,228.5 2133,228.5 2161.1,228.5 2189.1,228.5 2217.2,228.5 2245.3,228.5 2273.3,228.5 2301.4,228.5 
					2329.5,228.5 2357.5,228.5 2385.6,228.5 2413.7,228.5 2441.7,228.5 2469.8,228.5 2497.9,228.5 2525.9,228.5 2554,228.5 
					2582.1,228.5 2610.1,228.5 2638.2,228.5 2666.3,228.5 2694.3,228.5 2722.4,228.5 2750.4,228.5 2778.5,228.5 2806.6,228.5 
					2834.6,228.5 				"/>
				<polyline class="st5" points="0,200.5 28.1,200.5 56.1,200.5 84.2,200.5 112.3,200.5 140.3,200.5 168.4,200.5 196.5,200.5 
					224.5,200.5 252.6,200.5 280.7,200.5 308.7,200.5 336.8,200.5 364.9,200.5 392.9,200.5 421,200.5 449,200.5 477.1,200.5 
					505.2,200.5 533.3,200.5 561.3,200.5 589.4,200.5 617.5,200.5 645.5,200.5 673.6,200.5 701.6,200.5 729.7,200.5 757.8,200.5 
					785.8,200.5 813.9,200.5 842,200.5 870,200.5 898.1,200.5 926.2,200.5 954.2,200.5 982.3,200.5 1010.4,200.5 1038.4,200.5 
					1066.5,200.5 1094.6,200.5 1122.6,200.5 1150.7,200.5 1178.8,200.5 1206.8,200.5 1234.9,200.5 1263,200.5 1291,200.5 
					1319.1,200.5 1347.2,200.5 1375.2,200.5 1403.3,200.5 1431.4,200.5 1459.4,200.5 1487.5,200.5 1515.6,200.5 1543.6,200.5 
					1571.7,200.5 1599.8,200.5 1627.8,200.5 1655.9,200.5 1683.9,200.5 1712,200.5 1740.1,200.5 1768.2,200.5 1796.2,200.5 
					1824.3,200.5 1852.3,200.5 1880.4,200.5 1908.5,200.5 1936.5,200.5 1964.6,200.5 1992.7,200.5 2020.7,200.5 2048.8,200.5 
					2076.9,200.5 2104.9,200.5 2133,200.5 2161.1,200.5 2189.1,200.5 2217.2,200.5 2245.3,200.5 2273.3,200.5 2301.4,200.5 
					2329.5,200.5 2357.5,200.5 2385.6,200.5 2413.7,200.5 2441.7,200.5 2469.8,200.5 2497.9,200.5 2525.9,200.5 2554,200.5 
					2582.1,200.5 2610.1,200.5 2638.2,200.5 2666.3,200.5 2694.3,200.5 2722.4,200.5 2750.4,200.5 2778.5,200.5 2806.6,200.5 
					2834.6,200.5 				"/>
				<polyline class="st5" points="0,172.4 28.1,172.4 56.1,172.4 84.2,172.4 112.3,172.4 140.3,172.4 168.4,172.4 196.5,172.4 
					224.5,172.4 252.6,172.4 280.7,172.4 308.7,172.4 336.8,172.4 364.9,172.4 392.9,172.4 421,172.4 449,172.4 477.1,172.4 
					505.2,172.4 533.3,172.4 561.3,172.4 589.4,172.4 617.5,172.4 645.5,172.4 673.6,172.4 701.6,172.4 729.7,172.4 757.8,172.4 
					785.8,172.4 813.9,172.4 842,172.4 870,172.4 898.1,172.4 926.2,172.4 954.2,172.4 982.3,172.4 1010.4,172.4 1038.4,172.4 
					1066.5,172.4 1094.6,172.4 1122.6,172.4 1150.7,172.4 1178.8,172.4 1206.8,172.4 1234.9,172.4 1263,172.4 1291,172.4 
					1319.1,172.4 1347.2,172.4 1375.2,172.4 1403.3,172.4 1431.4,172.4 1459.4,172.4 1487.5,172.4 1515.6,172.4 1543.6,172.4 
					1571.7,172.4 1599.8,172.4 1627.8,172.4 1655.9,172.4 1683.9,172.4 1712,172.4 1740.1,172.4 1768.2,172.4 1796.2,172.4 
					1824.3,172.4 1852.3,172.4 1880.4,172.4 1908.5,172.4 1936.5,172.4 1964.6,172.4 1992.7,172.4 2020.7,172.4 2048.8,172.4 
					2076.9,172.4 2104.9,172.4 2133,172.4 2161.1,172.4 2189.1,172.4 2217.2,172.4 2245.3,172.4 2273.3,172.4 2301.4,172.4 
					2329.5,172.4 2357.5,172.4 2385.6,172.4 2413.7,172.4 2441.7,172.4 2469.8,172.4 2497.9,172.4 2525.9,172.4 2554,172.4 
					2582.1,172.4 2610.1,172.4 2638.2,172.4 2666.3,172.4 2694.3,172.4 2722.4,172.4 2750.4,172.4 2778.5,172.4 2806.6,172.4 
					2834.6,172.4 				"/>
				<polyline class="st5" points="0,144.3 28.1,144.3 56.1,144.3 84.2,144.3 112.3,144.3 140.3,144.3 168.4,144.3 196.5,144.3 
					224.5,144.3 252.6,144.3 280.7,144.3 308.7,144.3 336.8,144.3 364.9,144.3 392.9,144.3 421,144.3 449,144.3 477.1,144.3 
					505.2,144.3 533.3,144.3 561.3,144.3 589.4,144.3 617.5,144.3 645.5,144.3 673.6,144.3 701.6,144.3 729.7,144.3 757.8,144.3 
					785.8,144.3 813.9,144.3 842,144.3 870,144.3 898.1,144.3 926.2,144.3 954.2,144.3 982.3,144.3 1010.4,144.3 1038.4,144.3 
					1066.5,144.3 1094.6,144.3 1122.6,144.3 1150.7,144.3 1178.8,144.3 1206.8,144.3 1234.9,144.3 1263,144.3 1291,144.3 
					1319.1,144.3 1347.2,144.3 1375.2,144.3 1403.3,144.3 1431.4,144.3 1459.4,144.3 1487.5,144.3 1515.6,144.3 1543.6,144.3 
					1571.7,144.3 1599.8,144.3 1627.8,144.3 1655.9,144.3 1683.9,144.3 1712,144.3 1740.1,144.3 1768.2,144.3 1796.2,144.3 
					1824.3,144.3 1852.3,144.3 1880.4,144.3 1908.5,144.3 1936.5,144.3 1964.6,144.3 1992.7,144.3 2020.7,144.3 2048.8,144.3 
					2076.9,144.3 2104.9,144.3 2133,144.3 2161.1,144.3 2189.1,144.3 2217.2,144.3 2245.3,144.3 2273.3,144.3 2301.4,144.3 
					2329.5,144.3 2357.5,144.3 2385.6,144.3 2413.7,144.3 2441.7,144.3 2469.8,144.3 2497.9,144.3 2525.9,144.3 2554,144.3 
					2582.1,144.3 2610.1,144.3 2638.2,144.3 2666.3,144.3 2694.3,144.3 2722.4,144.3 2750.4,144.3 2778.5,144.3 2806.6,144.3 
					2834.6,144.3 				"/>
				<polyline class="st5" points="0,116.3 28.1,116.3 56.1,116.3 84.2,116.3 112.3,116.3 140.3,116.3 168.4,116.3 196.5,116.3 
					224.5,116.3 252.6,116.3 280.7,116.3 308.7,116.3 336.8,116.3 364.9,116.3 392.9,116.3 421,116.3 449,116.3 477.1,116.3 
					505.2,116.3 533.3,116.3 561.3,116.3 589.4,116.3 617.5,116.3 645.5,116.3 673.6,116.3 701.6,116.3 729.7,116.3 757.8,116.3 
					785.8,116.3 813.9,116.3 842,116.3 870,116.3 898.1,116.3 926.2,116.3 954.2,116.3 982.3,116.3 1010.4,116.3 1038.4,116.3 
					1066.5,116.3 1094.6,116.3 1122.6,116.3 1150.7,116.3 1178.8,116.3 1206.8,116.3 1234.9,116.3 1263,116.3 1291,116.3 
					1319.1,116.3 1347.2,116.3 1375.2,116.3 1403.3,116.3 1431.4,116.3 1459.4,116.3 1487.5,116.3 1515.6,116.3 1543.6,116.3 
					1571.7,116.3 1599.8,116.3 1627.8,116.3 1655.9,116.3 1683.9,116.3 1712,116.3 1740.1,116.3 1768.2,116.3 1796.2,116.3 
					1824.3,116.3 1852.3,116.3 1880.4,116.3 1908.5,116.3 1936.5,116.3 1964.6,116.3 1992.7,116.3 2020.7,116.3 2048.8,116.3 
					2076.9,116.3 2104.9,116.3 2133,116.3 2161.1,116.3 2189.1,116.3 2217.2,116.3 2245.3,116.3 2273.3,116.3 2301.4,116.3 
					2329.5,116.3 2357.5,116.3 2385.6,116.3 2413.7,116.3 2441.7,116.3 2469.8,116.3 2497.9,116.3 2525.9,116.3 2554,116.3 
					2582.1,116.3 2610.1,116.3 2638.2,116.3 2666.3,116.3 2694.3,116.3 2722.4,116.3 2750.4,116.3 2778.5,116.3 2806.6,116.3 
					2834.6,116.3 				"/>
				<polyline class="st5" points="0,88.2 28.1,88.2 56.1,88.2 84.2,88.2 112.3,88.2 140.3,88.2 168.4,88.2 196.5,88.2 224.5,88.2 
					252.6,88.2 280.7,88.2 308.7,88.2 336.8,88.2 364.9,88.2 392.9,88.2 421,88.2 449,88.2 477.1,88.2 505.2,88.2 533.3,88.2 
					561.3,88.2 589.4,88.2 617.5,88.2 645.5,88.2 673.6,88.2 701.6,88.2 729.7,88.2 757.8,88.2 785.8,88.2 813.9,88.2 842,88.2 
					870,88.2 898.1,88.2 926.2,88.2 954.2,88.2 982.3,88.2 1010.4,88.2 1038.4,88.2 1066.5,88.2 1094.6,88.2 1122.6,88.2 
					1150.7,88.2 1178.8,88.2 1206.8,88.2 1234.9,88.2 1263,88.2 1291,88.2 1319.1,88.2 1347.2,88.2 1375.2,88.2 1403.3,88.2 
					1431.4,88.2 1459.4,88.2 1487.5,88.2 1515.6,88.2 1543.6,88.2 1571.7,88.2 1599.8,88.2 1627.8,88.2 1655.9,88.2 1683.9,88.2 
					1712,88.2 1740.1,88.2 1768.2,88.2 1796.2,88.2 1824.3,88.2 1852.3,88.2 1880.4,88.2 1908.5,88.2 1936.5,88.2 1964.6,88.2 
					1992.7,88.2 2020.7,88.2 2048.8,88.2 2076.9,88.2 2104.9,88.2 2133,88.2 2161.1,88.2 2189.1,88.2 2217.2,88.2 2245.3,88.2 
					2273.3,88.2 2301.4,88.2 2329.5,88.2 2357.5,88.2 2385.6,88.2 2413.7,88.2 2441.7,88.2 2469.8,88.2 2497.9,88.2 2525.9,88.2 
					2554,88.2 2582.1,88.2 2610.1,88.2 2638.2,88.2 2666.3,88.2 2694.3,88.2 2722.4,88.2 2750.4,88.2 2778.5,88.2 2806.6,88.2 
					2834.6,88.2 				"/>
				<polyline class="st5" points="0,60.2 28.1,60.2 56.1,60.2 84.2,60.2 112.3,60.2 140.3,60.2 168.4,60.2 196.5,60.2 224.5,60.2 
					252.6,60.2 280.7,60.2 308.7,60.2 336.8,60.2 364.9,60.2 392.9,60.2 421,60.2 449,60.2 477.1,60.2 505.2,60.2 533.3,60.2 
					561.3,60.2 589.4,60.2 617.5,60.2 645.5,60.2 673.6,60.2 701.6,60.2 729.7,60.2 757.8,60.2 785.8,60.2 813.9,60.2 842,60.2 
					870,60.2 898.1,60.2 926.2,60.2 954.2,60.2 982.3,60.2 1010.4,60.2 1038.4,60.2 1066.5,60.2 1094.6,60.2 1122.6,60.2 
					1150.7,60.2 1178.8,60.2 1206.8,60.2 1234.9,60.2 1263,60.2 1291,60.2 1319.1,60.2 1347.2,60.2 1375.2,60.2 1403.3,60.2 
					1431.4,60.2 1459.4,60.2 1487.5,60.2 1515.6,60.2 1543.6,60.2 1571.7,60.2 1599.8,60.2 1627.8,60.2 1655.9,60.2 1683.9,60.2 
					1712,60.2 1740.1,60.2 1768.2,60.2 1796.2,60.2 1824.3,60.2 1852.3,60.2 1880.4,60.2 1908.5,60.2 1936.5,60.2 1964.6,60.2 
					1992.7,60.2 2020.7,60.2 2048.8,60.2 2076.9,60.2 2104.9,60.2 2133,60.2 2161.1,60.2 2189.1,60.2 2217.2,60.2 2245.3,60.2 
					2273.3,60.2 2301.4,60.2 2329.5,60.2 2357.5,60.2 2385.6,60.2 2413.7,60.2 2441.7,60.2 2469.8,60.2 2497.9,60.2 2525.9,60.2 
					2554,60.2 2582.1,60.2 2610.1,60.2 2638.2,60.2 2666.3,60.2 2694.3,60.2 2722.4,60.2 2750.4,60.2 2778.5,60.2 2806.6,60.2 
					2834.6,60.2 				"/>
				<polyline class="st5" points="0,32.1 28.1,32.1 56.1,32.1 84.2,32.1 112.3,32.1 140.3,32.1 168.4,32.1 196.5,32.1 224.5,32.1 
					252.6,32.1 280.7,32.1 308.7,32.1 336.8,32.1 364.9,32.1 392.9,32.1 421,32.1 449,32.1 477.1,32.1 505.2,32.1 533.3,32.1 
					561.3,32.1 589.4,32.1 617.5,32.1 645.5,32.1 673.6,32.1 701.6,32.1 729.7,32.1 757.8,32.1 785.8,32.1 813.9,32.1 842,32.1 
					870,32.1 898.1,32.1 926.2,32.1 954.2,32.1 982.3,32.1 1010.4,32.1 1038.4,32.1 1066.5,32.1 1094.6,32.1 1122.6,32.1 
					1150.7,32.1 1178.8,32.1 1206.8,32.1 1234.9,32.1 1263,32.1 1291,32.1 1319.1,32.1 1347.2,32.1 1375.2,32.1 1403.3,32.1 
					1431.4,32.1 1459.4,32.1 1487.5,32.1 1515.6,32.1 1543.6,32.1 1571.7,32.1 1599.8,32.1 1627.8,32.1 1655.9,32.1 1683.9,32.1 
					1712,32.1 1740.1,32.1 1768.2,32.1 1796.2,32.1 1824.3,32.1 1852.3,32.1 1880.4,32.1 1908.5,32.1 1936.5,32.1 1964.6,32.1 
					1992.7,32.1 2020.7,32.1 2048.8,32.1 2076.9,32.1 2104.9,32.1 2133,32.1 2161.1,32.1 2189.1,32.1 2217.2,32.1 2245.3,32.1 
					2273.3,32.1 2301.4,32.1 2329.5,32.1 2357.5,32.1 2385.6,32.1 2413.7,32.1 2441.7,32.1 2469.8,32.1 2497.9,32.1 2525.9,32.1 
					2554,32.1 2582.1,32.1 2610.1,32.1 2638.2,32.1 2666.3,32.1 2694.3,32.1 2722.4,32.1 2750.4,32.1 2778.5,32.1 2806.6,32.1 
					2834.6,32.1 				"/>
				<polyline class="st5" points="0,4 28.1,4 56.1,4 84.2,4 112.3,4 140.3,4 168.4,4 196.5,4 224.5,4 252.6,4 280.7,4 308.7,4 
					336.8,4 364.9,4 392.9,4 421,4 449,4 477.1,4 505.2,4 533.3,4 561.3,4 589.4,4 617.5,4 645.5,4 673.6,4 701.6,4 729.7,4 
					757.8,4 785.8,4 813.9,4 842,4 870,4 898.1,4 926.2,4 954.2,4 982.3,4 1010.4,4 1038.4,4 1066.5,4 1094.6,4 1122.6,4 1150.7,4 
					1178.8,4 1206.8,4 1234.9,4 1263,4 1291,4 1319.1,4 1347.2,4 1375.2,4 1403.3,4 1431.4,4 1459.4,4 1487.5,4 1515.6,4 1543.6,4 
					1571.7,4 1599.8,4 1627.8,4 1655.9,4 1683.9,4 1712,4 1740.1,4 1768.2,4 1796.2,4 1824.3,4 1852.3,4 1880.4,4 1908.5,4 
					1936.5,4 1964.6,4 1992.7,4 2020.7,4 2048.8,4 2076.9,4 2104.9,4 2133,4 2161.1,4 2189.1,4 2217.2,4 2245.3,4 2273.3,4 
					2301.4,4 2329.5,4 2357.5,4 2385.6,4 2413.7,4 2441.7,4 2469.8,4 2497.9,4 2525.9,4 2554,4 2582.1,4 2610.1,4 2638.2,4 
					2666.3,4 2694.3,4 2722.4,4 2750.4,4 2778.5,4 2806.6,4 2834.6,4 				"/>
				<polyline class="st5" points="505.2,-1708 505.2,-1679.9 505.2,-1651.9 505.2,-1623.8 505.2,-1595.7 505.2,-1567.7 
					505.2,-1539.6 505.2,-1511.5 505.2,-1483.5 505.2,-1455.4 505.2,-1427.3 505.2,-1399.3 505.2,-1371.2 505.2,-1343.1 
					505.2,-1315.1 505.2,-1287 505.2,-1258.9 505.2,-1230.9 505.2,-1202.8 505.2,-1174.8 505.2,-1146.7 505.2,-1118.6 
					505.2,-1090.6 505.2,-1062.5 505.2,-1034.4 505.2,-1006.4 505.2,-978.3 505.2,-950.2 505.2,-922.2 505.2,-894.1 505.2,-866 
					505.2,-838 505.2,-809.9 505.2,-781.8 505.2,-753.8 505.2,-725.7 505.2,-697.6 505.2,-669.6 505.2,-641.5 505.2,-613.4 
					505.2,-585.4 505.2,-557.3 505.2,-529.2 505.2,-501.2 505.2,-473.1 505.2,-445 505.2,-417 505.2,-388.9 505.2,-360.8 
					505.2,-332.8 505.2,-304.7 505.2,-276.6 505.2,-248.6 505.2,-220.5 505.2,-192.4 505.2,-164.4 505.2,-136.3 505.2,-108.3 
					505.2,-80.2 505.2,-52.1 505.2,-24 505.2,4 505.2,32.1 505.2,60.2 505.2,88.2 505.2,116.3 505.2,144.3 505.2,172.4 505.2,200.5 
					505.2,228.5 505.2,256.6 505.2,284.7 505.2,312.7 505.2,340.8 505.2,368.9 505.2,396.9 505.2,425 505.2,453.1 505.2,481.1 
					505.2,509.2 505.2,537.3 505.2,565.3 505.2,593.4 505.2,621.5 505.2,649.5 505.2,677.6 505.2,705.7 505.2,733.7 505.2,761.8 
					505.2,789.9 505.2,817.9 505.2,846 505.2,874 505.2,902.1 505.2,930.2 505.2,958.3 505.2,986.3 505.2,1014.4 505.2,1042.4 
					505.2,1070.5 505.2,1098.6 505.2,1126.7 				"/>
				<polyline class="st5" points="477.1,-1708 477.1,-1679.9 477.1,-1651.9 477.1,-1623.8 477.1,-1595.7 477.1,-1567.7 
					477.1,-1539.6 477.1,-1511.5 477.1,-1483.5 477.1,-1455.4 477.1,-1427.3 477.1,-1399.3 477.1,-1371.2 477.1,-1343.1 
					477.1,-1315.1 477.1,-1287 477.1,-1258.9 477.1,-1230.9 477.1,-1202.8 477.1,-1174.8 477.1,-1146.7 477.1,-1118.6 
					477.1,-1090.6 477.1,-1062.5 477.1,-1034.4 477.1,-1006.4 477.1,-978.3 477.1,-950.2 477.1,-922.2 477.1,-894.1 477.1,-866 
					477.1,-838 477.1,-809.9 477.1,-781.8 477.1,-753.8 477.1,-725.7 477.1,-697.6 477.1,-669.6 477.1,-641.5 477.1,-613.4 
					477.1,-585.4 477.1,-557.3 477.1,-529.2 477.1,-501.2 477.1,-473.1 477.1,-445 477.1,-417 477.1,-388.9 477.1,-360.8 
					477.1,-332.8 477.1,-304.7 477.1,-276.6 477.1,-248.6 477.1,-220.5 477.1,-192.4 477.1,-164.4 477.1,-136.3 477.1,-108.3 
					477.1,-80.2 477.1,-52.1 477.1,-24 477.1,4 477.1,32.1 477.1,60.2 477.1,88.2 477.1,116.3 477.1,144.3 477.1,172.4 477.1,200.5 
					477.1,228.5 477.1,256.6 477.1,284.7 477.1,312.7 477.1,340.8 477.1,368.9 477.1,396.9 477.1,425 477.1,453.1 477.1,481.1 
					477.1,509.2 477.1,537.3 477.1,565.3 477.1,593.4 477.1,621.5 477.1,649.5 477.1,677.6 477.1,705.7 477.1,733.7 477.1,761.8 
					477.1,789.9 477.1,817.9 477.1,846 477.1,874 477.1,902.1 477.1,930.2 477.1,958.3 477.1,986.3 477.1,1014.4 477.1,1042.4 
					477.1,1070.5 477.1,1098.6 477.1,1126.7 				"/>
				<polyline class="st5" points="449,-1708 449,-1679.9 449,-1651.9 449,-1623.8 449,-1595.7 449,-1567.7 449,-1539.6 449,-1511.5 
					449,-1483.5 449,-1455.4 449,-1427.3 449,-1399.3 449,-1371.2 449,-1343.1 449,-1315.1 449,-1287 449,-1258.9 449,-1230.9 
					449,-1202.8 449,-1174.8 449,-1146.7 449,-1118.6 449,-1090.6 449,-1062.5 449,-1034.4 449,-1006.4 449,-978.3 449,-950.2 
					449,-922.2 449,-894.1 449,-866 449,-838 449,-809.9 449,-781.8 449,-753.8 449,-725.7 449,-697.6 449,-669.6 449,-641.5 
					449,-613.4 449,-585.4 449,-557.3 449,-529.2 449,-501.2 449,-473.1 449,-445 449,-417 449,-388.9 449,-360.8 449,-332.8 
					449,-304.7 449,-276.6 449,-248.6 449,-220.5 449,-192.4 449,-164.4 449,-136.3 449,-108.3 449,-80.2 449,-52.1 449,-24 449,4 
					449,32.1 449,60.2 449,88.2 449,116.3 449,144.3 449,172.4 449,200.5 449,228.5 449,256.6 449,284.7 449,312.7 449,340.8 
					449,368.9 449,396.9 449,425 449,453.1 449,481.1 449,509.2 449,537.3 449,565.3 449,593.4 449,621.5 449,649.5 449,677.6 
					449,705.7 449,733.7 449,761.8 449,789.9 449,817.9 449,846 449,874 449,902.1 449,930.2 449,958.3 449,986.3 449,1014.4 
					449,1042.4 449,1070.5 449,1098.6 449,1126.7 				"/>
				<polyline class="st5" points="421,-1708 421,-1679.9 421,-1651.9 421,-1623.8 421,-1595.7 421,-1567.7 421,-1539.6 421,-1511.5 
					421,-1483.5 421,-1455.4 421,-1427.3 421,-1399.3 421,-1371.2 421,-1343.1 421,-1315.1 421,-1287 421,-1258.9 421,-1230.9 
					421,-1202.8 421,-1174.8 421,-1146.7 421,-1118.6 421,-1090.6 421,-1062.5 421,-1034.4 421,-1006.4 421,-978.3 421,-950.2 
					421,-922.2 421,-894.1 421,-866 421,-838 421,-809.9 421,-781.8 421,-753.8 421,-725.7 421,-697.6 421,-669.6 421,-641.5 
					421,-613.4 421,-585.4 421,-557.3 421,-529.2 421,-501.2 421,-473.1 421,-445 421,-417 421,-388.9 421,-360.8 421,-332.8 
					421,-304.7 421,-276.6 421,-248.6 421,-220.5 421,-192.4 421,-164.4 421,-136.3 421,-108.3 421,-80.2 421,-52.1 421,-24 421,4 
					421,32.1 421,60.2 421,88.2 421,116.3 421,144.3 421,172.4 421,200.5 421,228.5 421,256.6 421,284.7 421,312.7 421,340.8 
					421,368.9 421,396.9 421,425 421,453.1 421,481.1 421,509.2 421,537.3 421,565.3 421,593.4 421,621.5 421,649.5 421,677.6 
					421,705.7 421,733.7 421,761.8 421,789.9 421,817.9 421,846 421,874 421,902.1 421,930.2 421,958.3 421,986.3 421,1014.4 
					421,1042.4 421,1070.5 421,1098.6 421,1126.7 				"/>
				<polyline class="st5" points="392.9,-1708 392.9,-1679.9 392.9,-1651.9 392.9,-1623.8 392.9,-1595.7 392.9,-1567.7 
					392.9,-1539.6 392.9,-1511.5 392.9,-1483.5 392.9,-1455.4 392.9,-1427.3 392.9,-1399.3 392.9,-1371.2 392.9,-1343.1 
					392.9,-1315.1 392.9,-1287 392.9,-1258.9 392.9,-1230.9 392.9,-1202.8 392.9,-1174.8 392.9,-1146.7 392.9,-1118.6 
					392.9,-1090.6 392.9,-1062.5 392.9,-1034.4 392.9,-1006.4 392.9,-978.3 392.9,-950.2 392.9,-922.2 392.9,-894.1 392.9,-866 
					392.9,-838 392.9,-809.9 392.9,-781.8 392.9,-753.8 392.9,-725.7 392.9,-697.6 392.9,-669.6 392.9,-641.5 392.9,-613.4 
					392.9,-585.4 392.9,-557.3 392.9,-529.2 392.9,-501.2 392.9,-473.1 392.9,-445 392.9,-417 392.9,-388.9 392.9,-360.8 
					392.9,-332.8 392.9,-304.7 392.9,-276.6 392.9,-248.6 392.9,-220.5 392.9,-192.4 392.9,-164.4 392.9,-136.3 392.9,-108.3 
					392.9,-80.2 392.9,-52.1 392.9,-24 392.9,4 392.9,32.1 392.9,60.2 392.9,88.2 392.9,116.3 392.9,144.3 392.9,172.4 392.9,200.5 
					392.9,228.5 392.9,256.6 392.9,284.7 392.9,312.7 392.9,340.8 392.9,368.9 392.9,396.9 392.9,425 392.9,453.1 392.9,481.1 
					392.9,509.2 392.9,537.3 392.9,565.3 392.9,593.4 392.9,621.5 392.9,649.5 392.9,677.6 392.9,705.7 392.9,733.7 392.9,761.8 
					392.9,789.9 392.9,817.9 392.9,846 392.9,874 392.9,902.1 392.9,930.2 392.9,958.3 392.9,986.3 392.9,1014.4 392.9,1042.4 
					392.9,1070.5 392.9,1098.6 392.9,1126.7 				"/>
				<polyline class="st5" points="364.9,-1708 364.9,-1679.9 364.9,-1651.9 364.9,-1623.8 364.9,-1595.7 364.9,-1567.7 
					364.9,-1539.6 364.9,-1511.5 364.9,-1483.5 364.9,-1455.4 364.9,-1427.3 364.9,-1399.3 364.9,-1371.2 364.9,-1343.1 
					364.9,-1315.1 364.9,-1287 364.9,-1258.9 364.9,-1230.9 364.9,-1202.8 364.9,-1174.8 364.9,-1146.7 364.9,-1118.6 
					364.9,-1090.6 364.9,-1062.5 364.9,-1034.4 364.9,-1006.4 364.9,-978.3 364.9,-950.2 364.9,-922.2 364.9,-894.1 364.9,-866 
					364.9,-838 364.9,-809.9 364.9,-781.8 364.9,-753.8 364.9,-725.7 364.9,-697.6 364.9,-669.6 364.9,-641.5 364.9,-613.4 
					364.9,-585.4 364.9,-557.3 364.9,-529.2 364.9,-501.2 364.9,-473.1 364.9,-445 364.9,-417 364.9,-388.9 364.9,-360.8 
					364.9,-332.8 364.9,-304.7 364.9,-276.6 364.9,-248.6 364.9,-220.5 364.9,-192.4 364.9,-164.4 364.9,-136.3 364.9,-108.3 
					364.9,-80.2 364.9,-52.1 364.9,-24 364.9,4 364.9,32.1 364.9,60.2 364.9,88.2 364.9,116.3 364.9,144.3 364.9,172.4 364.9,200.5 
					364.9,228.5 364.9,256.6 364.9,284.7 364.9,312.7 364.9,340.8 364.9,368.9 364.9,396.9 364.9,425 364.9,453.1 364.9,481.1 
					364.9,509.2 364.9,537.3 364.9,565.3 364.9,593.4 364.9,621.5 364.9,649.5 364.9,677.6 364.9,705.7 364.9,733.7 364.9,761.8 
					364.9,789.9 364.9,817.9 364.9,846 364.9,874 364.9,902.1 364.9,930.2 364.9,958.3 364.9,986.3 364.9,1014.4 364.9,1042.4 
					364.9,1070.5 364.9,1098.6 364.9,1126.7 				"/>
				<polyline class="st5" points="336.8,-1708 336.8,-1679.9 336.8,-1651.9 336.8,-1623.8 336.8,-1595.7 336.8,-1567.7 
					336.8,-1539.6 336.8,-1511.5 336.8,-1483.5 336.8,-1455.4 336.8,-1427.3 336.8,-1399.3 336.8,-1371.2 336.8,-1343.1 
					336.8,-1315.1 336.8,-1287 336.8,-1258.9 336.8,-1230.9 336.8,-1202.8 336.8,-1174.8 336.8,-1146.7 336.8,-1118.6 
					336.8,-1090.6 336.8,-1062.5 336.8,-1034.4 336.8,-1006.4 336.8,-978.3 336.8,-950.2 336.8,-922.2 336.8,-894.1 336.8,-866 
					336.8,-838 336.8,-809.9 336.8,-781.8 336.8,-753.8 336.8,-725.7 336.8,-697.6 336.8,-669.6 336.8,-641.5 336.8,-613.4 
					336.8,-585.4 336.8,-557.3 336.8,-529.2 336.8,-501.2 336.8,-473.1 336.8,-445 336.8,-417 336.8,-388.9 336.8,-360.8 
					336.8,-332.8 336.8,-304.7 336.8,-276.6 336.8,-248.6 336.8,-220.5 336.8,-192.4 336.8,-164.4 336.8,-136.3 336.8,-108.3 
					336.8,-80.2 336.8,-52.1 336.8,-24 336.8,4 336.8,32.1 336.8,60.2 336.8,88.2 336.8,116.3 336.8,144.3 336.8,172.4 336.8,200.5 
					336.8,228.5 336.8,256.6 336.8,284.7 336.8,312.7 336.8,340.8 336.8,368.9 336.8,396.9 336.8,425 336.8,453.1 336.8,481.1 
					336.8,509.2 336.8,537.3 336.8,565.3 336.8,593.4 336.8,621.5 336.8,649.5 336.8,677.6 336.8,705.7 336.8,733.7 336.8,761.8 
					336.8,789.9 336.8,817.9 336.8,846 336.8,874 336.8,902.1 336.8,930.2 336.8,958.3 336.8,986.3 336.8,1014.4 336.8,1042.4 
					336.8,1070.5 336.8,1098.6 336.8,1126.7 				"/>
				<polyline class="st5" points="308.7,-1708 308.7,-1679.9 308.7,-1651.9 308.7,-1623.8 308.7,-1595.7 308.7,-1567.7 
					308.7,-1539.6 308.7,-1511.5 308.7,-1483.5 308.7,-1455.4 308.7,-1427.3 308.7,-1399.3 308.7,-1371.2 308.7,-1343.1 
					308.7,-1315.1 308.7,-1287 308.7,-1258.9 308.7,-1230.9 308.7,-1202.8 308.7,-1174.8 308.7,-1146.7 308.7,-1118.6 
					308.7,-1090.6 308.7,-1062.5 308.7,-1034.4 308.7,-1006.4 308.7,-978.3 308.7,-950.2 308.7,-922.2 308.7,-894.1 308.7,-866 
					308.7,-838 308.7,-809.9 308.7,-781.8 308.7,-753.8 308.7,-725.7 308.7,-697.6 308.7,-669.6 308.7,-641.5 308.7,-613.4 
					308.7,-585.4 308.7,-557.3 308.7,-529.2 308.7,-501.2 308.7,-473.1 308.7,-445 308.7,-417 308.7,-388.9 308.7,-360.8 
					308.7,-332.8 308.7,-304.7 308.7,-276.6 308.7,-248.6 308.7,-220.5 308.7,-192.4 308.7,-164.4 308.7,-136.3 308.7,-108.3 
					308.7,-80.2 308.7,-52.1 308.7,-24 308.7,4 308.7,32.1 308.7,60.2 308.7,88.2 308.7,116.3 308.7,144.3 308.7,172.4 308.7,200.5 
					308.7,228.5 308.7,256.6 308.7,284.7 308.7,312.7 308.7,340.8 308.7,368.9 308.7,396.9 308.7,425 308.7,453.1 308.7,481.1 
					308.7,509.2 308.7,537.3 308.7,565.3 308.7,593.4 308.7,621.5 308.7,649.5 308.7,677.6 308.7,705.7 308.7,733.7 308.7,761.8 
					308.7,789.9 308.7,817.9 308.7,846 308.7,874 308.7,902.1 308.7,930.2 308.7,958.3 308.7,986.3 308.7,1014.4 308.7,1042.4 
					308.7,1070.5 308.7,1098.6 308.7,1126.7 				"/>
				<polyline class="st5" points="280.7,-1708 280.7,-1679.9 280.7,-1651.9 280.7,-1623.8 280.7,-1595.7 280.7,-1567.7 
					280.7,-1539.6 280.7,-1511.5 280.7,-1483.5 280.7,-1455.4 280.7,-1427.3 280.7,-1399.3 280.7,-1371.2 280.7,-1343.1 
					280.7,-1315.1 280.7,-1287 280.7,-1258.9 280.7,-1230.9 280.7,-1202.8 280.7,-1174.8 280.7,-1146.7 280.7,-1118.6 
					280.7,-1090.6 280.7,-1062.5 280.7,-1034.4 280.7,-1006.4 280.7,-978.3 280.7,-950.2 280.7,-922.2 280.7,-894.1 280.7,-866 
					280.7,-838 280.7,-809.9 280.7,-781.8 280.7,-753.8 280.7,-725.7 280.7,-697.6 280.7,-669.6 280.7,-641.5 280.7,-613.4 
					280.7,-585.4 280.7,-557.3 280.7,-529.2 280.7,-501.2 280.7,-473.1 280.7,-445 280.7,-417 280.7,-388.9 280.7,-360.8 
					280.7,-332.8 280.7,-304.7 280.7,-276.6 280.7,-248.6 280.7,-220.5 280.7,-192.4 280.7,-164.4 280.7,-136.3 280.7,-108.3 
					280.7,-80.2 280.7,-52.1 280.7,-24 280.7,4 280.7,32.1 280.7,60.2 280.7,88.2 280.7,116.3 280.7,144.3 280.7,172.4 280.7,200.5 
					280.7,228.5 280.7,256.6 280.7,284.7 280.7,312.7 280.7,340.8 280.7,368.9 280.7,396.9 280.7,425 280.7,453.1 280.7,481.1 
					280.7,509.2 280.7,537.3 280.7,565.3 280.7,593.4 280.7,621.5 280.7,649.5 280.7,677.6 280.7,705.7 280.7,733.7 280.7,761.8 
					280.7,789.9 280.7,817.9 280.7,846 280.7,874 280.7,902.1 280.7,930.2 280.7,958.3 280.7,986.3 280.7,1014.4 280.7,1042.4 
					280.7,1070.5 280.7,1098.6 280.7,1126.7 				"/>
				<polyline class="st5" points="252.6,-1708 252.6,-1679.9 252.6,-1651.9 252.6,-1623.8 252.6,-1595.7 252.6,-1567.7 
					252.6,-1539.6 252.6,-1511.5 252.6,-1483.5 252.6,-1455.4 252.6,-1427.3 252.6,-1399.3 252.6,-1371.2 252.6,-1343.1 
					252.6,-1315.1 252.6,-1287 252.6,-1258.9 252.6,-1230.9 252.6,-1202.8 252.6,-1174.8 252.6,-1146.7 252.6,-1118.6 
					252.6,-1090.6 252.6,-1062.5 252.6,-1034.4 252.6,-1006.4 252.6,-978.3 252.6,-950.2 252.6,-922.2 252.6,-894.1 252.6,-866 
					252.6,-838 252.6,-809.9 252.6,-781.8 252.6,-753.8 252.6,-725.7 252.6,-697.6 252.6,-669.6 252.6,-641.5 252.6,-613.4 
					252.6,-585.4 252.6,-557.3 252.6,-529.2 252.6,-501.2 252.6,-473.1 252.6,-445 252.6,-417 252.6,-388.9 252.6,-360.8 
					252.6,-332.8 252.6,-304.7 252.6,-276.6 252.6,-248.6 252.6,-220.5 252.6,-192.4 252.6,-164.4 252.6,-136.3 252.6,-108.3 
					252.6,-80.2 252.6,-52.1 252.6,-24 252.6,4 252.6,32.1 252.6,60.2 252.6,88.2 252.6,116.3 252.6,144.3 252.6,172.4 252.6,200.5 
					252.6,228.5 252.6,256.6 252.6,284.7 252.6,312.7 252.6,340.8 252.6,368.9 252.6,396.9 252.6,425 252.6,453.1 252.6,481.1 
					252.6,509.2 252.6,537.3 252.6,565.3 252.6,593.4 252.6,621.5 252.6,649.5 252.6,677.6 252.6,705.7 252.6,733.7 252.6,761.8 
					252.6,789.9 252.6,817.9 252.6,846 252.6,874 252.6,902.1 252.6,930.2 252.6,958.3 252.6,986.3 252.6,1014.4 252.6,1042.4 
					252.6,1070.5 252.6,1098.6 252.6,1126.7 				"/>
				<polyline class="st5" points="224.5,-1708 224.5,-1679.9 224.5,-1651.9 224.5,-1623.8 224.5,-1595.7 224.5,-1567.7 
					224.5,-1539.6 224.5,-1511.5 224.5,-1483.5 224.5,-1455.4 224.5,-1427.3 224.5,-1399.3 224.5,-1371.2 224.5,-1343.1 
					224.5,-1315.1 224.5,-1287 224.5,-1258.9 224.5,-1230.9 224.5,-1202.8 224.5,-1174.8 224.5,-1146.7 224.5,-1118.6 
					224.5,-1090.6 224.5,-1062.5 224.5,-1034.4 224.5,-1006.4 224.5,-978.3 224.5,-950.2 224.5,-922.2 224.5,-894.1 224.5,-866 
					224.5,-838 224.5,-809.9 224.5,-781.8 224.5,-753.8 224.5,-725.7 224.5,-697.6 224.5,-669.6 224.5,-641.5 224.5,-613.4 
					224.5,-585.4 224.5,-557.3 224.5,-529.2 224.5,-501.2 224.5,-473.1 224.5,-445 224.5,-417 224.5,-388.9 224.5,-360.8 
					224.5,-332.8 224.5,-304.7 224.5,-276.6 224.5,-248.6 224.5,-220.5 224.5,-192.4 224.5,-164.4 224.5,-136.3 224.5,-108.3 
					224.5,-80.2 224.5,-52.1 224.5,-24 224.5,4 224.5,32.1 224.5,60.2 224.5,88.2 224.5,116.3 224.5,144.3 224.5,172.4 224.5,200.5 
					224.5,228.5 224.5,256.6 224.5,284.7 224.5,312.7 224.5,340.8 224.5,368.9 224.5,396.9 224.5,425 224.5,453.1 224.5,481.1 
					224.5,509.2 224.5,537.3 224.5,565.3 224.5,593.4 224.5,621.5 224.5,649.5 224.5,677.6 224.5,705.7 224.5,733.7 224.5,761.8 
					224.5,789.9 224.5,817.9 224.5,846 224.5,874 224.5,902.1 224.5,930.2 224.5,958.3 224.5,986.3 224.5,1014.4 224.5,1042.4 
					224.5,1070.5 224.5,1098.6 224.5,1126.7 				"/>
				<polyline class="st5" points="196.5,-1708 196.5,-1679.9 196.5,-1651.9 196.5,-1623.8 196.5,-1595.7 196.5,-1567.7 
					196.5,-1539.6 196.5,-1511.5 196.5,-1483.5 196.5,-1455.4 196.5,-1427.3 196.5,-1399.3 196.5,-1371.2 196.5,-1343.1 
					196.5,-1315.1 196.5,-1287 196.5,-1258.9 196.5,-1230.9 196.5,-1202.8 196.5,-1174.8 196.5,-1146.7 196.5,-1118.6 
					196.5,-1090.6 196.5,-1062.5 196.5,-1034.4 196.5,-1006.4 196.5,-978.3 196.5,-950.2 196.5,-922.2 196.5,-894.1 196.5,-866 
					196.5,-838 196.5,-809.9 196.5,-781.8 196.5,-753.8 196.5,-725.7 196.5,-697.6 196.5,-669.6 196.5,-641.5 196.5,-613.4 
					196.5,-585.4 196.5,-557.3 196.5,-529.2 196.5,-501.2 196.5,-473.1 196.5,-445 196.5,-417 196.5,-388.9 196.5,-360.8 
					196.5,-332.8 196.5,-304.7 196.5,-276.6 196.5,-248.6 196.5,-220.5 196.5,-192.4 196.5,-164.4 196.5,-136.3 196.5,-108.3 
					196.5,-80.2 196.5,-52.1 196.5,-24 196.5,4 196.5,32.1 196.5,60.2 196.5,88.2 196.5,116.3 196.5,144.3 196.5,172.4 196.5,200.5 
					196.5,228.5 196.5,256.6 196.5,284.7 196.5,312.7 196.5,340.8 196.5,368.9 196.5,396.9 196.5,425 196.5,453.1 196.5,481.1 
					196.5,509.2 196.5,537.3 196.5,565.3 196.5,593.4 196.5,621.5 196.5,649.5 196.5,677.6 196.5,705.7 196.5,733.7 196.5,761.8 
					196.5,789.9 196.5,817.9 196.5,846 196.5,874 196.5,902.1 196.5,930.2 196.5,958.3 196.5,986.3 196.5,1014.4 196.5,1042.4 
					196.5,1070.5 196.5,1098.6 196.5,1126.7 				"/>
				<polyline class="st5" points="168.4,-1708 168.4,-1679.9 168.4,-1651.9 168.4,-1623.8 168.4,-1595.7 168.4,-1567.7 
					168.4,-1539.6 168.4,-1511.5 168.4,-1483.5 168.4,-1455.4 168.4,-1427.3 168.4,-1399.3 168.4,-1371.2 168.4,-1343.1 
					168.4,-1315.1 168.4,-1287 168.4,-1258.9 168.4,-1230.9 168.4,-1202.8 168.4,-1174.8 168.4,-1146.7 168.4,-1118.6 
					168.4,-1090.6 168.4,-1062.5 168.4,-1034.4 168.4,-1006.4 168.4,-978.3 168.4,-950.2 168.4,-922.2 168.4,-894.1 168.4,-866 
					168.4,-838 168.4,-809.9 168.4,-781.8 168.4,-753.8 168.4,-725.7 168.4,-697.6 168.4,-669.6 168.4,-641.5 168.4,-613.4 
					168.4,-585.4 168.4,-557.3 168.4,-529.2 168.4,-501.2 168.4,-473.1 168.4,-445 168.4,-417 168.4,-388.9 168.4,-360.8 
					168.4,-332.8 168.4,-304.7 168.4,-276.6 168.4,-248.6 168.4,-220.5 168.4,-192.4 168.4,-164.4 168.4,-136.3 168.4,-108.3 
					168.4,-80.2 168.4,-52.1 168.4,-24 168.4,4 168.4,32.1 168.4,60.2 168.4,88.2 168.4,116.3 168.4,144.3 168.4,172.4 168.4,200.5 
					168.4,228.5 168.4,256.6 168.4,284.7 168.4,312.7 168.4,340.8 168.4,368.9 168.4,396.9 168.4,425 168.4,453.1 168.4,481.1 
					168.4,509.2 168.4,537.3 168.4,565.3 168.4,593.4 168.4,621.5 168.4,649.5 168.4,677.6 168.4,705.7 168.4,733.7 168.4,761.8 
					168.4,789.9 168.4,817.9 168.4,846 168.4,874 168.4,902.1 168.4,930.2 168.4,958.3 168.4,986.3 168.4,1014.4 168.4,1042.4 
					168.4,1070.5 168.4,1098.6 168.4,1126.7 				"/>
				<polyline class="st5" points="140.3,-1708 140.3,-1679.9 140.3,-1651.9 140.3,-1623.8 140.3,-1595.7 140.3,-1567.7 
					140.3,-1539.6 140.3,-1511.5 140.3,-1483.5 140.3,-1455.4 140.3,-1427.3 140.3,-1399.3 140.3,-1371.2 140.3,-1343.1 
					140.3,-1315.1 140.3,-1287 140.3,-1258.9 140.3,-1230.9 140.3,-1202.8 140.3,-1174.8 140.3,-1146.7 140.3,-1118.6 
					140.3,-1090.6 140.3,-1062.5 140.3,-1034.4 140.3,-1006.4 140.3,-978.3 140.3,-950.2 140.3,-922.2 140.3,-894.1 140.3,-866 
					140.3,-838 140.3,-809.9 140.3,-781.8 140.3,-753.8 140.3,-725.7 140.3,-697.6 140.3,-669.6 140.3,-641.5 140.3,-613.4 
					140.3,-585.4 140.3,-557.3 140.3,-529.2 140.3,-501.2 140.3,-473.1 140.3,-445 140.3,-417 140.3,-388.9 140.3,-360.8 
					140.3,-332.8 140.3,-304.7 140.3,-276.6 140.3,-248.6 140.3,-220.5 140.3,-192.4 140.3,-164.4 140.3,-136.3 140.3,-108.3 
					140.3,-80.2 140.3,-52.1 140.3,-24 140.3,4 140.3,32.1 140.3,60.2 140.3,88.2 140.3,116.3 140.3,144.3 140.3,172.4 140.3,200.5 
					140.3,228.5 140.3,256.6 140.3,284.7 140.3,312.7 140.3,340.8 140.3,368.9 140.3,396.9 140.3,425 140.3,453.1 140.3,481.1 
					140.3,509.2 140.3,537.3 140.3,565.3 140.3,593.4 140.3,621.5 140.3,649.5 140.3,677.6 140.3,705.7 140.3,733.7 140.3,761.8 
					140.3,789.9 140.3,817.9 140.3,846 140.3,874 140.3,902.1 140.3,930.2 140.3,958.3 140.3,986.3 140.3,1014.4 140.3,1042.4 
					140.3,1070.5 140.3,1098.6 140.3,1126.7 				"/>
				<polyline class="st5" points="112.3,-1708 112.3,-1679.9 112.3,-1651.9 112.3,-1623.8 112.3,-1595.7 112.3,-1567.7 
					112.3,-1539.6 112.3,-1511.5 112.3,-1483.5 112.3,-1455.4 112.3,-1427.3 112.3,-1399.3 112.3,-1371.2 112.3,-1343.1 
					112.3,-1315.1 112.3,-1287 112.3,-1258.9 112.3,-1230.9 112.3,-1202.8 112.3,-1174.8 112.3,-1146.7 112.3,-1118.6 
					112.3,-1090.6 112.3,-1062.5 112.3,-1034.4 112.3,-1006.4 112.3,-978.3 112.3,-950.2 112.3,-922.2 112.3,-894.1 112.3,-866 
					112.3,-838 112.3,-809.9 112.3,-781.8 112.3,-753.8 112.3,-725.7 112.3,-697.6 112.3,-669.6 112.3,-641.5 112.3,-613.4 
					112.3,-585.4 112.3,-557.3 112.3,-529.2 112.3,-501.2 112.3,-473.1 112.3,-445 112.3,-417 112.3,-388.9 112.3,-360.8 
					112.3,-332.8 112.3,-304.7 112.3,-276.6 112.3,-248.6 112.3,-220.5 112.3,-192.4 112.3,-164.4 112.3,-136.3 112.3,-108.3 
					112.3,-80.2 112.3,-52.1 112.3,-24 112.3,4 112.3,32.1 112.3,60.2 112.3,88.2 112.3,116.3 112.3,144.3 112.3,172.4 112.3,200.5 
					112.3,228.5 112.3,256.6 112.3,284.7 112.3,312.7 112.3,340.8 112.3,368.9 112.3,396.9 112.3,425 112.3,453.1 112.3,481.1 
					112.3,509.2 112.3,537.3 112.3,565.3 112.3,593.4 112.3,621.5 112.3,649.5 112.3,677.6 112.3,705.7 112.3,733.7 112.3,761.8 
					112.3,789.9 112.3,817.9 112.3,846 112.3,874 112.3,902.1 112.3,930.2 112.3,958.3 112.3,986.3 112.3,1014.4 112.3,1042.4 
					112.3,1070.5 112.3,1098.6 112.3,1126.7 				"/>
				<polyline class="st5" points="84.2,-1708 84.2,-1679.9 84.2,-1651.9 84.2,-1623.8 84.2,-1595.7 84.2,-1567.7 84.2,-1539.6 
					84.2,-1511.5 84.2,-1483.5 84.2,-1455.4 84.2,-1427.3 84.2,-1399.3 84.2,-1371.2 84.2,-1343.1 84.2,-1315.1 84.2,-1287 
					84.2,-1258.9 84.2,-1230.9 84.2,-1202.8 84.2,-1174.8 84.2,-1146.7 84.2,-1118.6 84.2,-1090.6 84.2,-1062.5 84.2,-1034.4 
					84.2,-1006.4 84.2,-978.3 84.2,-950.2 84.2,-922.2 84.2,-894.1 84.2,-866 84.2,-838 84.2,-809.9 84.2,-781.8 84.2,-753.8 
					84.2,-725.7 84.2,-697.6 84.2,-669.6 84.2,-641.5 84.2,-613.4 84.2,-585.4 84.2,-557.3 84.2,-529.2 84.2,-501.2 84.2,-473.1 
					84.2,-445 84.2,-417 84.2,-388.9 84.2,-360.8 84.2,-332.8 84.2,-304.7 84.2,-276.6 84.2,-248.6 84.2,-220.5 84.2,-192.4 
					84.2,-164.4 84.2,-136.3 84.2,-108.3 84.2,-80.2 84.2,-52.1 84.2,-24 84.2,4 84.2,32.1 84.2,60.2 84.2,88.2 84.2,116.3 
					84.2,144.3 84.2,172.4 84.2,200.5 84.2,228.5 84.2,256.6 84.2,284.7 84.2,312.7 84.2,340.8 84.2,368.9 84.2,396.9 84.2,425 
					84.2,453.1 84.2,481.1 84.2,509.2 84.2,537.3 84.2,565.3 84.2,593.4 84.2,621.5 84.2,649.5 84.2,677.6 84.2,705.7 84.2,733.7 
					84.2,761.8 84.2,789.9 84.2,817.9 84.2,846 84.2,874 84.2,902.1 84.2,930.2 84.2,958.3 84.2,986.3 84.2,1014.4 84.2,1042.4 
					84.2,1070.5 84.2,1098.6 84.2,1126.7 				"/>
				<polyline class="st5" points="56.1,-1708 56.1,-1679.9 56.1,-1651.9 56.1,-1623.8 56.1,-1595.7 56.1,-1567.7 56.1,-1539.6 
					56.1,-1511.5 56.1,-1483.5 56.1,-1455.4 56.1,-1427.3 56.1,-1399.3 56.1,-1371.2 56.1,-1343.1 56.1,-1315.1 56.1,-1287 
					56.1,-1258.9 56.1,-1230.9 56.1,-1202.8 56.1,-1174.8 56.1,-1146.7 56.1,-1118.6 56.1,-1090.6 56.1,-1062.5 56.1,-1034.4 
					56.1,-1006.4 56.1,-978.3 56.1,-950.2 56.1,-922.2 56.1,-894.1 56.1,-866 56.1,-838 56.1,-809.9 56.1,-781.8 56.1,-753.8 
					56.1,-725.7 56.1,-697.6 56.1,-669.6 56.1,-641.5 56.1,-613.4 56.1,-585.4 56.1,-557.3 56.1,-529.2 56.1,-501.2 56.1,-473.1 
					56.1,-445 56.1,-417 56.1,-388.9 56.1,-360.8 56.1,-332.8 56.1,-304.7 56.1,-276.6 56.1,-248.6 56.1,-220.5 56.1,-192.4 
					56.1,-164.4 56.1,-136.3 56.1,-108.3 56.1,-80.2 56.1,-52.1 56.1,-24 56.1,4 56.1,32.1 56.1,60.2 56.1,88.2 56.1,116.3 
					56.1,144.3 56.1,172.4 56.1,200.5 56.1,228.5 56.1,256.6 56.1,284.7 56.1,312.7 56.1,340.8 56.1,368.9 56.1,396.9 56.1,425 
					56.1,453.1 56.1,481.1 56.1,509.2 56.1,537.3 56.1,565.3 56.1,593.4 56.1,621.5 56.1,649.5 56.1,677.6 56.1,705.7 56.1,733.7 
					56.1,761.8 56.1,789.9 56.1,817.9 56.1,846 56.1,874 56.1,902.1 56.1,930.2 56.1,958.3 56.1,986.3 56.1,1014.4 56.1,1042.4 
					56.1,1070.5 56.1,1098.6 56.1,1126.7 				"/>
				<polyline class="st5" points="28.1,-1708 28.1,-1679.9 28.1,-1651.9 28.1,-1623.8 28.1,-1595.7 28.1,-1567.7 28.1,-1539.6 
					28.1,-1511.5 28.1,-1483.5 28.1,-1455.4 28.1,-1427.3 28.1,-1399.3 28.1,-1371.2 28.1,-1343.1 28.1,-1315.1 28.1,-1287 
					28.1,-1258.9 28.1,-1230.9 28.1,-1202.8 28.1,-1174.8 28.1,-1146.7 28.1,-1118.6 28.1,-1090.6 28.1,-1062.5 28.1,-1034.4 
					28.1,-1006.4 28.1,-978.3 28.1,-950.2 28.1,-922.2 28.1,-894.1 28.1,-866 28.1,-838 28.1,-809.9 28.1,-781.8 28.1,-753.8 
					28.1,-725.7 28.1,-697.6 28.1,-669.6 28.1,-641.5 28.1,-613.4 28.1,-585.4 28.1,-557.3 28.1,-529.2 28.1,-501.2 28.1,-473.1 
					28.1,-445 28.1,-417 28.1,-388.9 28.1,-360.8 28.1,-332.8 28.1,-304.7 28.1,-276.6 28.1,-248.6 28.1,-220.5 28.1,-192.4 
					28.1,-164.4 28.1,-136.3 28.1,-108.3 28.1,-80.2 28.1,-52.1 28.1,-24 28.1,4 28.1,32.1 28.1,60.2 28.1,88.2 28.1,116.3 
					28.1,144.3 28.1,172.4 28.1,200.5 28.1,228.5 28.1,256.6 28.1,284.7 28.1,312.7 28.1,340.8 28.1,368.9 28.1,396.9 28.1,425 
					28.1,453.1 28.1,481.1 28.1,509.2 28.1,537.3 28.1,565.3 28.1,593.4 28.1,621.5 28.1,649.5 28.1,677.6 28.1,705.7 28.1,733.7 
					28.1,761.8 28.1,789.9 28.1,817.9 28.1,846 28.1,874 28.1,902.1 28.1,930.2 28.1,958.3 28.1,986.3 28.1,1014.4 28.1,1042.4 
					28.1,1070.5 28.1,1098.6 28.1,1126.7 				"/>
			</g>
		</g>
	</g>
</g>
<g id="Layer_1_copy">
	<g>
		<polygon class="st6" points="357.2,230.9 329.2,230.9 301.1,230.9 273,230.9 245,230.9 216.9,230.9 188.8,230.9 160.8,230.9 
			132.7,230.9 104.6,230.9 104.6,259 104.6,287.1 104.6,315.1 104.6,343.2 104.6,371.3 104.6,399.3 132.7,399.3 132.7,427.4 
			160.8,427.4 188.8,427.4 216.9,427.4 245,427.4 273,427.4 301.1,427.4 329.2,427.4 357.2,427.4 385.3,427.4 385.3,399.3 
			413.4,399.3 413.4,371.3 413.4,343.2 413.4,315.1 413.4,287.1 413.4,259 413.4,230.9 385.3,230.9 		"/>
		<polygon class="st6" points="357.2,118.7 357.2,146.7 329.2,146.7 329.2,118.7 301.1,118.7 273,118.7 245,118.7 216.9,118.7 
			188.8,118.7 188.8,146.7 160.8,146.7 160.8,118.7 132.7,118.7 132.7,146.7 104.6,146.7 104.6,174.8 104.6,202.9 132.7,202.9 
			160.8,202.9 188.8,202.9 216.9,202.9 245,202.9 273,202.9 301.1,202.9 329.2,202.9 357.2,202.9 385.3,202.9 413.4,202.9 
			413.4,174.8 413.4,146.7 385.3,146.7 385.3,118.7 		"/>
		<path class="st7" d="M413.4,90.6h-28.1h-28.1V62.5h-28.1v28.1h-28.1H273H245h-28.1h-28.1V62.5h-28.1v28.1h-28.1h-28.1v28.1H76.6
			v28.1v28.1v28.1v28.1V259v28.1v28.1v28.1v28.1v28.1v28.1h28.1v28.1h28.1h28.1h28.1h28.1H245H273h28.1h28.1h28.1h28.1h28.1v-28.1
			h28.1v-28.1v-28.1v-28.1v-28.1v-28.1V259v-28.1v-28.1v-28.1v-28.1v-28.1h-28.1V90.6z M413.4,259v28.1v28.1v28.1v28.1v28.1h-28.1
			v28.1h-28.1h-28.1h-28.1H273H245h-28.1h-28.1h-28.1h-28.1v-28.1h-28.1v-28.1v-28.1v-28.1v-28.1V259v-28.1h28.1h28.1h28.1h28.1H245
			H273h28.1h28.1h28.1h28.1h28.1V259z M413.4,146.7v28.1v28.1h-28.1h-28.1h-28.1h-28.1H273H245h-28.1h-28.1h-28.1h-28.1h-28.1v-28.1
			v-28.1h28.1v-28.1h28.1v28.1h28.1v-28.1h28.1H245H273h28.1h28.1v28.1h28.1v-28.1h28.1v28.1H413.4z"/>
	</g>
</g>
</svg>
