<?xml version="1.0" encoding="utf-8"?>
<!-- Generator: Adobe Illustrator 21.1.0, SVG Export Plug-In . SVG Version: 6.00 Build 0)  -->
<svg version="1.1" xmlns="http://www.w3.org/2000/svg" xmlns:xlink="http://www.w3.org/1999/xlink" x="0px" y="0px"
	 viewBox="0 0 518 518" style="enable-background:new 0 0 518 518;" xml:space="preserve">
<style type="text/css">
	.st0{display:none;}
	.st1{display:inline;fill:none;stroke:#010101;stroke-width:11.3386;stroke-linecap:round;stroke-linejoin:round;}
	.st2{display:inline;fill:none;stroke:#010101;stroke-width:14.1732;stroke-linecap:round;stroke-linejoin:round;}
	.st3{display:inline;}
	.st4{fill:none;stroke:#010101;stroke-width:14.1732;stroke-linecap:round;stroke-linejoin:round;}
	.st5{fill:none;stroke:#000000;stroke-miterlimit:10;}
	.st6{fill:none;}
	.st7{fill:#212121;}
</style>
<g id="Layer_2" class="st0">
	<rect x="404.7" y="48.9" class="st2" width="144.4" height="144.4"/>
	<rect x="404.7" y="275.8" class="st2" width="144.4" height="144.4"/>
</g>
<g id="Layer_1" class="st0">
	<g class="st3">
		<g id="XMLID_1_">
			<g>
				<rect x="505.2" y="179.1" width="28.1" height="28.1"/>
				<rect x="477.1" y="179.1" width="28.1" height="28.1"/>
				<rect x="449" y="179.1" width="28.1" height="28.1"/>
				<rect x="421" y="179.1" width="28.1" height="28.1"/>
				<rect x="505.2" y="38.8" width="28.1" height="28.1"/>
				<rect x="477.1" y="38.8" width="28.1" height="28.1"/>
				<rect x="449" y="38.8" width="28.1" height="28.1"/>
				<rect x="421" y="38.8" width="28.1" height="28.1"/>
				<rect x="392.9" y="179.1" width="28.1" height="28.1"/>
				<rect x="392.9" y="151" width="28.1" height="28.1"/>
				<rect x="392.9" y="123" width="28.1" height="28.1"/>
				<rect x="392.9" y="94.9" width="28.1" height="28.1"/>
				<rect x="392.9" y="66.8" width="28.1" height="28.1"/>
				<rect x="392.9" y="38.8" width="28.1" height="28.1"/>
				<rect x="392.9" y="375.5" width="28.1" height="28.1"/>
				<rect x="392.9" y="347.5" width="28.1" height="28.1"/>
				<rect x="392.9" y="319.4" width="28.1" height="28.1"/>
				<rect x="392.9" y="291.4" width="28.1" height="28.1"/>
				<rect x="505.2" y="403.6" width="28.1" height="28.1"/>
				<rect x="477.1" y="403.6" width="28.1" height="28.1"/>
				<rect x="449" y="403.6" width="28.1" height="28.1"/>
				<rect x="421" y="403.6" width="28.1" height="28.1"/>
				<rect x="392.9" y="403.6" width="28.1" height="28.1"/>
				<rect x="505.2" y="263.3" width="28.1" height="28.1"/>
				<rect x="477.1" y="263.3" width="28.1" height="28.1"/>
				<rect x="449" y="263.3" width="28.1" height="28.1"/>
				<rect x="421" y="263.3" width="28.1" height="28.1"/>
				<rect x="392.9" y="263.3" width="28.1" height="28.1"/>
			</g>
			<g>
				<polygon class="st5" points="0,-1111.9 0,-1140 28.1,-1140 56.1,-1140 84.2,-1140 112.3,-1140 140.3,-1140 168.4,-1140 
					196.5,-1140 224.5,-1140 252.6,-1140 280.7,-1140 308.7,-1140 336.8,-1140 364.9,-1140 392.9,-1140 421,-1140 449,-1140 
					477.1,-1140 505.2,-1140 533.3,-1140 561.3,-1140 589.4,-1140 617.5,-1140 645.5,-1140 673.6,-1140 701.6,-1140 729.7,-1140 
					757.8,-1140 785.8,-1140 813.9,-1140 842,-1140 870,-1140 898.1,-1140 926.2,-1140 954.2,-1140 982.3,-1140 1010.4,-1140 
					1038.4,-1140 1066.5,-1140 1094.6,-1140 1122.6,-1140 1150.7,-1140 1178.8,-1140 1206.8,-1140 1234.9,-1140 1263,-1140 
					1291,-1140 1319.1,-1140 1347.2,-1140 1375.2,-1140 1403.3,-1140 1431.4,-1140 1459.4,-1140 1487.5,-1140 1515.6,-1140 
					1543.6,-1140 1571.7,-1140 1599.8,-1140 1627.8,-1140 1655.9,-1140 1683.9,-1140 1712,-1140 1740.1,-1140 1768.2,-1140 
					1796.2,-1140 1824.3,-1140 1852.3,-1140 1880.4,-1140 1908.5,-1140 1936.5,-1140 1964.6,-1140 1992.7,-1140 2020.7,-1140 
					2048.8,-1140 2076.9,-1140 2104.9,-1140 2133,-1140 2161.1,-1140 2189.1,-1140 2217.2,-1140 2245.3,-1140 2273.3,-1140 
					2301.4,-1140 2329.5,-1140 2357.5,-1140 2385.6,-1140 2413.7,-1140 2441.7,-1140 2469.8,-1140 2497.9,-1140 2525.9,-1140 
					2554,-1140 2582.1,-1140 2610.1,-1140 2638.2,-1140 2666.3,-1140 2694.3,-1140 2722.4,-1140 2750.4,-1140 2778.5,-1140 
					2806.6,-1140 2834.6,-1140 2834.6,-1111.9 2834.6,-1083.9 2834.6,-1055.8 2834.6,-1027.7 2834.6,-999.7 2834.6,-971.6 
					2834.6,-943.5 2834.6,-915.5 2834.6,-887.4 2834.6,-859.3 2834.6,-831.3 2834.6,-803.2 2834.6,-775.1 2834.6,-747.1 
					2834.6,-719 2834.6,-691 2834.6,-662.9 2834.6,-634.8 2834.6,-606.8 2834.6,-578.7 2834.6,-550.6 2834.6,-522.5 2834.6,-494.5 
					2834.6,-466.4 2834.6,-438.4 2834.6,-410.3 2834.6,-382.2 2834.6,-354.2 2834.6,-326.1 2834.6,-298 2834.6,-270 2834.6,-241.9 
					2834.6,-213.8 2834.6,-185.8 2834.6,-157.7 2834.6,-129.6 2834.6,-101.6 2834.6,-73.5 2834.6,-45.4 2834.6,-17.4 2834.6,10.7 
					2834.6,38.8 2834.6,66.8 2834.6,94.9 2834.6,123 2834.6,151 2834.6,179.1 2834.6,207.2 2834.6,235.2 2834.6,263.3 2834.6,291.4 
					2834.6,319.4 2834.6,347.5 2834.6,375.5 2834.6,403.6 2834.6,431.7 2834.6,459.8 2834.6,487.8 2834.6,515.9 2834.6,544 
					2834.6,572 2834.6,600.1 2834.6,628.2 2834.6,656.2 2834.6,684.3 2834.6,712.3 2834.6,740.4 2834.6,768.5 2834.6,796.5 
					2834.6,824.6 2834.6,852.7 2834.6,880.7 2834.6,908.8 2834.6,936.9 2834.6,964.9 2834.6,993 2834.6,1021.1 2834.6,1049.1 
					2834.6,1077.2 2834.6,1105.3 2834.6,1133.3 2834.6,1161.4 2834.6,1189.5 2834.6,1217.5 2834.6,1245.6 2834.6,1273.7 
					2834.6,1301.7 2834.6,1329.8 2834.6,1357.9 2834.6,1385.9 2834.6,1414 2834.6,1442.1 2834.6,1470.1 2834.6,1498.2 
					2834.6,1526.3 2834.6,1554.3 2834.6,1582.4 2834.6,1610.4 2834.6,1638.5 2834.6,1666.6 2834.6,1694.7 2806.6,1694.7 
					2778.5,1694.7 2750.4,1694.7 2722.4,1694.7 2694.3,1694.7 2666.3,1694.7 2638.2,1694.7 2610.1,1694.7 2582.1,1694.7 
					2554,1694.7 2525.9,1694.7 2497.9,1694.7 2469.8,1694.7 2441.7,1694.7 2413.7,1694.7 2385.6,1694.7 2357.5,1694.7 
					2329.5,1694.7 2301.4,1694.7 2273.3,1694.7 2245.3,1694.7 2217.2,1694.7 2189.1,1694.7 2161.1,1694.7 2133,1694.7 
					2104.9,1694.7 2076.9,1694.7 2048.8,1694.7 2020.7,1694.7 1992.7,1694.7 1964.6,1694.7 1936.5,1694.7 1908.5,1694.7 
					1880.4,1694.7 1852.3,1694.7 1824.3,1694.7 1796.2,1694.7 1768.2,1694.7 1740.1,1694.7 1712,1694.7 1683.9,1694.7 
					1655.9,1694.7 1627.8,1694.7 1599.8,1694.7 1571.7,1694.7 1543.6,1694.7 1515.6,1694.7 1487.5,1694.7 1459.4,1694.7 
					1431.4,1694.7 1403.3,1694.7 1375.2,1694.7 1347.2,1694.7 1319.1,1694.7 1291,1694.7 1263,1694.7 1234.9,1694.7 1206.8,1694.7 
					1178.8,1694.7 1150.7,1694.7 1122.6,1694.7 1094.6,1694.7 1066.5,1694.7 1038.4,1694.7 1010.4,1694.7 982.3,1694.7 
					954.2,1694.7 926.2,1694.7 898.1,1694.7 870,1694.7 842,1694.7 813.9,1694.7 785.8,1694.7 757.8,1694.7 729.7,1694.7 
					701.6,1694.7 673.6,1694.7 645.5,1694.7 617.5,1694.7 589.4,1694.7 561.3,1694.7 533.3,1694.7 505.2,1694.7 477.1,1694.7 
					449,1694.7 421,1694.7 392.9,1694.7 364.9,1694.7 336.8,1694.7 308.7,1694.7 280.7,1694.7 252.6,1694.7 224.5,1694.7 
					196.5,1694.7 168.4,1694.7 140.3,1694.7 112.3,1694.7 84.2,1694.7 56.1,1694.7 28.1,1694.7 0,1694.7 0,1666.6 0,1638.5 
					0,1610.4 0,1582.4 0,1554.3 0,1526.3 0,1498.2 0,1470.1 0,1442.1 0,1414 0,1385.9 0,1357.9 0,1329.8 0,1301.7 0,1273.7 
					0,1245.6 0,1217.5 0,1189.5 0,1161.4 0,1133.3 0,1105.3 0,1077.2 0,1049.1 0,1021.1 0,993 0,964.9 0,936.9 0,908.8 0,880.7 
					0,852.7 0,824.6 0,796.5 0,768.5 0,740.4 0,712.3 0,684.3 0,656.2 0,628.2 0,600.1 0,572 0,544 0,515.9 0,487.8 0,459.8 
					0,431.7 0,403.6 0,375.5 0,347.5 0,319.4 0,291.4 0,263.3 0,235.2 0,207.2 0,179.1 0,151 0,123 0,94.9 0,66.8 0,38.8 0,10.7 
					0,-17.4 0,-45.4 0,-73.5 0,-101.6 0,-129.6 0,-157.7 0,-185.8 0,-213.8 0,-241.9 0,-270 0,-298 0,-326.1 0,-354.2 0,-382.2 
					0,-410.3 0,-438.4 0,-466.4 0,-494.5 0,-522.5 0,-550.6 0,-578.7 0,-606.8 0,-634.8 0,-662.9 0,-691 0,-719 0,-747.1 0,-775.1 
					0,-803.2 0,-831.3 0,-859.3 0,-887.4 0,-915.5 0,-943.5 0,-971.6 0,-999.7 0,-1027.7 0,-1055.8 0,-1083.9 				"/>
				<polyline class="st5" points="0,515.9 28.1,515.9 56.1,515.9 84.2,515.9 112.3,515.9 140.3,515.9 168.4,515.9 196.5,515.9 
					224.5,515.9 252.6,515.9 280.7,515.9 308.7,515.9 336.8,515.9 364.9,515.9 392.9,515.9 421,515.9 449,515.9 477.1,515.9 
					505.2,515.9 533.3,515.9 561.3,515.9 589.4,515.9 617.5,515.9 645.5,515.9 673.6,515.9 701.6,515.9 729.7,515.9 757.8,515.9 
					785.8,515.9 813.9,515.9 842,515.9 870,515.9 898.1,515.9 926.2,515.9 954.2,515.9 982.3,515.9 1010.4,515.9 1038.4,515.9 
					1066.5,515.9 1094.6,515.9 1122.6,515.9 1150.7,515.9 1178.8,515.9 1206.8,515.9 1234.9,515.9 1263,515.9 1291,515.9 
					1319.1,515.9 1347.2,515.9 1375.2,515.9 1403.3,515.9 1431.4,515.9 1459.4,515.9 1487.5,515.9 1515.6,515.9 1543.6,515.9 
					1571.7,515.9 1599.8,515.9 1627.8,515.9 1655.9,515.9 1683.9,515.9 1712,515.9 1740.1,515.9 1768.2,515.9 1796.2,515.9 
					1824.3,515.9 1852.3,515.9 1880.4,515.9 1908.5,515.9 1936.5,515.9 1964.6,515.9 1992.7,515.9 2020.7,515.9 2048.8,515.9 
					2076.9,515.9 2104.9,515.9 2133,515.9 2161.1,515.9 2189.1,515.9 2217.2,515.9 2245.3,515.9 2273.3,515.9 2301.4,515.9 
					2329.5,515.9 2357.5,515.9 2385.6,515.9 2413.7,515.9 2441.7,515.9 2469.8,515.9 2497.9,515.9 2525.9,515.9 2554,515.9 
					2582.1,515.9 2610.1,515.9 2638.2,515.9 2666.3,515.9 2694.3,515.9 2722.4,515.9 2750.4,515.9 2778.5,515.9 2806.6,515.9 
					2834.6,515.9 				"/>
				<polyline class="st5" points="0,487.8 28.1,487.8 56.1,487.8 84.2,487.8 112.3,487.8 140.3,487.8 168.4,487.8 196.5,487.8 
					224.5,487.8 252.6,487.8 280.7,487.8 308.7,487.8 336.8,487.8 364.9,487.8 392.9,487.8 421,487.8 449,487.8 477.1,487.8 
					505.2,487.8 533.3,487.8 561.3,487.8 589.4,487.8 617.5,487.8 645.5,487.8 673.6,487.8 701.6,487.8 729.7,487.8 757.8,487.8 
					785.8,487.8 813.9,487.8 842,487.8 870,487.8 898.1,487.8 926.2,487.8 954.2,487.8 982.3,487.8 1010.4,487.8 1038.4,487.8 
					1066.5,487.8 1094.6,487.8 1122.6,487.8 1150.7,487.8 1178.8,487.8 1206.8,487.8 1234.9,487.8 1263,487.8 1291,487.8 
					1319.1,487.8 1347.2,487.8 1375.2,487.8 1403.3,487.8 1431.4,487.8 1459.4,487.8 1487.5,487.8 1515.6,487.8 1543.6,487.8 
					1571.7,487.8 1599.8,487.8 1627.8,487.8 1655.9,487.8 1683.9,487.8 1712,487.8 1740.1,487.8 1768.2,487.8 1796.2,487.8 
					1824.3,487.8 1852.3,487.8 1880.4,487.8 1908.5,487.8 1936.5,487.8 1964.6,487.8 1992.7,487.8 2020.7,487.8 2048.8,487.8 
					2076.9,487.8 2104.9,487.8 2133,487.8 2161.1,487.8 2189.1,487.8 2217.2,487.8 2245.3,487.8 2273.3,487.8 2301.4,487.8 
					2329.5,487.8 2357.5,487.8 2385.6,487.8 2413.7,487.8 2441.7,487.8 2469.8,487.8 2497.9,487.8 2525.9,487.8 2554,487.8 
					2582.1,487.8 2610.1,487.8 2638.2,487.8 2666.3,487.8 2694.3,487.8 2722.4,487.8 2750.4,487.8 2778.5,487.8 2806.6,487.8 
					2834.6,487.8 				"/>
				<polyline class="st5" points="0,459.8 28.1,459.8 56.1,459.8 84.2,459.8 112.3,459.8 140.3,459.8 168.4,459.8 196.5,459.8 
					224.5,459.8 252.6,459.8 280.7,459.8 308.7,459.8 336.8,459.8 364.9,459.8 392.9,459.8 421,459.8 449,459.8 477.1,459.8 
					505.2,459.8 533.3,459.8 561.3,459.8 589.4,459.8 617.5,459.8 645.5,459.8 673.6,459.8 701.6,459.8 729.7,459.8 757.8,459.8 
					785.8,459.8 813.9,459.8 842,459.8 870,459.8 898.1,459.8 926.2,459.8 954.2,459.8 982.3,459.8 1010.4,459.8 1038.4,459.8 
					1066.5,459.8 1094.6,459.8 1122.6,459.8 1150.7,459.8 1178.8,459.8 1206.8,459.8 1234.9,459.8 1263,459.8 1291,459.8 
					1319.1,459.8 1347.2,459.8 1375.2,459.8 1403.3,459.8 1431.4,459.8 1459.4,459.8 1487.5,459.8 1515.6,459.8 1543.6,459.8 
					1571.7,459.8 1599.8,459.8 1627.8,459.8 1655.9,459.8 1683.9,459.8 1712,459.8 1740.1,459.8 1768.2,459.8 1796.2,459.8 
					1824.3,459.8 1852.3,459.8 1880.4,459.8 1908.5,459.8 1936.5,459.8 1964.6,459.8 1992.7,459.8 2020.7,459.8 2048.8,459.8 
					2076.9,459.8 2104.9,459.8 2133,459.8 2161.1,459.8 2189.1,459.8 2217.2,459.8 2245.3,459.8 2273.3,459.8 2301.4,459.8 
					2329.5,459.8 2357.5,459.8 2385.6,459.8 2413.7,459.8 2441.7,459.8 2469.8,459.8 2497.9,459.8 2525.9,459.8 2554,459.8 
					2582.1,459.8 2610.1,459.8 2638.2,459.8 2666.3,459.8 2694.3,459.8 2722.4,459.8 2750.4,459.8 2778.5,459.8 2806.6,459.8 
					2834.6,459.8 				"/>
				<polyline class="st5" points="0,431.7 28.1,431.7 56.1,431.7 84.2,431.7 112.3,431.7 140.3,431.7 168.4,431.7 196.5,431.7 
					224.5,431.7 252.6,431.7 280.7,431.7 308.7,431.7 336.8,431.7 364.9,431.7 392.9,431.7 421,431.7 449,431.7 477.1,431.7 
					505.2,431.7 533.3,431.7 561.3,431.7 589.4,431.7 617.5,431.7 645.5,431.7 673.6,431.7 701.6,431.7 729.7,431.7 757.8,431.7 
					785.8,431.7 813.9,431.7 842,431.7 870,431.7 898.1,431.7 926.2,431.7 954.2,431.7 982.3,431.7 1010.4,431.7 1038.4,431.7 
					1066.5,431.7 1094.6,431.7 1122.6,431.7 1150.7,431.7 1178.8,431.7 1206.8,431.7 1234.9,431.7 1263,431.7 1291,431.7 
					1319.1,431.7 1347.2,431.7 1375.2,431.7 1403.3,431.7 1431.4,431.7 1459.4,431.7 1487.5,431.7 1515.6,431.7 1543.6,431.7 
					1571.7,431.7 1599.8,431.7 1627.8,431.7 1655.9,431.7 1683.9,431.7 1712,431.7 1740.1,431.7 1768.2,431.7 1796.2,431.7 
					1824.3,431.7 1852.3,431.7 1880.4,431.7 1908.5,431.7 1936.5,431.7 1964.6,431.7 1992.7,431.7 2020.7,431.7 2048.8,431.7 
					2076.9,431.7 2104.9,431.7 2133,431.7 2161.1,431.7 2189.1,431.7 2217.2,431.7 2245.3,431.7 2273.3,431.7 2301.4,431.7 
					2329.5,431.7 2357.5,431.7 2385.6,431.7 2413.7,431.7 2441.7,431.7 2469.8,431.7 2497.9,431.7 2525.9,431.7 2554,431.7 
					2582.1,431.7 2610.1,431.7 2638.2,431.7 2666.3,431.7 2694.3,431.7 2722.4,431.7 2750.4,431.7 2778.5,431.7 2806.6,431.7 
					2834.6,431.7 				"/>
				<polyline class="st5" points="0,403.6 28.1,403.6 56.1,403.6 84.2,403.6 112.3,403.6 140.3,403.6 168.4,403.6 196.5,403.6 
					224.5,403.6 252.6,403.6 280.7,403.6 308.7,403.6 336.8,403.6 364.9,403.6 392.9,403.6 421,403.6 449,403.6 477.1,403.6 
					505.2,403.6 533.3,403.6 561.3,403.6 589.4,403.6 617.5,403.6 645.5,403.6 673.6,403.6 701.6,403.6 729.7,403.6 757.8,403.6 
					785.8,403.6 813.9,403.6 842,403.6 870,403.6 898.1,403.6 926.2,403.6 954.2,403.6 982.3,403.6 1010.4,403.6 1038.4,403.6 
					1066.5,403.6 1094.6,403.6 1122.6,403.6 1150.7,403.6 1178.8,403.6 1206.8,403.6 1234.9,403.6 1263,403.6 1291,403.6 
					1319.1,403.6 1347.2,403.6 1375.2,403.6 1403.3,403.6 1431.4,403.6 1459.4,403.6 1487.5,403.6 1515.6,403.6 1543.6,403.6 
					1571.7,403.6 1599.8,403.6 1627.8,403.6 1655.9,403.6 1683.9,403.6 1712,403.6 1740.1,403.6 1768.2,403.6 1796.2,403.6 
					1824.3,403.6 1852.3,403.6 1880.4,403.6 1908.5,403.6 1936.5,403.6 1964.6,403.6 1992.7,403.6 2020.7,403.6 2048.8,403.6 
					2076.9,403.6 2104.9,403.6 2133,403.6 2161.1,403.6 2189.1,403.6 2217.2,403.6 2245.3,403.6 2273.3,403.6 2301.4,403.6 
					2329.5,403.6 2357.5,403.6 2385.6,403.6 2413.7,403.6 2441.7,403.6 2469.8,403.6 2497.9,403.6 2525.9,403.6 2554,403.6 
					2582.1,403.6 2610.1,403.6 2638.2,403.6 2666.3,403.6 2694.3,403.6 2722.4,403.6 2750.4,403.6 2778.5,403.6 2806.6,403.6 
					2834.6,403.6 				"/>
				<polyline class="st5" points="0,375.5 28.1,375.5 56.1,375.5 84.2,375.5 112.3,375.5 140.3,375.5 168.4,375.5 196.5,375.5 
					224.5,375.5 252.6,375.5 280.7,375.5 308.7,375.5 336.8,375.5 364.9,375.5 392.9,375.5 421,375.5 449,375.5 477.1,375.5 
					505.2,375.5 533.3,375.5 561.3,375.5 589.4,375.5 617.5,375.5 645.5,375.5 673.6,375.5 701.6,375.5 729.7,375.5 757.8,375.5 
					785.8,375.5 813.9,375.5 842,375.5 870,375.5 898.1,375.5 926.2,375.5 954.2,375.5 982.3,375.5 1010.4,375.5 1038.4,375.5 
					1066.5,375.5 1094.6,375.5 1122.6,375.5 1150.7,375.5 1178.8,375.5 1206.8,375.5 1234.9,375.5 1263,375.5 1291,375.5 
					1319.1,375.5 1347.2,375.5 1375.2,375.5 1403.3,375.5 1431.4,375.5 1459.4,375.5 1487.5,375.5 1515.6,375.5 1543.6,375.5 
					1571.7,375.5 1599.8,375.5 1627.8,375.5 1655.9,375.5 1683.9,375.5 1712,375.5 1740.1,375.5 1768.2,375.5 1796.2,375.5 
					1824.3,375.5 1852.3,375.5 1880.4,375.5 1908.5,375.5 1936.5,375.5 1964.6,375.5 1992.7,375.5 2020.7,375.5 2048.8,375.5 
					2076.9,375.5 2104.9,375.5 2133,375.5 2161.1,375.5 2189.1,375.5 2217.2,375.5 2245.3,375.5 2273.3,375.5 2301.4,375.5 
					2329.5,375.5 2357.5,375.5 2385.6,375.5 2413.7,375.5 2441.7,375.5 2469.8,375.5 2497.9,375.5 2525.9,375.5 2554,375.5 
					2582.1,375.5 2610.1,375.5 2638.2,375.5 2666.3,375.5 2694.3,375.5 2722.4,375.5 2750.4,375.5 2778.5,375.5 2806.6,375.5 
					2834.6,375.5 				"/>
				<polyline class="st5" points="0,347.5 28.1,347.5 56.1,347.5 84.2,347.5 112.3,347.5 140.3,347.5 168.4,347.5 196.5,347.5 
					224.5,347.5 252.6,347.5 280.7,347.5 308.7,347.5 336.8,347.5 364.9,347.5 392.9,347.5 421,347.5 449,347.5 477.1,347.5 
					505.2,347.5 533.3,347.5 561.3,347.5 589.4,347.5 617.5,347.5 645.5,347.5 673.6,347.5 701.6,347.5 729.7,347.5 757.8,347.5 
					785.8,347.5 813.9,347.5 842,347.5 870,347.5 898.1,347.5 926.2,347.5 954.2,347.5 982.3,347.5 1010.4,347.5 1038.4,347.5 
					1066.5,347.5 1094.6,347.5 1122.6,347.5 1150.7,347.5 1178.8,347.5 1206.8,347.5 1234.9,347.5 1263,347.5 1291,347.5 
					1319.1,347.5 1347.2,347.5 1375.2,347.5 1403.3,347.5 1431.4,347.5 1459.4,347.5 1487.5,347.5 1515.6,347.5 1543.6,347.5 
					1571.7,347.5 1599.8,347.5 1627.8,347.5 1655.9,347.5 1683.9,347.5 1712,347.5 1740.1,347.5 1768.2,347.5 1796.2,347.5 
					1824.3,347.5 1852.3,347.5 1880.4,347.5 1908.5,347.5 1936.5,347.5 1964.6,347.5 1992.7,347.5 2020.7,347.5 2048.8,347.5 
					2076.9,347.5 2104.9,347.5 2133,347.5 2161.1,347.5 2189.1,347.5 2217.2,347.5 2245.3,347.5 2273.3,347.5 2301.4,347.5 
					2329.5,347.5 2357.5,347.5 2385.6,347.5 2413.7,347.5 2441.7,347.5 2469.8,347.5 2497.9,347.5 2525.9,347.5 2554,347.5 
					2582.1,347.5 2610.1,347.5 2638.2,347.5 2666.3,347.5 2694.3,347.5 2722.4,347.5 2750.4,347.5 2778.5,347.5 2806.6,347.5 
					2834.6,347.5 				"/>
				<polyline class="st5" points="0,319.4 28.1,319.4 56.1,319.4 84.2,319.4 112.3,319.4 140.3,319.4 168.4,319.4 196.5,319.4 
					224.5,319.4 252.6,319.4 280.7,319.4 308.7,319.4 336.8,319.4 364.9,319.4 392.9,319.4 421,319.4 449,319.4 477.1,319.4 
					505.2,319.4 533.3,319.4 561.3,319.4 589.4,319.4 617.5,319.4 645.5,319.4 673.6,319.4 701.6,319.4 729.7,319.4 757.8,319.4 
					785.8,319.4 813.9,319.4 842,319.4 870,319.4 898.1,319.4 926.2,319.4 954.2,319.4 982.3,319.4 1010.4,319.4 1038.4,319.4 
					1066.5,319.4 1094.6,319.4 1122.6,319.4 1150.7,319.4 1178.8,319.4 1206.8,319.4 1234.9,319.4 1263,319.4 1291,319.4 
					1319.1,319.4 1347.2,319.4 1375.2,319.4 1403.3,319.4 1431.4,319.4 1459.4,319.4 1487.5,319.4 1515.6,319.4 1543.6,319.4 
					1571.7,319.4 1599.8,319.4 1627.8,319.4 1655.9,319.4 1683.9,319.4 1712,319.4 1740.1,319.4 1768.2,319.4 1796.2,319.4 
					1824.3,319.4 1852.3,319.4 1880.4,319.4 1908.5,319.4 1936.5,319.4 1964.6,319.4 1992.7,319.4 2020.7,319.4 2048.8,319.4 
					2076.9,319.4 2104.9,319.4 2133,319.4 2161.1,319.4 2189.1,319.4 2217.2,319.4 2245.3,319.4 2273.3,319.4 2301.4,319.4 
					2329.5,319.4 2357.5,319.4 2385.6,319.4 2413.7,319.4 2441.7,319.4 2469.8,319.4 2497.9,319.4 2525.9,319.4 2554,319.4 
					2582.1,319.4 2610.1,319.4 2638.2,319.4 2666.3,319.4 2694.3,319.4 2722.4,319.4 2750.4,319.4 2778.5,319.4 2806.6,319.4 
					2834.6,319.4 				"/>
				<polyline class="st5" points="0,291.4 28.1,291.4 56.1,291.4 84.2,291.4 112.3,291.4 140.3,291.4 168.4,291.4 196.5,291.4 
					224.5,291.4 252.6,291.4 280.7,291.4 308.7,291.4 336.8,291.4 364.9,291.4 392.9,291.4 421,291.4 449,291.4 477.1,291.4 
					505.2,291.4 533.3,291.4 561.3,291.4 589.4,291.4 617.5,291.4 645.5,291.4 673.6,291.4 701.6,291.4 729.7,291.4 757.8,291.4 
					785.8,291.4 813.9,291.4 842,291.4 870,291.4 898.1,291.4 926.2,291.4 954.2,291.4 982.3,291.4 1010.4,291.4 1038.4,291.4 
					1066.5,291.4 1094.6,291.4 1122.6,291.4 1150.7,291.4 1178.8,291.4 1206.8,291.4 1234.9,291.4 1263,291.4 1291,291.4 
					1319.1,291.4 1347.2,291.4 1375.2,291.4 1403.3,291.4 1431.4,291.4 1459.4,291.4 1487.5,291.4 1515.6,291.4 1543.6,291.4 
					1571.7,291.4 1599.8,291.4 1627.8,291.4 1655.9,291.4 1683.9,291.4 1712,291.4 1740.1,291.4 1768.2,291.4 1796.2,291.4 
					1824.3,291.4 1852.3,291.4 1880.4,291.4 1908.5,291.4 1936.5,291.4 1964.6,291.4 1992.7,291.4 2020.7,291.4 2048.8,291.4 
					2076.9,291.4 2104.9,291.4 2133,291.4 2161.1,291.4 2189.1,291.4 2217.2,291.4 2245.3,291.4 2273.3,291.4 2301.4,291.4 
					2329.5,291.4 2357.5,291.4 2385.6,291.4 2413.7,291.4 2441.7,291.4 2469.8,291.4 2497.9,291.4 2525.9,291.4 2554,291.4 
					2582.1,291.4 2610.1,291.4 2638.2,291.4 2666.3,291.4 2694.3,291.4 2722.4,291.4 2750.4,291.4 2778.5,291.4 2806.6,291.4 
					2834.6,291.4 				"/>
				<polyline class="st5" points="0,263.3 28.1,263.3 56.1,263.3 84.2,263.3 112.3,263.3 140.3,263.3 168.4,263.3 196.5,263.3 
					224.5,263.3 252.6,263.3 280.7,263.3 308.7,263.3 336.8,263.3 364.9,263.3 392.9,263.3 421,263.3 449,263.3 477.1,263.3 
					505.2,263.3 533.3,263.3 561.3,263.3 589.4,263.3 617.5,263.3 645.5,263.3 673.6,263.3 701.6,263.3 729.7,263.3 757.8,263.3 
					785.8,263.3 813.9,263.3 842,263.3 870,263.3 898.1,263.3 926.2,263.3 954.2,263.3 982.3,263.3 1010.4,263.3 1038.4,263.3 
					1066.5,263.3 1094.6,263.3 1122.6,263.3 1150.7,263.3 1178.8,263.3 1206.8,263.3 1234.9,263.3 1263,263.3 1291,263.3 
					1319.1,263.3 1347.2,263.3 1375.2,263.3 1403.3,263.3 1431.4,263.3 1459.4,263.3 1487.5,263.3 1515.6,263.3 1543.6,263.3 
					1571.7,263.3 1599.8,263.3 1627.8,263.3 1655.9,263.3 1683.9,263.3 1712,263.3 1740.1,263.3 1768.2,263.3 1796.2,263.3 
					1824.3,263.3 1852.3,263.3 1880.4,263.3 1908.5,263.3 1936.5,263.3 1964.6,263.3 1992.7,263.3 2020.7,263.3 2048.8,263.3 
					2076.9,263.3 2104.9,263.3 2133,263.3 2161.1,263.3 2189.1,263.3 2217.2,263.3 2245.3,263.3 2273.3,263.3 2301.4,263.3 
					2329.5,263.3 2357.5,263.3 2385.6,263.3 2413.7,263.3 2441.7,263.3 2469.8,263.3 2497.9,263.3 2525.9,263.3 2554,263.3 
					2582.1,263.3 2610.1,263.3 2638.2,263.3 2666.3,263.3 2694.3,263.3 2722.4,263.3 2750.4,263.3 2778.5,263.3 2806.6,263.3 
					2834.6,263.3 				"/>
				<polyline class="st5" points="0,235.2 28.1,235.2 56.1,235.2 84.2,235.2 112.3,235.2 140.3,235.2 168.4,235.2 196.5,235.2 
					224.5,235.2 252.6,235.2 280.7,235.2 308.7,235.2 336.8,235.2 364.9,235.2 392.9,235.2 421,235.2 449,235.2 477.1,235.2 
					505.2,235.2 533.3,235.2 561.3,235.2 589.4,235.2 617.5,235.2 645.5,235.2 673.6,235.2 701.6,235.2 729.7,235.2 757.8,235.2 
					785.8,235.2 813.9,235.2 842,235.2 870,235.2 898.1,235.2 926.2,235.2 954.2,235.2 982.3,235.2 1010.4,235.2 1038.4,235.2 
					1066.5,235.2 1094.6,235.2 1122.6,235.2 1150.7,235.2 1178.8,235.2 1206.8,235.2 1234.9,235.2 1263,235.2 1291,235.2 
					1319.1,235.2 1347.2,235.2 1375.2,235.2 1403.3,235.2 1431.4,235.2 1459.4,235.2 1487.5,235.2 1515.6,235.2 1543.6,235.2 
					1571.7,235.2 1599.8,235.2 1627.8,235.2 1655.9,235.2 1683.9,235.2 1712,235.2 1740.1,235.2 1768.2,235.2 1796.2,235.2 
					1824.3,235.2 1852.3,235.2 1880.4,235.2 1908.5,235.2 1936.5,235.2 1964.6,235.2 1992.7,235.2 2020.7,235.2 2048.8,235.2 
					2076.9,235.2 2104.9,235.2 2133,235.2 2161.1,235.2 2189.1,235.2 2217.2,235.2 2245.3,235.2 2273.3,235.2 2301.4,235.2 
					2329.5,235.2 2357.5,235.2 2385.6,235.2 2413.7,235.2 2441.7,235.2 2469.8,235.2 2497.9,235.2 2525.9,235.2 2554,235.2 
					2582.1,235.2 2610.1,235.2 2638.2,235.2 2666.3,235.2 2694.3,235.2 2722.4,235.2 2750.4,235.2 2778.5,235.2 2806.6,235.2 
					2834.6,235.2 				"/>
				<polyline class="st5" points="0,207.2 28.1,207.2 56.1,207.2 84.2,207.2 112.3,207.2 140.3,207.2 168.4,207.2 196.5,207.2 
					224.5,207.2 252.6,207.2 280.7,207.2 308.7,207.2 336.8,207.2 364.9,207.2 392.9,207.2 421,207.2 449,207.2 477.1,207.2 
					505.2,207.2 533.3,207.2 561.3,207.2 589.4,207.2 617.5,207.2 645.5,207.2 673.6,207.2 701.6,207.2 729.7,207.2 757.8,207.2 
					785.8,207.2 813.9,207.2 842,207.2 870,207.2 898.1,207.2 926.2,207.2 954.2,207.2 982.3,207.2 1010.4,207.2 1038.4,207.2 
					1066.5,207.2 1094.6,207.2 1122.6,207.2 1150.7,207.2 1178.8,207.2 1206.8,207.2 1234.9,207.2 1263,207.2 1291,207.2 
					1319.1,207.2 1347.2,207.2 1375.2,207.2 1403.3,207.2 1431.4,207.2 1459.4,207.2 1487.5,207.2 1515.6,207.2 1543.6,207.2 
					1571.7,207.2 1599.8,207.2 1627.8,207.2 1655.9,207.2 1683.9,207.2 1712,207.2 1740.1,207.2 1768.2,207.2 1796.2,207.2 
					1824.3,207.2 1852.3,207.2 1880.4,207.2 1908.5,207.2 1936.5,207.2 1964.6,207.2 1992.7,207.2 2020.7,207.2 2048.8,207.2 
					2076.9,207.2 2104.9,207.2 2133,207.2 2161.1,207.2 2189.1,207.2 2217.2,207.2 2245.3,207.2 2273.3,207.2 2301.4,207.2 
					2329.5,207.2 2357.5,207.2 2385.6,207.2 2413.7,207.2 2441.7,207.2 2469.8,207.2 2497.9,207.2 2525.9,207.2 2554,207.2 
					2582.1,207.2 2610.1,207.2 2638.2,207.2 2666.3,207.2 2694.3,207.2 2722.4,207.2 2750.4,207.2 2778.5,207.2 2806.6,207.2 
					2834.6,207.2 				"/>
				<polyline class="st5" points="0,179.1 28.1,179.1 56.1,179.1 84.2,179.1 112.3,179.1 140.3,179.1 168.4,179.1 196.5,179.1 
					224.5,179.1 252.6,179.1 280.7,179.1 308.7,179.1 336.8,179.1 364.9,179.1 392.9,179.1 421,179.1 449,179.1 477.1,179.1 
					505.2,179.1 533.3,179.1 561.3,179.1 589.4,179.1 617.5,179.1 645.5,179.1 673.6,179.1 701.6,179.1 729.7,179.1 757.8,179.1 
					785.8,179.1 813.9,179.1 842,179.1 870,179.1 898.1,179.1 926.2,179.1 954.2,179.1 982.3,179.1 1010.4,179.1 1038.4,179.1 
					1066.5,179.1 1094.6,179.1 1122.6,179.1 1150.7,179.1 1178.8,179.1 1206.8,179.1 1234.9,179.1 1263,179.1 1291,179.1 
					1319.1,179.1 1347.2,179.1 1375.2,179.1 1403.3,179.1 1431.4,179.1 1459.4,179.1 1487.5,179.1 1515.6,179.1 1543.6,179.1 
					1571.7,179.1 1599.8,179.1 1627.8,179.1 1655.9,179.1 1683.9,179.1 1712,179.1 1740.1,179.1 1768.2,179.1 1796.2,179.1 
					1824.3,179.1 1852.3,179.1 1880.4,179.1 1908.5,179.1 1936.5,179.1 1964.6,179.1 1992.7,179.1 2020.7,179.1 2048.8,179.1 
					2076.9,179.1 2104.9,179.1 2133,179.1 2161.1,179.1 2189.1,179.1 2217.2,179.1 2245.3,179.1 2273.3,179.1 2301.4,179.1 
					2329.5,179.1 2357.5,179.1 2385.6,179.1 2413.7,179.1 2441.7,179.1 2469.8,179.1 2497.9,179.1 2525.9,179.1 2554,179.1 
					2582.1,179.1 2610.1,179.1 2638.2,179.1 2666.3,179.1 2694.3,179.1 2722.4,179.1 2750.4,179.1 2778.5,179.1 2806.6,179.1 
					2834.6,179.1 				"/>
				<polyline class="st5" points="0,151 28.1,151 56.1,151 84.2,151 112.3,151 140.3,151 168.4,151 196.5,151 224.5,151 252.6,151 
					280.7,151 308.7,151 336.8,151 364.9,151 392.9,151 421,151 449,151 477.1,151 505.2,151 533.3,151 561.3,151 589.4,151 
					617.5,151 645.5,151 673.6,151 701.6,151 729.7,151 757.8,151 785.8,151 813.9,151 842,151 870,151 898.1,151 926.2,151 
					954.2,151 982.3,151 1010.4,151 1038.4,151 1066.5,151 1094.6,151 1122.6,151 1150.7,151 1178.8,151 1206.8,151 1234.9,151 
					1263,151 1291,151 1319.1,151 1347.2,151 1375.2,151 1403.3,151 1431.4,151 1459.4,151 1487.5,151 1515.6,151 1543.6,151 
					1571.7,151 1599.8,151 1627.8,151 1655.9,151 1683.9,151 1712,151 1740.1,151 1768.2,151 1796.2,151 1824.3,151 1852.3,151 
					1880.4,151 1908.5,151 1936.5,151 1964.6,151 1992.7,151 2020.7,151 2048.8,151 2076.9,151 2104.9,151 2133,151 2161.1,151 
					2189.1,151 2217.2,151 2245.3,151 2273.3,151 2301.4,151 2329.5,151 2357.5,151 2385.6,151 2413.7,151 2441.7,151 2469.8,151 
					2497.9,151 2525.9,151 2554,151 2582.1,151 2610.1,151 2638.2,151 2666.3,151 2694.3,151 2722.4,151 2750.4,151 2778.5,151 
					2806.6,151 2834.6,151 				"/>
				<polyline class="st5" points="0,123 28.1,123 56.1,123 84.2,123 112.3,123 140.3,123 168.4,123 196.5,123 224.5,123 252.6,123 
					280.7,123 308.7,123 336.8,123 364.9,123 392.9,123 421,123 449,123 477.1,123 505.2,123 533.3,123 561.3,123 589.4,123 
					617.5,123 645.5,123 673.6,123 701.6,123 729.7,123 757.8,123 785.8,123 813.9,123 842,123 870,123 898.1,123 926.2,123 
					954.2,123 982.3,123 1010.4,123 1038.4,123 1066.5,123 1094.6,123 1122.6,123 1150.7,123 1178.8,123 1206.8,123 1234.9,123 
					1263,123 1291,123 1319.1,123 1347.2,123 1375.2,123 1403.3,123 1431.4,123 1459.4,123 1487.5,123 1515.6,123 1543.6,123 
					1571.7,123 1599.8,123 1627.8,123 1655.9,123 1683.9,123 1712,123 1740.1,123 1768.2,123 1796.2,123 1824.3,123 1852.3,123 
					1880.4,123 1908.5,123 1936.5,123 1964.6,123 1992.7,123 2020.7,123 2048.8,123 2076.9,123 2104.9,123 2133,123 2161.1,123 
					2189.1,123 2217.2,123 2245.3,123 2273.3,123 2301.4,123 2329.5,123 2357.5,123 2385.6,123 2413.7,123 2441.7,123 2469.8,123 
					2497.9,123 2525.9,123 2554,123 2582.1,123 2610.1,123 2638.2,123 2666.3,123 2694.3,123 2722.4,123 2750.4,123 2778.5,123 
					2806.6,123 2834.6,123 				"/>
				<polyline class="st5" points="0,94.9 28.1,94.9 56.1,94.9 84.2,94.9 112.3,94.9 140.3,94.9 168.4,94.9 196.5,94.9 224.5,94.9 
					252.6,94.9 280.7,94.9 308.7,94.9 336.8,94.9 364.9,94.9 392.9,94.9 421,94.9 449,94.9 477.1,94.9 505.2,94.9 533.3,94.9 
					561.3,94.9 589.4,94.9 617.5,94.9 645.5,94.9 673.6,94.9 701.6,94.9 729.7,94.9 757.8,94.9 785.8,94.9 813.9,94.9 842,94.9 
					870,94.9 898.1,94.9 926.2,94.9 954.2,94.9 982.3,94.9 1010.4,94.9 1038.4,94.9 1066.5,94.9 1094.6,94.9 1122.6,94.9 
					1150.7,94.9 1178.8,94.9 1206.8,94.9 1234.9,94.9 1263,94.9 1291,94.9 1319.1,94.9 1347.2,94.9 1375.2,94.9 1403.3,94.9 
					1431.4,94.9 1459.4,94.9 1487.5,94.9 1515.6,94.9 1543.6,94.9 1571.7,94.9 1599.8,94.9 1627.8,94.9 1655.9,94.9 1683.9,94.9 
					1712,94.9 1740.1,94.9 1768.2,94.9 1796.2,94.9 1824.3,94.9 1852.3,94.9 1880.4,94.9 1908.5,94.9 1936.5,94.9 1964.6,94.9 
					1992.7,94.9 2020.7,94.9 2048.8,94.9 2076.9,94.9 2104.9,94.9 2133,94.9 2161.1,94.9 2189.1,94.9 2217.2,94.9 2245.3,94.9 
					2273.3,94.9 2301.4,94.9 2329.5,94.9 2357.5,94.9 2385.6,94.9 2413.7,94.9 2441.7,94.9 2469.8,94.9 2497.9,94.9 2525.9,94.9 
					2554,94.9 2582.1,94.9 2610.1,94.9 2638.2,94.9 2666.3,94.9 2694.3,94.9 2722.4,94.9 2750.4,94.9 2778.5,94.9 2806.6,94.9 
					2834.6,94.9 				"/>
				<polyline class="st5" points="0,66.8 28.1,66.8 56.1,66.8 84.2,66.8 112.3,66.8 140.3,66.8 168.4,66.8 196.5,66.8 224.5,66.8 
					252.6,66.8 280.7,66.8 308.7,66.8 336.8,66.8 364.9,66.8 392.9,66.8 421,66.8 449,66.8 477.1,66.8 505.2,66.8 533.3,66.8 
					561.3,66.8 589.4,66.8 617.5,66.8 645.5,66.8 673.6,66.8 701.6,66.8 729.7,66.8 757.8,66.8 785.8,66.8 813.9,66.8 842,66.8 
					870,66.8 898.1,66.8 926.2,66.8 954.2,66.8 982.3,66.8 1010.4,66.8 1038.4,66.8 1066.5,66.8 1094.6,66.8 1122.6,66.8 
					1150.7,66.8 1178.8,66.8 1206.8,66.8 1234.9,66.8 1263,66.8 1291,66.8 1319.1,66.8 1347.2,66.8 1375.2,66.8 1403.3,66.8 
					1431.4,66.8 1459.4,66.8 1487.5,66.8 1515.6,66.8 1543.6,66.8 1571.7,66.8 1599.8,66.8 1627.8,66.8 1655.9,66.8 1683.9,66.8 
					1712,66.8 1740.1,66.8 1768.2,66.8 1796.2,66.8 1824.3,66.8 1852.3,66.8 1880.4,66.8 1908.5,66.8 1936.5,66.8 1964.6,66.8 
					1992.7,66.8 2020.7,66.8 2048.8,66.8 2076.9,66.8 2104.9,66.8 2133,66.8 2161.1,66.8 2189.1,66.8 2217.2,66.8 2245.3,66.8 
					2273.3,66.8 2301.4,66.8 2329.5,66.8 2357.5,66.8 2385.6,66.8 2413.7,66.8 2441.7,66.8 2469.8,66.8 2497.9,66.8 2525.9,66.8 
					2554,66.8 2582.1,66.8 2610.1,66.8 2638.2,66.8 2666.3,66.8 2694.3,66.8 2722.4,66.8 2750.4,66.8 2778.5,66.8 2806.6,66.8 
					2834.6,66.8 				"/>
				<polyline class="st5" points="0,38.8 28.1,38.8 56.1,38.8 84.2,38.8 112.3,38.8 140.3,38.8 168.4,38.8 196.5,38.8 224.5,38.8 
					252.6,38.8 280.7,38.8 308.7,38.8 336.8,38.8 364.9,38.8 392.9,38.8 421,38.8 449,38.8 477.1,38.8 505.2,38.8 533.3,38.8 
					561.3,38.8 589.4,38.8 617.5,38.8 645.5,38.8 673.6,38.8 701.6,38.8 729.7,38.8 757.8,38.8 785.8,38.8 813.9,38.8 842,38.8 
					870,38.8 898.1,38.8 926.2,38.8 954.2,38.8 982.3,38.8 1010.4,38.8 1038.4,38.8 1066.5,38.8 1094.6,38.8 1122.6,38.8 
					1150.7,38.8 1178.8,38.8 1206.8,38.8 1234.9,38.8 1263,38.8 1291,38.8 1319.1,38.8 1347.2,38.8 1375.2,38.8 1403.3,38.8 
					1431.4,38.8 1459.4,38.8 1487.5,38.8 1515.6,38.8 1543.6,38.8 1571.7,38.8 1599.8,38.8 1627.8,38.8 1655.9,38.8 1683.9,38.8 
					1712,38.8 1740.1,38.8 1768.2,38.8 1796.2,38.8 1824.3,38.8 1852.3,38.8 1880.4,38.8 1908.5,38.8 1936.5,38.8 1964.6,38.8 
					1992.7,38.8 2020.7,38.8 2048.8,38.8 2076.9,38.8 2104.9,38.8 2133,38.8 2161.1,38.8 2189.1,38.8 2217.2,38.8 2245.3,38.8 
					2273.3,38.8 2301.4,38.8 2329.5,38.8 2357.5,38.8 2385.6,38.8 2413.7,38.8 2441.7,38.8 2469.8,38.8 2497.9,38.8 2525.9,38.8 
					2554,38.8 2582.1,38.8 2610.1,38.8 2638.2,38.8 2666.3,38.8 2694.3,38.8 2722.4,38.8 2750.4,38.8 2778.5,38.8 2806.6,38.8 
					2834.6,38.8 				"/>
				<polyline class="st5" points="0,10.7 28.1,10.7 56.1,10.7 84.2,10.7 112.3,10.7 140.3,10.7 168.4,10.7 196.5,10.7 224.5,10.7 
					252.6,10.7 280.7,10.7 308.7,10.7 336.8,10.7 364.9,10.7 392.9,10.7 421,10.7 449,10.7 477.1,10.7 505.2,10.7 533.3,10.7 
					561.3,10.7 589.4,10.7 617.5,10.7 645.5,10.7 673.6,10.7 701.6,10.7 729.7,10.7 757.8,10.7 785.8,10.7 813.9,10.7 842,10.7 
					870,10.7 898.1,10.7 926.2,10.7 954.2,10.7 982.3,10.7 1010.4,10.7 1038.4,10.7 1066.5,10.7 1094.6,10.7 1122.6,10.7 
					1150.7,10.7 1178.8,10.7 1206.8,10.7 1234.9,10.7 1263,10.7 1291,10.7 1319.1,10.7 1347.2,10.7 1375.2,10.7 1403.3,10.7 
					1431.4,10.7 1459.4,10.7 1487.5,10.7 1515.6,10.7 1543.6,10.7 1571.7,10.7 1599.8,10.7 1627.8,10.7 1655.9,10.7 1683.9,10.7 
					1712,10.7 1740.1,10.7 1768.2,10.7 1796.2,10.7 1824.3,10.7 1852.3,10.7 1880.4,10.7 1908.5,10.7 1936.5,10.7 1964.6,10.7 
					1992.7,10.7 2020.7,10.7 2048.8,10.7 2076.9,10.7 2104.9,10.7 2133,10.7 2161.1,10.7 2189.1,10.7 2217.2,10.7 2245.3,10.7 
					2273.3,10.7 2301.4,10.7 2329.5,10.7 2357.5,10.7 2385.6,10.7 2413.7,10.7 2441.7,10.7 2469.8,10.7 2497.9,10.7 2525.9,10.7 
					2554,10.7 2582.1,10.7 2610.1,10.7 2638.2,10.7 2666.3,10.7 2694.3,10.7 2722.4,10.7 2750.4,10.7 2778.5,10.7 2806.6,10.7 
					2834.6,10.7 				"/>
				<polyline class="st5" points="505.2,-1140 505.2,-1111.9 505.2,-1083.9 505.2,-1055.8 505.2,-1027.7 505.2,-999.7 505.2,-971.6 
					505.2,-943.5 505.2,-915.5 505.2,-887.4 505.2,-859.3 505.2,-831.3 505.2,-803.2 505.2,-775.1 505.2,-747.1 505.2,-719 
					505.2,-691 505.2,-662.9 505.2,-634.8 505.2,-606.8 505.2,-578.7 505.2,-550.6 505.2,-522.5 505.2,-494.5 505.2,-466.4 
					505.2,-438.4 505.2,-410.3 505.2,-382.2 505.2,-354.2 505.2,-326.1 505.2,-298 505.2,-270 505.2,-241.9 505.2,-213.8 
					505.2,-185.8 505.2,-157.7 505.2,-129.6 505.2,-101.6 505.2,-73.5 505.2,-45.4 505.2,-17.4 505.2,10.7 505.2,38.8 505.2,66.8 
					505.2,94.9 505.2,123 505.2,151 505.2,179.1 505.2,207.2 505.2,235.2 505.2,263.3 505.2,291.4 505.2,319.4 505.2,347.5 
					505.2,375.5 505.2,403.6 505.2,431.7 505.2,459.8 505.2,487.8 505.2,515.9 505.2,544 505.2,572 505.2,600.1 505.2,628.2 
					505.2,656.2 505.2,684.3 505.2,712.3 505.2,740.4 505.2,768.5 505.2,796.5 505.2,824.6 505.2,852.7 505.2,880.7 505.2,908.8 
					505.2,936.9 505.2,964.9 505.2,993 505.2,1021.1 505.2,1049.1 505.2,1077.2 505.2,1105.3 505.2,1133.3 505.2,1161.4 
					505.2,1189.5 505.2,1217.5 505.2,1245.6 505.2,1273.7 505.2,1301.7 505.2,1329.8 505.2,1357.9 505.2,1385.9 505.2,1414 
					505.2,1442.1 505.2,1470.1 505.2,1498.2 505.2,1526.3 505.2,1554.3 505.2,1582.4 505.2,1610.4 505.2,1638.5 505.2,1666.6 
					505.2,1694.7 				"/>
				<polyline class="st5" points="477.1,-1140 477.1,-1111.9 477.1,-1083.9 477.1,-1055.8 477.1,-1027.7 477.1,-999.7 477.1,-971.6 
					477.1,-943.5 477.1,-915.5 477.1,-887.4 477.1,-859.3 477.1,-831.3 477.1,-803.2 477.1,-775.1 477.1,-747.1 477.1,-719 
					477.1,-691 477.1,-662.9 477.1,-634.8 477.1,-606.8 477.1,-578.7 477.1,-550.6 477.1,-522.5 477.1,-494.5 477.1,-466.4 
					477.1,-438.4 477.1,-410.3 477.1,-382.2 477.1,-354.2 477.1,-326.1 477.1,-298 477.1,-270 477.1,-241.9 477.1,-213.8 
					477.1,-185.8 477.1,-157.7 477.1,-129.6 477.1,-101.6 477.1,-73.5 477.1,-45.4 477.1,-17.4 477.1,10.7 477.1,38.8 477.1,66.8 
					477.1,94.9 477.1,123 477.1,151 477.1,179.1 477.1,207.2 477.1,235.2 477.1,263.3 477.1,291.4 477.1,319.4 477.1,347.5 
					477.1,375.5 477.1,403.6 477.1,431.7 477.1,459.8 477.1,487.8 477.1,515.9 477.1,544 477.1,572 477.1,600.1 477.1,628.2 
					477.1,656.2 477.1,684.3 477.1,712.3 477.1,740.4 477.1,768.5 477.1,796.5 477.1,824.6 477.1,852.7 477.1,880.7 477.1,908.8 
					477.1,936.9 477.1,964.9 477.1,993 477.1,1021.1 477.1,1049.1 477.1,1077.2 477.1,1105.3 477.1,1133.3 477.1,1161.4 
					477.1,1189.5 477.1,1217.5 477.1,1245.6 477.1,1273.7 477.1,1301.7 477.1,1329.8 477.1,1357.9 477.1,1385.9 477.1,1414 
					477.1,1442.1 477.1,1470.1 477.1,1498.2 477.1,1526.3 477.1,1554.3 477.1,1582.4 477.1,1610.4 477.1,1638.5 477.1,1666.6 
					477.1,1694.7 				"/>
				<polyline class="st5" points="449,-1140 449,-1111.9 449,-1083.9 449,-1055.8 449,-1027.7 449,-999.7 449,-971.6 449,-943.5 
					449,-915.5 449,-887.4 449,-859.3 449,-831.3 449,-803.2 449,-775.1 449,-747.1 449,-719 449,-691 449,-662.9 449,-634.8 
					449,-606.8 449,-578.7 449,-550.6 449,-522.5 449,-494.5 449,-466.4 449,-438.4 449,-410.3 449,-382.2 449,-354.2 449,-326.1 
					449,-298 449,-270 449,-241.9 449,-213.8 449,-185.8 449,-157.7 449,-129.6 449,-101.6 449,-73.5 449,-45.4 449,-17.4 449,10.7 
					449,38.8 449,66.8 449,94.9 449,123 449,151 449,179.1 449,207.2 449,235.2 449,263.3 449,291.4 449,319.4 449,347.5 449,375.5 
					449,403.6 449,431.7 449,459.8 449,487.8 449,515.9 449,544 449,572 449,600.1 449,628.2 449,656.2 449,684.3 449,712.3 
					449,740.4 449,768.5 449,796.5 449,824.6 449,852.7 449,880.7 449,908.8 449,936.9 449,964.9 449,993 449,1021.1 449,1049.1 
					449,1077.2 449,1105.3 449,1133.3 449,1161.4 449,1189.5 449,1217.5 449,1245.6 449,1273.7 449,1301.7 449,1329.8 449,1357.9 
					449,1385.9 449,1414 449,1442.1 449,1470.1 449,1498.2 449,1526.3 449,1554.3 449,1582.4 449,1610.4 449,1638.5 449,1666.6 
					449,1694.7 				"/>
				<polyline class="st5" points="421,-1140 421,-1111.9 421,-1083.9 421,-1055.8 421,-1027.7 421,-999.7 421,-971.6 421,-943.5 
					421,-915.5 421,-887.4 421,-859.3 421,-831.3 421,-803.2 421,-775.1 421,-747.1 421,-719 421,-691 421,-662.9 421,-634.8 
					421,-606.8 421,-578.7 421,-550.6 421,-522.5 421,-494.5 421,-466.4 421,-438.4 421,-410.3 421,-382.2 421,-354.2 421,-326.1 
					421,-298 421,-270 421,-241.9 421,-213.8 421,-185.8 421,-157.7 421,-129.6 421,-101.6 421,-73.5 421,-45.4 421,-17.4 421,10.7 
					421,38.8 421,66.8 421,94.9 421,123 421,151 421,179.1 421,207.2 421,235.2 421,263.3 421,291.4 421,319.4 421,347.5 421,375.5 
					421,403.6 421,431.7 421,459.8 421,487.8 421,515.9 421,544 421,572 421,600.1 421,628.2 421,656.2 421,684.3 421,712.3 
					421,740.4 421,768.5 421,796.5 421,824.6 421,852.7 421,880.7 421,908.8 421,936.9 421,964.9 421,993 421,1021.1 421,1049.1 
					421,1077.2 421,1105.3 421,1133.3 421,1161.4 421,1189.5 421,1217.5 421,1245.6 421,1273.7 421,1301.7 421,1329.8 421,1357.9 
					421,1385.9 421,1414 421,1442.1 421,1470.1 421,1498.2 421,1526.3 421,1554.3 421,1582.4 421,1610.4 421,1638.5 421,1666.6 
					421,1694.7 				"/>
				<polyline class="st5" points="392.9,-1140 392.9,-1111.9 392.9,-1083.9 392.9,-1055.8 392.9,-1027.7 392.9,-999.7 392.9,-971.6 
					392.9,-943.5 392.9,-915.5 392.9,-887.4 392.9,-859.3 392.9,-831.3 392.9,-803.2 392.9,-775.1 392.9,-747.1 392.9,-719 
					392.9,-691 392.9,-662.9 392.9,-634.8 392.9,-606.8 392.9,-578.7 392.9,-550.6 392.9,-522.5 392.9,-494.5 392.9,-466.4 
					392.9,-438.4 392.9,-410.3 392.9,-382.2 392.9,-354.2 392.9,-326.1 392.9,-298 392.9,-270 392.9,-241.9 392.9,-213.8 
					392.9,-185.8 392.9,-157.7 392.9,-129.6 392.9,-101.6 392.9,-73.5 392.9,-45.4 392.9,-17.4 392.9,10.7 392.9,38.8 392.9,66.8 
					392.9,94.9 392.9,123 392.9,151 392.9,179.1 392.9,207.2 392.9,235.2 392.9,263.3 392.9,291.4 392.9,319.4 392.9,347.5 
					392.9,375.5 392.9,403.6 392.9,431.7 392.9,459.8 392.9,487.8 392.9,515.9 392.9,544 392.9,572 392.9,600.1 392.9,628.2 
					392.9,656.2 392.9,684.3 392.9,712.3 392.9,740.4 392.9,768.5 392.9,796.5 392.9,824.6 392.9,852.7 392.9,880.7 392.9,908.8 
					392.9,936.9 392.9,964.9 392.9,993 392.9,1021.1 392.9,1049.1 392.9,1077.2 392.9,1105.3 392.9,1133.3 392.9,1161.4 
					392.9,1189.5 392.9,1217.5 392.9,1245.6 392.9,1273.7 392.9,1301.7 392.9,1329.8 392.9,1357.9 392.9,1385.9 392.9,1414 
					392.9,1442.1 392.9,1470.1 392.9,1498.2 392.9,1526.3 392.9,1554.3 392.9,1582.4 392.9,1610.4 392.9,1638.5 392.9,1666.6 
					392.9,1694.7 				"/>
				<polyline class="st5" points="364.9,-1140 364.9,-1111.9 364.9,-1083.9 364.9,-1055.8 364.9,-1027.7 364.9,-999.7 364.9,-971.6 
					364.9,-943.5 364.9,-915.5 364.9,-887.4 364.9,-859.3 364.9,-831.3 364.9,-803.2 364.9,-775.1 364.9,-747.1 364.9,-719 
					364.9,-691 364.9,-662.9 364.9,-634.8 364.9,-606.8 364.9,-578.7 364.9,-550.6 364.9,-522.5 364.9,-494.5 364.9,-466.4 
					364.9,-438.4 364.9,-410.3 364.9,-382.2 364.9,-354.2 364.9,-326.1 364.9,-298 364.9,-270 364.9,-241.9 364.9,-213.8 
					364.9,-185.8 364.9,-157.7 364.9,-129.6 364.9,-101.6 364.9,-73.5 364.9,-45.4 364.9,-17.4 364.9,10.7 364.9,38.8 364.9,66.8 
					364.9,94.9 364.9,123 364.9,151 364.9,179.1 364.9,207.2 364.9,235.2 364.9,263.3 364.9,291.4 364.9,319.4 364.9,347.5 
					364.9,375.5 364.9,403.6 364.9,431.7 364.9,459.8 364.9,487.8 364.9,515.9 364.9,544 364.9,572 364.9,600.1 364.9,628.2 
					364.9,656.2 364.9,684.3 364.9,712.3 364.9,740.4 364.9,768.5 364.9,796.5 364.9,824.6 364.9,852.7 364.9,880.7 364.9,908.8 
					364.9,936.9 364.9,964.9 364.9,993 364.9,1021.1 364.9,1049.1 364.9,1077.2 364.9,1105.3 364.9,1133.3 364.9,1161.4 
					364.9,1189.5 364.9,1217.5 364.9,1245.6 364.9,1273.7 364.9,1301.7 364.9,1329.8 364.9,1357.9 364.9,1385.9 364.9,1414 
					364.9,1442.1 364.9,1470.1 364.9,1498.2 364.9,1526.3 364.9,1554.3 364.9,1582.4 364.9,1610.4 364.9,1638.5 364.9,1666.6 
					364.9,1694.7 				"/>
				<polyline class="st5" points="336.8,-1140 336.8,-1111.9 336.8,-1083.9 336.8,-1055.8 336.8,-1027.7 336.8,-999.7 336.8,-971.6 
					336.8,-943.5 336.8,-915.5 336.8,-887.4 336.8,-859.3 336.8,-831.3 336.8,-803.2 336.8,-775.1 336.8,-747.1 336.8,-719 
					336.8,-691 336.8,-662.9 336.8,-634.8 336.8,-606.8 336.8,-578.7 336.8,-550.6 336.8,-522.5 336.8,-494.5 336.8,-466.4 
					336.8,-438.4 336.8,-410.3 336.8,-382.2 336.8,-354.2 336.8,-326.1 336.8,-298 336.8,-270 336.8,-241.9 336.8,-213.8 
					336.8,-185.8 336.8,-157.7 336.8,-129.6 336.8,-101.6 336.8,-73.5 336.8,-45.4 336.8,-17.4 336.8,10.7 336.8,38.8 336.8,66.8 
					336.8,94.9 336.8,123 336.8,151 336.8,179.1 336.8,207.2 336.8,235.2 336.8,263.3 336.8,291.4 336.8,319.4 336.8,347.5 
					336.8,375.5 336.8,403.6 336.8,431.7 336.8,459.8 336.8,487.8 336.8,515.9 336.8,544 336.8,572 336.8,600.1 336.8,628.2 
					336.8,656.2 336.8,684.3 336.8,712.3 336.8,740.4 336.8,768.5 336.8,796.5 336.8,824.6 336.8,852.7 336.8,880.7 336.8,908.8 
					336.8,936.9 336.8,964.9 336.8,993 336.8,1021.1 336.8,1049.1 336.8,1077.2 336.8,1105.3 336.8,1133.3 336.8,1161.4 
					336.8,1189.5 336.8,1217.5 336.8,1245.6 336.8,1273.7 336.8,1301.7 336.8,1329.8 336.8,1357.9 336.8,1385.9 336.8,1414 
					336.8,1442.1 336.8,1470.1 336.8,1498.2 336.8,1526.3 336.8,1554.3 336.8,1582.4 336.8,1610.4 336.8,1638.5 336.8,1666.6 
					336.8,1694.7 				"/>
				<polyline class="st5" points="308.7,-1140 308.7,-1111.9 308.7,-1083.9 308.7,-1055.8 308.7,-1027.7 308.7,-999.7 308.7,-971.6 
					308.7,-943.5 308.7,-915.5 308.7,-887.4 308.7,-859.3 308.7,-831.3 308.7,-803.2 308.7,-775.1 308.7,-747.1 308.7,-719 
					308.7,-691 308.7,-662.9 308.7,-634.8 308.7,-606.8 308.7,-578.7 308.7,-550.6 308.7,-522.5 308.7,-494.5 308.7,-466.4 
					308.7,-438.4 308.7,-410.3 308.7,-382.2 308.7,-354.2 308.7,-326.1 308.7,-298 308.7,-270 308.7,-241.9 308.7,-213.8 
					308.7,-185.8 308.7,-157.7 308.7,-129.6 308.7,-101.6 308.7,-73.5 308.7,-45.4 308.7,-17.4 308.7,10.7 308.7,38.8 308.7,66.8 
					308.7,94.9 308.7,123 308.7,151 308.7,179.1 308.7,207.2 308.7,235.2 308.7,263.3 308.7,291.4 308.7,319.4 308.7,347.5 
					308.7,375.5 308.7,403.6 308.7,431.7 308.7,459.8 308.7,487.8 308.7,515.9 308.7,544 308.7,572 308.7,600.1 308.7,628.2 
					308.7,656.2 308.7,684.3 308.7,712.3 308.7,740.4 308.7,768.5 308.7,796.5 308.7,824.6 308.7,852.7 308.7,880.7 308.7,908.8 
					308.7,936.9 308.7,964.9 308.7,993 308.7,1021.1 308.7,1049.1 308.7,1077.2 308.7,1105.3 308.7,1133.3 308.7,1161.4 
					308.7,1189.5 308.7,1217.5 308.7,1245.6 308.7,1273.7 308.7,1301.7 308.7,1329.8 308.7,1357.9 308.7,1385.9 308.7,1414 
					308.7,1442.1 308.7,1470.1 308.7,1498.2 308.7,1526.3 308.7,1554.3 308.7,1582.4 308.7,1610.4 308.7,1638.5 308.7,1666.6 
					308.7,1694.7 				"/>
				<polyline class="st5" points="280.7,-1140 280.7,-1111.9 280.7,-1083.9 280.7,-1055.8 280.7,-1027.7 280.7,-999.7 280.7,-971.6 
					280.7,-943.5 280.7,-915.5 280.7,-887.4 280.7,-859.3 280.7,-831.3 280.7,-803.2 280.7,-775.1 280.7,-747.1 280.7,-719 
					280.7,-691 280.7,-662.9 280.7,-634.8 280.7,-606.8 280.7,-578.7 280.7,-550.6 280.7,-522.5 280.7,-494.5 280.7,-466.4 
					280.7,-438.4 280.7,-410.3 280.7,-382.2 280.7,-354.2 280.7,-326.1 280.7,-298 280.7,-270 280.7,-241.9 280.7,-213.8 
					280.7,-185.8 280.7,-157.7 280.7,-129.6 280.7,-101.6 280.7,-73.5 280.7,-45.4 280.7,-17.4 280.7,10.7 280.7,38.8 280.7,66.8 
					280.7,94.9 280.7,123 280.7,151 280.7,179.1 280.7,207.2 280.7,235.2 280.7,263.3 280.7,291.4 280.7,319.4 280.7,347.5 
					280.7,375.5 280.7,403.6 280.7,431.7 280.7,459.8 280.7,487.8 280.7,515.9 280.7,544 280.7,572 280.7,600.1 280.7,628.2 
					280.7,656.2 280.7,684.3 280.7,712.3 280.7,740.4 280.7,768.5 280.7,796.5 280.7,824.6 280.7,852.7 280.7,880.7 280.7,908.8 
					280.7,936.9 280.7,964.9 280.7,993 280.7,1021.1 280.7,1049.1 280.7,1077.2 280.7,1105.3 280.7,1133.3 280.7,1161.4 
					280.7,1189.5 280.7,1217.5 280.7,1245.6 280.7,1273.7 280.7,1301.7 280.7,1329.8 280.7,1357.9 280.7,1385.9 280.7,1414 
					280.7,1442.1 280.7,1470.1 280.7,1498.2 280.7,1526.3 280.7,1554.3 280.7,1582.4 280.7,1610.4 280.7,1638.5 280.7,1666.6 
					280.7,1694.7 				"/>
				<polyline class="st5" points="252.6,-1140 252.6,-1111.9 252.6,-1083.9 252.6,-1055.8 252.6,-1027.7 252.6,-999.7 252.6,-971.6 
					252.6,-943.5 252.6,-915.5 252.6,-887.4 252.6,-859.3 252.6,-831.3 252.6,-803.2 252.6,-775.1 252.6,-747.1 252.6,-719 
					252.6,-691 252.6,-662.9 252.6,-634.8 252.6,-606.8 252.6,-578.7 252.6,-550.6 252.6,-522.5 252.6,-494.5 252.6,-466.4 
					252.6,-438.4 252.6,-410.3 252.6,-382.2 252.6,-354.2 252.6,-326.1 252.6,-298 252.6,-270 252.6,-241.9 252.6,-213.8 
					252.6,-185.8 252.6,-157.7 252.6,-129.6 252.6,-101.6 252.6,-73.5 252.6,-45.4 252.6,-17.4 252.6,10.7 252.6,38.8 252.6,66.8 
					252.6,94.9 252.6,123 252.6,151 252.6,179.1 252.6,207.2 252.6,235.2 252.6,263.3 252.6,291.4 252.6,319.4 252.6,347.5 
					252.6,375.5 252.6,403.6 252.6,431.7 252.6,459.8 252.6,487.8 252.6,515.9 252.6,544 252.6,572 252.6,600.1 252.6,628.2 
					252.6,656.2 252.6,684.3 252.6,712.3 252.6,740.4 252.6,768.5 252.6,796.5 252.6,824.6 252.6,852.7 252.6,880.7 252.6,908.8 
					252.6,936.9 252.6,964.9 252.6,993 252.6,1021.1 252.6,1049.1 252.6,1077.2 252.6,1105.3 252.6,1133.3 252.6,1161.4 
					252.6,1189.5 252.6,1217.5 252.6,1245.6 252.6,1273.7 252.6,1301.7 252.6,1329.8 252.6,1357.9 252.6,1385.9 252.6,1414 
					252.6,1442.1 252.6,1470.1 252.6,1498.2 252.6,1526.3 252.6,1554.3 252.6,1582.4 252.6,1610.4 252.6,1638.5 252.6,1666.6 
					252.6,1694.7 				"/>
				<polyline class="st5" points="224.5,-1140 224.5,-1111.9 224.5,-1083.9 224.5,-1055.8 224.5,-1027.7 224.5,-999.7 224.5,-971.6 
					224.5,-943.5 224.5,-915.5 224.5,-887.4 224.5,-859.3 224.5,-831.3 224.5,-803.2 224.5,-775.1 224.5,-747.1 224.5,-719 
					224.5,-691 224.5,-662.9 224.5,-634.8 224.5,-606.8 224.5,-578.7 224.5,-550.6 224.5,-522.5 224.5,-494.5 224.5,-466.4 
					224.5,-438.4 224.5,-410.3 224.5,-382.2 224.5,-354.2 224.5,-326.1 224.5,-298 224.5,-270 224.5,-241.9 224.5,-213.8 
					224.5,-185.8 224.5,-157.7 224.5,-129.6 224.5,-101.6 224.5,-73.5 224.5,-45.4 224.5,-17.4 224.5,10.7 224.5,38.8 224.5,66.8 
					224.5,94.9 224.5,123 224.5,151 224.5,179.1 224.5,207.2 224.5,235.2 224.5,263.3 224.5,291.4 224.5,319.4 224.5,347.5 
					224.5,375.5 224.5,403.6 224.5,431.7 224.5,459.8 224.5,487.8 224.5,515.9 224.5,544 224.5,572 224.5,600.1 224.5,628.2 
					224.5,656.2 224.5,684.3 224.5,712.3 224.5,740.4 224.5,768.5 224.5,796.5 224.5,824.6 224.5,852.7 224.5,880.7 224.5,908.8 
					224.5,936.9 224.5,964.9 224.5,993 224.5,1021.1 224.5,1049.1 224.5,1077.2 224.5,1105.3 224.5,1133.3 224.5,1161.4 
					224.5,1189.5 224.5,1217.5 224.5,1245.6 224.5,1273.7 224.5,1301.7 224.5,1329.8 224.5,1357.9 224.5,1385.9 224.5,1414 
					224.5,1442.1 224.5,1470.1 224.5,1498.2 224.5,1526.3 224.5,1554.3 224.5,1582.4 224.5,1610.4 224.5,1638.5 224.5,1666.6 
					224.5,1694.7 				"/>
				<polyline class="st5" points="196.5,-1140 196.5,-1111.9 196.5,-1083.9 196.5,-1055.8 196.5,-1027.7 196.5,-999.7 196.5,-971.6 
					196.5,-943.5 196.5,-915.5 196.5,-887.4 196.5,-859.3 196.5,-831.3 196.5,-803.2 196.5,-775.1 196.5,-747.1 196.5,-719 
					196.5,-691 196.5,-662.9 196.5,-634.8 196.5,-606.8 196.5,-578.7 196.5,-550.6 196.5,-522.5 196.5,-494.5 196.5,-466.4 
					196.5,-438.4 196.5,-410.3 196.5,-382.2 196.5,-354.2 196.5,-326.1 196.5,-298 196.5,-270 196.5,-241.9 196.5,-213.8 
					196.5,-185.8 196.5,-157.7 196.5,-129.6 196.5,-101.6 196.5,-73.5 196.5,-45.4 196.5,-17.4 196.5,10.7 196.5,38.8 196.5,66.8 
					196.5,94.9 196.5,123 196.5,151 196.5,179.1 196.5,207.2 196.5,235.2 196.5,263.3 196.5,291.4 196.5,319.4 196.5,347.5 
					196.5,375.5 196.5,403.6 196.5,431.7 196.5,459.8 196.5,487.8 196.5,515.9 196.5,544 196.5,572 196.5,600.1 196.5,628.2 
					196.5,656.2 196.5,684.3 196.5,712.3 196.5,740.4 196.5,768.5 196.5,796.5 196.5,824.6 196.5,852.7 196.5,880.7 196.5,908.8 
					196.5,936.9 196.5,964.9 196.5,993 196.5,1021.1 196.5,1049.1 196.5,1077.2 196.5,1105.3 196.5,1133.3 196.5,1161.4 
					196.5,1189.5 196.5,1217.5 196.5,1245.6 196.5,1273.7 196.5,1301.7 196.5,1329.8 196.5,1357.9 196.5,1385.9 196.5,1414 
					196.5,1442.1 196.5,1470.1 196.5,1498.2 196.5,1526.3 196.5,1554.3 196.5,1582.4 196.5,1610.4 196.5,1638.5 196.5,1666.6 
					196.5,1694.7 				"/>
				<polyline class="st5" points="168.4,-1140 168.4,-1111.9 168.4,-1083.9 168.4,-1055.8 168.4,-1027.7 168.4,-999.7 168.4,-971.6 
					168.4,-943.5 168.4,-915.5 168.4,-887.4 168.4,-859.3 168.4,-831.3 168.4,-803.2 168.4,-775.1 168.4,-747.1 168.4,-719 
					168.4,-691 168.4,-662.9 168.4,-634.8 168.4,-606.8 168.4,-578.7 168.4,-550.6 168.4,-522.5 168.4,-494.5 168.4,-466.4 
					168.4,-438.4 168.4,-410.3 168.4,-382.2 168.4,-354.2 168.4,-326.1 168.4,-298 168.4,-270 168.4,-241.9 168.4,-213.8 
					168.4,-185.8 168.4,-157.7 168.4,-129.6 168.4,-101.6 168.4,-73.5 168.4,-45.4 168.4,-17.4 168.4,10.7 168.4,38.8 168.4,66.8 
					168.4,94.9 168.4,123 168.4,151 168.4,179.1 168.4,207.2 168.4,235.2 168.4,263.3 168.4,291.4 168.4,319.4 168.4,347.5 
					168.4,375.5 168.4,403.6 168.4,431.7 168.4,459.8 168.4,487.8 168.4,515.9 168.4,544 168.4,572 168.4,600.1 168.4,628.2 
					168.4,656.2 168.4,684.3 168.4,712.3 168.4,740.4 168.4,768.5 168.4,796.5 168.4,824.6 168.4,852.7 168.4,880.7 168.4,908.8 
					168.4,936.9 168.4,964.9 168.4,993 168.4,1021.1 168.4,1049.1 168.4,1077.2 168.4,1105.3 168.4,1133.3 168.4,1161.4 
					168.4,1189.5 168.4,1217.5 168.4,1245.6 168.4,1273.7 168.4,1301.7 168.4,1329.8 168.4,1357.9 168.4,1385.9 168.4,1414 
					168.4,1442.1 168.4,1470.1 168.4,1498.2 168.4,1526.3 168.4,1554.3 168.4,1582.4 168.4,1610.4 168.4,1638.5 168.4,1666.6 
					168.4,1694.7 				"/>
				<polyline class="st5" points="140.3,-1140 140.3,-1111.9 140.3,-1083.9 140.3,-1055.8 140.3,-1027.7 140.3,-999.7 140.3,-971.6 
					140.3,-943.5 140.3,-915.5 140.3,-887.4 140.3,-859.3 140.3,-831.3 140.3,-803.2 140.3,-775.1 140.3,-747.1 140.3,-719 
					140.3,-691 140.3,-662.9 140.3,-634.8 140.3,-606.8 140.3,-578.7 140.3,-550.6 140.3,-522.5 140.3,-494.5 140.3,-466.4 
					140.3,-438.4 140.3,-410.3 140.3,-382.2 140.3,-354.2 140.3,-326.1 140.3,-298 140.3,-270 140.3,-241.9 140.3,-213.8 
					140.3,-185.8 140.3,-157.7 140.3,-129.6 140.3,-101.6 140.3,-73.5 140.3,-45.4 140.3,-17.4 140.3,10.7 140.3,38.8 140.3,66.8 
					140.3,94.9 140.3,123 140.3,151 140.3,179.1 140.3,207.2 140.3,235.2 140.3,263.3 140.3,291.4 140.3,319.4 140.3,347.5 
					140.3,375.5 140.3,403.6 140.3,431.7 140.3,459.8 140.3,487.8 140.3,515.9 140.3,544 140.3,572 140.3,600.1 140.3,628.2 
					140.3,656.2 140.3,684.3 140.3,712.3 140.3,740.4 140.3,768.5 140.3,796.5 140.3,824.6 140.3,852.7 140.3,880.7 140.3,908.8 
					140.3,936.9 140.3,964.9 140.3,993 140.3,1021.1 140.3,1049.1 140.3,1077.2 140.3,1105.3 140.3,1133.3 140.3,1161.4 
					140.3,1189.5 140.3,1217.5 140.3,1245.6 140.3,1273.7 140.3,1301.7 140.3,1329.8 140.3,1357.9 140.3,1385.9 140.3,1414 
					140.3,1442.1 140.3,1470.1 140.3,1498.2 140.3,1526.3 140.3,1554.3 140.3,1582.4 140.3,1610.4 140.3,1638.5 140.3,1666.6 
					140.3,1694.7 				"/>
				<polyline class="st5" points="112.3,-1140 112.3,-1111.9 112.3,-1083.9 112.3,-1055.8 112.3,-1027.7 112.3,-999.7 112.3,-971.6 
					112.3,-943.5 112.3,-915.5 112.3,-887.4 112.3,-859.3 112.3,-831.3 112.3,-803.2 112.3,-775.1 112.3,-747.1 112.3,-719 
					112.3,-691 112.3,-662.9 112.3,-634.8 112.3,-606.8 112.3,-578.7 112.3,-550.6 112.3,-522.5 112.3,-494.5 112.3,-466.4 
					112.3,-438.4 112.3,-410.3 112.3,-382.2 112.3,-354.2 112.3,-326.1 112.3,-298 112.3,-270 112.3,-241.9 112.3,-213.8 
					112.3,-185.8 112.3,-157.7 112.3,-129.6 112.3,-101.6 112.3,-73.5 112.3,-45.4 112.3,-17.4 112.3,10.7 112.3,38.8 112.3,66.8 
					112.3,94.9 112.3,123 112.3,151 112.3,179.1 112.3,207.2 112.3,235.2 112.3,263.3 112.3,291.4 112.3,319.4 112.3,347.5 
					112.3,375.5 112.3,403.6 112.3,431.7 112.3,459.8 112.3,487.8 112.3,515.9 112.3,544 112.3,572 112.3,600.1 112.3,628.2 
					112.3,656.2 112.3,684.3 112.3,712.3 112.3,740.4 112.3,768.5 112.3,796.5 112.3,824.6 112.3,852.7 112.3,880.7 112.3,908.8 
					112.3,936.9 112.3,964.9 112.3,993 112.3,1021.1 112.3,1049.1 112.3,1077.2 112.3,1105.3 112.3,1133.3 112.3,1161.4 
					112.3,1189.5 112.3,1217.5 112.3,1245.6 112.3,1273.7 112.3,1301.7 112.3,1329.8 112.3,1357.9 112.3,1385.9 112.3,1414 
					112.3,1442.1 112.3,1470.1 112.3,1498.2 112.3,1526.3 112.3,1554.3 112.3,1582.4 112.3,1610.4 112.3,1638.5 112.3,1666.6 
					112.3,1694.7 				"/>
				<polyline class="st5" points="84.2,-1140 84.2,-1111.9 84.2,-1083.9 84.2,-1055.8 84.2,-1027.7 84.2,-999.7 84.2,-971.6 
					84.2,-943.5 84.2,-915.5 84.2,-887.4 84.2,-859.3 84.2,-831.3 84.2,-803.2 84.2,-775.1 84.2,-747.1 84.2,-719 84.2,-691 
					84.2,-662.9 84.2,-634.8 84.2,-606.8 84.2,-578.7 84.2,-550.6 84.2,-522.5 84.2,-494.5 84.2,-466.4 84.2,-438.4 84.2,-410.3 
					84.2,-382.2 84.2,-354.2 84.2,-326.1 84.2,-298 84.2,-270 84.2,-241.9 84.2,-213.8 84.2,-185.8 84.2,-157.7 84.2,-129.6 
					84.2,-101.6 84.2,-73.5 84.2,-45.4 84.2,-17.4 84.2,10.7 84.2,38.8 84.2,66.8 84.2,94.9 84.2,123 84.2,151 84.2,179.1 
					84.2,207.2 84.2,235.2 84.2,263.3 84.2,291.4 84.2,319.4 84.2,347.5 84.2,375.5 84.2,403.6 84.2,431.7 84.2,459.8 84.2,487.8 
					84.2,515.9 84.2,544 84.2,572 84.2,600.1 84.2,628.2 84.2,656.2 84.2,684.3 84.2,712.3 84.2,740.4 84.2,768.5 84.2,796.5 
					84.2,824.6 84.2,852.7 84.2,880.7 84.2,908.8 84.2,936.9 84.2,964.9 84.2,993 84.2,1021.1 84.2,1049.1 84.2,1077.2 84.2,1105.3 
					84.2,1133.3 84.2,1161.4 84.2,1189.5 84.2,1217.5 84.2,1245.6 84.2,1273.7 84.2,1301.7 84.2,1329.8 84.2,1357.9 84.2,1385.9 
					84.2,1414 84.2,1442.1 84.2,1470.1 84.2,1498.2 84.2,1526.3 84.2,1554.3 84.2,1582.4 84.2,1610.4 84.2,1638.5 84.2,1666.6 
					84.2,1694.7 				"/>
				<polyline class="st5" points="56.1,-1140 56.1,-1111.9 56.1,-1083.9 56.1,-1055.8 56.1,-1027.7 56.1,-999.7 56.1,-971.6 
					56.1,-943.5 56.1,-915.5 56.1,-887.4 56.1,-859.3 56.1,-831.3 56.1,-803.2 56.1,-775.1 56.1,-747.1 56.1,-719 56.1,-691 
					56.1,-662.9 56.1,-634.8 56.1,-606.8 56.1,-578.7 56.1,-550.6 56.1,-522.5 56.1,-494.5 56.1,-466.4 56.1,-438.4 56.1,-410.3 
					56.1,-382.2 56.1,-354.2 56.1,-326.1 56.1,-298 56.1,-270 56.1,-241.9 56.1,-213.8 56.1,-185.8 56.1,-157.7 56.1,-129.6 
					56.1,-101.6 56.1,-73.5 56.1,-45.4 56.1,-17.4 56.1,10.7 56.1,38.8 56.1,66.8 56.1,94.9 56.1,123 56.1,151 56.1,179.1 
					56.1,207.2 56.1,235.2 56.1,263.3 56.1,291.4 56.1,319.4 56.1,347.5 56.1,375.5 56.1,403.6 56.1,431.7 56.1,459.8 56.1,487.8 
					56.1,515.9 56.1,544 56.1,572 56.1,600.1 56.1,628.2 56.1,656.2 56.1,684.3 56.1,712.3 56.1,740.4 56.1,768.5 56.1,796.5 
					56.1,824.6 56.1,852.7 56.1,880.7 56.1,908.8 56.1,936.9 56.1,964.9 56.1,993 56.1,1021.1 56.1,1049.1 56.1,1077.2 56.1,1105.3 
					56.1,1133.3 56.1,1161.4 56.1,1189.5 56.1,1217.5 56.1,1245.6 56.1,1273.7 56.1,1301.7 56.1,1329.8 56.1,1357.9 56.1,1385.9 
					56.1,1414 56.1,1442.1 56.1,1470.1 56.1,1498.2 56.1,1526.3 56.1,1554.3 56.1,1582.4 56.1,1610.4 56.1,1638.5 56.1,1666.6 
					56.1,1694.7 				"/>
				<polyline class="st5" points="28.1,-1140 28.1,-1111.9 28.1,-1083.9 28.1,-1055.8 28.1,-1027.7 28.1,-999.7 28.1,-971.6 
					28.1,-943.5 28.1,-915.5 28.1,-887.4 28.1,-859.3 28.1,-831.3 28.1,-803.2 28.1,-775.1 28.1,-747.1 28.1,-719 28.1,-691 
					28.1,-662.9 28.1,-634.8 28.1,-606.8 28.1,-578.7 28.1,-550.6 28.1,-522.5 28.1,-494.5 28.1,-466.4 28.1,-438.4 28.1,-410.3 
					28.1,-382.2 28.1,-354.2 28.1,-326.1 28.1,-298 28.1,-270 28.1,-241.9 28.1,-213.8 28.1,-185.8 28.1,-157.7 28.1,-129.6 
					28.1,-101.6 28.1,-73.5 28.1,-45.4 28.1,-17.4 28.1,10.7 28.1,38.8 28.1,66.8 28.1,94.9 28.1,123 28.1,151 28.1,179.1 
					28.1,207.2 28.1,235.2 28.1,263.3 28.1,291.4 28.1,319.4 28.1,347.5 28.1,375.5 28.1,403.6 28.1,431.7 28.1,459.8 28.1,487.8 
					28.1,515.9 28.1,544 28.1,572 28.1,600.1 28.1,628.2 28.1,656.2 28.1,684.3 28.1,712.3 28.1,740.4 28.1,768.5 28.1,796.5 
					28.1,824.6 28.1,852.7 28.1,880.7 28.1,908.8 28.1,936.9 28.1,964.9 28.1,993 28.1,1021.1 28.1,1049.1 28.1,1077.2 28.1,1105.3 
					28.1,1133.3 28.1,1161.4 28.1,1189.5 28.1,1217.5 28.1,1245.6 28.1,1273.7 28.1,1301.7 28.1,1329.8 28.1,1357.9 28.1,1385.9 
					28.1,1414 28.1,1442.1 28.1,1470.1 28.1,1498.2 28.1,1526.3 28.1,1554.3 28.1,1582.4 28.1,1610.4 28.1,1638.5 28.1,1666.6 
					28.1,1694.7 				"/>
			</g>
		</g>
	</g>
</g>
<g id="Layer_1_copy">
	<g>
		<rect x="245" y="202.9" class="st6" width="28.1" height="28.1"/>
		<path class="st6" d="M329.2,118.7h-28.1H273V90.6H245v28.1h-28.1h-28.1v28.1h-28.1v28.1v28.1h-28.1v28.1V259h28.1v28.1v28.1h28.1
			v28.1h28.1v28.1H245v28.1H273v-28.1h28.1v-28.1h28.1v-28.1h28.1v-28.1V259h28.1v-28.1v-28.1h-28.1v-28.1v-28.1h-28.1V118.7z
			 M301.1,202.9v28.1V259H273H245h-28.1v-28.1v-28.1v-28.1H245H273h28.1V202.9z"/>
		<path class="st7" d="M385.3,118.7h-28.1V90.6h-28.1h-28.1V62.5H273H245h-28.1v28.1h-28.1h-28.1v28.1h-28.1v28.1v28.1h-28.1v28.1
			v28.1V259v28.1h28.1v28.1v28.1h28.1v28.1h28.1v28.1h28.1v28.1H245v28.1H273v-28.1h28.1v-28.1h28.1v-28.1h28.1v-28.1h28.1v-28.1
			v-28.1h28.1V259v-28.1v-28.1v-28.1h-28.1v-28.1V118.7z M357.2,174.8v28.1h28.1v28.1V259h-28.1v28.1v28.1h-28.1v28.1h-28.1v28.1
			H273v28.1H245v-28.1h-28.1v-28.1h-28.1v-28.1h-28.1v-28.1V259h-28.1v-28.1v-28.1h28.1v-28.1v-28.1h28.1v-28.1h28.1H245V90.6H273
			v28.1h28.1h28.1v28.1h28.1V174.8z"/>
		<path class="st7" d="M245,174.8h-28.1v28.1v28.1V259H245H273h28.1v-28.1v-28.1v-28.1H273H245z M273,230.9H245v-28.1H273V230.9z"/>
	</g>
</g>
</svg>
