<?xml version="1.0" encoding="utf-8"?>
<!-- Generator: Adobe Illustrator 21.1.0, SVG Export Plug-In . SVG Version: 6.00 Build 0)  -->
<svg version="1.1" xmlns="http://www.w3.org/2000/svg" xmlns:xlink="http://www.w3.org/1999/xlink" x="0px" y="0px"
	 viewBox="0 0 518 518" style="enable-background:new 0 0 518 518;" xml:space="preserve">
<style type="text/css">
	.st0{display:none;}
	.st1{display:inline;fill:none;stroke:#010101;stroke-width:11.3386;stroke-linecap:round;stroke-linejoin:round;}
	.st2{display:inline;fill:none;stroke:#010101;stroke-width:14.1732;stroke-linecap:round;stroke-linejoin:round;}
	.st3{display:inline;}
	.st4{fill:none;stroke:#010101;stroke-width:14.1732;stroke-linecap:round;stroke-linejoin:round;}
	.st5{fill:none;stroke:#000000;stroke-miterlimit:10;}
	.st6{fill:none;}
	.st7{fill:#212121;}
</style>
<g id="Layer_2" class="st0">
</g>
<g id="Layer_1" class="st0">
	<g class="st3">
		<g id="XMLID_1_">
			<g>
				<polygon class="st5" points="0,-543.9 0,-572 28.1,-572 56.1,-572 84.2,-572 112.3,-572 140.3,-572 168.4,-572 196.5,-572 
					224.5,-572 252.6,-572 280.7,-572 308.7,-572 336.8,-572 364.9,-572 392.9,-572 421,-572 449,-572 477.1,-572 505.2,-572 
					533.3,-572 561.3,-572 589.4,-572 617.5,-572 645.5,-572 673.6,-572 701.6,-572 729.7,-572 757.8,-572 785.8,-572 813.9,-572 
					842,-572 870,-572 898.1,-572 926.2,-572 954.2,-572 982.3,-572 1010.4,-572 1038.4,-572 1066.5,-572 1094.6,-572 1122.6,-572 
					1150.7,-572 1178.8,-572 1206.8,-572 1234.9,-572 1263,-572 1291,-572 1319.1,-572 1347.2,-572 1375.2,-572 1403.3,-572 
					1431.4,-572 1459.4,-572 1487.5,-572 1515.6,-572 1543.6,-572 1571.7,-572 1599.8,-572 1627.8,-572 1655.9,-572 1683.9,-572 
					1712,-572 1740.1,-572 1768.2,-572 1796.2,-572 1824.3,-572 1852.3,-572 1880.4,-572 1908.5,-572 1936.5,-572 1964.6,-572 
					1992.7,-572 2020.7,-572 2048.8,-572 2076.9,-572 2104.9,-572 2133,-572 2161.1,-572 2189.1,-572 2217.2,-572 2245.3,-572 
					2273.3,-572 2301.4,-572 2329.5,-572 2357.5,-572 2385.6,-572 2413.7,-572 2441.7,-572 2469.8,-572 2497.9,-572 2525.9,-572 
					2554,-572 2582.1,-572 2610.1,-572 2638.2,-572 2666.3,-572 2694.3,-572 2722.4,-572 2750.4,-572 2778.5,-572 2806.6,-572 
					2834.6,-572 2834.6,-543.9 2834.6,-515.9 2834.6,-487.8 2834.6,-459.7 2834.6,-431.7 2834.6,-403.6 2834.6,-375.5 
					2834.6,-347.5 2834.6,-319.4 2834.6,-291.3 2834.6,-263.3 2834.6,-235.2 2834.6,-207.1 2834.6,-179.1 2834.6,-151 
					2834.6,-122.9 2834.6,-94.9 2834.6,-66.8 2834.6,-38.8 2834.6,-10.7 2834.6,17.4 2834.6,45.5 2834.6,73.5 2834.6,101.6 
					2834.6,129.6 2834.6,157.7 2834.6,185.8 2834.6,213.8 2834.6,241.9 2834.6,270 2834.6,298 2834.6,326.1 2834.6,354.2 
					2834.6,382.2 2834.6,410.3 2834.6,438.4 2834.6,466.4 2834.6,494.5 2834.6,522.6 2834.6,550.6 2834.6,578.7 2834.6,606.8 
					2834.6,634.8 2834.6,662.9 2834.6,691 2834.6,719 2834.6,747.1 2834.6,775.2 2834.6,803.2 2834.6,831.3 2834.6,859.4 
					2834.6,887.4 2834.6,915.5 2834.6,943.5 2834.6,971.6 2834.6,999.7 2834.6,1027.8 2834.6,1055.8 2834.6,1083.9 2834.6,1111.9 
					2834.6,1140 2834.6,1168.1 2834.6,1196.2 2834.6,1224.2 2834.6,1252.3 2834.6,1280.3 2834.6,1308.4 2834.6,1336.5 
					2834.6,1364.5 2834.6,1392.6 2834.6,1420.7 2834.6,1448.7 2834.6,1476.8 2834.6,1504.9 2834.6,1532.9 2834.6,1561 
					2834.6,1589.1 2834.6,1617.1 2834.6,1645.2 2834.6,1673.3 2834.6,1701.3 2834.6,1729.4 2834.6,1757.5 2834.6,1785.5 
					2834.6,1813.6 2834.6,1841.7 2834.6,1869.7 2834.6,1897.8 2834.6,1925.9 2834.6,1953.9 2834.6,1982 2834.6,2010.1 
					2834.6,2038.1 2834.6,2066.2 2834.6,2094.3 2834.6,2122.3 2834.6,2150.4 2834.6,2178.4 2834.6,2206.5 2834.6,2234.6 
					2834.6,2262.6 2806.6,2262.6 2778.5,2262.6 2750.4,2262.6 2722.4,2262.6 2694.3,2262.6 2666.3,2262.6 2638.2,2262.6 
					2610.1,2262.6 2582.1,2262.6 2554,2262.6 2525.9,2262.6 2497.9,2262.6 2469.8,2262.6 2441.7,2262.6 2413.7,2262.6 
					2385.6,2262.6 2357.5,2262.6 2329.5,2262.6 2301.4,2262.6 2273.3,2262.6 2245.3,2262.6 2217.2,2262.6 2189.1,2262.6 
					2161.1,2262.6 2133,2262.6 2104.9,2262.6 2076.9,2262.6 2048.8,2262.6 2020.7,2262.6 1992.7,2262.6 1964.6,2262.6 
					1936.5,2262.6 1908.5,2262.6 1880.4,2262.6 1852.3,2262.6 1824.3,2262.6 1796.2,2262.6 1768.2,2262.6 1740.1,2262.6 
					1712,2262.6 1683.9,2262.6 1655.9,2262.6 1627.8,2262.6 1599.8,2262.6 1571.7,2262.6 1543.6,2262.6 1515.6,2262.6 
					1487.5,2262.6 1459.4,2262.6 1431.4,2262.6 1403.3,2262.6 1375.2,2262.6 1347.2,2262.6 1319.1,2262.6 1291,2262.6 1263,2262.6 
					1234.9,2262.6 1206.8,2262.6 1178.8,2262.6 1150.7,2262.6 1122.6,2262.6 1094.6,2262.6 1066.5,2262.6 1038.4,2262.6 
					1010.4,2262.6 982.3,2262.6 954.2,2262.6 926.2,2262.6 898.1,2262.6 870,2262.6 842,2262.6 813.9,2262.6 785.8,2262.6 
					757.8,2262.6 729.7,2262.6 701.6,2262.6 673.6,2262.6 645.5,2262.6 617.5,2262.6 589.4,2262.6 561.3,2262.6 533.3,2262.6 
					505.2,2262.6 477.1,2262.6 449,2262.6 421,2262.6 392.9,2262.6 364.9,2262.6 336.8,2262.6 308.7,2262.6 280.7,2262.6 
					252.6,2262.6 224.5,2262.6 196.5,2262.6 168.4,2262.6 140.3,2262.6 112.3,2262.6 84.2,2262.6 56.1,2262.6 28.1,2262.6 0,2262.6 
					0,2234.6 0,2206.5 0,2178.4 0,2150.4 0,2122.3 0,2094.3 0,2066.2 0,2038.1 0,2010.1 0,1982 0,1953.9 0,1925.9 0,1897.8 
					0,1869.7 0,1841.7 0,1813.6 0,1785.5 0,1757.5 0,1729.4 0,1701.3 0,1673.3 0,1645.2 0,1617.1 0,1589.1 0,1561 0,1532.9 
					0,1504.9 0,1476.8 0,1448.7 0,1420.7 0,1392.6 0,1364.5 0,1336.5 0,1308.4 0,1280.3 0,1252.3 0,1224.2 0,1196.2 0,1168.1 
					0,1140 0,1111.9 0,1083.9 0,1055.8 0,1027.8 0,999.7 0,971.6 0,943.5 0,915.5 0,887.4 0,859.4 0,831.3 0,803.2 0,775.2 0,747.1 
					0,719 0,691 0,662.9 0,634.8 0,606.8 0,578.7 0,550.6 0,522.6 0,494.5 0,466.4 0,438.4 0,410.3 0,382.2 0,354.2 0,326.1 0,298 
					0,270 0,241.9 0,213.8 0,185.8 0,157.7 0,129.6 0,101.6 0,73.5 0,45.5 0,17.4 0,-10.7 0,-38.8 0,-66.8 0,-94.9 0,-122.9 0,-151 
					0,-179.1 0,-207.1 0,-235.2 0,-263.3 0,-291.3 0,-319.4 0,-347.5 0,-375.5 0,-403.6 0,-431.7 0,-459.7 0,-487.8 0,-515.9 				
					"/>
				<polyline class="st5" points="0,494.5 28.1,494.5 56.1,494.5 84.2,494.5 112.3,494.5 140.3,494.5 168.4,494.5 196.5,494.5 
					224.5,494.5 252.6,494.5 280.7,494.5 308.7,494.5 336.8,494.5 364.9,494.5 392.9,494.5 421,494.5 449,494.5 477.1,494.5 
					505.2,494.5 533.3,494.5 561.3,494.5 589.4,494.5 617.5,494.5 645.5,494.5 673.6,494.5 701.6,494.5 729.7,494.5 757.8,494.5 
					785.8,494.5 813.9,494.5 842,494.5 870,494.5 898.1,494.5 926.2,494.5 954.2,494.5 982.3,494.5 1010.4,494.5 1038.4,494.5 
					1066.5,494.5 1094.6,494.5 1122.6,494.5 1150.7,494.5 1178.8,494.5 1206.8,494.5 1234.9,494.5 1263,494.5 1291,494.5 
					1319.1,494.5 1347.2,494.5 1375.2,494.5 1403.3,494.5 1431.4,494.5 1459.4,494.5 1487.5,494.5 1515.6,494.5 1543.6,494.5 
					1571.7,494.5 1599.8,494.5 1627.8,494.5 1655.9,494.5 1683.9,494.5 1712,494.5 1740.1,494.5 1768.2,494.5 1796.2,494.5 
					1824.3,494.5 1852.3,494.5 1880.4,494.5 1908.5,494.5 1936.5,494.5 1964.6,494.5 1992.7,494.5 2020.7,494.5 2048.8,494.5 
					2076.9,494.5 2104.9,494.5 2133,494.5 2161.1,494.5 2189.1,494.5 2217.2,494.5 2245.3,494.5 2273.3,494.5 2301.4,494.5 
					2329.5,494.5 2357.5,494.5 2385.6,494.5 2413.7,494.5 2441.7,494.5 2469.8,494.5 2497.9,494.5 2525.9,494.5 2554,494.5 
					2582.1,494.5 2610.1,494.5 2638.2,494.5 2666.3,494.5 2694.3,494.5 2722.4,494.5 2750.4,494.5 2778.5,494.5 2806.6,494.5 
					2834.6,494.5 				"/>
				<polyline class="st5" points="0,466.4 28.1,466.4 56.1,466.4 84.2,466.4 112.3,466.4 140.3,466.4 168.4,466.4 196.5,466.4 
					224.5,466.4 252.6,466.4 280.7,466.4 308.7,466.4 336.8,466.4 364.9,466.4 392.9,466.4 421,466.4 449,466.4 477.1,466.4 
					505.2,466.4 533.3,466.4 561.3,466.4 589.4,466.4 617.5,466.4 645.5,466.4 673.6,466.4 701.6,466.4 729.7,466.4 757.8,466.4 
					785.8,466.4 813.9,466.4 842,466.4 870,466.4 898.1,466.4 926.2,466.4 954.2,466.4 982.3,466.4 1010.4,466.4 1038.4,466.4 
					1066.5,466.4 1094.6,466.4 1122.6,466.4 1150.7,466.4 1178.8,466.4 1206.8,466.4 1234.9,466.4 1263,466.4 1291,466.4 
					1319.1,466.4 1347.2,466.4 1375.2,466.4 1403.3,466.4 1431.4,466.4 1459.4,466.4 1487.5,466.4 1515.6,466.4 1543.6,466.4 
					1571.7,466.4 1599.8,466.4 1627.8,466.4 1655.9,466.4 1683.9,466.4 1712,466.4 1740.1,466.4 1768.2,466.4 1796.2,466.4 
					1824.3,466.4 1852.3,466.4 1880.4,466.4 1908.5,466.4 1936.5,466.4 1964.6,466.4 1992.7,466.4 2020.7,466.4 2048.8,466.4 
					2076.9,466.4 2104.9,466.4 2133,466.4 2161.1,466.4 2189.1,466.4 2217.2,466.4 2245.3,466.4 2273.3,466.4 2301.4,466.4 
					2329.5,466.4 2357.5,466.4 2385.6,466.4 2413.7,466.4 2441.7,466.4 2469.8,466.4 2497.9,466.4 2525.9,466.4 2554,466.4 
					2582.1,466.4 2610.1,466.4 2638.2,466.4 2666.3,466.4 2694.3,466.4 2722.4,466.4 2750.4,466.4 2778.5,466.4 2806.6,466.4 
					2834.6,466.4 				"/>
				<polyline class="st5" points="0,438.4 28.1,438.4 56.1,438.4 84.2,438.4 112.3,438.4 140.3,438.4 168.4,438.4 196.5,438.4 
					224.5,438.4 252.6,438.4 280.7,438.4 308.7,438.4 336.8,438.4 364.9,438.4 392.9,438.4 421,438.4 449,438.4 477.1,438.4 
					505.2,438.4 533.3,438.4 561.3,438.4 589.4,438.4 617.5,438.4 645.5,438.4 673.6,438.4 701.6,438.4 729.7,438.4 757.8,438.4 
					785.8,438.4 813.9,438.4 842,438.4 870,438.4 898.1,438.4 926.2,438.4 954.2,438.4 982.3,438.4 1010.4,438.4 1038.4,438.4 
					1066.5,438.4 1094.6,438.4 1122.6,438.4 1150.7,438.4 1178.8,438.4 1206.8,438.4 1234.9,438.4 1263,438.4 1291,438.4 
					1319.1,438.4 1347.2,438.4 1375.2,438.4 1403.3,438.4 1431.4,438.4 1459.4,438.4 1487.5,438.4 1515.6,438.4 1543.6,438.4 
					1571.7,438.4 1599.8,438.4 1627.8,438.4 1655.9,438.4 1683.9,438.4 1712,438.4 1740.1,438.4 1768.2,438.4 1796.2,438.4 
					1824.3,438.4 1852.3,438.4 1880.4,438.4 1908.5,438.4 1936.5,438.4 1964.6,438.4 1992.7,438.4 2020.7,438.4 2048.8,438.4 
					2076.9,438.4 2104.9,438.4 2133,438.4 2161.1,438.4 2189.1,438.4 2217.2,438.4 2245.3,438.4 2273.3,438.4 2301.4,438.4 
					2329.5,438.4 2357.5,438.4 2385.6,438.4 2413.7,438.4 2441.7,438.4 2469.8,438.4 2497.9,438.4 2525.9,438.4 2554,438.4 
					2582.1,438.4 2610.1,438.4 2638.2,438.4 2666.3,438.4 2694.3,438.4 2722.4,438.4 2750.4,438.4 2778.5,438.4 2806.6,438.4 
					2834.6,438.4 				"/>
				<polyline class="st5" points="0,410.3 28.1,410.3 56.1,410.3 84.2,410.3 112.3,410.3 140.3,410.3 168.4,410.3 196.5,410.3 
					224.5,410.3 252.6,410.3 280.7,410.3 308.7,410.3 336.8,410.3 364.9,410.3 392.9,410.3 421,410.3 449,410.3 477.1,410.3 
					505.2,410.3 533.3,410.3 561.3,410.3 589.4,410.3 617.5,410.3 645.5,410.3 673.6,410.3 701.6,410.3 729.7,410.3 757.8,410.3 
					785.8,410.3 813.9,410.3 842,410.3 870,410.3 898.1,410.3 926.2,410.3 954.2,410.3 982.3,410.3 1010.4,410.3 1038.4,410.3 
					1066.5,410.3 1094.6,410.3 1122.6,410.3 1150.7,410.3 1178.8,410.3 1206.8,410.3 1234.9,410.3 1263,410.3 1291,410.3 
					1319.1,410.3 1347.2,410.3 1375.2,410.3 1403.3,410.3 1431.4,410.3 1459.4,410.3 1487.5,410.3 1515.6,410.3 1543.6,410.3 
					1571.7,410.3 1599.8,410.3 1627.8,410.3 1655.9,410.3 1683.9,410.3 1712,410.3 1740.1,410.3 1768.2,410.3 1796.2,410.3 
					1824.3,410.3 1852.3,410.3 1880.4,410.3 1908.5,410.3 1936.5,410.3 1964.6,410.3 1992.7,410.3 2020.7,410.3 2048.8,410.3 
					2076.9,410.3 2104.9,410.3 2133,410.3 2161.1,410.3 2189.1,410.3 2217.2,410.3 2245.3,410.3 2273.3,410.3 2301.4,410.3 
					2329.5,410.3 2357.5,410.3 2385.6,410.3 2413.7,410.3 2441.7,410.3 2469.8,410.3 2497.9,410.3 2525.9,410.3 2554,410.3 
					2582.1,410.3 2610.1,410.3 2638.2,410.3 2666.3,410.3 2694.3,410.3 2722.4,410.3 2750.4,410.3 2778.5,410.3 2806.6,410.3 
					2834.6,410.3 				"/>
				<polyline class="st5" points="0,382.2 28.1,382.2 56.1,382.2 84.2,382.2 112.3,382.2 140.3,382.2 168.4,382.2 196.5,382.2 
					224.5,382.2 252.6,382.2 280.7,382.2 308.7,382.2 336.8,382.2 364.9,382.2 392.9,382.2 421,382.2 449,382.2 477.1,382.2 
					505.2,382.2 533.3,382.2 561.3,382.2 589.4,382.2 617.5,382.2 645.5,382.2 673.6,382.2 701.6,382.2 729.7,382.2 757.8,382.2 
					785.8,382.2 813.9,382.2 842,382.2 870,382.2 898.1,382.2 926.2,382.2 954.2,382.2 982.3,382.2 1010.4,382.2 1038.4,382.2 
					1066.5,382.2 1094.6,382.2 1122.6,382.2 1150.7,382.2 1178.8,382.2 1206.8,382.2 1234.9,382.2 1263,382.2 1291,382.2 
					1319.1,382.2 1347.2,382.2 1375.2,382.2 1403.3,382.2 1431.4,382.2 1459.4,382.2 1487.5,382.2 1515.6,382.2 1543.6,382.2 
					1571.7,382.2 1599.8,382.2 1627.8,382.2 1655.9,382.2 1683.9,382.2 1712,382.2 1740.1,382.2 1768.2,382.2 1796.2,382.2 
					1824.3,382.2 1852.3,382.2 1880.4,382.2 1908.5,382.2 1936.5,382.2 1964.6,382.2 1992.7,382.2 2020.7,382.2 2048.8,382.2 
					2076.9,382.2 2104.9,382.2 2133,382.2 2161.1,382.2 2189.1,382.2 2217.2,382.2 2245.3,382.2 2273.3,382.2 2301.4,382.2 
					2329.5,382.2 2357.5,382.2 2385.6,382.2 2413.7,382.2 2441.7,382.2 2469.8,382.2 2497.9,382.2 2525.9,382.2 2554,382.2 
					2582.1,382.2 2610.1,382.2 2638.2,382.2 2666.3,382.2 2694.3,382.2 2722.4,382.2 2750.4,382.2 2778.5,382.2 2806.6,382.2 
					2834.6,382.2 				"/>
				<polyline class="st5" points="0,354.2 28.1,354.2 56.1,354.2 84.2,354.2 112.3,354.2 140.3,354.2 168.4,354.2 196.5,354.2 
					224.5,354.2 252.6,354.2 280.7,354.2 308.7,354.2 336.8,354.2 364.9,354.2 392.9,354.2 421,354.2 449,354.2 477.1,354.2 
					505.2,354.2 533.3,354.2 561.3,354.2 589.4,354.2 617.5,354.2 645.5,354.2 673.6,354.2 701.6,354.2 729.7,354.2 757.8,354.2 
					785.8,354.2 813.9,354.2 842,354.2 870,354.2 898.1,354.2 926.2,354.2 954.2,354.2 982.3,354.2 1010.4,354.2 1038.4,354.2 
					1066.5,354.2 1094.6,354.2 1122.6,354.2 1150.7,354.2 1178.8,354.2 1206.8,354.2 1234.9,354.2 1263,354.2 1291,354.2 
					1319.1,354.2 1347.2,354.2 1375.2,354.2 1403.3,354.2 1431.4,354.2 1459.4,354.2 1487.5,354.2 1515.6,354.2 1543.6,354.2 
					1571.7,354.2 1599.8,354.2 1627.8,354.2 1655.9,354.2 1683.9,354.2 1712,354.2 1740.1,354.2 1768.2,354.2 1796.2,354.2 
					1824.3,354.2 1852.3,354.2 1880.4,354.2 1908.5,354.2 1936.5,354.2 1964.6,354.2 1992.7,354.2 2020.7,354.2 2048.8,354.2 
					2076.9,354.2 2104.9,354.2 2133,354.2 2161.1,354.2 2189.1,354.2 2217.2,354.2 2245.3,354.2 2273.3,354.2 2301.4,354.2 
					2329.5,354.2 2357.5,354.2 2385.6,354.2 2413.7,354.2 2441.7,354.2 2469.8,354.2 2497.9,354.2 2525.9,354.2 2554,354.2 
					2582.1,354.2 2610.1,354.2 2638.2,354.2 2666.3,354.2 2694.3,354.2 2722.4,354.2 2750.4,354.2 2778.5,354.2 2806.6,354.2 
					2834.6,354.2 				"/>
				<polyline class="st5" points="0,326.1 28.1,326.1 56.1,326.1 84.2,326.1 112.3,326.1 140.3,326.1 168.4,326.1 196.5,326.1 
					224.5,326.1 252.6,326.1 280.7,326.1 308.7,326.1 336.8,326.1 364.9,326.1 392.9,326.1 421,326.1 449,326.1 477.1,326.1 
					505.2,326.1 533.3,326.1 561.3,326.1 589.4,326.1 617.5,326.1 645.5,326.1 673.6,326.1 701.6,326.1 729.7,326.1 757.8,326.1 
					785.8,326.1 813.9,326.1 842,326.1 870,326.1 898.1,326.1 926.2,326.1 954.2,326.1 982.3,326.1 1010.4,326.1 1038.4,326.1 
					1066.5,326.1 1094.6,326.1 1122.6,326.1 1150.7,326.1 1178.8,326.1 1206.8,326.1 1234.9,326.1 1263,326.1 1291,326.1 
					1319.1,326.1 1347.2,326.1 1375.2,326.1 1403.3,326.1 1431.4,326.1 1459.4,326.1 1487.5,326.1 1515.6,326.1 1543.6,326.1 
					1571.7,326.1 1599.8,326.1 1627.8,326.1 1655.9,326.1 1683.9,326.1 1712,326.1 1740.1,326.1 1768.2,326.1 1796.2,326.1 
					1824.3,326.1 1852.3,326.1 1880.4,326.1 1908.5,326.1 1936.5,326.1 1964.6,326.1 1992.7,326.1 2020.7,326.1 2048.8,326.1 
					2076.9,326.1 2104.9,326.1 2133,326.1 2161.1,326.1 2189.1,326.1 2217.2,326.1 2245.3,326.1 2273.3,326.1 2301.4,326.1 
					2329.5,326.1 2357.5,326.1 2385.6,326.1 2413.7,326.1 2441.7,326.1 2469.8,326.1 2497.9,326.1 2525.9,326.1 2554,326.1 
					2582.1,326.1 2610.1,326.1 2638.2,326.1 2666.3,326.1 2694.3,326.1 2722.4,326.1 2750.4,326.1 2778.5,326.1 2806.6,326.1 
					2834.6,326.1 				"/>
				<polyline class="st5" points="0,298 28.1,298 56.1,298 84.2,298 112.3,298 140.3,298 168.4,298 196.5,298 224.5,298 252.6,298 
					280.7,298 308.7,298 336.8,298 364.9,298 392.9,298 421,298 449,298 477.1,298 505.2,298 533.3,298 561.3,298 589.4,298 
					617.5,298 645.5,298 673.6,298 701.6,298 729.7,298 757.8,298 785.8,298 813.9,298 842,298 870,298 898.1,298 926.2,298 
					954.2,298 982.3,298 1010.4,298 1038.4,298 1066.5,298 1094.6,298 1122.6,298 1150.7,298 1178.8,298 1206.8,298 1234.9,298 
					1263,298 1291,298 1319.1,298 1347.2,298 1375.2,298 1403.3,298 1431.4,298 1459.4,298 1487.5,298 1515.6,298 1543.6,298 
					1571.7,298 1599.8,298 1627.8,298 1655.9,298 1683.9,298 1712,298 1740.1,298 1768.2,298 1796.2,298 1824.3,298 1852.3,298 
					1880.4,298 1908.5,298 1936.5,298 1964.6,298 1992.7,298 2020.7,298 2048.8,298 2076.9,298 2104.9,298 2133,298 2161.1,298 
					2189.1,298 2217.2,298 2245.3,298 2273.3,298 2301.4,298 2329.5,298 2357.5,298 2385.6,298 2413.7,298 2441.7,298 2469.8,298 
					2497.9,298 2525.9,298 2554,298 2582.1,298 2610.1,298 2638.2,298 2666.3,298 2694.3,298 2722.4,298 2750.4,298 2778.5,298 
					2806.6,298 2834.6,298 				"/>
				<polyline class="st5" points="0,270 28.1,270 56.1,270 84.2,270 112.3,270 140.3,270 168.4,270 196.5,270 224.5,270 252.6,270 
					280.7,270 308.7,270 336.8,270 364.9,270 392.9,270 421,270 449,270 477.1,270 505.2,270 533.3,270 561.3,270 589.4,270 
					617.5,270 645.5,270 673.6,270 701.6,270 729.7,270 757.8,270 785.8,270 813.9,270 842,270 870,270 898.1,270 926.2,270 
					954.2,270 982.3,270 1010.4,270 1038.4,270 1066.5,270 1094.6,270 1122.6,270 1150.7,270 1178.8,270 1206.8,270 1234.9,270 
					1263,270 1291,270 1319.1,270 1347.2,270 1375.2,270 1403.3,270 1431.4,270 1459.4,270 1487.5,270 1515.6,270 1543.6,270 
					1571.7,270 1599.8,270 1627.8,270 1655.9,270 1683.9,270 1712,270 1740.1,270 1768.2,270 1796.2,270 1824.3,270 1852.3,270 
					1880.4,270 1908.5,270 1936.5,270 1964.6,270 1992.7,270 2020.7,270 2048.8,270 2076.9,270 2104.9,270 2133,270 2161.1,270 
					2189.1,270 2217.2,270 2245.3,270 2273.3,270 2301.4,270 2329.5,270 2357.5,270 2385.6,270 2413.7,270 2441.7,270 2469.8,270 
					2497.9,270 2525.9,270 2554,270 2582.1,270 2610.1,270 2638.2,270 2666.3,270 2694.3,270 2722.4,270 2750.4,270 2778.5,270 
					2806.6,270 2834.6,270 				"/>
				<polyline class="st5" points="0,241.9 28.1,241.9 56.1,241.9 84.2,241.9 112.3,241.9 140.3,241.9 168.4,241.9 196.5,241.9 
					224.5,241.9 252.6,241.9 280.7,241.9 308.7,241.9 336.8,241.9 364.9,241.9 392.9,241.9 421,241.9 449,241.9 477.1,241.9 
					505.2,241.9 533.3,241.9 561.3,241.9 589.4,241.9 617.5,241.9 645.5,241.9 673.6,241.9 701.6,241.9 729.7,241.9 757.8,241.9 
					785.8,241.9 813.9,241.9 842,241.9 870,241.9 898.1,241.9 926.2,241.9 954.2,241.9 982.3,241.9 1010.4,241.9 1038.4,241.9 
					1066.5,241.9 1094.6,241.9 1122.6,241.9 1150.7,241.9 1178.8,241.9 1206.8,241.9 1234.9,241.9 1263,241.9 1291,241.9 
					1319.1,241.9 1347.2,241.9 1375.2,241.9 1403.3,241.9 1431.4,241.9 1459.4,241.9 1487.5,241.9 1515.6,241.9 1543.6,241.9 
					1571.7,241.9 1599.8,241.9 1627.8,241.9 1655.9,241.9 1683.9,241.9 1712,241.9 1740.1,241.9 1768.2,241.9 1796.2,241.9 
					1824.3,241.9 1852.3,241.9 1880.4,241.9 1908.5,241.9 1936.5,241.9 1964.6,241.9 1992.7,241.9 2020.7,241.9 2048.8,241.9 
					2076.9,241.9 2104.9,241.9 2133,241.9 2161.1,241.9 2189.1,241.9 2217.2,241.9 2245.3,241.9 2273.3,241.9 2301.4,241.9 
					2329.5,241.9 2357.5,241.9 2385.6,241.9 2413.7,241.9 2441.7,241.9 2469.8,241.9 2497.9,241.9 2525.9,241.9 2554,241.9 
					2582.1,241.9 2610.1,241.9 2638.2,241.9 2666.3,241.9 2694.3,241.9 2722.4,241.9 2750.4,241.9 2778.5,241.9 2806.6,241.9 
					2834.6,241.9 				"/>
				<polyline class="st5" points="0,213.8 28.1,213.8 56.1,213.8 84.2,213.8 112.3,213.8 140.3,213.8 168.4,213.8 196.5,213.8 
					224.5,213.8 252.6,213.8 280.7,213.8 308.7,213.8 336.8,213.8 364.9,213.8 392.9,213.8 421,213.8 449,213.8 477.1,213.8 
					505.2,213.8 533.3,213.8 561.3,213.8 589.4,213.8 617.5,213.8 645.5,213.8 673.6,213.8 701.6,213.8 729.7,213.8 757.8,213.8 
					785.8,213.8 813.9,213.8 842,213.8 870,213.8 898.1,213.8 926.2,213.8 954.2,213.8 982.3,213.8 1010.4,213.8 1038.4,213.8 
					1066.5,213.8 1094.6,213.8 1122.6,213.8 1150.7,213.8 1178.8,213.8 1206.8,213.8 1234.9,213.8 1263,213.8 1291,213.8 
					1319.1,213.8 1347.2,213.8 1375.2,213.8 1403.3,213.8 1431.4,213.8 1459.4,213.8 1487.5,213.8 1515.6,213.8 1543.6,213.8 
					1571.7,213.8 1599.8,213.8 1627.8,213.8 1655.9,213.8 1683.9,213.8 1712,213.8 1740.1,213.8 1768.2,213.8 1796.2,213.8 
					1824.3,213.8 1852.3,213.8 1880.4,213.8 1908.5,213.8 1936.5,213.8 1964.6,213.8 1992.7,213.8 2020.7,213.8 2048.8,213.8 
					2076.9,213.8 2104.9,213.8 2133,213.8 2161.1,213.8 2189.1,213.8 2217.2,213.8 2245.3,213.8 2273.3,213.8 2301.4,213.8 
					2329.5,213.8 2357.5,213.8 2385.6,213.8 2413.7,213.8 2441.7,213.8 2469.8,213.8 2497.9,213.8 2525.9,213.8 2554,213.8 
					2582.1,213.8 2610.1,213.8 2638.2,213.8 2666.3,213.8 2694.3,213.8 2722.4,213.8 2750.4,213.8 2778.5,213.8 2806.6,213.8 
					2834.6,213.8 				"/>
				<polyline class="st5" points="0,185.8 28.1,185.8 56.1,185.8 84.2,185.8 112.3,185.8 140.3,185.8 168.4,185.8 196.5,185.8 
					224.5,185.8 252.6,185.8 280.7,185.8 308.7,185.8 336.8,185.8 364.9,185.8 392.9,185.8 421,185.8 449,185.8 477.1,185.8 
					505.2,185.8 533.3,185.8 561.3,185.8 589.4,185.8 617.5,185.8 645.5,185.8 673.6,185.8 701.6,185.8 729.7,185.8 757.8,185.8 
					785.8,185.8 813.9,185.8 842,185.8 870,185.8 898.1,185.8 926.2,185.8 954.2,185.8 982.3,185.8 1010.4,185.8 1038.4,185.8 
					1066.5,185.8 1094.6,185.8 1122.6,185.8 1150.7,185.8 1178.8,185.8 1206.8,185.8 1234.9,185.8 1263,185.8 1291,185.8 
					1319.1,185.8 1347.2,185.8 1375.2,185.8 1403.3,185.8 1431.4,185.8 1459.4,185.8 1487.5,185.8 1515.6,185.8 1543.6,185.8 
					1571.7,185.8 1599.8,185.8 1627.8,185.8 1655.9,185.8 1683.9,185.8 1712,185.8 1740.1,185.8 1768.2,185.8 1796.2,185.8 
					1824.3,185.8 1852.3,185.8 1880.4,185.8 1908.5,185.8 1936.5,185.8 1964.6,185.8 1992.7,185.8 2020.7,185.8 2048.8,185.8 
					2076.9,185.8 2104.9,185.8 2133,185.8 2161.1,185.8 2189.1,185.8 2217.2,185.8 2245.3,185.8 2273.3,185.8 2301.4,185.8 
					2329.5,185.8 2357.5,185.8 2385.6,185.8 2413.7,185.8 2441.7,185.8 2469.8,185.8 2497.9,185.8 2525.9,185.8 2554,185.8 
					2582.1,185.8 2610.1,185.8 2638.2,185.8 2666.3,185.8 2694.3,185.8 2722.4,185.8 2750.4,185.8 2778.5,185.8 2806.6,185.8 
					2834.6,185.8 				"/>
				<polyline class="st5" points="0,157.7 28.1,157.7 56.1,157.7 84.2,157.7 112.3,157.7 140.3,157.7 168.4,157.7 196.5,157.7 
					224.5,157.7 252.6,157.7 280.7,157.7 308.7,157.7 336.8,157.7 364.9,157.7 392.9,157.7 421,157.7 449,157.7 477.1,157.7 
					505.2,157.7 533.3,157.7 561.3,157.7 589.4,157.7 617.5,157.7 645.5,157.7 673.6,157.7 701.6,157.7 729.7,157.7 757.8,157.7 
					785.8,157.7 813.9,157.7 842,157.7 870,157.7 898.1,157.7 926.2,157.7 954.2,157.7 982.3,157.7 1010.4,157.7 1038.4,157.7 
					1066.5,157.7 1094.6,157.7 1122.6,157.7 1150.7,157.7 1178.8,157.7 1206.8,157.7 1234.9,157.7 1263,157.7 1291,157.7 
					1319.1,157.7 1347.2,157.7 1375.2,157.7 1403.3,157.7 1431.4,157.7 1459.4,157.7 1487.5,157.7 1515.6,157.7 1543.6,157.7 
					1571.7,157.7 1599.8,157.7 1627.8,157.7 1655.9,157.7 1683.9,157.7 1712,157.7 1740.1,157.7 1768.2,157.7 1796.2,157.7 
					1824.3,157.7 1852.3,157.7 1880.4,157.7 1908.5,157.7 1936.5,157.7 1964.6,157.7 1992.7,157.7 2020.7,157.7 2048.8,157.7 
					2076.9,157.7 2104.9,157.7 2133,157.7 2161.1,157.7 2189.1,157.7 2217.2,157.7 2245.3,157.7 2273.3,157.7 2301.4,157.7 
					2329.5,157.7 2357.5,157.7 2385.6,157.7 2413.7,157.7 2441.7,157.7 2469.8,157.7 2497.9,157.7 2525.9,157.7 2554,157.7 
					2582.1,157.7 2610.1,157.7 2638.2,157.7 2666.3,157.7 2694.3,157.7 2722.4,157.7 2750.4,157.7 2778.5,157.7 2806.6,157.7 
					2834.6,157.7 				"/>
				<polyline class="st5" points="0,129.6 28.1,129.6 56.1,129.6 84.2,129.6 112.3,129.6 140.3,129.6 168.4,129.6 196.5,129.6 
					224.5,129.6 252.6,129.6 280.7,129.6 308.7,129.6 336.8,129.6 364.9,129.6 392.9,129.6 421,129.6 449,129.6 477.1,129.6 
					505.2,129.6 533.3,129.6 561.3,129.6 589.4,129.6 617.5,129.6 645.5,129.6 673.6,129.6 701.6,129.6 729.7,129.6 757.8,129.6 
					785.8,129.6 813.9,129.6 842,129.6 870,129.6 898.1,129.6 926.2,129.6 954.2,129.6 982.3,129.6 1010.4,129.6 1038.4,129.6 
					1066.5,129.6 1094.6,129.6 1122.6,129.6 1150.7,129.6 1178.8,129.6 1206.8,129.6 1234.9,129.6 1263,129.6 1291,129.6 
					1319.1,129.6 1347.2,129.6 1375.2,129.6 1403.3,129.6 1431.4,129.6 1459.4,129.6 1487.5,129.6 1515.6,129.6 1543.6,129.6 
					1571.7,129.6 1599.8,129.6 1627.8,129.6 1655.9,129.6 1683.9,129.6 1712,129.6 1740.1,129.6 1768.2,129.6 1796.2,129.6 
					1824.3,129.6 1852.3,129.6 1880.4,129.6 1908.5,129.6 1936.5,129.6 1964.6,129.6 1992.7,129.6 2020.7,129.6 2048.8,129.6 
					2076.9,129.6 2104.9,129.6 2133,129.6 2161.1,129.6 2189.1,129.6 2217.2,129.6 2245.3,129.6 2273.3,129.6 2301.4,129.6 
					2329.5,129.6 2357.5,129.6 2385.6,129.6 2413.7,129.6 2441.7,129.6 2469.8,129.6 2497.9,129.6 2525.9,129.6 2554,129.6 
					2582.1,129.6 2610.1,129.6 2638.2,129.6 2666.3,129.6 2694.3,129.6 2722.4,129.6 2750.4,129.6 2778.5,129.6 2806.6,129.6 
					2834.6,129.6 				"/>
				<polyline class="st5" points="0,101.6 28.1,101.6 56.1,101.6 84.2,101.6 112.3,101.6 140.3,101.6 168.4,101.6 196.5,101.6 
					224.5,101.6 252.6,101.6 280.7,101.6 308.7,101.6 336.8,101.6 364.9,101.6 392.9,101.6 421,101.6 449,101.6 477.1,101.6 
					505.2,101.6 533.3,101.6 561.3,101.6 589.4,101.6 617.5,101.6 645.5,101.6 673.6,101.6 701.6,101.6 729.7,101.6 757.8,101.6 
					785.8,101.6 813.9,101.6 842,101.6 870,101.6 898.1,101.6 926.2,101.6 954.2,101.6 982.3,101.6 1010.4,101.6 1038.4,101.6 
					1066.5,101.6 1094.6,101.6 1122.6,101.6 1150.7,101.6 1178.8,101.6 1206.8,101.6 1234.9,101.6 1263,101.6 1291,101.6 
					1319.1,101.6 1347.2,101.6 1375.2,101.6 1403.3,101.6 1431.4,101.6 1459.4,101.6 1487.5,101.6 1515.6,101.6 1543.6,101.6 
					1571.7,101.6 1599.8,101.6 1627.8,101.6 1655.9,101.6 1683.9,101.6 1712,101.6 1740.1,101.6 1768.2,101.6 1796.2,101.6 
					1824.3,101.6 1852.3,101.6 1880.4,101.6 1908.5,101.6 1936.5,101.6 1964.6,101.6 1992.7,101.6 2020.7,101.6 2048.8,101.6 
					2076.9,101.6 2104.9,101.6 2133,101.6 2161.1,101.6 2189.1,101.6 2217.2,101.6 2245.3,101.6 2273.3,101.6 2301.4,101.6 
					2329.5,101.6 2357.5,101.6 2385.6,101.6 2413.7,101.6 2441.7,101.6 2469.8,101.6 2497.9,101.6 2525.9,101.6 2554,101.6 
					2582.1,101.6 2610.1,101.6 2638.2,101.6 2666.3,101.6 2694.3,101.6 2722.4,101.6 2750.4,101.6 2778.5,101.6 2806.6,101.6 
					2834.6,101.6 				"/>
				<polyline class="st5" points="0,73.5 28.1,73.5 56.1,73.5 84.2,73.5 112.3,73.5 140.3,73.5 168.4,73.5 196.5,73.5 224.5,73.5 
					252.6,73.5 280.7,73.5 308.7,73.5 336.8,73.5 364.9,73.5 392.9,73.5 421,73.5 449,73.5 477.1,73.5 505.2,73.5 533.3,73.5 
					561.3,73.5 589.4,73.5 617.5,73.5 645.5,73.5 673.6,73.5 701.6,73.5 729.7,73.5 757.8,73.5 785.8,73.5 813.9,73.5 842,73.5 
					870,73.5 898.1,73.5 926.2,73.5 954.2,73.5 982.3,73.5 1010.4,73.5 1038.4,73.5 1066.5,73.5 1094.6,73.5 1122.6,73.5 
					1150.7,73.5 1178.8,73.5 1206.8,73.5 1234.9,73.5 1263,73.5 1291,73.5 1319.1,73.5 1347.2,73.5 1375.2,73.5 1403.3,73.5 
					1431.4,73.5 1459.4,73.5 1487.5,73.5 1515.6,73.5 1543.6,73.5 1571.7,73.5 1599.8,73.5 1627.8,73.5 1655.9,73.5 1683.9,73.5 
					1712,73.5 1740.1,73.5 1768.2,73.5 1796.2,73.5 1824.3,73.5 1852.3,73.5 1880.4,73.5 1908.5,73.5 1936.5,73.5 1964.6,73.5 
					1992.7,73.5 2020.7,73.5 2048.8,73.5 2076.9,73.5 2104.9,73.5 2133,73.5 2161.1,73.5 2189.1,73.5 2217.2,73.5 2245.3,73.5 
					2273.3,73.5 2301.4,73.5 2329.5,73.5 2357.5,73.5 2385.6,73.5 2413.7,73.5 2441.7,73.5 2469.8,73.5 2497.9,73.5 2525.9,73.5 
					2554,73.5 2582.1,73.5 2610.1,73.5 2638.2,73.5 2666.3,73.5 2694.3,73.5 2722.4,73.5 2750.4,73.5 2778.5,73.5 2806.6,73.5 
					2834.6,73.5 				"/>
				<polyline class="st5" points="0,45.5 28.1,45.5 56.1,45.5 84.2,45.5 112.3,45.5 140.3,45.5 168.4,45.5 196.5,45.5 224.5,45.5 
					252.6,45.5 280.7,45.5 308.7,45.5 336.8,45.5 364.9,45.5 392.9,45.5 421,45.5 449,45.5 477.1,45.5 505.2,45.5 533.3,45.5 
					561.3,45.5 589.4,45.5 617.5,45.5 645.5,45.5 673.6,45.5 701.6,45.5 729.7,45.5 757.8,45.5 785.8,45.5 813.9,45.5 842,45.5 
					870,45.5 898.1,45.5 926.2,45.5 954.2,45.5 982.3,45.5 1010.4,45.5 1038.4,45.5 1066.5,45.5 1094.6,45.5 1122.6,45.5 
					1150.7,45.5 1178.8,45.5 1206.8,45.5 1234.9,45.5 1263,45.5 1291,45.5 1319.1,45.5 1347.2,45.5 1375.2,45.5 1403.3,45.5 
					1431.4,45.5 1459.4,45.5 1487.5,45.5 1515.6,45.5 1543.6,45.5 1571.7,45.5 1599.8,45.5 1627.8,45.5 1655.9,45.5 1683.9,45.5 
					1712,45.5 1740.1,45.5 1768.2,45.5 1796.2,45.5 1824.3,45.5 1852.3,45.5 1880.4,45.5 1908.5,45.5 1936.5,45.5 1964.6,45.5 
					1992.7,45.5 2020.7,45.5 2048.8,45.5 2076.9,45.5 2104.9,45.5 2133,45.5 2161.1,45.5 2189.1,45.5 2217.2,45.5 2245.3,45.5 
					2273.3,45.5 2301.4,45.5 2329.5,45.5 2357.5,45.5 2385.6,45.5 2413.7,45.5 2441.7,45.5 2469.8,45.5 2497.9,45.5 2525.9,45.5 
					2554,45.5 2582.1,45.5 2610.1,45.5 2638.2,45.5 2666.3,45.5 2694.3,45.5 2722.4,45.5 2750.4,45.5 2778.5,45.5 2806.6,45.5 
					2834.6,45.5 				"/>
				<polyline class="st5" points="0,17.4 28.1,17.4 56.1,17.4 84.2,17.4 112.3,17.4 140.3,17.4 168.4,17.4 196.5,17.4 224.5,17.4 
					252.6,17.4 280.7,17.4 308.7,17.4 336.8,17.4 364.9,17.4 392.9,17.4 421,17.4 449,17.4 477.1,17.4 505.2,17.4 533.3,17.4 
					561.3,17.4 589.4,17.4 617.5,17.4 645.5,17.4 673.6,17.4 701.6,17.4 729.7,17.4 757.8,17.4 785.8,17.4 813.9,17.4 842,17.4 
					870,17.4 898.1,17.4 926.2,17.4 954.2,17.4 982.3,17.4 1010.4,17.4 1038.4,17.4 1066.5,17.4 1094.6,17.4 1122.6,17.4 
					1150.7,17.4 1178.8,17.4 1206.8,17.4 1234.9,17.4 1263,17.4 1291,17.4 1319.1,17.4 1347.2,17.4 1375.2,17.4 1403.3,17.4 
					1431.4,17.4 1459.4,17.4 1487.5,17.4 1515.6,17.4 1543.6,17.4 1571.7,17.4 1599.8,17.4 1627.8,17.4 1655.9,17.4 1683.9,17.4 
					1712,17.4 1740.1,17.4 1768.2,17.4 1796.2,17.4 1824.3,17.4 1852.3,17.4 1880.4,17.4 1908.5,17.4 1936.5,17.4 1964.6,17.4 
					1992.7,17.4 2020.7,17.4 2048.8,17.4 2076.9,17.4 2104.9,17.4 2133,17.4 2161.1,17.4 2189.1,17.4 2217.2,17.4 2245.3,17.4 
					2273.3,17.4 2301.4,17.4 2329.5,17.4 2357.5,17.4 2385.6,17.4 2413.7,17.4 2441.7,17.4 2469.8,17.4 2497.9,17.4 2525.9,17.4 
					2554,17.4 2582.1,17.4 2610.1,17.4 2638.2,17.4 2666.3,17.4 2694.3,17.4 2722.4,17.4 2750.4,17.4 2778.5,17.4 2806.6,17.4 
					2834.6,17.4 				"/>
				<polyline class="st5" points="505.2,-572 505.2,-543.9 505.2,-515.9 505.2,-487.8 505.2,-459.7 505.2,-431.7 505.2,-403.6 
					505.2,-375.5 505.2,-347.5 505.2,-319.4 505.2,-291.3 505.2,-263.3 505.2,-235.2 505.2,-207.1 505.2,-179.1 505.2,-151 
					505.2,-122.9 505.2,-94.9 505.2,-66.8 505.2,-38.8 505.2,-10.7 505.2,17.4 505.2,45.5 505.2,73.5 505.2,101.6 505.2,129.6 
					505.2,157.7 505.2,185.8 505.2,213.8 505.2,241.9 505.2,270 505.2,298 505.2,326.1 505.2,354.2 505.2,382.2 505.2,410.3 
					505.2,438.4 505.2,466.4 505.2,494.5 505.2,522.6 505.2,550.6 505.2,578.7 505.2,606.8 505.2,634.8 505.2,662.9 505.2,691 
					505.2,719 505.2,747.1 505.2,775.2 505.2,803.2 505.2,831.3 505.2,859.4 505.2,887.4 505.2,915.5 505.2,943.5 505.2,971.6 
					505.2,999.7 505.2,1027.8 505.2,1055.8 505.2,1083.9 505.2,1111.9 505.2,1140 505.2,1168.1 505.2,1196.2 505.2,1224.2 
					505.2,1252.3 505.2,1280.3 505.2,1308.4 505.2,1336.5 505.2,1364.5 505.2,1392.6 505.2,1420.7 505.2,1448.7 505.2,1476.8 
					505.2,1504.9 505.2,1532.9 505.2,1561 505.2,1589.1 505.2,1617.1 505.2,1645.2 505.2,1673.3 505.2,1701.3 505.2,1729.4 
					505.2,1757.5 505.2,1785.5 505.2,1813.6 505.2,1841.7 505.2,1869.7 505.2,1897.8 505.2,1925.9 505.2,1953.9 505.2,1982 
					505.2,2010.1 505.2,2038.1 505.2,2066.2 505.2,2094.3 505.2,2122.3 505.2,2150.4 505.2,2178.4 505.2,2206.5 505.2,2234.6 
					505.2,2262.6 				"/>
				<polyline class="st5" points="477.1,-572 477.1,-543.9 477.1,-515.9 477.1,-487.8 477.1,-459.7 477.1,-431.7 477.1,-403.6 
					477.1,-375.5 477.1,-347.5 477.1,-319.4 477.1,-291.3 477.1,-263.3 477.1,-235.2 477.1,-207.1 477.1,-179.1 477.1,-151 
					477.1,-122.9 477.1,-94.9 477.1,-66.8 477.1,-38.8 477.1,-10.7 477.1,17.4 477.1,45.5 477.1,73.5 477.1,101.6 477.1,129.6 
					477.1,157.7 477.1,185.8 477.1,213.8 477.1,241.9 477.1,270 477.1,298 477.1,326.1 477.1,354.2 477.1,382.2 477.1,410.3 
					477.1,438.4 477.1,466.4 477.1,494.5 477.1,522.6 477.1,550.6 477.1,578.7 477.1,606.8 477.1,634.8 477.1,662.9 477.1,691 
					477.1,719 477.1,747.1 477.1,775.2 477.1,803.2 477.1,831.3 477.1,859.4 477.1,887.4 477.1,915.5 477.1,943.5 477.1,971.6 
					477.1,999.7 477.1,1027.8 477.1,1055.8 477.1,1083.9 477.1,1111.9 477.1,1140 477.1,1168.1 477.1,1196.2 477.1,1224.2 
					477.1,1252.3 477.1,1280.3 477.1,1308.4 477.1,1336.5 477.1,1364.5 477.1,1392.6 477.1,1420.7 477.1,1448.7 477.1,1476.8 
					477.1,1504.9 477.1,1532.9 477.1,1561 477.1,1589.1 477.1,1617.1 477.1,1645.2 477.1,1673.3 477.1,1701.3 477.1,1729.4 
					477.1,1757.5 477.1,1785.5 477.1,1813.6 477.1,1841.7 477.1,1869.7 477.1,1897.8 477.1,1925.9 477.1,1953.9 477.1,1982 
					477.1,2010.1 477.1,2038.1 477.1,2066.2 477.1,2094.3 477.1,2122.3 477.1,2150.4 477.1,2178.4 477.1,2206.5 477.1,2234.6 
					477.1,2262.6 				"/>
				<polyline class="st5" points="449,-572 449,-543.9 449,-515.9 449,-487.8 449,-459.7 449,-431.7 449,-403.6 449,-375.5 
					449,-347.5 449,-319.4 449,-291.3 449,-263.3 449,-235.2 449,-207.1 449,-179.1 449,-151 449,-122.9 449,-94.9 449,-66.8 
					449,-38.8 449,-10.7 449,17.4 449,45.5 449,73.5 449,101.6 449,129.6 449,157.7 449,185.8 449,213.8 449,241.9 449,270 449,298 
					449,326.1 449,354.2 449,382.2 449,410.3 449,438.4 449,466.4 449,494.5 449,522.6 449,550.6 449,578.7 449,606.8 449,634.8 
					449,662.9 449,691 449,719 449,747.1 449,775.2 449,803.2 449,831.3 449,859.4 449,887.4 449,915.5 449,943.5 449,971.6 
					449,999.7 449,1027.8 449,1055.8 449,1083.9 449,1111.9 449,1140 449,1168.1 449,1196.2 449,1224.2 449,1252.3 449,1280.3 
					449,1308.4 449,1336.5 449,1364.5 449,1392.6 449,1420.7 449,1448.7 449,1476.8 449,1504.9 449,1532.9 449,1561 449,1589.1 
					449,1617.1 449,1645.2 449,1673.3 449,1701.3 449,1729.4 449,1757.5 449,1785.5 449,1813.6 449,1841.7 449,1869.7 449,1897.8 
					449,1925.9 449,1953.9 449,1982 449,2010.1 449,2038.1 449,2066.2 449,2094.3 449,2122.3 449,2150.4 449,2178.4 449,2206.5 
					449,2234.6 449,2262.6 				"/>
				<polyline class="st5" points="421,-572 421,-543.9 421,-515.9 421,-487.8 421,-459.7 421,-431.7 421,-403.6 421,-375.5 
					421,-347.5 421,-319.4 421,-291.3 421,-263.3 421,-235.2 421,-207.1 421,-179.1 421,-151 421,-122.9 421,-94.9 421,-66.8 
					421,-38.8 421,-10.7 421,17.4 421,45.5 421,73.5 421,101.6 421,129.6 421,157.7 421,185.8 421,213.8 421,241.9 421,270 421,298 
					421,326.1 421,354.2 421,382.2 421,410.3 421,438.4 421,466.4 421,494.5 421,522.6 421,550.6 421,578.7 421,606.8 421,634.8 
					421,662.9 421,691 421,719 421,747.1 421,775.2 421,803.2 421,831.3 421,859.4 421,887.4 421,915.5 421,943.5 421,971.6 
					421,999.7 421,1027.8 421,1055.8 421,1083.9 421,1111.9 421,1140 421,1168.1 421,1196.2 421,1224.2 421,1252.3 421,1280.3 
					421,1308.4 421,1336.5 421,1364.5 421,1392.6 421,1420.7 421,1448.7 421,1476.8 421,1504.9 421,1532.9 421,1561 421,1589.1 
					421,1617.1 421,1645.2 421,1673.3 421,1701.3 421,1729.4 421,1757.5 421,1785.5 421,1813.6 421,1841.7 421,1869.7 421,1897.8 
					421,1925.9 421,1953.9 421,1982 421,2010.1 421,2038.1 421,2066.2 421,2094.3 421,2122.3 421,2150.4 421,2178.4 421,2206.5 
					421,2234.6 421,2262.6 				"/>
				<polyline class="st5" points="392.9,-572 392.9,-543.9 392.9,-515.9 392.9,-487.8 392.9,-459.7 392.9,-431.7 392.9,-403.6 
					392.9,-375.5 392.9,-347.5 392.9,-319.4 392.9,-291.3 392.9,-263.3 392.9,-235.2 392.9,-207.1 392.9,-179.1 392.9,-151 
					392.9,-122.9 392.9,-94.9 392.9,-66.8 392.9,-38.8 392.9,-10.7 392.9,17.4 392.9,45.5 392.9,73.5 392.9,101.6 392.9,129.6 
					392.9,157.7 392.9,185.8 392.9,213.8 392.9,241.9 392.9,270 392.9,298 392.9,326.1 392.9,354.2 392.9,382.2 392.9,410.3 
					392.9,438.4 392.9,466.4 392.9,494.5 392.9,522.6 392.9,550.6 392.9,578.7 392.9,606.8 392.9,634.8 392.9,662.9 392.9,691 
					392.9,719 392.9,747.1 392.9,775.2 392.9,803.2 392.9,831.3 392.9,859.4 392.9,887.4 392.9,915.5 392.9,943.5 392.9,971.6 
					392.9,999.7 392.9,1027.8 392.9,1055.8 392.9,1083.9 392.9,1111.9 392.9,1140 392.9,1168.1 392.9,1196.2 392.9,1224.2 
					392.9,1252.3 392.9,1280.3 392.9,1308.4 392.9,1336.5 392.9,1364.5 392.9,1392.6 392.9,1420.7 392.9,1448.7 392.9,1476.8 
					392.9,1504.9 392.9,1532.9 392.9,1561 392.9,1589.1 392.9,1617.1 392.9,1645.2 392.9,1673.3 392.9,1701.3 392.9,1729.4 
					392.9,1757.5 392.9,1785.5 392.9,1813.6 392.9,1841.7 392.9,1869.7 392.9,1897.8 392.9,1925.9 392.9,1953.9 392.9,1982 
					392.9,2010.1 392.9,2038.1 392.9,2066.2 392.9,2094.3 392.9,2122.3 392.9,2150.4 392.9,2178.4 392.9,2206.5 392.9,2234.6 
					392.9,2262.6 				"/>
				<polyline class="st5" points="364.9,-572 364.9,-543.9 364.9,-515.9 364.9,-487.8 364.9,-459.7 364.9,-431.7 364.9,-403.6 
					364.9,-375.5 364.9,-347.5 364.9,-319.4 364.9,-291.3 364.9,-263.3 364.9,-235.2 364.9,-207.1 364.9,-179.1 364.9,-151 
					364.9,-122.9 364.9,-94.9 364.9,-66.8 364.9,-38.8 364.9,-10.7 364.9,17.4 364.9,45.5 364.9,73.5 364.9,101.6 364.9,129.6 
					364.9,157.7 364.9,185.8 364.9,213.8 364.9,241.9 364.9,270 364.9,298 364.9,326.1 364.9,354.2 364.9,382.2 364.9,410.3 
					364.9,438.4 364.9,466.4 364.9,494.5 364.9,522.6 364.9,550.6 364.9,578.7 364.9,606.8 364.9,634.8 364.9,662.9 364.9,691 
					364.9,719 364.9,747.1 364.9,775.2 364.9,803.2 364.9,831.3 364.9,859.4 364.9,887.4 364.9,915.5 364.9,943.5 364.9,971.6 
					364.9,999.7 364.9,1027.8 364.9,1055.8 364.9,1083.9 364.9,1111.9 364.9,1140 364.9,1168.1 364.9,1196.2 364.9,1224.2 
					364.9,1252.3 364.9,1280.3 364.9,1308.4 364.9,1336.5 364.9,1364.5 364.9,1392.6 364.9,1420.7 364.9,1448.7 364.9,1476.8 
					364.9,1504.9 364.9,1532.9 364.9,1561 364.9,1589.1 364.9,1617.1 364.9,1645.2 364.9,1673.3 364.9,1701.3 364.9,1729.4 
					364.9,1757.5 364.9,1785.5 364.9,1813.6 364.9,1841.7 364.9,1869.7 364.9,1897.8 364.9,1925.9 364.9,1953.9 364.9,1982 
					364.9,2010.1 364.9,2038.1 364.9,2066.2 364.9,2094.3 364.9,2122.3 364.9,2150.4 364.9,2178.4 364.9,2206.5 364.9,2234.6 
					364.9,2262.6 				"/>
				<polyline class="st5" points="336.8,-572 336.8,-543.9 336.8,-515.9 336.8,-487.8 336.8,-459.7 336.8,-431.7 336.8,-403.6 
					336.8,-375.5 336.8,-347.5 336.8,-319.4 336.8,-291.3 336.8,-263.3 336.8,-235.2 336.8,-207.1 336.8,-179.1 336.8,-151 
					336.8,-122.9 336.8,-94.9 336.8,-66.8 336.8,-38.8 336.8,-10.7 336.8,17.4 336.8,45.5 336.8,73.5 336.8,101.6 336.8,129.6 
					336.8,157.7 336.8,185.8 336.8,213.8 336.8,241.9 336.8,270 336.8,298 336.8,326.1 336.8,354.2 336.8,382.2 336.8,410.3 
					336.8,438.4 336.8,466.4 336.8,494.5 336.8,522.6 336.8,550.6 336.8,578.7 336.8,606.8 336.8,634.8 336.8,662.9 336.8,691 
					336.8,719 336.8,747.1 336.8,775.2 336.8,803.2 336.8,831.3 336.8,859.4 336.8,887.4 336.8,915.5 336.8,943.5 336.8,971.6 
					336.8,999.7 336.8,1027.8 336.8,1055.8 336.8,1083.9 336.8,1111.9 336.8,1140 336.8,1168.1 336.8,1196.2 336.8,1224.2 
					336.8,1252.3 336.8,1280.3 336.8,1308.4 336.8,1336.5 336.8,1364.5 336.8,1392.6 336.8,1420.7 336.8,1448.7 336.8,1476.8 
					336.8,1504.9 336.8,1532.9 336.8,1561 336.8,1589.1 336.8,1617.1 336.8,1645.2 336.8,1673.3 336.8,1701.3 336.8,1729.4 
					336.8,1757.5 336.8,1785.5 336.8,1813.6 336.8,1841.7 336.8,1869.7 336.8,1897.8 336.8,1925.9 336.8,1953.9 336.8,1982 
					336.8,2010.1 336.8,2038.1 336.8,2066.2 336.8,2094.3 336.8,2122.3 336.8,2150.4 336.8,2178.4 336.8,2206.5 336.8,2234.6 
					336.8,2262.6 				"/>
				<polyline class="st5" points="308.7,-572 308.7,-543.9 308.7,-515.9 308.7,-487.8 308.7,-459.7 308.7,-431.7 308.7,-403.6 
					308.7,-375.5 308.7,-347.5 308.7,-319.4 308.7,-291.3 308.7,-263.3 308.7,-235.2 308.7,-207.1 308.7,-179.1 308.7,-151 
					308.7,-122.9 308.7,-94.9 308.7,-66.8 308.7,-38.8 308.7,-10.7 308.7,17.4 308.7,45.5 308.7,73.5 308.7,101.6 308.7,129.6 
					308.7,157.7 308.7,185.8 308.7,213.8 308.7,241.9 308.7,270 308.7,298 308.7,326.1 308.7,354.2 308.7,382.2 308.7,410.3 
					308.7,438.4 308.7,466.4 308.7,494.5 308.7,522.6 308.7,550.6 308.7,578.7 308.7,606.8 308.7,634.8 308.7,662.9 308.7,691 
					308.7,719 308.7,747.1 308.7,775.2 308.7,803.2 308.7,831.3 308.7,859.4 308.7,887.4 308.7,915.5 308.7,943.5 308.7,971.6 
					308.7,999.7 308.7,1027.8 308.7,1055.8 308.7,1083.9 308.7,1111.9 308.7,1140 308.7,1168.1 308.7,1196.2 308.7,1224.2 
					308.7,1252.3 308.7,1280.3 308.7,1308.4 308.7,1336.5 308.7,1364.5 308.7,1392.6 308.7,1420.7 308.7,1448.7 308.7,1476.8 
					308.7,1504.9 308.7,1532.9 308.7,1561 308.7,1589.1 308.7,1617.1 308.7,1645.2 308.7,1673.3 308.7,1701.3 308.7,1729.4 
					308.7,1757.5 308.7,1785.5 308.7,1813.6 308.7,1841.7 308.7,1869.7 308.7,1897.8 308.7,1925.9 308.7,1953.9 308.7,1982 
					308.7,2010.1 308.7,2038.1 308.7,2066.2 308.7,2094.3 308.7,2122.3 308.7,2150.4 308.7,2178.4 308.7,2206.5 308.7,2234.6 
					308.7,2262.6 				"/>
				<polyline class="st5" points="280.7,-572 280.7,-543.9 280.7,-515.9 280.7,-487.8 280.7,-459.7 280.7,-431.7 280.7,-403.6 
					280.7,-375.5 280.7,-347.5 280.7,-319.4 280.7,-291.3 280.7,-263.3 280.7,-235.2 280.7,-207.1 280.7,-179.1 280.7,-151 
					280.7,-122.9 280.7,-94.9 280.7,-66.8 280.7,-38.8 280.7,-10.7 280.7,17.4 280.7,45.5 280.7,73.5 280.7,101.6 280.7,129.6 
					280.7,157.7 280.7,185.8 280.7,213.8 280.7,241.9 280.7,270 280.7,298 280.7,326.1 280.7,354.2 280.7,382.2 280.7,410.3 
					280.7,438.4 280.7,466.4 280.7,494.5 280.7,522.6 280.7,550.6 280.7,578.7 280.7,606.8 280.7,634.8 280.7,662.9 280.7,691 
					280.7,719 280.7,747.1 280.7,775.2 280.7,803.2 280.7,831.3 280.7,859.4 280.7,887.4 280.7,915.5 280.7,943.5 280.7,971.6 
					280.7,999.7 280.7,1027.8 280.7,1055.8 280.7,1083.9 280.7,1111.9 280.7,1140 280.7,1168.1 280.7,1196.2 280.7,1224.2 
					280.7,1252.3 280.7,1280.3 280.7,1308.4 280.7,1336.5 280.7,1364.5 280.7,1392.6 280.7,1420.7 280.7,1448.7 280.7,1476.8 
					280.7,1504.9 280.7,1532.9 280.7,1561 280.7,1589.1 280.7,1617.1 280.7,1645.2 280.7,1673.3 280.7,1701.3 280.7,1729.4 
					280.7,1757.5 280.7,1785.5 280.7,1813.6 280.7,1841.7 280.7,1869.7 280.7,1897.8 280.7,1925.9 280.7,1953.9 280.7,1982 
					280.7,2010.1 280.7,2038.1 280.7,2066.2 280.7,2094.3 280.7,2122.3 280.7,2150.4 280.7,2178.4 280.7,2206.5 280.7,2234.6 
					280.7,2262.6 				"/>
				<polyline class="st5" points="252.6,-572 252.6,-543.9 252.6,-515.9 252.6,-487.8 252.6,-459.7 252.6,-431.7 252.6,-403.6 
					252.6,-375.5 252.6,-347.5 252.6,-319.4 252.6,-291.3 252.6,-263.3 252.6,-235.2 252.6,-207.1 252.6,-179.1 252.6,-151 
					252.6,-122.9 252.6,-94.9 252.6,-66.8 252.6,-38.8 252.6,-10.7 252.6,17.4 252.6,45.5 252.6,73.5 252.6,101.6 252.6,129.6 
					252.6,157.7 252.6,185.8 252.6,213.8 252.6,241.9 252.6,270 252.6,298 252.6,326.1 252.6,354.2 252.6,382.2 252.6,410.3 
					252.6,438.4 252.6,466.4 252.6,494.5 252.6,522.6 252.6,550.6 252.6,578.7 252.6,606.8 252.6,634.8 252.6,662.9 252.6,691 
					252.6,719 252.6,747.1 252.6,775.2 252.6,803.2 252.6,831.3 252.6,859.4 252.6,887.4 252.6,915.5 252.6,943.5 252.6,971.6 
					252.6,999.7 252.6,1027.8 252.6,1055.8 252.6,1083.9 252.6,1111.9 252.6,1140 252.6,1168.1 252.6,1196.2 252.6,1224.2 
					252.6,1252.3 252.6,1280.3 252.6,1308.4 252.6,1336.5 252.6,1364.5 252.6,1392.6 252.6,1420.7 252.6,1448.7 252.6,1476.8 
					252.6,1504.9 252.6,1532.9 252.6,1561 252.6,1589.1 252.6,1617.1 252.6,1645.2 252.6,1673.3 252.6,1701.3 252.6,1729.4 
					252.6,1757.5 252.6,1785.5 252.6,1813.6 252.6,1841.7 252.6,1869.7 252.6,1897.8 252.6,1925.9 252.6,1953.9 252.6,1982 
					252.6,2010.1 252.6,2038.1 252.6,2066.2 252.6,2094.3 252.6,2122.3 252.6,2150.4 252.6,2178.4 252.6,2206.5 252.6,2234.6 
					252.6,2262.6 				"/>
				<polyline class="st5" points="224.5,-572 224.5,-543.9 224.5,-515.9 224.5,-487.8 224.5,-459.7 224.5,-431.7 224.5,-403.6 
					224.5,-375.5 224.5,-347.5 224.5,-319.4 224.5,-291.3 224.5,-263.3 224.5,-235.2 224.5,-207.1 224.5,-179.1 224.5,-151 
					224.5,-122.9 224.5,-94.9 224.5,-66.8 224.5,-38.8 224.5,-10.7 224.5,17.4 224.5,45.5 224.5,73.5 224.5,101.6 224.5,129.6 
					224.5,157.7 224.5,185.8 224.5,213.8 224.5,241.9 224.5,270 224.5,298 224.5,326.1 224.5,354.2 224.5,382.2 224.5,410.3 
					224.5,438.4 224.5,466.4 224.5,494.5 224.5,522.6 224.5,550.6 224.5,578.7 224.5,606.8 224.5,634.8 224.5,662.9 224.5,691 
					224.5,719 224.5,747.1 224.5,775.2 224.5,803.2 224.5,831.3 224.5,859.4 224.5,887.4 224.5,915.5 224.5,943.5 224.5,971.6 
					224.5,999.7 224.5,1027.8 224.5,1055.8 224.5,1083.9 224.5,1111.9 224.5,1140 224.5,1168.1 224.5,1196.2 224.5,1224.2 
					224.5,1252.3 224.5,1280.3 224.5,1308.4 224.5,1336.5 224.5,1364.5 224.5,1392.6 224.5,1420.7 224.5,1448.7 224.5,1476.8 
					224.5,1504.9 224.5,1532.9 224.5,1561 224.5,1589.1 224.5,1617.1 224.5,1645.2 224.5,1673.3 224.5,1701.3 224.5,1729.4 
					224.5,1757.5 224.5,1785.5 224.5,1813.6 224.5,1841.7 224.5,1869.7 224.5,1897.8 224.5,1925.9 224.5,1953.9 224.5,1982 
					224.5,2010.1 224.5,2038.1 224.5,2066.2 224.5,2094.3 224.5,2122.3 224.5,2150.4 224.5,2178.4 224.5,2206.5 224.5,2234.6 
					224.5,2262.6 				"/>
				<polyline class="st5" points="196.5,-572 196.5,-543.9 196.5,-515.9 196.5,-487.8 196.5,-459.7 196.5,-431.7 196.5,-403.6 
					196.5,-375.5 196.5,-347.5 196.5,-319.4 196.5,-291.3 196.5,-263.3 196.5,-235.2 196.5,-207.1 196.5,-179.1 196.5,-151 
					196.5,-122.9 196.5,-94.9 196.5,-66.8 196.5,-38.8 196.5,-10.7 196.5,17.4 196.5,45.5 196.5,73.5 196.5,101.6 196.5,129.6 
					196.5,157.7 196.5,185.8 196.5,213.8 196.5,241.9 196.5,270 196.5,298 196.5,326.1 196.5,354.2 196.5,382.2 196.5,410.3 
					196.5,438.4 196.5,466.4 196.5,494.5 196.5,522.6 196.5,550.6 196.5,578.7 196.5,606.8 196.5,634.8 196.5,662.9 196.5,691 
					196.5,719 196.5,747.1 196.5,775.2 196.5,803.2 196.5,831.3 196.5,859.4 196.5,887.4 196.5,915.5 196.5,943.5 196.5,971.6 
					196.5,999.7 196.5,1027.8 196.5,1055.8 196.5,1083.9 196.5,1111.9 196.5,1140 196.5,1168.1 196.5,1196.2 196.5,1224.2 
					196.5,1252.3 196.5,1280.3 196.5,1308.4 196.5,1336.5 196.5,1364.5 196.5,1392.6 196.5,1420.7 196.5,1448.7 196.5,1476.8 
					196.5,1504.9 196.5,1532.9 196.5,1561 196.5,1589.1 196.5,1617.1 196.5,1645.2 196.5,1673.3 196.5,1701.3 196.5,1729.4 
					196.5,1757.5 196.5,1785.5 196.5,1813.6 196.5,1841.7 196.5,1869.7 196.5,1897.8 196.5,1925.9 196.5,1953.9 196.5,1982 
					196.5,2010.1 196.5,2038.1 196.5,2066.2 196.5,2094.3 196.5,2122.3 196.5,2150.4 196.5,2178.4 196.5,2206.5 196.5,2234.6 
					196.5,2262.6 				"/>
				<polyline class="st5" points="168.4,-572 168.4,-543.9 168.4,-515.9 168.4,-487.8 168.4,-459.7 168.4,-431.7 168.4,-403.6 
					168.4,-375.5 168.4,-347.5 168.4,-319.4 168.4,-291.3 168.4,-263.3 168.4,-235.2 168.4,-207.1 168.4,-179.1 168.4,-151 
					168.4,-122.9 168.4,-94.9 168.4,-66.8 168.4,-38.8 168.4,-10.7 168.4,17.4 168.4,45.5 168.4,73.5 168.4,101.6 168.4,129.6 
					168.4,157.7 168.4,185.8 168.4,213.8 168.4,241.9 168.4,270 168.4,298 168.4,326.1 168.4,354.2 168.4,382.2 168.4,410.3 
					168.4,438.4 168.4,466.4 168.4,494.5 168.4,522.6 168.4,550.6 168.4,578.7 168.4,606.8 168.4,634.8 168.4,662.9 168.4,691 
					168.4,719 168.4,747.1 168.4,775.2 168.4,803.2 168.4,831.3 168.4,859.4 168.4,887.4 168.4,915.5 168.4,943.5 168.4,971.6 
					168.4,999.7 168.4,1027.8 168.4,1055.8 168.4,1083.9 168.4,1111.9 168.4,1140 168.4,1168.1 168.4,1196.2 168.4,1224.2 
					168.4,1252.3 168.4,1280.3 168.4,1308.4 168.4,1336.5 168.4,1364.5 168.4,1392.6 168.4,1420.7 168.4,1448.7 168.4,1476.8 
					168.4,1504.9 168.4,1532.9 168.4,1561 168.4,1589.1 168.4,1617.1 168.4,1645.2 168.4,1673.3 168.4,1701.3 168.4,1729.4 
					168.4,1757.5 168.4,1785.5 168.4,1813.6 168.4,1841.7 168.4,1869.7 168.4,1897.8 168.4,1925.9 168.4,1953.9 168.4,1982 
					168.4,2010.1 168.4,2038.1 168.4,2066.2 168.4,2094.3 168.4,2122.3 168.4,2150.4 168.4,2178.4 168.4,2206.5 168.4,2234.6 
					168.4,2262.6 				"/>
				<polyline class="st5" points="140.3,-572 140.3,-543.9 140.3,-515.9 140.3,-487.8 140.3,-459.7 140.3,-431.7 140.3,-403.6 
					140.3,-375.5 140.3,-347.5 140.3,-319.4 140.3,-291.3 140.3,-263.3 140.3,-235.2 140.3,-207.1 140.3,-179.1 140.3,-151 
					140.3,-122.9 140.3,-94.9 140.3,-66.8 140.3,-38.8 140.3,-10.7 140.3,17.4 140.3,45.5 140.3,73.5 140.3,101.6 140.3,129.6 
					140.3,157.7 140.3,185.8 140.3,213.8 140.3,241.9 140.3,270 140.3,298 140.3,326.1 140.3,354.2 140.3,382.2 140.3,410.3 
					140.3,438.4 140.3,466.4 140.3,494.5 140.3,522.6 140.3,550.6 140.3,578.7 140.3,606.8 140.3,634.8 140.3,662.9 140.3,691 
					140.3,719 140.3,747.1 140.3,775.2 140.3,803.2 140.3,831.3 140.3,859.4 140.3,887.4 140.3,915.5 140.3,943.5 140.3,971.6 
					140.3,999.7 140.3,1027.8 140.3,1055.8 140.3,1083.9 140.3,1111.9 140.3,1140 140.3,1168.1 140.3,1196.2 140.3,1224.2 
					140.3,1252.3 140.3,1280.3 140.3,1308.4 140.3,1336.5 140.3,1364.5 140.3,1392.6 140.3,1420.7 140.3,1448.7 140.3,1476.8 
					140.3,1504.9 140.3,1532.9 140.3,1561 140.3,1589.1 140.3,1617.1 140.3,1645.2 140.3,1673.3 140.3,1701.3 140.3,1729.4 
					140.3,1757.5 140.3,1785.5 140.3,1813.6 140.3,1841.7 140.3,1869.7 140.3,1897.8 140.3,1925.9 140.3,1953.9 140.3,1982 
					140.3,2010.1 140.3,2038.1 140.3,2066.2 140.3,2094.3 140.3,2122.3 140.3,2150.4 140.3,2178.4 140.3,2206.5 140.3,2234.6 
					140.3,2262.6 				"/>
				<polyline class="st5" points="112.3,-572 112.3,-543.9 112.3,-515.9 112.3,-487.8 112.3,-459.7 112.3,-431.7 112.3,-403.6 
					112.3,-375.5 112.3,-347.5 112.3,-319.4 112.3,-291.3 112.3,-263.3 112.3,-235.2 112.3,-207.1 112.3,-179.1 112.3,-151 
					112.3,-122.9 112.3,-94.9 112.3,-66.8 112.3,-38.8 112.3,-10.7 112.3,17.4 112.3,45.5 112.3,73.5 112.3,101.6 112.3,129.6 
					112.3,157.7 112.3,185.8 112.3,213.8 112.3,241.9 112.3,270 112.3,298 112.3,326.1 112.3,354.2 112.3,382.2 112.3,410.3 
					112.3,438.4 112.3,466.4 112.3,494.5 112.3,522.6 112.3,550.6 112.3,578.7 112.3,606.8 112.3,634.8 112.3,662.9 112.3,691 
					112.3,719 112.3,747.1 112.3,775.2 112.3,803.2 112.3,831.3 112.3,859.4 112.3,887.4 112.3,915.5 112.3,943.5 112.3,971.6 
					112.3,999.7 112.3,1027.8 112.3,1055.8 112.3,1083.9 112.3,1111.9 112.3,1140 112.3,1168.1 112.3,1196.2 112.3,1224.2 
					112.3,1252.3 112.3,1280.3 112.3,1308.4 112.3,1336.5 112.3,1364.5 112.3,1392.6 112.3,1420.7 112.3,1448.7 112.3,1476.8 
					112.3,1504.9 112.3,1532.9 112.3,1561 112.3,1589.1 112.3,1617.1 112.3,1645.2 112.3,1673.3 112.3,1701.3 112.3,1729.4 
					112.3,1757.5 112.3,1785.5 112.3,1813.6 112.3,1841.7 112.3,1869.7 112.3,1897.8 112.3,1925.9 112.3,1953.9 112.3,1982 
					112.3,2010.1 112.3,2038.1 112.3,2066.2 112.3,2094.3 112.3,2122.3 112.3,2150.4 112.3,2178.4 112.3,2206.5 112.3,2234.6 
					112.3,2262.6 				"/>
				<polyline class="st5" points="84.2,-572 84.2,-543.9 84.2,-515.9 84.2,-487.8 84.2,-459.7 84.2,-431.7 84.2,-403.6 84.2,-375.5 
					84.2,-347.5 84.2,-319.4 84.2,-291.3 84.2,-263.3 84.2,-235.2 84.2,-207.1 84.2,-179.1 84.2,-151 84.2,-122.9 84.2,-94.9 
					84.2,-66.8 84.2,-38.8 84.2,-10.7 84.2,17.4 84.2,45.5 84.2,73.5 84.2,101.6 84.2,129.6 84.2,157.7 84.2,185.8 84.2,213.8 
					84.2,241.9 84.2,270 84.2,298 84.2,326.1 84.2,354.2 84.2,382.2 84.2,410.3 84.2,438.4 84.2,466.4 84.2,494.5 84.2,522.6 
					84.2,550.6 84.2,578.7 84.2,606.8 84.2,634.8 84.2,662.9 84.2,691 84.2,719 84.2,747.1 84.2,775.2 84.2,803.2 84.2,831.3 
					84.2,859.4 84.2,887.4 84.2,915.5 84.2,943.5 84.2,971.6 84.2,999.7 84.2,1027.8 84.2,1055.8 84.2,1083.9 84.2,1111.9 
					84.2,1140 84.2,1168.1 84.2,1196.2 84.2,1224.2 84.2,1252.3 84.2,1280.3 84.2,1308.4 84.2,1336.5 84.2,1364.5 84.2,1392.6 
					84.2,1420.7 84.2,1448.7 84.2,1476.8 84.2,1504.9 84.2,1532.9 84.2,1561 84.2,1589.1 84.2,1617.1 84.2,1645.2 84.2,1673.3 
					84.2,1701.3 84.2,1729.4 84.2,1757.5 84.2,1785.5 84.2,1813.6 84.2,1841.7 84.2,1869.7 84.2,1897.8 84.2,1925.9 84.2,1953.9 
					84.2,1982 84.2,2010.1 84.2,2038.1 84.2,2066.2 84.2,2094.3 84.2,2122.3 84.2,2150.4 84.2,2178.4 84.2,2206.5 84.2,2234.6 
					84.2,2262.6 				"/>
				<polyline class="st5" points="56.1,-572 56.1,-543.9 56.1,-515.9 56.1,-487.8 56.1,-459.7 56.1,-431.7 56.1,-403.6 56.1,-375.5 
					56.1,-347.5 56.1,-319.4 56.1,-291.3 56.1,-263.3 56.1,-235.2 56.1,-207.1 56.1,-179.1 56.1,-151 56.1,-122.9 56.1,-94.9 
					56.1,-66.8 56.1,-38.8 56.1,-10.7 56.1,17.4 56.1,45.5 56.1,73.5 56.1,101.6 56.1,129.6 56.1,157.7 56.1,185.8 56.1,213.8 
					56.1,241.9 56.1,270 56.1,298 56.1,326.1 56.1,354.2 56.1,382.2 56.1,410.3 56.1,438.4 56.1,466.4 56.1,494.5 56.1,522.6 
					56.1,550.6 56.1,578.7 56.1,606.8 56.1,634.8 56.1,662.9 56.1,691 56.1,719 56.1,747.1 56.1,775.2 56.1,803.2 56.1,831.3 
					56.1,859.4 56.1,887.4 56.1,915.5 56.1,943.5 56.1,971.6 56.1,999.7 56.1,1027.8 56.1,1055.8 56.1,1083.9 56.1,1111.9 
					56.1,1140 56.1,1168.1 56.1,1196.2 56.1,1224.2 56.1,1252.3 56.1,1280.3 56.1,1308.4 56.1,1336.5 56.1,1364.5 56.1,1392.6 
					56.1,1420.7 56.1,1448.7 56.1,1476.8 56.1,1504.9 56.1,1532.9 56.1,1561 56.1,1589.1 56.1,1617.1 56.1,1645.2 56.1,1673.3 
					56.1,1701.3 56.1,1729.4 56.1,1757.5 56.1,1785.5 56.1,1813.6 56.1,1841.7 56.1,1869.7 56.1,1897.8 56.1,1925.9 56.1,1953.9 
					56.1,1982 56.1,2010.1 56.1,2038.1 56.1,2066.2 56.1,2094.3 56.1,2122.3 56.1,2150.4 56.1,2178.4 56.1,2206.5 56.1,2234.6 
					56.1,2262.6 				"/>
				<polyline class="st5" points="28.1,-572 28.1,-543.9 28.1,-515.9 28.1,-487.8 28.1,-459.7 28.1,-431.7 28.1,-403.6 28.1,-375.5 
					28.1,-347.5 28.1,-319.4 28.1,-291.3 28.1,-263.3 28.1,-235.2 28.1,-207.1 28.1,-179.1 28.1,-151 28.1,-122.9 28.1,-94.9 
					28.1,-66.8 28.1,-38.8 28.1,-10.7 28.1,17.4 28.1,45.5 28.1,73.5 28.1,101.6 28.1,129.6 28.1,157.7 28.1,185.8 28.1,213.8 
					28.1,241.9 28.1,270 28.1,298 28.1,326.1 28.1,354.2 28.1,382.2 28.1,410.3 28.1,438.4 28.1,466.4 28.1,494.5 28.1,522.6 
					28.1,550.6 28.1,578.7 28.1,606.8 28.1,634.8 28.1,662.9 28.1,691 28.1,719 28.1,747.1 28.1,775.2 28.1,803.2 28.1,831.3 
					28.1,859.4 28.1,887.4 28.1,915.5 28.1,943.5 28.1,971.6 28.1,999.7 28.1,1027.8 28.1,1055.8 28.1,1083.9 28.1,1111.9 
					28.1,1140 28.1,1168.1 28.1,1196.2 28.1,1224.2 28.1,1252.3 28.1,1280.3 28.1,1308.4 28.1,1336.5 28.1,1364.5 28.1,1392.6 
					28.1,1420.7 28.1,1448.7 28.1,1476.8 28.1,1504.9 28.1,1532.9 28.1,1561 28.1,1589.1 28.1,1617.1 28.1,1645.2 28.1,1673.3 
					28.1,1701.3 28.1,1729.4 28.1,1757.5 28.1,1785.5 28.1,1813.6 28.1,1841.7 28.1,1869.7 28.1,1897.8 28.1,1925.9 28.1,1953.9 
					28.1,1982 28.1,2010.1 28.1,2038.1 28.1,2066.2 28.1,2094.3 28.1,2122.3 28.1,2150.4 28.1,2178.4 28.1,2206.5 28.1,2234.6 
					28.1,2262.6 				"/>
			</g>
		</g>
	</g>
</g>
<g id="Layer_1_copy">
	<g>
		<polygon class="st6" points="216.9,118.7 216.9,146.7 216.9,174.8 216.9,202.9 216.9,230.9 216.9,259 245,259 245,287.1 
			273,287.1 273,259 301.1,259 301.1,230.9 301.1,202.9 301.1,174.8 301.1,146.7 301.1,118.7 273,118.7 273,90.6 245,90.6 
			245,118.7 		"/>
		<path class="st7" d="M216.9,90.6h-28.1v28.1v28.1v28.1v28.1v28.1V259v28.1h28.1v28.1H245H273h28.1v-28.1h28.1V259v-28.1v-28.1
			v-28.1v-28.1v-28.1V90.6h-28.1V62.5H273H245h-28.1V90.6z M273,90.6v28.1h28.1v28.1v28.1v28.1v28.1V259H273v28.1H245V259h-28.1
			v-28.1v-28.1v-28.1v-28.1v-28.1H245V90.6H273z"/>
		<polygon class="st7" points="357.2,259 357.2,287.1 357.2,315.1 329.2,315.1 329.2,343.2 301.1,343.2 301.1,371.3 273,371.3 
			245,371.3 216.9,371.3 216.9,343.2 188.8,343.2 188.8,315.1 160.8,315.1 160.8,287.1 160.8,259 160.8,230.9 132.7,230.9 
			132.7,259 132.7,287.1 132.7,315.1 132.7,343.2 160.8,343.2 160.8,371.3 188.8,371.3 188.8,399.3 216.9,399.3 245,399.3 
			245,427.4 216.9,427.4 188.8,427.4 188.8,455.5 216.9,455.5 245,455.5 273,455.5 301.1,455.5 329.2,455.5 329.2,427.4 
			301.1,427.4 273,427.4 273,399.3 301.1,399.3 329.2,399.3 329.2,371.3 357.2,371.3 357.2,343.2 385.3,343.2 385.3,315.1 
			385.3,287.1 385.3,259 385.3,230.9 357.2,230.9 		"/>
	</g>
</g>
</svg>
