<?xml version="1.0" encoding="utf-8"?>
<!-- Generator: Adobe Illustrator 21.1.0, SVG Export Plug-In . SVG Version: 6.00 Build 0)  -->
<svg version="1.1" xmlns="http://www.w3.org/2000/svg" xmlns:xlink="http://www.w3.org/1999/xlink" x="0px" y="0px"
	 viewBox="0 0 518 518" style="enable-background:new 0 0 518 518;" xml:space="preserve">
<style type="text/css">
	.st0{display:none;}
	.st1{display:inline;fill:none;stroke:#010101;stroke-width:11.3386;stroke-linecap:round;stroke-linejoin:round;}
	.st2{display:inline;fill:none;stroke:#010101;stroke-width:14.1732;stroke-linecap:round;stroke-linejoin:round;}
	.st3{display:inline;}
	.st4{fill:none;stroke:#010101;stroke-width:14.1732;stroke-linecap:round;stroke-linejoin:round;}
	.st5{fill:none;stroke:#000000;stroke-miterlimit:10;}
	.st6{fill:none;}
	.st7{fill:#212121;}
</style>
<g id="Layer_2" class="st0">
</g>
<g id="Layer_1" class="st0">
	<g class="st3">
		<g id="XMLID_1_">
			<g>
				<polygon class="st5" points="0,28.1 0,0 28.1,0 56.1,0 84.2,0 112.3,0 140.3,0 168.4,0 196.5,0 224.5,0 252.6,0 280.7,0 
					308.7,0 336.8,0 364.9,0 392.9,0 421,0 449,0 477.1,0 505.2,0 533.3,0 561.3,0 589.4,0 617.5,0 645.5,0 673.6,0 701.6,0 
					729.7,0 757.8,0 785.8,0 813.9,0 842,0 870,0 898.1,0 926.2,0 954.2,0 982.3,0 1010.4,0 1038.4,0 1066.5,0 1094.6,0 1122.6,0 
					1150.7,0 1178.8,0 1206.8,0 1234.9,0 1263,0 1291,0 1319.1,0 1347.2,0 1375.2,0 1403.3,0 1431.4,0 1459.4,0 1487.5,0 1515.6,0 
					1543.6,0 1571.7,0 1599.8,0 1627.8,0 1655.9,0 1683.9,0 1712,0 1740.1,0 1768.2,0 1796.2,0 1824.3,0 1852.3,0 1880.4,0 
					1908.5,0 1936.5,0 1964.6,0 1992.7,0 2020.7,0 2048.8,0 2076.9,0 2104.9,0 2133,0 2161.1,0 2189.1,0 2217.2,0 2245.3,0 
					2273.3,0 2301.4,0 2329.5,0 2357.5,0 2385.6,0 2413.7,0 2441.7,0 2469.8,0 2497.9,0 2525.9,0 2554,0 2582.1,0 2610.1,0 
					2638.2,0 2666.3,0 2694.3,0 2722.4,0 2750.4,0 2778.5,0 2806.6,0 2834.6,0 2834.6,28.1 2834.6,56.1 2834.6,84.2 2834.6,112.3 
					2834.6,140.3 2834.6,168.4 2834.6,196.5 2834.6,224.5 2834.6,252.6 2834.6,280.7 2834.6,308.7 2834.6,336.8 2834.6,364.9 
					2834.6,392.9 2834.6,421 2834.6,449 2834.6,477.1 2834.6,505.2 2834.6,533.3 2834.6,561.3 2834.6,589.4 2834.6,617.5 
					2834.6,645.5 2834.6,673.6 2834.6,701.6 2834.6,729.7 2834.6,757.8 2834.6,785.8 2834.6,813.9 2834.6,842 2834.6,870 
					2834.6,898.1 2834.6,926.2 2834.6,954.2 2834.6,982.3 2834.6,1010.4 2834.6,1038.4 2834.6,1066.5 2834.6,1094.6 2834.6,1122.6 
					2834.6,1150.7 2834.6,1178.8 2834.6,1206.8 2834.6,1234.9 2834.6,1263 2834.6,1291 2834.6,1319.1 2834.6,1347.2 2834.6,1375.2 
					2834.6,1403.3 2834.6,1431.4 2834.6,1459.4 2834.6,1487.5 2834.6,1515.6 2834.6,1543.6 2834.6,1571.7 2834.6,1599.8 
					2834.6,1627.8 2834.6,1655.9 2834.6,1683.9 2834.6,1712 2834.6,1740.1 2834.6,1768.2 2834.6,1796.2 2834.6,1824.3 
					2834.6,1852.3 2834.6,1880.4 2834.6,1908.5 2834.6,1936.5 2834.6,1964.6 2834.6,1992.7 2834.6,2020.7 2834.6,2048.8 
					2834.6,2076.9 2834.6,2104.9 2834.6,2133 2834.6,2161.1 2834.6,2189.1 2834.6,2217.2 2834.6,2245.3 2834.6,2273.3 
					2834.6,2301.4 2834.6,2329.5 2834.6,2357.5 2834.6,2385.6 2834.6,2413.7 2834.6,2441.7 2834.6,2469.8 2834.6,2497.9 
					2834.6,2525.9 2834.6,2554 2834.6,2582.1 2834.6,2610.1 2834.6,2638.2 2834.6,2666.3 2834.6,2694.3 2834.6,2722.4 
					2834.6,2750.4 2834.6,2778.5 2834.6,2806.6 2834.6,2834.6 2806.6,2834.6 2778.5,2834.6 2750.4,2834.6 2722.4,2834.6 
					2694.3,2834.6 2666.3,2834.6 2638.2,2834.6 2610.1,2834.6 2582.1,2834.6 2554,2834.6 2525.9,2834.6 2497.9,2834.6 
					2469.8,2834.6 2441.7,2834.6 2413.7,2834.6 2385.6,2834.6 2357.5,2834.6 2329.5,2834.6 2301.4,2834.6 2273.3,2834.6 
					2245.3,2834.6 2217.2,2834.6 2189.1,2834.6 2161.1,2834.6 2133,2834.6 2104.9,2834.6 2076.9,2834.6 2048.8,2834.6 
					2020.7,2834.6 1992.7,2834.6 1964.6,2834.6 1936.5,2834.6 1908.5,2834.6 1880.4,2834.6 1852.3,2834.6 1824.3,2834.6 
					1796.2,2834.6 1768.2,2834.6 1740.1,2834.6 1712,2834.6 1683.9,2834.6 1655.9,2834.6 1627.8,2834.6 1599.8,2834.6 
					1571.7,2834.6 1543.6,2834.6 1515.6,2834.6 1487.5,2834.6 1459.4,2834.6 1431.4,2834.6 1403.3,2834.6 1375.2,2834.6 
					1347.2,2834.6 1319.1,2834.6 1291,2834.6 1263,2834.6 1234.9,2834.6 1206.8,2834.6 1178.8,2834.6 1150.7,2834.6 1122.6,2834.6 
					1094.6,2834.6 1066.5,2834.6 1038.4,2834.6 1010.4,2834.6 982.3,2834.6 954.2,2834.6 926.2,2834.6 898.1,2834.6 870,2834.6 
					842,2834.6 813.9,2834.6 785.8,2834.6 757.8,2834.6 729.7,2834.6 701.6,2834.6 673.6,2834.6 645.5,2834.6 617.5,2834.6 
					589.4,2834.6 561.3,2834.6 533.3,2834.6 505.2,2834.6 477.1,2834.6 449,2834.6 421,2834.6 392.9,2834.6 364.9,2834.6 
					336.8,2834.6 308.7,2834.6 280.7,2834.6 252.6,2834.6 224.5,2834.6 196.5,2834.6 168.4,2834.6 140.3,2834.6 112.3,2834.6 
					84.2,2834.6 56.1,2834.6 28.1,2834.6 0,2834.6 0,2806.6 0,2778.5 0,2750.4 0,2722.4 0,2694.3 0,2666.3 0,2638.2 0,2610.1 
					0,2582.1 0,2554 0,2525.9 0,2497.9 0,2469.8 0,2441.7 0,2413.7 0,2385.6 0,2357.5 0,2329.5 0,2301.4 0,2273.3 0,2245.3 
					0,2217.2 0,2189.1 0,2161.1 0,2133 0,2104.9 0,2076.9 0,2048.8 0,2020.7 0,1992.7 0,1964.6 0,1936.5 0,1908.5 0,1880.4 
					0,1852.3 0,1824.3 0,1796.2 0,1768.2 0,1740.1 0,1712 0,1683.9 0,1655.9 0,1627.8 0,1599.8 0,1571.7 0,1543.6 0,1515.6 
					0,1487.5 0,1459.4 0,1431.4 0,1403.3 0,1375.2 0,1347.2 0,1319.1 0,1291 0,1263 0,1234.9 0,1206.8 0,1178.8 0,1150.7 0,1122.6 
					0,1094.6 0,1066.5 0,1038.4 0,1010.4 0,982.3 0,954.2 0,926.2 0,898.1 0,870 0,842 0,813.9 0,785.8 0,757.8 0,729.7 0,701.6 
					0,673.6 0,645.5 0,617.5 0,589.4 0,561.3 0,533.3 0,505.2 0,477.1 0,449 0,421 0,392.9 0,364.9 0,336.8 0,308.7 0,280.7 
					0,252.6 0,224.5 0,196.5 0,168.4 0,140.3 0,112.3 0,84.2 0,56.1 				"/>
				<polyline class="st5" points="0,505.2 28.1,505.2 56.1,505.2 84.2,505.2 112.3,505.2 140.3,505.2 168.4,505.2 196.5,505.2 
					224.5,505.2 252.6,505.2 280.7,505.2 308.7,505.2 336.8,505.2 364.9,505.2 392.9,505.2 421,505.2 449,505.2 477.1,505.2 
					505.2,505.2 533.3,505.2 561.3,505.2 589.4,505.2 617.5,505.2 645.5,505.2 673.6,505.2 701.6,505.2 729.7,505.2 757.8,505.2 
					785.8,505.2 813.9,505.2 842,505.2 870,505.2 898.1,505.2 926.2,505.2 954.2,505.2 982.3,505.2 1010.4,505.2 1038.4,505.2 
					1066.5,505.2 1094.6,505.2 1122.6,505.2 1150.7,505.2 1178.8,505.2 1206.8,505.2 1234.9,505.2 1263,505.2 1291,505.2 
					1319.1,505.2 1347.2,505.2 1375.2,505.2 1403.3,505.2 1431.4,505.2 1459.4,505.2 1487.5,505.2 1515.6,505.2 1543.6,505.2 
					1571.7,505.2 1599.8,505.2 1627.8,505.2 1655.9,505.2 1683.9,505.2 1712,505.2 1740.1,505.2 1768.2,505.2 1796.2,505.2 
					1824.3,505.2 1852.3,505.2 1880.4,505.2 1908.5,505.2 1936.5,505.2 1964.6,505.2 1992.7,505.2 2020.7,505.2 2048.8,505.2 
					2076.9,505.2 2104.9,505.2 2133,505.2 2161.1,505.2 2189.1,505.2 2217.2,505.2 2245.3,505.2 2273.3,505.2 2301.4,505.2 
					2329.5,505.2 2357.5,505.2 2385.6,505.2 2413.7,505.2 2441.7,505.2 2469.8,505.2 2497.9,505.2 2525.9,505.2 2554,505.2 
					2582.1,505.2 2610.1,505.2 2638.2,505.2 2666.3,505.2 2694.3,505.2 2722.4,505.2 2750.4,505.2 2778.5,505.2 2806.6,505.2 
					2834.6,505.2 				"/>
				<polyline class="st5" points="0,477.1 28.1,477.1 56.1,477.1 84.2,477.1 112.3,477.1 140.3,477.1 168.4,477.1 196.5,477.1 
					224.5,477.1 252.6,477.1 280.7,477.1 308.7,477.1 336.8,477.1 364.9,477.1 392.9,477.1 421,477.1 449,477.1 477.1,477.1 
					505.2,477.1 533.3,477.1 561.3,477.1 589.4,477.1 617.5,477.1 645.5,477.1 673.6,477.1 701.6,477.1 729.7,477.1 757.8,477.1 
					785.8,477.1 813.9,477.1 842,477.1 870,477.1 898.1,477.1 926.2,477.1 954.2,477.1 982.3,477.1 1010.4,477.1 1038.4,477.1 
					1066.5,477.1 1094.6,477.1 1122.6,477.1 1150.7,477.1 1178.8,477.1 1206.8,477.1 1234.9,477.1 1263,477.1 1291,477.1 
					1319.1,477.1 1347.2,477.1 1375.2,477.1 1403.3,477.1 1431.4,477.1 1459.4,477.1 1487.5,477.1 1515.6,477.1 1543.6,477.1 
					1571.7,477.1 1599.8,477.1 1627.8,477.1 1655.9,477.1 1683.9,477.1 1712,477.1 1740.1,477.1 1768.2,477.1 1796.2,477.1 
					1824.3,477.1 1852.3,477.1 1880.4,477.1 1908.5,477.1 1936.5,477.1 1964.6,477.1 1992.7,477.1 2020.7,477.1 2048.8,477.1 
					2076.9,477.1 2104.9,477.1 2133,477.1 2161.1,477.1 2189.1,477.1 2217.2,477.1 2245.3,477.1 2273.3,477.1 2301.4,477.1 
					2329.5,477.1 2357.5,477.1 2385.6,477.1 2413.7,477.1 2441.7,477.1 2469.8,477.1 2497.9,477.1 2525.9,477.1 2554,477.1 
					2582.1,477.1 2610.1,477.1 2638.2,477.1 2666.3,477.1 2694.3,477.1 2722.4,477.1 2750.4,477.1 2778.5,477.1 2806.6,477.1 
					2834.6,477.1 				"/>
				<polyline class="st5" points="0,449 28.1,449 56.1,449 84.2,449 112.3,449 140.3,449 168.4,449 196.5,449 224.5,449 252.6,449 
					280.7,449 308.7,449 336.8,449 364.9,449 392.9,449 421,449 449,449 477.1,449 505.2,449 533.3,449 561.3,449 589.4,449 
					617.5,449 645.5,449 673.6,449 701.6,449 729.7,449 757.8,449 785.8,449 813.9,449 842,449 870,449 898.1,449 926.2,449 
					954.2,449 982.3,449 1010.4,449 1038.4,449 1066.5,449 1094.6,449 1122.6,449 1150.7,449 1178.8,449 1206.8,449 1234.9,449 
					1263,449 1291,449 1319.1,449 1347.2,449 1375.2,449 1403.3,449 1431.4,449 1459.4,449 1487.5,449 1515.6,449 1543.6,449 
					1571.7,449 1599.8,449 1627.8,449 1655.9,449 1683.9,449 1712,449 1740.1,449 1768.2,449 1796.2,449 1824.3,449 1852.3,449 
					1880.4,449 1908.5,449 1936.5,449 1964.6,449 1992.7,449 2020.7,449 2048.8,449 2076.9,449 2104.9,449 2133,449 2161.1,449 
					2189.1,449 2217.2,449 2245.3,449 2273.3,449 2301.4,449 2329.5,449 2357.5,449 2385.6,449 2413.7,449 2441.7,449 2469.8,449 
					2497.9,449 2525.9,449 2554,449 2582.1,449 2610.1,449 2638.2,449 2666.3,449 2694.3,449 2722.4,449 2750.4,449 2778.5,449 
					2806.6,449 2834.6,449 				"/>
				<polyline class="st5" points="0,421 28.1,421 56.1,421 84.2,421 112.3,421 140.3,421 168.4,421 196.5,421 224.5,421 252.6,421 
					280.7,421 308.7,421 336.8,421 364.9,421 392.9,421 421,421 449,421 477.1,421 505.2,421 533.3,421 561.3,421 589.4,421 
					617.5,421 645.5,421 673.6,421 701.6,421 729.7,421 757.8,421 785.8,421 813.9,421 842,421 870,421 898.1,421 926.2,421 
					954.2,421 982.3,421 1010.4,421 1038.4,421 1066.5,421 1094.6,421 1122.6,421 1150.7,421 1178.8,421 1206.8,421 1234.9,421 
					1263,421 1291,421 1319.1,421 1347.2,421 1375.2,421 1403.3,421 1431.4,421 1459.4,421 1487.5,421 1515.6,421 1543.6,421 
					1571.7,421 1599.8,421 1627.8,421 1655.9,421 1683.9,421 1712,421 1740.1,421 1768.2,421 1796.2,421 1824.3,421 1852.3,421 
					1880.4,421 1908.5,421 1936.5,421 1964.6,421 1992.7,421 2020.7,421 2048.8,421 2076.9,421 2104.9,421 2133,421 2161.1,421 
					2189.1,421 2217.2,421 2245.3,421 2273.3,421 2301.4,421 2329.5,421 2357.5,421 2385.6,421 2413.7,421 2441.7,421 2469.8,421 
					2497.9,421 2525.9,421 2554,421 2582.1,421 2610.1,421 2638.2,421 2666.3,421 2694.3,421 2722.4,421 2750.4,421 2778.5,421 
					2806.6,421 2834.6,421 				"/>
				<polyline class="st5" points="0,392.9 28.1,392.9 56.1,392.9 84.2,392.9 112.3,392.9 140.3,392.9 168.4,392.9 196.5,392.9 
					224.5,392.9 252.6,392.9 280.7,392.9 308.7,392.9 336.8,392.9 364.9,392.9 392.9,392.9 421,392.9 449,392.9 477.1,392.9 
					505.2,392.9 533.3,392.9 561.3,392.9 589.4,392.9 617.5,392.9 645.5,392.9 673.6,392.9 701.6,392.9 729.7,392.9 757.8,392.9 
					785.8,392.9 813.9,392.9 842,392.9 870,392.9 898.1,392.9 926.2,392.9 954.2,392.9 982.3,392.9 1010.4,392.9 1038.4,392.9 
					1066.5,392.9 1094.6,392.9 1122.6,392.9 1150.7,392.9 1178.8,392.9 1206.8,392.9 1234.9,392.9 1263,392.9 1291,392.9 
					1319.1,392.9 1347.2,392.9 1375.2,392.9 1403.3,392.9 1431.4,392.9 1459.4,392.9 1487.5,392.9 1515.6,392.9 1543.6,392.9 
					1571.7,392.9 1599.8,392.9 1627.8,392.9 1655.9,392.9 1683.9,392.9 1712,392.9 1740.1,392.9 1768.2,392.9 1796.2,392.9 
					1824.3,392.9 1852.3,392.9 1880.4,392.9 1908.5,392.9 1936.5,392.9 1964.6,392.9 1992.7,392.9 2020.7,392.9 2048.8,392.9 
					2076.9,392.9 2104.9,392.9 2133,392.9 2161.1,392.9 2189.1,392.9 2217.2,392.9 2245.3,392.9 2273.3,392.9 2301.4,392.9 
					2329.5,392.9 2357.5,392.9 2385.6,392.9 2413.7,392.9 2441.7,392.9 2469.8,392.9 2497.9,392.9 2525.9,392.9 2554,392.9 
					2582.1,392.9 2610.1,392.9 2638.2,392.9 2666.3,392.9 2694.3,392.9 2722.4,392.9 2750.4,392.9 2778.5,392.9 2806.6,392.9 
					2834.6,392.9 				"/>
				<polyline class="st5" points="0,364.9 28.1,364.9 56.1,364.9 84.2,364.9 112.3,364.9 140.3,364.9 168.4,364.9 196.5,364.9 
					224.5,364.9 252.6,364.9 280.7,364.9 308.7,364.9 336.8,364.9 364.9,364.9 392.9,364.9 421,364.9 449,364.9 477.1,364.9 
					505.2,364.9 533.3,364.9 561.3,364.9 589.4,364.9 617.5,364.9 645.5,364.9 673.6,364.9 701.6,364.9 729.7,364.9 757.8,364.9 
					785.8,364.9 813.9,364.9 842,364.9 870,364.9 898.1,364.9 926.2,364.9 954.2,364.9 982.3,364.9 1010.4,364.9 1038.4,364.9 
					1066.5,364.9 1094.6,364.9 1122.6,364.9 1150.7,364.9 1178.8,364.9 1206.8,364.9 1234.9,364.9 1263,364.9 1291,364.9 
					1319.1,364.9 1347.2,364.9 1375.2,364.9 1403.3,364.9 1431.4,364.9 1459.4,364.9 1487.5,364.9 1515.6,364.9 1543.6,364.9 
					1571.7,364.9 1599.8,364.9 1627.8,364.9 1655.9,364.9 1683.9,364.9 1712,364.9 1740.1,364.9 1768.2,364.9 1796.2,364.9 
					1824.3,364.9 1852.3,364.9 1880.4,364.9 1908.5,364.9 1936.5,364.9 1964.6,364.9 1992.7,364.9 2020.7,364.9 2048.8,364.9 
					2076.9,364.9 2104.9,364.9 2133,364.9 2161.1,364.9 2189.1,364.9 2217.2,364.9 2245.3,364.9 2273.3,364.9 2301.4,364.9 
					2329.5,364.9 2357.5,364.9 2385.6,364.9 2413.7,364.9 2441.7,364.9 2469.8,364.9 2497.9,364.9 2525.9,364.9 2554,364.9 
					2582.1,364.9 2610.1,364.9 2638.2,364.9 2666.3,364.9 2694.3,364.9 2722.4,364.9 2750.4,364.9 2778.5,364.9 2806.6,364.9 
					2834.6,364.9 				"/>
				<polyline class="st5" points="0,336.8 28.1,336.8 56.1,336.8 84.2,336.8 112.3,336.8 140.3,336.8 168.4,336.8 196.5,336.8 
					224.5,336.8 252.6,336.8 280.7,336.8 308.7,336.8 336.8,336.8 364.9,336.8 392.9,336.8 421,336.8 449,336.8 477.1,336.8 
					505.2,336.8 533.3,336.8 561.3,336.8 589.4,336.8 617.5,336.8 645.5,336.8 673.6,336.8 701.6,336.8 729.7,336.8 757.8,336.8 
					785.8,336.8 813.9,336.8 842,336.8 870,336.8 898.1,336.8 926.2,336.8 954.2,336.8 982.3,336.8 1010.4,336.8 1038.4,336.8 
					1066.5,336.8 1094.6,336.8 1122.6,336.8 1150.7,336.8 1178.8,336.8 1206.8,336.8 1234.9,336.8 1263,336.8 1291,336.8 
					1319.1,336.8 1347.2,336.8 1375.2,336.8 1403.3,336.8 1431.4,336.8 1459.4,336.8 1487.5,336.8 1515.6,336.8 1543.6,336.8 
					1571.7,336.8 1599.8,336.8 1627.8,336.8 1655.9,336.8 1683.9,336.8 1712,336.8 1740.1,336.8 1768.2,336.8 1796.2,336.8 
					1824.3,336.8 1852.3,336.8 1880.4,336.8 1908.5,336.8 1936.5,336.8 1964.6,336.8 1992.7,336.8 2020.7,336.8 2048.8,336.8 
					2076.9,336.8 2104.9,336.8 2133,336.8 2161.1,336.8 2189.1,336.8 2217.2,336.8 2245.3,336.8 2273.3,336.8 2301.4,336.8 
					2329.5,336.8 2357.5,336.8 2385.6,336.8 2413.7,336.8 2441.7,336.8 2469.8,336.8 2497.9,336.8 2525.9,336.8 2554,336.8 
					2582.1,336.8 2610.1,336.8 2638.2,336.8 2666.3,336.8 2694.3,336.8 2722.4,336.8 2750.4,336.8 2778.5,336.8 2806.6,336.8 
					2834.6,336.8 				"/>
				<polyline class="st5" points="0,308.7 28.1,308.7 56.1,308.7 84.2,308.7 112.3,308.7 140.3,308.7 168.4,308.7 196.5,308.7 
					224.5,308.7 252.6,308.7 280.7,308.7 308.7,308.7 336.8,308.7 364.9,308.7 392.9,308.7 421,308.7 449,308.7 477.1,308.7 
					505.2,308.7 533.3,308.7 561.3,308.7 589.4,308.7 617.5,308.7 645.5,308.7 673.6,308.7 701.6,308.7 729.7,308.7 757.8,308.7 
					785.8,308.7 813.9,308.7 842,308.7 870,308.7 898.1,308.7 926.2,308.7 954.2,308.7 982.3,308.7 1010.4,308.7 1038.4,308.7 
					1066.5,308.7 1094.6,308.7 1122.6,308.7 1150.7,308.7 1178.8,308.7 1206.8,308.7 1234.9,308.7 1263,308.7 1291,308.7 
					1319.1,308.7 1347.2,308.7 1375.2,308.7 1403.3,308.7 1431.4,308.7 1459.4,308.7 1487.5,308.7 1515.6,308.7 1543.6,308.7 
					1571.7,308.7 1599.8,308.7 1627.8,308.7 1655.9,308.7 1683.9,308.7 1712,308.7 1740.1,308.7 1768.2,308.7 1796.2,308.7 
					1824.3,308.7 1852.3,308.7 1880.4,308.7 1908.5,308.7 1936.5,308.7 1964.6,308.7 1992.7,308.7 2020.7,308.7 2048.8,308.7 
					2076.9,308.7 2104.9,308.7 2133,308.7 2161.1,308.7 2189.1,308.7 2217.2,308.7 2245.3,308.7 2273.3,308.7 2301.4,308.7 
					2329.5,308.7 2357.5,308.7 2385.6,308.7 2413.7,308.7 2441.7,308.7 2469.8,308.7 2497.9,308.7 2525.9,308.7 2554,308.7 
					2582.1,308.7 2610.1,308.7 2638.2,308.7 2666.3,308.7 2694.3,308.7 2722.4,308.7 2750.4,308.7 2778.5,308.7 2806.6,308.7 
					2834.6,308.7 				"/>
				<polyline class="st5" points="0,280.7 28.1,280.7 56.1,280.7 84.2,280.7 112.3,280.7 140.3,280.7 168.4,280.7 196.5,280.7 
					224.5,280.7 252.6,280.7 280.7,280.7 308.7,280.7 336.8,280.7 364.9,280.7 392.9,280.7 421,280.7 449,280.7 477.1,280.7 
					505.2,280.7 533.3,280.7 561.3,280.7 589.4,280.7 617.5,280.7 645.5,280.7 673.6,280.7 701.6,280.7 729.7,280.7 757.8,280.7 
					785.8,280.7 813.9,280.7 842,280.7 870,280.7 898.1,280.7 926.2,280.7 954.2,280.7 982.3,280.7 1010.4,280.7 1038.4,280.7 
					1066.5,280.7 1094.6,280.7 1122.6,280.7 1150.7,280.7 1178.8,280.7 1206.8,280.7 1234.9,280.7 1263,280.7 1291,280.7 
					1319.1,280.7 1347.2,280.7 1375.2,280.7 1403.3,280.7 1431.4,280.7 1459.4,280.7 1487.5,280.7 1515.6,280.7 1543.6,280.7 
					1571.7,280.7 1599.8,280.7 1627.8,280.7 1655.9,280.7 1683.9,280.7 1712,280.7 1740.1,280.7 1768.2,280.7 1796.2,280.7 
					1824.3,280.7 1852.3,280.7 1880.4,280.7 1908.5,280.7 1936.5,280.7 1964.6,280.7 1992.7,280.7 2020.7,280.7 2048.8,280.7 
					2076.9,280.7 2104.9,280.7 2133,280.7 2161.1,280.7 2189.1,280.7 2217.2,280.7 2245.3,280.7 2273.3,280.7 2301.4,280.7 
					2329.5,280.7 2357.5,280.7 2385.6,280.7 2413.7,280.7 2441.7,280.7 2469.8,280.7 2497.9,280.7 2525.9,280.7 2554,280.7 
					2582.1,280.7 2610.1,280.7 2638.2,280.7 2666.3,280.7 2694.3,280.7 2722.4,280.7 2750.4,280.7 2778.5,280.7 2806.6,280.7 
					2834.6,280.7 				"/>
				<polyline class="st5" points="0,252.6 28.1,252.6 56.1,252.6 84.2,252.6 112.3,252.6 140.3,252.6 168.4,252.6 196.5,252.6 
					224.5,252.6 252.6,252.6 280.7,252.6 308.7,252.6 336.8,252.6 364.9,252.6 392.9,252.6 421,252.6 449,252.6 477.1,252.6 
					505.2,252.6 533.3,252.6 561.3,252.6 589.4,252.6 617.5,252.6 645.5,252.6 673.6,252.6 701.6,252.6 729.7,252.6 757.8,252.6 
					785.8,252.6 813.9,252.6 842,252.6 870,252.6 898.1,252.6 926.2,252.6 954.2,252.6 982.3,252.6 1010.4,252.6 1038.4,252.6 
					1066.5,252.6 1094.6,252.6 1122.6,252.6 1150.7,252.6 1178.8,252.6 1206.8,252.6 1234.9,252.6 1263,252.6 1291,252.6 
					1319.1,252.6 1347.2,252.6 1375.2,252.6 1403.3,252.6 1431.4,252.6 1459.4,252.6 1487.5,252.6 1515.6,252.6 1543.6,252.6 
					1571.7,252.6 1599.8,252.6 1627.8,252.6 1655.9,252.6 1683.9,252.6 1712,252.6 1740.1,252.6 1768.2,252.6 1796.2,252.6 
					1824.3,252.6 1852.3,252.6 1880.4,252.6 1908.5,252.6 1936.5,252.6 1964.6,252.6 1992.7,252.6 2020.7,252.6 2048.8,252.6 
					2076.9,252.6 2104.9,252.6 2133,252.6 2161.1,252.6 2189.1,252.6 2217.2,252.6 2245.3,252.6 2273.3,252.6 2301.4,252.6 
					2329.5,252.6 2357.5,252.6 2385.6,252.6 2413.7,252.6 2441.7,252.6 2469.8,252.6 2497.9,252.6 2525.9,252.6 2554,252.6 
					2582.1,252.6 2610.1,252.6 2638.2,252.6 2666.3,252.6 2694.3,252.6 2722.4,252.6 2750.4,252.6 2778.5,252.6 2806.6,252.6 
					2834.6,252.6 				"/>
				<polyline class="st5" points="0,224.5 28.1,224.5 56.1,224.5 84.2,224.5 112.3,224.5 140.3,224.5 168.4,224.5 196.5,224.5 
					224.5,224.5 252.6,224.5 280.7,224.5 308.7,224.5 336.8,224.5 364.9,224.5 392.9,224.5 421,224.5 449,224.5 477.1,224.5 
					505.2,224.5 533.3,224.5 561.3,224.5 589.4,224.5 617.5,224.5 645.5,224.5 673.6,224.5 701.6,224.5 729.7,224.5 757.8,224.5 
					785.8,224.5 813.9,224.5 842,224.5 870,224.5 898.1,224.5 926.2,224.5 954.2,224.5 982.3,224.5 1010.4,224.5 1038.4,224.5 
					1066.5,224.5 1094.6,224.5 1122.6,224.5 1150.7,224.5 1178.8,224.5 1206.8,224.5 1234.9,224.5 1263,224.5 1291,224.5 
					1319.1,224.5 1347.2,224.5 1375.2,224.5 1403.3,224.5 1431.4,224.5 1459.4,224.5 1487.5,224.5 1515.6,224.5 1543.6,224.5 
					1571.7,224.5 1599.8,224.5 1627.8,224.5 1655.9,224.5 1683.9,224.5 1712,224.5 1740.1,224.5 1768.2,224.5 1796.2,224.5 
					1824.3,224.5 1852.3,224.5 1880.4,224.5 1908.5,224.5 1936.5,224.5 1964.6,224.5 1992.7,224.5 2020.7,224.5 2048.8,224.5 
					2076.9,224.5 2104.9,224.5 2133,224.5 2161.1,224.5 2189.1,224.5 2217.2,224.5 2245.3,224.5 2273.3,224.5 2301.4,224.5 
					2329.5,224.5 2357.5,224.5 2385.6,224.5 2413.7,224.5 2441.7,224.5 2469.8,224.5 2497.9,224.5 2525.9,224.5 2554,224.5 
					2582.1,224.5 2610.1,224.5 2638.2,224.5 2666.3,224.5 2694.3,224.5 2722.4,224.5 2750.4,224.5 2778.5,224.5 2806.6,224.5 
					2834.6,224.5 				"/>
				<polyline class="st5" points="0,196.5 28.1,196.5 56.1,196.5 84.2,196.5 112.3,196.5 140.3,196.5 168.4,196.5 196.5,196.5 
					224.5,196.5 252.6,196.5 280.7,196.5 308.7,196.5 336.8,196.5 364.9,196.5 392.9,196.5 421,196.5 449,196.5 477.1,196.5 
					505.2,196.5 533.3,196.5 561.3,196.5 589.4,196.5 617.5,196.5 645.5,196.5 673.6,196.5 701.6,196.5 729.7,196.5 757.8,196.5 
					785.8,196.5 813.9,196.5 842,196.5 870,196.5 898.1,196.5 926.2,196.5 954.2,196.5 982.3,196.5 1010.4,196.5 1038.4,196.5 
					1066.5,196.5 1094.6,196.5 1122.6,196.5 1150.7,196.5 1178.8,196.5 1206.8,196.5 1234.9,196.5 1263,196.5 1291,196.5 
					1319.1,196.5 1347.2,196.5 1375.2,196.5 1403.3,196.5 1431.4,196.5 1459.4,196.5 1487.5,196.5 1515.6,196.5 1543.6,196.5 
					1571.7,196.5 1599.8,196.5 1627.8,196.5 1655.9,196.5 1683.9,196.5 1712,196.5 1740.1,196.5 1768.2,196.5 1796.2,196.5 
					1824.3,196.5 1852.3,196.5 1880.4,196.5 1908.5,196.5 1936.5,196.5 1964.6,196.5 1992.7,196.5 2020.7,196.5 2048.8,196.5 
					2076.9,196.5 2104.9,196.5 2133,196.5 2161.1,196.5 2189.1,196.5 2217.2,196.5 2245.3,196.5 2273.3,196.5 2301.4,196.5 
					2329.5,196.5 2357.5,196.5 2385.6,196.5 2413.7,196.5 2441.7,196.5 2469.8,196.5 2497.9,196.5 2525.9,196.5 2554,196.5 
					2582.1,196.5 2610.1,196.5 2638.2,196.5 2666.3,196.5 2694.3,196.5 2722.4,196.5 2750.4,196.5 2778.5,196.5 2806.6,196.5 
					2834.6,196.5 				"/>
				<polyline class="st5" points="0,168.4 28.1,168.4 56.1,168.4 84.2,168.4 112.3,168.4 140.3,168.4 168.4,168.4 196.5,168.4 
					224.5,168.4 252.6,168.4 280.7,168.4 308.7,168.4 336.8,168.4 364.9,168.4 392.9,168.4 421,168.4 449,168.4 477.1,168.4 
					505.2,168.4 533.3,168.4 561.3,168.4 589.4,168.4 617.5,168.4 645.5,168.4 673.6,168.4 701.6,168.4 729.7,168.4 757.8,168.4 
					785.8,168.4 813.9,168.4 842,168.4 870,168.4 898.1,168.4 926.2,168.4 954.2,168.4 982.3,168.4 1010.4,168.4 1038.4,168.4 
					1066.5,168.4 1094.6,168.4 1122.6,168.4 1150.7,168.4 1178.8,168.4 1206.8,168.4 1234.9,168.4 1263,168.4 1291,168.4 
					1319.1,168.4 1347.2,168.4 1375.2,168.4 1403.3,168.4 1431.4,168.4 1459.4,168.4 1487.5,168.4 1515.6,168.4 1543.6,168.4 
					1571.7,168.4 1599.8,168.4 1627.8,168.4 1655.9,168.4 1683.9,168.4 1712,168.4 1740.1,168.4 1768.2,168.4 1796.2,168.4 
					1824.3,168.4 1852.3,168.4 1880.4,168.4 1908.5,168.4 1936.5,168.4 1964.6,168.4 1992.7,168.4 2020.7,168.4 2048.8,168.4 
					2076.9,168.4 2104.9,168.4 2133,168.4 2161.1,168.4 2189.1,168.4 2217.2,168.4 2245.3,168.4 2273.3,168.4 2301.4,168.4 
					2329.5,168.4 2357.5,168.4 2385.6,168.4 2413.7,168.4 2441.7,168.4 2469.8,168.4 2497.9,168.4 2525.9,168.4 2554,168.4 
					2582.1,168.4 2610.1,168.4 2638.2,168.4 2666.3,168.4 2694.3,168.4 2722.4,168.4 2750.4,168.4 2778.5,168.4 2806.6,168.4 
					2834.6,168.4 				"/>
				<polyline class="st5" points="0,140.3 28.1,140.3 56.1,140.3 84.2,140.3 112.3,140.3 140.3,140.3 168.4,140.3 196.5,140.3 
					224.5,140.3 252.6,140.3 280.7,140.3 308.7,140.3 336.8,140.3 364.9,140.3 392.9,140.3 421,140.3 449,140.3 477.1,140.3 
					505.2,140.3 533.3,140.3 561.3,140.3 589.4,140.3 617.5,140.3 645.5,140.3 673.6,140.3 701.6,140.3 729.7,140.3 757.8,140.3 
					785.8,140.3 813.9,140.3 842,140.3 870,140.3 898.1,140.3 926.2,140.3 954.2,140.3 982.3,140.3 1010.4,140.3 1038.4,140.3 
					1066.5,140.3 1094.6,140.3 1122.6,140.3 1150.7,140.3 1178.8,140.3 1206.8,140.3 1234.9,140.3 1263,140.3 1291,140.3 
					1319.1,140.3 1347.2,140.3 1375.2,140.3 1403.3,140.3 1431.4,140.3 1459.4,140.3 1487.5,140.3 1515.6,140.3 1543.6,140.3 
					1571.7,140.3 1599.8,140.3 1627.8,140.3 1655.9,140.3 1683.9,140.3 1712,140.3 1740.1,140.3 1768.2,140.3 1796.2,140.3 
					1824.3,140.3 1852.3,140.3 1880.4,140.3 1908.5,140.3 1936.5,140.3 1964.6,140.3 1992.7,140.3 2020.7,140.3 2048.8,140.3 
					2076.9,140.3 2104.9,140.3 2133,140.3 2161.1,140.3 2189.1,140.3 2217.2,140.3 2245.3,140.3 2273.3,140.3 2301.4,140.3 
					2329.5,140.3 2357.5,140.3 2385.6,140.3 2413.7,140.3 2441.7,140.3 2469.8,140.3 2497.9,140.3 2525.9,140.3 2554,140.3 
					2582.1,140.3 2610.1,140.3 2638.2,140.3 2666.3,140.3 2694.3,140.3 2722.4,140.3 2750.4,140.3 2778.5,140.3 2806.6,140.3 
					2834.6,140.3 				"/>
				<polyline class="st5" points="0,112.3 28.1,112.3 56.1,112.3 84.2,112.3 112.3,112.3 140.3,112.3 168.4,112.3 196.5,112.3 
					224.5,112.3 252.6,112.3 280.7,112.3 308.7,112.3 336.8,112.3 364.9,112.3 392.9,112.3 421,112.3 449,112.3 477.1,112.3 
					505.2,112.3 533.3,112.3 561.3,112.3 589.4,112.3 617.5,112.3 645.5,112.3 673.6,112.3 701.6,112.3 729.7,112.3 757.8,112.3 
					785.8,112.3 813.9,112.3 842,112.3 870,112.3 898.1,112.3 926.2,112.3 954.2,112.3 982.3,112.3 1010.4,112.3 1038.4,112.3 
					1066.5,112.3 1094.6,112.3 1122.6,112.3 1150.7,112.3 1178.8,112.3 1206.8,112.3 1234.9,112.3 1263,112.3 1291,112.3 
					1319.1,112.3 1347.2,112.3 1375.2,112.3 1403.3,112.3 1431.4,112.3 1459.4,112.3 1487.5,112.3 1515.6,112.3 1543.6,112.3 
					1571.7,112.3 1599.8,112.3 1627.8,112.3 1655.9,112.3 1683.9,112.3 1712,112.3 1740.1,112.3 1768.2,112.3 1796.2,112.3 
					1824.3,112.3 1852.3,112.3 1880.4,112.3 1908.5,112.3 1936.5,112.3 1964.6,112.3 1992.7,112.3 2020.7,112.3 2048.8,112.3 
					2076.9,112.3 2104.9,112.3 2133,112.3 2161.1,112.3 2189.1,112.3 2217.2,112.3 2245.3,112.3 2273.3,112.3 2301.4,112.3 
					2329.5,112.3 2357.5,112.3 2385.6,112.3 2413.7,112.3 2441.7,112.3 2469.8,112.3 2497.9,112.3 2525.9,112.3 2554,112.3 
					2582.1,112.3 2610.1,112.3 2638.2,112.3 2666.3,112.3 2694.3,112.3 2722.4,112.3 2750.4,112.3 2778.5,112.3 2806.6,112.3 
					2834.6,112.3 				"/>
				<polyline class="st5" points="0,84.2 28.1,84.2 56.1,84.2 84.2,84.2 112.3,84.2 140.3,84.2 168.4,84.2 196.5,84.2 224.5,84.2 
					252.6,84.2 280.7,84.2 308.7,84.2 336.8,84.2 364.9,84.2 392.9,84.2 421,84.2 449,84.2 477.1,84.2 505.2,84.2 533.3,84.2 
					561.3,84.2 589.4,84.2 617.5,84.2 645.5,84.2 673.6,84.2 701.6,84.2 729.7,84.2 757.8,84.2 785.8,84.2 813.9,84.2 842,84.2 
					870,84.2 898.1,84.2 926.2,84.2 954.2,84.2 982.3,84.2 1010.4,84.2 1038.4,84.2 1066.5,84.2 1094.6,84.2 1122.6,84.2 
					1150.7,84.2 1178.8,84.2 1206.8,84.2 1234.9,84.2 1263,84.2 1291,84.2 1319.1,84.2 1347.2,84.2 1375.2,84.2 1403.3,84.2 
					1431.4,84.2 1459.4,84.2 1487.5,84.2 1515.6,84.2 1543.6,84.2 1571.7,84.2 1599.8,84.2 1627.8,84.2 1655.9,84.2 1683.9,84.2 
					1712,84.2 1740.1,84.2 1768.2,84.2 1796.2,84.2 1824.3,84.2 1852.3,84.2 1880.4,84.2 1908.5,84.2 1936.5,84.2 1964.6,84.2 
					1992.7,84.2 2020.7,84.2 2048.8,84.2 2076.9,84.2 2104.9,84.2 2133,84.2 2161.1,84.2 2189.1,84.2 2217.2,84.2 2245.3,84.2 
					2273.3,84.2 2301.4,84.2 2329.5,84.2 2357.5,84.2 2385.6,84.2 2413.7,84.2 2441.7,84.2 2469.8,84.2 2497.9,84.2 2525.9,84.2 
					2554,84.2 2582.1,84.2 2610.1,84.2 2638.2,84.2 2666.3,84.2 2694.3,84.2 2722.4,84.2 2750.4,84.2 2778.5,84.2 2806.6,84.2 
					2834.6,84.2 				"/>
				<polyline class="st5" points="0,56.1 28.1,56.1 56.1,56.1 84.2,56.1 112.3,56.1 140.3,56.1 168.4,56.1 196.5,56.1 224.5,56.1 
					252.6,56.1 280.7,56.1 308.7,56.1 336.8,56.1 364.9,56.1 392.9,56.1 421,56.1 449,56.1 477.1,56.1 505.2,56.1 533.3,56.1 
					561.3,56.1 589.4,56.1 617.5,56.1 645.5,56.1 673.6,56.1 701.6,56.1 729.7,56.1 757.8,56.1 785.8,56.1 813.9,56.1 842,56.1 
					870,56.1 898.1,56.1 926.2,56.1 954.2,56.1 982.3,56.1 1010.4,56.1 1038.4,56.1 1066.5,56.1 1094.6,56.1 1122.6,56.1 
					1150.7,56.1 1178.8,56.1 1206.8,56.1 1234.9,56.1 1263,56.1 1291,56.1 1319.1,56.1 1347.2,56.1 1375.2,56.1 1403.3,56.1 
					1431.4,56.1 1459.4,56.1 1487.5,56.1 1515.6,56.1 1543.6,56.1 1571.7,56.1 1599.8,56.1 1627.8,56.1 1655.9,56.1 1683.9,56.1 
					1712,56.1 1740.1,56.1 1768.2,56.1 1796.2,56.1 1824.3,56.1 1852.3,56.1 1880.4,56.1 1908.5,56.1 1936.5,56.1 1964.6,56.1 
					1992.7,56.1 2020.7,56.1 2048.8,56.1 2076.9,56.1 2104.9,56.1 2133,56.1 2161.1,56.1 2189.1,56.1 2217.2,56.1 2245.3,56.1 
					2273.3,56.1 2301.4,56.1 2329.5,56.1 2357.5,56.1 2385.6,56.1 2413.7,56.1 2441.7,56.1 2469.8,56.1 2497.9,56.1 2525.9,56.1 
					2554,56.1 2582.1,56.1 2610.1,56.1 2638.2,56.1 2666.3,56.1 2694.3,56.1 2722.4,56.1 2750.4,56.1 2778.5,56.1 2806.6,56.1 
					2834.6,56.1 				"/>
				<polyline class="st5" points="0,28.1 28.1,28.1 56.1,28.1 84.2,28.1 112.3,28.1 140.3,28.1 168.4,28.1 196.5,28.1 224.5,28.1 
					252.6,28.1 280.7,28.1 308.7,28.1 336.8,28.1 364.9,28.1 392.9,28.1 421,28.1 449,28.1 477.1,28.1 505.2,28.1 533.3,28.1 
					561.3,28.1 589.4,28.1 617.5,28.1 645.5,28.1 673.6,28.1 701.6,28.1 729.7,28.1 757.8,28.1 785.8,28.1 813.9,28.1 842,28.1 
					870,28.1 898.1,28.1 926.2,28.1 954.2,28.1 982.3,28.1 1010.4,28.1 1038.4,28.1 1066.5,28.1 1094.6,28.1 1122.6,28.1 
					1150.7,28.1 1178.8,28.1 1206.8,28.1 1234.9,28.1 1263,28.1 1291,28.1 1319.1,28.1 1347.2,28.1 1375.2,28.1 1403.3,28.1 
					1431.4,28.1 1459.4,28.1 1487.5,28.1 1515.6,28.1 1543.6,28.1 1571.7,28.1 1599.8,28.1 1627.8,28.1 1655.9,28.1 1683.9,28.1 
					1712,28.1 1740.1,28.1 1768.2,28.1 1796.2,28.1 1824.3,28.1 1852.3,28.1 1880.4,28.1 1908.5,28.1 1936.5,28.1 1964.6,28.1 
					1992.7,28.1 2020.7,28.1 2048.8,28.1 2076.9,28.1 2104.9,28.1 2133,28.1 2161.1,28.1 2189.1,28.1 2217.2,28.1 2245.3,28.1 
					2273.3,28.1 2301.4,28.1 2329.5,28.1 2357.5,28.1 2385.6,28.1 2413.7,28.1 2441.7,28.1 2469.8,28.1 2497.9,28.1 2525.9,28.1 
					2554,28.1 2582.1,28.1 2610.1,28.1 2638.2,28.1 2666.3,28.1 2694.3,28.1 2722.4,28.1 2750.4,28.1 2778.5,28.1 2806.6,28.1 
					2834.6,28.1 				"/>
				<polyline class="st5" points="505.2,0 505.2,28.1 505.2,56.1 505.2,84.2 505.2,112.3 505.2,140.3 505.2,168.4 505.2,196.5 
					505.2,224.5 505.2,252.6 505.2,280.7 505.2,308.7 505.2,336.8 505.2,364.9 505.2,392.9 505.2,421 505.2,449 505.2,477.1 
					505.2,505.2 505.2,533.3 505.2,561.3 505.2,589.4 505.2,617.5 505.2,645.5 505.2,673.6 505.2,701.6 505.2,729.7 505.2,757.8 
					505.2,785.8 505.2,813.9 505.2,842 505.2,870 505.2,898.1 505.2,926.2 505.2,954.2 505.2,982.3 505.2,1010.4 505.2,1038.4 
					505.2,1066.5 505.2,1094.6 505.2,1122.6 505.2,1150.7 505.2,1178.8 505.2,1206.8 505.2,1234.9 505.2,1263 505.2,1291 
					505.2,1319.1 505.2,1347.2 505.2,1375.2 505.2,1403.3 505.2,1431.4 505.2,1459.4 505.2,1487.5 505.2,1515.6 505.2,1543.6 
					505.2,1571.7 505.2,1599.8 505.2,1627.8 505.2,1655.9 505.2,1683.9 505.2,1712 505.2,1740.1 505.2,1768.2 505.2,1796.2 
					505.2,1824.3 505.2,1852.3 505.2,1880.4 505.2,1908.5 505.2,1936.5 505.2,1964.6 505.2,1992.7 505.2,2020.7 505.2,2048.8 
					505.2,2076.9 505.2,2104.9 505.2,2133 505.2,2161.1 505.2,2189.1 505.2,2217.2 505.2,2245.3 505.2,2273.3 505.2,2301.4 
					505.2,2329.5 505.2,2357.5 505.2,2385.6 505.2,2413.7 505.2,2441.7 505.2,2469.8 505.2,2497.9 505.2,2525.9 505.2,2554 
					505.2,2582.1 505.2,2610.1 505.2,2638.2 505.2,2666.3 505.2,2694.3 505.2,2722.4 505.2,2750.4 505.2,2778.5 505.2,2806.6 
					505.2,2834.6 				"/>
				<polyline class="st5" points="477.1,0 477.1,28.1 477.1,56.1 477.1,84.2 477.1,112.3 477.1,140.3 477.1,168.4 477.1,196.5 
					477.1,224.5 477.1,252.6 477.1,280.7 477.1,308.7 477.1,336.8 477.1,364.9 477.1,392.9 477.1,421 477.1,449 477.1,477.1 
					477.1,505.2 477.1,533.3 477.1,561.3 477.1,589.4 477.1,617.5 477.1,645.5 477.1,673.6 477.1,701.6 477.1,729.7 477.1,757.8 
					477.1,785.8 477.1,813.9 477.1,842 477.1,870 477.1,898.1 477.1,926.2 477.1,954.2 477.1,982.3 477.1,1010.4 477.1,1038.4 
					477.1,1066.5 477.1,1094.6 477.1,1122.6 477.1,1150.7 477.1,1178.8 477.1,1206.8 477.1,1234.9 477.1,1263 477.1,1291 
					477.1,1319.1 477.1,1347.2 477.1,1375.2 477.1,1403.3 477.1,1431.4 477.1,1459.4 477.1,1487.5 477.1,1515.6 477.1,1543.6 
					477.1,1571.7 477.1,1599.8 477.1,1627.8 477.1,1655.9 477.1,1683.9 477.1,1712 477.1,1740.1 477.1,1768.2 477.1,1796.2 
					477.1,1824.3 477.1,1852.3 477.1,1880.4 477.1,1908.5 477.1,1936.5 477.1,1964.6 477.1,1992.7 477.1,2020.7 477.1,2048.8 
					477.1,2076.9 477.1,2104.9 477.1,2133 477.1,2161.1 477.1,2189.1 477.1,2217.2 477.1,2245.3 477.1,2273.3 477.1,2301.4 
					477.1,2329.5 477.1,2357.5 477.1,2385.6 477.1,2413.7 477.1,2441.7 477.1,2469.8 477.1,2497.9 477.1,2525.9 477.1,2554 
					477.1,2582.1 477.1,2610.1 477.1,2638.2 477.1,2666.3 477.1,2694.3 477.1,2722.4 477.1,2750.4 477.1,2778.5 477.1,2806.6 
					477.1,2834.6 				"/>
				<polyline class="st5" points="449,0 449,28.1 449,56.1 449,84.2 449,112.3 449,140.3 449,168.4 449,196.5 449,224.5 449,252.6 
					449,280.7 449,308.7 449,336.8 449,364.9 449,392.9 449,421 449,449 449,477.1 449,505.2 449,533.3 449,561.3 449,589.4 
					449,617.5 449,645.5 449,673.6 449,701.6 449,729.7 449,757.8 449,785.8 449,813.9 449,842 449,870 449,898.1 449,926.2 
					449,954.2 449,982.3 449,1010.4 449,1038.4 449,1066.5 449,1094.6 449,1122.6 449,1150.7 449,1178.8 449,1206.8 449,1234.9 
					449,1263 449,1291 449,1319.1 449,1347.2 449,1375.2 449,1403.3 449,1431.4 449,1459.4 449,1487.5 449,1515.6 449,1543.6 
					449,1571.7 449,1599.8 449,1627.8 449,1655.9 449,1683.9 449,1712 449,1740.1 449,1768.2 449,1796.2 449,1824.3 449,1852.3 
					449,1880.4 449,1908.5 449,1936.5 449,1964.6 449,1992.7 449,2020.7 449,2048.8 449,2076.9 449,2104.9 449,2133 449,2161.1 
					449,2189.1 449,2217.2 449,2245.3 449,2273.3 449,2301.4 449,2329.5 449,2357.5 449,2385.6 449,2413.7 449,2441.7 449,2469.8 
					449,2497.9 449,2525.9 449,2554 449,2582.1 449,2610.1 449,2638.2 449,2666.3 449,2694.3 449,2722.4 449,2750.4 449,2778.5 
					449,2806.6 449,2834.6 				"/>
				<polyline class="st5" points="421,0 421,28.1 421,56.1 421,84.2 421,112.3 421,140.3 421,168.4 421,196.5 421,224.5 421,252.6 
					421,280.7 421,308.7 421,336.8 421,364.9 421,392.9 421,421 421,449 421,477.1 421,505.2 421,533.3 421,561.3 421,589.4 
					421,617.5 421,645.5 421,673.6 421,701.6 421,729.7 421,757.8 421,785.8 421,813.9 421,842 421,870 421,898.1 421,926.2 
					421,954.2 421,982.3 421,1010.4 421,1038.4 421,1066.5 421,1094.6 421,1122.6 421,1150.7 421,1178.8 421,1206.8 421,1234.9 
					421,1263 421,1291 421,1319.1 421,1347.2 421,1375.2 421,1403.3 421,1431.4 421,1459.4 421,1487.5 421,1515.6 421,1543.6 
					421,1571.7 421,1599.8 421,1627.8 421,1655.9 421,1683.9 421,1712 421,1740.1 421,1768.2 421,1796.2 421,1824.3 421,1852.3 
					421,1880.4 421,1908.5 421,1936.5 421,1964.6 421,1992.7 421,2020.7 421,2048.8 421,2076.9 421,2104.9 421,2133 421,2161.1 
					421,2189.1 421,2217.2 421,2245.3 421,2273.3 421,2301.4 421,2329.5 421,2357.5 421,2385.6 421,2413.7 421,2441.7 421,2469.8 
					421,2497.9 421,2525.9 421,2554 421,2582.1 421,2610.1 421,2638.2 421,2666.3 421,2694.3 421,2722.4 421,2750.4 421,2778.5 
					421,2806.6 421,2834.6 				"/>
				<polyline class="st5" points="392.9,0 392.9,28.1 392.9,56.1 392.9,84.2 392.9,112.3 392.9,140.3 392.9,168.4 392.9,196.5 
					392.9,224.5 392.9,252.6 392.9,280.7 392.9,308.7 392.9,336.8 392.9,364.9 392.9,392.9 392.9,421 392.9,449 392.9,477.1 
					392.9,505.2 392.9,533.3 392.9,561.3 392.9,589.4 392.9,617.5 392.9,645.5 392.9,673.6 392.9,701.6 392.9,729.7 392.9,757.8 
					392.9,785.8 392.9,813.9 392.9,842 392.9,870 392.9,898.1 392.9,926.2 392.9,954.2 392.9,982.3 392.9,1010.4 392.9,1038.4 
					392.9,1066.5 392.9,1094.6 392.9,1122.6 392.9,1150.7 392.9,1178.8 392.9,1206.8 392.9,1234.9 392.9,1263 392.9,1291 
					392.9,1319.1 392.9,1347.2 392.9,1375.2 392.9,1403.3 392.9,1431.4 392.9,1459.4 392.9,1487.5 392.9,1515.6 392.9,1543.6 
					392.9,1571.7 392.9,1599.8 392.9,1627.8 392.9,1655.9 392.9,1683.9 392.9,1712 392.9,1740.1 392.9,1768.2 392.9,1796.2 
					392.9,1824.3 392.9,1852.3 392.9,1880.4 392.9,1908.5 392.9,1936.5 392.9,1964.6 392.9,1992.7 392.9,2020.7 392.9,2048.8 
					392.9,2076.9 392.9,2104.9 392.9,2133 392.9,2161.1 392.9,2189.1 392.9,2217.2 392.9,2245.3 392.9,2273.3 392.9,2301.4 
					392.9,2329.5 392.9,2357.5 392.9,2385.6 392.9,2413.7 392.9,2441.7 392.9,2469.8 392.9,2497.9 392.9,2525.9 392.9,2554 
					392.9,2582.1 392.9,2610.1 392.9,2638.2 392.9,2666.3 392.9,2694.3 392.9,2722.4 392.9,2750.4 392.9,2778.5 392.9,2806.6 
					392.9,2834.6 				"/>
				<polyline class="st5" points="364.9,0 364.9,28.1 364.9,56.1 364.9,84.2 364.9,112.3 364.9,140.3 364.9,168.4 364.9,196.5 
					364.9,224.5 364.9,252.6 364.9,280.7 364.9,308.7 364.9,336.8 364.9,364.9 364.9,392.9 364.9,421 364.9,449 364.9,477.1 
					364.9,505.2 364.9,533.3 364.9,561.3 364.9,589.4 364.9,617.5 364.9,645.5 364.9,673.6 364.9,701.6 364.9,729.7 364.9,757.8 
					364.9,785.8 364.9,813.9 364.9,842 364.9,870 364.9,898.1 364.9,926.2 364.9,954.2 364.9,982.3 364.9,1010.4 364.9,1038.4 
					364.9,1066.5 364.9,1094.6 364.9,1122.6 364.9,1150.7 364.9,1178.8 364.9,1206.8 364.9,1234.9 364.9,1263 364.9,1291 
					364.9,1319.1 364.9,1347.2 364.9,1375.2 364.9,1403.3 364.9,1431.4 364.9,1459.4 364.9,1487.5 364.9,1515.6 364.9,1543.6 
					364.9,1571.7 364.9,1599.8 364.9,1627.8 364.9,1655.9 364.9,1683.9 364.9,1712 364.9,1740.1 364.9,1768.2 364.9,1796.2 
					364.9,1824.3 364.9,1852.3 364.9,1880.4 364.9,1908.5 364.9,1936.5 364.9,1964.6 364.9,1992.7 364.9,2020.7 364.9,2048.8 
					364.9,2076.9 364.9,2104.9 364.9,2133 364.9,2161.1 364.9,2189.1 364.9,2217.2 364.9,2245.3 364.9,2273.3 364.9,2301.4 
					364.9,2329.5 364.9,2357.5 364.9,2385.6 364.9,2413.7 364.9,2441.7 364.9,2469.8 364.9,2497.9 364.9,2525.9 364.9,2554 
					364.9,2582.1 364.9,2610.1 364.9,2638.2 364.9,2666.3 364.9,2694.3 364.9,2722.4 364.9,2750.4 364.9,2778.5 364.9,2806.6 
					364.9,2834.6 				"/>
				<polyline class="st5" points="336.8,0 336.8,28.1 336.8,56.1 336.8,84.2 336.8,112.3 336.8,140.3 336.8,168.4 336.8,196.5 
					336.8,224.5 336.8,252.6 336.8,280.7 336.8,308.7 336.8,336.8 336.8,364.9 336.8,392.9 336.8,421 336.8,449 336.8,477.1 
					336.8,505.2 336.8,533.3 336.8,561.3 336.8,589.4 336.8,617.5 336.8,645.5 336.8,673.6 336.8,701.6 336.8,729.7 336.8,757.8 
					336.8,785.8 336.8,813.9 336.8,842 336.8,870 336.8,898.1 336.8,926.2 336.8,954.2 336.8,982.3 336.8,1010.4 336.8,1038.4 
					336.8,1066.5 336.8,1094.6 336.8,1122.6 336.8,1150.7 336.8,1178.8 336.8,1206.8 336.8,1234.9 336.8,1263 336.8,1291 
					336.8,1319.1 336.8,1347.2 336.8,1375.2 336.8,1403.3 336.8,1431.4 336.8,1459.4 336.8,1487.5 336.8,1515.6 336.8,1543.6 
					336.8,1571.7 336.8,1599.8 336.8,1627.8 336.8,1655.9 336.8,1683.9 336.8,1712 336.8,1740.1 336.8,1768.2 336.8,1796.2 
					336.8,1824.3 336.8,1852.3 336.8,1880.4 336.8,1908.5 336.8,1936.5 336.8,1964.6 336.8,1992.7 336.8,2020.7 336.8,2048.8 
					336.8,2076.9 336.8,2104.9 336.8,2133 336.8,2161.1 336.8,2189.1 336.8,2217.2 336.8,2245.3 336.8,2273.3 336.8,2301.4 
					336.8,2329.5 336.8,2357.5 336.8,2385.6 336.8,2413.7 336.8,2441.7 336.8,2469.8 336.8,2497.9 336.8,2525.9 336.8,2554 
					336.8,2582.1 336.8,2610.1 336.8,2638.2 336.8,2666.3 336.8,2694.3 336.8,2722.4 336.8,2750.4 336.8,2778.5 336.8,2806.6 
					336.8,2834.6 				"/>
				<polyline class="st5" points="308.7,0 308.7,28.1 308.7,56.1 308.7,84.2 308.7,112.3 308.7,140.3 308.7,168.4 308.7,196.5 
					308.7,224.5 308.7,252.6 308.7,280.7 308.7,308.7 308.7,336.8 308.7,364.9 308.7,392.9 308.7,421 308.7,449 308.7,477.1 
					308.7,505.2 308.7,533.3 308.7,561.3 308.7,589.4 308.7,617.5 308.7,645.5 308.7,673.6 308.7,701.6 308.7,729.7 308.7,757.8 
					308.7,785.8 308.7,813.9 308.7,842 308.7,870 308.7,898.1 308.7,926.2 308.7,954.2 308.7,982.3 308.7,1010.4 308.7,1038.4 
					308.7,1066.5 308.7,1094.6 308.7,1122.6 308.7,1150.7 308.7,1178.8 308.7,1206.8 308.7,1234.9 308.7,1263 308.7,1291 
					308.7,1319.1 308.7,1347.2 308.7,1375.2 308.7,1403.3 308.7,1431.4 308.7,1459.4 308.7,1487.5 308.7,1515.6 308.7,1543.6 
					308.7,1571.7 308.7,1599.8 308.7,1627.8 308.7,1655.9 308.7,1683.9 308.7,1712 308.7,1740.1 308.7,1768.2 308.7,1796.2 
					308.7,1824.3 308.7,1852.3 308.7,1880.4 308.7,1908.5 308.7,1936.5 308.7,1964.6 308.7,1992.7 308.7,2020.7 308.7,2048.8 
					308.7,2076.9 308.7,2104.9 308.7,2133 308.7,2161.1 308.7,2189.1 308.7,2217.2 308.7,2245.3 308.7,2273.3 308.7,2301.4 
					308.7,2329.5 308.7,2357.5 308.7,2385.6 308.7,2413.7 308.7,2441.7 308.7,2469.8 308.7,2497.9 308.7,2525.9 308.7,2554 
					308.7,2582.1 308.7,2610.1 308.7,2638.2 308.7,2666.3 308.7,2694.3 308.7,2722.4 308.7,2750.4 308.7,2778.5 308.7,2806.6 
					308.7,2834.6 				"/>
				<polyline class="st5" points="280.7,0 280.7,28.1 280.7,56.1 280.7,84.2 280.7,112.3 280.7,140.3 280.7,168.4 280.7,196.5 
					280.7,224.5 280.7,252.6 280.7,280.7 280.7,308.7 280.7,336.8 280.7,364.9 280.7,392.9 280.7,421 280.7,449 280.7,477.1 
					280.7,505.2 280.7,533.3 280.7,561.3 280.7,589.4 280.7,617.5 280.7,645.5 280.7,673.6 280.7,701.6 280.7,729.7 280.7,757.8 
					280.7,785.8 280.7,813.9 280.7,842 280.7,870 280.7,898.1 280.7,926.2 280.7,954.2 280.7,982.3 280.7,1010.4 280.7,1038.4 
					280.7,1066.5 280.7,1094.6 280.7,1122.6 280.7,1150.7 280.7,1178.8 280.7,1206.8 280.7,1234.9 280.7,1263 280.7,1291 
					280.7,1319.1 280.7,1347.2 280.7,1375.2 280.7,1403.3 280.7,1431.4 280.7,1459.4 280.7,1487.5 280.7,1515.6 280.7,1543.6 
					280.7,1571.7 280.7,1599.8 280.7,1627.8 280.7,1655.9 280.7,1683.9 280.7,1712 280.7,1740.1 280.7,1768.2 280.7,1796.2 
					280.7,1824.3 280.7,1852.3 280.7,1880.4 280.7,1908.5 280.7,1936.5 280.7,1964.6 280.7,1992.7 280.7,2020.7 280.7,2048.8 
					280.7,2076.9 280.7,2104.9 280.7,2133 280.7,2161.1 280.7,2189.1 280.7,2217.2 280.7,2245.3 280.7,2273.3 280.7,2301.4 
					280.7,2329.5 280.7,2357.5 280.7,2385.6 280.7,2413.7 280.7,2441.7 280.7,2469.8 280.7,2497.9 280.7,2525.9 280.7,2554 
					280.7,2582.1 280.7,2610.1 280.7,2638.2 280.7,2666.3 280.7,2694.3 280.7,2722.4 280.7,2750.4 280.7,2778.5 280.7,2806.6 
					280.7,2834.6 				"/>
				<polyline class="st5" points="252.6,0 252.6,28.1 252.6,56.1 252.6,84.2 252.6,112.3 252.6,140.3 252.6,168.4 252.6,196.5 
					252.6,224.5 252.6,252.6 252.6,280.7 252.6,308.7 252.6,336.8 252.6,364.9 252.6,392.9 252.6,421 252.6,449 252.6,477.1 
					252.6,505.2 252.6,533.3 252.6,561.3 252.6,589.4 252.6,617.5 252.6,645.5 252.6,673.6 252.6,701.6 252.6,729.7 252.6,757.8 
					252.6,785.8 252.6,813.9 252.6,842 252.6,870 252.6,898.1 252.6,926.2 252.6,954.2 252.6,982.3 252.6,1010.4 252.6,1038.4 
					252.6,1066.5 252.6,1094.6 252.6,1122.6 252.6,1150.7 252.6,1178.8 252.6,1206.8 252.6,1234.9 252.6,1263 252.6,1291 
					252.6,1319.1 252.6,1347.2 252.6,1375.2 252.6,1403.3 252.6,1431.4 252.6,1459.4 252.6,1487.5 252.6,1515.6 252.6,1543.6 
					252.6,1571.7 252.6,1599.8 252.6,1627.8 252.6,1655.9 252.6,1683.9 252.6,1712 252.6,1740.1 252.6,1768.2 252.6,1796.2 
					252.6,1824.3 252.6,1852.3 252.6,1880.4 252.6,1908.5 252.6,1936.5 252.6,1964.6 252.6,1992.7 252.6,2020.7 252.6,2048.8 
					252.6,2076.9 252.6,2104.9 252.6,2133 252.6,2161.1 252.6,2189.1 252.6,2217.2 252.6,2245.3 252.6,2273.3 252.6,2301.4 
					252.6,2329.5 252.6,2357.5 252.6,2385.6 252.6,2413.7 252.6,2441.7 252.6,2469.8 252.6,2497.9 252.6,2525.9 252.6,2554 
					252.6,2582.1 252.6,2610.1 252.6,2638.2 252.6,2666.3 252.6,2694.3 252.6,2722.4 252.6,2750.4 252.6,2778.5 252.6,2806.6 
					252.6,2834.6 				"/>
				<polyline class="st5" points="224.5,0 224.5,28.1 224.5,56.1 224.5,84.2 224.5,112.3 224.5,140.3 224.5,168.4 224.5,196.5 
					224.5,224.5 224.5,252.6 224.5,280.7 224.5,308.7 224.5,336.8 224.5,364.9 224.5,392.9 224.5,421 224.5,449 224.5,477.1 
					224.5,505.2 224.5,533.3 224.5,561.3 224.5,589.4 224.5,617.5 224.5,645.5 224.5,673.6 224.5,701.6 224.5,729.7 224.5,757.8 
					224.5,785.8 224.5,813.9 224.5,842 224.5,870 224.5,898.1 224.5,926.2 224.5,954.2 224.5,982.3 224.5,1010.4 224.5,1038.4 
					224.5,1066.5 224.5,1094.6 224.5,1122.6 224.5,1150.7 224.5,1178.8 224.5,1206.8 224.5,1234.9 224.5,1263 224.5,1291 
					224.5,1319.1 224.5,1347.2 224.5,1375.2 224.5,1403.3 224.5,1431.4 224.5,1459.4 224.5,1487.5 224.5,1515.6 224.5,1543.6 
					224.5,1571.7 224.5,1599.8 224.5,1627.8 224.5,1655.9 224.5,1683.9 224.5,1712 224.5,1740.1 224.5,1768.2 224.5,1796.2 
					224.5,1824.3 224.5,1852.3 224.5,1880.4 224.5,1908.5 224.5,1936.5 224.5,1964.6 224.5,1992.7 224.5,2020.7 224.5,2048.8 
					224.5,2076.9 224.5,2104.9 224.5,2133 224.5,2161.1 224.5,2189.1 224.5,2217.2 224.5,2245.3 224.5,2273.3 224.5,2301.4 
					224.5,2329.5 224.5,2357.5 224.5,2385.6 224.5,2413.7 224.5,2441.7 224.5,2469.8 224.5,2497.9 224.5,2525.9 224.5,2554 
					224.5,2582.1 224.5,2610.1 224.5,2638.2 224.5,2666.3 224.5,2694.3 224.5,2722.4 224.5,2750.4 224.5,2778.5 224.5,2806.6 
					224.5,2834.6 				"/>
				<polyline class="st5" points="196.5,0 196.5,28.1 196.5,56.1 196.5,84.2 196.5,112.3 196.5,140.3 196.5,168.4 196.5,196.5 
					196.5,224.5 196.5,252.6 196.5,280.7 196.5,308.7 196.5,336.8 196.5,364.9 196.5,392.9 196.5,421 196.5,449 196.5,477.1 
					196.5,505.2 196.5,533.3 196.5,561.3 196.5,589.4 196.5,617.5 196.5,645.5 196.5,673.6 196.5,701.6 196.5,729.7 196.5,757.8 
					196.5,785.8 196.5,813.9 196.5,842 196.5,870 196.5,898.1 196.5,926.2 196.5,954.2 196.5,982.3 196.5,1010.4 196.5,1038.4 
					196.5,1066.5 196.5,1094.6 196.5,1122.6 196.5,1150.7 196.5,1178.8 196.5,1206.8 196.5,1234.9 196.5,1263 196.5,1291 
					196.5,1319.1 196.5,1347.2 196.5,1375.2 196.5,1403.3 196.5,1431.4 196.5,1459.4 196.5,1487.5 196.5,1515.6 196.5,1543.6 
					196.5,1571.7 196.5,1599.8 196.5,1627.8 196.5,1655.9 196.5,1683.9 196.5,1712 196.5,1740.1 196.5,1768.2 196.5,1796.2 
					196.5,1824.3 196.5,1852.3 196.5,1880.4 196.5,1908.5 196.5,1936.5 196.5,1964.6 196.5,1992.7 196.5,2020.7 196.5,2048.8 
					196.5,2076.9 196.5,2104.9 196.5,2133 196.5,2161.1 196.5,2189.1 196.5,2217.2 196.5,2245.3 196.5,2273.3 196.5,2301.4 
					196.5,2329.5 196.5,2357.5 196.5,2385.6 196.5,2413.7 196.5,2441.7 196.5,2469.8 196.5,2497.9 196.5,2525.9 196.5,2554 
					196.5,2582.1 196.5,2610.1 196.5,2638.2 196.5,2666.3 196.5,2694.3 196.5,2722.4 196.5,2750.4 196.5,2778.5 196.5,2806.6 
					196.5,2834.6 				"/>
				<polyline class="st5" points="168.4,0 168.4,28.1 168.4,56.1 168.4,84.2 168.4,112.3 168.4,140.3 168.4,168.4 168.4,196.5 
					168.4,224.5 168.4,252.6 168.4,280.7 168.4,308.7 168.4,336.8 168.4,364.9 168.4,392.9 168.4,421 168.4,449 168.4,477.1 
					168.4,505.2 168.4,533.3 168.4,561.3 168.4,589.4 168.4,617.5 168.4,645.5 168.4,673.6 168.4,701.6 168.4,729.7 168.4,757.8 
					168.4,785.8 168.4,813.9 168.4,842 168.4,870 168.4,898.1 168.4,926.2 168.4,954.2 168.4,982.3 168.4,1010.4 168.4,1038.4 
					168.4,1066.5 168.4,1094.6 168.4,1122.6 168.4,1150.7 168.4,1178.8 168.4,1206.8 168.4,1234.9 168.4,1263 168.4,1291 
					168.4,1319.1 168.4,1347.2 168.4,1375.2 168.4,1403.3 168.4,1431.4 168.4,1459.4 168.4,1487.5 168.4,1515.6 168.4,1543.6 
					168.4,1571.7 168.4,1599.8 168.4,1627.8 168.4,1655.9 168.4,1683.9 168.4,1712 168.4,1740.1 168.4,1768.2 168.4,1796.2 
					168.4,1824.3 168.4,1852.3 168.4,1880.4 168.4,1908.5 168.4,1936.5 168.4,1964.6 168.4,1992.7 168.4,2020.7 168.4,2048.8 
					168.4,2076.9 168.4,2104.9 168.4,2133 168.4,2161.1 168.4,2189.1 168.4,2217.2 168.4,2245.3 168.4,2273.3 168.4,2301.4 
					168.4,2329.5 168.4,2357.5 168.4,2385.6 168.4,2413.7 168.4,2441.7 168.4,2469.8 168.4,2497.9 168.4,2525.9 168.4,2554 
					168.4,2582.1 168.4,2610.1 168.4,2638.2 168.4,2666.3 168.4,2694.3 168.4,2722.4 168.4,2750.4 168.4,2778.5 168.4,2806.6 
					168.4,2834.6 				"/>
				<polyline class="st5" points="140.3,0 140.3,28.1 140.3,56.1 140.3,84.2 140.3,112.3 140.3,140.3 140.3,168.4 140.3,196.5 
					140.3,224.5 140.3,252.6 140.3,280.7 140.3,308.7 140.3,336.8 140.3,364.9 140.3,392.9 140.3,421 140.3,449 140.3,477.1 
					140.3,505.2 140.3,533.3 140.3,561.3 140.3,589.4 140.3,617.5 140.3,645.5 140.3,673.6 140.3,701.6 140.3,729.7 140.3,757.8 
					140.3,785.8 140.3,813.9 140.3,842 140.3,870 140.3,898.1 140.3,926.2 140.3,954.2 140.3,982.3 140.3,1010.4 140.3,1038.4 
					140.3,1066.5 140.3,1094.6 140.3,1122.6 140.3,1150.7 140.3,1178.8 140.3,1206.8 140.3,1234.9 140.3,1263 140.3,1291 
					140.3,1319.1 140.3,1347.2 140.3,1375.2 140.3,1403.3 140.3,1431.4 140.3,1459.4 140.3,1487.5 140.3,1515.6 140.3,1543.6 
					140.3,1571.7 140.3,1599.8 140.3,1627.8 140.3,1655.9 140.3,1683.9 140.3,1712 140.3,1740.1 140.3,1768.2 140.3,1796.2 
					140.3,1824.3 140.3,1852.3 140.3,1880.4 140.3,1908.5 140.3,1936.5 140.3,1964.6 140.3,1992.7 140.3,2020.7 140.3,2048.8 
					140.3,2076.9 140.3,2104.9 140.3,2133 140.3,2161.1 140.3,2189.1 140.3,2217.2 140.3,2245.3 140.3,2273.3 140.3,2301.4 
					140.3,2329.5 140.3,2357.5 140.3,2385.6 140.3,2413.7 140.3,2441.7 140.3,2469.8 140.3,2497.9 140.3,2525.9 140.3,2554 
					140.3,2582.1 140.3,2610.1 140.3,2638.2 140.3,2666.3 140.3,2694.3 140.3,2722.4 140.3,2750.4 140.3,2778.5 140.3,2806.6 
					140.3,2834.6 				"/>
				<polyline class="st5" points="112.3,0 112.3,28.1 112.3,56.1 112.3,84.2 112.3,112.3 112.3,140.3 112.3,168.4 112.3,196.5 
					112.3,224.5 112.3,252.6 112.3,280.7 112.3,308.7 112.3,336.8 112.3,364.9 112.3,392.9 112.3,421 112.3,449 112.3,477.1 
					112.3,505.2 112.3,533.3 112.3,561.3 112.3,589.4 112.3,617.5 112.3,645.5 112.3,673.6 112.3,701.6 112.3,729.7 112.3,757.8 
					112.3,785.8 112.3,813.9 112.3,842 112.3,870 112.3,898.1 112.3,926.2 112.3,954.2 112.3,982.3 112.3,1010.4 112.3,1038.4 
					112.3,1066.5 112.3,1094.6 112.3,1122.6 112.3,1150.7 112.3,1178.8 112.3,1206.8 112.3,1234.9 112.3,1263 112.3,1291 
					112.3,1319.1 112.3,1347.2 112.3,1375.2 112.3,1403.3 112.3,1431.4 112.3,1459.4 112.3,1487.5 112.3,1515.6 112.3,1543.6 
					112.3,1571.7 112.3,1599.8 112.3,1627.8 112.3,1655.9 112.3,1683.9 112.3,1712 112.3,1740.1 112.3,1768.2 112.3,1796.2 
					112.3,1824.3 112.3,1852.3 112.3,1880.4 112.3,1908.5 112.3,1936.5 112.3,1964.6 112.3,1992.7 112.3,2020.7 112.3,2048.8 
					112.3,2076.9 112.3,2104.9 112.3,2133 112.3,2161.1 112.3,2189.1 112.3,2217.2 112.3,2245.3 112.3,2273.3 112.3,2301.4 
					112.3,2329.5 112.3,2357.5 112.3,2385.6 112.3,2413.7 112.3,2441.7 112.3,2469.8 112.3,2497.9 112.3,2525.9 112.3,2554 
					112.3,2582.1 112.3,2610.1 112.3,2638.2 112.3,2666.3 112.3,2694.3 112.3,2722.4 112.3,2750.4 112.3,2778.5 112.3,2806.6 
					112.3,2834.6 				"/>
				<polyline class="st5" points="84.2,0 84.2,28.1 84.2,56.1 84.2,84.2 84.2,112.3 84.2,140.3 84.2,168.4 84.2,196.5 84.2,224.5 
					84.2,252.6 84.2,280.7 84.2,308.7 84.2,336.8 84.2,364.9 84.2,392.9 84.2,421 84.2,449 84.2,477.1 84.2,505.2 84.2,533.3 
					84.2,561.3 84.2,589.4 84.2,617.5 84.2,645.5 84.2,673.6 84.2,701.6 84.2,729.7 84.2,757.8 84.2,785.8 84.2,813.9 84.2,842 
					84.2,870 84.2,898.1 84.2,926.2 84.2,954.2 84.2,982.3 84.2,1010.4 84.2,1038.4 84.2,1066.5 84.2,1094.6 84.2,1122.6 
					84.2,1150.7 84.2,1178.8 84.2,1206.8 84.2,1234.9 84.2,1263 84.2,1291 84.2,1319.1 84.2,1347.2 84.2,1375.2 84.2,1403.3 
					84.2,1431.4 84.2,1459.4 84.2,1487.5 84.2,1515.6 84.2,1543.6 84.2,1571.7 84.2,1599.8 84.2,1627.8 84.2,1655.9 84.2,1683.9 
					84.2,1712 84.2,1740.1 84.2,1768.2 84.2,1796.2 84.2,1824.3 84.2,1852.3 84.2,1880.4 84.2,1908.5 84.2,1936.5 84.2,1964.6 
					84.2,1992.7 84.2,2020.7 84.2,2048.8 84.2,2076.9 84.2,2104.9 84.2,2133 84.2,2161.1 84.2,2189.1 84.2,2217.2 84.2,2245.3 
					84.2,2273.3 84.2,2301.4 84.2,2329.5 84.2,2357.5 84.2,2385.6 84.2,2413.7 84.2,2441.7 84.2,2469.8 84.2,2497.9 84.2,2525.9 
					84.2,2554 84.2,2582.1 84.2,2610.1 84.2,2638.2 84.2,2666.3 84.2,2694.3 84.2,2722.4 84.2,2750.4 84.2,2778.5 84.2,2806.6 
					84.2,2834.6 				"/>
				<polyline class="st5" points="56.1,0 56.1,28.1 56.1,56.1 56.1,84.2 56.1,112.3 56.1,140.3 56.1,168.4 56.1,196.5 56.1,224.5 
					56.1,252.6 56.1,280.7 56.1,308.7 56.1,336.8 56.1,364.9 56.1,392.9 56.1,421 56.1,449 56.1,477.1 56.1,505.2 56.1,533.3 
					56.1,561.3 56.1,589.4 56.1,617.5 56.1,645.5 56.1,673.6 56.1,701.6 56.1,729.7 56.1,757.8 56.1,785.8 56.1,813.9 56.1,842 
					56.1,870 56.1,898.1 56.1,926.2 56.1,954.2 56.1,982.3 56.1,1010.4 56.1,1038.4 56.1,1066.5 56.1,1094.6 56.1,1122.6 
					56.1,1150.7 56.1,1178.8 56.1,1206.8 56.1,1234.9 56.1,1263 56.1,1291 56.1,1319.1 56.1,1347.2 56.1,1375.2 56.1,1403.3 
					56.1,1431.4 56.1,1459.4 56.1,1487.5 56.1,1515.6 56.1,1543.6 56.1,1571.7 56.1,1599.8 56.1,1627.8 56.1,1655.9 56.1,1683.9 
					56.1,1712 56.1,1740.1 56.1,1768.2 56.1,1796.2 56.1,1824.3 56.1,1852.3 56.1,1880.4 56.1,1908.5 56.1,1936.5 56.1,1964.6 
					56.1,1992.7 56.1,2020.7 56.1,2048.8 56.1,2076.9 56.1,2104.9 56.1,2133 56.1,2161.1 56.1,2189.1 56.1,2217.2 56.1,2245.3 
					56.1,2273.3 56.1,2301.4 56.1,2329.5 56.1,2357.5 56.1,2385.6 56.1,2413.7 56.1,2441.7 56.1,2469.8 56.1,2497.9 56.1,2525.9 
					56.1,2554 56.1,2582.1 56.1,2610.1 56.1,2638.2 56.1,2666.3 56.1,2694.3 56.1,2722.4 56.1,2750.4 56.1,2778.5 56.1,2806.6 
					56.1,2834.6 				"/>
				<polyline class="st5" points="28.1,0 28.1,28.1 28.1,56.1 28.1,84.2 28.1,112.3 28.1,140.3 28.1,168.4 28.1,196.5 28.1,224.5 
					28.1,252.6 28.1,280.7 28.1,308.7 28.1,336.8 28.1,364.9 28.1,392.9 28.1,421 28.1,449 28.1,477.1 28.1,505.2 28.1,533.3 
					28.1,561.3 28.1,589.4 28.1,617.5 28.1,645.5 28.1,673.6 28.1,701.6 28.1,729.7 28.1,757.8 28.1,785.8 28.1,813.9 28.1,842 
					28.1,870 28.1,898.1 28.1,926.2 28.1,954.2 28.1,982.3 28.1,1010.4 28.1,1038.4 28.1,1066.5 28.1,1094.6 28.1,1122.6 
					28.1,1150.7 28.1,1178.8 28.1,1206.8 28.1,1234.9 28.1,1263 28.1,1291 28.1,1319.1 28.1,1347.2 28.1,1375.2 28.1,1403.3 
					28.1,1431.4 28.1,1459.4 28.1,1487.5 28.1,1515.6 28.1,1543.6 28.1,1571.7 28.1,1599.8 28.1,1627.8 28.1,1655.9 28.1,1683.9 
					28.1,1712 28.1,1740.1 28.1,1768.2 28.1,1796.2 28.1,1824.3 28.1,1852.3 28.1,1880.4 28.1,1908.5 28.1,1936.5 28.1,1964.6 
					28.1,1992.7 28.1,2020.7 28.1,2048.8 28.1,2076.9 28.1,2104.9 28.1,2133 28.1,2161.1 28.1,2189.1 28.1,2217.2 28.1,2245.3 
					28.1,2273.3 28.1,2301.4 28.1,2329.5 28.1,2357.5 28.1,2385.6 28.1,2413.7 28.1,2441.7 28.1,2469.8 28.1,2497.9 28.1,2525.9 
					28.1,2554 28.1,2582.1 28.1,2610.1 28.1,2638.2 28.1,2666.3 28.1,2694.3 28.1,2722.4 28.1,2750.4 28.1,2778.5 28.1,2806.6 
					28.1,2834.6 				"/>
			</g>
		</g>
	</g>
</g>
<g id="Layer_1_copy">
	<g>
		<polygon class="st6" points="144.2,424.9 172.3,424.9 200.3,424.9 200.3,396.8 200.3,368.7 200.3,340.7 200.3,312.6 172.3,312.6 
			144.2,312.6 116.1,312.6 88.1,312.6 88.1,340.7 88.1,368.7 88.1,396.8 88.1,424.9 116.1,424.9 		"/>
		<polygon class="st6" points="144.2,200.3 172.3,200.3 200.3,200.3 200.3,172.3 200.3,144.2 200.3,116.1 200.3,88.1 172.3,88.1 
			144.2,88.1 116.1,88.1 88.1,88.1 88.1,116.1 88.1,144.2 88.1,172.3 88.1,200.3 116.1,200.3 		"/>
		<polygon class="st6" points="368.7,88.1 340.7,88.1 312.6,88.1 312.6,116.1 312.6,144.2 312.6,172.3 312.6,200.3 340.7,200.3 
			368.7,200.3 396.8,200.3 424.9,200.3 424.9,172.3 424.9,144.2 424.9,116.1 424.9,88.1 396.8,88.1 		"/>
		<polygon class="st6" points="368.7,312.6 340.7,312.6 312.6,312.6 312.6,340.7 312.6,368.7 312.6,396.8 312.6,424.9 340.7,424.9 
			368.7,424.9 396.8,424.9 424.9,424.9 424.9,396.8 424.9,368.7 424.9,340.7 424.9,312.6 396.8,312.6 		"/>
		<path class="st7" d="M116.1,228.4h28.1h28.1h28.1h28.1v-28.1v-28.1v-28.1v-28.1V88.1V60h-28.1h-28.1h-28.1h-28.1H88.1H60v28.1
			v28.1v28.1v28.1v28.1v28.1h28.1H116.1z M88.1,172.3v-28.1v-28.1V88.1h28.1h28.1h28.1h28.1v28.1v28.1v28.1v28.1h-28.1h-28.1h-28.1
			H88.1V172.3z"/>
		<path class="st7" d="M116.1,452.9h28.1h28.1h28.1h28.1v-28.1v-28.1v-28.1v-28.1v-28.1v-28.1h-28.1h-28.1h-28.1h-28.1H88.1H60v28.1
			v28.1v28.1v28.1v28.1v28.1h28.1H116.1z M88.1,396.8v-28.1v-28.1v-28.1h28.1h28.1h28.1h28.1v28.1v28.1v28.1v28.1h-28.1h-28.1h-28.1
			H88.1V396.8z"/>
		<path class="st7" d="M396.8,284.5h-28.1h-28.1h-28.1h-28.1v28.1v28.1v28.1v28.1v28.1v28.1h28.1h28.1h28.1h28.1h28.1h28.1v-28.1
			v-28.1v-28.1v-28.1v-28.1v-28.1h-28.1H396.8z M424.9,340.7v28.1v28.1v28.1h-28.1h-28.1h-28.1h-28.1v-28.1v-28.1v-28.1v-28.1h28.1
			h28.1h28.1h28.1V340.7z"/>
		<path class="st7" d="M424.9,60h-28.1h-28.1h-28.1h-28.1h-28.1v28.1v28.1v28.1v28.1v28.1v28.1h28.1h28.1h28.1h28.1h28.1h28.1v-28.1
			v-28.1v-28.1v-28.1V88.1V60H424.9z M424.9,116.1v28.1v28.1v28.1h-28.1h-28.1h-28.1h-28.1v-28.1v-28.1v-28.1V88.1h28.1h28.1h28.1
			h28.1V116.1z"/>
	</g>
</g>
</svg>
