<?xml version="1.0" encoding="utf-8"?>
<!-- Generator: Adobe Illustrator 16.0.0, SVG Export Plug-In . SVG Version: 6.00 Build 0)  -->
<!DOCTYPE svg PUBLIC "-//W3C//DTD SVG 1.1//EN" "http://www.w3.org/Graphics/SVG/1.1/DTD/svg11.dtd">
<svg version="1.1" id="Layer_14" xmlns="http://www.w3.org/2000/svg" xmlns:xlink="http://www.w3.org/1999/xlink" x="0px" y="0px"
	 width="1900px" height="900px" viewBox="0 0 1900 900" enable-background="new 0 0 1900 900" xml:space="preserve">
<title>pixelOslo_buss_grouped</title>
<g>
	<polygon fill="#52A1D9" points="109.001,816.258 103.55,816.258 98.1,816.258 92.649,816.258 92.649,821.709 92.649,827.159 
		92.649,832.611 98.1,832.611 103.55,832.611 109.001,832.611 114.452,832.611 119.902,832.611 119.902,827.159 119.902,821.709 
		119.902,816.258 114.452,816.258 	"/>
	<polygon fill="#52A1D9" points="49.058,821.709 49.058,816.258 43.606,816.258 38.155,816.258 32.706,816.258 27.254,816.258 
		21.804,816.258 16.354,816.258 10.903,816.258 5.451,816.258 5.451,821.709 5.451,827.159 5.451,832.611 10.903,832.611 
		16.354,832.611 21.804,832.611 27.254,832.611 32.706,832.611 38.155,832.611 43.606,832.611 49.058,832.611 49.058,827.159 	"/>
	<polygon fill="#303030" points="54.509,821.709 54.509,816.258 49.058,816.258 49.058,821.709 49.058,827.159 49.058,832.611 
		54.509,832.611 54.509,827.159 	"/>
	<polygon fill="#52A1D9" points="87.198,821.709 87.198,816.258 81.747,816.258 76.297,816.258 70.845,816.258 65.394,816.258 
		59.943,816.258 54.509,816.258 54.509,821.709 54.509,827.159 54.509,832.611 59.943,832.611 65.394,832.611 70.845,832.611 
		76.297,832.611 81.747,832.611 87.198,832.611 87.198,827.159 	"/>
	<polygon fill="#303030" points="92.649,821.709 92.649,816.258 87.198,816.258 87.198,821.709 87.198,827.159 87.198,832.611 
		92.649,832.611 92.649,827.159 	"/>
	<polygon fill="#52A1D9" points="299.748,816.258 294.296,816.258 288.848,816.258 288.848,821.709 288.848,827.159 
		288.848,832.611 288.848,838.063 294.296,838.063 299.748,838.063 305.198,838.063 310.65,838.063 310.65,832.611 310.65,827.159 
		310.65,821.709 310.65,816.258 305.198,816.258 	"/>
	<polygon fill="#303030" points="283.396,827.159 283.396,832.611 288.848,832.611 288.848,827.159 288.848,821.709 
		288.848,816.258 283.396,816.258 283.396,821.709 	"/>
	<polygon fill="#303030" points="196.198,827.159 196.198,832.611 201.649,832.611 201.649,827.159 201.649,821.709 
		201.649,816.258 196.198,816.258 196.198,821.709 	"/>
	<polygon fill="#52A1D9" points="201.649,827.159 201.649,832.611 207.101,832.611 212.551,832.611 218.003,832.611 
		223.453,832.611 228.903,832.611 234.354,832.611 239.805,832.611 239.805,827.159 239.805,821.709 239.805,816.258 
		234.354,816.258 228.903,816.258 223.453,816.258 218.003,816.258 212.551,816.258 207.101,816.258 201.649,816.258 
		201.649,821.709 	"/>
	<polygon fill="#52A1D9" points="163.493,827.159 163.493,832.611 168.943,832.611 174.396,832.611 179.847,832.611 
		185.298,832.611 190.747,832.611 196.198,832.611 196.198,827.159 196.198,821.709 196.198,816.258 190.747,816.258 
		185.298,816.258 179.847,816.258 174.396,816.258 168.943,816.258 163.493,816.258 163.493,821.709 	"/>
	<polygon fill="#303030" points="239.805,827.159 239.805,832.611 245.257,832.611 245.257,827.159 245.257,821.709 
		245.257,816.258 239.805,816.258 239.805,821.709 	"/>
	<polygon fill="#52A1D9" points="245.257,827.159 245.257,832.611 250.708,832.611 256.142,832.611 261.594,832.611 
		267.043,832.611 272.495,832.611 277.944,832.611 283.396,832.611 283.396,827.159 283.396,821.709 283.396,816.258 
		277.944,816.258 272.495,816.258 267.043,816.258 261.594,816.258 256.142,816.258 250.708,816.258 245.257,816.258 
		245.257,821.709 	"/>
	<polygon fill="#161616" points="54.509,848.963 54.509,843.511 49.058,843.511 43.606,843.511 43.606,848.963 38.155,848.963 
		38.155,854.414 38.155,859.865 43.606,859.865 43.606,865.3 49.058,865.3 54.509,865.3 54.509,859.865 59.943,859.865 
		59.943,854.414 59.943,848.963 	"/>
	<polygon fill="#AE1F23" points="119.902,843.511 119.902,838.063 119.902,832.611 114.452,832.611 109.001,832.611 103.55,832.611 
		98.1,832.611 92.649,832.611 87.198,832.611 81.747,832.611 76.297,832.611 70.845,832.611 65.394,832.611 59.943,832.611 
		54.509,832.611 49.058,832.611 43.606,832.611 38.155,832.611 32.706,832.611 27.254,832.611 21.804,832.611 16.354,832.611 
		10.903,832.611 5.451,832.611 5.451,827.159 5.451,821.709 5.451,816.258 10.903,816.258 16.354,816.258 21.804,816.258 
		27.254,816.258 32.706,816.258 38.155,816.258 43.606,816.258 49.058,816.258 54.509,816.258 59.943,816.258 65.394,816.258 
		70.845,816.258 76.297,816.258 81.747,816.258 87.198,816.258 92.649,816.258 98.1,816.258 103.55,816.258 109.001,816.258 
		114.452,816.258 119.902,816.258 119.902,810.809 119.902,805.356 114.452,805.356 109.001,805.356 103.55,805.356 98.1,805.356 
		92.649,805.356 87.198,805.356 81.747,805.356 76.297,805.356 70.845,805.356 65.394,805.356 59.943,805.356 54.509,805.356 
		49.058,805.356 43.606,805.356 38.155,805.356 32.706,805.356 27.254,805.356 27.254,799.905 21.804,799.905 16.354,799.905 
		10.903,799.905 5.451,799.905 0,799.905 0,805.356 0,810.809 0,816.258 0,821.709 0,827.159 0,832.611 0,838.063 0,843.511 
		0,848.963 0,854.414 5.451,854.414 10.903,854.414 16.354,854.414 21.804,854.414 27.254,854.414 32.706,854.414 38.155,854.414 
		38.155,848.963 43.606,848.963 43.606,843.511 49.058,843.511 54.509,843.511 54.509,848.963 59.943,848.963 59.943,854.414 
		65.394,854.414 70.845,854.414 76.297,854.414 81.747,854.414 87.198,854.414 92.649,854.414 98.1,854.414 103.55,854.414 
		109.001,854.414 114.452,854.414 119.902,854.414 119.902,848.963 	"/>
	<polygon fill="#303030" points="125.353,843.511 125.353,838.063 125.353,832.611 125.353,827.159 125.353,821.709 
		125.353,816.258 125.353,810.809 125.353,805.356 119.902,805.356 119.902,810.809 119.902,816.258 119.902,821.709 
		119.902,827.159 119.902,832.611 119.902,838.063 119.902,843.511 119.902,848.963 119.902,854.414 125.353,854.414 
		125.353,848.963 	"/>
	<polygon fill="#515251" points="130.805,843.511 130.805,838.063 130.805,832.611 130.805,827.159 130.805,821.709 
		130.805,816.258 130.805,810.809 130.805,805.356 125.353,805.356 125.353,810.809 125.353,816.258 125.353,821.709 
		125.353,827.159 125.353,832.611 125.353,838.063 125.353,843.511 125.353,848.963 125.353,854.414 130.805,854.414 
		130.805,848.963 	"/>
	<polygon fill="#303030" points="136.255,843.511 136.255,838.063 136.255,832.611 136.255,827.159 136.255,821.709 
		136.255,816.258 136.255,810.809 136.255,805.356 130.805,805.356 130.805,810.809 130.805,816.258 130.805,821.709 
		130.805,827.159 130.805,832.611 130.805,838.063 130.805,843.511 130.805,848.963 130.805,854.414 136.255,854.414 
		136.255,848.963 	"/>
	<polygon fill="#515251" points="141.707,843.511 141.707,838.063 141.707,832.611 141.707,827.159 141.707,821.709 
		141.707,816.258 141.707,810.809 141.707,805.356 136.255,805.356 136.255,810.809 136.255,816.258 136.255,821.709 
		136.255,827.159 136.255,832.611 136.255,838.063 136.255,843.511 136.255,848.963 136.255,854.414 141.707,854.414 
		141.707,848.963 	"/>
	<polygon fill="#303030" points="147.157,843.511 147.157,838.063 147.157,832.611 147.157,827.159 147.157,821.709 
		147.157,816.258 147.157,810.809 147.157,805.356 141.707,805.356 141.707,810.809 141.707,816.258 141.707,821.709 
		141.707,827.159 141.707,832.611 141.707,838.063 141.707,843.511 141.707,848.963 141.707,854.414 147.157,854.414 
		147.157,848.963 	"/>
	<polygon fill="#515251" points="152.593,843.511 152.593,838.063 152.593,832.611 152.593,827.159 152.593,821.709 
		152.593,816.258 152.593,810.809 152.593,805.356 147.157,805.356 147.157,810.809 147.157,816.258 147.157,821.709 
		147.157,827.159 147.157,832.611 147.157,838.063 147.157,843.511 147.157,848.963 147.157,854.414 152.593,854.414 
		152.593,848.963 	"/>
	<polygon fill="#303030" points="158.059,843.511 158.059,838.063 158.059,832.611 158.059,827.159 158.059,821.709 
		158.059,816.258 158.059,810.809 158.059,805.356 152.593,805.356 152.593,810.809 152.593,816.258 152.593,821.709 
		152.593,827.159 152.593,832.611 152.593,838.063 152.593,843.511 152.593,848.963 152.593,854.414 158.059,854.414 
		158.059,848.963 	"/>
	<polygon fill="#515251" points="163.493,843.511 163.493,838.063 163.493,832.611 163.493,827.159 163.493,821.709 
		163.493,816.258 163.493,810.809 163.493,805.356 158.059,805.356 158.059,810.809 158.059,816.258 158.059,821.709 
		158.059,827.159 158.059,832.611 158.059,838.063 158.059,843.511 158.059,848.963 158.059,854.414 163.493,854.414 
		163.493,848.963 	"/>
	<polygon fill="#161616" points="190.747,848.963 190.747,843.511 185.298,843.511 179.847,843.511 179.847,848.963 
		174.396,848.963 174.396,854.414 174.396,859.865 179.847,859.865 179.847,865.3 185.298,865.3 190.747,865.3 190.747,859.865 
		196.198,859.865 196.198,854.414 196.198,848.963 	"/>
	<polygon fill="#161616" points="277.944,848.963 277.944,843.511 272.495,843.511 267.043,843.511 267.043,848.963 
		261.594,848.963 261.594,854.414 261.594,859.865 267.043,859.865 267.043,865.3 272.495,865.3 277.944,865.3 277.944,859.865 
		283.396,859.865 283.396,854.414 283.396,848.963 	"/>
	<polygon fill="#AE1F23" points="299.748,838.063 294.296,838.063 288.848,838.063 288.848,832.611 283.396,832.611 
		277.944,832.611 272.495,832.611 267.043,832.611 261.594,832.611 256.142,832.611 250.708,832.611 245.257,832.611 
		239.805,832.611 234.354,832.611 228.903,832.611 223.453,832.611 218.003,832.611 212.551,832.611 207.101,832.611 
		201.649,832.611 196.198,832.611 190.747,832.611 185.298,832.611 179.847,832.611 174.396,832.611 168.943,832.611 
		163.493,832.611 163.493,838.063 163.493,843.511 163.493,848.963 163.493,854.414 168.943,854.414 174.396,854.414 
		174.396,848.963 179.847,848.963 179.847,843.511 185.298,843.511 190.747,843.511 190.747,848.963 196.198,848.963 
		196.198,854.414 201.649,854.414 207.101,854.414 212.551,854.414 218.003,854.414 223.453,854.414 228.903,854.414 
		234.354,854.414 239.805,854.414 245.257,854.414 250.708,854.414 256.142,854.414 261.594,854.414 261.594,848.963 
		267.043,848.963 267.043,843.511 272.495,843.511 277.944,843.511 277.944,848.963 283.396,848.963 283.396,854.414 
		288.848,854.414 294.296,854.414 299.748,854.414 305.198,854.414 310.65,854.414 310.65,848.963 310.65,843.511 310.65,838.063 
		305.198,838.063 	"/>
	<polygon fill="#AE1F23" points="305.198,810.809 305.198,805.356 299.748,805.356 294.296,805.356 288.848,805.356 
		283.396,805.356 277.944,805.356 272.495,805.356 267.043,805.356 261.594,805.356 256.142,805.356 250.708,805.356 
		245.257,805.356 239.805,805.356 234.354,805.356 228.903,805.356 223.453,805.356 218.003,805.356 212.551,805.356 
		207.101,805.356 201.649,805.356 196.198,805.356 190.747,805.356 185.298,805.356 179.847,805.356 174.396,805.356 
		168.943,805.356 163.493,805.356 163.493,810.809 163.493,816.258 168.943,816.258 174.396,816.258 179.847,816.258 
		185.298,816.258 190.747,816.258 196.198,816.258 201.649,816.258 207.101,816.258 212.551,816.258 218.003,816.258 
		223.453,816.258 228.903,816.258 234.354,816.258 239.805,816.258 245.257,816.258 250.708,816.258 256.142,816.258 
		261.594,816.258 267.043,816.258 272.495,816.258 277.944,816.258 283.396,816.258 288.848,816.258 294.296,816.258 
		299.748,816.258 305.198,816.258 310.65,816.258 310.65,810.809 	"/>
</g>
</svg>
