<?xml version="1.0" encoding="utf-8"?>
<!-- Generator: Adobe Illustrator 16.0.0, SVG Export Plug-In . SVG Version: 6.00 Build 0)  -->
<!DOCTYPE svg PUBLIC "-//W3C//DTD SVG 1.1//EN" "http://www.w3.org/Graphics/SVG/1.1/DTD/svg11.dtd">
<svg version="1.1" id="Layer_1" xmlns="http://www.w3.org/2000/svg" xmlns:xlink="http://www.w3.org/1999/xlink" x="0px" y="0px"
	 width="162.737px" height="49.095px" viewBox="0 0 162.737 49.095" enable-background="new 0 0 162.737 49.095"
	 xml:space="preserve">
<g>
	<polygon fill="#F3AD68" points="87.831,30.99 85.263,30.99 85.263,28.422 82.652,28.422 82.652,25.811 82.652,23.242 
		82.652,20.674 80.084,20.674 80.084,18.063 77.516,18.063 77.516,15.495 74.905,15.495 74.905,12.927 72.337,12.927 69.769,12.927 
		67.158,12.927 67.158,15.495 64.589,15.495 64.589,18.063 61.979,18.063 61.979,20.674 59.411,20.674 56.842,20.674 56.842,18.063 
		54.231,18.063 54.231,15.495 51.663,15.495 49.095,15.495 49.095,12.927 46.484,12.927 43.916,12.927 41.347,12.927 41.347,15.495 
		38.737,15.495 36.168,15.495 36.168,18.063 33.558,18.063 33.558,20.674 30.989,20.674 30.989,18.063 28.421,18.063 25.811,18.063 
		23.242,18.063 20.673,18.063 20.673,20.674 18.063,20.674 15.495,20.674 12.926,20.674 10.315,20.674 10.315,23.242 7.747,23.242 
		5.179,23.242 2.568,23.242 2.568,25.811 2.568,28.422 0,28.422 0,30.99 2.568,30.99 5.179,30.99 5.179,28.422 5.179,25.811 
		7.747,25.811 10.315,25.811 10.315,28.422 12.926,28.422 12.926,25.811 15.495,25.811 15.495,23.242 18.063,23.242 20.673,23.242 
		23.242,23.242 23.242,20.674 25.811,20.674 28.421,20.674 28.421,23.242 30.989,23.242 30.989,25.811 33.558,25.811 36.168,25.811 
		36.168,23.242 36.168,20.674 38.737,20.674 38.737,18.063 41.347,18.063 43.916,18.063 43.916,15.495 46.484,15.495 46.484,18.063 
		49.095,18.063 51.663,18.063 51.663,20.674 54.231,20.674 54.231,23.242 56.842,23.242 56.842,25.811 59.411,25.811 59.411,28.422 
		61.979,28.422 61.979,25.811 61.979,23.242 64.589,23.242 64.589,20.674 67.158,20.674 67.158,18.063 69.769,18.063 69.769,15.495 
		72.337,15.495 72.337,18.063 74.905,18.063 74.905,20.674 77.516,20.674 77.516,23.242 80.084,23.242 80.084,25.811 80.084,28.422 
		80.084,30.99 82.652,30.99 82.652,33.559 85.263,33.559 87.831,33.559 90.399,33.559 90.399,30.99 	"/>
	<polygon fill="#D37730" points="85.263,33.559 82.652,33.559 82.652,36.169 80.084,36.169 77.516,36.169 74.905,36.169 
		72.337,36.169 69.769,36.169 69.769,38.737 72.337,38.737 74.905,38.737 77.516,38.737 80.084,38.737 82.652,38.737 85.263,38.737 
		87.831,38.737 87.831,36.169 90.399,36.169 90.399,33.559 87.831,33.559 	"/>
	<polygon fill="#F19849" points="72.337,36.169 74.905,36.169 77.516,36.169 80.084,36.169 82.652,36.169 82.652,33.559 
		82.652,30.99 80.084,30.99 80.084,28.422 80.084,25.811 80.084,23.242 77.516,23.242 77.516,20.674 74.905,20.674 74.905,18.063 
		72.337,18.063 72.337,15.495 69.769,15.495 69.769,18.063 67.158,18.063 67.158,20.674 64.589,20.674 64.589,23.242 61.979,23.242 
		61.979,25.811 61.979,28.422 59.411,28.422 59.411,25.811 56.842,25.811 56.842,23.242 54.231,23.242 54.231,20.674 51.663,20.674 
		51.663,18.063 49.095,18.063 46.484,18.063 46.484,15.495 43.916,15.495 43.916,18.063 41.347,18.063 38.737,18.063 38.737,20.674 
		36.168,20.674 36.168,23.242 36.168,25.811 33.558,25.811 30.989,25.811 30.989,23.242 28.421,23.242 28.421,20.674 25.811,20.674 
		23.242,20.674 23.242,23.242 20.673,23.242 18.063,23.242 15.495,23.242 15.495,25.811 12.926,25.811 12.926,28.422 10.315,28.422 
		10.315,25.811 7.747,25.811 5.179,25.811 5.179,28.422 5.179,30.99 2.568,30.99 0,30.99 0,33.559 2.568,33.559 2.568,36.169 
		2.568,38.737 5.179,38.737 7.747,38.737 7.747,41.348 10.315,41.348 12.926,41.348 15.495,41.348 18.063,41.348 20.673,41.348 
		20.673,38.737 23.242,38.737 25.811,38.737 28.421,38.737 30.989,38.737 33.558,38.737 33.558,41.348 36.168,41.348 38.737,41.348 
		41.347,41.348 43.916,41.348 46.484,41.348 49.095,41.348 49.095,38.737 51.663,38.737 54.231,38.737 56.842,38.737 59.411,38.737 
		61.979,38.737 64.589,38.737 67.158,38.737 69.769,38.737 69.769,36.169 	"/>
	<polygon fill="#D37730" points="64.589,38.737 61.979,38.737 59.411,38.737 56.842,38.737 54.231,38.737 51.663,38.737 
		49.095,38.737 49.095,41.348 46.484,41.348 43.916,41.348 41.347,41.348 38.737,41.348 36.168,41.348 33.558,41.348 33.558,38.737 
		30.989,38.737 28.421,38.737 25.811,38.737 23.242,38.737 20.673,38.737 20.673,41.348 18.063,41.348 15.495,41.348 12.926,41.348 
		10.315,41.348 7.747,41.348 7.747,38.737 5.179,38.737 2.568,38.737 2.568,41.348 5.179,41.348 5.179,43.916 7.747,43.916 
		10.315,43.916 10.315,46.484 12.926,46.484 15.495,46.484 18.063,46.484 18.063,43.916 20.673,43.916 23.242,43.916 25.811,43.916 
		25.811,46.484 28.421,46.484 30.989,46.484 33.558,46.484 36.168,46.484 36.168,43.916 38.737,43.916 41.347,43.916 43.916,43.916 
		46.484,43.916 49.095,43.916 51.663,43.916 54.231,43.916 56.842,43.916 59.411,43.916 61.979,43.916 64.589,43.916 64.589,41.348 
		67.158,41.348 69.769,41.348 69.769,38.737 67.158,38.737 	"/>
</g>
<g>
	<polygon fill="#F3AD68" points="160.169,23.242 160.169,20.674 160.169,18.063 157.601,18.063 157.601,15.495 154.989,15.495 
		154.989,12.927 152.421,12.927 152.421,10.316 149.853,10.316 147.242,10.316 144.673,10.316 142.104,10.316 142.104,7.748 
		142.104,5.179 139.495,5.179 136.927,5.179 134.358,5.179 131.747,5.179 131.747,7.748 129.179,7.748 126.568,7.748 124,7.748 
		124,5.179 124,2.569 121.432,2.569 121.432,0 118.821,0 116.253,0 113.685,0 113.685,2.569 111.073,2.569 111.073,5.179 
		108.505,5.179 105.937,5.179 103.326,5.179 103.326,2.569 100.758,2.569 98.147,2.569 95.579,2.569 93.011,2.569 93.011,5.179 
		93.011,7.748 90.399,7.748 87.831,7.748 85.263,7.748 82.652,7.748 80.084,7.748 80.084,10.316 77.516,10.316 77.516,12.927 
		77.516,15.495 74.905,15.495 72.337,15.495 72.337,18.063 69.769,18.063 67.158,18.063 64.589,18.063 61.979,18.063 61.979,20.674 
		59.411,20.674 59.411,23.242 56.842,23.242 56.842,25.811 56.842,28.422 59.411,28.422 59.411,25.811 61.979,25.811 61.979,23.242 
		64.589,23.242 64.589,20.674 67.158,20.674 69.769,20.674 72.337,20.674 74.905,20.674 77.516,20.674 77.516,23.242 80.084,23.242 
		82.652,23.242 82.652,20.674 82.652,18.063 80.084,18.063 80.084,15.495 82.652,15.495 82.652,12.927 82.652,10.316 85.263,10.316 
		87.831,10.316 90.399,10.316 93.011,10.316 95.579,10.316 95.579,7.748 98.147,7.748 100.758,7.748 103.326,7.748 103.326,10.316 
		103.326,12.927 105.937,12.927 108.505,12.927 108.505,10.316 111.073,10.316 113.685,10.316 113.685,7.748 116.253,7.748 
		116.253,10.316 118.821,10.316 121.432,10.316 124,10.316 124,12.927 124,15.495 126.568,15.495 129.179,15.495 129.179,12.927 
		131.747,12.927 131.747,10.316 134.358,10.316 136.927,10.316 139.495,10.316 139.495,12.927 142.104,12.927 144.673,12.927 
		147.242,12.927 149.853,12.927 149.853,15.495 152.421,15.495 152.421,18.063 154.989,18.063 154.989,20.674 157.601,20.674 
		157.601,23.242 157.601,25.811 160.169,25.811 160.169,28.422 160.169,30.99 162.737,30.99 162.737,28.422 162.737,25.811 
		162.737,23.242 	"/>
	<polygon fill="#F19849" points="160.169,28.422 160.169,25.811 157.601,25.811 157.601,23.242 157.601,20.674 154.989,20.674 
		154.989,18.063 152.421,18.063 152.421,15.495 149.853,15.495 149.853,12.927 147.242,12.927 144.673,12.927 142.104,12.927 
		139.495,12.927 139.495,10.316 136.927,10.316 134.358,10.316 131.747,10.316 131.747,12.927 129.179,12.927 129.179,15.495 
		126.568,15.495 124,15.495 124,12.927 124,10.316 121.432,10.316 118.821,10.316 116.253,10.316 116.253,7.748 113.685,7.748 
		113.685,10.316 111.073,10.316 108.505,10.316 108.505,12.927 105.937,12.927 103.326,12.927 103.326,10.316 103.326,7.748 
		100.758,7.748 98.147,7.748 95.579,7.748 95.579,10.316 93.011,10.316 90.399,10.316 87.831,10.316 85.263,10.316 82.652,10.316 
		82.652,12.927 82.652,15.495 80.084,15.495 80.084,18.063 82.652,18.063 82.652,20.674 82.652,23.242 80.084,23.242 77.516,23.242 
		77.516,20.674 74.905,20.674 72.337,20.674 69.769,20.674 67.158,20.674 64.589,20.674 64.589,23.242 61.979,23.242 61.979,25.811 
		59.411,25.811 59.411,28.422 56.842,28.422 56.842,30.99 56.842,33.559 56.842,36.169 56.842,38.737 59.411,38.737 61.979,38.737 
		64.589,38.737 67.158,38.737 67.158,41.348 69.769,41.348 72.337,41.348 72.337,43.916 74.905,43.916 77.516,43.916 80.084,43.916 
		80.084,41.348 82.652,41.348 85.263,41.348 87.831,41.348 90.399,41.348 93.011,41.348 95.579,41.348 98.147,41.348 98.147,43.916 
		100.758,43.916 103.326,43.916 105.937,43.916 108.505,43.916 111.073,43.916 113.685,43.916 116.253,43.916 118.821,43.916 
		121.432,43.916 121.432,41.348 124,41.348 126.568,41.348 129.179,41.348 131.747,41.348 131.747,38.737 134.358,38.737 
		136.927,38.737 139.495,38.737 142.104,38.737 144.673,38.737 147.242,38.737 147.242,36.169 149.853,36.169 149.853,33.559 
		152.421,33.559 154.989,33.559 157.601,33.559 160.169,33.559 162.737,33.559 162.737,30.99 160.169,30.99 	"/>
	<polygon fill="#D37730" points="152.421,33.559 149.853,33.559 149.853,36.169 147.242,36.169 147.242,38.737 144.673,38.737 
		142.104,38.737 139.495,38.737 136.927,38.737 134.358,38.737 131.747,38.737 131.747,41.348 129.179,41.348 126.568,41.348 
		124,41.348 121.432,41.348 121.432,43.916 118.821,43.916 116.253,43.916 113.685,43.916 111.073,43.916 108.505,43.916 
		105.937,43.916 103.326,43.916 100.758,43.916 98.147,43.916 98.147,41.348 95.579,41.348 93.011,41.348 90.399,41.348 
		87.831,41.348 85.263,41.348 82.652,41.348 80.084,41.348 80.084,43.916 77.516,43.916 74.905,43.916 72.337,43.916 72.337,41.348 
		69.769,41.348 67.158,41.348 67.158,38.737 64.589,38.737 61.979,38.737 59.411,38.737 59.411,41.348 61.979,41.348 61.979,43.916 
		64.589,43.916 67.158,43.916 69.769,43.916 69.769,46.484 72.337,46.484 74.905,46.484 77.516,46.484 80.084,46.484 82.652,46.484 
		85.263,46.484 87.831,46.484 90.399,46.484 93.011,46.484 95.579,46.484 98.147,46.484 98.147,49.095 100.758,49.095 
		103.326,49.095 105.937,49.095 108.505,49.095 111.073,49.095 113.685,49.095 116.253,49.095 118.821,49.095 121.432,49.095 
		124,49.095 124,46.484 126.568,46.484 129.179,46.484 131.747,46.484 131.747,43.916 134.358,43.916 136.927,43.916 
		139.495,43.916 142.104,43.916 144.673,43.916 147.242,43.916 149.853,43.916 152.421,43.916 152.421,41.348 152.421,38.737 
		154.989,38.737 154.989,36.169 157.601,36.169 157.601,33.559 154.989,33.559 	"/>
</g>
</svg>
