<?xml version="1.0" encoding="utf-8"?>
<!-- Generator: Adobe Illustrator 16.0.0, SVG Export Plug-In . SVG Version: 6.00 Build 0)  -->
<!DOCTYPE svg PUBLIC "-//W3C//DTD SVG 1.1//EN" "http://www.w3.org/Graphics/SVG/1.1/DTD/svg11.dtd">
<svg version="1.1" id="Layer_1" xmlns="http://www.w3.org/2000/svg" xmlns:xlink="http://www.w3.org/1999/xlink" x="0px" y="0px"
	 width="178.947px" height="50.989px" viewBox="0 0 178.947 50.989" enable-background="new 0 0 178.947 50.989"
	 xml:space="preserve">
<g>
	<polygon fill="#F19849" points="2.568,30.989 2.568,28.421 5.179,28.421 5.179,25.853 7.747,25.853 7.747,23.242 7.747,20.674 
		10.358,20.674 12.926,20.674 12.926,23.242 15.495,23.242 18.105,23.242 18.105,25.853 20.674,25.853 20.674,23.242 20.674,20.674 
		20.674,18.105 20.674,15.495 20.674,12.926 23.242,12.926 23.242,10.358 25.853,10.358 28.421,10.358 30.989,10.358 33.6,10.358 
		36.168,10.358 38.779,10.358 38.779,7.747 41.347,7.747 43.916,7.747 46.526,7.747 49.095,7.747 49.095,10.358 51.663,10.358 
		51.663,12.926 54.273,12.926 56.842,12.926 56.842,10.358 59.41,10.358 59.41,7.747 62.021,7.747 62.021,10.358 64.589,10.358 
		67.2,10.358 69.769,10.358 72.337,10.358 74.947,10.358 77.516,10.358 77.516,12.926 77.516,15.495 80.084,15.495 80.084,18.105 
		80.084,20.674 82.695,20.674 85.263,20.674 85.263,18.105 87.832,18.105 90.441,18.105 93.01,18.105 93.01,20.674 95.579,20.674 
		98.189,20.674 98.189,23.242 100.758,23.242 103.368,23.242 103.368,25.853 105.937,25.853 108.505,25.853 108.505,28.421 
		111.115,28.421 113.685,28.421 113.685,30.989 113.685,33.601 111.115,33.601 108.505,33.601 108.505,36.169 105.937,36.169 
		105.937,38.778 103.368,38.778 100.758,38.778 98.189,38.778 98.189,41.347 95.579,41.347 95.579,38.778 93.01,38.778 
		90.441,38.778 87.832,38.778 85.263,38.778 85.263,41.347 82.695,41.347 80.084,41.347 77.516,41.347 77.516,38.778 74.947,38.778 
		72.337,38.778 69.769,38.778 67.2,38.778 64.589,38.778 64.589,41.347 62.021,41.347 59.41,41.347 56.842,41.347 54.273,41.347 
		51.663,41.347 49.095,41.347 46.526,41.347 43.916,41.347 41.347,41.347 41.347,38.778 38.779,38.778 36.168,38.778 36.168,41.347 
		33.6,41.347 30.989,41.347 28.421,41.347 28.421,38.778 25.853,38.778 23.242,38.778 20.674,38.778 18.105,38.778 15.495,38.778 
		12.926,38.778 10.358,38.778 7.747,38.778 5.179,38.778 2.568,38.778 0,38.778 0,36.169 0,33.601 0,30.989 	"/>
	<polygon fill="#D37730" points="7.747,38.778 10.358,38.778 12.926,38.778 15.495,38.778 18.105,38.778 20.674,38.778 
		23.242,38.778 25.853,38.778 28.421,38.778 28.421,41.347 30.989,41.347 33.6,41.347 36.168,41.347 36.168,38.778 38.779,38.778 
		41.347,38.778 41.347,41.347 43.916,41.347 46.526,41.347 49.095,41.347 51.663,41.347 54.273,41.347 56.842,41.347 59.41,41.347 
		62.021,41.347 64.589,41.347 64.589,38.778 67.2,38.778 69.769,38.778 72.337,38.778 74.947,38.778 77.516,38.778 77.516,41.347 
		80.084,41.347 82.695,41.347 85.263,41.347 85.263,38.778 87.832,38.778 90.441,38.778 93.01,38.778 95.579,38.778 95.579,41.347 
		98.189,41.347 98.189,38.778 100.758,38.778 103.368,38.778 105.937,38.778 105.937,36.169 108.505,36.169 108.505,33.601 
		111.115,33.601 113.685,33.601 113.685,36.169 111.115,36.169 111.115,38.778 108.505,38.778 108.505,41.347 105.937,41.347 
		105.937,43.915 103.368,43.915 100.758,43.915 98.189,43.915 95.579,43.915 93.01,43.915 90.441,43.915 87.832,43.915 
		85.263,43.915 82.695,43.915 80.084,43.915 80.084,46.526 77.516,46.526 74.947,46.526 72.337,46.526 69.769,46.526 67.2,46.526 
		64.589,46.526 62.021,46.526 59.41,46.526 59.41,43.915 56.842,43.915 54.273,43.915 51.663,43.915 49.095,43.915 49.095,46.526 
		46.526,46.526 43.916,46.526 41.347,46.526 38.779,46.526 36.168,46.526 33.6,46.526 33.6,49.095 30.989,49.095 28.421,49.095 
		28.421,46.526 25.853,46.526 25.853,43.915 23.242,43.915 23.242,41.347 20.674,41.347 18.105,41.347 15.495,41.347 12.926,41.347 
		10.358,41.347 7.747,41.347 5.179,41.347 2.568,41.347 2.568,38.778 5.179,38.778 	"/>
	<polygon fill="#F3AD68" points="108.505,28.421 108.505,25.853 105.937,25.853 103.368,25.853 103.368,23.242 100.758,23.242 
		98.189,23.242 98.189,20.674 95.579,20.674 93.01,20.674 93.01,18.105 90.441,18.105 87.832,18.105 85.263,18.105 85.263,20.674 
		82.695,20.674 80.084,20.674 80.084,18.105 80.084,15.495 77.516,15.495 77.516,12.926 77.516,10.358 74.947,10.358 72.337,10.358 
		69.769,10.358 67.2,10.358 64.589,10.358 62.021,10.358 62.021,7.747 59.41,7.747 59.41,10.358 56.842,10.358 56.842,12.926 
		54.273,12.926 51.663,12.926 51.663,10.358 49.095,10.358 49.095,7.747 46.526,7.747 43.916,7.747 41.347,7.747 38.779,7.747 
		38.779,10.358 36.168,10.358 33.6,10.358 30.989,10.358 28.421,10.358 25.853,10.358 23.242,10.358 23.242,12.926 20.674,12.926 
		20.674,15.495 20.674,18.105 20.674,20.674 20.674,23.242 20.674,25.853 18.105,25.853 18.105,23.242 15.495,23.242 12.926,23.242 
		12.926,20.674 10.358,20.674 7.747,20.674 7.747,23.242 7.747,25.853 5.179,25.853 5.179,28.421 2.568,28.421 2.568,25.853 
		2.568,23.242 5.179,23.242 5.179,20.674 5.179,18.105 7.747,18.105 10.358,18.105 10.358,15.495 12.926,15.495 12.926,18.105 
		15.495,18.105 15.495,15.495 18.105,15.495 18.105,12.926 18.105,10.358 20.674,10.358 20.674,7.747 23.242,7.747 25.853,7.747 
		28.421,7.747 30.989,7.747 33.6,7.747 36.168,7.747 36.168,5.179 36.168,2.61 38.779,2.61 41.347,2.61 41.347,0 43.916,0 46.526,0 
		49.095,0 49.095,2.61 51.663,2.61 51.663,5.179 54.273,5.179 56.842,5.179 59.41,5.179 59.41,2.61 62.021,2.61 62.021,0 64.589,0 
		67.2,0 67.2,2.61 69.769,2.61 69.769,5.179 72.337,5.179 74.947,5.179 77.516,5.179 77.516,7.747 80.084,7.747 80.084,10.358 
		80.084,12.926 82.695,12.926 85.263,12.926 85.263,15.495 87.832,15.495 90.441,15.495 93.01,15.495 95.579,15.495 95.579,18.105 
		98.189,18.105 100.758,18.105 100.758,20.674 103.368,20.674 105.937,20.674 105.937,23.242 108.505,23.242 111.115,23.242 
		111.115,25.853 113.685,25.853 113.685,28.421 111.115,28.421 	"/>
</g>
<g>
	<polygon fill="#F3AD68" points="62.695,40.674 62.695,38.063 62.695,35.495 65.263,35.495 67.874,35.495 70.442,35.495 
		70.442,32.927 70.442,30.315 67.874,30.315 67.874,27.747 67.874,25.179 67.874,22.568 70.442,22.568 73.01,22.568 75.621,22.568 
		75.621,20 78.189,20 78.189,17.39 78.189,14.821 80.758,14.821 83.368,14.821 83.368,17.39 85.937,17.39 88.505,17.39 
		88.505,14.821 91.115,14.821 93.684,14.821 96.252,14.821 98.863,14.821 101.432,14.821 104.042,14.821 106.61,14.821 
		106.61,12.252 109.179,12.252 111.789,12.252 114.357,12.252 114.357,14.821 116.926,14.821 119.537,14.821 122.105,14.821 
		122.105,17.39 124.674,17.39 124.674,14.821 127.284,14.821 127.284,12.252 129.853,12.252 132.463,12.252 135.031,12.252 
		137.6,12.252 137.6,14.821 140.21,14.821 142.779,14.821 145.348,14.821 145.348,12.252 147.958,12.252 150.526,12.252 
		150.526,14.821 153.095,14.821 155.705,14.821 155.705,17.39 155.705,20 158.273,20 160.884,20 163.452,20 166.021,20 
		166.021,22.568 168.632,22.568 168.632,25.179 171.2,25.179 171.2,27.747 173.769,27.747 173.769,30.315 176.379,30.315 
		176.379,32.927 178.947,32.927 178.947,35.495 178.947,38.063 176.379,38.063 176.379,35.495 173.769,35.495 173.769,32.927 
		171.2,32.927 171.2,30.315 168.632,30.315 168.632,27.747 166.021,27.747 166.021,25.179 163.452,25.179 160.884,25.179 
		158.273,25.179 155.705,25.179 155.705,27.747 153.095,27.747 153.095,25.179 153.095,22.568 150.526,22.568 150.526,20 
		147.958,20 145.348,20 145.348,22.568 142.779,22.568 142.779,25.179 140.21,25.179 140.21,22.568 140.21,20 137.6,20 135.031,20 
		132.463,20 129.853,20 127.284,20 127.284,22.568 124.674,22.568 124.674,25.179 122.105,25.179 119.537,25.179 119.537,22.568 
		119.537,20 116.926,20 114.357,20 111.789,20 109.179,20 106.61,20 104.042,20 101.432,20 98.863,20 98.863,22.568 96.252,22.568 
		93.684,22.568 91.115,22.568 88.505,22.568 88.505,25.179 88.505,27.747 85.937,27.747 85.937,25.179 83.368,25.179 80.758,25.179 
		80.758,22.568 78.189,22.568 78.189,25.179 75.621,25.179 73.01,25.179 73.01,27.747 73.01,30.315 73.01,32.927 73.01,35.495 
		73.01,38.063 70.442,38.063 67.874,38.063 65.263,38.063 65.263,40.674 65.263,43.242 62.695,43.242 62.695,45.811 62.695,48.421 
		60.084,48.421 60.084,45.811 60.084,43.242 60.084,40.674 	"/>
	<polygon fill="#D37730" points="65.263,45.811 67.874,45.811 70.442,45.811 73.01,45.811 75.621,45.811 78.189,45.811 
		80.758,45.811 80.758,43.242 83.368,43.242 85.937,43.242 88.505,43.242 91.115,43.242 93.684,43.242 96.252,43.242 98.863,43.242 
		101.432,43.242 101.432,40.674 104.042,40.674 106.61,40.674 109.179,40.674 111.789,40.674 114.357,40.674 116.926,40.674 
		116.926,43.242 119.537,43.242 122.105,43.242 124.674,43.242 127.284,43.242 129.853,43.242 132.463,43.242 135.031,43.242 
		137.6,43.242 140.21,43.242 142.779,43.242 145.348,43.242 147.958,43.242 147.958,40.674 150.526,40.674 153.095,40.674 
		155.705,40.674 158.273,40.674 160.884,40.674 160.884,43.242 163.452,43.242 166.021,43.242 168.632,43.242 171.2,43.242 
		173.769,43.242 176.379,43.242 176.379,45.811 173.769,45.811 173.769,48.421 171.2,48.421 168.632,48.421 166.021,48.421 
		163.452,48.421 160.884,48.421 158.273,48.421 155.705,48.421 153.095,48.421 150.526,48.421 147.958,48.421 145.348,48.421 
		142.779,48.421 142.779,45.811 140.21,45.811 137.6,45.811 135.031,45.811 132.463,45.811 129.853,45.811 127.284,45.811 
		127.284,48.421 124.674,48.421 122.105,48.421 119.537,48.421 116.926,48.421 114.357,48.421 111.789,48.421 109.179,48.421 
		106.61,48.421 104.042,48.421 101.432,48.421 101.432,45.811 98.863,45.811 98.863,48.421 96.252,48.421 93.684,48.421 
		91.115,48.421 88.505,48.421 85.937,48.421 85.937,45.811 83.368,45.811 83.368,48.421 80.758,48.421 78.189,48.421 75.621,48.421 
		73.01,48.421 73.01,50.989 70.442,50.989 67.874,50.989 65.263,50.989 62.695,50.989 62.695,48.421 62.695,45.811 	"/>
	<polygon fill="#F19849" points="171.2,43.242 168.632,43.242 166.021,43.242 163.452,43.242 160.884,43.242 160.884,40.674 
		158.273,40.674 155.705,40.674 153.095,40.674 150.526,40.674 147.958,40.674 147.958,43.242 145.348,43.242 142.779,43.242 
		140.21,43.242 137.6,43.242 135.031,43.242 132.463,43.242 129.853,43.242 127.284,43.242 124.674,43.242 122.105,43.242 
		119.537,43.242 116.926,43.242 116.926,40.674 114.357,40.674 111.789,40.674 109.179,40.674 106.61,40.674 104.042,40.674 
		101.432,40.674 101.432,43.242 98.863,43.242 96.252,43.242 93.684,43.242 91.115,43.242 88.505,43.242 85.937,43.242 
		83.368,43.242 80.758,43.242 80.758,45.811 78.189,45.811 75.621,45.811 73.01,45.811 70.442,45.811 67.874,45.811 65.263,45.811 
		62.695,45.811 62.695,43.242 65.263,43.242 65.263,40.674 65.263,38.063 67.874,38.063 70.442,38.063 73.01,38.063 73.01,35.495 
		73.01,32.927 73.01,30.315 73.01,27.747 73.01,25.179 75.621,25.179 78.189,25.179 78.189,22.568 80.758,22.568 80.758,25.179 
		83.368,25.179 85.937,25.179 85.937,27.747 88.505,27.747 88.505,25.179 88.505,22.568 91.115,22.568 93.684,22.568 96.252,22.568 
		98.863,22.568 98.863,20 101.432,20 104.042,20 106.61,20 109.179,20 111.789,20 114.357,20 116.926,20 119.537,20 119.537,22.568 
		119.537,25.179 122.105,25.179 124.674,25.179 124.674,22.568 127.284,22.568 127.284,20 129.853,20 132.463,20 135.031,20 
		137.6,20 140.21,20 140.21,22.568 140.21,25.179 142.779,25.179 142.779,22.568 145.348,22.568 145.348,20 147.958,20 150.526,20 
		150.526,22.568 153.095,22.568 153.095,25.179 153.095,27.747 155.705,27.747 155.705,25.179 158.273,25.179 160.884,25.179 
		163.452,25.179 166.021,25.179 166.021,27.747 168.632,27.747 168.632,30.315 171.2,30.315 171.2,32.927 173.769,32.927 
		173.769,35.495 176.379,35.495 176.379,38.063 178.947,38.063 178.947,40.674 176.379,40.674 176.379,43.242 173.769,43.242 	"/>
</g>
</svg>
