<?xml version="1.0" encoding="utf-8"?>
<!-- Generator: Adobe Illustrator 16.0.0, SVG Export Plug-In . SVG Version: 6.00 Build 0)  -->
<!DOCTYPE svg PUBLIC "-//W3C//DTD SVG 1.1//EN" "http://www.w3.org/Graphics/SVG/1.1/DTD/svg11.dtd">
<svg version="1.1" id="Layer_1" xmlns="http://www.w3.org/2000/svg" xmlns:xlink="http://www.w3.org/1999/xlink" x="0px" y="0px"
	 width="179.452px" height="53.222px" viewBox="0 0 179.452 53.222" enable-background="new 0 0 179.452 53.222"
	 xml:space="preserve">
<g>
	<polygon fill="#F3AD68" points="58.021,32.589 58.021,29.979 60.631,29.979 63.2,29.979 63.2,27.411 65.769,27.411 68.379,27.411 
		70.947,27.411 73.558,27.411 76.126,27.411 76.126,24.8 78.695,24.8 78.695,22.231 81.305,22.231 81.305,19.663 83.874,19.663 
		83.874,17.053 86.442,17.053 86.442,14.484 86.442,11.916 89.053,11.916 91.621,11.916 94.189,11.916 94.189,14.484 96.8,14.484 
		99.368,14.484 101.937,14.484 101.937,11.916 101.937,9.305 104.548,9.305 104.548,6.737 107.116,6.737 109.726,6.737 
		112.294,6.737 112.294,9.305 114.863,9.305 114.863,6.737 114.863,4.168 117.474,4.168 120.042,4.168 120.042,6.737 122.61,6.737 
		122.61,9.305 125.222,9.305 127.79,9.305 130.358,9.305 132.968,9.305 132.968,11.916 135.536,11.916 135.536,14.484 
		138.147,14.484 138.147,17.053 140.716,17.053 143.284,17.053 145.895,17.053 148.463,17.053 148.463,14.484 151.031,14.484 
		153.642,14.484 156.21,14.484 158.778,14.484 161.39,14.484 161.39,17.053 163.958,17.053 163.958,19.663 166.568,19.663 
		169.137,19.663 171.705,19.663 171.705,22.231 174.315,22.231 176.884,22.231 176.884,24.8 179.452,24.8 179.452,27.411 
		176.884,27.411 174.315,27.411 171.705,27.411 171.705,24.8 169.137,24.8 169.137,22.231 166.568,22.231 163.958,22.231 
		161.39,22.231 161.39,19.663 158.778,19.663 156.21,19.663 153.642,19.663 151.031,19.663 148.463,19.663 148.463,22.231 
		145.895,22.231 145.895,24.8 143.284,24.8 143.284,27.411 140.716,27.411 140.716,24.8 140.716,22.231 138.147,22.231 
		138.147,19.663 135.536,19.663 135.536,17.053 132.968,17.053 130.358,17.053 130.358,14.484 127.79,14.484 125.222,14.484 
		122.61,14.484 120.042,14.484 117.474,14.484 117.474,17.053 114.863,17.053 114.863,19.663 112.294,19.663 112.294,17.053 
		109.726,17.053 109.726,14.484 107.116,14.484 107.116,17.053 104.548,17.053 101.937,17.053 101.937,19.663 99.368,19.663 
		99.368,22.231 99.368,24.8 96.8,24.8 96.8,22.231 96.8,19.663 94.189,19.663 94.189,17.053 91.621,17.053 91.621,19.663 
		89.053,19.663 86.442,19.663 86.442,22.231 86.442,24.8 83.874,24.8 81.305,24.8 81.305,27.411 78.695,27.411 78.695,29.979 
		76.126,29.979 73.558,29.979 70.947,29.979 68.379,29.979 65.769,29.979 65.769,32.589 63.2,32.589 60.631,32.589 60.631,35.157 
		58.021,35.157 58.021,37.726 55.453,37.726 55.453,35.157 55.453,32.589 	"/>
	<polygon fill="#F19849" points="58.021,35.157 60.631,35.157 60.631,32.589 63.2,32.589 65.769,32.589 65.769,29.979 
		68.379,29.979 70.947,29.979 73.558,29.979 76.126,29.979 78.695,29.979 78.695,27.411 81.305,27.411 81.305,24.8 83.874,24.8 
		86.442,24.8 86.442,22.231 86.442,19.663 89.053,19.663 91.621,19.663 91.621,17.053 94.189,17.053 94.189,19.663 96.8,19.663 
		96.8,22.231 96.8,24.8 99.368,24.8 99.368,22.231 99.368,19.663 101.937,19.663 101.937,17.053 104.548,17.053 107.116,17.053 
		107.116,14.484 109.726,14.484 109.726,17.053 112.294,17.053 112.294,19.663 114.863,19.663 114.863,17.053 117.474,17.053 
		117.474,14.484 120.042,14.484 122.61,14.484 125.222,14.484 127.79,14.484 130.358,14.484 130.358,17.053 132.968,17.053 
		135.536,17.053 135.536,19.663 138.147,19.663 138.147,22.231 140.716,22.231 140.716,24.8 140.716,27.411 143.284,27.411 
		143.284,24.8 145.895,24.8 145.895,22.231 148.463,22.231 148.463,19.663 151.031,19.663 153.642,19.663 156.21,19.663 
		158.778,19.663 161.39,19.663 161.39,22.231 163.958,22.231 166.568,22.231 169.137,22.231 169.137,24.8 171.705,24.8 
		171.705,27.411 174.315,27.411 176.884,27.411 179.452,27.411 179.452,29.979 179.452,32.589 179.452,35.157 176.884,35.157 
		176.884,37.726 174.315,37.726 174.315,40.337 171.705,40.337 169.137,40.337 166.568,40.337 166.568,42.905 163.958,42.905 
		161.39,42.905 158.778,42.905 156.21,42.905 153.642,42.905 153.642,45.474 151.031,45.474 148.463,45.474 145.895,45.474 
		143.284,45.474 140.716,45.474 138.147,45.474 135.536,45.474 132.968,45.474 130.358,45.474 127.79,45.474 125.222,45.474 
		122.61,45.474 120.042,45.474 117.474,45.474 114.863,45.474 112.294,45.474 109.726,45.474 107.116,45.474 107.116,42.905 
		104.548,42.905 101.937,42.905 99.368,42.905 96.8,42.905 96.8,45.474 94.189,45.474 91.621,45.474 91.621,48.084 89.053,48.084 
		86.442,48.084 86.442,45.474 83.874,45.474 81.305,45.474 81.305,42.905 78.695,42.905 76.126,42.905 73.558,42.905 70.947,42.905 
		68.379,42.905 65.769,42.905 63.2,42.905 60.631,42.905 58.021,42.905 58.021,40.337 55.453,40.337 55.453,37.726 58.021,37.726 	
		"/>
	<polygon fill="#D37730" points="65.769,42.905 68.379,42.905 70.947,42.905 73.558,42.905 76.126,42.905 78.695,42.905 
		81.305,42.905 81.305,45.474 83.874,45.474 86.442,45.474 86.442,48.084 89.053,48.084 91.621,48.084 91.621,45.474 94.189,45.474 
		96.8,45.474 96.8,42.905 99.368,42.905 101.937,42.905 104.548,42.905 107.116,42.905 107.116,45.474 109.726,45.474 
		112.294,45.474 114.863,45.474 117.474,45.474 120.042,45.474 122.61,45.474 125.222,45.474 127.79,45.474 130.358,45.474 
		132.968,45.474 135.536,45.474 138.147,45.474 140.716,45.474 143.284,45.474 145.895,45.474 148.463,45.474 151.031,45.474 
		153.642,45.474 153.642,42.905 156.21,42.905 158.778,42.905 161.39,42.905 163.958,42.905 166.568,42.905 166.568,40.337 
		169.137,40.337 171.705,40.337 171.705,42.905 169.137,42.905 169.137,45.474 169.137,48.084 166.568,48.084 166.568,50.652 
		163.958,50.652 161.39,50.652 158.778,50.652 156.21,50.652 153.642,50.652 151.031,50.652 151.031,53.222 148.463,53.222 
		145.895,53.222 143.284,53.222 140.716,53.222 140.716,50.652 138.147,50.652 135.536,50.652 132.968,50.652 130.358,50.652 
		127.79,50.652 127.79,48.084 125.222,48.084 122.61,48.084 120.042,48.084 117.474,48.084 114.863,48.084 112.294,48.084 
		109.726,48.084 107.116,48.084 104.548,48.084 101.937,48.084 99.368,48.084 96.8,48.084 94.189,48.084 94.189,50.652 
		91.621,50.652 89.053,50.652 86.442,50.652 83.874,50.652 81.305,50.652 81.305,48.084 78.695,48.084 78.695,45.474 76.126,45.474 
		73.558,45.474 70.947,45.474 68.379,45.474 65.769,45.474 63.2,45.474 60.631,45.474 60.631,42.905 63.2,42.905 	"/>
</g>
<g>
	<polygon fill="#F19849" points="2.568,25.853 2.568,23.242 5.137,23.242 5.137,20.674 5.137,18.105 7.747,18.105 10.316,18.105 
		12.926,18.105 12.926,15.495 15.495,15.495 18.063,15.495 20.674,15.495 20.674,18.105 23.242,18.105 23.242,20.674 25.811,20.674 
		25.811,23.242 28.421,23.242 28.421,20.674 28.421,18.105 30.989,18.105 30.989,15.495 33.558,15.495 36.168,15.495 36.168,12.926 
		38.737,12.926 41.305,12.926 41.305,10.358 43.916,10.358 46.484,10.358 49.095,10.358 51.663,10.358 51.663,7.747 54.231,7.747 
		56.842,7.747 56.842,5.179 59.411,5.179 61.979,5.179 64.589,5.179 67.158,5.179 69.726,5.179 72.337,5.179 72.337,7.747 
		74.905,7.747 74.905,10.358 77.516,10.358 80.084,10.358 80.084,12.926 82.652,12.926 82.652,15.495 85.263,15.495 85.263,18.105 
		85.263,20.674 87.832,20.674 90.399,20.674 90.399,18.105 93.011,18.105 95.579,18.105 95.579,15.495 95.579,12.926 98.147,12.926 
		98.147,10.358 100.758,10.358 103.326,10.358 103.326,12.926 105.895,12.926 108.505,12.926 108.505,15.495 111.073,15.495 
		113.685,15.495 113.685,18.105 116.253,18.105 118.821,18.105 118.821,20.674 118.821,23.242 118.821,25.853 121.432,25.853 
		124,25.853 126.568,25.853 126.568,28.421 129.179,28.421 131.747,28.421 131.747,30.989 131.747,33.601 129.179,33.601 
		126.568,33.601 126.568,36.169 124,36.169 124,38.737 121.432,38.737 121.432,41.347 118.821,41.347 116.253,41.347 
		113.685,41.347 111.073,41.347 108.505,41.347 105.895,41.347 103.326,41.347 103.326,43.915 100.758,43.915 98.147,43.915 
		95.579,43.915 93.011,43.915 90.399,43.915 87.832,43.915 85.263,43.915 82.652,43.915 80.084,43.915 77.516,43.915 74.905,43.915 
		72.337,43.915 69.726,43.915 69.726,46.526 67.158,46.526 64.589,46.526 61.979,46.526 59.411,46.526 56.842,46.526 54.231,46.526 
		51.663,46.526 51.663,43.915 49.095,43.915 46.484,43.915 43.916,43.915 41.305,43.915 38.737,43.915 36.168,43.915 36.168,41.347 
		33.558,41.347 30.989,41.347 28.421,41.347 25.811,41.347 23.242,41.347 20.674,41.347 18.063,41.347 15.495,41.347 12.926,41.347 
		10.316,41.347 7.747,41.347 5.137,41.347 5.137,38.737 5.137,36.169 2.568,36.169 0,36.169 0,33.601 0,30.989 0,28.421 0,25.853 	
		"/>
	<polygon fill="#D37730" points="5.137,36.169 5.137,38.737 5.137,41.347 7.747,41.347 10.316,41.347 12.926,41.347 15.495,41.347 
		18.063,41.347 20.674,41.347 23.242,41.347 25.811,41.347 28.421,41.347 30.989,41.347 33.558,41.347 36.168,41.347 36.168,43.915 
		38.737,43.915 41.305,43.915 43.916,43.915 46.484,43.915 49.095,43.915 51.663,43.915 51.663,46.526 54.231,46.526 56.842,46.526 
		59.411,46.526 61.979,46.526 64.589,46.526 67.158,46.526 69.726,46.526 69.726,43.915 72.337,43.915 74.905,43.915 77.516,43.915 
		80.084,43.915 82.652,43.915 85.263,43.915 87.832,43.915 90.399,43.915 93.011,43.915 95.579,43.915 98.147,43.915 
		100.758,43.915 103.326,43.915 103.326,41.347 105.895,41.347 108.505,41.347 111.073,41.347 113.685,41.347 116.253,41.347 
		118.821,41.347 121.432,41.347 121.432,38.737 124,38.737 124,36.169 126.568,36.169 126.568,33.601 129.179,33.601 
		131.747,33.601 131.747,36.169 129.179,36.169 129.179,38.737 126.568,38.737 126.568,41.347 124,41.347 124,43.915 
		121.432,43.915 121.432,46.526 118.821,46.526 116.253,46.526 113.685,46.526 111.073,46.526 108.505,46.526 105.895,46.526 
		103.326,46.526 100.758,46.526 98.147,46.526 95.579,46.526 95.579,49.095 93.011,49.095 90.399,49.095 87.832,49.095 
		85.263,49.095 82.652,49.095 80.084,49.095 77.516,49.095 74.905,49.095 72.337,49.095 69.726,49.095 67.158,49.095 64.589,49.095 
		61.979,49.095 59.411,49.095 56.842,49.095 54.231,49.095 51.663,49.095 49.095,49.095 49.095,46.526 46.484,46.526 43.916,46.526 
		41.305,46.526 38.737,46.526 36.168,46.526 33.558,46.526 30.989,46.526 28.421,46.526 25.811,46.526 23.242,46.526 20.674,46.526 
		18.063,46.526 15.495,46.526 12.926,46.526 10.316,46.526 7.747,46.526 7.747,43.915 5.137,43.915 2.568,43.915 2.568,41.347 
		2.568,38.737 0,38.737 0,36.169 2.568,36.169 	"/>
	<polygon fill="#F3AD68" points="126.568,25.853 124,25.853 121.432,25.853 118.821,25.853 118.821,23.242 118.821,20.674 
		118.821,18.105 116.253,18.105 113.685,18.105 113.685,15.495 111.073,15.495 108.505,15.495 108.505,12.926 105.895,12.926 
		103.326,12.926 103.326,10.358 100.758,10.358 98.147,10.358 98.147,12.926 95.579,12.926 95.579,15.495 95.579,18.105 
		93.011,18.105 90.399,18.105 90.399,20.674 87.832,20.674 85.263,20.674 85.263,18.105 85.263,15.495 82.652,15.495 82.652,12.926 
		80.084,12.926 80.084,10.358 77.516,10.358 74.905,10.358 74.905,7.747 72.337,7.747 72.337,5.179 69.726,5.179 67.158,5.179 
		64.589,5.179 61.979,5.179 59.411,5.179 56.842,5.179 56.842,7.747 54.231,7.747 51.663,7.747 51.663,10.358 49.095,10.358 
		46.484,10.358 43.916,10.358 41.305,10.358 41.305,12.926 38.737,12.926 36.168,12.926 36.168,15.495 33.558,15.495 30.989,15.495 
		30.989,18.105 28.421,18.105 28.421,20.674 28.421,23.242 25.811,23.242 25.811,20.674 23.242,20.674 23.242,18.105 20.674,18.105 
		20.674,15.495 18.063,15.495 15.495,15.495 12.926,15.495 12.926,18.105 10.316,18.105 7.747,18.105 5.137,18.105 5.137,20.674 
		5.137,23.242 2.568,23.242 2.568,20.674 2.568,18.105 2.568,15.495 5.137,15.495 5.137,12.926 7.747,12.926 7.747,10.358 
		10.316,10.358 12.926,10.358 15.495,10.358 18.063,10.358 20.674,10.358 20.674,12.926 23.242,12.926 25.811,12.926 28.421,12.926 
		30.989,12.926 33.558,12.926 33.558,10.358 36.168,10.358 38.737,10.358 38.737,7.747 41.305,7.747 43.916,7.747 46.484,7.747 
		49.095,7.747 49.095,5.179 51.663,5.179 54.231,5.179 54.231,2.568 56.842,2.568 59.411,2.568 59.411,0 61.979,0 64.589,0 
		67.158,0 69.726,0 72.337,0 74.905,0 74.905,2.568 77.516,2.568 77.516,5.179 80.084,5.179 80.084,7.747 82.652,7.747 
		85.263,7.747 85.263,10.358 87.832,10.358 90.399,10.358 93.011,10.358 95.579,10.358 95.579,7.747 98.147,7.747 100.758,7.747 
		103.326,7.747 105.895,7.747 108.505,7.747 108.505,10.358 111.073,10.358 113.685,10.358 113.685,12.926 116.253,12.926 
		118.821,12.926 118.821,15.495 121.432,15.495 121.432,18.105 124,18.105 124,20.674 124,23.242 126.568,23.242 129.179,23.242 
		129.179,25.853 129.179,28.421 126.568,28.421 	"/>
</g>
</svg>
