<?xml version="1.0" encoding="utf-8"?>
<!-- Generator: Adobe Illustrator 16.0.0, SVG Export Plug-In . SVG Version: 6.00 Build 0)  -->
<!DOCTYPE svg PUBLIC "-//W3C//DTD SVG 1.1//EN" "http://www.w3.org/Graphics/SVG/1.1/DTD/svg11.dtd">
<svg version="1.1" id="Layer_1" xmlns="http://www.w3.org/2000/svg" xmlns:xlink="http://www.w3.org/1999/xlink" x="0px" y="0px"
	 width="178.947px" height="50.99px" viewBox="0 0 178.947 50.99" enable-background="new 0 0 178.947 50.99" xml:space="preserve">
<g>
	<polygon fill="#F19849" points="176.379,31.031 176.379,28.421 173.811,28.421 173.811,25.853 171.2,25.853 171.2,23.284 
		171.2,20.673 168.632,20.673 166.021,20.673 166.021,23.284 163.453,23.284 160.885,23.284 160.885,25.853 158.274,25.853 
		158.274,23.284 158.274,20.673 158.274,18.105 158.274,15.537 158.274,12.926 155.706,12.926 155.706,10.358 153.137,10.358 
		150.526,10.358 147.958,10.358 145.39,10.358 142.779,10.358 140.211,10.358 140.211,7.747 137.643,7.747 135.032,7.747 
		132.464,7.747 129.853,7.747 129.853,10.358 127.284,10.358 127.284,12.926 124.716,12.926 122.105,12.926 122.105,10.358 
		119.537,10.358 119.537,7.747 116.969,7.747 116.969,10.358 114.358,10.358 111.79,10.358 109.222,10.358 106.61,10.358 
		104.042,10.358 101.432,10.358 101.432,12.926 101.432,15.537 98.863,15.537 98.863,18.105 98.863,20.673 96.295,20.673 
		93.685,20.673 93.685,18.105 91.116,18.105 88.548,18.105 85.938,18.105 85.938,20.673 83.369,20.673 80.801,20.673 80.801,23.284 
		78.189,23.284 75.621,23.284 75.621,25.853 73.053,25.853 70.442,25.853 70.442,28.421 67.874,28.421 65.264,28.421 65.264,31.031 
		65.264,33.6 67.874,33.6 70.442,33.6 70.442,36.168 73.053,36.168 73.053,38.779 75.621,38.779 78.189,38.779 80.801,38.779 
		80.801,41.347 83.369,41.347 83.369,38.779 85.938,38.779 88.548,38.779 91.116,38.779 93.685,38.779 93.685,41.347 96.295,41.347 
		98.863,41.347 101.432,41.347 101.432,38.779 104.042,38.779 106.61,38.779 109.222,38.779 111.79,38.779 114.358,38.779 
		114.358,41.347 116.969,41.347 119.537,41.347 122.105,41.347 124.716,41.347 127.284,41.347 129.853,41.347 132.464,41.347 
		135.032,41.347 137.643,41.347 137.643,38.779 140.211,38.779 142.779,38.779 142.779,41.347 145.39,41.347 147.958,41.347 
		150.526,41.347 150.526,38.779 153.137,38.779 155.706,38.779 158.274,38.779 160.885,38.779 163.453,38.779 166.021,38.779 
		168.632,38.779 171.2,38.779 173.811,38.779 176.379,38.779 178.947,38.779 178.947,36.168 178.947,33.6 178.947,31.031 	"/>
	<polygon fill="#D37730" points="171.2,38.779 168.632,38.779 166.021,38.779 163.453,38.779 160.885,38.779 158.274,38.779 
		155.706,38.779 153.137,38.779 150.526,38.779 150.526,41.347 147.958,41.347 145.39,41.347 142.779,41.347 142.779,38.779 
		140.211,38.779 137.643,38.779 137.643,41.347 135.032,41.347 132.464,41.347 129.853,41.347 127.284,41.347 124.716,41.347 
		122.105,41.347 119.537,41.347 116.969,41.347 114.358,41.347 114.358,38.779 111.79,38.779 109.222,38.779 106.61,38.779 
		104.042,38.779 101.432,38.779 101.432,41.347 98.863,41.347 96.295,41.347 93.685,41.347 93.685,38.779 91.116,38.779 
		88.548,38.779 85.938,38.779 83.369,38.779 83.369,41.347 80.801,41.347 80.801,38.779 78.189,38.779 75.621,38.779 73.053,38.779 
		73.053,36.168 70.442,36.168 70.442,33.6 67.874,33.6 65.264,33.6 65.264,36.168 67.874,36.168 67.874,38.779 70.442,38.779 
		70.442,41.347 73.053,41.347 73.053,43.958 75.621,43.958 78.189,43.958 80.801,43.958 83.369,43.958 85.938,43.958 88.548,43.958 
		91.116,43.958 93.685,43.958 96.295,43.958 98.863,43.958 98.863,46.527 101.432,46.527 104.042,46.527 106.61,46.527 
		109.222,46.527 111.79,46.527 114.358,46.527 116.969,46.527 119.537,46.527 119.537,43.958 122.105,43.958 124.716,43.958 
		127.284,43.958 129.853,43.958 129.853,46.527 132.464,46.527 135.032,46.527 137.643,46.527 140.211,46.527 142.779,46.527 
		145.39,46.527 145.39,49.095 147.958,49.095 150.526,49.095 150.526,46.527 153.137,46.527 153.137,43.958 155.706,43.958 
		155.706,41.347 158.274,41.347 160.885,41.347 163.453,41.347 166.021,41.347 168.632,41.347 171.2,41.347 173.811,41.347 
		176.379,41.347 176.379,38.779 173.811,38.779 	"/>
	<polygon fill="#F3AD68" points="70.442,28.421 70.442,25.853 73.053,25.853 75.621,25.853 75.621,23.284 78.189,23.284 
		80.801,23.284 80.801,20.673 83.369,20.673 85.938,20.673 85.938,18.105 88.548,18.105 91.116,18.105 93.685,18.105 93.685,20.673 
		96.295,20.673 98.863,20.673 98.863,18.105 98.863,15.537 101.432,15.537 101.432,12.926 101.432,10.358 104.042,10.358 
		106.61,10.358 109.222,10.358 111.79,10.358 114.358,10.358 116.969,10.358 116.969,7.747 119.537,7.747 119.537,10.358 
		122.105,10.358 122.105,12.926 124.716,12.926 127.284,12.926 127.284,10.358 129.853,10.358 129.853,7.747 132.464,7.747 
		135.032,7.747 137.643,7.747 140.211,7.747 140.211,10.358 142.779,10.358 145.39,10.358 147.958,10.358 150.526,10.358 
		153.137,10.358 155.706,10.358 155.706,12.926 158.274,12.926 158.274,15.537 158.274,18.105 158.274,20.673 158.274,23.284 
		158.274,25.853 160.885,25.853 160.885,23.284 163.453,23.284 166.021,23.284 166.021,20.673 168.632,20.673 171.2,20.673 
		171.2,23.284 171.2,25.853 173.811,25.853 173.811,28.421 176.379,28.421 176.379,25.853 176.379,23.284 173.811,23.284 
		173.811,20.673 173.811,18.105 171.2,18.105 168.632,18.105 168.632,15.537 166.021,15.537 166.021,18.105 163.453,18.105 
		163.453,15.537 160.885,15.537 160.885,12.926 160.885,10.358 158.274,10.358 158.274,7.747 155.706,7.747 153.137,7.747 
		150.526,7.747 147.958,7.747 145.39,7.747 142.779,7.747 142.779,5.179 142.779,2.61 140.211,2.61 137.643,2.61 137.643,0 
		135.032,0 132.464,0 129.853,0 129.853,2.61 127.284,2.61 127.284,5.179 124.716,5.179 122.105,5.179 119.537,5.179 119.537,2.61 
		116.969,2.61 116.969,0 114.358,0 111.79,0 111.79,2.61 109.222,2.61 109.222,5.179 106.61,5.179 104.042,5.179 101.432,5.179 
		101.432,7.747 98.863,7.747 98.863,10.358 98.863,12.926 96.295,12.926 93.685,12.926 93.685,15.537 91.116,15.537 88.548,15.537 
		85.938,15.537 83.369,15.537 83.369,18.105 80.801,18.105 78.189,18.105 78.189,20.673 75.621,20.673 73.053,20.673 73.053,23.284 
		70.442,23.284 67.874,23.284 67.874,25.853 65.264,25.853 65.264,28.421 67.874,28.421 	"/>
</g>
<g>
	<polygon fill="#F3AD68" points="116.295,40.673 116.295,38.105 116.295,35.495 113.685,35.495 111.116,35.495 108.548,35.495 
		108.548,32.926 108.548,30.358 111.116,30.358 111.116,27.748 111.116,25.179 111.116,22.568 108.548,22.568 105.938,22.568 
		103.369,22.568 103.369,20 100.758,20 100.758,17.432 100.758,14.821 98.189,14.821 95.621,14.821 95.621,17.432 93.011,17.432 
		90.442,17.432 90.442,14.821 87.874,14.821 85.264,14.821 82.695,14.821 80.127,14.821 77.517,14.821 74.947,14.821 72.337,14.821 
		72.337,12.252 69.769,12.252 67.2,12.252 64.59,12.252 64.59,14.821 62.021,14.821 59.453,14.821 56.843,14.821 56.843,17.432 
		54.274,17.432 54.274,14.821 51.706,14.821 51.706,12.252 49.095,12.252 46.526,12.252 43.958,12.252 41.348,12.252 41.348,14.821 
		38.779,14.821 36.169,14.821 33.601,14.821 33.601,12.252 31.032,12.252 28.421,12.252 28.421,14.821 25.853,14.821 23.284,14.821 
		23.284,17.432 23.284,20 20.674,20 18.105,20 15.537,20 12.927,20 12.927,22.568 10.358,22.568 10.358,25.179 7.748,25.179 
		7.748,27.748 5.179,27.748 5.179,30.358 2.61,30.358 2.61,32.926 0,32.926 0,35.495 0,38.105 2.61,38.105 2.61,35.495 
		5.179,35.495 5.179,32.926 7.748,32.926 7.748,30.358 10.358,30.358 10.358,27.748 12.927,27.748 12.927,25.179 15.537,25.179 
		18.105,25.179 20.674,25.179 23.284,25.179 23.284,27.748 25.853,27.748 25.853,25.179 25.853,22.568 28.421,22.568 28.421,20 
		31.032,20 33.601,20 33.601,22.568 36.169,22.568 36.169,25.179 38.779,25.179 38.779,22.568 38.779,20 41.348,20 43.958,20 
		46.526,20 49.095,20 51.706,20 51.706,22.568 54.274,22.568 54.274,25.179 56.843,25.179 59.453,25.179 59.453,22.568 59.453,20 
		62.021,20 64.59,20 67.2,20 69.769,20 72.337,20 74.947,20 77.517,20 80.127,20 80.127,22.568 82.695,22.568 85.264,22.568 
		87.874,22.568 90.442,22.568 90.442,25.179 90.442,27.748 93.011,27.748 93.011,25.179 95.621,25.179 98.189,25.179 98.189,22.568 
		100.758,22.568 100.758,25.179 103.369,25.179 105.938,25.179 105.938,27.748 105.938,30.358 105.938,32.926 105.938,35.495 
		105.938,38.105 108.548,38.105 111.116,38.105 113.685,38.105 113.685,40.673 113.685,43.242 116.295,43.242 116.295,45.853 
		116.295,48.421 118.863,48.421 118.863,45.853 118.863,43.242 118.863,40.673 	"/>
	<polygon fill="#D37730" points="113.685,45.853 111.116,45.853 108.548,45.853 105.938,45.853 103.369,45.853 100.758,45.853 
		98.189,45.853 98.189,43.242 95.621,43.242 93.011,43.242 90.442,43.242 87.874,43.242 85.264,43.242 82.695,43.242 80.127,43.242 
		77.517,43.242 77.517,40.673 74.947,40.673 72.337,40.673 69.769,40.673 67.2,40.673 64.59,40.673 62.021,40.673 62.021,43.242 
		59.453,43.242 56.843,43.242 54.274,43.242 51.706,43.242 49.095,43.242 46.526,43.242 43.958,43.242 41.348,43.242 38.779,43.242 
		36.169,43.242 33.601,43.242 31.032,43.242 31.032,40.673 28.421,40.673 25.853,40.673 23.284,40.673 20.674,40.673 18.105,40.673 
		18.105,43.242 15.537,43.242 12.927,43.242 10.358,43.242 7.748,43.242 5.179,43.242 2.61,43.242 2.61,45.853 5.179,45.853 
		5.179,48.421 7.748,48.421 10.358,48.421 12.927,48.421 15.537,48.421 18.105,48.421 20.674,48.421 23.284,48.421 25.853,48.421 
		28.421,48.421 31.032,48.421 33.601,48.421 36.169,48.421 36.169,45.853 38.779,45.853 41.348,45.853 43.958,45.853 46.526,45.853 
		49.095,45.853 51.706,45.853 51.706,48.421 54.274,48.421 56.843,48.421 59.453,48.421 62.021,48.421 64.59,48.421 67.2,48.421 
		69.769,48.421 72.337,48.421 74.947,48.421 77.517,48.421 77.517,45.853 80.127,45.853 80.127,48.421 82.695,48.421 85.264,48.421 
		87.874,48.421 90.442,48.421 93.011,48.421 93.011,45.853 95.621,45.853 95.621,48.421 98.189,48.421 100.758,48.421 
		103.369,48.421 105.938,48.421 105.938,50.99 108.548,50.99 111.116,50.99 113.685,50.99 116.295,50.99 116.295,48.421 
		116.295,45.853 	"/>
	<polygon fill="#F19849" points="7.748,43.242 10.358,43.242 12.927,43.242 15.537,43.242 18.105,43.242 18.105,40.673 
		20.674,40.673 23.284,40.673 25.853,40.673 28.421,40.673 31.032,40.673 31.032,43.242 33.601,43.242 36.169,43.242 38.779,43.242 
		41.348,43.242 43.958,43.242 46.526,43.242 49.095,43.242 51.706,43.242 54.274,43.242 56.843,43.242 59.453,43.242 62.021,43.242 
		62.021,40.673 64.59,40.673 67.2,40.673 69.769,40.673 72.337,40.673 74.947,40.673 77.517,40.673 77.517,43.242 80.127,43.242 
		82.695,43.242 85.264,43.242 87.874,43.242 90.442,43.242 93.011,43.242 95.621,43.242 98.189,43.242 98.189,45.853 
		100.758,45.853 103.369,45.853 105.938,45.853 108.548,45.853 111.116,45.853 113.685,45.853 116.295,45.853 116.295,43.242 
		113.685,43.242 113.685,40.673 113.685,38.105 111.116,38.105 108.548,38.105 105.938,38.105 105.938,35.495 105.938,32.926 
		105.938,30.358 105.938,27.748 105.938,25.179 103.369,25.179 100.758,25.179 100.758,22.568 98.189,22.568 98.189,25.179 
		95.621,25.179 93.011,25.179 93.011,27.748 90.442,27.748 90.442,25.179 90.442,22.568 87.874,22.568 85.264,22.568 82.695,22.568 
		80.127,22.568 80.127,20 77.517,20 74.947,20 72.337,20 69.769,20 67.2,20 64.59,20 62.021,20 59.453,20 59.453,22.568 
		59.453,25.179 56.843,25.179 54.274,25.179 54.274,22.568 51.706,22.568 51.706,20 49.095,20 46.526,20 43.958,20 41.348,20 
		38.779,20 38.779,22.568 38.779,25.179 36.169,25.179 36.169,22.568 33.601,22.568 33.601,20 31.032,20 28.421,20 28.421,22.568 
		25.853,22.568 25.853,25.179 25.853,27.748 23.284,27.748 23.284,25.179 20.674,25.179 18.105,25.179 15.537,25.179 12.927,25.179 
		12.927,27.748 10.358,27.748 10.358,30.358 7.748,30.358 7.748,32.926 5.179,32.926 5.179,35.495 2.61,35.495 2.61,38.105 
		0,38.105 0,40.673 2.61,40.673 2.61,43.242 5.179,43.242 	"/>
</g>
</svg>
