<?xml version="1.0" encoding="utf-8"?>
<!-- Generator: Adobe Illustrator 16.0.0, SVG Export Plug-In . SVG Version: 6.00 Build 0)  -->
<!DOCTYPE svg PUBLIC "-//W3C//DTD SVG 1.1//EN" "http://www.w3.org/Graphics/SVG/1.1/DTD/svg11.dtd">
<svg version="1.1" id="Layer_1" xmlns="http://www.w3.org/2000/svg" xmlns:xlink="http://www.w3.org/1999/xlink" x="0px" y="0px"
	 width="181.474px" height="50.569px" viewBox="0 0 181.474 50.569" enable-background="new 0 0 181.474 50.569"
	 xml:space="preserve">
<g>
	<polygon fill="#F3AD68" points="78.147,23.242 78.147,20.673 78.147,18.105 80.716,18.105 80.716,15.495 83.326,15.495 
		83.326,12.926 85.895,12.926 85.895,10.358 88.463,10.358 91.073,10.358 93.642,10.358 96.253,10.358 96.253,7.747 96.253,5.179 
		98.821,5.179 101.39,5.179 104,5.179 106.568,5.179 106.568,7.747 109.137,7.747 111.747,7.747 114.315,7.747 114.315,5.179 
		114.315,2.61 116.884,2.61 116.884,0 119.495,0 122.063,0 124.632,0 124.632,2.61 127.242,2.61 127.242,5.179 129.811,5.179 
		132.421,5.179 134.989,5.179 134.989,2.61 137.558,2.61 140.168,2.61 142.736,2.61 145.305,2.61 145.305,5.179 145.305,7.747 
		147.916,7.747 150.484,7.747 153.053,7.747 155.663,7.747 158.231,7.747 158.231,10.358 160.842,10.358 160.842,12.926 
		160.842,15.495 163.41,15.495 165.979,15.495 165.979,18.105 168.589,18.105 171.157,18.105 173.727,18.105 176.337,18.105 
		176.337,20.673 178.905,20.673 178.905,23.242 181.474,23.242 181.474,25.852 181.474,28.42 178.905,28.42 178.905,25.852 
		176.337,25.852 176.337,23.242 173.727,23.242 173.727,20.673 171.157,20.673 168.589,20.673 165.979,20.673 163.41,20.673 
		160.842,20.673 160.842,23.242 158.231,23.242 155.663,23.242 155.663,20.673 155.663,18.105 158.231,18.105 158.231,15.495 
		155.663,15.495 155.663,12.926 155.663,10.358 153.053,10.358 150.484,10.358 147.916,10.358 145.305,10.358 142.736,10.358 
		142.736,7.747 140.168,7.747 137.558,7.747 134.989,7.747 134.989,10.358 134.989,12.926 132.421,12.926 129.811,12.926 
		129.811,10.358 127.242,10.358 124.632,10.358 124.632,7.747 122.063,7.747 122.063,10.358 119.495,10.358 116.884,10.358 
		114.315,10.358 114.315,12.926 114.315,15.495 111.747,15.495 109.137,15.495 109.137,12.926 106.568,12.926 106.568,10.358 
		104,10.358 101.39,10.358 98.821,10.358 98.821,12.926 96.253,12.926 93.642,12.926 91.073,12.926 88.463,12.926 88.463,15.495 
		85.895,15.495 85.895,18.105 83.326,18.105 83.326,20.673 80.716,20.673 80.716,23.242 80.716,25.852 78.147,25.852 78.147,28.42 
		78.147,30.989 75.579,30.989 75.579,28.42 75.579,25.852 75.579,23.242 	"/>
	<polygon fill="#F19849" points="78.147,28.42 78.147,25.852 80.716,25.852 80.716,23.242 80.716,20.673 83.326,20.673 
		83.326,18.105 85.895,18.105 85.895,15.495 88.463,15.495 88.463,12.926 91.073,12.926 93.642,12.926 96.253,12.926 98.821,12.926 
		98.821,10.358 101.39,10.358 104,10.358 106.568,10.358 106.568,12.926 109.137,12.926 109.137,15.495 111.747,15.495 
		114.315,15.495 114.315,12.926 114.315,10.358 116.884,10.358 119.495,10.358 122.063,10.358 122.063,7.747 124.632,7.747 
		124.632,10.358 127.242,10.358 129.811,10.358 129.811,12.926 132.421,12.926 134.989,12.926 134.989,10.358 134.989,7.747 
		137.558,7.747 140.168,7.747 142.736,7.747 142.736,10.358 145.305,10.358 147.916,10.358 150.484,10.358 153.053,10.358 
		155.663,10.358 155.663,12.926 155.663,15.495 158.231,15.495 158.231,18.105 155.663,18.105 155.663,20.673 155.663,23.242 
		158.231,23.242 160.842,23.242 160.842,20.673 163.41,20.673 165.979,20.673 168.589,20.673 171.157,20.673 173.727,20.673 
		173.727,23.242 176.337,23.242 176.337,25.852 178.905,25.852 178.905,28.42 181.474,28.42 181.474,30.989 181.474,33.6 
		181.474,36.168 181.474,38.779 178.905,38.779 176.337,38.779 173.727,38.779 171.157,38.779 171.157,41.347 168.589,41.347 
		165.979,41.347 165.979,43.916 163.41,43.916 160.842,43.916 158.231,43.916 158.231,41.347 155.663,41.347 153.053,41.347 
		150.484,41.347 147.916,41.347 145.305,41.347 142.736,41.347 140.168,41.347 140.168,43.916 137.558,43.916 134.989,43.916 
		132.421,43.916 129.811,43.916 127.242,43.916 124.632,43.916 122.063,43.916 119.495,43.916 116.884,43.916 116.884,41.347 
		114.315,41.347 111.747,41.347 109.137,41.347 106.568,41.347 106.568,38.779 104,38.779 101.39,38.779 98.821,38.779 
		96.253,38.779 93.642,38.779 91.073,38.779 91.073,36.168 88.463,36.168 88.463,33.6 85.895,33.6 83.326,33.6 80.716,33.6 
		78.147,33.6 75.579,33.6 75.579,30.989 78.147,30.989 	"/>
	<polygon fill="#D37730" points="85.895,33.6 88.463,33.6 88.463,36.168 91.073,36.168 91.073,38.779 93.642,38.779 96.253,38.779 
		98.821,38.779 101.39,38.779 104,38.779 106.568,38.779 106.568,41.347 109.137,41.347 111.747,41.347 114.315,41.347 
		116.884,41.347 116.884,43.916 119.495,43.916 122.063,43.916 124.632,43.916 127.242,43.916 129.811,43.916 132.421,43.916 
		134.989,43.916 137.558,43.916 140.168,43.916 140.168,41.347 142.736,41.347 145.305,41.347 147.916,41.347 150.484,41.347 
		153.053,41.347 155.663,41.347 158.231,41.347 158.231,43.916 160.842,43.916 163.41,43.916 165.979,43.916 165.979,41.347 
		168.589,41.347 171.157,41.347 171.157,38.779 173.727,38.779 176.337,38.779 178.905,38.779 178.905,41.347 176.337,41.347 
		176.337,43.916 173.727,43.916 171.157,43.916 168.589,43.916 168.589,46.526 165.979,46.526 163.41,46.526 160.842,46.526 
		158.231,46.526 155.663,46.526 153.053,46.526 150.484,46.526 147.916,46.526 145.305,46.526 142.736,46.526 140.168,46.526 
		140.168,49.094 137.558,49.094 134.989,49.094 132.421,49.094 129.811,49.094 127.242,49.094 124.632,49.094 122.063,49.094 
		119.495,49.094 116.884,49.094 114.315,49.094 114.315,46.526 111.747,46.526 109.137,46.526 106.568,46.526 106.568,43.916 
		104,43.916 101.39,43.916 98.821,43.916 96.253,43.916 93.642,43.916 91.073,43.916 88.463,43.916 85.895,43.916 85.895,41.347 
		85.895,38.779 83.326,38.779 83.326,36.168 80.716,36.168 80.716,33.6 83.326,33.6 	"/>
</g>
<g>
	<polygon fill="#F3AD68" points="121.432,29.937 121.432,27.327 118.863,27.327 116.253,27.327 116.253,24.758 113.685,24.758 
		111.115,24.758 108.505,24.758 105.937,24.758 103.368,24.758 103.368,22.147 100.758,22.147 100.758,19.579 98.189,19.579 
		98.189,17.01 95.579,17.01 95.579,14.4 93.011,14.4 93.011,11.832 93.011,9.263 90.442,9.263 87.831,9.263 85.263,9.263 
		85.263,11.832 82.694,11.832 80.084,11.832 77.516,11.832 77.516,9.263 77.516,6.652 74.947,6.652 74.947,4.084 72.337,4.084 
		69.769,4.084 67.2,4.084 67.2,6.652 64.589,6.652 64.589,4.084 64.589,1.516 62.021,1.516 59.41,1.516 59.41,4.084 56.842,4.084 
		56.842,6.652 54.273,6.652 51.663,6.652 49.095,6.652 46.526,6.652 46.526,9.263 43.916,9.263 43.916,11.832 41.348,11.832 
		41.348,14.4 38.778,14.4 36.168,14.4 33.6,14.4 30.989,14.4 30.989,11.832 28.421,11.832 25.853,11.832 23.242,11.832 
		20.674,11.832 18.105,11.832 18.105,14.4 15.494,14.4 15.494,17.01 12.926,17.01 10.357,17.01 7.747,17.01 7.747,19.579 
		5.179,19.579 2.61,19.579 2.61,22.147 0,22.147 0,24.758 2.61,24.758 5.179,24.758 7.747,24.758 7.747,22.147 10.357,22.147 
		10.357,19.579 12.926,19.579 15.494,19.579 18.105,19.579 18.105,17.01 20.674,17.01 23.242,17.01 25.853,17.01 28.421,17.01 
		30.989,17.01 30.989,19.579 33.6,19.579 33.6,22.147 36.168,22.147 36.168,24.758 38.778,24.758 38.778,22.147 38.778,19.579 
		41.348,19.579 41.348,17.01 43.916,17.01 43.916,14.4 46.526,14.4 49.095,14.4 49.095,11.832 51.663,11.832 54.273,11.832 
		56.842,11.832 59.41,11.832 62.021,11.832 62.021,14.4 64.589,14.4 64.589,17.01 67.2,17.01 67.2,14.4 69.769,14.4 69.769,11.832 
		72.337,11.832 72.337,14.4 74.947,14.4 77.516,14.4 77.516,17.01 80.084,17.01 80.084,19.579 80.084,22.147 82.694,22.147 
		82.694,19.579 82.694,17.01 85.263,17.01 85.263,14.4 87.831,14.4 87.831,17.01 90.442,17.01 93.011,17.01 93.011,19.579 
		93.011,22.147 95.579,22.147 98.189,22.147 98.189,24.758 100.758,24.758 100.758,27.327 103.368,27.327 105.937,27.327 
		108.505,27.327 111.115,27.327 113.685,27.327 113.685,29.937 116.253,29.937 118.863,29.937 118.863,32.505 121.432,32.505 
		121.432,35.074 124,35.074 124,32.505 124,29.937 	"/>
	<polygon fill="#F19849" points="121.432,32.505 118.863,32.505 118.863,29.937 116.253,29.937 113.685,29.937 113.685,27.327 
		111.115,27.327 108.505,27.327 105.937,27.327 103.368,27.327 100.758,27.327 100.758,24.758 98.189,24.758 98.189,22.147 
		95.579,22.147 93.011,22.147 93.011,19.579 93.011,17.01 90.442,17.01 87.831,17.01 87.831,14.4 85.263,14.4 85.263,17.01 
		82.694,17.01 82.694,19.579 82.694,22.147 80.084,22.147 80.084,19.579 80.084,17.01 77.516,17.01 77.516,14.4 74.947,14.4 
		72.337,14.4 72.337,11.832 69.769,11.832 69.769,14.4 67.2,14.4 67.2,17.01 64.589,17.01 64.589,14.4 62.021,14.4 62.021,11.832 
		59.41,11.832 56.842,11.832 54.273,11.832 51.663,11.832 49.095,11.832 49.095,14.4 46.526,14.4 43.916,14.4 43.916,17.01 
		41.348,17.01 41.348,19.579 38.778,19.579 38.778,22.147 38.778,24.758 36.168,24.758 36.168,22.147 33.6,22.147 33.6,19.579 
		30.989,19.579 30.989,17.01 28.421,17.01 25.853,17.01 23.242,17.01 20.674,17.01 18.105,17.01 18.105,19.579 15.494,19.579 
		12.926,19.579 10.357,19.579 10.357,22.147 7.747,22.147 7.747,24.758 5.179,24.758 2.61,24.758 0,24.758 0,27.327 0,29.937 
		0,32.505 2.61,32.505 2.61,35.074 5.179,35.074 5.179,37.684 7.747,37.684 10.357,37.684 12.926,37.684 12.926,40.252 
		15.494,40.252 18.105,40.252 20.674,40.252 23.242,40.252 25.853,40.252 25.853,42.821 28.421,42.821 30.989,42.821 33.6,42.821 
		36.168,42.821 38.778,42.821 41.348,42.821 43.916,42.821 46.526,42.821 49.095,42.821 51.663,42.821 54.273,42.821 56.842,42.821 
		59.41,42.821 62.021,42.821 64.589,42.821 67.2,42.821 69.769,42.821 72.337,42.821 72.337,40.252 74.947,40.252 77.516,40.252 
		80.084,40.252 82.694,40.252 82.694,42.821 85.263,42.821 87.831,42.821 87.831,45.432 90.442,45.432 93.011,45.432 93.011,42.821 
		95.579,42.821 98.189,42.821 98.189,40.252 100.758,40.252 103.368,40.252 105.937,40.252 108.505,40.252 111.115,40.252 
		113.685,40.252 116.253,40.252 118.863,40.252 121.432,40.252 121.432,37.684 124,37.684 124,35.074 121.432,35.074 	"/>
	<polygon fill="#D37730" points="113.685,40.252 111.115,40.252 108.505,40.252 105.937,40.252 103.368,40.252 100.758,40.252 
		98.189,40.252 98.189,42.821 95.579,42.821 93.011,42.821 93.011,45.432 90.442,45.432 87.831,45.432 87.831,42.821 85.263,42.821 
		82.694,42.821 82.694,40.252 80.084,40.252 77.516,40.252 74.947,40.252 72.337,40.252 72.337,42.821 69.769,42.821 67.2,42.821 
		64.589,42.821 62.021,42.821 59.41,42.821 56.842,42.821 54.273,42.821 51.663,42.821 49.095,42.821 46.526,42.821 43.916,42.821 
		41.348,42.821 38.778,42.821 36.168,42.821 33.6,42.821 30.989,42.821 28.421,42.821 25.853,42.821 25.853,40.252 23.242,40.252 
		20.674,40.252 18.105,40.252 15.494,40.252 12.926,40.252 12.926,37.684 10.357,37.684 7.747,37.684 7.747,40.252 10.357,40.252 
		10.357,42.821 10.357,45.432 12.926,45.432 12.926,48 15.494,48 18.105,48 20.674,48 23.242,48 25.853,48 28.421,48 28.421,50.569 
		30.989,50.569 33.6,50.569 36.168,50.569 38.778,50.569 38.778,48 41.348,48 43.916,48 46.526,48 49.095,48 51.663,48 
		51.663,45.432 54.273,45.432 56.842,45.432 59.41,45.432 62.021,45.432 64.589,45.432 67.2,45.432 69.769,45.432 72.337,45.432 
		74.947,45.432 77.516,45.432 80.084,45.432 82.694,45.432 85.263,45.432 85.263,48 87.831,48 90.442,48 93.011,48 95.579,48 
		98.189,48 98.189,45.432 100.758,45.432 100.758,42.821 103.368,42.821 105.937,42.821 108.505,42.821 111.115,42.821 
		113.685,42.821 116.253,42.821 118.863,42.821 118.863,40.252 116.253,40.252 	"/>
</g>
</svg>
