<?xml version="1.0" encoding="utf-8"?>
<!-- Generator: Adobe Illustrator 21.1.0, SVG Export Plug-In . SVG Version: 6.00 Build 0)  -->
<svg version="1.1" id="Layer_1" xmlns="http://www.w3.org/2000/svg" xmlns:xlink="http://www.w3.org/1999/xlink" x="0px" y="0px"
	 viewBox="0 0 1920 900" style="enable-background:new 0 0 1920 900;" xml:space="preserve">
<style type="text/css">
	.st0{fill:#F3AD68;stroke:#F2AD68;stroke-miterlimit:10;}
	.st1{fill:#F19849;stroke:#F19849;stroke-miterlimit:10;}
	.st2{fill:#F26633;stroke:#F26733;stroke-miterlimit:10;}
	.st3{fill:#EF3F36;}
	.st4{fill:#EEC3A5;}
	.st5{opacity:0.75;}
	.st6{fill:#DC572E;}
	.st7{opacity:0.75;fill:#DC572E;}
	.st8{fill:#AD8F7B;}
	.st9{fill:#967969;}
	.st10{fill:#89684E;}
	.st11{fill:#7A5840;}
	.st12{fill:#5B4431;}
	.st13{fill:#443123;}
	.st14{opacity:0.6;fill:#8FD6EE;}
	.st15{stroke:#000000;stroke-miterlimit:10;}
	.st16{fill:#2C1F14;stroke:#2C1F14;stroke-miterlimit:10;}
	.st17{fill:#F18732;}
	.st18{fill:#EF9152;}
	.st19{fill:#EFA16C;}
	.st20{fill:#EFB289;}
	.st21{fill:#EDD0BD;}
	.st22{opacity:0.8;fill:#FAF9D4;}
	.st23{fill:#FAF9D4;}
	.st24{fill:#F37C33;}
</style>
<polygon class="st24" points="1947,491 1947,484.5 1940.5,484.5 1934,484.5 1927.6,484.5 1921.1,484.5 1921.1,478.1 1914.6,478.1 
	1908.1,478.1 1901.6,478.1 1895.1,478.1 1888.7,478.1 1888.7,471.7 1882.2,471.7 1875.7,471.7 1869.2,471.7 1862.7,471.7 
	1856.3,471.7 1849.8,471.7 1843.3,471.7 1836.8,471.7 1830.3,471.7 1823.8,471.7 1823.8,478.1 1817.4,478.1 1810.9,478.1 
	1804.4,478.1 1797.9,478.1 1791.4,478.1 1785,478.1 1778.5,478.1 1778.5,471.7 1772,471.7 1765.5,471.7 1759,471.7 1752.5,471.7 
	1746.1,471.7 1739.6,471.7 1733.1,471.7 1726.6,471.7 1720.1,471.7 1713.7,471.7 1713.7,465.2 1707.2,465.2 1700.7,465.2 
	1694.2,465.2 1687.7,465.2 1681.2,465.2 1674.8,465.2 1674.8,458.8 1668.3,458.8 1661.8,458.8 1655.3,458.8 1648.8,458.8 
	1642.4,458.8 1635.9,458.8 1629.4,458.8 1622.9,458.8 1616.4,458.8 1610,458.8 1603.5,458.8 1597,458.8 1590.5,458.8 1584,458.8 
	1577.5,458.8 1571.1,458.8 1571.1,452.3 1564.6,452.3 1558.1,452.3 1551.6,452.3 1545.1,452.3 1538.7,452.3 1532.2,452.3 
	1525.7,452.3 1525.7,445.9 1519.2,445.9 1512.7,445.9 1506.2,445.9 1499.8,445.9 1493.3,445.9 1486.8,445.9 1480.3,445.9 
	1473.8,445.9 1473.8,452.3 1467.4,452.3 1460.9,452.3 1454.4,452.3 1447.9,452.3 1447.9,445.9 1441.4,445.9 1434.9,445.9 
	1428.5,445.9 1422,445.9 1415.5,445.9 1409,445.9 1402.5,445.9 1396.1,445.9 1389.6,445.9 1383.1,445.9 1376.6,445.9 1370.1,445.9 
	1370.1,439.5 1363.6,439.5 1357.2,439.5 1350.7,439.5 1344.2,439.5 1337.7,439.5 1331.2,439.5 1324.8,439.5 1318.3,439.5 
	1318.3,445.9 1311.8,445.9 1305.3,445.9 1298.8,445.9 1292.4,445.9 1292.4,439.5 1285.9,439.5 1279.4,439.5 1272.9,439.5 
	1266.4,439.5 1259.9,439.5 1253.5,439.5 1247,439.5 1240.5,439.5 1240.5,445.9 1234,445.9 1227.5,445.9 1221.1,445.9 1214.6,445.9 
	1214.6,439.5 1208.1,439.5 1201.6,439.5 1195.1,439.5 1188.6,439.5 1182.2,439.5 1175.7,439.5 1169.2,439.5 1162.7,439.5 
	1162.7,445.9 1156.2,445.9 1149.8,445.9 1143.3,445.9 1136.8,445.9 1136.8,439.5 1130.3,439.5 1123.8,439.5 1117.3,439.5 
	1110.9,439.5 1104.4,439.5 1097.9,439.5 1091.4,439.5 1084.9,439.5 1084.9,445.9 1078.5,445.9 1072,445.9 1065.5,445.9 1059,445.9 
	1052.5,445.9 1046.1,445.9 1039.6,445.9 1033.1,445.9 1026.6,445.9 1020.1,445.9 1013.6,445.9 1007.2,445.9 1007.2,452.3 
	1000.7,452.3 994.2,452.3 987.7,452.3 981.2,452.3 981.2,445.9 974.8,445.9 968.3,445.9 961.8,445.9 955.3,445.9 948.8,445.9 
	942.3,445.9 935.9,445.9 929.4,445.9 929.4,452.3 922.9,452.3 916.4,452.3 909.9,452.3 903.5,452.3 903.5,445.9 897,445.9 
	890.5,445.9 884,445.9 877.5,445.9 871,445.9 864.6,445.9 858.1,445.9 851.6,445.9 851.6,452.3 845.1,452.3 838.6,452.3 
	832.2,452.3 825.7,452.3 825.7,445.9 819.2,445.9 812.7,445.9 806.2,445.9 799.7,445.9 793.3,445.9 786.8,445.9 780.3,445.9 
	773.8,445.9 773.8,452.3 767.3,452.3 760.9,452.3 754.4,452.3 747.9,452.3 741.4,452.3 734.9,452.3 728.5,452.3 722,452.3 
	715.5,452.3 709,452.3 702.5,452.3 696,452.3 696,458.8 689.6,458.8 683.1,458.8 676.6,458.8 670.1,458.8 663.6,458.8 657.2,458.8 
	650.7,458.8 644.2,458.8 637.7,458.8 631.2,458.8 624.7,458.8 618.3,458.8 618.3,465.2 611.8,465.2 605.3,465.2 598.8,465.2 
	592.3,465.2 592.3,458.8 585.9,458.8 579.4,458.8 572.9,458.8 566.4,458.8 559.9,458.8 559.9,465.2 553.4,465.2 547,465.2 
	540.5,465.2 534,465.2 534,471.7 527.5,471.7 521,471.7 514.6,471.7 508.1,471.7 501.6,471.7 495.1,471.7 495.1,465.2 488.6,465.2 
	482.1,465.2 475.7,465.2 469.2,465.2 462.7,465.2 456.2,465.2 449.7,465.2 443.3,465.2 436.8,465.2 436.8,458.8 430.3,458.8 
	423.8,458.8 417.3,458.8 410.9,458.8 404.4,458.8 397.9,458.8 391.4,458.8 391.4,464.3 365.5,464.3 365.5,458.8 359,458.8 
	352.5,458.8 346,458.8 339.6,458.8 333.1,458.8 326.6,458.8 320.1,458.8 313.6,458.8 307.1,458.8 300.7,458.8 300.7,464.3 
	209.9,464.3 209.9,458.8 203.4,458.8 197,458.8 190.5,458.8 184,458.8 177.5,458.8 171,458.8 164.5,458.8 158.1,458.8 151.6,458.8 
	145.1,458.8 138.6,458.8 132.1,458.8 125.7,458.8 119.2,458.8 119.2,464.3 67.3,464.3 67.3,458.8 60.8,458.8 54.4,458.8 47.9,458.8 
	41.4,458.8 34.9,458.8 28.4,458.8 22,458.8 22,465.2 15.5,465.2 9,465.2 2.5,465.2 -4,465.2 -4,471.7 -34.2,471.7 -34.2,484.5 
	-138.8,484.5 -138.8,574.8 -65.2,574.8 -65.2,1035 2005.1,1035 2005.1,491 "/>
</svg>
