<?xml version="1.0" encoding="utf-8"?>
<!-- Generator: Adobe Illustrator 16.0.0, SVG Export Plug-In . SVG Version: 6.00 Build 0)  -->
<!DOCTYPE svg PUBLIC "-//W3C//DTD SVG 1.1//EN" "http://www.w3.org/Graphics/SVG/1.1/DTD/svg11.dtd">
<svg version="1.1" id="Layer_1" xmlns="http://www.w3.org/2000/svg" xmlns:xlink="http://www.w3.org/1999/xlink" x="0px" y="0px"
	 width="507.105px" height="396.218px" viewBox="0 0 507.105 396.218" enable-background="new 0 0 507.105 396.218"
	 xml:space="preserve">
<g>
	<path d="M499.118,0h-7.931h-7.931h-7.931h-7.931v7.931h-7.931h-7.931h-7.874h-7.931v7.902h-7.93h-7.931h-7.931h-7.931h-7.931v7.931
		h-7.931h-7.931h-7.931h-7.931v7.931h-7.931h-7.931h-7.93h-7.931v7.931h-7.79h-7.931h-7.931h-7.93h-7.931v7.93h-7.931h-7.931h-7.931
		h-7.931v7.931h-7.931h-7.931h-7.931h-7.93h-7.931v7.931h-7.931h-7.79h-7.902h-7.931v7.931h-7.931h-7.93v-7.931h-7.931h-7.931
		h-7.931v-7.931h-7.931h-7.931h-7.931v-7.931h-7.931h-7.93h-7.931v-7.93h-7.931h-7.818h-7.902v-7.931h-7.931h-7.93h-7.931v-7.931
		h-7.931h-7.931h-7.93h-7.931h-7.931v7.931v7.931v7.93v7.931h7.931v7.931v7.931h7.931v7.931v7.93h7.93v7.931v7.931h7.931V111v7.931
		h7.931v7.931v7.789v7.902h7.931v7.931v7.931h7.93v7.931v7.931h7.931v7.93v7.931h7.902v7.931v7.931v7.93v7.931h-7.902v7.931v7.931
		h-7.931v7.931v7.817h-7.93v7.931v7.931h-7.931v7.931v7.931h-7.931v7.931h-7.931v7.93v7.932h-7.93v7.93v7.932h-7.931v7.93v7.932
		h-7.931v7.93v7.932H7.931v7.93v7.93H0v7.932v7.932v7.93h7.931h7.931h7.931h7.931v-7.93h7.93h7.931h7.931v-8.1h7.931h7.93h7.931
		v-7.904h7.902h7.931h7.931H111v-7.93h7.931h7.93h7.931v-7.932h7.93h7.931h7.931v-7.93h7.931v7.93h7.931h7.931v7.932h7.931h7.931
		v7.93h7.931h7.931h7.93v7.932h7.931h7.931v7.93h7.931h7.931v7.932h7.931h7.931h7.931h7.931h7.931h7.93h7.931h7.931h7.931h7.931
		h7.931h7.931h7.931h7.931h7.93h7.931h7.931h7.931h7.931h7.931h7.931h7.931h7.931h7.931h7.931h7.931h7.931h7.93h7.931h7.931v-7.932
		v-7.957v-7.904v-7.93h-7.931v-7.932v-7.93h-7.931v-7.932v-7.93h-7.93v-7.93h-7.931v-7.932v-7.93h-7.931v-7.932h-8.354v-7.93v-7.932
		h-7.931v-7.93h7.931h7.931v-7.932v-7.817v-7.902h7.931v-7.931v-7.93v-7.932v-7.93v-7.931h7.931v-7.931v-7.931v-7.931v-7.931v-7.931
		h7.931v-7.93v-7.931v-7.931v-7.818v-7.902v-7.931h7.931v-7.93v-7.931v-7.931v-7.931v-7.931h7.931v-7.93v-7.931v-7.931v-7.931
		v-7.931h7.931v-7.931v-7.93v-7.931h7.931v-7.79V7.902V0H499.118z M499.118,15.833h-7.931v7.931v7.931v7.931h-7.931v7.93v7.931
		v7.931v7.931v7.931h-7.931v7.93v7.931v7.931V111v7.931h-7.931v7.931v7.789v7.902v7.931v7.931v7.931h-7.931v7.931v7.93v7.931v7.931
		v7.931h-7.931v7.93v7.931v7.931v7.931v7.931h-7.874v7.817v7.931v7.931h-7.931h-7.93h-7.931v7.931v7.931h7.931v7.931h7.93v7.93
		v7.932h7.931v7.93h7.931v7.932v7.93h7.931v7.932h7.931v7.93v7.932h7.931v7.93v7.93h7.931v7.932v7.932h-7.931h-7.931h-7.931h-7.931
		h-7.931h-7.931h-7.93h-7.931h-7.931h-7.931h-7.931h-7.931h-7.931h-7.931h-7.931h-7.931h-7.931h-7.93h-7.931h-7.79h-7.931h-7.931
		h-7.93h-7.931h-7.931h-7.931h-7.931h-7.931v-8.1h-7.931h-7.931v-7.904h-7.931h-7.93v-7.93h-7.931h-7.931h-7.79v-7.932h-7.902
		h-7.931v-7.93h-7.931h-7.93v-7.932h-7.931h-7.931h-7.931v7.932h-7.931h-7.931h-7.931v7.93h-7.931h-7.93h-7.931v7.932h-7.931h-7.818
		h-7.902h-7.931v7.93h-7.93h-7.931h-7.931v7.932h-7.931h-7.93h-7.931v7.93h-7.931H7.931v-7.957h7.931v-7.904v-7.93h7.931v-7.932
		v-7.93h7.931v-7.932v-7.93h7.93v-7.93v-7.932h7.931v-7.93v-7.932h7.931v-7.93h7.931v-7.932v-7.93h7.93v-7.932v-7.817h7.931v-7.902
		v-7.931h7.902v-7.93v-7.932h7.931v-7.93v-7.931h7.931v-7.931v-7.931h-7.931v-7.931v-7.931h-7.931v-7.931v-7.93h-7.902v-7.931
		v-7.931h-7.931v-7.818v-7.902h-7.93v-7.931v-7.93v-7.931h-7.931v-7.931v-7.931h-7.931v-7.931v-7.93h-7.931v-7.931v-7.931h-7.93
		v-7.931v-7.931h-7.931v-7.931v-7.93h7.931h7.93h7.931v7.93h7.931h7.931h7.93v7.931h7.931h7.902h7.931v7.931h7.931H111h7.931v7.931
		h7.93h7.931h7.93v7.931h7.931h7.931h7.931v7.931h7.931h7.931h7.931h7.931v-7.931h7.931h7.931h7.93h7.931v-7.931h7.931h7.931h7.931
		h7.931h7.931v-7.931h7.931h7.931h7.931h7.93v-7.931h7.931h7.931h7.931h7.931h7.931v-7.931h7.931h7.931h7.931h7.93v-7.93h7.931
		h7.931h7.931h7.931v-7.931h7.931h7.931h7.931h7.931h7.931v-7.79h7.931h7.931h7.931h7.93V7.902h7.931h7.931h7.931v7.931H499.118z"/>
	<rect x="491.188" y="7.902" fill="#E97941" width="7.931" height="7.931"/>
	<polygon fill="#E97941" points="483.257,23.764 475.354,23.764 475.354,31.666 467.424,31.666 467.424,39.597 459.493,39.597 
		451.591,39.597 451.591,47.527 443.66,47.527 443.66,55.43 435.729,55.43 435.729,63.36 427.827,63.36 419.897,63.36 
		419.897,71.291 411.967,71.291 411.967,79.193 404.064,79.193 404.064,87.124 396.134,87.124 388.203,87.124 388.203,95.054 
		380.301,95.054 380.301,102.957 372.37,102.957 372.37,110.887 364.439,110.887 364.439,118.79 356.537,118.79 348.606,118.79 
		348.606,126.72 340.676,126.72 340.676,134.65 332.773,134.65 332.773,142.553 332.773,150.483 340.676,150.483 340.676,158.414 
		340.676,166.316 348.606,166.316 348.606,174.247 356.537,174.247 356.537,182.178 356.537,190.08 364.439,190.08 364.439,198.01 
		372.37,198.01 372.37,205.941 372.37,213.844 380.301,213.844 380.301,221.773 388.203,221.773 388.203,229.705 388.203,237.607 
		396.134,237.607 396.134,245.537 404.064,245.537 404.064,253.468 404.064,261.37 411.967,261.37 411.967,269.301 419.897,269.301 
		427.827,269.301 435.729,269.301 443.66,269.301 443.66,261.37 443.66,253.468 443.66,245.537 451.591,245.537 451.591,237.607 
		451.591,229.705 451.591,221.773 451.591,213.844 451.591,205.941 459.493,205.941 459.493,198.01 459.493,190.08 459.493,182.178 
		459.493,174.247 459.493,166.316 467.424,166.316 467.424,158.414 467.424,150.483 467.424,142.553 467.424,134.65 467.424,126.72 
		467.424,118.79 475.354,118.79 475.354,110.887 475.354,102.957 475.354,95.054 475.354,87.124 475.354,79.193 483.257,79.193 
		483.257,71.291 483.257,63.36 483.257,55.43 483.257,47.527 483.257,39.597 491.188,39.597 491.188,31.666 491.188,23.764 
		491.188,15.833 483.257,15.833 	"/>
	<polygon fill="#F7AE1A" points="483.257,7.902 475.354,7.902 475.354,15.833 467.424,15.833 459.493,15.833 451.591,15.833 
		443.66,15.833 443.66,23.764 435.729,23.764 427.827,23.764 419.897,23.764 411.967,23.764 404.064,23.764 404.064,31.666 
		396.134,31.666 388.203,31.666 380.301,31.666 372.37,31.666 372.37,39.597 364.439,39.597 356.537,39.597 348.606,39.597 
		340.676,39.597 340.676,47.527 332.773,47.527 324.843,47.527 316.912,47.527 309.01,47.527 301.079,47.527 301.079,55.43 
		293.149,55.43 285.247,55.43 277.316,55.43 269.386,55.43 269.386,63.36 261.483,63.36 253.553,63.36 245.65,63.36 237.72,63.36 
		229.789,63.36 229.789,71.291 221.887,71.291 213.956,71.291 206.025,71.291 198.123,71.291 198.123,79.193 190.192,79.193 
		182.262,79.193 182.262,87.124 174.359,87.124 174.359,95.054 174.359,102.957 166.429,102.957 166.429,110.887 166.429,118.79 
		158.499,118.79 158.499,126.72 150.597,126.72 150.597,134.65 150.597,142.553 142.666,142.553 142.666,150.483 134.735,150.483 
		134.735,158.414 134.735,166.316 126.833,166.316 126.833,174.247 126.833,182.178 118.902,182.178 118.902,190.08 110.972,190.08 
		110.972,198.01 110.972,205.941 103.069,205.941 103.069,213.844 95.139,213.844 95.139,221.773 95.139,229.705 87.208,229.705 
		87.208,237.607 87.208,245.537 79.306,245.537 79.306,253.468 79.306,261.37 71.375,261.37 71.375,269.301 71.375,277.231 
		63.445,277.231 63.445,285.134 63.445,293.064 55.542,293.064 55.542,300.996 47.612,300.996 47.612,308.898 47.612,316.828 
		39.681,316.828 39.681,324.758 39.681,332.66 31.779,332.66 31.779,340.592 31.779,348.521 23.848,348.521 23.848,356.424 
		23.848,364.355 15.917,364.355 15.917,372.285 15.917,380.189 8.015,380.189 8.015,388.119 15.917,388.119 23.848,388.119 
		23.848,380.189 23.848,372.285 31.779,372.285 39.681,372.285 39.681,364.355 47.612,364.355 55.542,364.355 55.542,356.424 
		63.445,356.424 63.445,348.521 71.375,348.521 71.375,340.592 79.306,340.592 87.208,340.592 87.208,332.66 95.139,332.66 
		95.139,324.758 103.069,324.758 103.069,316.828 110.972,316.828 110.972,308.898 118.902,308.898 126.833,308.898 
		126.833,300.996 134.735,300.996 134.735,293.064 142.666,293.064 142.666,285.134 150.597,285.134 150.597,277.231 
		158.499,277.231 158.499,269.301 166.429,269.301 174.359,269.301 174.359,261.37 182.262,261.37 182.262,253.468 190.192,253.468 
		190.192,245.537 198.123,245.537 206.025,245.537 206.025,237.607 213.956,237.607 213.956,229.705 221.887,229.705 
		221.887,221.773 229.789,221.773 237.72,221.773 237.72,213.844 245.65,213.844 245.65,205.941 253.553,205.941 253.553,198.01 
		261.483,198.01 261.483,190.08 269.386,190.08 269.386,182.178 277.316,182.178 285.247,182.178 285.247,174.247 293.149,174.247 
		293.149,166.316 301.079,166.316 301.079,158.414 309.01,158.414 316.912,158.414 316.912,150.483 324.843,150.483 
		324.843,142.553 332.773,142.553 332.773,134.65 340.676,134.65 340.676,126.72 348.606,126.72 348.606,118.79 356.537,118.79 
		364.439,118.79 364.439,110.887 372.37,110.887 372.37,102.957 380.301,102.957 380.301,95.054 388.203,95.054 388.203,87.124 
		396.134,87.124 404.064,87.124 404.064,79.193 411.967,79.193 411.967,71.291 419.897,71.291 419.897,63.36 427.827,63.36 
		435.729,63.36 435.729,55.43 443.66,55.43 443.66,47.527 451.591,47.527 451.591,39.597 459.493,39.597 467.424,39.597 
		467.424,31.666 475.354,31.666 475.354,23.764 483.257,23.764 483.257,15.833 491.188,15.833 491.188,7.902 	"/>
	<rect x="475.354" y="372.285" fill="#E94441" width="7.931" height="7.932"/>
	<polygon fill="#A71E33" points="467.424,364.355 459.493,364.355 451.591,364.355 451.591,356.424 443.66,356.424 443.66,348.521 
		435.729,348.521 435.729,340.592 427.827,340.592 419.897,340.592 419.897,332.66 411.967,332.66 411.967,324.758 404.064,324.758 
		404.064,316.828 396.134,316.828 388.203,316.828 388.203,308.898 380.301,308.898 380.301,300.996 372.37,300.996 372.37,293.064 
		364.439,293.064 356.537,293.064 356.537,285.134 348.606,285.134 348.606,277.231 340.676,277.231 340.676,269.301 
		332.773,269.301 324.843,269.301 324.843,261.37 316.912,261.37 316.912,253.468 309.01,253.468 309.01,245.537 301.079,245.537 
		293.149,245.537 293.149,237.607 285.247,237.607 285.247,229.705 277.316,229.705 277.316,221.773 269.386,221.773 
		261.483,221.773 261.483,213.844 253.553,213.844 253.553,205.941 245.65,205.941 245.65,213.844 237.72,213.844 237.72,221.773 
		229.789,221.773 221.887,221.773 221.887,229.705 213.956,229.705 213.956,237.607 206.025,237.607 206.025,245.537 
		198.123,245.537 190.192,245.537 190.192,253.468 182.262,253.468 182.262,261.37 174.359,261.37 174.359,269.301 166.429,269.301 
		158.499,269.301 158.499,277.231 150.597,277.231 150.597,285.134 142.666,285.134 142.666,293.064 150.597,293.064 
		150.597,300.996 150.597,308.898 158.499,308.898 158.499,316.828 158.499,324.758 166.429,324.758 166.429,332.66 
		166.429,340.592 174.359,340.592 174.359,348.521 182.262,348.521 190.192,348.521 190.192,356.424 198.123,356.424 
		206.025,356.424 206.025,364.355 213.956,364.355 221.887,364.355 229.789,364.355 229.789,372.285 237.72,372.285 245.65,372.285 
		245.65,380.189 253.553,380.189 261.483,380.189 261.483,388.119 269.386,388.119 277.316,388.119 285.247,388.119 
		293.149,388.119 301.079,388.119 309.01,388.119 316.912,388.119 324.843,388.119 332.773,388.119 340.676,388.119 
		348.606,388.119 356.537,388.119 364.439,388.119 372.37,388.119 380.301,388.119 388.203,388.119 396.134,388.119 
		404.064,388.119 411.967,388.119 419.897,388.119 427.827,388.119 435.729,388.119 443.66,388.119 451.591,388.119 
		459.493,388.119 467.424,388.119 475.354,388.119 483.257,388.119 483.257,380.189 475.354,380.189 475.354,372.285 
		467.424,372.285 	"/>
	<polygon fill="#E94441" points="411.967,261.37 404.064,261.37 404.064,253.468 404.064,245.537 396.134,245.537 396.134,237.607 
		388.203,237.607 388.203,229.705 388.203,221.773 380.301,221.773 380.301,213.844 372.37,213.844 372.37,205.941 372.37,198.01 
		364.439,198.01 364.439,190.08 356.537,190.08 356.537,182.178 356.537,174.247 348.606,174.247 348.606,166.316 340.676,166.316 
		340.676,158.414 340.676,150.483 332.773,150.483 332.773,142.553 324.843,142.553 324.843,150.483 316.912,150.483 
		316.912,158.414 309.01,158.414 301.079,158.414 301.079,166.316 293.149,166.316 293.149,174.247 285.247,174.247 
		285.247,182.178 277.316,182.178 269.386,182.178 269.386,190.08 261.483,190.08 261.483,198.01 253.553,198.01 253.553,205.941 
		253.553,213.844 261.483,213.844 261.483,221.773 269.386,221.773 277.316,221.773 277.316,229.705 285.247,229.705 
		285.247,237.607 293.149,237.607 293.149,245.537 301.079,245.537 309.01,245.537 309.01,253.468 316.912,253.468 316.912,261.37 
		324.843,261.37 324.843,269.301 332.773,269.301 340.676,269.301 340.676,277.231 348.606,277.231 348.606,285.134 
		356.537,285.134 356.537,293.064 364.439,293.064 372.37,293.064 372.37,300.996 380.301,300.996 380.301,308.898 388.203,308.898 
		388.203,316.828 396.134,316.828 404.064,316.828 404.064,324.758 411.967,324.758 411.967,332.66 419.897,332.66 419.897,340.592 
		427.827,340.592 435.729,340.592 435.729,348.521 443.66,348.521 443.66,356.424 451.591,356.424 451.591,364.355 459.493,364.355 
		467.424,364.355 467.424,372.285 475.354,372.285 475.354,364.355 475.354,356.424 467.424,356.424 467.424,348.521 
		467.424,340.592 459.493,340.592 459.493,332.66 451.591,332.66 451.591,324.758 451.591,316.828 443.66,316.828 443.66,308.898 
		435.729,308.898 435.729,300.996 435.729,293.064 427.827,293.064 427.827,285.134 419.897,285.134 419.897,277.231 
		419.897,269.301 411.967,269.301 	"/>
	<polygon fill="#E97941" points="166.429,324.758 158.499,324.758 158.499,316.828 158.499,308.898 150.597,308.898 
		150.597,300.996 150.597,293.064 142.666,293.064 134.735,293.064 134.735,300.996 126.833,300.996 126.833,308.898 
		118.902,308.898 110.972,308.898 110.972,316.828 103.069,316.828 103.069,324.758 95.139,324.758 95.139,332.66 87.208,332.66 
		87.208,340.592 79.306,340.592 71.375,340.592 71.375,348.521 63.445,348.521 63.445,356.424 55.542,356.424 55.542,364.355 
		47.612,364.355 39.681,364.355 39.681,372.285 31.779,372.285 23.848,372.285 23.848,380.189 31.779,380.189 39.681,380.189 
		47.612,380.189 47.612,372.285 55.542,372.285 63.445,372.285 71.375,372.285 71.375,364.355 79.306,364.355 87.208,364.355 
		95.139,364.355 103.069,364.355 103.069,356.424 110.972,356.424 118.902,356.424 126.833,356.424 126.833,348.521 
		134.735,348.521 142.666,348.521 150.597,348.521 150.597,340.592 158.499,340.592 166.429,340.592 166.429,332.66 	"/>
	<polygon fill="#A61E32" points="110.972,198.01 110.972,190.08 118.902,190.08 118.902,182.178 126.833,182.178 126.833,174.247 
		126.833,166.316 134.735,166.316 134.735,158.414 134.735,150.483 142.666,150.483 142.666,142.553 150.597,142.553 
		150.597,134.65 150.597,126.72 142.666,126.72 142.666,118.79 134.735,118.79 134.735,110.887 126.833,110.887 118.902,110.887 
		118.902,102.957 110.972,102.957 110.972,95.054 103.069,95.054 95.139,95.054 95.139,87.124 87.208,87.124 87.208,79.193 
		79.306,79.193 79.306,71.291 71.375,71.291 71.375,63.36 63.445,63.36 55.542,63.36 55.542,55.43 47.612,55.43 47.612,47.527 
		39.681,47.527 39.681,39.597 31.779,39.597 31.779,31.666 23.848,31.666 23.848,39.597 23.848,47.527 31.779,47.527 31.779,55.43 
		31.779,63.36 39.681,63.36 39.681,71.291 39.681,79.193 47.612,79.193 47.612,87.124 47.612,95.054 55.542,95.054 55.542,102.957 
		55.542,110.887 63.445,110.887 63.445,118.79 63.445,126.72 63.445,134.65 71.375,134.65 71.375,142.553 71.375,150.483 
		79.306,150.483 79.306,158.414 79.306,166.316 87.208,166.316 87.208,174.247 87.208,182.178 95.139,182.178 95.139,190.08 
		95.139,198.01 103.069,198.01 103.069,205.941 110.972,205.941 	"/>
	<polygon fill="#E94441" points="39.681,39.597 39.681,47.527 47.612,47.527 47.612,55.43 55.542,55.43 55.542,63.36 63.445,63.36 
		71.375,63.36 71.375,71.291 79.306,71.291 79.306,79.193 87.208,79.193 87.208,87.124 95.139,87.124 95.139,95.054 103.069,95.054 
		110.972,95.054 110.972,102.957 118.902,102.957 118.902,110.887 126.833,110.887 134.735,110.887 134.735,118.79 142.666,118.79 
		142.666,126.72 150.597,126.72 158.499,126.72 158.499,118.79 166.429,118.79 166.429,110.887 166.429,102.957 174.359,102.957 
		174.359,95.054 174.359,87.124 182.262,87.124 182.262,79.193 174.359,79.193 166.429,79.193 166.429,71.291 158.499,71.291 
		150.597,71.291 142.666,71.291 142.666,63.36 134.735,63.36 126.833,63.36 118.902,63.36 118.902,55.43 110.972,55.43 
		103.069,55.43 95.139,55.43 95.139,47.527 87.208,47.527 79.306,47.527 71.375,47.527 71.375,39.597 63.445,39.597 55.542,39.597 
		47.612,39.597 47.612,31.666 39.681,31.666 31.779,31.666 31.779,39.597 	"/>
</g>
</svg>
