<?xml version="1.0" encoding="utf-8"?>
<!-- Generator: Adobe Illustrator 16.0.0, SVG Export Plug-In . SVG Version: 6.00 Build 0)  -->
<!DOCTYPE svg PUBLIC "-//W3C//DTD SVG 1.1//EN" "http://www.w3.org/Graphics/SVG/1.1/DTD/svg11.dtd">
<svg version="1.1" id="Layer_15" xmlns="http://www.w3.org/2000/svg" xmlns:xlink="http://www.w3.org/1999/xlink" x="0px" y="0px"
	 width="1900px" height="900px" viewBox="0 0 1900 900" enable-background="new 0 0 1900 900" xml:space="preserve">
<title>pixelOslo_plane_grouped-01</title>
<polygon fill="#BC202D" points="1817.871,0 1753.612,0 1753.612,64.258 1689.354,64.258 1689.354,128.645 1753.612,128.645 
	1817.871,128.645 1882.129,128.645 1882.129,64.258 1882.129,0 "/>
<path fill="#FFFFFF" d="M1754.128,128.516h-64.516v64.516h-64.516v64.516H467.935v321.419h321.42v-64.517h64.516v64.517h64.516
	v64.516h64.518V708h64.516v64.516h64.516v64.517h64.516V514.193h64.518v64.517h448.645v-64.517h64.516v-64.516h64.518v-64.517
	h64.516V128.516H1754.128z M1625.097,449.936h-64.516v-64.517h64.516V449.936z M1303.677,385.419h64.516v64.517h-64.516V385.419z
	 M1432.708,385.419h64.518v64.517h-64.518V385.419z M1111.288,449.936h-64.516v-64.517h64.516V449.936z M918.386,385.419h64.518
	v64.517h-64.518V385.419z M725.483,449.936h-64.516v-64.517h64.516V449.936z M532.581,385.419h64.516v64.517h-64.516V385.419z
	 M789.743,449.936v-64.517h64.516v64.517H789.743z M1175.421,449.936v-64.517h64.516v64.517H1175.421z"/>
<rect x="1560.71" y="385.678" fill="#7BC1E4" width="64.258" height="64.258"/>
<rect x="1432.193" y="385.678" fill="#7BC1E4" width="64.259" height="64.258"/>
<rect x="1303.548" y="385.678" fill="#7BC1E4" width="64.259" height="64.258"/>
<polygon fill="#A3A3A3" points="1175.032,514.322 1175.032,578.581 1175.032,642.839 1175.032,707.097 1175.032,771.484 
	1175.032,835.742 1110.646,835.742 1110.646,900 1175.032,900 1239.29,900 1239.29,835.742 1239.29,771.484 1239.29,707.097 
	1239.29,642.839 1239.29,578.581 1239.29,514.322 "/>
<rect x="1175.032" y="385.678" fill="#7BC1E4" width="64.258" height="64.258"/>
<rect x="1046.387" y="771.484" fill="#A3A3A3" width="64.259" height="64.258"/>
<rect x="1046.387" y="385.678" fill="#7BC1E4" width="64.259" height="64.258"/>
<rect x="982.129" y="707.097" fill="#A3A3A3" width="64.259" height="64.258"/>
<rect x="917.871" y="642.839" fill="#A3A3A3" width="64.258" height="64.258"/>
<rect x="917.871" y="385.678" fill="#7BC1E4" width="64.258" height="64.258"/>
<rect x="853.612" y="578.581" fill="#A3A3A3" width="64.259" height="64.258"/>
<rect x="789.354" y="514.322" fill="#A3A3A3" width="64.259" height="64.259"/>
<rect x="789.354" y="385.678" fill="#7BC1E4" width="64.259" height="64.258"/>
<rect x="660.71" y="385.678" fill="#7BC1E4" width="64.258" height="64.258"/>
<rect x="532.193" y="385.678" fill="#7BC1E4" width="64.259" height="64.258"/>
<path fill="#BC202D" d="M467.935,449.936h-64.516V385.42h64.516V256.387h-321.42v64.516h64.516v129.032H81.999V385.42H17.481
	v129.031h64.518v64.517h385.678V449.936H467.935z M275.032,385.42h64.516v64.516h-64.516V385.42z"/>
<rect x="403.548" y="385.678" fill="#7BC1E4" width="64.258" height="64.258"/>
<rect x="275.032" y="385.678" fill="#7BC1E4" width="64.258" height="64.258"/>
<polygon fill="#7BC1E4" points="146.387,450.064 210.774,450.064 210.774,385.678 210.774,321.419 146.387,321.419 146.387,385.678 
	82.129,385.678 82.129,450.064 "/>
<rect x="82.129" y="321.419" fill="#BC202D" width="64.258" height="64.259"/>
</svg>
