<?xml version="1.0" encoding="utf-8"?>
<!-- Generator: Adobe Illustrator 16.0.0, SVG Export Plug-In . SVG Version: 6.00 Build 0)  -->
<!DOCTYPE svg PUBLIC "-//W3C//DTD SVG 1.1//EN" "http://www.w3.org/Graphics/SVG/1.1/DTD/svg11.dtd">
<svg version="1.1" id="Layer_1" xmlns="http://www.w3.org/2000/svg" xmlns:xlink="http://www.w3.org/1999/xlink" x="0px" y="0px"
	 width="90.399px" height="33.6px" viewBox="0 0 90.399 33.6" enable-background="new 0 0 90.399 33.6" xml:space="preserve">
<g>
	<polygon fill="#F3AD68" points="2.568,18.106 5.137,18.106 5.137,15.537 7.747,15.537 7.747,12.926 7.747,10.358 7.747,7.748 
		10.315,7.748 10.315,5.179 12.884,5.179 12.884,2.611 15.494,2.611 15.494,0 18.063,0 20.631,0 23.242,0 23.242,2.611 
		25.811,2.611 25.811,5.179 28.421,5.179 28.421,7.748 30.989,7.748 33.558,7.748 33.558,5.179 36.168,5.179 36.168,2.611 
		38.736,2.611 41.305,2.611 41.305,0 43.915,0 46.483,0 49.053,0 49.053,2.611 51.663,2.611 54.231,2.611 54.231,5.179 
		56.842,5.179 56.842,7.748 59.41,7.748 59.41,5.179 61.979,5.179 64.589,5.179 67.157,5.179 69.726,5.179 69.726,7.748 
		72.336,7.748 74.905,7.748 77.474,7.748 80.084,7.748 80.084,10.358 82.652,10.358 85.221,10.358 87.831,10.358 87.831,12.926 
		87.831,15.537 90.399,15.537 90.399,18.106 87.831,18.106 85.221,18.106 85.221,15.537 85.221,12.926 82.652,12.926 80.084,12.926 
		80.084,15.537 77.474,15.537 77.474,12.926 74.905,12.926 74.905,10.358 72.336,10.358 69.726,10.358 67.157,10.358 67.157,7.748 
		64.589,7.748 61.979,7.748 61.979,10.358 59.41,10.358 59.41,12.926 56.842,12.926 54.231,12.926 54.231,10.358 54.231,7.748 
		51.663,7.748 51.663,5.179 49.053,5.179 46.483,5.179 46.483,2.611 43.915,2.611 43.915,5.179 41.305,5.179 38.736,5.179 
		38.736,7.748 36.168,7.748 36.168,10.358 33.558,10.358 33.558,12.926 30.989,12.926 30.989,15.537 28.421,15.537 28.421,12.926 
		28.421,10.358 25.811,10.358 25.811,7.748 23.242,7.748 23.242,5.179 20.631,5.179 20.631,2.611 18.063,2.611 18.063,5.179 
		15.494,5.179 15.494,7.748 12.884,7.748 12.884,10.358 10.315,10.358 10.315,12.926 10.315,15.537 10.315,18.106 7.747,18.106 
		7.747,20.674 5.137,20.674 2.568,20.674 0,20.674 0,18.106 	"/>
	<polygon fill="#D37730" points="5.137,20.674 7.747,20.674 7.747,23.285 10.315,23.285 12.884,23.285 15.494,23.285 18.063,23.285 
		20.631,23.285 20.631,25.853 18.063,25.853 15.494,25.853 12.884,25.853 10.315,25.853 7.747,25.853 5.137,25.853 2.568,25.853 
		2.568,23.285 0,23.285 0,20.674 2.568,20.674 	"/>
	<polygon fill="#F19849" points="18.063,23.285 15.494,23.285 12.884,23.285 10.315,23.285 7.747,23.285 7.747,20.674 7.747,18.106 
		10.315,18.106 10.315,15.537 10.315,12.926 10.315,10.358 12.884,10.358 12.884,7.748 15.494,7.748 15.494,5.179 18.063,5.179 
		18.063,2.611 20.631,2.611 20.631,5.179 23.242,5.179 23.242,7.748 25.811,7.748 25.811,10.358 28.421,10.358 28.421,12.926 
		28.421,15.537 30.989,15.537 30.989,12.926 33.558,12.926 33.558,10.358 36.168,10.358 36.168,7.748 38.736,7.748 38.736,5.179 
		41.305,5.179 43.915,5.179 43.915,2.611 46.483,2.611 46.483,5.179 49.053,5.179 51.663,5.179 51.663,7.748 54.231,7.748 
		54.231,10.358 54.231,12.926 56.842,12.926 59.41,12.926 59.41,10.358 61.979,10.358 61.979,7.748 64.589,7.748 67.157,7.748 
		67.157,10.358 69.726,10.358 72.336,10.358 74.905,10.358 74.905,12.926 77.474,12.926 77.474,15.537 80.084,15.537 80.084,12.926 
		82.652,12.926 85.221,12.926 85.221,15.537 85.221,18.106 87.831,18.106 90.399,18.106 90.399,20.674 87.831,20.674 87.831,23.285 
		87.831,25.853 85.221,25.853 82.652,25.853 82.652,28.421 80.084,28.421 77.474,28.421 74.905,28.421 72.336,28.421 69.726,28.421 
		69.726,25.853 67.157,25.853 64.589,25.853 61.979,25.853 59.41,25.853 56.842,25.853 56.842,28.421 54.231,28.421 51.663,28.421 
		49.053,28.421 46.483,28.421 43.915,28.421 41.305,28.421 41.305,25.853 38.736,25.853 36.168,25.853 33.558,25.853 30.989,25.853 
		28.421,25.853 25.811,25.853 23.242,25.853 20.631,25.853 20.631,23.285 	"/>
	<polygon fill="#D37730" points="25.811,25.853 28.421,25.853 30.989,25.853 33.558,25.853 36.168,25.853 38.736,25.853 
		41.305,25.853 41.305,28.421 43.915,28.421 46.483,28.421 49.053,28.421 51.663,28.421 54.231,28.421 56.842,28.421 56.842,25.853 
		59.41,25.853 61.979,25.853 64.589,25.853 67.157,25.853 69.726,25.853 69.726,28.421 72.336,28.421 74.905,28.421 77.474,28.421 
		80.084,28.421 82.652,28.421 82.652,25.853 85.221,25.853 87.831,25.853 87.831,28.421 85.221,28.421 85.221,31.032 82.652,31.032 
		80.084,31.032 80.084,33.6 77.474,33.6 74.905,33.6 72.336,33.6 72.336,31.032 69.726,31.032 67.157,31.032 64.589,31.032 
		64.589,33.6 61.979,33.6 59.41,33.6 56.842,33.6 54.231,33.6 54.231,31.032 51.663,31.032 49.053,31.032 46.483,31.032 
		43.915,31.032 41.305,31.032 38.736,31.032 36.168,31.032 33.558,31.032 30.989,31.032 28.421,31.032 25.811,31.032 25.811,28.421 
		23.242,28.421 20.631,28.421 20.631,25.853 23.242,25.853 	"/>
</g>
</svg>
