<?xml version="1.0" encoding="utf-8"?>
<!-- Generator: Adobe Illustrator 16.0.0, SVG Export Plug-In . SVG Version: 6.00 Build 0)  -->
<!DOCTYPE svg PUBLIC "-//W3C//DTD SVG 1.1//EN" "http://www.w3.org/Graphics/SVG/1.1/DTD/svg11.dtd">
<svg version="1.1" id="Layer_1" xmlns="http://www.w3.org/2000/svg" xmlns:xlink="http://www.w3.org/1999/xlink" x="0px" y="0px"
	 width="186.021px" height="49.095px" viewBox="0 0 186.021 49.095" enable-background="new 0 0 186.021 49.095"
	 xml:space="preserve">
<g>
	<polygon fill="#F19849" points="183.453,31.032 183.453,28.421 180.843,28.421 180.843,25.853 178.273,25.853 178.273,23.284 
		178.273,20.674 175.663,20.674 173.095,20.674 173.095,23.284 170.526,23.284 167.916,23.284 167.916,25.853 165.348,25.853 
		165.348,23.284 165.348,20.674 165.348,18.105 165.348,15.537 165.348,12.926 162.779,12.926 162.779,10.358 160.169,10.358 
		157.601,10.358 155.032,10.358 152.421,10.358 149.853,10.358 147.284,10.358 147.284,7.79 144.674,7.79 142.105,7.79 
		139.495,7.79 136.927,7.79 136.927,10.358 134.358,10.358 134.358,12.926 131.748,12.926 129.18,12.926 129.18,10.358 
		126.61,10.358 126.61,7.79 124,7.79 124,10.358 121.432,10.358 118.863,10.358 116.253,10.358 113.685,10.358 111.074,10.358 
		108.506,10.358 108.506,12.926 108.506,15.537 105.938,15.537 105.938,18.105 105.938,20.674 103.326,20.674 100.758,20.674 
		100.758,18.105 98.189,18.105 95.579,18.105 93.011,18.105 93.011,20.674 90.442,20.674 87.832,20.674 87.832,23.284 
		85.264,23.284 82.653,23.284 82.653,25.853 80.084,25.853 77.516,25.853 77.516,28.421 74.905,28.421 72.337,28.421 72.337,31.032 
		72.337,33.6 74.905,33.6 77.516,33.6 77.516,36.21 80.084,36.21 80.084,38.779 82.653,38.779 85.264,38.779 87.832,38.779 
		87.832,41.347 90.442,41.347 90.442,38.779 93.011,38.779 95.579,38.779 98.189,38.779 100.758,38.779 100.758,41.347 
		103.326,41.347 105.938,41.347 108.506,41.347 108.506,38.779 111.074,38.779 113.685,38.779 116.253,38.779 118.863,38.779 
		121.432,38.779 121.432,41.347 124,41.347 126.61,41.347 129.18,41.347 131.748,41.347 134.358,41.347 136.927,41.347 
		139.495,41.347 142.105,41.347 144.674,41.347 144.674,38.779 147.284,38.779 149.853,38.779 149.853,41.347 152.421,41.347 
		155.032,41.347 157.601,41.347 157.601,38.779 160.169,38.779 162.779,38.779 165.348,38.779 167.916,38.779 170.526,38.779 
		173.095,38.779 175.663,38.779 178.273,38.779 180.843,38.779 183.453,38.779 186.021,38.779 186.021,36.21 186.021,33.6 
		186.021,31.032 	"/>
	<polygon fill="#D37730" points="178.273,38.779 175.663,38.779 173.095,38.779 170.526,38.779 167.916,38.779 165.348,38.779 
		162.779,38.779 160.169,38.779 157.601,38.779 157.601,41.347 155.032,41.347 152.421,41.347 149.853,41.347 149.853,38.779 
		147.284,38.779 144.674,38.779 144.674,41.347 142.105,41.347 139.495,41.347 136.927,41.347 134.358,41.347 131.748,41.347 
		129.18,41.347 126.61,41.347 124,41.347 121.432,41.347 121.432,38.779 118.863,38.779 116.253,38.779 113.685,38.779 
		111.074,38.779 108.506,38.779 108.506,41.347 105.938,41.347 103.326,41.347 100.758,41.347 100.758,38.779 98.189,38.779 
		95.579,38.779 93.011,38.779 90.442,38.779 90.442,41.347 87.832,41.347 87.832,38.779 85.264,38.779 82.653,38.779 80.084,38.779 
		80.084,36.21 77.516,36.21 77.516,33.6 74.905,33.6 72.337,33.6 72.337,36.21 74.905,36.21 74.905,38.779 77.516,38.779 
		77.516,41.347 80.084,41.347 80.084,43.958 82.653,43.958 85.264,43.958 87.832,43.958 90.442,43.958 93.011,43.958 95.579,43.958 
		98.189,43.958 100.758,43.958 103.326,43.958 105.938,43.958 105.938,46.527 108.506,46.527 111.074,46.527 113.685,46.527 
		116.253,46.527 118.863,46.527 121.432,46.527 124,46.527 126.61,46.527 126.61,43.958 129.18,43.958 131.748,43.958 
		134.358,43.958 136.927,43.958 136.927,46.527 139.495,46.527 142.105,46.527 144.674,46.527 147.284,46.527 149.853,46.527 
		152.421,46.527 152.421,49.095 155.032,49.095 157.601,49.095 157.601,46.527 160.169,46.527 160.169,43.958 162.779,43.958 
		162.779,41.347 165.348,41.347 167.916,41.347 170.526,41.347 173.095,41.347 175.663,41.347 178.273,41.347 180.843,41.347 
		183.453,41.347 183.453,38.779 180.843,38.779 	"/>
	<polygon fill="#F3AD68" points="77.516,28.421 77.516,25.853 80.084,25.853 82.653,25.853 82.653,23.284 85.264,23.284 
		87.832,23.284 87.832,20.674 90.442,20.674 93.011,20.674 93.011,18.105 95.579,18.105 98.189,18.105 100.758,18.105 
		100.758,20.674 103.326,20.674 105.938,20.674 105.938,18.105 105.938,15.537 108.506,15.537 108.506,12.926 108.506,10.358 
		111.074,10.358 113.685,10.358 116.253,10.358 118.863,10.358 121.432,10.358 124,10.358 124,7.79 126.61,7.79 126.61,10.358 
		129.18,10.358 129.18,12.926 131.748,12.926 134.358,12.926 134.358,10.358 136.927,10.358 136.927,7.79 139.495,7.79 
		142.105,7.79 144.674,7.79 147.284,7.79 147.284,10.358 149.853,10.358 152.421,10.358 155.032,10.358 157.601,10.358 
		160.169,10.358 162.779,10.358 162.779,12.926 165.348,12.926 165.348,15.537 165.348,18.105 165.348,20.674 165.348,23.284 
		165.348,25.853 167.916,25.853 167.916,23.284 170.526,23.284 173.095,23.284 173.095,20.674 175.663,20.674 178.273,20.674 
		178.273,23.284 178.273,25.853 180.843,25.853 180.843,28.421 183.453,28.421 183.453,25.853 183.453,23.284 180.843,23.284 
		180.843,20.674 180.843,18.105 178.273,18.105 175.663,18.105 175.663,15.537 173.095,15.537 173.095,18.105 170.526,18.105 
		170.526,15.537 167.916,15.537 167.916,12.926 167.916,10.358 165.348,10.358 165.348,7.79 162.779,7.79 160.169,7.79 
		157.601,7.79 155.032,7.79 152.421,7.79 149.853,7.79 149.853,5.179 149.853,2.611 147.284,2.611 144.674,2.611 144.674,0 
		142.105,0 139.495,0 136.927,0 136.927,2.611 134.358,2.611 134.358,5.179 131.748,5.179 129.18,5.179 126.61,5.179 126.61,2.611 
		124,2.611 124,0 121.432,0 118.863,0 118.863,2.611 116.253,2.611 116.253,5.179 113.685,5.179 111.074,5.179 108.506,5.179 
		108.506,7.79 105.938,7.79 105.938,10.358 105.938,12.926 103.326,12.926 100.758,12.926 100.758,15.537 98.189,15.537 
		95.579,15.537 93.011,15.537 90.442,15.537 90.442,18.105 87.832,18.105 85.264,18.105 85.264,20.674 82.653,20.674 80.084,20.674 
		80.084,23.284 77.516,23.284 74.905,23.284 74.905,25.853 72.337,25.853 72.337,28.421 74.905,28.421 	"/>
</g>
<g>
	<polygon fill="#F19849" points="129.18,25.853 129.18,23.284 126.61,23.284 126.61,20.674 126.61,18.105 124,18.105 
		121.432,18.105 118.863,18.105 118.863,15.537 116.253,15.537 113.685,15.537 111.074,15.537 111.074,18.105 108.506,18.105 
		108.506,20.674 105.938,20.674 105.938,23.284 103.326,23.284 103.326,20.674 103.326,18.105 100.758,18.105 100.758,15.537 
		98.189,15.537 95.579,15.537 95.579,12.926 93.011,12.926 90.442,12.926 90.442,10.358 87.832,10.358 85.264,10.358 82.653,10.358 
		80.084,10.358 80.084,7.79 77.516,7.79 74.905,7.79 74.905,5.179 72.337,5.179 69.769,5.179 67.158,5.179 64.59,5.179 
		62.021,5.179 59.411,5.179 59.411,7.79 56.842,7.79 56.842,10.358 54.273,10.358 51.663,10.358 51.663,12.926 49.095,12.926 
		49.095,15.537 46.484,15.537 46.484,18.105 46.484,20.674 43.916,20.674 41.348,20.674 41.348,18.105 38.737,18.105 36.169,18.105 
		36.169,15.537 36.169,12.926 33.601,12.926 33.601,10.358 30.99,10.358 28.421,10.358 28.421,12.926 25.853,12.926 23.242,12.926 
		23.242,15.537 20.674,15.537 18.063,15.537 18.063,18.105 15.495,18.105 12.927,18.105 12.927,20.674 12.927,23.284 12.927,25.853 
		10.316,25.853 7.748,25.853 5.18,25.853 5.18,28.421 2.568,28.421 0,28.421 0,31.032 0,33.6 2.568,33.6 5.18,33.6 5.18,36.168 
		7.748,36.168 7.748,38.779 10.316,38.779 10.316,41.347 12.927,41.347 15.495,41.347 18.063,41.347 20.674,41.347 23.242,41.347 
		25.853,41.347 28.421,41.347 28.421,43.958 30.99,43.958 33.601,43.958 36.169,43.958 38.737,43.958 41.348,43.958 43.916,43.958 
		46.484,43.958 49.095,43.958 51.663,43.958 54.273,43.958 56.842,43.958 59.411,43.958 62.021,43.958 62.021,46.527 64.59,46.527 
		67.158,46.527 69.769,46.527 72.337,46.527 74.905,46.527 77.516,46.527 80.084,46.527 80.084,43.958 82.653,43.958 85.264,43.958 
		87.832,43.958 90.442,43.958 93.011,43.958 95.579,43.958 95.579,41.347 98.189,41.347 100.758,41.347 103.326,41.347 
		105.938,41.347 108.506,41.347 111.074,41.347 113.685,41.347 116.253,41.347 118.863,41.347 121.432,41.347 124,41.347 
		126.61,41.347 126.61,38.779 126.61,36.168 129.18,36.168 131.748,36.168 131.748,33.6 131.748,31.032 131.748,28.421 
		131.748,25.853 	"/>
	<polygon fill="#D37730" points="126.61,36.168 126.61,38.779 126.61,41.347 124,41.347 121.432,41.347 118.863,41.347 
		116.253,41.347 113.685,41.347 111.074,41.347 108.506,41.347 105.938,41.347 103.326,41.347 100.758,41.347 98.189,41.347 
		95.579,41.347 95.579,43.958 93.011,43.958 90.442,43.958 87.832,43.958 85.264,43.958 82.653,43.958 80.084,43.958 80.084,46.527 
		77.516,46.527 74.905,46.527 72.337,46.527 69.769,46.527 67.158,46.527 64.59,46.527 62.021,46.527 62.021,43.958 59.411,43.958 
		56.842,43.958 54.273,43.958 51.663,43.958 49.095,43.958 46.484,43.958 43.916,43.958 41.348,43.958 38.737,43.958 36.169,43.958 
		33.601,43.958 30.99,43.958 28.421,43.958 28.421,41.347 25.853,41.347 23.242,41.347 20.674,41.347 18.063,41.347 15.495,41.347 
		12.927,41.347 10.316,41.347 10.316,38.779 7.748,38.779 7.748,36.168 5.18,36.168 5.18,33.6 2.568,33.6 0,33.6 0,36.168 
		2.568,36.168 2.568,38.779 5.18,38.779 5.18,41.347 7.748,41.347 7.748,43.958 10.316,43.958 10.316,46.527 12.927,46.527 
		15.495,46.527 18.063,46.527 20.674,46.527 23.242,46.527 25.853,46.527 28.421,46.527 30.99,46.527 33.601,46.527 36.169,46.527 
		36.169,49.095 38.737,49.095 41.348,49.095 43.916,49.095 46.484,49.095 49.095,49.095 51.663,49.095 54.273,49.095 56.842,49.095 
		59.411,49.095 62.021,49.095 64.59,49.095 67.158,49.095 69.769,49.095 72.337,49.095 74.905,49.095 77.516,49.095 80.084,49.095 
		82.653,49.095 82.653,46.527 85.264,46.527 87.832,46.527 90.442,46.527 93.011,46.527 95.579,46.527 98.189,46.527 
		100.758,46.527 103.326,46.527 105.938,46.527 108.506,46.527 111.074,46.527 113.685,46.527 116.253,46.527 118.863,46.527 
		121.432,46.527 124,46.527 124,43.958 126.61,43.958 129.18,43.958 129.18,41.347 129.18,38.779 131.748,38.779 131.748,36.168 
		129.18,36.168 	"/>
	<polygon fill="#F3AD68" points="5.18,25.853 7.748,25.853 10.316,25.853 12.927,25.853 12.927,23.284 12.927,20.674 12.927,18.105 
		15.495,18.105 18.063,18.105 18.063,15.537 20.674,15.537 23.242,15.537 23.242,12.926 25.853,12.926 28.421,12.926 28.421,10.358 
		30.99,10.358 33.601,10.358 33.601,12.926 36.169,12.926 36.169,15.537 36.169,18.105 38.737,18.105 41.348,18.105 41.348,20.674 
		43.916,20.674 46.484,20.674 46.484,18.105 46.484,15.537 49.095,15.537 49.095,12.926 51.663,12.926 51.663,10.358 54.273,10.358 
		56.842,10.358 56.842,7.79 59.411,7.79 59.411,5.179 62.021,5.179 64.59,5.179 67.158,5.179 69.769,5.179 72.337,5.179 
		74.905,5.179 74.905,7.79 77.516,7.79 80.084,7.79 80.084,10.358 82.653,10.358 85.264,10.358 87.832,10.358 90.442,10.358 
		90.442,12.926 93.011,12.926 95.579,12.926 95.579,15.537 98.189,15.537 100.758,15.537 100.758,18.105 103.326,18.105 
		103.326,20.674 103.326,23.284 105.938,23.284 105.938,20.674 108.506,20.674 108.506,18.105 111.074,18.105 111.074,15.537 
		113.685,15.537 116.253,15.537 118.863,15.537 118.863,18.105 121.432,18.105 124,18.105 126.61,18.105 126.61,20.674 
		126.61,23.284 129.18,23.284 129.18,20.674 129.18,18.105 129.18,15.537 126.61,15.537 126.61,12.926 124,12.926 124,10.358 
		121.432,10.358 118.863,10.358 116.253,10.358 113.685,10.358 111.074,10.358 111.074,12.926 108.506,12.926 105.938,12.926 
		103.326,12.926 100.758,12.926 98.189,12.926 98.189,10.358 95.579,10.358 93.011,10.358 93.011,7.79 90.442,7.79 87.832,7.79 
		85.264,7.79 82.653,7.79 82.653,5.179 80.084,5.179 77.516,5.179 77.516,2.611 74.905,2.611 72.337,2.611 72.337,0 69.769,0 
		67.158,0 64.59,0 62.021,0 59.411,0 56.842,0 56.842,2.611 54.273,2.611 54.273,5.179 51.663,5.179 51.663,7.79 49.095,7.79 
		46.484,7.79 46.484,10.358 43.916,10.358 41.348,10.358 38.737,10.358 36.169,10.358 36.169,7.79 33.601,7.79 30.99,7.79 
		28.421,7.79 25.853,7.79 23.242,7.79 23.242,10.358 20.674,10.358 18.063,10.358 18.063,12.926 15.495,12.926 12.927,12.926 
		12.927,15.537 10.316,15.537 10.316,18.105 7.748,18.105 7.748,20.674 7.748,23.284 5.18,23.284 2.568,23.284 2.568,25.853 
		2.568,28.421 5.18,28.421 	"/>
</g>
</svg>
