<?xml version="1.0" encoding="utf-8"?>
<!-- Generator: Adobe Illustrator 16.0.0, SVG Export Plug-In . SVG Version: 6.00 Build 0)  -->
<!DOCTYPE svg PUBLIC "-//W3C//DTD SVG 1.1//EN" "http://www.w3.org/Graphics/SVG/1.1/DTD/svg11.dtd">
<svg version="1.1" id="Layer_1" xmlns="http://www.w3.org/2000/svg" xmlns:xlink="http://www.w3.org/1999/xlink" x="0px" y="0px"
	 width="151.158px" height="58.568px" viewBox="0 0 151.158 58.568" enable-background="new 0 0 151.158 58.568"
	 xml:space="preserve">
<g>
	<polygon fill="#F19849" points="2.61,25.853 2.61,23.242 5.18,23.242 5.18,20.673 5.18,18.105 7.79,18.105 10.358,18.105 
		12.927,18.105 12.927,15.495 15.537,15.495 18.105,15.495 20.674,15.495 20.674,18.105 23.284,18.105 23.284,20.673 25.853,20.673 
		25.853,23.242 28.421,23.242 28.421,20.673 28.421,18.105 31.032,18.105 31.032,15.495 33.601,15.495 36.211,15.495 36.211,12.926 
		38.779,12.926 41.348,12.926 41.348,10.315 43.958,10.315 46.526,10.315 49.095,10.315 51.705,10.315 51.705,7.747 54.274,7.747 
		56.843,7.747 56.843,5.179 59.453,5.179 62.021,5.179 64.59,5.179 67.2,5.179 69.769,5.179 72.379,5.179 72.379,7.747 
		74.947,7.747 74.947,10.315 77.516,10.315 80.127,10.315 80.127,12.926 82.695,12.926 82.695,15.495 85.264,15.495 85.264,18.105 
		85.264,20.673 87.874,20.673 90.442,20.673 90.442,18.105 93.011,18.105 95.621,18.105 95.621,15.495 95.621,12.926 98.189,12.926 
		98.189,10.315 100.801,10.315 103.369,10.315 103.369,12.926 105.938,12.926 108.548,12.926 108.548,15.495 111.116,15.495 
		113.685,15.495 113.685,18.105 116.295,18.105 118.863,18.105 118.863,20.673 118.863,23.242 118.863,25.853 121.432,25.853 
		124.042,25.853 126.61,25.853 126.61,28.421 129.18,28.421 131.79,28.421 131.79,30.989 131.79,33.6 129.18,33.6 126.61,33.6 
		126.61,36.169 124.042,36.169 124.042,38.737 121.432,38.737 121.432,41.347 118.863,41.347 116.295,41.347 113.685,41.347 
		111.116,41.347 108.548,41.347 105.938,41.347 103.369,41.347 103.369,43.915 100.801,43.915 98.189,43.915 95.621,43.915 
		93.011,43.915 90.442,43.915 87.874,43.915 85.264,43.915 82.695,43.915 80.127,43.915 77.516,43.915 74.947,43.915 72.379,43.915 
		69.769,43.915 69.769,46.483 67.2,46.483 64.59,46.483 62.021,46.483 59.453,46.483 56.843,46.483 54.274,46.483 51.705,46.483 
		51.705,43.915 49.095,43.915 46.526,43.915 43.958,43.915 41.348,43.915 38.779,43.915 36.211,43.915 36.211,41.347 33.601,41.347 
		31.032,41.347 28.421,41.347 25.853,41.347 23.284,41.347 20.674,41.347 18.105,41.347 15.537,41.347 12.927,41.347 10.358,41.347 
		7.79,41.347 5.18,41.347 5.18,38.737 5.18,36.169 2.61,36.169 0,36.169 0,33.6 0,30.989 0,28.421 0,25.853 	"/>
	<polygon fill="#D37730" points="5.18,36.169 5.18,38.737 5.18,41.347 7.79,41.347 10.358,41.347 12.927,41.347 15.537,41.347 
		18.105,41.347 20.674,41.347 23.284,41.347 25.853,41.347 28.421,41.347 31.032,41.347 33.601,41.347 36.211,41.347 36.211,43.915 
		38.779,43.915 41.348,43.915 43.958,43.915 46.526,43.915 49.095,43.915 51.705,43.915 51.705,46.483 54.274,46.483 56.843,46.483 
		59.453,46.483 62.021,46.483 64.59,46.483 67.2,46.483 69.769,46.483 69.769,43.915 72.379,43.915 74.947,43.915 77.516,43.915 
		80.127,43.915 82.695,43.915 85.264,43.915 87.874,43.915 90.442,43.915 93.011,43.915 95.621,43.915 98.189,43.915 
		100.801,43.915 103.369,43.915 103.369,41.347 105.938,41.347 108.548,41.347 111.116,41.347 113.685,41.347 116.295,41.347 
		118.863,41.347 121.432,41.347 121.432,38.737 124.042,38.737 124.042,36.169 126.61,36.169 126.61,33.6 129.18,33.6 131.79,33.6 
		131.79,36.169 129.18,36.169 129.18,38.737 126.61,38.737 126.61,41.347 124.042,41.347 124.042,43.915 121.432,43.915 
		121.432,46.483 118.863,46.483 116.295,46.483 113.685,46.483 111.116,46.483 108.548,46.483 105.938,46.483 103.369,46.483 
		100.801,46.483 98.189,46.483 95.621,46.483 95.621,49.095 93.011,49.095 90.442,49.095 87.874,49.095 85.264,49.095 
		82.695,49.095 80.127,49.095 77.516,49.095 74.947,49.095 72.379,49.095 69.769,49.095 67.2,49.095 64.59,49.095 62.021,49.095 
		59.453,49.095 56.843,49.095 54.274,49.095 51.705,49.095 49.095,49.095 49.095,46.483 46.526,46.483 43.958,46.483 41.348,46.483 
		38.779,46.483 36.211,46.483 33.601,46.483 31.032,46.483 28.421,46.483 25.853,46.483 23.284,46.483 20.674,46.483 18.105,46.483 
		15.537,46.483 12.927,46.483 10.358,46.483 7.79,46.483 7.79,43.915 5.18,43.915 2.61,43.915 2.61,41.347 2.61,38.737 0,38.737 
		0,36.169 2.61,36.169 	"/>
	<polygon fill="#F3AD68" points="126.61,25.853 124.042,25.853 121.432,25.853 118.863,25.853 118.863,23.242 118.863,20.673 
		118.863,18.105 116.295,18.105 113.685,18.105 113.685,15.495 111.116,15.495 108.548,15.495 108.548,12.926 105.938,12.926 
		103.369,12.926 103.369,10.315 100.801,10.315 98.189,10.315 98.189,12.926 95.621,12.926 95.621,15.495 95.621,18.105 
		93.011,18.105 90.442,18.105 90.442,20.673 87.874,20.673 85.264,20.673 85.264,18.105 85.264,15.495 82.695,15.495 82.695,12.926 
		80.127,12.926 80.127,10.315 77.516,10.315 74.947,10.315 74.947,7.747 72.379,7.747 72.379,5.179 69.769,5.179 67.2,5.179 
		64.59,5.179 62.021,5.179 59.453,5.179 56.843,5.179 56.843,7.747 54.274,7.747 51.705,7.747 51.705,10.315 49.095,10.315 
		46.526,10.315 43.958,10.315 41.348,10.315 41.348,12.926 38.779,12.926 36.211,12.926 36.211,15.495 33.601,15.495 31.032,15.495 
		31.032,18.105 28.421,18.105 28.421,20.673 28.421,23.242 25.853,23.242 25.853,20.673 23.284,20.673 23.284,18.105 20.674,18.105 
		20.674,15.495 18.105,15.495 15.537,15.495 12.927,15.495 12.927,18.105 10.358,18.105 7.79,18.105 5.18,18.105 5.18,20.673 
		5.18,23.242 2.61,23.242 2.61,20.673 2.61,18.105 2.61,15.495 5.18,15.495 5.18,12.926 7.79,12.926 7.79,10.315 10.358,10.315 
		12.927,10.315 15.537,10.315 18.105,10.315 20.674,10.315 20.674,12.926 23.284,12.926 25.853,12.926 28.421,12.926 31.032,12.926 
		33.601,12.926 33.601,10.315 36.211,10.315 38.779,10.315 38.779,7.747 41.348,7.747 43.958,7.747 46.526,7.747 49.095,7.747 
		49.095,5.179 51.705,5.179 54.274,5.179 54.274,2.568 56.843,2.568 59.453,2.568 59.453,0 62.021,0 64.59,0 67.2,0 69.769,0 
		72.379,0 74.947,0 74.947,2.568 77.516,2.568 77.516,5.179 80.127,5.179 80.127,7.747 82.695,7.747 85.264,7.747 85.264,10.315 
		87.874,10.315 90.442,10.315 93.011,10.315 95.621,10.315 95.621,7.747 98.189,7.747 100.801,7.747 103.369,7.747 105.938,7.747 
		108.548,7.747 108.548,10.315 111.116,10.315 113.685,10.315 113.685,12.926 116.295,12.926 118.863,12.926 118.863,15.495 
		121.432,15.495 121.432,18.105 124.042,18.105 124.042,20.673 124.042,23.242 126.61,23.242 129.18,23.242 129.18,25.853 
		129.18,28.421 126.61,28.421 	"/>
</g>
<g>
	<polygon fill="#F19849" points="40.084,40.505 40.084,37.895 42.652,37.895 42.652,35.326 45.264,35.326 45.264,32.758 
		45.264,30.147 47.832,30.147 50.4,30.147 50.4,32.758 53.011,32.758 55.579,32.758 55.579,35.326 58.147,35.326 58.147,32.758 
		58.147,30.147 58.147,27.579 58.147,24.968 58.147,22.4 60.758,22.4 60.758,19.832 63.326,19.832 65.938,19.832 68.506,19.832 
		71.074,19.832 73.685,19.832 76.253,19.832 76.253,17.221 78.821,17.221 81.432,17.221 84,17.221 86.568,17.221 86.568,19.832 
		89.18,19.832 89.18,22.4 91.748,22.4 94.358,22.4 94.358,19.832 96.927,19.832 96.927,17.221 99.495,17.221 99.495,19.832 
		102.105,19.832 104.674,19.832 107.242,19.832 109.853,19.832 112.421,19.832 114.99,19.832 114.99,22.4 114.99,24.968 
		117.601,24.968 117.601,27.579 117.601,30.147 120.169,30.147 122.779,30.147 122.779,27.579 125.348,27.579 127.916,27.579 
		130.526,27.579 130.526,30.147 133.095,30.147 135.663,30.147 135.663,32.758 138.274,32.758 140.843,32.758 140.843,35.326 
		143.411,35.326 146.021,35.326 146.021,37.895 148.59,37.895 151.158,37.895 151.158,40.505 151.158,43.073 148.59,43.073 
		146.021,43.073 146.021,45.642 143.411,45.642 143.411,48.253 140.843,48.253 138.274,48.253 135.663,48.253 135.663,50.821 
		133.095,50.821 133.095,48.253 130.526,48.253 127.916,48.253 125.348,48.253 122.779,48.253 122.779,50.821 120.169,50.821 
		117.601,50.821 114.99,50.821 114.99,48.253 112.421,48.253 109.853,48.253 107.242,48.253 104.674,48.253 102.105,48.253 
		102.105,50.821 99.495,50.821 96.927,50.821 94.358,50.821 91.748,50.821 89.18,50.821 86.568,50.821 84,50.821 81.432,50.821 
		78.821,50.821 78.821,48.253 76.253,48.253 73.685,48.253 73.685,50.821 71.074,50.821 68.506,50.821 65.938,50.821 65.938,48.253 
		63.326,48.253 60.758,48.253 58.147,48.253 55.579,48.253 53.011,48.253 50.4,48.253 47.832,48.253 45.264,48.253 42.652,48.253 
		40.084,48.253 37.516,48.253 37.516,45.642 37.516,43.073 37.516,40.505 	"/>
	<polygon fill="#D37730" points="45.264,48.253 47.832,48.253 50.4,48.253 53.011,48.253 55.579,48.253 58.147,48.253 
		60.758,48.253 63.326,48.253 65.938,48.253 65.938,50.821 68.506,50.821 71.074,50.821 73.685,50.821 73.685,48.253 76.253,48.253 
		78.821,48.253 78.821,50.821 81.432,50.821 84,50.821 86.568,50.821 89.18,50.821 91.748,50.821 94.358,50.821 96.927,50.821 
		99.495,50.821 102.105,50.821 102.105,48.253 104.674,48.253 107.242,48.253 109.853,48.253 112.421,48.253 114.99,48.253 
		114.99,50.821 117.601,50.821 120.169,50.821 122.779,50.821 122.779,48.253 125.348,48.253 127.916,48.253 130.526,48.253 
		133.095,48.253 133.095,50.821 135.663,50.821 135.663,48.253 138.274,48.253 140.843,48.253 143.411,48.253 143.411,45.642 
		146.021,45.642 146.021,43.073 148.59,43.073 151.158,43.073 151.158,45.642 148.59,45.642 148.59,48.253 146.021,48.253 
		146.021,50.821 143.411,50.821 143.411,53.39 140.843,53.39 138.274,53.39 135.663,53.39 133.095,53.39 130.526,53.39 
		127.916,53.39 125.348,53.39 122.779,53.39 120.169,53.39 117.601,53.39 117.601,56 114.99,56 112.421,56 109.853,56 107.242,56 
		104.674,56 102.105,56 99.495,56 96.927,56 96.927,53.39 94.358,53.39 91.748,53.39 89.18,53.39 86.568,53.39 86.568,56 84,56 
		81.432,56 78.821,56 76.253,56 73.685,56 71.074,56 71.074,58.568 68.506,58.568 65.938,58.568 65.938,56 63.326,56 63.326,53.39 
		60.758,53.39 60.758,50.821 58.147,50.821 55.579,50.821 53.011,50.821 50.4,50.821 47.832,50.821 45.264,50.821 42.652,50.821 
		40.084,50.821 40.084,48.253 42.652,48.253 	"/>
	<polygon fill="#F3AD68" points="146.021,37.895 146.021,35.326 143.411,35.326 140.843,35.326 140.843,32.758 138.274,32.758 
		135.663,32.758 135.663,30.147 133.095,30.147 130.526,30.147 130.526,27.579 127.916,27.579 125.348,27.579 122.779,27.579 
		122.779,30.147 120.169,30.147 117.601,30.147 117.601,27.579 117.601,24.968 114.99,24.968 114.99,22.4 114.99,19.832 
		112.421,19.832 109.853,19.832 107.242,19.832 104.674,19.832 102.105,19.832 99.495,19.832 99.495,17.221 96.927,17.221 
		96.927,19.832 94.358,19.832 94.358,22.4 91.748,22.4 89.18,22.4 89.18,19.832 86.568,19.832 86.568,17.221 84,17.221 
		81.432,17.221 78.821,17.221 76.253,17.221 76.253,19.832 73.685,19.832 71.074,19.832 68.506,19.832 65.938,19.832 63.326,19.832 
		60.758,19.832 60.758,22.4 58.147,22.4 58.147,24.968 58.147,27.579 58.147,30.147 58.147,32.758 58.147,35.326 55.579,35.326 
		55.579,32.758 53.011,32.758 50.4,32.758 50.4,30.147 47.832,30.147 45.264,30.147 45.264,32.758 45.264,35.326 42.652,35.326 
		42.652,37.895 40.084,37.895 40.084,35.326 40.084,32.758 42.652,32.758 42.652,30.147 42.652,27.579 45.264,27.579 47.832,27.579 
		47.832,24.968 50.4,24.968 50.4,27.579 53.011,27.579 53.011,24.968 55.579,24.968 55.579,22.4 55.579,19.832 58.147,19.832 
		58.147,17.221 60.758,17.221 63.326,17.221 65.938,17.221 68.506,17.221 71.074,17.221 73.685,17.221 73.685,14.652 73.685,12.084 
		76.253,12.084 78.821,12.084 78.821,9.474 81.432,9.474 84,9.474 86.568,9.474 86.568,12.084 89.18,12.084 89.18,14.652 
		91.748,14.652 94.358,14.652 96.927,14.652 96.927,12.084 99.495,12.084 99.495,9.474 102.105,9.474 104.674,9.474 104.674,12.084 
		107.242,12.084 107.242,14.652 109.853,14.652 112.421,14.652 114.99,14.652 114.99,17.221 117.601,17.221 117.601,19.832 
		117.601,22.4 120.169,22.4 122.779,22.4 122.779,24.968 125.348,24.968 127.916,24.968 130.526,24.968 133.095,24.968 
		133.095,27.579 135.663,27.579 138.274,27.579 138.274,30.147 140.843,30.147 143.411,30.147 143.411,32.758 146.021,32.758 
		148.59,32.758 148.59,35.326 151.158,35.326 151.158,37.895 148.59,37.895 	"/>
</g>
</svg>
