<?xml version="1.0" encoding="utf-8"?>
<!-- Generator: Adobe Illustrator 16.0.0, SVG Export Plug-In . SVG Version: 6.00 Build 0)  -->
<!DOCTYPE svg PUBLIC "-//W3C//DTD SVG 1.1//EN" "http://www.w3.org/Graphics/SVG/1.1/DTD/svg11.dtd">
<svg version="1.1" id="Layer_1" xmlns="http://www.w3.org/2000/svg" xmlns:xlink="http://www.w3.org/1999/xlink" x="0px" y="0px"
	 width="133.979px" height="51.495px" viewBox="0 0 133.979 51.495" enable-background="new 0 0 133.979 51.495"
	 xml:space="preserve">
<g>
	<polygon fill="#F19849" points="129.179,25.853 129.179,23.284 126.61,23.284 126.61,20.674 126.61,18.105 124.042,18.105 
		121.432,18.105 118.863,18.105 118.863,15.537 116.252,15.537 113.684,15.537 111.115,15.537 111.115,18.105 108.505,18.105 
		108.505,20.674 105.937,20.674 105.937,23.284 103.368,23.284 103.368,20.674 103.368,18.105 100.758,18.105 100.758,15.537 
		98.189,15.537 95.621,15.537 95.621,12.926 93.01,12.926 90.441,12.926 90.441,10.358 87.832,10.358 85.263,10.358 82.694,10.358 
		80.084,10.358 80.084,7.748 77.516,7.748 74.947,7.748 74.947,5.179 72.336,5.179 69.768,5.179 67.199,5.179 64.589,5.179 
		62.021,5.179 59.453,5.179 59.453,7.748 56.842,7.748 56.842,10.358 54.273,10.358 51.663,10.358 51.663,12.926 49.095,12.926 
		49.095,15.537 46.526,15.537 46.526,18.105 46.526,20.674 43.916,20.674 41.347,20.674 41.347,18.105 38.779,18.105 36.168,18.105 
		36.168,15.537 36.168,12.926 33.6,12.926 33.6,10.358 31.031,10.358 28.421,10.358 28.421,12.926 25.853,12.926 23.242,12.926 
		23.242,15.537 20.673,15.537 18.105,15.537 18.105,18.105 15.495,18.105 12.926,18.105 12.926,20.674 12.926,23.284 12.926,25.853 
		10.357,25.853 7.747,25.853 5.179,25.853 5.179,28.421 2.61,28.421 0,28.421 0,31.032 0,33.6 2.61,33.6 5.179,33.6 5.179,36.168 
		7.747,36.168 7.747,38.779 10.357,38.779 10.357,41.347 12.926,41.347 15.495,41.347 18.105,41.347 20.673,41.347 23.242,41.347 
		25.853,41.347 28.421,41.347 28.421,43.916 31.031,43.916 33.6,43.916 36.168,43.916 38.779,43.916 41.347,43.916 43.916,43.916 
		46.526,43.916 49.095,43.916 51.663,43.916 54.273,43.916 56.842,43.916 59.453,43.916 62.021,43.916 62.021,46.527 64.589,46.527 
		67.199,46.527 69.768,46.527 72.336,46.527 74.947,46.527 77.516,46.527 80.084,46.527 80.084,43.916 82.694,43.916 85.263,43.916 
		87.832,43.916 90.441,43.916 93.01,43.916 95.621,43.916 95.621,41.347 98.189,41.347 100.758,41.347 103.368,41.347 
		105.937,41.347 108.505,41.347 111.115,41.347 113.684,41.347 116.252,41.347 118.863,41.347 121.432,41.347 124.042,41.347 
		126.61,41.347 126.61,38.779 126.61,36.168 129.179,36.168 131.789,36.168 131.789,33.6 131.789,31.032 131.789,28.421 
		131.789,25.853 	"/>
	<polygon fill="#D37730" points="126.61,36.168 126.61,38.779 126.61,41.347 124.042,41.347 121.432,41.347 118.863,41.347 
		116.252,41.347 113.684,41.347 111.115,41.347 108.505,41.347 105.937,41.347 103.368,41.347 100.758,41.347 98.189,41.347 
		95.621,41.347 95.621,43.916 93.01,43.916 90.441,43.916 87.832,43.916 85.263,43.916 82.694,43.916 80.084,43.916 80.084,46.527 
		77.516,46.527 74.947,46.527 72.336,46.527 69.768,46.527 67.199,46.527 64.589,46.527 62.021,46.527 62.021,43.916 59.453,43.916 
		56.842,43.916 54.273,43.916 51.663,43.916 49.095,43.916 46.526,43.916 43.916,43.916 41.347,43.916 38.779,43.916 36.168,43.916 
		33.6,43.916 31.031,43.916 28.421,43.916 28.421,41.347 25.853,41.347 23.242,41.347 20.673,41.347 18.105,41.347 15.495,41.347 
		12.926,41.347 10.357,41.347 10.357,38.779 7.747,38.779 7.747,36.168 5.179,36.168 5.179,33.6 2.61,33.6 0,33.6 0,36.168 
		2.61,36.168 2.61,38.779 5.179,38.779 5.179,41.347 7.747,41.347 7.747,43.916 10.357,43.916 10.357,46.527 12.926,46.527 
		15.495,46.527 18.105,46.527 20.673,46.527 23.242,46.527 25.853,46.527 28.421,46.527 31.031,46.527 33.6,46.527 36.168,46.527 
		36.168,49.095 38.779,49.095 41.347,49.095 43.916,49.095 46.526,49.095 49.095,49.095 51.663,49.095 54.273,49.095 56.842,49.095 
		59.453,49.095 62.021,49.095 64.589,49.095 67.199,49.095 69.768,49.095 72.336,49.095 74.947,49.095 77.516,49.095 80.084,49.095 
		82.694,49.095 82.694,46.527 85.263,46.527 87.832,46.527 90.441,46.527 93.01,46.527 95.621,46.527 98.189,46.527 100.758,46.527 
		103.368,46.527 105.937,46.527 108.505,46.527 111.115,46.527 113.684,46.527 116.252,46.527 118.863,46.527 121.432,46.527 
		124.042,46.527 124.042,43.916 126.61,43.916 129.179,43.916 129.179,41.347 129.179,38.779 131.789,38.779 131.789,36.168 
		129.179,36.168 	"/>
	<polygon fill="#F3AD68" points="5.179,25.853 7.747,25.853 10.357,25.853 12.926,25.853 12.926,23.284 12.926,20.674 
		12.926,18.105 15.495,18.105 18.105,18.105 18.105,15.537 20.673,15.537 23.242,15.537 23.242,12.926 25.853,12.926 28.421,12.926 
		28.421,10.358 31.031,10.358 33.6,10.358 33.6,12.926 36.168,12.926 36.168,15.537 36.168,18.105 38.779,18.105 41.347,18.105 
		41.347,20.674 43.916,20.674 46.526,20.674 46.526,18.105 46.526,15.537 49.095,15.537 49.095,12.926 51.663,12.926 51.663,10.358 
		54.273,10.358 56.842,10.358 56.842,7.748 59.453,7.748 59.453,5.179 62.021,5.179 64.589,5.179 67.199,5.179 69.768,5.179 
		72.336,5.179 74.947,5.179 74.947,7.748 77.516,7.748 80.084,7.748 80.084,10.358 82.694,10.358 85.263,10.358 87.832,10.358 
		90.441,10.358 90.441,12.926 93.01,12.926 95.621,12.926 95.621,15.537 98.189,15.537 100.758,15.537 100.758,18.105 
		103.368,18.105 103.368,20.674 103.368,23.284 105.937,23.284 105.937,20.674 108.505,20.674 108.505,18.105 111.115,18.105 
		111.115,15.537 113.684,15.537 116.252,15.537 118.863,15.537 118.863,18.105 121.432,18.105 124.042,18.105 126.61,18.105 
		126.61,20.674 126.61,23.284 129.179,23.284 129.179,20.674 129.179,18.105 129.179,15.537 126.61,15.537 126.61,12.926 
		124.042,12.926 124.042,10.358 121.432,10.358 118.863,10.358 116.252,10.358 113.684,10.358 111.115,10.358 111.115,12.926 
		108.505,12.926 105.937,12.926 103.368,12.926 100.758,12.926 98.189,12.926 98.189,10.358 95.621,10.358 93.01,10.358 
		93.01,7.748 90.441,7.748 87.832,7.748 85.263,7.748 82.694,7.748 82.694,5.179 80.084,5.179 77.516,5.179 77.516,2.61 
		74.947,2.61 72.336,2.61 72.336,0 69.768,0 67.199,0 64.589,0 62.021,0 59.453,0 56.842,0 56.842,2.61 54.273,2.61 54.273,5.179 
		51.663,5.179 51.663,7.748 49.095,7.748 46.526,7.748 46.526,10.358 43.916,10.358 41.347,10.358 38.779,10.358 36.168,10.358 
		36.168,7.748 33.6,7.748 31.031,7.748 28.421,7.748 25.853,7.748 23.242,7.748 23.242,10.358 20.673,10.358 18.105,10.358 
		18.105,12.926 15.495,12.926 12.926,12.926 12.926,15.537 10.357,15.537 10.357,18.105 7.747,18.105 7.747,20.674 7.747,23.284 
		5.179,23.284 2.61,23.284 2.61,25.853 2.61,28.421 5.179,28.421 	"/>
</g>
<g>
	<polygon fill="#F3AD68" points="131.41,36 128.8,36 128.8,33.431 126.231,33.431 126.231,30.821 126.231,28.252 126.231,25.684 
		123.663,25.684 123.663,23.074 121.053,23.074 121.053,20.505 118.484,20.505 118.484,17.937 115.916,17.937 113.305,17.937 
		110.736,17.937 110.736,20.505 108.168,20.505 108.168,23.074 105.558,23.074 105.558,25.684 102.989,25.684 100.421,25.684 
		100.421,23.074 97.811,23.074 97.811,20.505 95.242,20.505 92.631,20.505 92.631,17.937 90.063,17.937 87.494,17.937 
		84.884,17.937 84.884,20.505 82.315,20.505 79.747,20.505 79.747,23.074 77.137,23.074 77.137,25.684 74.568,25.684 74.568,23.074 
		72,23.074 69.389,23.074 66.821,23.074 64.21,23.074 64.21,25.684 61.642,25.684 59.073,25.684 56.463,25.684 53.895,25.684 
		53.895,28.252 51.326,28.252 48.715,28.252 46.147,28.252 46.147,30.821 46.147,33.431 43.579,33.431 43.579,36 46.147,36 
		48.715,36 48.715,33.431 48.715,30.821 51.326,30.821 53.895,30.821 53.895,33.431 56.463,33.431 56.463,30.821 59.073,30.821 
		59.073,28.252 61.642,28.252 64.21,28.252 66.821,28.252 66.821,25.684 69.389,25.684 72,25.684 72,28.252 74.568,28.252 
		74.568,30.821 77.137,30.821 79.747,30.821 79.747,28.252 79.747,25.684 82.315,25.684 82.315,23.074 84.884,23.074 87.494,23.074 
		87.494,20.505 90.063,20.505 90.063,23.074 92.631,23.074 95.242,23.074 95.242,25.684 97.811,25.684 97.811,28.252 
		100.421,28.252 100.421,30.821 102.989,30.821 102.989,33.431 105.558,33.431 105.558,30.821 105.558,28.252 108.168,28.252 
		108.168,25.684 110.736,25.684 110.736,23.074 113.305,23.074 113.305,20.505 115.916,20.505 115.916,23.074 118.484,23.074 
		118.484,25.684 121.053,25.684 121.053,28.252 123.663,28.252 123.663,30.821 123.663,33.431 123.663,36 126.231,36 
		126.231,38.568 128.8,38.568 131.41,38.568 133.979,38.568 133.979,36 	"/>
	<polygon fill="#D37730" points="128.8,38.568 126.231,38.568 126.231,41.179 123.663,41.179 121.053,41.179 118.484,41.179 
		115.916,41.179 113.305,41.179 113.305,43.748 115.916,43.748 118.484,43.748 121.053,43.748 123.663,43.748 126.231,43.748 
		128.8,43.748 131.41,43.748 131.41,41.179 133.979,41.179 133.979,38.568 131.41,38.568 	"/>
	<polygon fill="#F19849" points="115.916,41.179 118.484,41.179 121.053,41.179 123.663,41.179 126.231,41.179 126.231,38.568 
		126.231,36 123.663,36 123.663,33.431 123.663,30.821 123.663,28.252 121.053,28.252 121.053,25.684 118.484,25.684 
		118.484,23.074 115.916,23.074 115.916,20.505 113.305,20.505 113.305,23.074 110.736,23.074 110.736,25.684 108.168,25.684 
		108.168,28.252 105.558,28.252 105.558,30.821 105.558,33.431 102.989,33.431 102.989,30.821 100.421,30.821 100.421,28.252 
		97.811,28.252 97.811,25.684 95.242,25.684 95.242,23.074 92.631,23.074 90.063,23.074 90.063,20.505 87.494,20.505 87.494,23.074 
		84.884,23.074 82.315,23.074 82.315,25.684 79.747,25.684 79.747,28.252 79.747,30.821 77.137,30.821 74.568,30.821 74.568,28.252 
		72,28.252 72,25.684 69.389,25.684 66.821,25.684 66.821,28.252 64.21,28.252 61.642,28.252 59.073,28.252 59.073,30.821 
		56.463,30.821 56.463,33.431 53.895,33.431 53.895,30.821 51.326,30.821 48.715,30.821 48.715,33.431 48.715,36 46.147,36 
		43.579,36 43.579,38.568 46.147,38.568 46.147,41.179 46.147,43.748 48.715,43.748 51.326,43.748 51.326,46.358 53.895,46.358 
		56.463,46.358 59.073,46.358 61.642,46.358 64.21,46.358 64.21,43.748 66.821,43.748 69.389,43.748 72,43.748 74.568,43.748 
		77.137,43.748 77.137,46.358 79.747,46.358 82.315,46.358 84.884,46.358 87.494,46.358 90.063,46.358 92.631,46.358 92.631,43.748 
		95.242,43.748 97.811,43.748 100.421,43.748 102.989,43.748 105.558,43.748 108.168,43.748 110.736,43.748 113.305,43.748 
		113.305,41.179 	"/>
	<polygon fill="#D37730" points="108.168,43.748 105.558,43.748 102.989,43.748 100.421,43.748 97.811,43.748 95.242,43.748 
		92.631,43.748 92.631,46.358 90.063,46.358 87.494,46.358 84.884,46.358 82.315,46.358 79.747,46.358 77.137,46.358 77.137,43.748 
		74.568,43.748 72,43.748 69.389,43.748 66.821,43.748 64.21,43.748 64.21,46.358 61.642,46.358 59.073,46.358 56.463,46.358 
		53.895,46.358 51.326,46.358 51.326,43.748 48.715,43.748 46.147,43.748 46.147,46.358 48.715,46.358 48.715,48.926 51.326,48.926 
		53.895,48.926 53.895,51.495 56.463,51.495 59.073,51.495 61.642,51.495 61.642,48.926 64.21,48.926 66.821,48.926 69.389,48.926 
		69.389,51.495 72,51.495 74.568,51.495 77.137,51.495 79.747,51.495 79.747,48.926 82.315,48.926 84.884,48.926 87.494,48.926 
		90.063,48.926 92.631,48.926 95.242,48.926 97.811,48.926 100.421,48.926 102.989,48.926 105.558,48.926 108.168,48.926 
		108.168,46.358 110.736,46.358 113.305,46.358 113.305,43.748 110.736,43.748 	"/>
</g>
</svg>
