<?xml version="1.0" encoding="utf-8"?>
<!-- Generator: Adobe Illustrator 16.0.0, SVG Export Plug-In . SVG Version: 6.00 Build 0)  -->
<!DOCTYPE svg PUBLIC "-//W3C//DTD SVG 1.1//EN" "http://www.w3.org/Graphics/SVG/1.1/DTD/svg11.dtd">
<svg version="1.1" id="Layer_1" xmlns="http://www.w3.org/2000/svg" xmlns:xlink="http://www.w3.org/1999/xlink" x="0px" y="0px"
	 width="171.369px" height="54.525px" viewBox="0 0 171.369 54.525" enable-background="new 0 0 171.369 54.525"
	 xml:space="preserve">
<g>
	<polygon fill="#F3AD68" points="103.327,23.242 103.327,20.673 103.327,18.063 100.758,18.063 100.758,15.495 98.147,15.495 
		98.147,12.926 95.579,12.926 95.579,10.315 93.01,10.315 90.4,10.315 87.832,10.315 85.263,10.315 85.263,7.747 85.263,5.179 
		82.653,5.179 80.084,5.179 77.474,5.179 74.905,5.179 74.905,7.747 72.337,7.747 69.727,7.747 67.158,7.747 67.158,5.179 
		67.158,2.568 64.589,2.568 64.589,0 61.979,0 59.411,0 56.842,0 56.842,2.568 54.231,2.568 54.231,5.179 51.663,5.179 
		49.053,5.179 46.484,5.179 46.484,2.568 43.916,2.568 41.305,2.568 38.737,2.568 36.168,2.568 36.168,5.179 36.168,7.747 
		33.558,7.747 30.99,7.747 28.421,7.747 25.811,7.747 23.242,7.747 23.242,10.315 20.674,10.315 20.674,12.926 20.674,15.495 
		18.063,15.495 15.495,15.495 15.495,18.063 12.884,18.063 10.316,18.063 7.748,18.063 5.137,18.063 5.137,20.673 2.568,20.673 
		2.568,23.242 0,23.242 0,25.811 0,28.421 2.568,28.421 2.568,25.811 5.137,25.811 5.137,23.242 7.748,23.242 7.748,20.673 
		10.316,20.673 12.884,20.673 15.495,20.673 18.063,20.673 20.674,20.673 20.674,23.242 23.242,23.242 25.811,23.242 25.811,20.673 
		25.811,18.063 23.242,18.063 23.242,15.495 25.811,15.495 25.811,12.926 25.811,10.315 28.421,10.315 30.99,10.315 33.558,10.315 
		36.168,10.315 38.737,10.315 38.737,7.747 41.305,7.747 43.916,7.747 46.484,7.747 46.484,10.315 46.484,12.926 49.053,12.926 
		51.663,12.926 51.663,10.315 54.231,10.315 56.842,10.315 56.842,7.747 59.411,7.747 59.411,10.315 61.979,10.315 64.589,10.315 
		67.158,10.315 67.158,12.926 67.158,15.495 69.727,15.495 72.337,15.495 72.337,12.926 74.905,12.926 74.905,10.315 77.474,10.315 
		80.084,10.315 82.653,10.315 82.653,12.926 85.263,12.926 87.832,12.926 90.4,12.926 93.01,12.926 93.01,15.495 95.579,15.495 
		95.579,18.063 98.147,18.063 98.147,20.673 100.758,20.673 100.758,23.242 100.758,25.811 103.327,25.811 103.327,28.421 
		103.327,30.989 105.895,30.989 105.895,28.421 105.895,25.811 105.895,23.242 	"/>
	<polygon fill="#F19849" points="103.327,28.421 103.327,25.811 100.758,25.811 100.758,23.242 100.758,20.673 98.147,20.673 
		98.147,18.063 95.579,18.063 95.579,15.495 93.01,15.495 93.01,12.926 90.4,12.926 87.832,12.926 85.263,12.926 82.653,12.926 
		82.653,10.315 80.084,10.315 77.474,10.315 74.905,10.315 74.905,12.926 72.337,12.926 72.337,15.495 69.727,15.495 67.158,15.495 
		67.158,12.926 67.158,10.315 64.589,10.315 61.979,10.315 59.411,10.315 59.411,7.747 56.842,7.747 56.842,10.315 54.231,10.315 
		51.663,10.315 51.663,12.926 49.053,12.926 46.484,12.926 46.484,10.315 46.484,7.747 43.916,7.747 41.305,7.747 38.737,7.747 
		38.737,10.315 36.168,10.315 33.558,10.315 30.99,10.315 28.421,10.315 25.811,10.315 25.811,12.926 25.811,15.495 23.242,15.495 
		23.242,18.063 25.811,18.063 25.811,20.673 25.811,23.242 23.242,23.242 20.674,23.242 20.674,20.673 18.063,20.673 15.495,20.673 
		12.884,20.673 10.316,20.673 7.748,20.673 7.748,23.242 5.137,23.242 5.137,25.811 2.568,25.811 2.568,28.421 0,28.421 0,30.989 
		0,33.558 0,36.168 0,38.736 2.568,38.736 5.137,38.736 7.748,38.736 10.316,38.736 10.316,41.348 12.884,41.348 15.495,41.348 
		15.495,43.916 18.063,43.916 20.674,43.916 23.242,43.916 23.242,41.348 25.811,41.348 28.421,41.348 30.99,41.348 33.558,41.348 
		36.168,41.348 38.737,41.348 41.305,41.348 41.305,43.916 43.916,43.916 46.484,43.916 49.053,43.916 51.663,43.916 54.231,43.916 
		56.842,43.916 59.411,43.916 61.979,43.916 64.589,43.916 64.589,41.348 67.158,41.348 69.727,41.348 72.337,41.348 74.905,41.348 
		74.905,38.736 77.474,38.736 80.084,38.736 82.653,38.736 85.263,38.736 87.832,38.736 90.4,38.736 90.4,36.168 93.01,36.168 
		93.01,33.558 95.579,33.558 98.147,33.558 100.758,33.558 103.327,33.558 105.895,33.558 105.895,30.989 103.327,30.989 	"/>
	<polygon fill="#D37730" points="95.579,33.558 93.01,33.558 93.01,36.168 90.4,36.168 90.4,38.736 87.832,38.736 85.263,38.736 
		82.653,38.736 80.084,38.736 77.474,38.736 74.905,38.736 74.905,41.348 72.337,41.348 69.727,41.348 67.158,41.348 64.589,41.348 
		64.589,43.916 61.979,43.916 59.411,43.916 56.842,43.916 54.231,43.916 51.663,43.916 49.053,43.916 46.484,43.916 43.916,43.916 
		41.305,43.916 41.305,41.348 38.737,41.348 36.168,41.348 33.558,41.348 30.99,41.348 28.421,41.348 25.811,41.348 23.242,41.348 
		23.242,43.916 20.674,43.916 18.063,43.916 15.495,43.916 15.495,41.348 12.884,41.348 10.316,41.348 10.316,38.736 7.748,38.736 
		5.137,38.736 2.568,38.736 2.568,41.348 5.137,41.348 5.137,43.916 7.748,43.916 10.316,43.916 12.884,43.916 12.884,46.484 
		15.495,46.484 18.063,46.484 20.674,46.484 23.242,46.484 25.811,46.484 28.421,46.484 30.99,46.484 33.558,46.484 36.168,46.484 
		38.737,46.484 41.305,46.484 41.305,49.095 43.916,49.095 46.484,49.095 49.053,49.095 51.663,49.095 54.231,49.095 56.842,49.095 
		59.411,49.095 61.979,49.095 64.589,49.095 67.158,49.095 67.158,46.484 69.727,46.484 72.337,46.484 74.905,46.484 74.905,43.916 
		77.474,43.916 80.084,43.916 82.653,43.916 85.263,43.916 87.832,43.916 90.4,43.916 93.01,43.916 95.579,43.916 95.579,41.348 
		95.579,38.736 98.147,38.736 98.147,36.168 100.758,36.168 100.758,33.558 98.147,33.558 	"/>
</g>
<g>
	<polygon fill="#F19849" points="60.295,36.421 60.295,33.853 62.863,33.853 62.863,31.284 65.432,31.284 65.432,28.674 
		65.432,26.105 68.042,26.105 70.611,26.105 70.611,28.674 73.179,28.674 75.79,28.674 75.79,31.284 78.358,31.284 78.358,28.674 
		78.358,26.105 78.358,23.537 78.358,20.926 78.358,18.357 80.926,18.357 80.926,15.789 83.537,15.789 86.105,15.789 88.673,15.789 
		91.285,15.789 93.853,15.789 96.463,15.789 96.463,13.179 99.032,13.179 101.6,13.179 104.21,13.179 106.779,13.179 
		106.779,15.789 109.347,15.789 109.347,18.357 111.958,18.357 114.527,18.357 114.527,15.789 117.095,15.789 117.095,13.179 
		119.706,13.179 119.706,15.789 122.274,15.789 124.884,15.789 127.453,15.789 130.021,15.789 132.631,15.789 135.2,15.789 
		135.2,18.357 135.2,20.926 137.768,20.926 137.768,23.537 137.768,26.105 140.379,26.105 142.948,26.105 142.948,23.537 
		145.516,23.537 148.126,23.537 150.695,23.537 150.695,26.105 153.263,26.105 155.874,26.105 155.874,28.674 158.442,28.674 
		161.052,28.674 161.052,31.284 163.621,31.284 166.19,31.284 166.19,33.853 168.8,33.853 171.369,33.853 171.369,36.421 
		171.369,39.031 168.8,39.031 166.19,39.031 166.19,41.6 163.621,41.6 163.621,44.211 161.052,44.211 158.442,44.211 
		155.874,44.211 155.874,46.779 153.263,46.779 153.263,44.211 150.695,44.211 148.126,44.211 145.516,44.211 142.948,44.211 
		142.948,46.779 140.379,46.779 137.768,46.779 135.2,46.779 135.2,44.211 132.631,44.211 130.021,44.211 127.453,44.211 
		124.884,44.211 122.274,44.211 122.274,46.779 119.706,46.779 117.095,46.779 114.527,46.779 111.958,46.779 109.347,46.779 
		106.779,46.779 104.21,46.779 101.6,46.779 99.032,46.779 99.032,44.211 96.463,44.211 93.853,44.211 93.853,46.779 91.285,46.779 
		88.673,46.779 86.105,46.779 86.105,44.211 83.537,44.211 80.926,44.211 78.358,44.211 75.79,44.211 73.179,44.211 70.611,44.211 
		68.042,44.211 65.432,44.211 62.863,44.211 60.295,44.211 57.684,44.211 57.684,41.6 57.684,39.031 57.684,36.421 	"/>
	<polygon fill="#D37730" points="65.432,44.211 68.042,44.211 70.611,44.211 73.179,44.211 75.79,44.211 78.358,44.211 
		80.926,44.211 83.537,44.211 86.105,44.211 86.105,46.779 88.673,46.779 91.285,46.779 93.853,46.779 93.853,44.211 96.463,44.211 
		99.032,44.211 99.032,46.779 101.6,46.779 104.21,46.779 106.779,46.779 109.347,46.779 111.958,46.779 114.527,46.779 
		117.095,46.779 119.706,46.779 122.274,46.779 122.274,44.211 124.884,44.211 127.453,44.211 130.021,44.211 132.631,44.211 
		135.2,44.211 135.2,46.779 137.768,46.779 140.379,46.779 142.948,46.779 142.948,44.211 145.516,44.211 148.126,44.211 
		150.695,44.211 153.263,44.211 153.263,46.779 155.874,46.779 155.874,44.211 158.442,44.211 161.052,44.211 163.621,44.211 
		163.621,41.6 166.19,41.6 166.19,39.031 168.8,39.031 171.369,39.031 171.369,41.6 168.8,41.6 168.8,44.211 166.19,44.211 
		166.19,46.779 163.621,46.779 163.621,49.348 161.052,49.348 158.442,49.348 155.874,49.348 153.263,49.348 150.695,49.348 
		148.126,49.348 145.516,49.348 142.948,49.348 140.379,49.348 137.768,49.348 137.768,51.957 135.2,51.957 132.631,51.957 
		130.021,51.957 127.453,51.957 124.884,51.957 122.274,51.957 119.706,51.957 117.095,51.957 117.095,49.348 114.527,49.348 
		111.958,49.348 109.347,49.348 106.779,49.348 106.779,51.957 104.21,51.957 101.6,51.957 99.032,51.957 96.463,51.957 
		93.853,51.957 91.285,51.957 91.285,54.525 88.673,54.525 86.105,54.525 86.105,51.957 83.537,51.957 83.537,49.348 80.926,49.348 
		80.926,46.779 78.358,46.779 75.79,46.779 73.179,46.779 70.611,46.779 68.042,46.779 65.432,46.779 62.863,46.779 60.295,46.779 
		60.295,44.211 62.863,44.211 	"/>
	<polygon fill="#F3AD68" points="166.19,33.853 166.19,31.284 163.621,31.284 161.052,31.284 161.052,28.674 158.442,28.674 
		155.874,28.674 155.874,26.105 153.263,26.105 150.695,26.105 150.695,23.537 148.126,23.537 145.516,23.537 142.948,23.537 
		142.948,26.105 140.379,26.105 137.768,26.105 137.768,23.537 137.768,20.926 135.2,20.926 135.2,18.357 135.2,15.789 
		132.631,15.789 130.021,15.789 127.453,15.789 124.884,15.789 122.274,15.789 119.706,15.789 119.706,13.179 117.095,13.179 
		117.095,15.789 114.527,15.789 114.527,18.357 111.958,18.357 109.347,18.357 109.347,15.789 106.779,15.789 106.779,13.179 
		104.21,13.179 101.6,13.179 99.032,13.179 96.463,13.179 96.463,15.789 93.853,15.789 91.285,15.789 88.673,15.789 86.105,15.789 
		83.537,15.789 80.926,15.789 80.926,18.357 78.358,18.357 78.358,20.926 78.358,23.537 78.358,26.105 78.358,28.674 78.358,31.284 
		75.79,31.284 75.79,28.674 73.179,28.674 70.611,28.674 70.611,26.105 68.042,26.105 65.432,26.105 65.432,28.674 65.432,31.284 
		62.863,31.284 62.863,33.853 60.295,33.853 60.295,31.284 60.295,28.674 62.863,28.674 62.863,26.105 62.863,23.537 65.432,23.537 
		68.042,23.537 68.042,20.926 70.611,20.926 70.611,23.537 73.179,23.537 73.179,20.926 75.79,20.926 75.79,18.357 75.79,15.789 
		78.358,15.789 78.358,13.179 80.926,13.179 83.537,13.179 86.105,13.179 88.673,13.179 91.285,13.179 93.853,13.179 93.853,10.61 
		93.853,8.042 96.463,8.042 99.032,8.042 99.032,5.431 101.6,5.431 104.21,5.431 106.779,5.431 106.779,8.042 109.347,8.042 
		109.347,10.61 111.958,10.61 114.527,10.61 117.095,10.61 117.095,8.042 119.706,8.042 119.706,5.431 122.274,5.431 124.884,5.431 
		124.884,8.042 127.453,8.042 127.453,10.61 130.021,10.61 132.631,10.61 135.2,10.61 135.2,13.179 137.768,13.179 137.768,15.789 
		137.768,18.357 140.379,18.357 142.948,18.357 142.948,20.926 145.516,20.926 148.126,20.926 150.695,20.926 153.263,20.926 
		153.263,23.537 155.874,23.537 158.442,23.537 158.442,26.105 161.052,26.105 163.621,26.105 163.621,28.674 166.19,28.674 
		168.8,28.674 168.8,31.284 171.369,31.284 171.369,33.853 168.8,33.853 	"/>
</g>
</svg>
