<?xml version="1.0" encoding="utf-8"?>
<!-- Generator: Adobe Illustrator 16.0.0, SVG Export Plug-In . SVG Version: 6.00 Build 0)  -->
<!DOCTYPE svg PUBLIC "-//W3C//DTD SVG 1.1//EN" "http://www.w3.org/Graphics/SVG/1.1/DTD/svg11.dtd">
<svg version="1.1" id="Layer_1" xmlns="http://www.w3.org/2000/svg" xmlns:xlink="http://www.w3.org/1999/xlink" x="0px" y="0px"
	 width="128.589px" height="46.484px" viewBox="0 0 128.589 46.484" enable-background="new 0 0 128.589 46.484"
	 xml:space="preserve">
<g>
	<polygon fill="#F3AD68" points="12.295,28.42 12.295,25.811 12.295,23.242 14.905,23.242 17.474,23.242 20.084,23.242 
		20.084,20.673 20.084,18.063 17.474,18.063 17.474,15.495 17.474,12.884 17.474,10.316 20.084,10.316 22.653,10.316 25.221,10.316 
		25.221,7.747 27.832,7.747 27.832,5.137 27.832,2.568 30.4,2.568 32.968,2.568 32.968,5.137 35.579,5.137 38.147,5.137 
		38.147,2.568 40.716,2.568 43.326,2.568 45.895,2.568 48.505,2.568 51.074,2.568 53.642,2.568 56.252,2.568 56.252,0 58.821,0 
		61.39,0 64,0 64,2.568 66.569,2.568 69.137,2.568 71.748,2.568 71.748,5.137 74.316,5.137 74.316,2.568 76.884,2.568 76.884,0 
		79.495,0 82.063,0 84.674,0 87.243,0 87.243,2.568 89.811,2.568 92.42,2.568 94.989,2.568 94.989,0 97.558,0 100.168,0 
		100.168,2.568 102.737,2.568 105.305,2.568 105.305,5.137 105.305,7.747 107.917,7.747 110.485,7.747 113.094,7.747 115.663,7.747 
		115.663,10.316 118.231,10.316 118.231,12.884 120.842,12.884 120.842,15.495 123.411,15.495 123.411,18.063 125.979,18.063 
		125.979,20.673 128.589,20.673 128.589,23.242 128.589,25.811 125.979,25.811 125.979,23.242 123.411,23.242 123.411,20.673 
		120.842,20.673 120.842,18.063 118.231,18.063 118.231,15.495 115.663,15.495 115.663,12.884 113.094,12.884 110.485,12.884 
		107.917,12.884 105.305,12.884 105.305,15.495 102.737,15.495 102.737,12.884 102.737,10.316 100.168,10.316 100.168,7.747 
		97.558,7.747 94.989,7.747 94.989,10.316 92.42,10.316 92.42,12.884 89.811,12.884 89.811,10.316 89.811,7.747 87.243,7.747 
		84.674,7.747 82.063,7.747 79.495,7.747 76.884,7.747 76.884,10.316 74.316,10.316 74.316,12.884 71.748,12.884 69.137,12.884 
		69.137,10.316 69.137,7.747 66.569,7.747 64,7.747 61.39,7.747 58.821,7.747 56.252,7.747 53.642,7.747 51.074,7.747 48.505,7.747 
		48.505,10.316 45.895,10.316 43.326,10.316 40.716,10.316 38.147,10.316 38.147,12.884 38.147,15.495 35.579,15.495 35.579,12.884 
		32.968,12.884 30.4,12.884 30.4,10.316 27.832,10.316 27.832,12.884 25.221,12.884 22.653,12.884 22.653,15.495 22.653,18.063 
		22.653,20.673 22.653,23.242 22.653,25.811 20.084,25.811 17.474,25.811 14.905,25.811 14.905,28.42 14.905,30.989 12.295,30.989 
		12.295,33.557 12.295,36.168 9.727,36.168 9.727,33.557 9.727,30.989 9.727,28.42 	"/>
	<polygon fill="#D37730" points="14.905,33.557 17.474,33.557 20.084,33.557 22.653,33.557 25.221,33.557 27.832,33.557 
		30.4,33.557 30.4,30.989 32.968,30.989 35.579,30.989 38.147,30.989 40.716,30.989 43.326,30.989 45.895,30.989 48.505,30.989 
		51.074,30.989 51.074,28.42 53.642,28.42 56.252,28.42 58.821,28.42 61.39,28.42 64,28.42 66.569,28.42 66.569,30.989 
		69.137,30.989 71.748,30.989 74.316,30.989 76.884,30.989 79.495,30.989 82.063,30.989 84.674,30.989 87.243,30.989 89.811,30.989 
		92.42,30.989 94.989,30.989 97.558,30.989 97.558,28.42 100.168,28.42 102.737,28.42 105.305,28.42 107.917,28.42 110.485,28.42 
		110.485,30.989 113.094,30.989 115.663,30.989 118.231,30.989 120.842,30.989 123.411,30.989 125.979,30.989 125.979,33.557 
		123.411,33.557 123.411,36.168 120.842,36.168 118.231,36.168 115.663,36.168 113.094,36.168 110.485,36.168 107.917,36.168 
		105.305,36.168 102.737,36.168 100.168,36.168 97.558,36.168 94.989,36.168 92.42,36.168 92.42,33.557 89.811,33.557 
		87.243,33.557 84.674,33.557 82.063,33.557 79.495,33.557 76.884,33.557 76.884,36.168 74.316,36.168 71.748,36.168 69.137,36.168 
		66.569,36.168 64,36.168 61.39,36.168 58.821,36.168 56.252,36.168 53.642,36.168 51.074,36.168 51.074,33.557 48.505,33.557 
		48.505,36.168 45.895,36.168 43.326,36.168 40.716,36.168 38.147,36.168 35.579,36.168 35.579,33.557 32.968,33.557 32.968,36.168 
		30.4,36.168 27.832,36.168 25.221,36.168 22.653,36.168 22.653,38.737 20.084,38.737 17.474,38.737 14.905,38.737 12.295,38.737 
		12.295,36.168 12.295,33.557 	"/>
	<polygon fill="#F19849" points="120.842,30.989 118.231,30.989 115.663,30.989 113.094,30.989 110.485,30.989 110.485,28.42 
		107.917,28.42 105.305,28.42 102.737,28.42 100.168,28.42 97.558,28.42 97.558,30.989 94.989,30.989 92.42,30.989 89.811,30.989 
		87.243,30.989 84.674,30.989 82.063,30.989 79.495,30.989 76.884,30.989 74.316,30.989 71.748,30.989 69.137,30.989 66.569,30.989 
		66.569,28.42 64,28.42 61.39,28.42 58.821,28.42 56.252,28.42 53.642,28.42 51.074,28.42 51.074,30.989 48.505,30.989 
		45.895,30.989 43.326,30.989 40.716,30.989 38.147,30.989 35.579,30.989 32.968,30.989 30.4,30.989 30.4,33.557 27.832,33.557 
		25.221,33.557 22.653,33.557 20.084,33.557 17.474,33.557 14.905,33.557 12.295,33.557 12.295,30.989 14.905,30.989 14.905,28.42 
		14.905,25.811 17.474,25.811 20.084,25.811 22.653,25.811 22.653,23.242 22.653,20.673 22.653,18.063 22.653,15.495 22.653,12.884 
		25.221,12.884 27.832,12.884 27.832,10.316 30.4,10.316 30.4,12.884 32.968,12.884 35.579,12.884 35.579,15.495 38.147,15.495 
		38.147,12.884 38.147,10.316 40.716,10.316 43.326,10.316 45.895,10.316 48.505,10.316 48.505,7.747 51.074,7.747 53.642,7.747 
		56.252,7.747 58.821,7.747 61.39,7.747 64,7.747 66.569,7.747 69.137,7.747 69.137,10.316 69.137,12.884 71.748,12.884 
		74.316,12.884 74.316,10.316 76.884,10.316 76.884,7.747 79.495,7.747 82.063,7.747 84.674,7.747 87.243,7.747 89.811,7.747 
		89.811,10.316 89.811,12.884 92.42,12.884 92.42,10.316 94.989,10.316 94.989,7.747 97.558,7.747 100.168,7.747 100.168,10.316 
		102.737,10.316 102.737,12.884 102.737,15.495 105.305,15.495 105.305,12.884 107.917,12.884 110.485,12.884 113.094,12.884 
		115.663,12.884 115.663,15.495 118.231,15.495 118.231,18.063 120.842,18.063 120.842,20.673 123.411,20.673 123.411,23.242 
		125.979,23.242 125.979,25.811 128.589,25.811 128.589,28.42 125.979,28.42 125.979,30.989 123.411,30.989 	"/>
</g>
<g>
	<polygon fill="#F3AD68" points="2.568,30.948 5.137,30.948 5.137,28.379 7.748,28.379 7.748,25.811 7.748,23.2 7.748,20.631 
		10.316,20.631 10.316,18.063 12.884,18.063 12.884,15.453 15.495,15.453 15.495,12.884 18.063,12.884 20.631,12.884 23.242,12.884 
		23.242,15.453 25.811,15.453 25.811,18.063 28.421,18.063 28.421,20.631 30.989,20.631 33.558,20.631 33.558,18.063 36.168,18.063 
		36.168,15.453 38.737,15.453 41.305,15.453 41.305,12.884 43.916,12.884 46.484,12.884 49.053,12.884 49.053,15.453 51.663,15.453 
		54.231,15.453 54.231,18.063 56.8,18.063 56.8,20.631 59.411,20.631 59.411,18.063 61.979,18.063 64.589,18.063 67.158,18.063 
		69.727,18.063 69.727,20.631 72.336,20.631 74.905,20.631 77.473,20.631 80.084,20.631 80.084,23.2 82.653,23.2 85.221,23.2 
		87.832,23.2 87.832,25.811 87.832,28.379 90.4,28.379 90.4,30.948 87.832,30.948 85.221,30.948 85.221,28.379 85.221,25.811 
		82.653,25.811 80.084,25.811 80.084,28.379 77.473,28.379 77.473,25.811 74.905,25.811 74.905,23.2 72.336,23.2 69.727,23.2 
		67.158,23.2 67.158,20.631 64.589,20.631 61.979,20.631 61.979,23.2 59.411,23.2 59.411,25.811 56.8,25.811 54.231,25.811 
		54.231,23.2 54.231,20.631 51.663,20.631 51.663,18.063 49.053,18.063 46.484,18.063 46.484,15.453 43.916,15.453 43.916,18.063 
		41.305,18.063 38.737,18.063 38.737,20.631 36.168,20.631 36.168,23.2 33.558,23.2 33.558,25.811 30.989,25.811 30.989,28.379 
		28.421,28.379 28.421,25.811 28.421,23.2 25.811,23.2 25.811,20.631 23.242,20.631 23.242,18.063 20.631,18.063 20.631,15.453 
		18.063,15.453 18.063,18.063 15.495,18.063 15.495,20.631 12.884,20.631 12.884,23.2 10.316,23.2 10.316,25.811 10.316,28.379 
		10.316,30.948 7.748,30.948 7.748,33.557 5.137,33.557 2.568,33.557 0,33.557 0,30.948 	"/>
	<polygon fill="#D37730" points="5.137,33.557 7.748,33.557 7.748,36.126 10.316,36.126 12.884,36.126 15.495,36.126 18.063,36.126 
		20.631,36.126 20.631,38.695 18.063,38.695 15.495,38.695 12.884,38.695 10.316,38.695 7.748,38.695 5.137,38.695 2.568,38.695 
		2.568,36.126 0,36.126 0,33.557 2.568,33.557 	"/>
	<polygon fill="#F19849" points="18.063,36.126 15.495,36.126 12.884,36.126 10.316,36.126 7.748,36.126 7.748,33.557 7.748,30.948 
		10.316,30.948 10.316,28.379 10.316,25.811 10.316,23.2 12.884,23.2 12.884,20.631 15.495,20.631 15.495,18.063 18.063,18.063 
		18.063,15.453 20.631,15.453 20.631,18.063 23.242,18.063 23.242,20.631 25.811,20.631 25.811,23.2 28.421,23.2 28.421,25.811 
		28.421,28.379 30.989,28.379 30.989,25.811 33.558,25.811 33.558,23.2 36.168,23.2 36.168,20.631 38.737,20.631 38.737,18.063 
		41.305,18.063 43.916,18.063 43.916,15.453 46.484,15.453 46.484,18.063 49.053,18.063 51.663,18.063 51.663,20.631 54.231,20.631 
		54.231,23.2 54.231,25.811 56.8,25.811 59.411,25.811 59.411,23.2 61.979,23.2 61.979,20.631 64.589,20.631 67.158,20.631 
		67.158,23.2 69.727,23.2 72.336,23.2 74.905,23.2 74.905,25.811 77.473,25.811 77.473,28.379 80.084,28.379 80.084,25.811 
		82.653,25.811 85.221,25.811 85.221,28.379 85.221,30.948 87.832,30.948 90.4,30.948 90.4,33.557 87.832,33.557 87.832,36.126 
		87.832,38.695 85.221,38.695 82.653,38.695 82.653,41.305 80.084,41.305 77.473,41.305 74.905,41.305 72.336,41.305 69.727,41.305 
		69.727,38.695 67.158,38.695 64.589,38.695 61.979,38.695 59.411,38.695 56.8,38.695 56.8,41.305 54.231,41.305 51.663,41.305 
		49.053,41.305 46.484,41.305 43.916,41.305 41.305,41.305 41.305,38.695 38.737,38.695 36.168,38.695 33.558,38.695 30.989,38.695 
		28.421,38.695 25.811,38.695 23.242,38.695 20.631,38.695 20.631,36.126 	"/>
	<polygon fill="#D37730" points="25.811,38.695 28.421,38.695 30.989,38.695 33.558,38.695 36.168,38.695 38.737,38.695 
		41.305,38.695 41.305,41.305 43.916,41.305 46.484,41.305 49.053,41.305 51.663,41.305 54.231,41.305 56.8,41.305 56.8,38.695 
		59.411,38.695 61.979,38.695 64.589,38.695 67.158,38.695 69.727,38.695 69.727,41.305 72.336,41.305 74.905,41.305 77.473,41.305 
		80.084,41.305 82.653,41.305 82.653,38.695 85.221,38.695 87.832,38.695 87.832,41.305 85.221,41.305 85.221,43.874 82.653,43.874 
		80.084,43.874 80.084,46.484 77.473,46.484 74.905,46.484 72.336,46.484 72.336,43.874 69.727,43.874 67.158,43.874 64.589,43.874 
		64.589,46.484 61.979,46.484 59.411,46.484 56.8,46.484 54.231,46.484 54.231,43.874 51.663,43.874 49.053,43.874 46.484,43.874 
		43.916,43.874 41.305,43.874 38.737,43.874 36.168,43.874 33.558,43.874 30.989,43.874 28.421,43.874 25.811,43.874 25.811,41.305 
		23.242,41.305 20.631,41.305 20.631,38.695 23.242,38.695 	"/>
</g>
</svg>
