<svg id="Partner" xmlns="http://www.w3.org/2000/svg" viewBox="0 0 400 180"><defs><style>.cls-1{fill:#fff;}</style></defs><title>jz17-partner-jpro</title><path class="cls-1" d="M159.33,72.71H148v8.76h7.82c2.34,0,3.51-1.14,3.51-3.25S159.33,72.71,159.33,72.71Z"/><path class="cls-1" d="M164.85,72.23A78.88,78.88,0,0,1,179.55,71c7.57,0,13.11,1.76,16.63,4.93a16,16,0,0,1,5.28,12.41c0,5.37-1.58,9.59-4.66,12.67-4,4.31-10.65,6.51-18.12,6.51a26.37,26.37,0,0,1-6.16-.53v23.76h-7.66Zm7.66,28.51a26.15,26.15,0,0,0,6.33.62c9.33,0,14.87-4.58,14.87-12.58s-5.54-11.7-14-11.7a38.58,38.58,0,0,0-7.22.62Z"/><path class="cls-1" d="M207.73,101.09c0-5.12-.09-9.51-.35-13.55h6.78l.35,8.53h.26c1.94-5.83,6.69-9.51,11.88-9.51a8,8,0,0,1,2.11.27v7.36A24.63,24.63,0,0,0,226,94c-5.46,0-9.33,4.22-10.38,10.05a25.23,25.23,0,0,0-.26,3.77V131h-7.74Z"/><path class="cls-1" d="M249.26,132c-11.44,0-20.41-8.62-20.41-22.35,0-14.54,9.41-23.06,21.12-23.06,12.23,0,20.5,9.06,20.5,22.26,0,16.15-11,23.15-21.12,23.15Zm.26-5.92c7.39,0,12.93-7.09,12.93-17,0-7.36-3.61-16.6-12.76-16.6s-13,8.62-13,16.87c0,9.51,5.28,16.69,12.76,16.69Z"/><path class="cls-1" d="M142,142.88a12.43,12.43,0,0,0,3.59-2.37c2.18-2.36,2.94-6,2.94-16.45V87.54h7.74v39.58c0,8.44-1.14,14.15-5.05,18a17.72,17.72,0,0,1-7.39,4.43Z"/><path class="cls-1" d="M182.15,16.72c-1.57-1-4-2-10.24-.23-6.08,1.7-54.51,17.66-58.85,19.31-4.8,1.81-7.37,3.74-9.95,7.14C99.58,47.59,78.06,76.84,76,80.9c-1.46,2.93-1.6,6.08-.47,8.11s3.59,3.28,8.74,2,30.11-7.8,30.11-7.8L132.13,56l44.05-13.22s7.28-12.94,8.31-15.74C186,22.86,185.23,18.73,182.15,16.72Zm-72.78,60s-23.44,6.16-26.72,6.94-5.77-.31-3.59-4.06c2.58-4.42,12.21-17.12,12.21-17.12l33.58-10.06ZM93.19,59.29s5.86-7.84,9.75-12.91c5-6.55,6.14-7.2,13.63-9.89,3.93-1.41,23.63-7.78,23.63-7.78L127,49.15Zm85.49-37.6c-1.25,3.28-6.86,13.81-6.86,13.81L131.37,47.86l12.87-20.44s23.41-7.89,28.67-9.24S179.93,18.42,178.68,21.69Z"/></svg>