<svg id="Partner" xmlns="http://www.w3.org/2000/svg" viewBox="0 0 400 180"><defs><style>.cls-1{fill:#fff;}</style></defs><title>jz17-partner-knowit</title><path class="cls-1" d="M93.8,70.29H86.22c-2.37,0-2.66.29-5.41,3.06L56.6,97.73V59.37a1.8,1.8,0,0,0-2-2H43a1.8,1.8,0,0,0-2,2v5.16a1.8,1.8,0,0,0,2,2h4.25v47.31H43a1.8,1.8,0,0,0-2,2V121a1.81,1.81,0,0,0,2,2H60.77a1.8,1.8,0,0,0,2-2v-5.16a1.81,1.81,0,0,0-2-2H56.6V110l9.09-9.23,16,19.56c2.1,2.67,2.1,2.67,5.18,2.67h6.91a1.8,1.8,0,0,0,2-2v-5.16a1.8,1.8,0,0,0-2-2h-5.7L72.17,94.22,86.71,79.47H93.8a1.74,1.74,0,0,0,2-1.92V72.29A1.8,1.8,0,0,0,93.8,70.29Z"/><path class="cls-1" d="M156.3,113.86h-4.2V91.3c0-13.43-8.46-22.11-21.55-22.11a21.39,21.39,0,0,0-15.06,5.53V72.32a1.8,1.8,0,0,0-2-2H102a1.79,1.79,0,0,0-2,2v5.15a1.81,1.81,0,0,0,2,2h4.2v34.39H102a1.8,1.8,0,0,0-2,2V121a1.8,1.8,0,0,0,2,2H119.7a1.8,1.8,0,0,0,2-2v-5.16a1.8,1.8,0,0,0-2-2h-4.21v-21c0-8.61,6.05-14.86,14.38-14.86,8.11,0,13,5.27,13,14.1v21.71h-4.2a1.8,1.8,0,0,0-2,2V121a1.8,1.8,0,0,0,2,2H156.3a1.8,1.8,0,0,0,2-2v-5.16A1.8,1.8,0,0,0,156.3,113.86Z"/><path class="cls-1" d="M185,69.26c-15.12,0-27,12.1-27,27.54,0,15.28,11.76,27.26,26.78,27.26,15.18,0,27.07-12.1,27.07-27.54C211.86,81.23,200.05,69.26,185,69.26Zm0,45.83c-9.72,0-17.34-8.16-17.34-18.57S175,78.24,184.79,78.24s17.43,8.15,17.43,18.56S194.81,115.09,185,115.09Z"/><path class="cls-1" d="M290.29,70.31H272.16a1.8,1.8,0,0,0-2,2v5.16a1.8,1.8,0,0,0,2,2h4.08l-8.64,27.93L255.36,71.81a2.36,2.36,0,0,0-2.22-1.59h-3.62a2.36,2.36,0,0,0-2.23,1.59l-12.11,35.57-8.65-27.92h4.08a1.8,1.8,0,0,0,2-2V72.32a1.8,1.8,0,0,0-2-2H212.28a1.81,1.81,0,0,0-2,2v5.16a1.8,1.8,0,0,0,2,2h4.31L231,121.67a2.35,2.35,0,0,0,2.2,1.55h3.91a2.34,2.34,0,0,0,2.21-1.59l12-34.58,12,34.58a2.34,2.34,0,0,0,2.22,1.59h3.91a2.35,2.35,0,0,0,2.2-1.54L286,79.47h4.3a1.8,1.8,0,0,0,2-2V72.32A1.81,1.81,0,0,0,290.29,70.31Z"/><path class="cls-1" d="M316,113.86h-4.2V72.32a1.81,1.81,0,0,0-2-2H298.2a1.8,1.8,0,0,0-2,2v5.16a1.8,1.8,0,0,0,2,2h4.21v34.39h-7.63a1.8,1.8,0,0,0-2,2V121a1.8,1.8,0,0,0,2,2H316a1.8,1.8,0,0,0,2-2v-5.16A1.8,1.8,0,0,0,316,113.86Z"/><path class="cls-1" d="M357,96.22h-5.08a1.8,1.8,0,0,0-2,2V108c0,3.36-2.39,6.84-6.4,6.84-5,0-7.17-2.09-7.17-7V79.47h12.27a1.8,1.8,0,0,0,2-2V72.32a1.8,1.8,0,0,0-2-2H336.35v-11a1.8,1.8,0,0,0-2-2H329a1.81,1.81,0,0,0-2,2v11h-5.59a1.8,1.8,0,0,0-2,2v5.16a1.8,1.8,0,0,0,2,2H327V108.3c0,9.45,6.18,15.57,15.75,15.57,9.88,0,16.25-5.91,16.25-15.07V98.21A1.8,1.8,0,0,0,357,96.22Z"/><circle class="cls-1" cx="306.97" cy="57.8" r="5.86"/></svg>