<svg id="Partner" xmlns="http://www.w3.org/2000/svg" viewBox="0 0 400 180"><defs><style>.cls-1{fill:#fff;}</style></defs><title>jz17-partner-programutvikling</title><path class="cls-1" d="M46.39,99.38c0,1.27.61,1.84,1.72,1.84h4.62v1.84H48.15a3.6,3.6,0,0,1-3.72-3.8V90.84c0-1.18-.57-1.84-1.72-1.84H41V87.12h1.72q1.72,0,1.72-1.84V76.86a3.6,3.6,0,0,1,3.72-3.8h4.58V74.9H48.11c-1.1,0-1.72.57-1.72,1.84V85.2a3.23,3.23,0,0,1-1.63,2.86,3.33,3.33,0,0,1,1.63,2.86Z"/><path class="cls-1" d="M70.29,90.92a3.33,3.33,0,0,1,1.63-2.86,3.23,3.23,0,0,1-1.63-2.86V76.74c0-1.27-.61-1.84-1.72-1.84H64V73.06h4.58a3.6,3.6,0,0,1,3.72,3.8v8.42q0,1.84,1.72,1.84h1.72V89H74c-1.14,0-1.72.65-1.72,1.84v8.42a3.6,3.6,0,0,1-3.72,3.8H64v-1.84h4.62c1.1,0,1.72-.57,1.72-1.84Z"/><path class="cls-1" d="M99.87,88.79V99.62H97.78V74.54h9.07c4.9,0,7.93,2.45,7.93,7.11s-3,7.15-7.93,7.15Zm6.9-12.38h-6.9V86.87h6.9c3.88,0,5.92-1.92,5.92-5.23S110.66,76.42,106.77,76.42Z"/><path class="cls-1" d="M127.36,83.36a4.22,4.22,0,0,0-1.68-.33c-2.21,0-4,1.59-4.82,3.92V99.62h-2V81.48h2v2.9a5.48,5.48,0,0,1,4.9-3.27,5.22,5.22,0,0,1,1.59.24Z"/><path class="cls-1" d="M137.41,100c-4.78,0-8-3.84-8-9.44s3.23-9.44,8-9.44,8,3.84,8,9.44S142.23,100,137.41,100Zm0-17.08c-3.6,0-6,3.06-6,7.64s2.37,7.64,6,7.64,6-3.06,6-7.64S141,82.91,137.41,82.91Z"/><path class="cls-1" d="M162.09,96.52a6.86,6.86,0,0,1-5.6,3c-5.27,0-7.8-4.33-7.8-9.19s2.53-9.19,7.8-9.19a6.9,6.9,0,0,1,5.6,3V81.48h2V98.31c0,5.72-3.1,8.62-7.64,8.62-4.17,0-6.78-2.08-7.44-5.52h2c.61,2.53,2.61,3.76,5.39,3.76,3.6,0,5.6-2.33,5.6-6.74Zm0-10A6.11,6.11,0,0,0,156.7,83c-3.76,0-6,3-6,7.31s2.21,7.35,6,7.35a6.11,6.11,0,0,0,5.39-3.51Z"/><path class="cls-1" d="M178.47,83.36A4.22,4.22,0,0,0,176.8,83c-2.21,0-4,1.59-4.82,3.92V99.62h-2V81.48h2v2.9a5.48,5.48,0,0,1,4.9-3.27,5.22,5.22,0,0,1,1.59.24Z"/><path class="cls-1" d="M192.28,99.62V97.91a7,7,0,0,1-5,2c-3.68,0-6.7-2.12-6.7-5.6s3-5.56,6.78-5.56a7.29,7.29,0,0,1,4.94,1.92V87.45A4.6,4.6,0,0,0,183.33,86h-2a6.24,6.24,0,0,1,6.41-4.9c4,0,6.5,2.45,6.5,6.25V99.62Zm0-6.46c-.57-1.55-2.61-2.7-4.82-2.7-2.57,0-5,1.27-5,3.84s2.41,3.88,5,3.88c2.21,0,4.25-1.14,4.82-2.7Z"/><path class="cls-1" d="M217.81,81.11c3.68,0,5.52,2.61,5.52,6.25V99.62h-2v-12c0-2.78-1.23-4.66-3.88-4.66a5.26,5.26,0,0,0-4.82,3.8V99.62h-2v-12c0-2.78-1.23-4.66-3.88-4.66a5.26,5.26,0,0,0-4.82,3.8V99.62h-2V81.48h2v2.78a5.88,5.88,0,0,1,5.23-3.15,5.08,5.08,0,0,1,5.07,3.47A6.66,6.66,0,0,1,217.81,81.11Z"/><path class="cls-1" d="M228.8,89.73V74.54h2.08V89.45c0,5.88,3.19,8.62,7.52,8.62S246,95.33,246,89.45V74.54H248v15.2c0,6.9-4.25,10.26-9.64,10.26S228.8,96.64,228.8,89.73Z"/><path class="cls-1" d="M254.5,83.24h-3.06V81.48h3.06V76.82h2v4.66h4.7v1.76h-4.7v12c0,2,.9,2.94,2.62,2.94a5.07,5.07,0,0,0,2.49-.69v1.92a6.12,6.12,0,0,1-2.7.61c-2.66,0-4.41-1.47-4.41-4.58Z"/><path class="cls-1" d="M270.8,99.62l-7.23-18.14h2.17l6,15.32,6-15.32h2.08l-7.19,18.14Z"/><path class="cls-1" d="M284.4,77.35A1.38,1.38,0,0,1,283,76a1.39,1.39,0,0,1,2.78,0A1.38,1.38,0,0,1,284.4,77.35Zm1,22.27h-2V81.48h2Z"/><path class="cls-1" d="M295.48,90.55l-2.21,2v7h-2V73.06h2V90.22l9.6-8.74h2.7l-8.62,7.8,8.91,10.34h-2.49Z"/><path class="cls-1" d="M311.49,99.62h-2V73.06h2Z"/><path class="cls-1" d="M318.31,77.35A1.38,1.38,0,0,1,316.92,76a1.39,1.39,0,0,1,2.78,0A1.38,1.38,0,0,1,318.31,77.35Zm1,22.27h-2V81.48h2Z"/><path class="cls-1" d="M325.13,81.48h2v2.9a7.07,7.07,0,0,1,5.8-3.27c4.13,0,6.29,2.66,6.29,6.5v12h-2V87.9c0-2.82-1.43-4.9-4.66-4.9a6.07,6.07,0,0,0-5.43,3.92V99.62h-2Z"/><path class="cls-1" d="M357,96.52a6.86,6.86,0,0,1-5.6,3c-5.27,0-7.8-4.33-7.8-9.19s2.53-9.19,7.8-9.19a6.9,6.9,0,0,1,5.6,3V81.48h2V98.31c0,5.72-3.11,8.62-7.64,8.62-4.17,0-6.78-2.08-7.44-5.52h2c.61,2.53,2.61,3.76,5.39,3.76,3.6,0,5.6-2.33,5.6-6.74Zm0-10A6.11,6.11,0,0,0,351.57,83c-3.76,0-6,3-6,7.31s2.21,7.35,6,7.35A6.11,6.11,0,0,0,357,94.15Z"/></svg>