<svg id="Partner" xmlns="http://www.w3.org/2000/svg" viewBox="0 0 400 180"><defs><style>.cls-1{fill:#fff;}</style></defs><title>jz17-partner-tripletex</title><path class="cls-1" d="M218.68,97.73c-1.07-6.34-4.23-11.44-9.79-14.63a18.86,18.86,0,0,0-14.66-1.56,19.4,19.4,0,0,0,10.91,37.24,18.23,18.23,0,0,0,9.11-5.93A20.73,20.73,0,0,0,218.83,102l-8.64,2.5a9.56,9.56,0,0,1-7.09,7.18c-4.78,1.4-10.68-.26-12.67-5.75Zm-30,1.68c-.66-3.49,1.45-9,7.67-10.76s11,1.8,12.22,5Z"/><path class="cls-1" d="M281.79,97.73c-1.07-6.34-4.23-11.44-9.79-14.63a18.86,18.86,0,0,0-14.65-1.56,19.4,19.4,0,0,0,10.91,37.24,18.24,18.24,0,0,0,9.11-5.93A20.73,20.73,0,0,0,281.94,102l-8.64,2.5a9.56,9.56,0,0,1-7.09,7.18c-4.78,1.4-10.68-.26-12.67-5.75Zm-30,1.68c-.66-3.49,1.45-9,7.67-10.76s11,1.8,12.22,5Z"/><polygon class="cls-1" points="281.55 118.84 292.12 118.84 300.39 106.27 308.58 118.84 319.27 118.84 305.61 99.58 317.88 82.31 307.49 82.31 300.39 93.55 293.27 82.31 282.74 82.31 295.02 99.58 281.55 118.84"/><path class="cls-1" d="M159.41,100.25c0,9.43-6.84,19.35-19.56,19.35a19.86,19.86,0,0,1-10.75-3v15h-8.75V101.93c0-.56-.08-1.12-.08-1.68v-.07c0-9.35,6.84-19.29,19.57-19.29S159.41,90.83,159.41,100.25Zm-8.75-.07A10.81,10.81,0,1,0,129,99.73h.05v1.84a10.81,10.81,0,0,0,21.56-1.38Z"/><polygon class="cls-1" points="173.48 69.2 173.22 69.2 165.39 69.2 165.39 76.94 165.39 77.01 165.39 77.01 165.39 118.47 166.06 118.47 166.31 118.47 174.14 118.47 174.14 110.73 174.14 110.66 174.14 110.66 174.14 69.2 173.48 69.2"/><path class="cls-1" d="M103.48,81.94h8.75v36.53h-8.75Zm4.18-5.29a4.84,4.84,0,1,0-4.84-4.84A4.84,4.84,0,0,0,107.66,76.65Z"/><path class="cls-1" d="M83.71,100h0A11,11,0,0,1,94.64,89.08a11.13,11.13,0,0,1,2.1.2V81c-.68-.06-1.38-.11-2.1-.11-12.89,0-19.82,10.06-19.82,19.53v.07c0,.57,0,1.13.08,1.7v16.42h8.86Z"/><polygon class="cls-1" points="72.8 80.52 63.74 80.52 63.74 69.23 55 69.23 55 118.43 63.74 118.43 63.74 89.26 72.8 89.26 72.8 80.52"/><polygon class="cls-1" points="242.2 80.52 233.14 80.52 233.14 69.23 224.4 69.23 224.4 118.43 233.14 118.43 233.14 89.26 242.2 89.26 242.2 80.52"/><path class="cls-1" d="M361.33,60V58H373a12.36,12.36,0,1,0,0,2Z"/><path class="cls-1" d="M337.66,81.72h2V93.39a12.35,12.35,0,1,0-2,0Z"/><path class="cls-1" d="M339.54,37l-1.4-1.4,8.25-8.25a12.37,12.37,0,1,0,1.4,1.4Z"/></svg>