<?xml version="1.0" encoding="UTF-8" standalone="no"?>
<svg width="469px" height="364px" viewBox="0 0 469 364" version="1.1" xmlns="http://www.w3.org/2000/svg" xmlns:xlink="http://www.w3.org/1999/xlink">
    <!-- Generator: Sketch 3.7 (28169) - http://www.bohemiancoding.com/sketch -->
    <title>logo_wireframe</title>
    <desc>Created with Sketch.</desc>
    <defs></defs>
    <g id="Page-1" stroke="none" stroke-width="1" fill="none" fill-rule="evenodd">
        <g id="logo_wireframe">
            <path d="M468.875,0.472 L0.383,356.843 L438.906,231.534 L468.875,0.472 Z M431.195,224.894 L41.504,336.249 L457.824,19.565 L431.195,224.894 Z" id="Fill-37" fill="#FF8641"></path>
            <path d="M17.207,22.683 L152.684,313.347 L264.152,363.323 L457.383,349.843 L17.207,22.683 Z M39.117,49.565 L433.863,342.96 L265.688,354.69 L159.051,306.882 L39.117,49.565 Z" id="Fill-38" fill="#A10035"></path>
            <path d="M17.207,22.683 L457.383,349.843 L309.234,121.917 L17.207,22.683 Z M65.734,48.155 L303.711,129.022 L424.438,314.761 L65.734,48.155 Z" id="Fill-39" fill="#FF4F4C"></path>
            <path d="M468.875,0.472 L166.668,73.472 L0.383,356.843 L468.875,0.472 Z M29.52,323.999 L172.176,80.89 L431.441,18.265 L29.52,323.999 Z" id="Fill-40" fill="#FCAF17"></path>
        </g>
    </g>
</svg>