<svg id="Partner" xmlns="http://www.w3.org/2000/svg" viewBox="0 0 400 180"><defs><style>.cls-1{fill:#fff;}</style></defs><title>jz17-partner-arktekk</title><path class="cls-1" d="M122,150c-7.77,0-11.13-3.71-11.13-9.07,0-8.48,7.77-11.07,17.72-12.07v-2.18c0-5.71-3.36-7.3-7.71-7.3a15.19,15.19,0,0,0-7.36,2.06l-.88-2.06a18.39,18.39,0,0,1,8.59-2.3c5.3,0,10.36,2.3,10.36,9.65v21A19.24,19.24,0,0,1,122,150m6.59-19.25c-9.3,1.24-14.6,3.06-14.6,10.19,0,5.06,3.18,7.12,8.42,7.12a13.91,13.91,0,0,0,6.18-1.3Z"/><path class="cls-1" d="M153.43,119.86c-2.77-.77-6.06-.41-7.83.88v28.67h-3.18V119.33c2.88-1.47,5-2.24,12-2.24l-.94,2.77"/><polyline class="cls-1" points="179.1 149.41 165.56 132.87 165.44 132.87 165.44 149.41 162.38 149.41 162.38 103.2 165.44 103.2 165.44 132.75 165.56 132.75 178.04 117.68 181.57 117.68 168.5 132.81 182.81 149.41 179.1 149.41"/><path class="cls-1" d="M198.47,149.59c-5.36,0-7.06-4-7.06-7.42V119.56H187.7v-1.88h3.71v-7.59l3.18-1.18v8.77h5.89v1.82h-5.89v22.84c0,2.59,1.24,5,4.59,5a5.07,5.07,0,0,0,1.29-.12v2.06a6.26,6.26,0,0,1-2,.29"/><path class="cls-1" d="M210.77,134.93c.47,8.42,4.36,12.6,10.66,12.6a14.67,14.67,0,0,0,7.59-1.88l1,2.3a17.39,17.39,0,0,1-8.65,2.06c-7.65,0-13.6-4.65-13.6-16.54,0-11.19,5.36-16.37,12-16.37,6.83,0,11.36,4.3,11.36,14.84l-20.37,3m8.95-15.48c-5.06,0-9,3.88-9,13.54L228,130.34C228,122.39,224.84,119.45,219.72,119.45Z"/><polyline class="cls-1" points="257.75 149.41 244.21 132.87 244.09 132.87 244.09 149.41 241.03 149.41 241.03 103.2 244.09 103.2 244.09 132.75 244.21 132.75 256.69 117.68 260.23 117.68 247.16 132.81 261.46 149.41 257.75 149.41"/><polyline class="cls-1" points="285.42 149.41 271.88 132.87 271.76 132.87 271.76 149.41 268.7 149.41 268.7 103.2 271.76 103.2 271.76 132.75 271.88 132.75 284.36 117.68 287.89 117.68 274.82 132.81 289.13 149.41 285.42 149.41"/><path class="cls-1" d="M214.33,69.44c0-4.15,0-10.34,0-14.9,0-1.34,0-2.55,0-3.51a23.89,23.89,0,0,0,15.17-10.68l-8.26-5.16A14.08,14.08,0,0,1,214,41L214,38.92a23.9,23.9,0,0,0-32.7-18.1l4.38,8.76a14.13,14.13,0,0,1,18.93,13.33c0,3.41,0,6.26,0,8.63a23.86,23.86,0,0,0-4.6-2.65q-.8-.35-1.64-.65a23.91,23.91,0,0,0-27.9,35.71h0a19.15,19.15,0,0,0,8.25,7.84l0,.11a23.94,23.94,0,0,0,26.64-2.44q.41-.33.79-.67c-.51-.52-1-1.06-1.45-1.63a23.91,23.91,0,0,1-3.82-6.75l0,0a14.15,14.15,0,0,1-23.22-15.64l.07-.14c.11-.22.22-.43.34-.64l.14-.26c.12-.21.25-.42.38-.62l.22-.33a14.22,14.22,0,0,1,25.94,8V71A23.93,23.93,0,0,0,228.5,93.35V83.61a14.17,14.17,0,0,1-14.17-14.17"/></svg>