<svg id="Partner" xmlns="http://www.w3.org/2000/svg" viewBox="0 0 400 180"><defs><style>.cls-1{fill:#fff;}</style></defs><title>jz17-partner-dips</title><path class="cls-1" d="M68.13,57.54s22.54-11,43-2c19.2,8.38,30.43,34.76,12,60-6.38,8.77-17.18,14.61-17.18,14.61s12-22.92,4.12-41.92A49.08,49.08,0,0,0,85.85,62.95c-7.18-3.52-17.72-5.41-17.72-5.41"/><path class="cls-1" d="M56.5,69.31A72.32,72.32,0,0,1,69.89,65,68.08,68.08,0,0,1,83.77,63.9s15.06,5.77,22.77,20.69c7.55,14.6,3.92,27.54,1.76,34.89-1.71,5.82-5.59,11.4-3.43,12.22a3,3,0,0,0,3.43-1,49.37,49.37,0,0,1-6.67,6.13c-3.79,2.84-7.53,5.23-7.53,5.23s11.5-21.19,5.27-39.76c-5.45-16.26-17.85-23.8-23.8-27-8.07-4.4-19.07-6-19.07-6"/><polygon class="cls-1" points="223.54 120.71 223 120.71 207.16 120.71 206.62 120.71 206.62 120.17 206.62 56.83 206.62 56.29 207.16 56.29 223 56.29 223.54 56.29 223.54 56.83 223.54 120.17 223.54 120.71"/><path class="cls-1" d="M165.66,120.72H145.28V56.26h20.2a87.74,87.74,0,0,1,12.59.86,28,28,0,0,1,11.15,4.21,29.08,29.08,0,0,1,10.06,11A34.21,34.21,0,0,1,203,88.56,32.87,32.87,0,0,1,199,104.67a29.63,29.63,0,0,1-10,10.94,28.11,28.11,0,0,1-11,4.18,80.29,80.29,0,0,1-12.45.92m-3.37-51.54v38.59c3.44,0,6.39-.07,8.77-.19a13.91,13.91,0,0,0,6.74-2.2,15.34,15.34,0,0,0,5.76-6.58,24.35,24.35,0,0,0,2-10.37A24,24,0,0,0,183.45,78a15.21,15.21,0,0,0-6.4-6.72,14.93,14.93,0,0,0-6.55-1.89c-2.31-.11-5.08-.17-8.22-.17"/><path class="cls-1" d="M245.7,120.72h-17V56.26h25.14a40,40,0,0,1,9.6,1,23.48,23.48,0,0,1,7.38,3.25,16.58,16.58,0,0,1,5.72,6.57,21.91,21.91,0,0,1,2,9.71,25.92,25.92,0,0,1-1.43,8.61A18.36,18.36,0,0,1,273,92.3a28.07,28.07,0,0,1-3.62,3.12,21.81,21.81,0,0,1-4.39,2.44,27.53,27.53,0,0,1-5.19,1.56,32,32,0,0,1-6.26.56h-7.8v20.73Zm0-33.64h.57c1.51,0,2.94,0,4.25,0a23.54,23.54,0,0,0,3.41-.29A11.24,11.24,0,0,0,256.5,86a6.55,6.55,0,0,0,2-1.27,7.89,7.89,0,0,0,2.06-3.07,14.37,14.37,0,0,0,.55-4.42,7.7,7.7,0,0,0-1.19-4.32,6.23,6.23,0,0,0-2.82-2.46A12.82,12.82,0,0,0,253,69.33c-1.37-.1-3.24-.15-5.56-.15H245.7Z"/><path class="cls-1" d="M302.92,121.87a48.38,48.38,0,0,1-12.38-1.42A83.83,83.83,0,0,1,279,116.32l-.48-.21.2-.49,4.81-11.83.23-.57.53.3a52.41,52.41,0,0,0,7.73,3.55,31.11,31.11,0,0,0,11,2.14,36,36,0,0,0,4.07-.29,12,12,0,0,0,3.44-.89,7.43,7.43,0,0,0,2.63-1.89,4.42,4.42,0,0,0,1-3.07,4.17,4.17,0,0,0-1.67-3.45,11.47,11.47,0,0,0-4.27-2.07l-1.66-.45c-1.49-.41-2.9-.79-4.68-1.16A56.05,56.05,0,0,1,294.93,94c-5-1.76-8.63-4.17-10.82-7.17a18.78,18.78,0,0,1-3.29-11.3,17.64,17.64,0,0,1,7.75-14.84c5.24-3.83,11.14-5.62,18.59-5.62A51.21,51.21,0,0,1,318,56.27a55.13,55.13,0,0,1,10.62,3.65l.48.21-.2.49-4.39,10.91-.23.57-.54-.29A37,37,0,0,0,308,67.73a22.59,22.59,0,0,0-3.42.22,9.59,9.59,0,0,0-3,1,6.92,6.92,0,0,0-2.38,2,4.08,4.08,0,0,0-1,2.66,4.19,4.19,0,0,0,1.53,3.44,14.08,14.08,0,0,0,5.9,2.46l6.15,1.4a59,59,0,0,1,6.38,1.89c4.48,1.62,7.86,3.83,10.05,6.58s3.33,6.46,3.33,11A18.87,18.87,0,0,1,323.86,116c-5,3.83-12.2,5.86-20.94,5.86"/></svg>