<?xml version="1.0" encoding="utf-8"?>
<!-- Generator: Adobe Illustrator 21.0.0, SVG Export Plug-In . SVG Version: 6.00 Build 0)  -->
<svg version="1.1" id="Partner" xmlns="http://www.w3.org/2000/svg" xmlns:xlink="http://www.w3.org/1999/xlink" x="0px" y="0px"
	 viewBox="0 0 400 180" style="enable-background:new 0 0 400 180;" xml:space="preserve">
<style type="text/css">
	.st0{fill:#FFFFFF;}
</style>
<title>jz17-partner-driw</title>
<g>
	<path class="st0" d="M291.1,71c0-6.6-2.6-9.2-4.5-10.6c-2.9-2.1-7.6-3.1-13.8-3.1h-17.7v26.5h23.8C281.8,83.8,291.1,82.9,291.1,71z
		"/>
	<path class="st0" d="M171.3,49.5c0.2-0.1,0.5-0.1,0.7-0.1c0.7,0,1.4,0.3,1.8,0.9l48.7,62.1V17.9H57.3v143.2h112.4V51.6
		C169.7,50.6,170.4,49.8,171.3,49.5z M146.1,117.3c-3.3,4.1-7.5,7.2-12.5,9.2c-4.3,1.7-8.9,2.6-13.9,2.6H98.1
		c-1.3,0-2.4-1.1-2.4-2.4V52.3c0-1.3,1.1-2.4,2.4-2.4h21.5c5,0,9.7,0.9,13.9,2.6c5,2,9.2,5.1,12.5,9.2c7.9,9.7,8.7,23,8.7,28.3
		C154.8,96.2,153.7,108,146.1,117.3z"/>
	<path class="st0" d="M278.9,91.2h-23.8v30.6H276c20.6,0,20.6-12.3,20.6-16.3C296.6,97,289.3,91.2,278.9,91.2z"/>
	<path class="st0" d="M230,17.9v109.3c0,1-0.6,1.9-1.6,2.2c-0.2,0.1-0.5,0.1-0.7,0.1c-0.7,0-1.4-0.3-1.8-0.9l-48.7-62.1v94.7h160.1
		V17.9H230z M301.8,116.3c-1.4,3.1-3.5,5.6-6.3,7.6c-4.7,3.4-11.3,5.2-19.5,5.2h-25.9c-1.3,0-2.4-1.1-2.4-2.4V52.3
		c0-1.3,1.1-2.4,2.4-2.4h22.7c7.9,0,13.8,1.5,18.1,4.5c5.1,3.6,7.6,9.1,7.6,16.6c0,8.1-3.4,12.8-6.2,15.3l-0.3,0.3l0.4,0.2
		c1.5,0.8,2.9,1.7,4.1,2.7c4.8,4,7.5,9.6,7.5,15.8C304,109.5,303.3,113.2,301.8,116.3z"/>
	<path class="st0" d="M119.7,57.3h-16.5v64.4h16.5c6.1,0,14.6-1.6,20.7-9.1c6.2-7.6,7.1-17.4,7.1-22.7c0-3.5-0.5-15.5-7.1-23.6
		C134.3,58.9,125.7,57.3,119.7,57.3z"/>
</g>
</svg>
