<svg id="Partner" xmlns="http://www.w3.org/2000/svg" viewBox="0 0 400 180"><defs><style>.cls-1{fill:#fff;}</style></defs><title>jz17-partner-eika</title><path class="cls-1" d="M103.45,91.87h8.47a21.51,21.51,0,0,0-.89-6.25,15.38,15.38,0,0,0-2.62-5.13A12.41,12.41,0,0,0,104.09,77,13.55,13.55,0,0,0,98,75.75,14.31,14.31,0,0,0,91.87,77,14.47,14.47,0,0,0,87.2,80.5c-1.31,1.47-5.14,7.75-5.14,18.82,0,15.49,4.91,20.08,7,21.6a20.79,20.79,0,0,0,7.29,3.32,37.13,37.13,0,0,0,9,1,60.52,60.52,0,0,0,11.11-1.08,85.79,85.79,0,0,0,11.72-3.09v14.58a54.77,54.77,0,0,1-10.88,2.93A81.5,81.5,0,0,1,102.13,140,54.52,54.52,0,0,1,87,138a32.79,32.79,0,0,1-12.46-6.59,31.74,31.74,0,0,1-8.44-11.8Q63,112.31,63,102A49.55,49.55,0,0,1,66,84.16a36.24,36.24,0,0,1,7.87-12.65A32.36,32.36,0,0,1,85.12,64a35.58,35.58,0,0,1,13.15-2.51,38.23,38.23,0,0,1,13.07,2.16,26.28,26.28,0,0,1,10.34,6.79,31.74,31.74,0,0,1,6.79,11.92,54.71,54.71,0,0,1,2.43,17.24q-.08,3.86-.23,6.56H87.89S87,91.87,103.45,91.87"/><rect class="cls-1" x="142.42" y="63.33" width="18.28" height="74.74"/><path class="cls-1" d="M281.73,91.84c0,8.72-3.18,13.18-11.68,14.35-6.55.91-10.47,3.79-10.47,9.11,0,4.83,3.5,10.12,11.84,10.12a18.32,18.32,0,0,0,5.24-.73,24.12,24.12,0,0,0,4.55-1.85,22.13,22.13,0,0,0,3.74-2.51,26,26,0,0,0,2.81-2.7V92.49c0-5.22-.48-7-.89-8.06A11.34,11.34,0,0,0,284,80.11a14.06,14.06,0,0,0-5.13-3A23.29,23.29,0,0,0,271.18,76a51.07,51.07,0,0,0-11.11,1.23,87.32,87.32,0,0,0-12,3.7V66.65a60.12,60.12,0,0,1,12-3.78,69,69,0,0,1,13.27-1.39,46.12,46.12,0,0,1,14.31,2A30.08,30.08,0,0,1,297.83,69,22.3,22.3,0,0,1,304,77.29a26.24,26.24,0,0,1,2,10.41v32.51a51.3,51.3,0,0,0,3.23,17.85h-15.4a14.56,14.56,0,0,1-2.62-3.06,21,21,0,0,1-2.34-4.88,35,35,0,0,1-8.64,6.52,28.85,28.85,0,0,1-6.17,2.43,27.76,27.76,0,0,1-7.33.93,29.28,29.28,0,0,1-9.95-1.66,22.45,22.45,0,0,1-7.94-4.78,22.17,22.17,0,0,1-5.21-7.56,25,25,0,0,1-1.89-9.91c0-17.18,13.09-23.32,25.26-24.29a98.3,98.3,0,0,1,14.68,0"/><path class="cls-1" d="M339,127.1a11,11,0,1,1-11-11,11,11,0,0,1,11,11"/><polygon class="cls-1" points="217.66 63.34 192.76 88.46 192.76 28 174.48 28 174.48 138.07 192.76 138.07 192.76 108.71 240.45 63.34 217.66 63.34"/><path class="cls-1" d="M241.75,138.07H220.28L208.68,119.9c-8.52-13.43,3.64-23.61,3.64-23.61Z"/></svg>