<svg id="Partner" xmlns="http://www.w3.org/2000/svg" viewBox="0 0 400 180"><defs><style>.cls-1,.cls-2{fill:#fff;}.cls-2{fill-rule:evenodd;}</style></defs><title>jz17-partner-greenbird</title><path class="cls-1" d="M93.52,88.4a7,7,0,0,0-1.78,4.71,6.12,6.12,0,0,0,1.49,4.24A4.86,4.86,0,0,0,97,99,5,5,0,0,0,101.14,97a7.54,7.54,0,0,0,1.61-4.79A6,6,0,0,0,101.27,88a4.82,4.82,0,0,0-3.74-1.64A5.22,5.22,0,0,0,93.52,88.4Z"/><path class="cls-1" d="M150.87,87.24a4.67,4.67,0,0,0-3.9-1.76q-4.77,0-7,6.58h12.25A7.61,7.61,0,0,0,150.87,87.24Z"/><path class="cls-1" d="M179.39,87.24a4.67,4.67,0,0,0-3.9-1.76q-4.77,0-7,6.58h12.25A7.61,7.61,0,0,0,179.39,87.24Z"/><path class="cls-1" d="M139.7,122.4a3.09,3.09,0,0,0-2.07.75,3.66,3.66,0,0,0-1.16,2.1h6.32Q142.24,122.4,139.7,122.4Z"/><path class="cls-1" d="M223.35,122.4a3.09,3.09,0,0,0-2.07.75,3.66,3.66,0,0,0-1.16,2.1h6.32Q225.88,122.4,223.35,122.4Z"/><path class="cls-1" d="M165.33,127.05a2.28,2.28,0,0,0-1.32,2,1.44,1.44,0,0,0,.55,1.14,2.06,2.06,0,0,0,1.38.47,4.08,4.08,0,0,0,2.71-1.26v-3A6,6,0,0,0,165.33,127.05Z"/><path class="cls-1" d="M147.63,123.18a2.45,2.45,0,0,0-.74,1.8,2.59,2.59,0,0,0,.75,1.88,2.46,2.46,0,0,0,1.83.77,2.62,2.62,0,0,0,2.61-2.61,2.47,2.47,0,0,0-.77-1.83,2.55,2.55,0,0,0-1.86-.76A2.48,2.48,0,0,0,147.63,123.18Z"/><path class="cls-1" d="M146.28,133.64q0,1.8,3.34,1.8a4.8,4.8,0,0,0,2.41-.52,1.55,1.55,0,0,0,.9-1.37q0-1.72-3.11-1.72Q146.28,131.84,146.28,133.64Z"/><path class="cls-1" d="M188.35,122.4a3.67,3.67,0,0,0-2.76,1.16,4.34,4.34,0,0,0,0,5.79,3.87,3.87,0,0,0,5.51,0,4.33,4.33,0,0,0,0-5.78A3.63,3.63,0,0,0,188.35,122.4Z"/><path class="cls-1" d="M290,123.18a2.45,2.45,0,0,0-.74,1.8,2.59,2.59,0,0,0,.75,1.88,2.46,2.46,0,0,0,1.83.77,2.62,2.62,0,0,0,2.61-2.61,2.47,2.47,0,0,0-.77-1.83,2.55,2.55,0,0,0-1.86-.76A2.48,2.48,0,0,0,290,123.18Z"/><path class="cls-1" d="M265.14,122.4a3.67,3.67,0,0,0-2.76,1.16,4.34,4.34,0,0,0,0,5.79,3.87,3.87,0,0,0,5.51,0,4.33,4.33,0,0,0,0-5.78A3.63,3.63,0,0,0,265.14,122.4Z"/><path class="cls-1" d="M281.25,122.4a3.67,3.67,0,0,0-2.76,1.16,4.34,4.34,0,0,0,0,5.79,3.87,3.87,0,0,0,5.51,0,4.33,4.33,0,0,0,0-5.78A3.63,3.63,0,0,0,281.25,122.4Z"/><path class="cls-1" d="M288.65,133.64q0,1.8,3.34,1.8a4.8,4.8,0,0,0,2.41-.52,1.55,1.55,0,0,0,.9-1.37q0-1.72-3.11-1.72Q288.65,131.84,288.65,133.64Z"/><path class="cls-1" d="M259.7,50.2c.41.64.77,1.31,1.12,2a19.87,19.87,0,0,0,1.82,2.94,10.39,10.39,0,0,0,3.71,2.55c.6.3,1.22.61,1.83,1a17.33,17.33,0,0,0,5.48,2.29,11.47,11.47,0,0,0,2.32.19c.67,0,1.36,0,2-.06S279.34,61,280,61a40.65,40.65,0,0,0,10.42-1.32L297,58.27l14.71-2.94c1.86-.46,3.78-.91,5.64-1.34l3.71-.87a13.64,13.64,0,0,0-11.64-6.57H256.31A15.8,15.8,0,0,1,259.7,50.2Z"/><path class="cls-1" d="M312.62,61.47c-2.54.46-5.19.82-7.75,1.16a110,110,0,0,0-11.44,1.95c-.6.15-1.34.28-2.12.42-2.1.37-4.7.82-5.44,1.78a3.94,3.94,0,0,0-.5,2.47c0,1.52,0,3.42-2.66,3.94h-.08l-4.75.18h-.06a10.21,10.21,0,0,0-1.49-.12,4,4,0,0,0-.83.07,6.7,6.7,0,0,0-2.15,1A7.74,7.74,0,0,1,271,75.46h-.11l-3.11,0a23,23,0,0,1-3.41.19h-5.16a13.53,13.53,0,0,1-4.74-.6,5.84,5.84,0,0,1-1.77-1.22,6.63,6.63,0,0,0-1-.79,3.33,3.33,0,0,0-1.26-.2,4.87,4.87,0,0,1-1.6-.25,7,7,0,0,1-1.7-1.1,5.57,5.57,0,0,0-1.66-1l-.48-.15c-1-.28-2.32-.67-2.71-1.63a1.64,1.64,0,0,1,.16-1.47c.7-1.24,2.15-1.4,3.35-1.4.53,0,1.09,0,1.64.07s1.12.07,1.66.07a7.45,7.45,0,0,0,1.3-.1A4.19,4.19,0,0,0,253,64.06l.1-.12a2.08,2.08,0,0,0,.66-1.88c-.48-1.5-2.23-2.36-3.92-3.19-.61-.3-1.2-.59-1.71-.9-3.54-2.16-6.16-3.9-8.47-5.65l-5.14-4.2-2-1.57H86.18A13.78,13.78,0,0,0,72.5,60.41v69.72A13.78,13.78,0,0,0,86.18,144H309.42a13.78,13.78,0,0,0,13.69-13.87V60.41s0-.07,0-.11l-3.06.33ZM165.91,85.81a12.31,12.31,0,0,1,9.84-4.88,9.39,9.39,0,0,1,7.41,3.42,13,13,0,0,1,3,8.82,20.23,20.23,0,0,1-.19,2.73H167.67a16.31,16.31,0,0,0-.25,2.8,8.9,8.9,0,0,0,2.21,6.37,7.32,7.32,0,0,0,5.55,2.34q4.07,0,9.51-4l-.79,5.28a16.11,16.11,0,0,1-9.76,3.27,11.19,11.19,0,0,1-8.89-3.86q-3.35-3.86-3.35-10.29A18.3,18.3,0,0,1,165.91,85.81Zm-54.16.33h-5.66A9.84,9.84,0,0,1,108,91.93a11.92,11.92,0,0,1-1.57,6.17,9.16,9.16,0,0,1-3.85,3.77,23.21,23.21,0,0,1-5.87,1.75,14.4,14.4,0,0,0-4.55,1.3,1.86,1.86,0,0,0-1,1.54,1.53,1.53,0,0,0,.83,1.22,29,29,0,0,0,6,1.79q5.14,1.24,7.19,3.32a6.77,6.77,0,0,1,2.05,4.91,7.08,7.08,0,0,1-3.37,5.95A14.46,14.46,0,0,1,95.34,126a17.45,17.45,0,0,1-9.14-2.16q-3.58-2.16-3.58-5.41,0-4.23,8.43-6Q86,110.56,86,107.29a4.34,4.34,0,0,1,1.56-3.16,10,10,0,0,1,4.23-2.24,8.63,8.63,0,0,1-5.28-8.39,11.6,11.6,0,0,1,3.2-8.3,10.21,10.21,0,0,1,7.68-3.37h15Zm3.36,45.18H114V116.51h1.14Zm11.07,0h-1v-5.55q0-3.37-2.65-3.37a3.67,3.67,0,0,0-3.19,2.09v6.84h-1v-9.75h1v1.7h0a3.68,3.68,0,0,1,3.21-1.89,3.43,3.43,0,0,1,2.64,1.06,4.14,4.14,0,0,1,1,2.94Zm-2.93-39.95a13.12,13.12,0,0,0-1.88,3.23l-2.29,16.47h-5.52l4.1-29.25h5.52l-.86,5.56.13.13a25.35,25.35,0,0,1,4.14-4.93,5.67,5.67,0,0,1,3.63-1.21,6.46,6.46,0,0,1,2.42.45v6.26a6.93,6.93,0,0,0-3.41-1,5.28,5.28,0,0,0-2.9.81A12.75,12.75,0,0,0,123.24,91.37ZM134.17,131a4.6,4.6,0,0,1-2,.5,2.4,2.4,0,0,1-1.61-.55,1.9,1.9,0,0,1-.65-1.53v-7h-2.63v-.85h2.63v-2.32l.71-.91h.33v3.23h2.73v.85h-2.73v5.8a4.73,4.73,0,0,0,.23,1.84q.23.44,1.22.44a4.31,4.31,0,0,0,1.78-.48Zm3.3-1.65a3.82,3.82,0,0,0,2.76,1.13,5.68,5.68,0,0,0,3.62-1.45v1.18a6,6,0,0,1-3.75,1.29,4.58,4.58,0,0,1-3.49-1.46,5.21,5.21,0,0,1-1.38-3.72,5.08,5.08,0,0,1,1.27-3.55,4.34,4.34,0,0,1,6.26-.14,4.68,4.68,0,0,1,1.25,3.44h-7.68a4.1,4.1,0,0,0,0,.51A3.71,3.71,0,0,0,137.47,129.36Zm16.47-6.94h-2.22a3.53,3.53,0,0,1,1.35,2.59,3.18,3.18,0,0,1-.52,1.93,3.14,3.14,0,0,1-1.25,1,12.75,12.75,0,0,1-1.93.64,4.27,4.27,0,0,0-1.52.59.83.83,0,0,0-.31.64.77.77,0,0,0,.4.68,7.29,7.29,0,0,0,2.47.37,4.58,4.58,0,0,1,2.79.79,2.52,2.52,0,0,1-.43,3.88,7.26,7.26,0,0,1-6.37,0,2.17,2.17,0,0,1-1.11-1.89q0-1.91,2.84-2.36v0q-1.58-.37-1.58-1.39t2-1.59v0a3.63,3.63,0,0,1-1.94-1.27,3.37,3.37,0,0,1,.41-4.47,4.42,4.42,0,0,1,3.07-1h3.91ZM145.61,112a11.19,11.19,0,0,1-8.89-3.86q-3.35-3.86-3.35-10.29a18.3,18.3,0,0,1,4-12,12.31,12.31,0,0,1,9.84-4.88,9.39,9.39,0,0,1,7.41,3.42,13,13,0,0,1,3,8.82,20.23,20.23,0,0,1-.19,2.73H139.15a16.31,16.31,0,0,0-.25,2.8,8.9,8.9,0,0,0,2.21,6.37,7.32,7.32,0,0,0,5.55,2.34q4.07,0,9.51-4l-.79,5.28A16.11,16.11,0,0,1,145.61,112Zm16.17,11.52a3.41,3.41,0,0,0-2-1.11q-1.46,0-3.13,2.8v6.13h-1v-9.75h1v2.56h0q1.75-2.76,3.41-2.76a3.64,3.64,0,0,1,2.24,1.16Zm9.54,7a4.1,4.1,0,0,1-2,1,.53.53,0,0,1-.5-.24,2.7,2.7,0,0,1-.2-1,5,5,0,0,1-3.05,1.21,2.62,2.62,0,0,1-1.87-.72A2.32,2.32,0,0,1,163,129a2.82,2.82,0,0,1,1.47-2.51,8.87,8.87,0,0,1,4.21-1.05v-1.24q0-2-2.16-2a5,5,0,0,0-3,1.24v-1.07a6,6,0,0,1,3.15-1,3.51,3.51,0,0,1,2.18.65,2.23,2.23,0,0,1,.86,1.89V130q0,.5.23.5a3.8,3.8,0,0,0,1.39-.87Zm6.74.52a4.6,4.6,0,0,1-2,.5,2.4,2.4,0,0,1-1.61-.55,1.9,1.9,0,0,1-.65-1.53v-7h-2.63v-.85h2.63v-2.32l.71-.91h.33v3.23h2.73v.85h-2.73v5.8a4.73,4.73,0,0,0,.23,1.84q.23.44,1.22.44a4.31,4.31,0,0,0,1.78-.48Zm2.76.31h-1v-9.75h1Zm0-13h-1v-1.78h1Zm11.06,11.77a5.05,5.05,0,0,1-7.08,0,5.3,5.3,0,0,1,0-7.23,5,5,0,0,1,7.08,0,5.33,5.33,0,0,1,0,7.23Zm11.74,1.26h-1v-5.55q0-3.37-2.65-3.37a3.67,3.67,0,0,0-3.19,2.09v6.84h-1v-9.75h1v1.7h0a3.68,3.68,0,0,1,3.21-1.89,3.43,3.43,0,0,1,2.64,1.06,4.14,4.14,0,0,1,1,2.94Zm5.57-44.19a2.93,2.93,0,0,0-2.39-1.21,5.11,5.11,0,0,0-1.87.41,10.37,10.37,0,0,0-2.22,1.27,25.86,25.86,0,0,0-2.92,2.6A7.29,7.29,0,0,0,198,92.44l-2.67,18.63h-5.46L194,81.82h5.55L198.78,87l.15.1q4.67-5.72,9.7-5.72a6.22,6.22,0,0,1,5.28,2.5,10.43,10.43,0,0,1,1.88,6.44,14.89,14.89,0,0,1-.19,2.32l-2.8,18.44h-5.46L210,92.44a11.44,11.44,0,0,0,.16-1.81A5.54,5.54,0,0,0,209.2,87.13ZM215,131.32h-1.16V117.47h-5.55v-1H220.6v1H215Zm6.07-2a3.82,3.82,0,0,0,2.76,1.13,5.68,5.68,0,0,0,3.62-1.45v1.18a6,6,0,0,1-3.75,1.29,4.58,4.58,0,0,1-3.49-1.46,5.21,5.21,0,0,1-1.38-3.72,5.08,5.08,0,0,1,1.27-3.55,4.34,4.34,0,0,1,6.26-.14,4.68,4.68,0,0,1,1.25,3.44H220a4.1,4.1,0,0,0,0,.51A3.71,3.71,0,0,0,221.11,129.36ZM236.94,131a8.46,8.46,0,0,1-2.71.5,4.61,4.61,0,0,1-3.46-1.36,4.89,4.89,0,0,1-1.32-3.56,5.36,5.36,0,0,1,1.33-3.76,4.39,4.39,0,0,1,3.4-1.46,8.41,8.41,0,0,1,2.59.48V123a6.38,6.38,0,0,0-2.53-.61,3.41,3.41,0,0,0-2.65,1.13,4.23,4.23,0,0,0-1,2.95,4.1,4.1,0,0,0,1,2.93,3.58,3.58,0,0,0,2.74,1.09,7,7,0,0,0,2.63-.56Zm10,.31h-1v-5.55q0-3.37-2.65-3.37a3.74,3.74,0,0,0-3.19,2.09v6.84h-1V116.51h1v6.75h0a3.68,3.68,0,0,1,3.21-1.89,3.43,3.43,0,0,1,2.64,1.06,4.11,4.11,0,0,1,1,2.91ZM242.3,107q-4.9,5-14.12,5a53.83,53.83,0,0,1-7.76-.48l6.07-44.86h5.65l-2.36,17.52a9.78,9.78,0,0,1,7.13-3.24,9,9,0,0,1,7.4,3.7,15.28,15.28,0,0,1,2.88,9.65A17.39,17.39,0,0,1,242.3,107Zm15.45,24.3h-1v-5.55q0-3.37-2.65-3.37a3.67,3.67,0,0,0-3.19,2.09v6.84h-1v-9.75h1v1.7h0a3.68,3.68,0,0,1,3.21-1.89,3.43,3.43,0,0,1,2.64,1.06,4.14,4.14,0,0,1,1,2.94Zm-1.69-20.25h-5.52l4.1-29.25h5.52Zm12.62,19a5.05,5.05,0,0,1-7.08,0,5.3,5.3,0,0,1,0-7.23,5,5,0,0,1,7.08,0,5.33,5.33,0,0,1,0,7.23Zm5,1.26h-1V116.51h1Zm-.33-39.95a13.11,13.11,0,0,0-1.88,3.23l-2.29,16.47H263.7l4.1-29.25h5.52l-.86,5.56.13.13a25.36,25.36,0,0,1,4.14-4.93,5.67,5.67,0,0,1,3.63-1.21,6.46,6.46,0,0,1,2.42.45v6.26a6.93,6.93,0,0,0-3.41-1,5.28,5.28,0,0,0-2.9.81A12.76,12.76,0,0,0,273.39,91.37Zm11.4,38.69a5.05,5.05,0,0,1-7.08,0,5.3,5.3,0,0,1,0-7.23,5,5,0,0,1,7.08,0,5.33,5.33,0,0,1,0,7.23Zm11.53-7.65h-2.22a3.53,3.53,0,0,1,1.35,2.59,3.18,3.18,0,0,1-.52,1.93,3.14,3.14,0,0,1-1.25,1,12.75,12.75,0,0,1-1.93.64,4.27,4.27,0,0,0-1.52.59.83.83,0,0,0-.31.64.77.77,0,0,0,.4.68,7.28,7.28,0,0,0,2.47.37,4.57,4.57,0,0,1,2.79.79,2.52,2.52,0,0,1-.43,3.88,7.26,7.26,0,0,1-6.37,0,2.17,2.17,0,0,1-1.11-1.89q0-1.91,2.84-2.36v0q-1.58-.37-1.58-1.39t2-1.59v0a3.63,3.63,0,0,1-1.94-1.27,3.37,3.37,0,0,1,.41-4.47,4.42,4.42,0,0,1,3.07-1h3.91Zm2.23,13.89h-1.06l3.41-6.89-4.11-7.86h1.09l3.54,6.81,3.37-6.81h1.06Zm6.68-25.24a27.18,27.18,0,0,1-7.47.92q-7.41,0-11.4-3.53t-4-10q0-6.36,5.19-11.94t14.08-5.58H304l2-14.28h5.52Z"/><path class="cls-1" d="M291.86,89.31a12.23,12.23,0,0,0-3.81,9,8.8,8.8,0,0,0,2.51,6.72q2.51,2.37,7.19,2.37a18.79,18.79,0,0,0,2.54-.13l3-21.75h-1.43A13.64,13.64,0,0,0,291.86,89.31Z"/><path class="cls-1" d="M235.19,85.73a8.48,8.48,0,0,0-4,1.09,3.75,3.75,0,0,0-2.29,2.62l-2.52,18h3.05a11.26,11.26,0,0,0,8.82-3.59q3.23-3.59,3.23-9.67a10.05,10.05,0,0,0-1.69-6.2A5.52,5.52,0,0,0,235.19,85.73Z"/><path class="cls-1" d="M87.9,118.35q0,1.62,2.11,2.58a14.3,14.3,0,0,0,5.77,1,8.69,8.69,0,0,0,4.52-1,3,3,0,0,0,1.69-2.64q0-1.59-2.77-2.88a11.52,11.52,0,0,0-3.75-1.29,14.07,14.07,0,0,0-4.4,1.32Q87.9,116.7,87.9,118.35Z"/><path class="cls-2" d="M293.22,63.71a110.55,110.55,0,0,1,11.53-2c2.56-.34,5.2-.7,7.74-1.16l7.46-.85,8.68-.93A89.38,89.38,0,0,0,348.2,53c.47-.21,1-.4,1.42-.59a22,22,0,0,0,3.26-1.53,16.71,16.71,0,0,0,2.75-2.3c.55-.53,1.11-1.07,1.71-1.56,1.09-.88,2.81-2.59,3.1-3.71a1.09,1.09,0,0,0-.18-1,1.29,1.29,0,0,0-1.14-.58,6.26,6.26,0,0,0-1.79.41l-.78.24c-1.13.31-2.29.62-3.41.92a84.62,84.62,0,0,0-10.37,3.21c-1.66.68-3.38,1.32-5,1.93-1.42.52-2.88,1.06-4.32,1.63l-4.08,1.7c-3.84,1.19-7.88,2.12-11.78,3-1.85.43-3.77.87-5.65,1.34l-14.72,2.94-6.59,1.38A41.43,41.43,0,0,1,280,61.87c-.61,0-1.24,0-1.91.05S276.67,62,276,62a12.32,12.32,0,0,1-2.5-.21,18.11,18.11,0,0,1-5.75-2.4c-.58-.34-1.19-.64-1.78-.93a11,11,0,0,1-4-2.79A20.83,20.83,0,0,1,260,52.59c-.35-.64-.71-1.29-1.1-1.91a16.64,16.64,0,0,0-4.16-4.2,55.13,55.13,0,0,0-9.14-5.17c-2.16-1-4.4-2.13-6.47-3.37-7.46-4.46-14.33-9.31-21.9-14.72-2.71-1.94-5.25-4.1-7.71-6.19-1.34-1.14-2.73-2.32-4.11-3.44a11.92,11.92,0,0,1-1.21-1.21c-1-1.08-2.12-2.31-3.63-2.33a1.83,1.83,0,0,0-.87,1.06c-.13.62.36,1.35.92,2.2l.07.1a44.32,44.32,0,0,0,5.53,6.86L216.15,30l5.95,5.8,4.57,4.5,2.84,2.62,5.6,4.49,5.13,4.19c2.28,1.72,4.87,3.45,8.39,5.59.48.29,1,.57,1.64.86,1.77.87,3.78,1.86,4.37,3.72a2.89,2.89,0,0,1-.8,2.7l-.09.12a5.08,5.08,0,0,1-3.22,2.21,8.33,8.33,0,0,1-1.46.11c-.56,0-1.15,0-1.71-.07s-1.08-.07-1.58-.07c-1.43,0-2.19.28-2.56.94a.79.79,0,0,0-.11.69c.23.56,1.37.89,2.12,1.11l.53.16a6.35,6.35,0,0,1,1.92,1.18,6.23,6.23,0,0,0,1.48,1,4.29,4.29,0,0,0,1.3.18,3.72,3.72,0,0,1,1.68.33,7.44,7.44,0,0,1,1.13.89,5.07,5.07,0,0,0,1.5,1.05,13,13,0,0,0,4.41.54h1.41c.86,0,1.7,0,2.55,0h1.2a22.19,22.19,0,0,0,3.32-.19h0l3.08,0a7,7,0,0,0,2.08-1,7.51,7.51,0,0,1,2.43-1.13,4.87,4.87,0,0,1,1-.09,11.09,11.09,0,0,1,1.6.13l4.62-.18c1.92-.39,1.92-1.57,1.92-3.06a4.72,4.72,0,0,1,.68-3c.95-1.23,3.63-1.7,6-2.11C291.92,64,292.65,63.85,293.22,63.71Z"/></svg>