<svg id="Partner" xmlns="http://www.w3.org/2000/svg" viewBox="0 0 400 180"><defs><style>.cls-1,.cls-2{fill:#fff;}.cls-1{opacity:0.5;}</style></defs><title>jz17-partner-nets</title><path class="cls-1" d="M69.78,89.45c2.74-2.31,6.62-4.09,12.27-4.46a18.5,18.5,0,0,1,10.48,3c2.1-1,4.16-2,6-3.09l-.61-.75c-5-6.48-9.68-11.92-18.6-13.36-6.64-1.07-12.77,1.14-16.63,5.91C61.78,80.08,64.3,86,69.78,89.45Z"/><path class="cls-1" d="M129.53,90.55c-2.74,2.31-6.62,4.09-12.27,4.46a18.5,18.5,0,0,1-10.48-3c-2.1,1-4.16,2-6,3.09l.61.75c5,6.48,9.68,11.92,18.6,13.36,6.64,1.07,12.77-1.14,16.63-5.91C137.53,99.92,135,94,129.53,90.55Z"/><path class="cls-2" d="M136.63,78.28c-.26.88-.78,2.24-1.36,3.73-2,5.08-6,12.21-18,13-7.45.49-15.28-5.64-19.34-10.86-5-6.48-9.68-11.92-18.6-13.36-6.64-1.07-12.77,1.14-16.63,5.91a38.21,38.21,0,0,1,73.95,1.57"/><path class="cls-2" d="M62.68,101.72a43.87,43.87,0,0,1,1.89-5c2.16-4.92,6.48-11,17.48-11.7,7.45-.49,15.28,5.64,19.34,10.86,5,6.48,9.68,11.92,18.6,13.36,6.64,1.07,12.77-1.14,16.63-5.91a38.21,38.21,0,0,1-73.95-1.57"/><path class="cls-2" d="M191.9,63.36H159.83v54h12V73.12h14.5c3.35,0,4.9,1.54,4.9,4.86v39.37h12V78.57C203.24,68.34,199.53,63.36,191.9,63.36Z"/><path class="cls-2" d="M234,63.36c-14.19,0-21.38,6.75-21.38,20.07V97.5c0,13.73,6.73,19.85,21.82,19.85h19.28v-9.76H233.23c-5.69,0-8.58-3.28-8.58-9.43v-16c0-6,3.28-9.16,9.49-9.16,7.68,0,8.72,4.63,8.72,9.16v3.27H231v9.08h23.17V84.09C254.21,69.76,248,63.36,234,63.36Z"/><path class="cls-2" d="M321.73,85.26c-7.41-1.91-8-2.44-8-7.06,0-2.87.9-5.09,4.61-5.09h16.49V63.35H321c-16,0-19.05,5.44-19.05,14.74,0,10.1,1.65,13,14,16.05,8.29,2,9.77,3.73,9.77,7.61,0,3.47-.69,5.83-4.44,5.83H301.61v9.76h19.32c13.89-.49,16.57-6.23,16.57-15.92C337.5,91.1,336.43,89.15,321.73,85.26Z"/><path class="cls-2" d="M275.69,102.26V73.15h17.67V64.06H275.69V49.57l-12,1.67v52.92c0,8.09,4.46,13.26,11.15,13.26h19.3v-9.79h-13C277.51,107.64,275.69,105.75,275.69,102.26Z"/></svg>