<svg id="Partner" xmlns="http://www.w3.org/2000/svg" viewBox="0 0 400 180"><defs><style>.cls-1{fill:#fff;}</style></defs><title>jz17-partner-redhat</title><path class="cls-1" d="M66.83,85.79,52.53,91a41.55,41.55,0,0,0,1.13,6.78l13.59-4.95a26.64,26.64,0,0,1-.42-7"/><path class="cls-1" d="M130,70a40.84,40.84,0,0,0-3.51-5.93l-14.3,5.21a26.58,26.58,0,0,1,4.2,5.66Z"/><path class="cls-1" d="M98.57,65.93a26.4,26.4,0,0,1,7.72,5.51l14.3-5.2a40.87,40.87,0,0,0-74,27L60.86,88a26.5,26.5,0,0,1,37.7-22"/><path class="cls-1" d="M54.56,97.46,41,102.4a41.41,41.41,0,0,0,6.38,13.85l14.24-5.19a26.73,26.73,0,0,1-7.07-13.6"/><path class="cls-1" d="M113.83,92.06a26.15,26.15,0,0,1-2.4,9.16,26.59,26.59,0,0,1-35.3,12.87,26.32,26.32,0,0,1-7.74-5.5L54.1,113.82A40.52,40.52,0,0,0,70,127.09a41,41,0,0,0,54.36-19.79,40.48,40.48,0,0,0,3.68-20.43Z"/><path class="cls-1" d="M117.37,74.61l-13.59,4.95a26.68,26.68,0,0,1,3.33,15l14.27-5.19a41.24,41.24,0,0,0-4-14.72"/><path class="cls-1" d="M66.77,88.67a26.1,26.1,0,0,1,.05-2.87L52.53,91c.07.92.19,1.83.33,2.73Z"/><path class="cls-1" d="M128,66.22c-.45-.76-.92-1.45-1.41-2.15l-14.3,5.2a24.09,24.09,0,0,1,1.76,2Z"/><path class="cls-1" d="M54.1,113.82a40.7,40.7,0,0,0,3.64,4.41l15.53-5.67a26.28,26.28,0,0,1-4.9-3.95Zm74-27-14.27,5.19a26.16,26.16,0,0,1-1.21,6.11l15.53-5.67a40.48,40.48,0,0,0-.05-5.67"/><path class="cls-1" d="M156.6,81.89l-3-6.21h-2.05v6.21h-5V63.49h8.25a12.22,12.22,0,0,1,2.93.33,6.24,6.24,0,0,1,2.29,1,4.64,4.64,0,0,1,1.46,1.86,6.77,6.77,0,0,1,.51,2.77,5.9,5.9,0,0,1-.89,3.39,5.67,5.67,0,0,1-2.48,2l3.69,7h-5.7Zm-.24-13.7a2.29,2.29,0,0,0-1.73-.55h-3.05v4h3a2.5,2.5,0,0,0,1.79-.53,2.05,2.05,0,0,0,.53-1.53A2,2,0,0,0,156.36,68.19Z"/><path class="cls-1" d="M166.16,81.89V63.49h14.1v4.28h-9v2.47h5.45v4.21h-5.45v3.15h9.23v4.28Z"/><path class="cls-1" d="M199.78,77a6.64,6.64,0,0,1-1.89,2.86,7.64,7.64,0,0,1-3.12,1.58,17,17,0,0,1-4.3.49h-6V63.49h6.45a16,16,0,0,1,3.92.45,7.14,7.14,0,0,1,3,1.53,7,7,0,0,1,1.89,2.8,12.13,12.13,0,0,1,.67,4.34A13.18,13.18,0,0,1,199.78,77ZM195,70.48a3.53,3.53,0,0,0-.73-1.53,2.94,2.94,0,0,0-1.31-.86,6.28,6.28,0,0,0-2-.27h-1.26v9.71h1.11a7.18,7.18,0,0,0,2-.25,3.05,3.05,0,0,0,1.38-.82,3.3,3.3,0,0,0,.76-1.53,9.55,9.55,0,0,0,.24-2.29A9.34,9.34,0,0,0,195,70.48Z"/><path class="cls-1" d="M224.68,81.89V74.64h-5.74V81.9h-5.19V63.49h5.19v6.71h5.74V63.49h5.21v18.4h-5.2Z"/><path class="cls-1" d="M246.3,81.89l-1-3.2h-5.52l-1,3.2h-5.47L240,63.48h5.15l6.68,18.41H246.3Zm-2.57-8.49q-.24-.89-.42-1.53L243,70.69q-.15-.53-.25-1t-.18-1q-.08.47-.18.92t-.25,1l-.33,1.18-.42,1.53L241,74.58h3.05Z"/><path class="cls-1" d="M262.25,67.93v14h-5.12v-14H252V63.49h15.41v4.44h-5.13Z"/><path class="cls-1" d="M274.24,66.67A2.29,2.29,0,0,1,273,67.92a2.54,2.54,0,0,1-1.88,0,2.29,2.29,0,0,1-1.25-1.25,2.54,2.54,0,0,1,0-1.88,2.29,2.29,0,0,1,1.25-1.25,2.54,2.54,0,0,1,1.88,0,2.29,2.29,0,0,1,1.25,1.25A2.53,2.53,0,0,1,274.24,66.67Zm-.35-1.73a1.92,1.92,0,0,0-1.05-1.05,2.13,2.13,0,0,0-1.57,0,1.92,1.92,0,0,0-1.05,1.05,2.12,2.12,0,0,0,0,1.57,1.93,1.93,0,0,0,1.05,1.05,2.13,2.13,0,0,0,1.57,0,1.92,1.92,0,0,0,1.05-1.05A2.12,2.12,0,0,0,273.89,64.95Zm-.92.76a.76.76,0,0,1-.4.26l.53,1h-.52l-.5-1h-.5v1h-.44V64.39h1.13a1.13,1.13,0,0,1,.32,0,.76.76,0,0,1,.27.15.68.68,0,0,1,.18.24.82.82,0,0,1,.07.35.76.76,0,0,1-.14.5Zm-.4-.76a.47.47,0,0,0-.3-.09h-.69v.76h.69a.48.48,0,0,0,.3-.09.38.38,0,0,0,0-.54Z"/><path class="cls-1" d="M167.45,106.67a13.75,13.75,0,0,1-2.34,4.52,10.61,10.61,0,0,1-13,3,10.5,10.5,0,0,1-3.61-2.94,13.75,13.75,0,0,1-2.29-4.5,19.22,19.22,0,0,1-.81-5.72,19,19,0,0,1,.82-5.74,14,14,0,0,1,2.29-4.52,10.69,10.69,0,0,1,3.63-3,10.93,10.93,0,0,1,9.37,0,10.52,10.52,0,0,1,3.61,2.94,14,14,0,0,1,2.29,4.5,18.8,18.8,0,0,1,.82,5.72A19,19,0,0,1,167.45,106.67Zm-2.9-10.41a11.71,11.71,0,0,0-1.79-3.63,8,8,0,0,0-2.68-2.29,7.1,7.1,0,0,0-3.35-.81,6.87,6.87,0,0,0-3.29.81,7.9,7.9,0,0,0-2.63,2.29,11.4,11.4,0,0,0-1.73,3.59,16.42,16.42,0,0,0-.63,4.71,16,16,0,0,0,.65,4.71,12,12,0,0,0,1.78,3.63,7.84,7.84,0,0,0,2.67,2.29,7.09,7.09,0,0,0,3.35.81,7,7,0,0,0,3.31-.81,7.82,7.82,0,0,0,2.64-2.29,11.46,11.46,0,0,0,1.73-3.59,16.46,16.46,0,0,0,.63-4.71A16,16,0,0,0,164.55,96.26Z"/><path class="cls-1" d="M194,99.05a7.51,7.51,0,0,1-1.92,2.68,8.06,8.06,0,0,1-3,1.63,12.42,12.42,0,0,1-3.82.55h-6.67v10.85h-3.05V87.15H185.9a11.81,11.81,0,0,1,3.49.5,7.64,7.64,0,0,1,2.78,1.53A7.06,7.06,0,0,1,194,91.76,10.13,10.13,0,0,1,194,99.05Zm-3.89-7.64A6,6,0,0,0,185.76,90h-7.14v11.15h6.72q6.23,0,6.23-5.61a5.45,5.45,0,0,0-1.47-4.12Z"/><path class="cls-1" d="M201.11,114.78V87.15h16.69V90H204.19v8.68h7.88v2.8h-7.88V112h14.2v2.8Z"/><path class="cls-1" d="M242.45,114.78l-12.06-18.9q-.24-.35-.51-.85l-.55-1q-.27-.5-.53-.92a6.5,6.5,0,0,1-.37-.71v22.37h-3V87.15h3l12,19.25q.24.36.51.85l.55,1q.27.5.53.92a6.45,6.45,0,0,1,.37.71V87.15h3v27.61h-2.89Z"/><path class="cls-1" d="M270.11,110.55a6.72,6.72,0,0,1-1.79,2.44,8.74,8.74,0,0,1-2.88,1.62,11.71,11.71,0,0,1-3.86.6,12.49,12.49,0,0,1-5.23-1.08,13.6,13.6,0,0,1-4-2.74l2.05-2.29a14,14,0,0,0,3.39,2.41,8.69,8.69,0,0,0,3.95.91,6.87,6.87,0,0,0,4.36-1.26,4.18,4.18,0,0,0,1.6-3.47,4.64,4.64,0,0,0-.31-1.73,3.86,3.86,0,0,0-1.08-1.46,10.25,10.25,0,0,0-2-1.32,25.84,25.84,0,0,0-3.15-1.32,27.49,27.49,0,0,1-3.76-1.6,10.23,10.23,0,0,1-2.44-1.73,5.61,5.61,0,0,1-1.34-2.07,7.75,7.75,0,0,1-.41-2.64,6.7,6.7,0,0,1,.63-3,6.58,6.58,0,0,1,1.76-2.23,7.64,7.64,0,0,1,2.73-1.4,12.39,12.39,0,0,1,3.53-.47,12.59,12.59,0,0,1,4.71.76,14.88,14.88,0,0,1,3.69,2.17l-2,2.41a12.22,12.22,0,0,0-3.05-1.92,9.16,9.16,0,0,0-3.61-.65,7.91,7.91,0,0,0-2.44.34,4.93,4.93,0,0,0-1.68.89,3.29,3.29,0,0,0-.95,1.28,4.1,4.1,0,0,0-.3,1.53,4.77,4.77,0,0,0,.24,1.53,3.31,3.31,0,0,0,.95,1.34,8.55,8.55,0,0,0,2,1.37,33.15,33.15,0,0,0,3.38,1.38,29,29,0,0,1,3.82,1.66,9.58,9.58,0,0,1,2.47,1.82,5.87,5.87,0,0,1,1.32,2.17,8.62,8.62,0,0,1,.4,2.73A7.59,7.59,0,0,1,270.11,110.55Z"/><path class="cls-1" d="M295.13,114.78v-13H281.38v13h-3.05V87.15h3.05V99h13.75V87.15h3.05v27.61h-3.05Z"/><path class="cls-1" d="M306.84,114.78V87.15h3.05v27.61h-3.05Z"/><path class="cls-1" d="M321.64,90v9.16h7.58v2.8h-7.58v12.86h-3.05V87.15H334.8V90H321.64Z"/><path class="cls-1" d="M350.87,90v24.82h-3.05V90h-8.15v-2.8H359V90Z"/></svg>