<svg id="Partner" xmlns="http://www.w3.org/2000/svg" viewBox="0 0 397.78 179"><defs><style>.cls-1,.cls-2{fill:#fff;}.cls-2{opacity:0.65;}</style></defs><title>jz17-partner-sparebank1</title><path class="cls-1" d="M54.62,109.74A44.63,44.63,0,0,1,42.14,108a1.1,1.1,0,0,1-.74-1v-.25L42,103.4a.76.76,0,0,1,.84-.64,1,1,0,0,1,.35,0,50.32,50.32,0,0,0,10.85,1.64c4.06,0,7.68-1.19,7.68-5.4s-3.71-4.71-8.52-5.4C47.89,92.85,41,91.42,41,83,41,74.32,47.44,72,55.07,72a44.24,44.24,0,0,1,11.69,1.68,1,1,0,0,1,.89,1V75L67,78.24a.85.85,0,0,1-.79.69s-.1,0-.15,0a47,47,0,0,0-10.4-1.49c-3.67,0-7.53.69-7.53,4.85S52.25,87,56.65,87.6C62.45,88.49,69,89.33,69,98.55,69,107.22,62,109.74,54.62,109.74Z"/><path class="cls-1" d="M117.56,109.15a31.77,31.77,0,0,1-6.89.69c-5.35,0-11.94-.54-11.94-8.42,0-6.39,4-7.08,8-7.73l8.82-1.44V90.67c0-1.39-.15-2.38-1.39-2.92a9.9,9.9,0,0,0-3.76-.5,35.09,35.09,0,0,0-8.52,1.39c-.15,0-.25,0-.35,0a.49.49,0,0,1-.55-.45l-.69-3.07V85a.81.81,0,0,1,.59-.74,36.12,36.12,0,0,1,10.8-1.68c3.52,0,5.89.5,7.48,1.39,2.53,1.39,3,3.71,3,6.39V104C122.17,107.71,120.93,108.36,117.56,109.15Zm-2-12.58-6.14,1c-2,.3-3.91.59-3.91,3.81,0,3.86,3.12,4.16,5.5,4.16a14.63,14.63,0,0,0,4.56-.69Z"/><path class="cls-1" d="M139.84,87.65a32.27,32.27,0,0,0-7,.64v20.16a.7.7,0,0,1-.74.74h-5.05c-.3,0-.84-.3-.84-.74V87.06c0-1.93,1.14-2.53,3.52-3.22a33.93,33.93,0,0,1,8.52-1.24h.84a1.82,1.82,0,0,1,1,.15.79.79,0,0,1,.45.79v3.22C140.59,87.25,140.54,87.65,139.84,87.65Z"/><path class="cls-1" d="M165.77,98.1a1,1,0,0,1-1,1.14H148.14c0,2.28.64,3.52,2,4.56s3.17,1.49,5.85,1.49a23.18,23.18,0,0,0,6.93-1.19.45.45,0,0,1,.25,0c.3,0,.55.2.69.69l.64,2.53a2.16,2.16,0,0,1,0,.25c0,.4-.25.59-.59.74a25.25,25.25,0,0,1-9,1.59c-9.71,0-13.52-3.81-13.52-13.52,0-9.31,2.58-13.77,12.24-13.77,5,0,8.07,1.29,9.86,3.67s2.23,5.4,2.23,9.51Zm-7-7.38c-.64-2.72-2.13-3.62-5.05-3.62-3.32,0-4.71,1-5.25,3.47a21.07,21.07,0,0,0-.4,4.46l11.1-.05A16.63,16.63,0,0,0,158.79,90.72Z"/><path class="cls-1" d="M222.12,109.15a31.78,31.78,0,0,1-6.89.69c-5.35,0-11.94-.54-11.94-8.42,0-6.39,4-7.08,8-7.73l8.82-1.44V90.67c0-1.39-.15-2.38-1.39-2.92a9.9,9.9,0,0,0-3.76-.5,35.1,35.1,0,0,0-8.52,1.39c-.15,0-.25,0-.35,0a.49.49,0,0,1-.55-.45l-.69-3.07V85a.81.81,0,0,1,.59-.74,36.13,36.13,0,0,1,10.8-1.68c3.52,0,5.89.5,7.48,1.39,2.53,1.39,3,3.71,3,6.39V104C226.73,107.71,225.49,108.36,222.12,109.15Zm-2-12.58-6.14,1c-2,.3-3.91.59-3.91,3.81,0,3.86,3.12,4.16,5.5,4.16a14.64,14.64,0,0,0,4.56-.69Z"/><path class="cls-1" d="M253.22,109.2h-5.1a.74.74,0,0,1-.79-.74V91c0-2.87-1.09-3.86-3.71-3.86a28.52,28.52,0,0,0-6.19.84v20.51a.7.7,0,0,1-.74.74h-5.05a.76.76,0,0,1-.84-.74V87.1c0-1.88.94-2.53,3.71-3.27a42.79,42.79,0,0,1,9.86-1.29c6.19,0,9.61,1.59,9.61,7.53v18.38A.7.7,0,0,1,253.22,109.2Z"/><path class="cls-1" d="M281.94,108.75a.49.49,0,0,1-.5.45h-6.64a.82.82,0,0,1-.74-.3l-7.68-10.45h-1.68v10a.68.68,0,0,1-.74.74h-5.1a.74.74,0,0,1-.79-.74V73.83a.94.94,0,0,1,.84-1l4.85-.84h.2c.45,0,.74.3.74.84V94h1.68l7.83-10.45a.67.67,0,0,1,.64-.35l6,.15a.46.46,0,0,1,.5.45c0,.1,0,.15-.1.25l-9.36,11.79,9.91,12.68A.38.38,0,0,1,281.94,108.75Z"/><path class="cls-1" d="M85.85,82.55a32.45,32.45,0,0,0-10.11,1.59c-2.23.69-3.12,1.44-3.12,4v30.66c0,.5.39.9,1.1.77l4.69-.86a.87.87,0,0,0,.84-1v-8.64a27.54,27.54,0,0,0,6.44.75c9.21,0,10.95-5.8,10.95-13.62S95.41,82.55,85.85,82.55ZM84,105.28a18.55,18.55,0,0,1-4.71-.59V88a24.18,24.18,0,0,1,5.2-.79c3.76,0,5.4.84,5.4,8.87C89.86,103.6,88.48,105.28,84,105.28Z"/><path class="cls-1" d="M187.54,109.2H171a.83.83,0,0,1-.84-.79v-35a.83.83,0,0,1,.84-.79h16.55c8.38,0,11.79,3.28,11.79,9.23,0,5.25-2.92,7.13-7.43,8.42,5,.83,8.67,3.55,8.67,9.39C200.62,106.28,196,109.2,187.54,109.2Zm-.64-31.51h-9.56v10.6l9.21-.4c3.76-.15,5.7-1.49,5.7-5.25C192.25,79.18,190.56,77.69,186.9,77.69Zm-.25,15.41-9.31-.3V104.1h9.31c5,0,6.64-2.18,6.64-5.2C193.29,94.83,191.95,93.25,186.65,93.1Z"/><path class="cls-2" d="M324.15,55.15a34.82,34.82,0,0,0-10.56,1.63c14-3,27.92,2.73,32.93,14.57,5.79,13.68-2.5,30.25-18.5,37-14.36,6.08-30,2.19-37.3-8.54a34.85,34.85,0,1,0,33.44-44.68Z"/><path class="cls-1" d="M346.52,71.35c-5-11.83-18.91-17.61-32.93-14.57a34.86,34.86,0,0,0-22.88,43.05c5.73,8.47,16.7,12.65,28.13,11.06V82.78h-6.69a1.25,1.25,0,0,1-1.25-1.25V75.67a1.24,1.24,0,0,1,.9-1.29L322.26,69a3.53,3.53,0,0,1,1.42-.32h8.1A1.29,1.29,0,0,1,333.08,70v35.78C345.69,97.92,351.65,83.49,346.52,71.35Z"/></svg>