<?xml version="1.0" standalone="no"?>
<!DOCTYPE svg PUBLIC "-//W3C//DTD SVG 20010904//EN"
 "http://www.w3.org/TR/2001/REC-SVG-20010904/DTD/svg10.dtd">
<svg version="1.0" xmlns="http://www.w3.org/2000/svg"
 width="469.000000pt" height="469.000000pt" viewBox="0 0 469.000000 469.000000"
 preserveAspectRatio="xMidYMid meet">
<metadata>
Created by potrace 1.11, written by Peter Selinger 2001-2013
</metadata>
<g transform="translate(0.000000,469.000000) scale(0.100000,-0.100000)"
fill="#000000" stroke="none">
<path d="M4625 4145 c-42 -10 -275 -67 -325 -79 -55 -14 -768 -185 -915 -221
-99 -24 -313 -76 -475 -115 -162 -39 -360 -87 -440 -107 -80 -19 -153 -37
-162 -39 -10 -2 -28 -6 -40 -10 -13 -3 -33 -7 -46 -10 -12 -2 -142 -34 -287
-69 l-265 -65 -103 34 c-56 19 -316 107 -577 196 -764 259 -801 271 -813 266
-9 -3 -9 -5 1 -5 6 -1 12 -6 12 -12 0 -6 16 -45 36 -87 20 -41 64 -136 99
-211 34 -75 79 -172 100 -216 21 -44 50 -107 66 -140 15 -33 52 -113 83 -179
31 -65 56 -120 56 -121 0 -1 32 -69 70 -149 39 -81 70 -149 70 -150 0 -2 29
-65 64 -139 87 -183 126 -272 126 -290 0 -8 -7 -20 -15 -27 -8 -6 -17 -20 -20
-31 -4 -10 -35 -66 -71 -124 -35 -58 -64 -107 -64 -110 0 -2 -15 -28 -32 -58
-18 -29 -38 -61 -45 -72 -7 -11 -40 -69 -75 -128 -35 -60 -71 -122 -81 -139
-22 -38 -150 -255 -318 -542 -71 -121 -129 -221 -129 -224 0 -3 -6 -13 -14
-21 -7 -9 -24 -36 -37 -61 -13 -25 -30 -53 -38 -63 -8 -9 -12 -19 -9 -22 3 -3
77 15 164 41 87 25 245 70 349 99 105 30 372 106 595 170 366 104 408 114 435
103 16 -6 64 -27 105 -46 41 -19 113 -51 160 -72 47 -21 111 -49 142 -64 91
-41 146 -66 423 -189 203 -90 268 -115 295 -112 19 2 82 6 140 10 58 3 125 8
150 10 25 2 92 6 150 10 58 3 121 8 140 10 19 2 82 6 140 10 58 3 128 8 155
10 66 5 189 14 300 20 50 3 106 8 125 10 19 2 87 7 150 10 63 4 131 8 150 10
56 6 253 18 272 17 21 -1 15 18 -23 73 -15 22 -111 171 -215 330 -190 294
-333 515 -386 594 -16 24 -27 45 -25 48 3 2 111 34 240 71 130 37 238 70 240
72 6 5 15 60 23 130 3 25 7 56 9 70 5 33 11 80 30 230 9 69 18 139 20 155 2
17 6 50 10 75 3 25 8 63 10 85 3 22 7 54 9 70 6 39 35 267 42 325 3 25 7 56 9
70 3 14 7 48 11 75 3 28 7 61 9 75 2 14 6 45 10 70 3 25 7 61 10 80 3 19 7 55
10 80 4 25 8 56 10 70 2 14 7 52 10 85 3 33 8 67 10 75 2 8 7 40 10 70 3 30
12 102 20 160 7 58 17 132 21 165 3 33 8 68 10 78 1 9 0 17 -4 16 -4 -1 -29
-7 -57 -14z"/>
</g>
</svg>
