<?xml version="1.0" encoding="UTF-8" standalone="no"?>
<svg width="591px" height="563px" viewBox="0 0 591 563" version="1.1" xmlns="http://www.w3.org/2000/svg" xmlns:xlink="http://www.w3.org/1999/xlink" xmlns:sketch="http://www.bohemiancoding.com/sketch/ns">
    <!-- Generator: Sketch 3.3.3 (12072) - http://www.bohemiancoding.com/sketch -->
    <title>logo_menu</title>
    <desc>Created with Sketch.</desc>
    <defs></defs>
    <g id="Page-1" stroke="none" stroke-width="1" fill="none" fill-rule="evenodd" sketch:type="MSPage">
        <g id="Group" sketch:type="MSLayerGroup" transform="translate(67.000000, 11.000000)">
            <path d="M13.0663532,345.747563 C1.44558533,348.444103 -3.18023823,342.231783 2.73235559,331.875341 L146.914159,79.3278934 L426.793893,1.39081201 C438.290478,-1.81059965 447.610301,5.2721642 447.610301,17.2021179 L447.610301,223.305877 C447.610301,235.239632 438.199332,247.097619 426.569039,249.796369 L13.0663532,345.747563 Z" id="Path-3" fill="#FF8641" sketch:type="MSShapeGroup"></path>
            <path d="M19.6779117,39.0271957 C8.30509801,35.4369951 2.5220199,41.5680291 6.7594855,52.7171398 L100.836015,300.240008 L231.202564,375.840007 C231.202564,375.840007 318.471193,365.208919 405.739821,354.577832 C418.947082,352.96892 410.704833,353.972993 410.704833,353.972993 C422.55107,352.529882 426.634518,343.414299 419.832316,333.622626 L270.096465,118.080002 L19.6779117,39.0271957 Z" id="Path-1" fill="#FF4F4C" sketch:type="MSShapeGroup"></path>
            <path d="M79.9485531,246.96 L109.4791,323.28 L182.767282,368.22479 C192.94082,374.463825 210.786934,378.37633 222.639692,376.960877 C222.639692,376.960877 401.18328,355.68 409.826367,354.24 C418.469453,352.8 421.350482,349.92 422.790997,345.6 L139.729904,185.76 L79.9485531,246.96 Z" id="Path-1-copy" fill="#A10035" sketch:type="MSShapeGroup"></path>
            <path d="M441.51768,3.6 C407.485305,31.3309979 3.60128633,342.720007 0.720257241,342.720007 C-1.44051449,338.400007 2.88102886,331.200007 2.88102886,331.200007 L146.822749,79.3265625 L426.392278,1.44 C426.392278,1.44 435.035365,-1.44 441.51768,3.6 Z" id="Path-3-copy" fill="#FCAF17" sketch:type="MSShapeGroup"></path>
        </g>
        <path d="M50.85,458.6 C50.85,454.4 50.4,453.95 45.75,453.95 L31.05,453.95 C26.4,453.95 25.65,454.4 25.65,458.6 L25.65,518.3 C25.65,525.5 25.65,527.45 24.15,528.95 C22.8,530.3 20.25,530.3 17.55,530.3 L10.35,530.3 C6.45,530.3 5.1,531.2 5.1,535.7 L5.1,545.9 C5.1,549.95 6.45,551 10.05,551 L19.8,551 C30,551 37.65,550.55 43.35,546.5 C49.8,542 50.85,534.65 50.85,519.05 L50.85,458.6 Z M110.25,544.85 L111.15,547.55 C112.05,550.25 113.25,551 116.7,551 L123.75,551 C127.65,551 128.85,549.8 128.85,546.8 L128.85,502.25 C128.85,493.4 127.05,487.55 123.15,483.5 C118.35,478.55 110.55,476.15 98.55,476.15 C88.35,476.15 79.2,477.65 72.9,479.45 C69.9,480.35 69.3,481.4 69.3,483.35 C69.3,483.95 69.45,485.3 69.6,486.35 L70.8,494.3 C71.25,496.85 72.15,498.05 75.9,497.15 C81.75,495.65 88.05,494.6 93.3,494.6 C98.25,494.6 100.5,495.05 102.3,496.25 C104.4,497.75 104.85,499.85 104.85,502.85 L104.85,506 C102.6,505.7 98.25,505.4 94.35,505.4 L93.3,505.4 C73.2,505.4 63.75,510.8 63.75,527.6 L63.75,529.25 C63.75,544.4 73.05,552.35 88.05,552.35 L90.3,552.35 C99.75,552.35 106.95,549.35 109.95,544.85 L110.25,544.85 Z M104.85,525.65 C104.85,529.7 104.4,531.5 102.75,533 C101.4,534.2 99.15,535.25 95.7,535.25 L94.65,535.25 C89.4,535.25 86.25,533.9 86.25,528.35 L86.25,527.75 C86.25,522.2 89.1,521 96,521 L97.65,521 C99.75,521 103.2,521.15 104.85,521.45 L104.85,525.65 Z M207.6,481.85 C208.5,478.7 207.15,477.5 203.7,477.5 L189.45,477.5 C186.15,477.5 185.25,478.25 184.5,481.55 C181.05,496.55 175.65,516.05 172.65,525.2 L172.05,525.2 C169.05,516.35 163.2,496.4 159.15,480.95 C158.4,477.95 157.35,477.5 154.05,477.5 L140.1,477.5 C136.65,477.5 135.15,478.7 135.9,481.85 C140.85,502.7 151.65,532.25 158.4,547.85 C159.45,550.25 160.95,551 163.95,551 L180.3,551 C183.45,551 184.65,549.95 185.55,548 C192.3,532.25 202.2,501.8 207.6,481.85 L207.6,481.85 Z M258.6,544.85 L259.5,547.55 C260.4,550.25 261.6,551 265.05,551 L272.1,551 C276,551 277.2,549.8 277.2,546.8 L277.2,502.25 C277.2,493.4 275.4,487.55 271.5,483.5 C266.7,478.55 258.9,476.15 246.9,476.15 C236.7,476.15 227.55,477.65 221.25,479.45 C218.25,480.35 217.65,481.4 217.65,483.35 C217.65,483.95 217.8,485.3 217.95,486.35 L219.15,494.3 C219.6,496.85 220.5,498.05 224.25,497.15 C230.1,495.65 236.4,494.6 241.65,494.6 C246.6,494.6 248.85,495.05 250.65,496.25 C252.75,497.75 253.2,499.85 253.2,502.85 L253.2,506 C250.95,505.7 246.6,505.4 242.7,505.4 L241.65,505.4 C221.55,505.4 212.1,510.8 212.1,527.6 L212.1,529.25 C212.1,544.4 221.4,552.35 236.4,552.35 L238.65,552.35 C248.1,552.35 255.3,549.35 258.3,544.85 L258.6,544.85 Z M253.2,525.65 C253.2,529.7 252.75,531.5 251.1,533 C249.75,534.2 247.5,535.25 244.05,535.25 L243,535.25 C237.75,535.25 234.6,533.9 234.6,528.35 L234.6,527.75 C234.6,522.2 237.45,521 244.35,521 L246,521 C248.1,521 251.55,521.15 253.2,521.45 L253.2,525.65 Z M318.15,530.6 L354.75,472.25 C357.15,468.35 357.75,466.55 357.75,463.4 L357.75,458.3 C357.75,454.7 356.55,453.95 352.95,453.95 L294.75,453.95 C290.7,453.95 289.5,454.85 289.5,458.75 L289.5,469.7 C289.5,473.3 290.7,474.35 294.75,474.35 L325.8,474.35 L290.1,533.6 C288.15,536.75 287.7,538.1 287.7,541.4 L287.7,545.9 C287.7,549.8 288.75,551 293.4,551 L352.95,551 C357,551 358.2,550.25 358.2,546.2 L358.2,535.4 C358.2,531.65 357,530.6 352.95,530.6 L318.15,530.6 Z M390.6,508.4 C390.6,501.8 391.05,499.25 393.3,497 C394.65,495.65 396.6,494.9 399.6,494.9 L400.2,494.9 C403.2,494.9 405.15,495.65 406.5,497 C408.75,499.25 409.2,501.8 409.2,508.4 L409.2,520.1 C409.2,526.7 408.75,529.25 406.5,531.5 C405.15,532.85 403.2,533.6 400.2,533.6 L399.6,533.6 C396.6,533.6 394.65,532.85 393.3,531.5 C391.05,529.25 390.6,526.7 390.6,520.1 L390.6,508.4 Z M433.35,509.3 C433.35,494 430.2,486.95 423.9,482 C419.55,478.55 411.45,476.15 400.8,476.15 L399,476.15 C388.35,476.15 380.25,478.55 375.9,482 C369.6,486.95 366.45,494.15 366.45,509.45 L366.45,519.05 C366.45,534.35 369.6,541.55 375.9,546.5 C380.25,549.95 388.35,552.35 399,552.35 L400.8,552.35 C411.45,552.35 419.55,549.95 423.9,546.5 C430.2,541.55 433.35,534.35 433.35,519.05 L433.35,509.3 Z M485.85,476.15 C477,476.15 470.1,478.7 465.3,483.8 L464.85,483.8 L463.95,480.95 C463.05,478.1 461.85,477.5 458.4,477.5 L451.35,477.5 C447.45,477.5 446.25,478.7 446.25,481.7 L446.25,546.65 C446.25,549.5 447.3,551 451.35,551 L465.15,551 C469.2,551 470.25,549.5 470.25,546.65 L470.25,504.2 C470.25,500.6 470.7,498.65 471.9,497.3 C473.1,495.95 475.5,495.35 478.5,495.35 L479.4,495.35 C482.4,495.35 484.8,495.95 486,497.3 C487.2,498.65 487.65,500.75 487.65,504.2 L487.65,546.65 C487.65,549.5 488.7,551 492.75,551 L506.55,551 C510.6,551 511.65,549.5 511.65,546.65 L511.65,502.1 C511.65,492.05 510.15,486.5 506.1,482.3 C502.2,478.25 495.9,476.15 487.05,476.15 L485.85,476.15 Z M561.6,533 C551.1,533 547.65,530.75 547.65,523.7 L547.65,522.5 L583.65,522.5 C586.65,522.5 588,521.45 588,518.3 L588,510.5 C588,497.6 586.05,489.5 580.8,483.65 C576.75,479.15 568.95,476.15 558.15,476.15 L556.05,476.15 C545.25,476.15 537.45,478.55 532.5,482.9 C527.4,487.4 523.5,495.5 523.5,510.5 L523.5,518.9 C523.5,531.05 525,538.7 531,544.7 C536.1,549.8 545.25,552.35 557.1,552.35 L559.95,552.35 C567.3,552.35 576.6,550.85 582.6,548.75 C585.75,547.7 586.5,546.65 586.5,544.7 C586.5,543.65 586.2,542.15 585.9,540.65 L584.7,533.15 C584.4,531.65 583.35,530.6 582,530.6 C580.95,530.6 579.9,530.9 579.15,531.05 C575.4,531.95 568.05,533 563.25,533 L561.6,533 Z M547.65,506.9 L547.65,503.15 C547.65,499.25 548.4,496.7 549.9,495.05 C551.25,493.55 553.5,492.95 556.2,492.95 L557.55,492.95 C560.85,492.95 563.1,493.7 564.45,495.65 C565.5,497.3 565.95,499.55 565.95,502.55 L565.95,504.95 C565.95,506.3 565.5,506.9 564.15,506.9 L547.65,506.9 Z" id="JavaZone" fill="#1B0000" sketch:type="MSShapeGroup"></path>
    </g>
</svg>