<?xml version="1.0" encoding="UTF-8"?>
<svg width="489px" height="372px" viewBox="0 0 489 372" version="1.1" xmlns="http://www.w3.org/2000/svg" xmlns:xlink="http://www.w3.org/1999/xlink">
    <!-- Generator: Sketch 41.1 (35376) - http://www.bohemiancoding.com/sketch -->
    <title>Group</title>
    <desc>Created with Sketch.</desc>
    <defs></defs>
    <g id="Page-1" stroke="none" stroke-width="1" fill="none" fill-rule="evenodd">
        <g id="Group">
            <polygon id="Path-16" fill="#FFFFFF" points="17.0063477 19.9726562 100.320801 200.931152 0.245605469 371.572754 158.724609 320.660156 272.192383 371.452637 476.284668 366.904297 402.884766 253.661133 449.45752 239.177734 488.050293 0.452148438 174.212891 76.5566406"></polygon>
            <polygon id="Path-17" fill="#010101" points="37.3530273 349.390625 133.379883 275.751465 149.962891 312.883789"></polygon>
            <polygon id="Path-18" fill="#010101" points="159.755859 310.506836 274.073242 361.922852 455.559082 357.691895 238.914551 196.589355 141.929199 270.264648"></polygon>
            <polygon id="Path-19" fill="#010101" points="445.936523 337.870605 316.171875 137.673828 247.394531 189.740234"></polygon>
            <polygon id="Path-20" fill="#010101" points="397.22998 245.130371 441.075684 231.779297 475.575195 16.3730469 323.873535 131.671875"></polygon>
            <polygon id="Path-21" fill="#010101" points="457.041016 17.762207 180.005371 84.9912109 27.3320312 344.693848"></polygon>
            <polygon id="Path-22" fill="#010101" points="168.299316 84.9169922 60.5751953 45.4155273 152.236328 112.424805"></polygon>
            <polygon id="Path-23" fill="#010101" points="36.8779297 40.4936523 106.164062 190.640137 147.235352 120.813477"></polygon>
        </g>
    </g>
</svg>