<?xml version="1.0" encoding="UTF-8" standalone="no"?>
<svg width="191px" height="103px" viewBox="0 0 191 103" version="1.1" xmlns="http://www.w3.org/2000/svg" xmlns:xlink="http://www.w3.org/1999/xlink" xmlns:sketch="http://www.bohemiancoding.com/sketch/ns">
    <!-- Generator: Sketch 3.3.3 (12072) - http://www.bohemiancoding.com/sketch -->
    <title>logo_menu</title>
    <desc>Created with Sketch.</desc>
    <defs></defs>
    <g id="Page-1" stroke="none" stroke-width="1" fill="none" fill-rule="evenodd" sketch:type="MSPage">
        <g id="Group-+-JAVAZONE-2016" sketch:type="MSLayerGroup" transform="translate(2.000000, 1.898305)">
            <g id="Group" transform="translate(57.966102, 0.588431)" sketch:type="MSShapeGroup">
                <path d="M1.83911071,48.5938143 C0.204361624,48.9731495 -0.445475375,48.0976567 0.384029489,46.644704 L20.648619,11.1494457 L59.9895742,0.194314445 C61.6031003,-0.254998252 62.9111217,0.7329629 62.9111217,2.41393014 L62.9111217,31.3891966 C62.9111217,33.0643692 61.5884206,34.729291 59.9511466,35.1092121 L1.83911071,48.5938143 Z" id="Path-3" fill="#FF8641"></path>
                <path d="M2.76570824,5.48522823 C1.16727213,4.9806296 0.355494852,5.84504374 0.952237937,7.41512249 L14.1723879,42.1983937 L32.4952589,52.823888 L57.0262731,49.8355134 C58.8825387,49.6093827 57.7187472,49.7511561 57.7187472,49.7511561 C59.3866787,49.5479682 59.9679196,48.2735744 59.0081286,46.8919689 L37.9617527,16.5960107 L2.76570824,5.48522823 Z" id="Path-1" fill="#FF4F4C"></path>
                <path d="M11.2366787,34.7099488 L15.3871637,45.4366385 L25.6838634,51.7512037 C27.1158809,52.6294043 29.6353664,53.1792313 31.295107,52.9810248 C31.295107,52.9810248 56.3858564,49.9904219 57.6006325,49.7880315 C58.8154085,49.5856411 59.2203339,49.1808604 59.4227966,48.5736893 L19.63888,26.108358 L11.2366787,34.7099488 Z" id="Path-1-copy" fill="#A10035"></path>
                <path d="M62.0548107,0.50597593 C57.2715988,4.40353634 0.506156722,48.1689094 0.101231341,48.1689094 C-0.202462682,47.5617383 0.404925349,46.5497865 0.404925349,46.5497865 L20.6357714,11.1492587 L59.9289526,0.202390372 C59.9289526,0.202390372 61.1437287,-0.202390372 62.0548107,0.50597593 Z" id="Path-3-copy" fill="#FCAF17"></path>
            </g>
            <text id="JAVAZONE-2016" sketch:type="MSTextLayer" font-family="Source Sans Pro" font-size="27.4576271" font-weight="260" sketch:alignment="middle" fill="#010101">
                <tspan x="2.08067797" y="94.8813559">JAVAZONE 2016</tspan>
            </text>
        </g>
    </g>
</svg>