<?xml version="1.0" encoding="UTF-8" standalone="no"?>
<svg width="1622px" height="416px" viewBox="0 0 1622 416" version="1.1" xmlns="http://www.w3.org/2000/svg" xmlns:xlink="http://www.w3.org/1999/xlink" xmlns:sketch="http://www.bohemiancoding.com/sketch/ns">
    <!-- Generator: Sketch 3.3.3 (12072) - http://www.bohemiancoding.com/sketch -->
    <title>logo_menu</title>
    <desc>Created with Sketch.</desc>
    <defs></defs>
    <g id="Page-1" stroke="none" stroke-width="1" fill="none" fill-rule="evenodd" sketch:type="MSPage">
        <g id="javazone.horizontal" sketch:type="MSLayerGroup" transform="translate(18.000000, 26.000000)">
            <path d="M13.0664,345.748 C1.4456,348.444 -3.1802,342.232 2.7324,331.875 L146.9142,79.328 L426.794,1.391 C438.29,-1.811 447.61,5.272 447.61,17.202 L447.61,223.306 C447.61,235.24 438.199,247.098 426.569,249.796 L13.0664,345.748 L13.0664,345.748 Z" id="Fill-1" fill="#FF8635" sketch:type="MSShapeGroup"></path>
            <path d="M19.6779,39.027 C8.3051,35.437 2.522,41.568 6.7595,52.717 L100.836,300.24 L231.203,375.84 L405.74,354.578 L410.705,353.973 C422.551,352.53 426.635,343.414 419.832,333.623 L270.096,118.08 L19.6779,39.027 L19.6779,39.027 Z" id="Fill-2" fill="#FF4D46" sketch:type="MSShapeGroup"></path>
            <path d="M79.9486,246.96 L109.4791,323.28 L109.4791,323.28 L182.7673,368.225 C192.9408,374.464 210.7869,378.376 222.64,376.961 C222.64,376.961 401.183,355.68 409.826,354.24 C418.469,352.8 421.35,349.92 422.791,345.6 L139.7299,185.76 L79.9486,246.96 L79.9486,246.96 Z" id="Fill-3" fill="#A30032" sketch:type="MSShapeGroup"></path>
            <path d="M441.518,3.6 C407.485,31.331 3.6013,342.72 0.7203,342.72 C-1.4405,338.4 2.881,331.2 2.881,331.2 L146.8227,79.327 L426.392,1.44 C426.392,1.44 435.035,-1.44 441.518,3.6 L441.518,3.6 Z" id="Fill-4" fill="#FEB000" sketch:type="MSShapeGroup"></path>
            <path d="M652.94,112.83942 C652.94,105.55942 652.16,104.77942 644.1,104.77942 L618.62,104.77942 C610.56,104.77942 609.26,105.55942 609.26,112.83942 L609.26,216.31942 C609.26,228.79942 609.26,232.17942 606.66,234.77942 C604.32,237.11942 599.9,237.11942 595.22,237.11942 L582.74,237.11942 C575.98,237.11942 573.64,238.67942 573.64,246.47942 L573.64,264.15942 C573.64,271.17942 575.98,272.99942 582.22,272.99942 L599.12,272.99942 C616.8,272.99942 630.06,272.21942 639.94,265.19942 C651.12,257.39942 652.94,244.65942 652.94,217.61942 L652.94,112.83942 Z M755.9,262.33942 L757.46,267.01942 C759.02,271.69942 761.1,272.99942 767.08,272.99942 L779.3,272.99942 C786.06,272.99942 788.14,270.91942 788.14,265.71942 L788.14,188.49942 C788.14,173.15942 785.02,163.01942 778.26,155.99942 C769.94,147.41942 756.42,143.25942 735.62,143.25942 C717.94,143.25942 702.08,145.85942 691.16,148.97942 C685.96,150.53942 684.92,152.35942 684.92,155.73942 C684.92,156.77942 685.18,159.11942 685.44,160.93942 L687.52,174.71942 C688.3,179.13942 689.86,181.21942 696.36,179.65942 C706.5,177.05942 717.42,175.23942 726.52,175.23942 C735.1,175.23942 739,176.01942 742.12,178.09942 C745.76,180.69942 746.54,184.33942 746.54,189.53942 L746.54,194.99942 C742.64,194.47942 735.1,193.95942 728.34,193.95942 L726.52,193.95942 C691.68,193.95942 675.3,203.31942 675.3,232.43942 L675.3,235.29942 C675.3,261.55942 691.42,275.33942 717.42,275.33942 L721.32,275.33942 C737.7,275.33942 750.18,270.13942 755.38,262.33942 L755.9,262.33942 Z M746.54,229.05942 C746.54,236.07942 745.76,239.19942 742.9,241.79942 C740.56,243.87942 736.66,245.69942 730.68,245.69942 L728.86,245.69942 C719.76,245.69942 714.3,243.35942 714.3,233.73942 L714.3,232.69942 C714.3,223.07942 719.24,220.99942 731.2,220.99942 L734.06,220.99942 C737.7,220.99942 743.68,221.25942 746.54,221.77942 L746.54,229.05942 Z M924.64,153.13942 C926.2,147.67942 923.86,145.59942 917.88,145.59942 L893.18,145.59942 C887.46,145.59942 885.9,146.89942 884.6,152.61942 C878.62,178.61942 869.26,212.41942 864.06,228.27942 L863.02,228.27942 C857.82,212.93942 847.68,178.35942 840.66,151.57942 C839.36,146.37942 837.54,145.59942 831.82,145.59942 L807.64,145.59942 C801.66,145.59942 799.06,147.67942 800.36,153.13942 C808.94,189.27942 827.66,240.49942 839.36,267.53942 C841.18,271.69942 843.78,272.99942 848.98,272.99942 L877.32,272.99942 C882.78,272.99942 884.86,271.17942 886.42,267.79942 C898.12,240.49942 915.28,187.71942 924.64,153.13942 L924.64,153.13942 Z M1013.04,262.33942 L1014.6,267.01942 C1016.16,271.69942 1018.24,272.99942 1024.22,272.99942 L1036.44,272.99942 C1043.2,272.99942 1045.28,270.91942 1045.28,265.71942 L1045.28,188.49942 C1045.28,173.15942 1042.16,163.01942 1035.4,155.99942 C1027.08,147.41942 1013.56,143.25942 992.76,143.25942 C975.08,143.25942 959.22,145.85942 948.3,148.97942 C943.1,150.53942 942.06,152.35942 942.06,155.73942 C942.06,156.77942 942.32,159.11942 942.58,160.93942 L944.66,174.71942 C945.44,179.13942 947,181.21942 953.5,179.65942 C963.64,177.05942 974.56,175.23942 983.66,175.23942 C992.24,175.23942 996.14,176.01942 999.26,178.09942 C1002.9,180.69942 1003.68,184.33942 1003.68,189.53942 L1003.68,194.99942 C999.78,194.47942 992.24,193.95942 985.48,193.95942 L983.66,193.95942 C948.82,193.95942 932.44,203.31942 932.44,232.43942 L932.44,235.29942 C932.44,261.55942 948.56,275.33942 974.56,275.33942 L978.46,275.33942 C994.84,275.33942 1007.32,270.13942 1012.52,262.33942 L1013.04,262.33942 Z M1003.68,229.05942 C1003.68,236.07942 1002.9,239.19942 1000.04,241.79942 C997.7,243.87942 993.8,245.69942 987.82,245.69942 L986,245.69942 C976.9,245.69942 971.44,243.35942 971.44,233.73942 L971.44,232.69942 C971.44,223.07942 976.38,220.99942 988.34,220.99942 L991.2,220.99942 C994.84,220.99942 1000.82,221.25942 1003.68,221.77942 L1003.68,229.05942 Z M1116.26,237.63942 L1179.7,136.49942 C1183.86,129.73942 1184.9,126.61942 1184.9,121.15942 L1184.9,112.31942 C1184.9,106.07942 1182.82,104.77942 1176.58,104.77942 L1075.7,104.77942 C1068.68,104.77942 1066.6,106.33942 1066.6,113.09942 L1066.6,132.07942 C1066.6,138.31942 1068.68,140.13942 1075.7,140.13942 L1129.52,140.13942 L1067.64,242.83942 C1064.26,248.29942 1063.48,250.63942 1063.48,256.35942 L1063.48,264.15942 C1063.48,270.91942 1065.3,272.99942 1073.36,272.99942 L1176.58,272.99942 C1183.6,272.99942 1185.68,271.69942 1185.68,264.67942 L1185.68,245.95942 C1185.68,239.45942 1183.6,237.63942 1176.58,237.63942 L1116.26,237.63942 Z M1241.84,199.15942 C1241.84,187.71942 1242.62,183.29942 1246.52,179.39942 C1248.86,177.05942 1252.24,175.75942 1257.44,175.75942 L1258.48,175.75942 C1263.68,175.75942 1267.06,177.05942 1269.4,179.39942 C1273.3,183.29942 1274.08,187.71942 1274.08,199.15942 L1274.08,219.43942 C1274.08,230.87942 1273.3,235.29942 1269.4,239.19942 C1267.06,241.53942 1263.68,242.83942 1258.48,242.83942 L1257.44,242.83942 C1252.24,242.83942 1248.86,241.53942 1246.52,239.19942 C1242.62,235.29942 1241.84,230.87942 1241.84,219.43942 L1241.84,199.15942 Z M1315.94,200.71942 C1315.94,174.19942 1310.48,161.97942 1299.56,153.39942 C1292.02,147.41942 1277.98,143.25942 1259.52,143.25942 L1256.4,143.25942 C1237.94,143.25942 1223.9,147.41942 1216.36,153.39942 C1205.44,161.97942 1199.98,174.45942 1199.98,200.97942 L1199.98,217.61942 C1199.98,244.13942 1205.44,256.61942 1216.36,265.19942 C1223.9,271.17942 1237.94,275.33942 1256.4,275.33942 L1259.52,275.33942 C1277.98,275.33942 1292.02,271.17942 1299.56,265.19942 C1310.48,256.61942 1315.94,244.13942 1315.94,217.61942 L1315.94,200.71942 Z M1406.94,143.25942 C1391.6,143.25942 1379.64,147.67942 1371.32,156.51942 L1370.54,156.51942 L1368.98,151.57942 C1367.42,146.63942 1365.34,145.59942 1359.36,145.59942 L1347.14,145.59942 C1340.38,145.59942 1338.3,147.67942 1338.3,152.87942 L1338.3,265.45942 C1338.3,270.39942 1340.12,272.99942 1347.14,272.99942 L1371.06,272.99942 C1378.08,272.99942 1379.9,270.39942 1379.9,265.45942 L1379.9,191.87942 C1379.9,185.63942 1380.68,182.25942 1382.76,179.91942 C1384.84,177.57942 1389,176.53942 1394.2,176.53942 L1395.76,176.53942 C1400.96,176.53942 1405.12,177.57942 1407.2,179.91942 C1409.28,182.25942 1410.06,185.89942 1410.06,191.87942 L1410.06,265.45942 C1410.06,270.39942 1411.88,272.99942 1418.9,272.99942 L1442.82,272.99942 C1449.84,272.99942 1451.66,270.39942 1451.66,265.45942 L1451.66,188.23942 C1451.66,170.81942 1449.06,161.19942 1442.04,153.91942 C1435.28,146.89942 1424.36,143.25942 1409.02,143.25942 L1406.94,143.25942 Z M1538.24,241.79942 C1520.04,241.79942 1514.06,237.89942 1514.06,225.67942 L1514.06,223.59942 L1576.46,223.59942 C1581.66,223.59942 1584,221.77942 1584,216.31942 L1584,202.79942 C1584,180.43942 1580.62,166.39942 1571.52,156.25942 C1564.5,148.45942 1550.98,143.25942 1532.26,143.25942 L1528.62,143.25942 C1509.9,143.25942 1496.38,147.41942 1487.8,154.95942 C1478.96,162.75942 1472.2,176.79942 1472.2,202.79942 L1472.2,217.35942 C1472.2,238.41942 1474.8,251.67942 1485.2,262.07942 C1494.04,270.91942 1509.9,275.33942 1530.44,275.33942 L1535.38,275.33942 C1548.12,275.33942 1564.24,272.73942 1574.64,269.09942 C1580.1,267.27942 1581.4,265.45942 1581.4,262.07942 C1581.4,260.25942 1580.88,257.65942 1580.36,255.05942 L1578.28,242.05942 C1577.76,239.45942 1575.94,237.63942 1573.6,237.63942 C1571.78,237.63942 1569.96,238.15942 1568.66,238.41942 C1562.16,239.97942 1549.42,241.79942 1541.1,241.79942 L1538.24,241.79942 Z M1514.06,196.55942 L1514.06,190.05942 C1514.06,183.29942 1515.36,178.87942 1517.96,176.01942 C1520.3,173.41942 1524.2,172.37942 1528.88,172.37942 L1531.22,172.37942 C1536.94,172.37942 1540.84,173.67942 1543.18,177.05942 C1545,179.91942 1545.78,183.81942 1545.78,189.01942 L1545.78,193.17942 C1545.78,195.51942 1545,196.55942 1542.66,196.55942 L1514.06,196.55942 Z" id="JavaZone" fill="#1B0000" sketch:type="MSShapeGroup"></path>
        </g>
    </g>
</svg>