<?xml version="1.0" encoding="UTF-8" standalone="no"?>
<svg width="591px" height="645px" viewBox="0 0 591 645" version="1.1" xmlns="http://www.w3.org/2000/svg" xmlns:xlink="http://www.w3.org/1999/xlink" xmlns:sketch="http://www.bohemiancoding.com/sketch/ns">
    <!-- Generator: Sketch 3.3.3 (12072) - http://www.bohemiancoding.com/sketch -->
    <title>logo_menu</title>
    <desc>Created with Sketch.</desc>
    <defs></defs>
    <g id="Page-1" stroke="none" stroke-width="1" fill="none" fill-rule="evenodd" sketch:type="MSPage">
        <g id="Group" sketch:type="MSLayerGroup" transform="translate(67.000000, 11.000000)">
            <path d="M13.0663532,345.747563 C1.44558533,348.444103 -3.18023823,342.231783 2.73235559,331.875341 L146.914159,79.3278934 L426.793893,1.39081201 C438.290478,-1.81059965 447.610301,5.2721642 447.610301,17.2021179 L447.610301,223.305877 C447.610301,235.239632 438.199332,247.097619 426.569039,249.796369 L13.0663532,345.747563 Z" id="Path-3" fill="#FF8641" sketch:type="MSShapeGroup"></path>
            <path d="M19.6779117,39.0271957 C8.30509801,35.4369951 2.5220199,41.5680291 6.7594855,52.7171398 L100.836015,300.240008 L231.202564,375.840007 C231.202564,375.840007 318.471193,365.208919 405.739821,354.577832 C418.947082,352.96892 410.704833,353.972993 410.704833,353.972993 C422.55107,352.529882 426.634518,343.414299 419.832316,333.622626 L270.096465,118.080002 L19.6779117,39.0271957 Z" id="Path-1" fill="#FF4F4C" sketch:type="MSShapeGroup"></path>
            <path d="M79.9485531,246.96 L109.4791,323.28 L182.767282,368.22479 C192.94082,374.463825 210.786934,378.37633 222.639692,376.960877 C222.639692,376.960877 401.18328,355.68 409.826367,354.24 C418.469453,352.8 421.350482,349.92 422.790997,345.6 L139.729904,185.76 L79.9485531,246.96 Z" id="Path-1-copy" fill="#A10035" sketch:type="MSShapeGroup"></path>
            <path d="M441.51768,3.6 C407.485305,31.3309979 3.60128633,342.720007 0.720257241,342.720007 C-1.44051449,338.400007 2.88102886,331.200007 2.88102886,331.200007 L146.822749,79.3265625 L426.392278,1.44 C426.392278,1.44 435.035365,-1.44 441.51768,3.6 Z" id="Path-3-copy" fill="#FCAF17" sketch:type="MSShapeGroup"></path>
        </g>
        <text id="JavaZone" fill="#1B0000" sketch:type="MSTextLayer" font-family="FS Joey" font-size="150" font-weight="633" line-spacing="150">
            <tspan x="3" y="600">JavaZone</tspan>
        </text>
    </g>
</svg>