<?xml version="1.0" encoding="utf-8"?>
<!-- Generator: Adobe Illustrator 16.0.0, SVG Export Plug-In . SVG Version: 6.00 Build 0)  -->
<!DOCTYPE svg PUBLIC "-//W3C//DTD SVG 1.1//EN" "http://www.w3.org/Graphics/SVG/1.1/DTD/svg11.dtd">
<svg version="1.1" id="Layer_1" xmlns="http://www.w3.org/2000/svg" xmlns:xlink="http://www.w3.org/1999/xlink" x="0px" y="0px"
	 width="1900px" height="900px" viewBox="0 0 1900 900" enable-background="new 0 0 1900 900" xml:space="preserve">
<g id="XMLID_3_">
	<g>
		<polygon fill="#52A1D9" points="146.024,587.184 145.825,587.184 139.052,587.184 132.08,587.184 125.107,587.184 
			118.134,587.184 118.134,594.156 118.134,601.129 118.134,608.101 125.107,608.101 132.08,608.101 139.052,608.101 
			145.825,608.101 146.024,608.101 152.798,608.101 152.798,601.129 152.798,594.156 152.798,587.184 		"/>
		<polygon fill="#303030" points="62.553,587.184 62.553,594.156 62.553,601.129 62.553,608.101 69.526,608.101 69.526,601.129 
			69.526,594.156 69.526,587.184 		"/>
		<polygon fill="#52A1D9" points="55.581,587.184 48.608,587.184 41.636,587.184 34.663,587.184 27.691,587.184 20.718,587.184 
			13.945,587.184 13.746,587.184 6.972,587.184 6.972,594.156 6.972,601.129 6.972,608.101 13.746,608.101 13.945,608.101 
			20.718,608.101 27.691,608.101 34.663,608.101 41.636,608.101 48.608,608.101 55.581,608.101 62.553,608.101 62.553,601.129 
			62.553,594.156 62.553,587.184 		"/>
		<polygon fill="#303030" points="111.162,587.184 111.162,594.156 111.162,601.129 111.162,608.101 118.134,608.101 
			118.134,601.129 118.134,594.156 118.134,587.184 		"/>
		<polygon fill="#52A1D9" points="104.189,587.184 97.217,587.184 90.244,587.184 83.271,587.184 76.499,587.184 76.299,587.184 
			69.526,587.184 69.526,594.156 69.526,601.129 69.526,608.101 76.299,608.101 76.499,608.101 83.271,608.101 90.244,608.101 
			97.217,608.101 104.189,608.101 111.162,608.101 111.162,601.129 111.162,594.156 111.162,587.184 		"/>
		<g>
			<polygon fill="#303030" points="361.375,587.184 361.375,594.156 361.375,601.129 361.375,608.101 368.348,608.101 
				368.348,601.129 368.348,594.156 368.348,587.184 			"/>
			<polygon fill="#303030" points="250.213,594.156 250.213,601.129 250.213,608.101 257.186,608.101 257.186,601.129 
				257.186,594.156 257.186,587.184 250.213,587.184 			"/>
			<polygon fill="#303030" points="305.795,594.156 305.795,601.129 305.795,608.101 312.767,608.101 312.767,601.129 
				312.767,594.156 312.767,587.184 305.795,587.184 			"/>
		</g>
		<g>
			<polygon fill="#52A1D9" points="389.266,587.184 382.293,587.184 375.321,587.184 368.348,587.184 368.348,594.156 
				368.348,601.129 368.348,608.101 368.348,615.074 375.321,615.074 382.293,615.074 389.266,615.074 396.238,615.074 
				396.238,608.101 396.238,601.129 396.238,594.156 396.238,587.184 			"/>
			<polygon fill="#52A1D9" points="236.269,587.184 229.296,587.184 222.324,587.184 215.351,587.184 208.379,587.184 
				208.379,594.156 208.379,601.129 208.379,608.101 215.351,608.101 222.324,608.101 229.296,608.101 236.269,608.101 
				243.241,608.101 250.213,608.101 250.213,601.129 250.213,594.156 250.213,587.184 243.241,587.184 			"/>
			<polygon fill="#52A1D9" points="291.85,587.184 284.876,587.184 278.104,587.184 277.905,587.184 271.131,587.184 
				264.159,587.184 257.186,587.184 257.186,594.156 257.186,601.129 257.186,608.101 264.159,608.101 271.131,608.101 
				277.905,608.101 278.104,608.101 284.876,608.101 291.85,608.101 298.822,608.101 305.795,608.101 305.795,601.129 
				305.795,594.156 305.795,587.184 298.822,587.184 			"/>
			<polygon fill="#52A1D9" points="347.43,587.184 340.657,587.184 340.458,587.184 333.685,587.184 326.712,587.184 
				319.74,587.184 312.767,587.184 312.767,594.156 312.767,601.129 312.767,608.101 319.74,608.101 326.712,608.101 
				333.685,608.101 340.458,608.101 340.657,608.101 347.43,608.101 354.403,608.101 361.375,608.101 361.375,601.129 
				361.375,594.156 361.375,587.184 354.403,587.184 			"/>
		</g>
		<polygon fill="#303030" points="69.526,628.818 69.526,621.846 62.553,621.846 55.581,621.846 55.581,628.818 48.608,628.818 
			48.608,635.791 48.608,642.765 55.581,642.765 55.581,649.736 62.553,649.736 69.526,649.736 69.526,642.765 76.499,642.765 
			76.499,635.791 76.499,628.818 		"/>
		<polygon fill="#AE1F23" points="146.024,573.238 145.825,573.238 139.052,573.238 132.08,573.238 125.107,573.238 
			118.134,573.238 111.162,573.238 104.189,573.238 97.217,573.238 90.244,573.238 83.271,573.238 76.499,573.238 76.299,573.238 
			69.526,573.238 62.553,573.238 55.581,573.238 48.608,573.238 41.636,573.238 34.663,573.238 34.663,566.266 27.691,566.266 
			20.718,566.266 13.945,566.266 13.746,566.266 6.972,566.266 0,566.266 0,573.238 0,580.211 0,587.184 0,594.156 0,601.129 
			0,608.101 0,615.074 0,621.846 0,622.045 0,628.818 0,635.791 6.972,635.791 13.746,635.791 13.945,635.791 20.718,635.791 
			27.691,635.791 34.663,635.791 41.636,635.791 48.608,635.791 48.608,628.818 55.581,628.818 55.581,622.045 62.553,622.045 
			69.526,622.045 69.526,628.818 76.299,628.818 76.299,635.791 83.271,635.791 90.244,635.791 97.217,635.791 104.189,635.791 
			111.162,635.791 118.134,635.791 125.107,635.791 132.08,635.791 139.052,635.791 145.825,635.791 146.024,635.791 
			152.798,635.791 152.798,628.818 152.798,622.045 152.798,621.846 152.798,615.074 152.798,608.101 146.024,608.101 
			145.825,608.101 139.052,608.101 132.08,608.101 125.107,608.101 118.134,608.101 111.162,608.101 104.189,608.101 
			97.217,608.101 90.244,608.101 83.271,608.101 76.499,608.101 76.299,608.101 69.526,608.101 62.553,608.101 55.581,608.101 
			48.608,608.101 41.636,608.101 34.663,608.101 27.691,608.101 20.718,608.101 13.945,608.101 13.746,608.101 6.972,608.101 
			6.972,601.129 6.972,594.156 6.972,587.184 13.746,587.184 13.945,587.184 20.718,587.184 27.691,587.184 34.663,587.184 
			41.636,587.184 48.608,587.184 55.581,587.184 62.553,587.184 69.526,587.184 76.299,587.184 76.499,587.184 83.271,587.184 
			90.244,587.184 97.217,587.184 104.189,587.184 111.162,587.184 118.134,587.184 125.107,587.184 132.08,587.184 139.052,587.184 
			145.825,587.184 146.024,587.184 152.798,587.184 152.798,580.211 152.798,573.238 		"/>
		<polygon fill="#303030" points="152.798,573.238 152.798,580.211 152.798,587.184 152.798,594.156 152.798,601.129 
			152.798,608.101 152.798,615.074 152.798,621.846 152.798,622.045 152.798,628.818 152.798,635.791 159.771,635.791 
			159.771,628.818 159.771,622.045 159.771,621.846 159.771,615.074 159.771,608.101 159.771,601.129 159.771,594.156 
			159.771,587.184 159.771,580.211 159.771,573.238 		"/>
		<polygon fill="#515251" points="159.771,573.238 159.771,580.211 159.771,587.184 159.771,594.156 159.771,601.129 
			159.771,608.101 159.771,615.074 159.771,621.846 159.771,622.045 159.771,628.818 159.771,635.791 166.743,635.791 
			166.743,628.818 166.743,622.045 166.743,621.846 166.743,615.074 166.743,608.101 166.743,601.129 166.743,594.156 
			166.743,587.184 166.743,580.211 166.743,573.238 		"/>
		<polygon fill="#303030" points="166.743,573.238 166.743,580.211 166.743,587.184 166.743,594.156 166.743,601.129 
			166.743,608.101 166.743,615.074 166.743,621.846 166.743,622.045 166.743,628.818 166.743,635.791 173.715,635.791 
			173.715,628.818 173.715,622.045 173.715,621.846 173.715,615.074 173.715,608.101 173.715,601.129 173.715,594.156 
			173.715,587.184 173.715,580.211 173.715,573.238 		"/>
		<polygon fill="#515251" points="173.715,573.238 173.715,580.211 173.715,587.184 173.715,594.156 173.715,601.129 
			173.715,608.101 173.715,615.074 173.715,621.846 173.715,622.045 173.715,628.818 173.715,635.791 180.688,635.791 
			180.688,628.818 180.688,622.045 180.688,621.846 180.688,615.074 180.688,608.101 180.688,601.129 180.688,594.156 
			180.688,587.184 180.688,580.211 180.688,573.238 		"/>
		<polygon fill="#303030" points="180.688,573.238 180.688,580.211 180.688,587.184 180.688,594.156 180.688,601.129 
			180.688,608.101 180.688,615.074 180.688,621.846 180.688,622.045 180.688,628.818 180.688,635.791 187.66,635.791 
			187.66,628.818 187.66,622.045 187.66,621.846 187.66,615.074 187.66,608.101 187.66,601.129 187.66,594.156 187.66,587.184 
			187.66,580.211 187.66,573.238 		"/>
		<polygon fill="#515251" points="187.66,573.238 187.66,580.211 187.66,587.184 187.66,594.156 187.66,601.129 187.66,608.101 
			187.66,615.074 187.66,621.846 187.66,622.045 187.66,628.818 187.66,635.791 194.633,635.791 194.633,628.818 194.633,622.045 
			194.633,621.846 194.633,615.074 194.633,608.101 194.633,601.129 194.633,594.156 194.633,587.184 194.633,580.211 
			194.633,573.238 		"/>
		<polygon fill="#303030" points="194.633,573.238 194.633,580.211 194.633,587.184 194.633,594.156 194.633,601.129 
			194.633,608.101 194.633,615.074 194.633,621.846 194.633,622.045 194.633,628.818 194.633,635.791 201.605,635.791 
			201.605,628.818 201.605,622.045 201.605,621.846 201.605,615.074 201.605,608.101 201.605,601.129 201.605,594.156 
			201.605,587.184 201.605,580.211 201.605,573.238 		"/>
		<polygon fill="#515251" points="201.605,573.238 201.605,580.211 201.605,587.184 201.605,594.156 201.605,601.129 
			201.605,608.101 201.605,615.074 201.605,621.846 201.605,622.045 201.605,628.818 201.605,635.791 208.578,635.791 
			208.578,628.818 208.578,622.045 208.578,621.846 208.578,615.074 208.578,608.101 208.578,601.129 208.578,594.156 
			208.578,587.184 208.578,580.211 208.578,573.238 		"/>
		<g>
			<polygon fill="#303030" points="243.241,621.846 236.269,621.846 229.296,621.846 229.296,628.818 222.324,628.818 
				222.324,635.791 222.324,642.765 229.296,642.765 229.296,649.736 236.269,649.736 243.241,649.736 243.241,642.765 
				250.213,642.765 250.213,635.791 250.213,628.818 243.241,628.818 			"/>
			<polygon fill="#303030" points="354.403,628.818 354.403,621.846 347.43,621.846 340.458,621.846 340.458,628.818 
				333.685,628.818 333.685,635.791 333.685,642.765 340.458,642.765 340.458,649.736 347.43,649.736 354.403,649.736 
				354.403,642.765 361.375,642.765 361.375,635.791 361.375,628.818 			"/>
		</g>
		<g>
			<polygon fill="#AE1F23" points="382.293,615.074 375.321,615.074 368.348,615.074 368.348,608.101 361.375,608.101 
				354.403,608.101 347.43,608.101 340.657,608.101 340.458,608.101 333.685,608.101 326.712,608.101 319.74,608.101 
				312.767,608.101 305.795,608.101 298.822,608.101 291.85,608.101 284.876,608.101 278.104,608.101 277.905,608.101 
				271.131,608.101 264.159,608.101 257.186,608.101 250.213,608.101 243.241,608.101 236.269,608.101 229.296,608.101 
				222.324,608.101 215.351,608.101 208.379,608.101 208.379,615.074 208.379,621.846 208.379,622.045 208.379,628.818 
				208.379,635.791 215.351,635.791 222.324,635.791 222.324,628.818 229.296,628.818 229.296,622.045 236.269,622.045 
				243.241,622.045 243.241,628.818 250.213,628.818 250.213,635.791 257.186,635.791 264.159,635.791 271.131,635.791 
				277.905,635.791 278.104,635.791 284.876,635.791 291.85,635.791 298.822,635.791 305.795,635.791 312.767,635.791 
				319.74,635.791 326.712,635.791 333.685,635.791 333.685,628.818 340.657,628.818 340.657,622.045 347.43,622.045 
				354.403,622.045 354.403,628.818 361.375,628.818 361.375,635.791 368.348,635.791 375.321,635.791 382.293,635.791 
				389.266,635.791 396.238,635.791 396.238,628.818 396.238,622.045 396.238,621.846 396.238,615.074 389.266,615.074 			"/>
			<polygon fill="#AE1F23" points="389.266,580.211 389.266,573.238 382.293,573.238 375.321,573.238 368.348,573.238 
				361.375,573.238 354.403,573.238 347.43,573.238 340.657,573.238 340.458,573.238 333.685,573.238 326.712,573.238 
				319.74,573.238 312.767,573.238 305.795,573.238 298.822,573.238 291.85,573.238 284.876,573.238 278.104,573.238 
				277.905,573.238 271.131,573.238 264.159,573.238 257.186,573.238 250.213,573.238 243.241,573.238 236.269,573.238 
				229.296,573.238 222.324,573.238 215.351,573.238 208.379,573.238 208.379,580.211 208.379,587.184 215.351,587.184 
				222.324,587.184 229.296,587.184 236.269,587.184 243.241,587.184 250.213,587.184 257.186,587.184 264.159,587.184 
				271.131,587.184 277.905,587.184 278.104,587.184 284.876,587.184 291.85,587.184 298.822,587.184 305.795,587.184 
				312.767,587.184 319.74,587.184 326.712,587.184 333.685,587.184 340.458,587.184 340.657,587.184 347.43,587.184 
				354.403,587.184 361.375,587.184 368.348,587.184 375.321,587.184 382.293,587.184 389.266,587.184 396.238,587.184 
				396.238,580.211 			"/>
		</g>
	</g>
</g>
</svg>
