<?xml version="1.0" encoding="utf-8"?>
<!-- Generator: Adobe Illustrator 21.1.0, SVG Export Plug-In . SVG Version: 6.00 Build 0)  -->
<svg version="1.1" id="Layer_1" xmlns="http://www.w3.org/2000/svg" xmlns:xlink="http://www.w3.org/1999/xlink" x="0px" y="0px"
	 viewBox="0 0 260.4 155.6" style="enable-background:new 0 0 260.4 155.6;" xml:space="preserve">
<style type="text/css">
	.st0{fill:#303030;}
	.st1{fill:#52A1D9;}
	.st2{fill:#AE1F23;}
	.st3{fill:#515251;}
</style>
<g id="XMLID_3_">
	<g>
		<rect x="59" y="96.3" class="st0" width="3.5" height="3.5"/>
		<rect x="62.5" y="96.3" class="st0" width="3.5" height="3.5"/>
		<rect x="55.5" y="92.8" class="st0" width="3.5" height="3.5"/>
		<rect x="66" y="92.8" class="st0" width="3.5" height="3.5"/>
		<rect x="59" y="92.8" class="st0" width="3.5" height="3.5"/>
		<rect x="62.5" y="92.8" class="st0" width="3.5" height="3.5"/>
		<rect x="146.2" y="96.3" class="st0" width="3.5" height="3.5"/>
		<rect x="149.7" y="96.3" class="st0" width="3.5" height="3.5"/>
		<rect x="142.7" y="92.8" class="st0" width="3.5" height="3.5"/>
		<rect x="153.2" y="92.8" class="st0" width="3.5" height="3.5"/>
		<rect x="146.2" y="92.8" class="st0" width="3.5" height="3.5"/>
		<rect x="149.7" y="92.8" class="st0" width="3.5" height="3.5"/>
		<rect x="198.6" y="92.8" class="st0" width="3.5" height="3.5"/>
		<rect x="202" y="92.8" class="st0" width="3.5" height="3.5"/>
		<rect x="202" y="96.3" class="st0" width="3.5" height="3.5"/>
		<rect x="205.5" y="96.3" class="st0" width="3.5" height="3.5"/>
		<rect x="205.5" y="92.8" class="st0" width="3.5" height="3.5"/>
		<rect x="209" y="92.8" class="st0" width="3.5" height="3.5"/>
		<rect x="90.4" y="71.9" class="st1" width="3.5" height="3.5"/>
		<rect x="93.9" y="71.9" class="st1" width="3.5" height="3.5"/>
		<rect x="104.3" y="75.4" class="st1" width="3.5" height="3.5"/>
		<rect x="90.4" y="75.4" class="st1" width="3.5" height="3.5"/>
		<rect x="90.4" y="68.4" class="st1" width="3.5" height="3.5"/>
		<rect x="93.9" y="68.4" class="st1" width="3.5" height="3.5"/>
		<rect x="93.9" y="75.4" class="st1" width="3.5" height="3.5"/>
		<rect x="97.4" y="71.9" class="st1" width="3.5" height="3.5"/>
		<rect x="97.4" y="75.4" class="st1" width="3.5" height="3.5"/>
		<rect x="97.4" y="68.4" class="st1" width="3.5" height="3.5"/>
		<rect x="100.9" y="75.4" class="st1" width="3.5" height="3.5"/>
		<rect x="100.9" y="68.4" class="st1" width="3.5" height="3.5"/>
		<rect x="100.9" y="71.9" class="st1" width="3.5" height="3.5"/>
		<rect x="104.3" y="71.9" class="st1" width="3.5" height="3.5"/>
		<rect x="104.3" y="68.4" class="st1" width="3.5" height="3.5"/>
		<rect x="34.6" y="71.9" class="st1" width="3.5" height="3.5"/>
		<rect x="34.6" y="75.4" class="st1" width="3.5" height="3.5"/>
		<rect x="34.6" y="68.4" class="st1" width="3.5" height="3.5"/>
		<rect x="38" y="68.4" class="st1" width="3.5" height="3.5"/>
		<rect x="38" y="75.4" class="st1" width="3.5" height="3.5"/>
		<rect x="38" y="71.9" class="st1" width="3.5" height="3.5"/>
		<rect x="52" y="75.4" class="st1" width="3.5" height="3.5"/>
		<rect x="52" y="68.4" class="st1" width="3.5" height="3.5"/>
		<rect x="52" y="71.9" class="st1" width="3.5" height="3.5"/>
		<rect x="55.5" y="75.4" class="st1" width="3.5" height="3.5"/>
		<rect x="55.5" y="68.4" class="st1" width="3.5" height="3.5"/>
		<rect x="55.5" y="71.9" class="st1" width="3.5" height="3.5"/>
		<rect x="59" y="75.4" class="st1" width="3.5" height="3.5"/>
		<rect x="59" y="71.9" class="st1" width="3.5" height="3.5"/>
		<rect x="59" y="68.4" class="st1" width="3.5" height="3.5"/>
		<rect x="62.5" y="71.9" class="st0" width="3.5" height="3.5"/>
		<rect x="62.5" y="68.4" class="st0" width="3.5" height="3.5"/>
		<rect x="62.5" y="75.4" class="st0" width="3.5" height="3.5"/>
		<rect x="41.5" y="71.9" class="st1" width="3.5" height="3.5"/>
		<rect x="41.5" y="75.4" class="st1" width="3.5" height="3.5"/>
		<rect x="41.5" y="68.4" class="st1" width="3.5" height="3.5"/>
		<rect x="45" y="68.4" class="st1" width="3.5" height="3.5"/>
		<rect x="45" y="71.9" class="st1" width="3.5" height="3.5"/>
		<rect x="45" y="75.4" class="st1" width="3.5" height="3.5"/>
		<rect x="48.5" y="68.4" class="st1" width="3.5" height="3.5"/>
		<rect x="48.5" y="75.4" class="st1" width="3.5" height="3.5"/>
		<rect x="48.5" y="71.9" class="st1" width="3.5" height="3.5"/>
		<rect x="79.9" y="75.4" class="st1" width="3.5" height="3.5"/>
		<rect x="79.9" y="68.4" class="st1" width="3.5" height="3.5"/>
		<rect x="79.9" y="71.9" class="st1" width="3.5" height="3.5"/>
		<rect x="83.4" y="68.4" class="st1" width="3.5" height="3.5"/>
		<rect x="83.4" y="75.4" class="st1" width="3.5" height="3.5"/>
		<rect x="83.4" y="71.9" class="st1" width="3.5" height="3.5"/>
		<rect x="86.9" y="75.4" class="st0" width="3.5" height="3.5"/>
		<rect x="86.9" y="68.4" class="st0" width="3.5" height="3.5"/>
		<rect x="86.9" y="71.9" class="st0" width="3.5" height="3.5"/>
		<rect x="66" y="75.4" class="st1" width="3.5" height="3.5"/>
		<rect x="66" y="71.9" class="st1" width="3.5" height="3.5"/>
		<rect x="66" y="68.4" class="st1" width="3.5" height="3.5"/>
		<rect x="69.4" y="71.9" class="st1" width="3.5" height="3.5"/>
		<rect x="69.4" y="75.4" class="st1" width="3.5" height="3.5"/>
		<rect x="69.4" y="68.4" class="st1" width="3.5" height="3.5"/>
		<rect x="72.9" y="71.9" class="st1" width="3.5" height="3.5"/>
		<rect x="72.9" y="75.4" class="st1" width="3.5" height="3.5"/>
		<rect x="72.9" y="68.4" class="st1" width="3.5" height="3.5"/>
		<rect x="76.4" y="75.4" class="st1" width="3.5" height="3.5"/>
		<rect x="76.4" y="71.9" class="st1" width="3.5" height="3.5"/>
		<rect x="76.4" y="68.4" class="st1" width="3.5" height="3.5"/>
		<rect x="216" y="71.9" class="st1" width="3.5" height="3.5"/>
		<rect x="216" y="75.4" class="st1" width="3.5" height="3.5"/>
		<rect x="216" y="68.4" class="st1" width="3.5" height="3.5"/>
		<rect x="216" y="78.9" class="st1" width="3.5" height="3.5"/>
		<rect x="219.5" y="78.9" class="st1" width="3.5" height="3.5"/>
		<rect x="219.5" y="75.4" class="st1" width="3.5" height="3.5"/>
		<rect x="219.5" y="68.4" class="st1" width="3.5" height="3.5"/>
		<rect x="219.5" y="71.9" class="st1" width="3.5" height="3.5"/>
		<rect x="223" y="75.4" class="st1" width="3.5" height="3.5"/>
		<rect x="223" y="71.9" class="st1" width="3.5" height="3.5"/>
		<rect x="223" y="78.9" class="st1" width="3.5" height="3.5"/>
		<rect x="223" y="68.4" class="st1" width="3.5" height="3.5"/>
		<rect x="226.5" y="75.4" class="st1" width="3.5" height="3.5"/>
		<rect x="226.5" y="78.9" class="st1" width="3.5" height="3.5"/>
		<rect x="226.5" y="68.4" class="st1" width="3.5" height="3.5"/>
		<rect x="226.5" y="71.9" class="st1" width="3.5" height="3.5"/>
		<rect x="212.5" y="68.4" class="st0" width="3.5" height="3.5"/>
		<rect x="209" y="68.4" class="st1" width="3.5" height="3.5"/>
		<rect x="212.5" y="75.4" class="st0" width="3.5" height="3.5"/>
		<rect x="212.5" y="71.9" class="st0" width="3.5" height="3.5"/>
		<rect x="146.2" y="68.4" class="st1" width="3.5" height="3.5"/>
		<rect x="146.2" y="71.9" class="st1" width="3.5" height="3.5"/>
		<rect x="146.2" y="75.4" class="st1" width="3.5" height="3.5"/>
		<rect x="149.7" y="68.4" class="st1" width="3.5" height="3.5"/>
		<rect x="149.7" y="71.9" class="st1" width="3.5" height="3.5"/>
		<rect x="149.7" y="75.4" class="st1" width="3.5" height="3.5"/>
		<rect x="153.2" y="68.4" class="st1" width="3.5" height="3.5"/>
		<rect x="153.2" y="71.9" class="st1" width="3.5" height="3.5"/>
		<rect x="153.2" y="75.4" class="st1" width="3.5" height="3.5"/>
		<rect x="156.7" y="75.4" class="st0" width="3.5" height="3.5"/>
		<rect x="156.7" y="71.9" class="st0" width="3.5" height="3.5"/>
		<rect x="156.7" y="68.4" class="st0" width="3.5" height="3.5"/>
		<rect x="160.2" y="68.4" class="st1" width="3.5" height="3.5"/>
		<rect x="160.2" y="75.4" class="st1" width="3.5" height="3.5"/>
		<rect x="160.2" y="71.9" class="st1" width="3.5" height="3.5"/>
		<rect x="163.7" y="75.4" class="st1" width="3.5" height="3.5"/>
		<rect x="163.7" y="71.9" class="st1" width="3.5" height="3.5"/>
		<rect x="163.7" y="68.4" class="st1" width="3.5" height="3.5"/>
		<rect x="135.7" y="71.9" class="st1" width="3.5" height="3.5"/>
		<rect x="135.7" y="68.4" class="st1" width="3.5" height="3.5"/>
		<rect x="135.7" y="75.4" class="st1" width="3.5" height="3.5"/>
		<rect x="139.2" y="75.4" class="st1" width="3.5" height="3.5"/>
		<rect x="139.2" y="71.9" class="st1" width="3.5" height="3.5"/>
		<rect x="139.2" y="68.4" class="st1" width="3.5" height="3.5"/>
		<rect x="142.7" y="68.4" class="st1" width="3.5" height="3.5"/>
		<rect x="142.7" y="71.9" class="st1" width="3.5" height="3.5"/>
		<rect x="142.7" y="75.4" class="st1" width="3.5" height="3.5"/>
		<rect x="209" y="75.4" class="st1" width="3.5" height="3.5"/>
		<rect x="209" y="71.9" class="st1" width="3.5" height="3.5"/>
		<rect x="167.2" y="71.9" class="st1" width="3.5" height="3.5"/>
		<rect x="167.2" y="75.4" class="st1" width="3.5" height="3.5"/>
		<rect x="167.2" y="68.4" class="st1" width="3.5" height="3.5"/>
		<rect x="170.6" y="68.4" class="st1" width="3.5" height="3.5"/>
		<rect x="170.6" y="75.4" class="st1" width="3.5" height="3.5"/>
		<rect x="170.6" y="71.9" class="st1" width="3.5" height="3.5"/>
		<rect x="174.1" y="75.4" class="st1" width="3.5" height="3.5"/>
		<rect x="174.1" y="68.4" class="st1" width="3.5" height="3.5"/>
		<rect x="174.1" y="71.9" class="st1" width="3.5" height="3.5"/>
		<rect x="177.6" y="68.4" class="st1" width="3.5" height="3.5"/>
		<rect x="177.6" y="71.9" class="st1" width="3.5" height="3.5"/>
		<rect x="177.6" y="75.4" class="st1" width="3.5" height="3.5"/>
		<rect x="181.1" y="75.4" class="st1" width="3.5" height="3.5"/>
		<rect x="181.1" y="71.9" class="st1" width="3.5" height="3.5"/>
		<rect x="181.1" y="68.4" class="st1" width="3.5" height="3.5"/>
		<rect x="184.6" y="71.9" class="st0" width="3.5" height="3.5"/>
		<rect x="184.6" y="75.4" class="st0" width="3.5" height="3.5"/>
		<rect x="184.6" y="68.4" class="st0" width="3.5" height="3.5"/>
		<rect x="188.1" y="71.9" class="st1" width="3.5" height="3.5"/>
		<rect x="188.1" y="68.4" class="st1" width="3.5" height="3.5"/>
		<rect x="188.1" y="75.4" class="st1" width="3.5" height="3.5"/>
		<rect x="191.6" y="71.9" class="st1" width="3.5" height="3.5"/>
		<rect x="191.6" y="68.4" class="st1" width="3.5" height="3.5"/>
		<rect x="191.6" y="75.4" class="st1" width="3.5" height="3.5"/>
		<rect x="195.1" y="68.4" class="st1" width="3.5" height="3.5"/>
		<rect x="195.1" y="75.4" class="st1" width="3.5" height="3.5"/>
		<rect x="195.1" y="71.9" class="st1" width="3.5" height="3.5"/>
		<rect x="198.6" y="68.4" class="st1" width="3.5" height="3.5"/>
		<rect x="198.6" y="71.9" class="st1" width="3.5" height="3.5"/>
		<rect x="198.6" y="75.4" class="st1" width="3.5" height="3.5"/>
		<rect x="202" y="68.4" class="st1" width="3.5" height="3.5"/>
		<rect x="202" y="75.4" class="st1" width="3.5" height="3.5"/>
		<rect x="202" y="71.9" class="st1" width="3.5" height="3.5"/>
		<rect x="205.5" y="68.4" class="st1" width="3.5" height="3.5"/>
		<rect x="205.5" y="71.9" class="st1" width="3.5" height="3.5"/>
		<rect x="205.5" y="75.4" class="st1" width="3.5" height="3.5"/>
		<rect x="59" y="89.3" class="st0" width="3.5" height="3.5"/>
		<rect x="59" y="85.8" class="st0" width="3.5" height="3.5"/>
		<rect x="62.5" y="89.3" class="st0" width="3.5" height="3.5"/>
		<rect x="62.5" y="85.8" class="st0" width="3.5" height="3.5"/>
		<rect x="202" y="89.3" class="st0" width="3.5" height="3.5"/>
		<rect x="202" y="85.8" class="st0" width="3.5" height="3.5"/>
		<rect x="205.5" y="89.3" class="st0" width="3.5" height="3.5"/>
		<rect x="205.5" y="85.8" class="st0" width="3.5" height="3.5"/>
		<rect x="31.1" y="89.3" class="st2" width="3.5" height="3.5"/>
		<rect x="31.1" y="85.8" class="st2" width="3.5" height="3.5"/>
		<rect x="31.1" y="82.4" class="st2" width="3.5" height="3.5"/>
		<rect x="31.1" y="78.9" class="st2" width="3.5" height="3.5"/>
		<rect x="31.1" y="75.4" class="st2" width="3.5" height="3.5"/>
		<rect x="31.1" y="71.9" class="st2" width="3.5" height="3.5"/>
		<rect x="31.1" y="68.4" class="st2" width="3.5" height="3.5"/>
		<rect x="31.1" y="64.9" class="st2" width="3.5" height="3.5"/>
		<rect x="31.1" y="61.4" class="st2" width="3.5" height="3.5"/>
		<rect x="31.1" y="57.9" class="st2" width="3.5" height="3.5"/>
		<rect x="34.6" y="89.3" class="st2" width="3.5" height="3.5"/>
		<rect x="34.6" y="85.8" class="st2" width="3.5" height="3.5"/>
		<rect x="34.6" y="82.4" class="st2" width="3.5" height="3.5"/>
		<rect x="34.6" y="78.9" class="st2" width="3.5" height="3.5"/>
		<rect x="34.6" y="64.9" class="st2" width="3.5" height="3.5"/>
		<rect x="34.6" y="61.4" class="st2" width="3.5" height="3.5"/>
		<rect x="34.6" y="57.9" class="st2" width="3.5" height="3.5"/>
		<rect x="38" y="89.3" class="st2" width="3.5" height="3.5"/>
		<rect x="38" y="85.8" class="st2" width="3.5" height="3.5"/>
		<rect x="38" y="82.4" class="st2" width="3.5" height="3.5"/>
		<rect x="38" y="78.9" class="st2" width="3.5" height="3.5"/>
		<rect x="38" y="64.9" class="st2" width="3.5" height="3.5"/>
		<rect x="38" y="61.4" class="st2" width="3.5" height="3.5"/>
		<rect x="38" y="57.9" class="st2" width="3.5" height="3.5"/>
		<rect x="41.5" y="89.3" class="st2" width="3.5" height="3.5"/>
		<rect x="41.5" y="85.8" class="st2" width="3.5" height="3.5"/>
		<rect x="41.5" y="82.4" class="st2" width="3.5" height="3.5"/>
		<rect x="41.5" y="78.9" class="st2" width="3.5" height="3.5"/>
		<rect x="41.5" y="64.9" class="st2" width="3.5" height="3.5"/>
		<rect x="41.5" y="61.4" class="st2" width="3.5" height="3.5"/>
		<rect x="41.5" y="57.9" class="st2" width="3.5" height="3.5"/>
		<rect x="45" y="89.3" class="st2" width="3.5" height="3.5"/>
		<rect x="45" y="85.8" class="st2" width="3.5" height="3.5"/>
		<rect x="45" y="82.4" class="st2" width="3.5" height="3.5"/>
		<rect x="45" y="78.9" class="st2" width="3.5" height="3.5"/>
		<rect x="45" y="64.9" class="st2" width="3.5" height="3.5"/>
		<rect x="45" y="61.4" class="st2" width="3.5" height="3.5"/>
		<rect x="45" y="57.9" class="st2" width="3.5" height="3.5"/>
		<rect x="48.5" y="89.3" class="st2" width="3.5" height="3.5"/>
		<rect x="48.5" y="85.8" class="st2" width="3.5" height="3.5"/>
		<rect x="48.5" y="82.4" class="st2" width="3.5" height="3.5"/>
		<rect x="48.5" y="78.9" class="st2" width="3.5" height="3.5"/>
		<rect x="48.5" y="64.9" class="st2" width="3.5" height="3.5"/>
		<rect x="48.5" y="61.4" class="st2" width="3.5" height="3.5"/>
		<rect x="52" y="89.3" class="st2" width="3.5" height="3.5"/>
		<rect x="52" y="85.8" class="st2" width="3.5" height="3.5"/>
		<rect x="52" y="82.4" class="st2" width="3.5" height="3.5"/>
		<rect x="52" y="78.9" class="st2" width="3.5" height="3.5"/>
		<rect x="52" y="64.9" class="st2" width="3.5" height="3.5"/>
		<rect x="52" y="61.4" class="st2" width="3.5" height="3.5"/>
		<rect x="55.5" y="89.3" class="st0" width="3.5" height="3.5"/>
		<rect x="55.5" y="85.8" class="st2" width="3.5" height="3.5"/>
		<rect x="55.5" y="82.4" class="st2" width="3.5" height="3.5"/>
		<rect x="55.5" y="78.9" class="st2" width="3.5" height="3.5"/>
		<rect x="55.5" y="64.9" class="st2" width="3.5" height="3.5"/>
		<rect x="55.5" y="61.4" class="st2" width="3.5" height="3.5"/>
		<rect x="59" y="82.4" class="st2" width="3.5" height="3.5"/>
		<rect x="59" y="78.9" class="st2" width="3.5" height="3.5"/>
		<rect x="59" y="64.9" class="st2" width="3.5" height="3.5"/>
		<rect x="59" y="61.4" class="st2" width="3.5" height="3.5"/>
		<rect x="62.5" y="82.4" class="st2" width="3.5" height="3.5"/>
		<rect x="62.5" y="78.9" class="st2" width="3.5" height="3.5"/>
		<rect x="62.5" y="64.9" class="st2" width="3.5" height="3.5"/>
		<rect x="62.5" y="61.4" class="st2" width="3.5" height="3.5"/>
		<rect x="66" y="89.3" class="st0" width="3.5" height="3.5"/>
		<rect x="66" y="85.8" class="st2" width="3.5" height="3.5"/>
		<rect x="66" y="82.4" class="st2" width="3.5" height="3.5"/>
		<rect x="66" y="78.9" class="st2" width="3.5" height="3.5"/>
		<rect x="66" y="64.9" class="st2" width="3.5" height="3.5"/>
		<rect x="66" y="61.4" class="st2" width="3.5" height="3.5"/>
		<rect x="69.4" y="89.3" class="st2" width="3.5" height="3.5"/>
		<rect x="69.4" y="85.8" class="st2" width="3.5" height="3.5"/>
		<rect x="69.4" y="82.4" class="st2" width="3.5" height="3.5"/>
		<rect x="69.4" y="78.9" class="st2" width="3.5" height="3.5"/>
		<rect x="69.4" y="64.9" class="st2" width="3.5" height="3.5"/>
		<rect x="69.4" y="61.4" class="st2" width="3.5" height="3.5"/>
		<rect x="72.9" y="89.3" class="st2" width="3.5" height="3.5"/>
		<rect x="72.9" y="85.8" class="st2" width="3.5" height="3.5"/>
		<rect x="72.9" y="82.4" class="st2" width="3.5" height="3.5"/>
		<rect x="72.9" y="78.9" class="st2" width="3.5" height="3.5"/>
		<rect x="72.9" y="64.9" class="st2" width="3.5" height="3.5"/>
		<rect x="72.9" y="61.4" class="st2" width="3.5" height="3.5"/>
		<rect x="76.4" y="89.3" class="st2" width="3.5" height="3.5"/>
		<rect x="76.4" y="85.8" class="st2" width="3.5" height="3.5"/>
		<rect x="76.4" y="82.4" class="st2" width="3.5" height="3.5"/>
		<rect x="76.4" y="78.9" class="st2" width="3.5" height="3.5"/>
		<rect x="76.4" y="64.9" class="st2" width="3.5" height="3.5"/>
		<rect x="76.4" y="61.4" class="st2" width="3.5" height="3.5"/>
		<rect x="79.9" y="89.3" class="st2" width="3.5" height="3.5"/>
		<rect x="79.9" y="85.8" class="st2" width="3.5" height="3.5"/>
		<rect x="79.9" y="82.4" class="st2" width="3.5" height="3.5"/>
		<rect x="79.9" y="78.9" class="st2" width="3.5" height="3.5"/>
		<rect x="79.9" y="64.9" class="st2" width="3.5" height="3.5"/>
		<rect x="79.9" y="61.4" class="st2" width="3.5" height="3.5"/>
		<rect x="83.4" y="89.3" class="st2" width="3.5" height="3.5"/>
		<rect x="83.4" y="85.8" class="st2" width="3.5" height="3.5"/>
		<rect x="83.4" y="82.4" class="st2" width="3.5" height="3.5"/>
		<rect x="83.4" y="78.9" class="st2" width="3.5" height="3.5"/>
		<rect x="83.4" y="64.9" class="st2" width="3.5" height="3.5"/>
		<rect x="83.4" y="61.4" class="st2" width="3.5" height="3.5"/>
		<rect x="86.9" y="89.3" class="st2" width="3.5" height="3.5"/>
		<rect x="86.9" y="85.8" class="st2" width="3.5" height="3.5"/>
		<rect x="86.9" y="82.4" class="st2" width="3.5" height="3.5"/>
		<rect x="86.9" y="78.9" class="st2" width="3.5" height="3.5"/>
		<rect x="86.9" y="64.9" class="st2" width="3.5" height="3.5"/>
		<rect x="86.9" y="61.4" class="st2" width="3.5" height="3.5"/>
		<rect x="90.4" y="89.3" class="st2" width="3.5" height="3.5"/>
		<rect x="90.4" y="85.8" class="st2" width="3.5" height="3.5"/>
		<rect x="90.4" y="82.4" class="st2" width="3.5" height="3.5"/>
		<rect x="90.4" y="78.9" class="st2" width="3.5" height="3.5"/>
		<rect x="90.4" y="64.9" class="st2" width="3.5" height="3.5"/>
		<rect x="90.4" y="61.4" class="st2" width="3.5" height="3.5"/>
		<rect x="93.9" y="89.3" class="st2" width="3.5" height="3.5"/>
		<rect x="93.9" y="85.8" class="st2" width="3.5" height="3.5"/>
		<rect x="93.9" y="82.4" class="st2" width="3.5" height="3.5"/>
		<rect x="93.9" y="78.9" class="st2" width="3.5" height="3.5"/>
		<rect x="93.9" y="64.9" class="st2" width="3.5" height="3.5"/>
		<rect x="93.9" y="61.4" class="st2" width="3.5" height="3.5"/>
		<rect x="97.4" y="89.3" class="st2" width="3.5" height="3.5"/>
		<rect x="97.4" y="85.8" class="st2" width="3.5" height="3.5"/>
		<rect x="97.4" y="82.4" class="st2" width="3.5" height="3.5"/>
		<rect x="97.4" y="78.9" class="st2" width="3.5" height="3.5"/>
		<rect x="97.4" y="64.9" class="st2" width="3.5" height="3.5"/>
		<rect x="97.4" y="61.4" class="st2" width="3.5" height="3.5"/>
		<rect x="100.9" y="89.3" class="st2" width="3.5" height="3.5"/>
		<rect x="100.9" y="85.8" class="st2" width="3.5" height="3.5"/>
		<rect x="100.9" y="82.4" class="st2" width="3.5" height="3.5"/>
		<rect x="100.9" y="78.9" class="st2" width="3.5" height="3.5"/>
		<rect x="100.9" y="64.9" class="st2" width="3.5" height="3.5"/>
		<rect x="100.9" y="61.4" class="st2" width="3.5" height="3.5"/>
		<rect x="104.3" y="89.3" class="st2" width="3.5" height="3.5"/>
		<rect x="104.3" y="85.8" class="st2" width="3.5" height="3.5"/>
		<rect x="104.3" y="82.4" class="st2" width="3.5" height="3.5"/>
		<rect x="104.3" y="78.9" class="st2" width="3.5" height="3.5"/>
		<rect x="104.3" y="64.9" class="st2" width="3.5" height="3.5"/>
		<rect x="104.3" y="61.4" class="st2" width="3.5" height="3.5"/>
		<rect x="107.8" y="89.3" class="st0" width="3.5" height="3.5"/>
		<rect x="107.8" y="85.8" class="st0" width="3.5" height="3.5"/>
		<rect x="107.8" y="82.4" class="st0" width="3.5" height="3.5"/>
		<rect x="107.8" y="78.9" class="st0" width="3.5" height="3.5"/>
		<rect x="107.8" y="75.4" class="st0" width="3.5" height="3.5"/>
		<rect x="107.8" y="71.9" class="st0" width="3.5" height="3.5"/>
		<rect x="107.8" y="68.4" class="st0" width="3.5" height="3.5"/>
		<rect x="107.8" y="64.9" class="st0" width="3.5" height="3.5"/>
		<rect x="107.8" y="61.4" class="st0" width="3.5" height="3.5"/>
		<rect x="111.3" y="89.3" class="st3" width="3.5" height="3.5"/>
		<rect x="111.3" y="85.8" class="st3" width="3.5" height="3.5"/>
		<rect x="111.3" y="82.4" class="st3" width="3.5" height="3.5"/>
		<rect x="111.3" y="78.9" class="st3" width="3.5" height="3.5"/>
		<rect x="111.3" y="75.4" class="st3" width="3.5" height="3.5"/>
		<rect x="111.3" y="71.9" class="st3" width="3.5" height="3.5"/>
		<rect x="111.3" y="68.4" class="st3" width="3.5" height="3.5"/>
		<rect x="111.3" y="64.9" class="st3" width="3.5" height="3.5"/>
		<rect x="111.3" y="61.4" class="st3" width="3.5" height="3.5"/>
		<rect x="114.8" y="89.3" class="st0" width="3.5" height="3.5"/>
		<rect x="114.8" y="85.8" class="st0" width="3.5" height="3.5"/>
		<rect x="114.8" y="82.4" class="st0" width="3.5" height="3.5"/>
		<rect x="114.8" y="78.9" class="st0" width="3.5" height="3.5"/>
		<rect x="114.8" y="75.4" class="st0" width="3.5" height="3.5"/>
		<rect x="114.8" y="71.9" class="st0" width="3.5" height="3.5"/>
		<rect x="114.8" y="68.4" class="st0" width="3.5" height="3.5"/>
		<rect x="114.8" y="64.9" class="st0" width="3.5" height="3.5"/>
		<rect x="114.8" y="61.4" class="st0" width="3.5" height="3.5"/>
		<rect x="118.3" y="89.3" class="st3" width="3.5" height="3.5"/>
		<rect x="118.3" y="85.8" class="st3" width="3.5" height="3.5"/>
		<rect x="118.3" y="82.4" class="st3" width="3.5" height="3.5"/>
		<rect x="118.3" y="78.9" class="st3" width="3.5" height="3.5"/>
		<rect x="118.3" y="75.4" class="st3" width="3.5" height="3.5"/>
		<rect x="118.3" y="71.9" class="st3" width="3.5" height="3.5"/>
		<rect x="118.3" y="68.4" class="st3" width="3.5" height="3.5"/>
		<rect x="118.3" y="64.9" class="st3" width="3.5" height="3.5"/>
		<rect x="118.3" y="61.4" class="st3" width="3.5" height="3.5"/>
		<rect x="121.8" y="89.3" class="st0" width="3.5" height="3.5"/>
		<rect x="121.8" y="85.8" class="st0" width="3.5" height="3.5"/>
		<rect x="121.8" y="82.4" class="st0" width="3.5" height="3.5"/>
		<rect x="121.8" y="78.9" class="st0" width="3.5" height="3.5"/>
		<rect x="121.8" y="75.4" class="st0" width="3.5" height="3.5"/>
		<rect x="121.8" y="71.9" class="st0" width="3.5" height="3.5"/>
		<rect x="121.8" y="68.4" class="st0" width="3.5" height="3.5"/>
		<rect x="121.8" y="64.9" class="st0" width="3.5" height="3.5"/>
		<rect x="121.8" y="61.4" class="st0" width="3.5" height="3.5"/>
		<rect x="125.3" y="89.3" class="st3" width="3.5" height="3.5"/>
		<rect x="125.3" y="85.8" class="st3" width="3.5" height="3.5"/>
		<rect x="125.3" y="82.4" class="st3" width="3.5" height="3.5"/>
		<rect x="125.3" y="78.9" class="st3" width="3.5" height="3.5"/>
		<rect x="125.3" y="75.4" class="st3" width="3.5" height="3.5"/>
		<rect x="125.3" y="71.9" class="st3" width="3.5" height="3.5"/>
		<rect x="125.3" y="68.4" class="st3" width="3.5" height="3.5"/>
		<rect x="125.3" y="64.9" class="st3" width="3.5" height="3.5"/>
		<rect x="125.3" y="61.4" class="st3" width="3.5" height="3.5"/>
		<rect x="128.8" y="89.3" class="st0" width="3.5" height="3.5"/>
		<rect x="128.8" y="85.8" class="st0" width="3.5" height="3.5"/>
		<rect x="128.8" y="82.4" class="st0" width="3.5" height="3.5"/>
		<rect x="128.8" y="78.9" class="st0" width="3.5" height="3.5"/>
		<rect x="128.8" y="75.4" class="st0" width="3.5" height="3.5"/>
		<rect x="128.8" y="71.9" class="st0" width="3.5" height="3.5"/>
		<rect x="128.8" y="68.4" class="st0" width="3.5" height="3.5"/>
		<rect x="128.8" y="64.9" class="st0" width="3.5" height="3.5"/>
		<rect x="128.8" y="61.4" class="st0" width="3.5" height="3.5"/>
		<rect x="132.3" y="89.3" class="st3" width="3.5" height="3.5"/>
		<rect x="132.3" y="85.8" class="st3" width="3.5" height="3.5"/>
		<rect x="132.3" y="82.4" class="st3" width="3.5" height="3.5"/>
		<rect x="132.3" y="78.9" class="st3" width="3.5" height="3.5"/>
		<rect x="132.3" y="75.4" class="st3" width="3.5" height="3.5"/>
		<rect x="132.3" y="71.9" class="st3" width="3.5" height="3.5"/>
		<rect x="132.3" y="68.4" class="st3" width="3.5" height="3.5"/>
		<rect x="132.3" y="64.9" class="st3" width="3.5" height="3.5"/>
		<rect x="132.3" y="61.4" class="st3" width="3.5" height="3.5"/>
		<rect x="135.7" y="89.3" class="st2" width="3.5" height="3.5"/>
		<rect x="135.7" y="85.8" class="st2" width="3.5" height="3.5"/>
		<rect x="135.7" y="82.4" class="st2" width="3.5" height="3.5"/>
		<rect x="135.7" y="78.9" class="st2" width="3.5" height="3.5"/>
		<rect x="135.7" y="64.9" class="st2" width="3.5" height="3.5"/>
		<rect x="135.7" y="61.4" class="st2" width="3.5" height="3.5"/>
		<rect x="139.2" y="89.3" class="st2" width="3.5" height="3.5"/>
		<rect x="139.2" y="85.8" class="st2" width="3.5" height="3.5"/>
		<rect x="139.2" y="82.4" class="st2" width="3.5" height="3.5"/>
		<rect x="139.2" y="78.9" class="st2" width="3.5" height="3.5"/>
		<rect x="139.2" y="64.9" class="st2" width="3.5" height="3.5"/>
		<rect x="139.2" y="61.4" class="st2" width="3.5" height="3.5"/>
		<rect x="142.7" y="89.3" class="st0" width="3.5" height="3.5"/>
		<rect x="142.7" y="85.8" class="st2" width="3.5" height="3.5"/>
		<rect x="142.7" y="82.4" class="st2" width="3.5" height="3.5"/>
		<rect x="142.7" y="78.9" class="st2" width="3.5" height="3.5"/>
		<rect x="142.7" y="64.9" class="st2" width="3.5" height="3.5"/>
		<rect x="142.7" y="61.4" class="st2" width="3.5" height="3.5"/>
		<rect x="146.2" y="89.3" class="st0" width="3.5" height="3.5"/>
		<rect x="146.2" y="85.8" class="st0" width="3.5" height="3.5"/>
		<rect x="146.2" y="82.4" class="st2" width="3.5" height="3.5"/>
		<rect x="146.2" y="78.9" class="st2" width="3.5" height="3.5"/>
		<rect x="146.2" y="64.9" class="st2" width="3.5" height="3.5"/>
		<rect x="146.2" y="61.4" class="st2" width="3.5" height="3.5"/>
		<rect x="149.7" y="89.3" class="st0" width="3.5" height="3.5"/>
		<rect x="149.7" y="85.8" class="st0" width="3.5" height="3.5"/>
		<rect x="149.7" y="82.4" class="st2" width="3.5" height="3.5"/>
		<rect x="149.7" y="78.9" class="st2" width="3.5" height="3.5"/>
		<rect x="149.7" y="64.9" class="st2" width="3.5" height="3.5"/>
		<rect x="149.7" y="61.4" class="st2" width="3.5" height="3.5"/>
		<rect x="153.2" y="89.3" class="st0" width="3.5" height="3.5"/>
		<rect x="153.2" y="85.8" class="st2" width="3.5" height="3.5"/>
		<rect x="153.2" y="82.4" class="st2" width="3.5" height="3.5"/>
		<rect x="153.2" y="78.9" class="st2" width="3.5" height="3.5"/>
		<rect x="153.2" y="64.9" class="st2" width="3.5" height="3.5"/>
		<rect x="153.2" y="61.4" class="st2" width="3.5" height="3.5"/>
		<rect x="156.7" y="89.3" class="st2" width="3.5" height="3.5"/>
		<rect x="156.7" y="85.8" class="st2" width="3.5" height="3.5"/>
		<rect x="156.7" y="82.4" class="st2" width="3.5" height="3.5"/>
		<rect x="156.7" y="78.9" class="st2" width="3.5" height="3.5"/>
		<rect x="156.7" y="64.9" class="st2" width="3.5" height="3.5"/>
		<rect x="156.7" y="61.4" class="st2" width="3.5" height="3.5"/>
		<rect x="160.2" y="89.3" class="st2" width="3.5" height="3.5"/>
		<rect x="160.2" y="85.8" class="st2" width="3.5" height="3.5"/>
		<rect x="160.2" y="82.4" class="st2" width="3.5" height="3.5"/>
		<rect x="160.2" y="78.9" class="st2" width="3.5" height="3.5"/>
		<rect x="160.2" y="64.9" class="st2" width="3.5" height="3.5"/>
		<rect x="160.2" y="61.4" class="st2" width="3.5" height="3.5"/>
		<rect x="163.7" y="89.3" class="st2" width="3.5" height="3.5"/>
		<rect x="163.7" y="85.8" class="st2" width="3.5" height="3.5"/>
		<rect x="163.7" y="82.4" class="st2" width="3.5" height="3.5"/>
		<rect x="163.7" y="78.9" class="st2" width="3.5" height="3.5"/>
		<rect x="163.7" y="64.9" class="st2" width="3.5" height="3.5"/>
		<rect x="163.7" y="61.4" class="st2" width="3.5" height="3.5"/>
		<rect x="167.2" y="89.3" class="st2" width="3.5" height="3.5"/>
		<rect x="167.2" y="85.8" class="st2" width="3.5" height="3.5"/>
		<rect x="167.2" y="82.4" class="st2" width="3.5" height="3.5"/>
		<rect x="167.2" y="78.9" class="st2" width="3.5" height="3.5"/>
		<rect x="167.2" y="64.9" class="st2" width="3.5" height="3.5"/>
		<rect x="167.2" y="61.4" class="st2" width="3.5" height="3.5"/>
		<rect x="170.6" y="89.3" class="st2" width="3.5" height="3.5"/>
		<rect x="170.6" y="85.8" class="st2" width="3.5" height="3.5"/>
		<rect x="170.6" y="82.4" class="st2" width="3.5" height="3.5"/>
		<rect x="170.6" y="78.9" class="st2" width="3.5" height="3.5"/>
		<rect x="170.6" y="64.9" class="st2" width="3.5" height="3.5"/>
		<rect x="170.6" y="61.4" class="st2" width="3.5" height="3.5"/>
		<rect x="174.1" y="89.3" class="st2" width="3.5" height="3.5"/>
		<rect x="174.1" y="85.8" class="st2" width="3.5" height="3.5"/>
		<rect x="174.1" y="82.4" class="st2" width="3.5" height="3.5"/>
		<rect x="174.1" y="78.9" class="st2" width="3.5" height="3.5"/>
		<rect x="174.1" y="64.9" class="st2" width="3.5" height="3.5"/>
		<rect x="174.1" y="61.4" class="st2" width="3.5" height="3.5"/>
		<rect x="177.6" y="89.3" class="st2" width="3.5" height="3.5"/>
		<rect x="177.6" y="85.8" class="st2" width="3.5" height="3.5"/>
		<rect x="177.6" y="82.4" class="st2" width="3.5" height="3.5"/>
		<rect x="177.6" y="78.9" class="st2" width="3.5" height="3.5"/>
		<rect x="177.6" y="64.9" class="st2" width="3.5" height="3.5"/>
		<rect x="177.6" y="61.4" class="st2" width="3.5" height="3.5"/>
		<rect x="181.1" y="89.3" class="st2" width="3.5" height="3.5"/>
		<rect x="181.1" y="85.8" class="st2" width="3.5" height="3.5"/>
		<rect x="181.1" y="82.4" class="st2" width="3.5" height="3.5"/>
		<rect x="181.1" y="78.9" class="st2" width="3.5" height="3.5"/>
		<rect x="181.1" y="64.9" class="st2" width="3.5" height="3.5"/>
		<rect x="181.1" y="61.4" class="st2" width="3.5" height="3.5"/>
		<rect x="184.6" y="89.3" class="st2" width="3.5" height="3.5"/>
		<rect x="184.6" y="85.8" class="st2" width="3.5" height="3.5"/>
		<rect x="184.6" y="82.4" class="st2" width="3.5" height="3.5"/>
		<rect x="184.6" y="78.9" class="st2" width="3.5" height="3.5"/>
		<rect x="184.6" y="64.9" class="st2" width="3.5" height="3.5"/>
		<rect x="184.6" y="61.4" class="st2" width="3.5" height="3.5"/>
		<rect x="188.1" y="89.3" class="st2" width="3.5" height="3.5"/>
		<rect x="188.1" y="85.8" class="st2" width="3.5" height="3.5"/>
		<rect x="188.1" y="82.4" class="st2" width="3.5" height="3.5"/>
		<rect x="188.1" y="78.9" class="st2" width="3.5" height="3.5"/>
		<rect x="188.1" y="64.9" class="st2" width="3.5" height="3.5"/>
		<rect x="188.1" y="61.4" class="st2" width="3.5" height="3.5"/>
		<rect x="191.6" y="89.3" class="st2" width="3.5" height="3.5"/>
		<rect x="191.6" y="85.8" class="st2" width="3.5" height="3.5"/>
		<rect x="191.6" y="82.4" class="st2" width="3.5" height="3.5"/>
		<rect x="191.6" y="78.9" class="st2" width="3.5" height="3.5"/>
		<rect x="191.6" y="64.9" class="st2" width="3.5" height="3.5"/>
		<rect x="191.6" y="61.4" class="st2" width="3.5" height="3.5"/>
		<rect x="195.1" y="89.3" class="st2" width="3.5" height="3.5"/>
		<rect x="195.1" y="85.8" class="st2" width="3.5" height="3.5"/>
		<rect x="195.1" y="82.4" class="st2" width="3.5" height="3.5"/>
		<rect x="195.1" y="78.9" class="st2" width="3.5" height="3.5"/>
		<rect x="195.1" y="64.9" class="st2" width="3.5" height="3.5"/>
		<rect x="195.1" y="61.4" class="st2" width="3.5" height="3.5"/>
		<rect x="198.6" y="89.3" class="st0" width="3.5" height="3.5"/>
		<rect x="198.6" y="85.8" class="st2" width="3.5" height="3.5"/>
		<rect x="198.6" y="82.4" class="st2" width="3.5" height="3.5"/>
		<rect x="198.6" y="78.9" class="st2" width="3.5" height="3.5"/>
		<rect x="198.6" y="64.9" class="st2" width="3.5" height="3.5"/>
		<rect x="198.6" y="61.4" class="st2" width="3.5" height="3.5"/>
		<rect x="202" y="82.4" class="st2" width="3.5" height="3.5"/>
		<rect x="202" y="78.9" class="st2" width="3.5" height="3.5"/>
		<rect x="202" y="64.9" class="st2" width="3.5" height="3.5"/>
		<rect x="202" y="61.4" class="st2" width="3.5" height="3.5"/>
		<rect x="205.5" y="82.4" class="st2" width="3.5" height="3.5"/>
		<rect x="205.5" y="78.9" class="st2" width="3.5" height="3.5"/>
		<rect x="205.5" y="64.9" class="st2" width="3.5" height="3.5"/>
		<rect x="205.5" y="61.4" class="st2" width="3.5" height="3.5"/>
		<rect x="209" y="89.3" class="st0" width="3.5" height="3.5"/>
		<rect x="209" y="85.8" class="st2" width="3.5" height="3.5"/>
		<rect x="209" y="82.4" class="st2" width="3.5" height="3.5"/>
		<rect x="209" y="78.9" class="st2" width="3.5" height="3.5"/>
		<rect x="209" y="64.9" class="st2" width="3.5" height="3.5"/>
		<rect x="209" y="61.4" class="st2" width="3.5" height="3.5"/>
		<rect x="212.5" y="89.3" class="st2" width="3.5" height="3.5"/>
		<rect x="212.5" y="85.8" class="st2" width="3.5" height="3.5"/>
		<rect x="212.5" y="82.4" class="st2" width="3.5" height="3.5"/>
		<rect x="212.5" y="78.9" class="st2" width="3.5" height="3.5"/>
		<rect x="212.5" y="64.9" class="st2" width="3.5" height="3.5"/>
		<rect x="212.5" y="61.4" class="st2" width="3.5" height="3.5"/>
		<rect x="216" y="89.3" class="st2" width="3.5" height="3.5"/>
		<rect x="216" y="85.8" class="st2" width="3.5" height="3.5"/>
		<rect x="216" y="82.4" class="st2" width="3.5" height="3.5"/>
		<rect x="216" y="64.9" class="st2" width="3.5" height="3.5"/>
		<rect x="216" y="61.4" class="st2" width="3.5" height="3.5"/>
		<rect x="219.5" y="89.3" class="st2" width="3.5" height="3.5"/>
		<rect x="219.5" y="85.8" class="st2" width="3.5" height="3.5"/>
		<rect x="219.5" y="82.4" class="st2" width="3.5" height="3.5"/>
		<rect x="219.5" y="64.9" class="st2" width="3.5" height="3.5"/>
		<rect x="219.5" y="61.4" class="st2" width="3.5" height="3.5"/>
		<rect x="223" y="89.3" class="st2" width="3.5" height="3.5"/>
		<rect x="223" y="85.8" class="st2" width="3.5" height="3.5"/>
		<rect x="223" y="82.4" class="st2" width="3.5" height="3.5"/>
		<rect x="223" y="64.9" class="st2" width="3.5" height="3.5"/>
		<rect x="223" y="61.4" class="st2" width="3.5" height="3.5"/>
		<rect x="226.5" y="89.3" class="st2" width="3.5" height="3.5"/>
		<rect x="226.5" y="85.8" class="st2" width="3.5" height="3.5"/>
		<rect x="226.5" y="82.4" class="st2" width="3.5" height="3.5"/>
		<rect x="226.5" y="64.9" class="st2" width="3.5" height="3.5"/>
	</g>
</g>
</svg>
