<?xml version="1.0" encoding="utf-8"?>
<!-- Generator: Adobe Illustrator 16.0.0, SVG Export Plug-In . SVG Version: 6.00 Build 0)  -->
<!DOCTYPE svg PUBLIC "-//W3C//DTD SVG 1.1//EN" "http://www.w3.org/Graphics/SVG/1.1/DTD/svg11.dtd">
<svg version="1.1" id="Layer_1" xmlns="http://www.w3.org/2000/svg" xmlns:xlink="http://www.w3.org/1999/xlink" x="0px" y="0px"
	 width="109px" height="38.542px" viewBox="0 0 109 38.542" enable-background="new 0 0 109 38.542" xml:space="preserve">
<rect x="105.792" y="24.625" fill="#F3AD68" stroke="#F2AD68" stroke-miterlimit="10" width="2.707" height="2.668"/>
<rect x="105.792" y="21.958" fill="#F3AD68" stroke="#F2AD68" stroke-miterlimit="10" width="2.707" height="2.666"/>
<rect x="105.792" y="19.25" fill="#F3AD68" stroke="#F2AD68" stroke-miterlimit="10" width="2.707" height="2.668"/>
<rect x="103.125" y="24.625" fill="#F3AD68" stroke="#F2AD68" stroke-miterlimit="10" width="2.709" height="2.668"/>
<rect x="103.125" y="21.958" fill="#F3AD68" stroke="#F2AD68" stroke-miterlimit="10" width="2.709" height="2.666"/>
<rect x="103.125" y="19.25" fill="#F3AD68" stroke="#F2AD68" stroke-miterlimit="10" width="2.709" height="2.668"/>
<rect x="103.125" y="16.583" fill="#F19849" stroke="#F19849" stroke-miterlimit="10" width="2.709" height="2.666"/>
<rect x="103.125" y="13.875" fill="#F3AD68" stroke="#F2AD68" stroke-miterlimit="10" width="2.709" height="2.667"/>
<rect x="103.125" y="11.208" fill="#F3AD68" stroke="#F2AD68" stroke-miterlimit="10" width="2.709" height="2.667"/>
<rect x="100.417" y="24.625" fill="#F3AD68" stroke="#F2AD68" stroke-miterlimit="10" width="2.707" height="2.668"/>
<rect x="100.417" y="21.958" fill="#F3AD68" stroke="#F2AD68" stroke-miterlimit="10" width="2.707" height="2.666"/>
<rect x="100.417" y="19.25" fill="#F3AD68" stroke="#F2AD68" stroke-miterlimit="10" width="2.707" height="2.668"/>
<rect x="100.417" y="16.583" fill="#F3AD68" stroke="#F2AD68" stroke-miterlimit="10" width="2.707" height="2.666"/>
<rect x="100.417" y="13.875" fill="#F3AD68" stroke="#F2AD68" stroke-miterlimit="10" width="2.707" height="2.667"/>
<rect x="100.417" y="11.208" fill="#F3AD68" stroke="#F2AD68" stroke-miterlimit="10" width="2.707" height="2.667"/>
<rect x="100.417" y="8.542" fill="#F19849" stroke="#F19849" stroke-miterlimit="10" width="2.707" height="2.667"/>
<rect x="97.708" y="24.625" fill="#F3AD68" stroke="#F2AD68" stroke-miterlimit="10" width="2.709" height="2.668"/>
<rect x="97.708" y="21.958" fill="#F3AD68" stroke="#F2AD68" stroke-miterlimit="10" width="2.709" height="2.666"/>
<rect x="97.708" y="19.25" fill="#F3AD68" stroke="#F2AD68" stroke-miterlimit="10" width="2.709" height="2.668"/>
<rect x="97.708" y="16.583" fill="#F3AD68" stroke="#F2AD68" stroke-miterlimit="10" width="2.709" height="2.666"/>
<rect x="97.708" y="13.875" fill="#F19849" stroke="#F19849" stroke-miterlimit="10" width="2.709" height="2.667"/>
<rect x="97.708" y="11.208" fill="#F19849" stroke="#F19849" stroke-miterlimit="10" width="2.709" height="2.667"/>
<rect x="97.708" y="8.542" fill="#F19849" stroke="#F19849" stroke-miterlimit="10" width="2.709" height="2.667"/>
<rect x="95" y="24.625" fill="#F3AD68" stroke="#F2AD68" stroke-miterlimit="10" width="2.709" height="2.668"/>
<rect x="95" y="21.958" fill="#F3AD68" stroke="#F2AD68" stroke-miterlimit="10" width="2.709" height="2.666"/>
<rect x="95" y="19.25" fill="#F3AD68" stroke="#F2AD68" stroke-miterlimit="10" width="2.709" height="2.668"/>
<rect x="95" y="16.583" fill="#F3AD68" stroke="#F2AD68" stroke-miterlimit="10" width="2.709" height="2.666"/>
<rect x="95" y="13.875" fill="#F19849" stroke="#F19849" stroke-miterlimit="10" width="2.709" height="2.667"/>
<rect x="95" y="11.208" fill="#F19849" stroke="#F19849" stroke-miterlimit="10" width="2.709" height="2.667"/>
<rect x="95" y="8.542" fill="#F19849" stroke="#F19849" stroke-miterlimit="10" width="2.709" height="2.667"/>
<rect x="95" y="5.833" fill="#F19849" stroke="#F19849" stroke-miterlimit="10" width="2.709" height="2.667"/>
<rect x="92.292" y="24.625" fill="#F3AD68" stroke="#F2AD68" stroke-miterlimit="10" width="2.707" height="2.668"/>
<rect x="92.292" y="21.958" fill="#F3AD68" stroke="#F2AD68" stroke-miterlimit="10" width="2.707" height="2.666"/>
<rect x="92.292" y="19.25" fill="#F3AD68" stroke="#F2AD68" stroke-miterlimit="10" width="2.707" height="2.668"/>
<rect x="92.292" y="16.583" fill="#F19849" stroke="#F19849" stroke-miterlimit="10" width="2.707" height="2.666"/>
<rect x="92.292" y="13.875" fill="#F19849" stroke="#F19849" stroke-miterlimit="10" width="2.707" height="2.667"/>
<rect x="92.292" y="11.208" fill="#F19849" stroke="#F19849" stroke-miterlimit="10" width="2.707" height="2.667"/>
<rect x="92.292" y="8.542" fill="#F19849" stroke="#F19849" stroke-miterlimit="10" width="2.707" height="2.667"/>
<rect x="92.292" y="5.833" fill="#F19849" stroke="#F19849" stroke-miterlimit="10" width="2.707" height="2.667"/>
<rect x="89.625" y="24.625" fill="#F3AD68" stroke="#F2AD68" stroke-miterlimit="10" width="2.709" height="2.668"/>
<rect x="89.625" y="21.958" fill="#F3AD68" stroke="#F2AD68" stroke-miterlimit="10" width="2.709" height="2.666"/>
<rect x="89.625" y="19.25" fill="#F19849" stroke="#F19849" stroke-miterlimit="10" width="2.709" height="2.668"/>
<rect x="89.625" y="16.583" fill="#F19849" stroke="#F19849" stroke-miterlimit="10" width="2.709" height="2.666"/>
<rect x="89.625" y="13.875" fill="#F19849" stroke="#F19849" stroke-miterlimit="10" width="2.709" height="2.667"/>
<rect x="89.625" y="11.208" fill="#F19849" stroke="#F19849" stroke-miterlimit="10" width="2.709" height="2.667"/>
<rect x="89.625" y="8.542" fill="#F19849" stroke="#F19849" stroke-miterlimit="10" width="2.709" height="2.667"/>
<rect x="89.625" y="5.833" fill="#F19849" stroke="#F19849" stroke-miterlimit="10" width="2.709" height="2.667"/>
<rect x="89.625" y="3.167" fill="#F19849" stroke="#F19849" stroke-miterlimit="10" width="2.709" height="2.667"/>
<rect x="86.917" y="24.625" fill="#F3AD68" stroke="#F2AD68" stroke-miterlimit="10" width="2.707" height="2.668"/>
<rect x="86.917" y="21.958" fill="#F3AD68" stroke="#F2AD68" stroke-miterlimit="10" width="2.707" height="2.666"/>
<rect x="86.917" y="19.25" fill="#F19849" stroke="#F19849" stroke-miterlimit="10" width="2.707" height="2.668"/>
<rect x="86.917" y="16.583" fill="#F19849" stroke="#F19849" stroke-miterlimit="10" width="2.707" height="2.666"/>
<rect x="86.917" y="13.875" fill="#F19849" stroke="#F19849" stroke-miterlimit="10" width="2.707" height="2.667"/>
<rect x="86.917" y="11.208" fill="#F19849" stroke="#F19849" stroke-miterlimit="10" width="2.707" height="2.667"/>
<rect x="86.917" y="8.542" fill="#F19849" stroke="#F19849" stroke-miterlimit="10" width="2.707" height="2.667"/>
<rect x="86.917" y="5.833" fill="#F19849" stroke="#F19849" stroke-miterlimit="10" width="2.707" height="2.667"/>
<rect x="86.917" y="3.167" fill="#F19849" stroke="#F19849" stroke-miterlimit="10" width="2.707" height="2.667"/>
<rect x="84.208" y="35.375" fill="#F3AD68" stroke="#F2AD68" stroke-miterlimit="10" width="2.709" height="2.667"/>
<rect x="84.208" y="32.667" fill="#F3AD68" stroke="#F2AD68" stroke-miterlimit="10" width="2.709" height="2.666"/>
<rect x="84.208" y="30" fill="#F3AD68" stroke="#F2AD68" stroke-miterlimit="10" width="2.709" height="2.668"/>
<rect x="84.208" y="27.292" fill="#F3AD68" stroke="#F2AD68" stroke-miterlimit="10" width="2.709" height="2.666"/>
<rect x="84.208" y="24.625" fill="#F3AD68" stroke="#F2AD68" stroke-miterlimit="10" width="2.709" height="2.668"/>
<rect x="84.208" y="21.958" fill="#F3AD68" stroke="#F2AD68" stroke-miterlimit="10" width="2.709" height="2.666"/>
<rect x="84.208" y="19.25" fill="#F19849" stroke="#F19849" stroke-miterlimit="10" width="2.709" height="2.668"/>
<rect x="84.208" y="16.583" fill="#F19849" stroke="#F19849" stroke-miterlimit="10" width="2.709" height="2.666"/>
<rect x="84.208" y="13.875" fill="#F19849" stroke="#F19849" stroke-miterlimit="10" width="2.709" height="2.667"/>
<rect x="84.208" y="11.208" fill="#F19849" stroke="#F19849" stroke-miterlimit="10" width="2.709" height="2.667"/>
<rect x="84.208" y="8.542" fill="#F19849" stroke="#F19849" stroke-miterlimit="10" width="2.709" height="2.667"/>
<rect x="84.208" y="5.833" fill="#F19849" stroke="#F19849" stroke-miterlimit="10" width="2.709" height="2.667"/>
<rect x="84.208" y="3.167" fill="#F19849" stroke="#F19849" stroke-miterlimit="10" width="2.709" height="2.667"/>
<rect x="81.5" y="35.375" fill="#F3AD68" stroke="#F2AD68" stroke-miterlimit="10" width="2.709" height="2.667"/>
<rect x="81.5" y="32.667" fill="#F3AD68" stroke="#F2AD68" stroke-miterlimit="10" width="2.709" height="2.666"/>
<rect x="81.5" y="30" fill="#F3AD68" stroke="#F2AD68" stroke-miterlimit="10" width="2.709" height="2.668"/>
<rect x="81.5" y="27.292" fill="#F3AD68" stroke="#F2AD68" stroke-miterlimit="10" width="2.709" height="2.666"/>
<rect x="81.5" y="24.625" fill="#F3AD68" stroke="#F2AD68" stroke-miterlimit="10" width="2.709" height="2.668"/>
<rect x="81.5" y="21.958" fill="#F19849" stroke="#F19849" stroke-miterlimit="10" width="2.709" height="2.666"/>
<rect x="81.5" y="19.25" fill="#F19849" stroke="#F19849" stroke-miterlimit="10" width="2.709" height="2.668"/>
<rect x="81.5" y="16.583" fill="#F19849" stroke="#F19849" stroke-miterlimit="10" width="2.709" height="2.666"/>
<rect x="81.5" y="13.875" fill="#F19849" stroke="#F19849" stroke-miterlimit="10" width="2.709" height="2.667"/>
<rect x="81.5" y="11.208" fill="#F19849" stroke="#F19849" stroke-miterlimit="10" width="2.709" height="2.667"/>
<rect x="81.5" y="8.542" fill="#F19849" stroke="#F19849" stroke-miterlimit="10" width="2.709" height="2.667"/>
<rect x="81.5" y="5.833" fill="#F19849" stroke="#F19849" stroke-miterlimit="10" width="2.709" height="2.667"/>
<rect x="81.5" y="3.167" fill="#F19849" stroke="#F19849" stroke-miterlimit="10" width="2.709" height="2.667"/>
<rect x="78.792" y="35.375" fill="#F3AD68" stroke="#F2AD68" stroke-miterlimit="10" width="2.707" height="2.667"/>
<rect x="78.792" y="32.667" fill="#F3AD68" stroke="#F2AD68" stroke-miterlimit="10" width="2.707" height="2.666"/>
<rect x="78.792" y="30" fill="#F3AD68" stroke="#F2AD68" stroke-miterlimit="10" width="2.707" height="2.668"/>
<rect x="78.792" y="27.292" fill="#F3AD68" stroke="#F2AD68" stroke-miterlimit="10" width="2.707" height="2.666"/>
<rect x="78.792" y="24.625" fill="#F3AD68" stroke="#F2AD68" stroke-miterlimit="10" width="2.707" height="2.668"/>
<rect x="78.792" y="21.958" fill="#F19849" stroke="#F19849" stroke-miterlimit="10" width="2.707" height="2.666"/>
<rect x="78.792" y="19.25" fill="#F19849" stroke="#F19849" stroke-miterlimit="10" width="2.707" height="2.668"/>
<rect x="78.792" y="16.583" fill="#F19849" stroke="#F19849" stroke-miterlimit="10" width="2.707" height="2.666"/>
<rect x="78.792" y="13.875" fill="#F19849" stroke="#F19849" stroke-miterlimit="10" width="2.707" height="2.667"/>
<rect x="78.792" y="11.208" fill="#F19849" stroke="#F19849" stroke-miterlimit="10" width="2.707" height="2.667"/>
<rect x="78.792" y="8.542" fill="#F19849" stroke="#F19849" stroke-miterlimit="10" width="2.707" height="2.667"/>
<rect x="78.792" y="5.833" fill="#F19849" stroke="#F19849" stroke-miterlimit="10" width="2.707" height="2.667"/>
<rect x="78.792" y="3.167" fill="#F19849" stroke="#F19849" stroke-miterlimit="10" width="2.707" height="2.667"/>
<rect x="76.083" y="35.375" fill="#F3AD68" stroke="#F2AD68" stroke-miterlimit="10" width="2.709" height="2.667"/>
<rect x="76.083" y="32.667" fill="#F3AD68" stroke="#F2AD68" stroke-miterlimit="10" width="2.709" height="2.666"/>
<rect x="76.083" y="30" fill="#F3AD68" stroke="#F2AD68" stroke-miterlimit="10" width="2.709" height="2.668"/>
<rect x="76.083" y="27.292" fill="#F3AD68" stroke="#F2AD68" stroke-miterlimit="10" width="2.709" height="2.666"/>
<rect x="76.083" y="24.625" fill="#F19849" stroke="#F19849" stroke-miterlimit="10" width="2.709" height="2.668"/>
<rect x="76.083" y="21.958" fill="#F19849" stroke="#F19849" stroke-miterlimit="10" width="2.709" height="2.666"/>
<rect x="76.083" y="19.25" fill="#F19849" stroke="#F19849" stroke-miterlimit="10" width="2.709" height="2.668"/>
<rect x="76.083" y="16.583" fill="#F19849" stroke="#F19849" stroke-miterlimit="10" width="2.709" height="2.666"/>
<rect x="76.083" y="13.875" fill="#F19849" stroke="#F19849" stroke-miterlimit="10" width="2.709" height="2.667"/>
<rect x="76.083" y="11.208" fill="#F19849" stroke="#F19849" stroke-miterlimit="10" width="2.709" height="2.667"/>
<rect x="76.083" y="8.542" fill="#F19849" stroke="#F19849" stroke-miterlimit="10" width="2.709" height="2.667"/>
<rect x="76.083" y="5.833" fill="#F19849" stroke="#F19849" stroke-miterlimit="10" width="2.709" height="2.667"/>
<rect x="76.083" y="3.167" fill="#F19849" stroke="#F19849" stroke-miterlimit="10" width="2.709" height="2.667"/>
<rect x="73.417" y="35.375" fill="#F3AD68" stroke="#F2AD68" stroke-miterlimit="10" width="2.707" height="2.667"/>
<rect x="73.417" y="32.667" fill="#F3AD68" stroke="#F2AD68" stroke-miterlimit="10" width="2.707" height="2.666"/>
<rect x="73.417" y="30" fill="#F3AD68" stroke="#F2AD68" stroke-miterlimit="10" width="2.707" height="2.668"/>
<rect x="73.417" y="27.292" fill="#F3AD68" stroke="#F2AD68" stroke-miterlimit="10" width="2.707" height="2.666"/>
<rect x="73.417" y="24.625" fill="#F19849" stroke="#F19849" stroke-miterlimit="10" width="2.707" height="2.668"/>
<rect x="73.417" y="21.958" fill="#F19849" stroke="#F19849" stroke-miterlimit="10" width="2.707" height="2.666"/>
<rect x="73.417" y="19.25" fill="#F19849" stroke="#F19849" stroke-miterlimit="10" width="2.707" height="2.668"/>
<rect x="73.417" y="16.583" fill="#F19849" stroke="#F19849" stroke-miterlimit="10" width="2.707" height="2.666"/>
<rect x="73.417" y="13.875" fill="#F19849" stroke="#F19849" stroke-miterlimit="10" width="2.707" height="2.667"/>
<rect x="73.417" y="11.208" fill="#F19849" stroke="#F19849" stroke-miterlimit="10" width="2.707" height="2.667"/>
<rect x="73.417" y="8.542" fill="#F3AD68" stroke="#F2AD68" stroke-miterlimit="10" width="2.707" height="2.667"/>
<rect x="73.417" y="5.833" fill="#F19849" stroke="#F19849" stroke-miterlimit="10" width="2.707" height="2.667"/>
<rect x="73.417" y="3.167" fill="#F19849" stroke="#F19849" stroke-miterlimit="10" width="2.707" height="2.667"/>
<rect x="70.708" y="35.375" fill="#F3AD68" stroke="#F2AD68" stroke-miterlimit="10" width="2.709" height="2.667"/>
<rect x="70.708" y="32.667" fill="#F3AD68" stroke="#F2AD68" stroke-miterlimit="10" width="2.709" height="2.666"/>
<rect x="70.708" y="30" fill="#F3AD68" stroke="#F2AD68" stroke-miterlimit="10" width="2.709" height="2.668"/>
<rect x="70.708" y="27.292" fill="#F3AD68" stroke="#F2AD68" stroke-miterlimit="10" width="2.709" height="2.666"/>
<rect x="70.708" y="24.625" fill="#F19849" stroke="#F19849" stroke-miterlimit="10" width="2.709" height="2.668"/>
<rect x="70.708" y="21.958" fill="#F19849" stroke="#F19849" stroke-miterlimit="10" width="2.709" height="2.666"/>
<rect x="70.708" y="19.25" fill="#F19849" stroke="#F19849" stroke-miterlimit="10" width="2.709" height="2.668"/>
<rect x="70.708" y="16.583" fill="#F19849" stroke="#F19849" stroke-miterlimit="10" width="2.709" height="2.666"/>
<rect x="70.708" y="13.875" fill="#F19849" stroke="#F19849" stroke-miterlimit="10" width="2.709" height="2.667"/>
<rect x="70.708" y="11.208" fill="#F19849" stroke="#F19849" stroke-miterlimit="10" width="2.709" height="2.667"/>
<rect x="70.708" y="8.542" fill="#F3AD68" stroke="#F2AD68" stroke-miterlimit="10" width="2.709" height="2.667"/>
<rect x="70.708" y="5.833" fill="#F19849" stroke="#F19849" stroke-miterlimit="10" width="2.709" height="2.667"/>
<rect x="70.708" y="3.167" fill="#F19849" stroke="#F19849" stroke-miterlimit="10" width="2.709" height="2.667"/>
<rect x="70.708" y="0.5" fill="#F19849" stroke="#F19849" stroke-miterlimit="10" width="2.709" height="2.667"/>
<rect x="68" y="35.375" fill="#F3AD68" stroke="#F2AD68" stroke-miterlimit="10" width="2.709" height="2.667"/>
<rect x="68" y="32.667" fill="#F3AD68" stroke="#F2AD68" stroke-miterlimit="10" width="2.709" height="2.666"/>
<rect x="68" y="30" fill="#F3AD68" stroke="#F2AD68" stroke-miterlimit="10" width="2.709" height="2.668"/>
<rect x="68" y="27.292" fill="#F3AD68" stroke="#F2AD68" stroke-miterlimit="10" width="2.709" height="2.666"/>
<rect x="68" y="24.625" fill="#F19849" stroke="#F19849" stroke-miterlimit="10" width="2.709" height="2.668"/>
<rect x="68" y="21.958" fill="#F19849" stroke="#F19849" stroke-miterlimit="10" width="2.709" height="2.666"/>
<rect x="68" y="19.25" fill="#F19849" stroke="#F19849" stroke-miterlimit="10" width="2.709" height="2.668"/>
<rect x="68" y="16.583" fill="#F19849" stroke="#F19849" stroke-miterlimit="10" width="2.709" height="2.666"/>
<rect x="68" y="13.875" fill="#F19849" stroke="#F19849" stroke-miterlimit="10" width="2.709" height="2.667"/>
<rect x="68" y="11.208" fill="#F19849" stroke="#F19849" stroke-miterlimit="10" width="2.709" height="2.667"/>
<rect x="68" y="8.542" fill="#F3AD68" stroke="#F2AD68" stroke-miterlimit="10" width="2.709" height="2.667"/>
<rect x="68" y="5.833" fill="#F19849" stroke="#F19849" stroke-miterlimit="10" width="2.709" height="2.667"/>
<rect x="68" y="3.167" fill="#F19849" stroke="#F19849" stroke-miterlimit="10" width="2.709" height="2.667"/>
<rect x="68" y="0.5" fill="#F19849" stroke="#F19849" stroke-miterlimit="10" width="2.709" height="2.667"/>
<rect x="65.292" y="35.375" fill="#F3AD68" stroke="#F2AD68" stroke-miterlimit="10" width="2.707" height="2.667"/>
<rect x="65.292" y="32.667" fill="#F3AD68" stroke="#F2AD68" stroke-miterlimit="10" width="2.707" height="2.666"/>
<rect x="65.292" y="30" fill="#F3AD68" stroke="#F2AD68" stroke-miterlimit="10" width="2.707" height="2.668"/>
<rect x="65.292" y="27.292" fill="#F3AD68" stroke="#F2AD68" stroke-miterlimit="10" width="2.707" height="2.666"/>
<rect x="65.292" y="24.625" fill="#F19849" stroke="#F19849" stroke-miterlimit="10" width="2.707" height="2.668"/>
<rect x="65.292" y="21.958" fill="#F19849" stroke="#F19849" stroke-miterlimit="10" width="2.707" height="2.666"/>
<rect x="65.292" y="19.25" fill="#F19849" stroke="#F19849" stroke-miterlimit="10" width="2.707" height="2.668"/>
<rect x="65.292" y="16.583" fill="#F19849" stroke="#F19849" stroke-miterlimit="10" width="2.707" height="2.666"/>
<rect x="65.292" y="13.875" fill="#F19849" stroke="#F19849" stroke-miterlimit="10" width="2.707" height="2.667"/>
<rect x="65.292" y="11.208" fill="#F19849" stroke="#F19849" stroke-miterlimit="10" width="2.707" height="2.667"/>
<rect x="65.292" y="8.542" fill="#F3AD68" stroke="#F2AD68" stroke-miterlimit="10" width="2.707" height="2.667"/>
<rect x="65.292" y="5.833" fill="#F19849" stroke="#F19849" stroke-miterlimit="10" width="2.707" height="2.667"/>
<rect x="65.292" y="3.167" fill="#F19849" stroke="#F19849" stroke-miterlimit="10" width="2.707" height="2.667"/>
<rect x="65.292" y="0.5" fill="#F19849" stroke="#F19849" stroke-miterlimit="10" width="2.707" height="2.667"/>
<rect x="62.583" y="35.375" fill="#F3AD68" stroke="#F2AD68" stroke-miterlimit="10" width="2.709" height="2.667"/>
<rect x="62.583" y="32.667" fill="#F3AD68" stroke="#F2AD68" stroke-miterlimit="10" width="2.709" height="2.666"/>
<rect x="62.583" y="30" fill="#F3AD68" stroke="#F2AD68" stroke-miterlimit="10" width="2.709" height="2.668"/>
<rect x="62.583" y="27.292" fill="#F3AD68" stroke="#F2AD68" stroke-miterlimit="10" width="2.709" height="2.666"/>
<rect x="62.583" y="24.625" fill="#F19849" stroke="#F19849" stroke-miterlimit="10" width="2.709" height="2.668"/>
<rect x="62.583" y="21.958" fill="#F19849" stroke="#F19849" stroke-miterlimit="10" width="2.709" height="2.666"/>
<rect x="62.583" y="19.25" fill="#F19849" stroke="#F19849" stroke-miterlimit="10" width="2.709" height="2.668"/>
<rect x="62.583" y="16.583" fill="#F19849" stroke="#F19849" stroke-miterlimit="10" width="2.709" height="2.666"/>
<rect x="62.583" y="13.875" fill="#F19849" stroke="#F19849" stroke-miterlimit="10" width="2.709" height="2.667"/>
<rect x="62.583" y="11.208" fill="#F19849" stroke="#F19849" stroke-miterlimit="10" width="2.709" height="2.667"/>
<rect x="62.583" y="8.542" fill="#F19849" stroke="#F19849" stroke-miterlimit="10" width="2.709" height="2.667"/>
<rect x="62.583" y="5.833" fill="#F19849" stroke="#F19849" stroke-miterlimit="10" width="2.709" height="2.667"/>
<rect x="62.583" y="3.167" fill="#F19849" stroke="#F19849" stroke-miterlimit="10" width="2.709" height="2.667"/>
<rect x="62.583" y="0.5" fill="#F19849" stroke="#F19849" stroke-miterlimit="10" width="2.709" height="2.667"/>
<rect x="59.917" y="35.375" fill="#F3AD68" stroke="#F2AD68" stroke-miterlimit="10" width="2.707" height="2.667"/>
<rect x="59.917" y="32.667" fill="#F3AD68" stroke="#F2AD68" stroke-miterlimit="10" width="2.707" height="2.666"/>
<rect x="59.917" y="30" fill="#F3AD68" stroke="#F2AD68" stroke-miterlimit="10" width="2.707" height="2.668"/>
<rect x="59.917" y="27.292" fill="#F3AD68" stroke="#F2AD68" stroke-miterlimit="10" width="2.707" height="2.666"/>
<rect x="59.917" y="24.625" fill="#F19849" stroke="#F19849" stroke-miterlimit="10" width="2.707" height="2.668"/>
<rect x="59.917" y="21.958" fill="#F19849" stroke="#F19849" stroke-miterlimit="10" width="2.707" height="2.666"/>
<rect x="59.917" y="19.25" fill="#F19849" stroke="#F19849" stroke-miterlimit="10" width="2.707" height="2.668"/>
<rect x="59.917" y="16.583" fill="#F19849" stroke="#F19849" stroke-miterlimit="10" width="2.707" height="2.666"/>
<rect x="59.917" y="13.875" fill="#F19849" stroke="#F19849" stroke-miterlimit="10" width="2.707" height="2.667"/>
<rect x="59.917" y="11.208" fill="#F19849" stroke="#F19849" stroke-miterlimit="10" width="2.707" height="2.667"/>
<rect x="59.917" y="8.542" fill="#F19849" stroke="#F19849" stroke-miterlimit="10" width="2.707" height="2.667"/>
<rect x="59.917" y="5.833" fill="#F19849" stroke="#F19849" stroke-miterlimit="10" width="2.707" height="2.667"/>
<rect x="59.917" y="3.167" fill="#F19849" stroke="#F19849" stroke-miterlimit="10" width="2.707" height="2.667"/>
<rect x="57.208" y="32.667" fill="#F3AD68" stroke="#F2AD68" stroke-miterlimit="10" width="2.709" height="2.666"/>
<rect x="57.208" y="30" fill="#F3AD68" stroke="#F2AD68" stroke-miterlimit="10" width="2.709" height="2.668"/>
<rect x="57.208" y="27.292" fill="#F3AD68" stroke="#F2AD68" stroke-miterlimit="10" width="2.709" height="2.666"/>
<rect x="57.208" y="24.625" fill="#F3AD68" stroke="#F2AD68" stroke-miterlimit="10" width="2.709" height="2.668"/>
<rect x="57.208" y="21.958" fill="#F19849" stroke="#F19849" stroke-miterlimit="10" width="2.709" height="2.666"/>
<rect x="57.208" y="19.25" fill="#F19849" stroke="#F19849" stroke-miterlimit="10" width="2.709" height="2.668"/>
<rect x="57.208" y="16.583" fill="#F19849" stroke="#F19849" stroke-miterlimit="10" width="2.709" height="2.666"/>
<rect x="57.208" y="13.875" fill="#F19849" stroke="#F19849" stroke-miterlimit="10" width="2.709" height="2.667"/>
<rect x="57.208" y="11.208" fill="#F19849" stroke="#F19849" stroke-miterlimit="10" width="2.709" height="2.667"/>
<rect x="57.208" y="8.542" fill="#F19849" stroke="#F19849" stroke-miterlimit="10" width="2.709" height="2.667"/>
<rect x="57.208" y="5.833" fill="#F19849" stroke="#F19849" stroke-miterlimit="10" width="2.709" height="2.667"/>
<rect x="57.208" y="3.167" fill="#F19849" stroke="#F19849" stroke-miterlimit="10" width="2.709" height="2.667"/>
<rect x="54.5" y="32.667" fill="#F3AD68" stroke="#F2AD68" stroke-miterlimit="10" width="2.708" height="2.666"/>
<rect x="54.5" y="30" fill="#F3AD68" stroke="#F2AD68" stroke-miterlimit="10" width="2.708" height="2.668"/>
<rect x="54.5" y="27.292" fill="#F3AD68" stroke="#F2AD68" stroke-miterlimit="10" width="2.708" height="2.666"/>
<rect x="54.5" y="24.625" fill="#F3AD68" stroke="#F2AD68" stroke-miterlimit="10" width="2.708" height="2.668"/>
<rect x="54.5" y="21.958" fill="#F19849" stroke="#F19849" stroke-miterlimit="10" width="2.708" height="2.666"/>
<rect x="54.5" y="19.25" fill="#F19849" stroke="#F19849" stroke-miterlimit="10" width="2.708" height="2.668"/>
<rect x="54.5" y="16.583" fill="#F19849" stroke="#F19849" stroke-miterlimit="10" width="2.708" height="2.666"/>
<rect x="54.5" y="13.875" fill="#F19849" stroke="#F19849" stroke-miterlimit="10" width="2.708" height="2.667"/>
<rect x="54.5" y="11.208" fill="#F19849" stroke="#F19849" stroke-miterlimit="10" width="2.708" height="2.667"/>
<rect x="54.5" y="8.542" fill="#F19849" stroke="#F19849" stroke-miterlimit="10" width="2.708" height="2.667"/>
<rect x="54.5" y="5.833" fill="#F19849" stroke="#F19849" stroke-miterlimit="10" width="2.708" height="2.667"/>
<rect x="54.5" y="3.167" fill="#F19849" stroke="#F19849" stroke-miterlimit="10" width="2.708" height="2.667"/>
<rect x="51.792" y="32.667" fill="#F3AD68" stroke="#F2AD68" stroke-miterlimit="10" width="2.708" height="2.666"/>
<rect x="51.792" y="30" fill="#F3AD68" stroke="#F2AD68" stroke-miterlimit="10" width="2.708" height="2.668"/>
<rect x="51.792" y="27.292" fill="#F3AD68" stroke="#F2AD68" stroke-miterlimit="10" width="2.708" height="2.666"/>
<rect x="51.792" y="24.625" fill="#F3AD68" stroke="#F2AD68" stroke-miterlimit="10" width="2.708" height="2.668"/>
<rect x="51.792" y="21.958" fill="#F19849" stroke="#F19849" stroke-miterlimit="10" width="2.708" height="2.666"/>
<rect x="51.792" y="19.25" fill="#F19849" stroke="#F19849" stroke-miterlimit="10" width="2.708" height="2.668"/>
<rect x="51.792" y="16.583" fill="#F19849" stroke="#F19849" stroke-miterlimit="10" width="2.708" height="2.666"/>
<rect x="51.792" y="13.875" fill="#F19849" stroke="#F19849" stroke-miterlimit="10" width="2.708" height="2.667"/>
<rect x="51.792" y="11.208" fill="#F19849" stroke="#F19849" stroke-miterlimit="10" width="2.708" height="2.667"/>
<rect x="51.792" y="8.542" fill="#F19849" stroke="#F19849" stroke-miterlimit="10" width="2.708" height="2.667"/>
<rect x="51.792" y="5.833" fill="#F19849" stroke="#F19849" stroke-miterlimit="10" width="2.708" height="2.667"/>
<rect x="51.792" y="3.167" fill="#F19849" stroke="#F19849" stroke-miterlimit="10" width="2.708" height="2.667"/>
<rect x="49.083" y="32.667" fill="#F19849" stroke="#F19849" stroke-miterlimit="10" width="2.708" height="2.666"/>
<rect x="49.083" y="30" fill="#F3AD68" stroke="#F2AD68" stroke-miterlimit="10" width="2.708" height="2.668"/>
<rect x="49.083" y="27.292" fill="#F3AD68" stroke="#F2AD68" stroke-miterlimit="10" width="2.708" height="2.666"/>
<rect x="49.083" y="24.625" fill="#F19849" stroke="#F19849" stroke-miterlimit="10" width="2.708" height="2.668"/>
<rect x="49.083" y="21.958" fill="#F19849" stroke="#F19849" stroke-miterlimit="10" width="2.708" height="2.666"/>
<rect x="49.083" y="19.25" fill="#F19849" stroke="#F19849" stroke-miterlimit="10" width="2.708" height="2.668"/>
<rect x="49.083" y="16.583" fill="#F19849" stroke="#F19849" stroke-miterlimit="10" width="2.708" height="2.666"/>
<rect x="49.083" y="13.875" fill="#F19849" stroke="#F19849" stroke-miterlimit="10" width="2.708" height="2.667"/>
<rect x="49.083" y="11.208" fill="#F19849" stroke="#F19849" stroke-miterlimit="10" width="2.708" height="2.667"/>
<rect x="49.083" y="8.542" fill="#F19849" stroke="#F19849" stroke-miterlimit="10" width="2.708" height="2.667"/>
<rect x="49.083" y="5.833" fill="#F19849" stroke="#F19849" stroke-miterlimit="10" width="2.708" height="2.667"/>
<rect x="49.083" y="3.167" fill="#F19849" stroke="#F19849" stroke-miterlimit="10" width="2.708" height="2.667"/>
<rect x="46.417" y="32.667" fill="#F19849" stroke="#F19849" stroke-miterlimit="10" width="2.708" height="2.666"/>
<rect x="46.417" y="30" fill="#F19849" stroke="#F19849" stroke-miterlimit="10" width="2.708" height="2.668"/>
<rect x="46.417" y="27.292" fill="#F19849" stroke="#F19849" stroke-miterlimit="10" width="2.708" height="2.666"/>
<rect x="46.417" y="24.625" fill="#F19849" stroke="#F19849" stroke-miterlimit="10" width="2.708" height="2.668"/>
<rect x="46.417" y="21.958" fill="#F19849" stroke="#F19849" stroke-miterlimit="10" width="2.708" height="2.666"/>
<rect x="46.417" y="19.25" fill="#F19849" stroke="#F19849" stroke-miterlimit="10" width="2.708" height="2.668"/>
<rect x="46.417" y="16.583" fill="#F19849" stroke="#F19849" stroke-miterlimit="10" width="2.708" height="2.666"/>
<rect x="46.417" y="13.875" fill="#F19849" stroke="#F19849" stroke-miterlimit="10" width="2.708" height="2.667"/>
<rect x="46.417" y="11.208" fill="#F19849" stroke="#F19849" stroke-miterlimit="10" width="2.708" height="2.667"/>
<rect x="46.417" y="8.542" fill="#F19849" stroke="#F19849" stroke-miterlimit="10" width="2.708" height="2.667"/>
<rect x="46.417" y="5.833" fill="#F19849" stroke="#F19849" stroke-miterlimit="10" width="2.708" height="2.667"/>
<rect x="43.708" y="32.667" fill="#F19849" stroke="#F19849" stroke-miterlimit="10" width="2.708" height="2.666"/>
<rect x="43.708" y="30" fill="#F19849" stroke="#F19849" stroke-miterlimit="10" width="2.708" height="2.668"/>
<rect x="43.708" y="27.292" fill="#F19849" stroke="#F19849" stroke-miterlimit="10" width="2.708" height="2.666"/>
<rect x="43.708" y="24.625" fill="#F19849" stroke="#F19849" stroke-miterlimit="10" width="2.708" height="2.668"/>
<rect x="43.708" y="21.958" fill="#F19849" stroke="#F19849" stroke-miterlimit="10" width="2.708" height="2.666"/>
<rect x="43.708" y="19.25" fill="#F19849" stroke="#F19849" stroke-miterlimit="10" width="2.708" height="2.668"/>
<rect x="43.708" y="16.583" fill="#F19849" stroke="#F19849" stroke-miterlimit="10" width="2.708" height="2.666"/>
<rect x="43.708" y="13.875" fill="#F19849" stroke="#F19849" stroke-miterlimit="10" width="2.708" height="2.667"/>
<rect x="43.708" y="11.208" fill="#F19849" stroke="#F19849" stroke-miterlimit="10" width="2.708" height="2.667"/>
<rect x="43.708" y="8.542" fill="#F19849" stroke="#F19849" stroke-miterlimit="10" width="2.708" height="2.667"/>
<rect x="43.708" y="5.833" fill="#F19849" stroke="#F19849" stroke-miterlimit="10" width="2.708" height="2.667"/>
<rect x="41" y="32.667" fill="#F19849" stroke="#F19849" stroke-miterlimit="10" width="2.708" height="2.666"/>
<rect x="41" y="30" fill="#F19849" stroke="#F19849" stroke-miterlimit="10" width="2.708" height="2.668"/>
<rect x="41" y="27.292" fill="#F19849" stroke="#F19849" stroke-miterlimit="10" width="2.708" height="2.666"/>
<rect x="41" y="24.625" fill="#F19849" stroke="#F19849" stroke-miterlimit="10" width="2.708" height="2.668"/>
<rect x="41" y="21.958" fill="#F19849" stroke="#F19849" stroke-miterlimit="10" width="2.708" height="2.666"/>
<rect x="41" y="19.25" fill="#F19849" stroke="#F19849" stroke-miterlimit="10" width="2.708" height="2.668"/>
<rect x="41" y="16.583" fill="#F19849" stroke="#F19849" stroke-miterlimit="10" width="2.708" height="2.666"/>
<rect x="41" y="13.875" fill="#F19849" stroke="#F19849" stroke-miterlimit="10" width="2.708" height="2.667"/>
<rect x="41" y="11.208" fill="#F19849" stroke="#F19849" stroke-miterlimit="10" width="2.708" height="2.667"/>
<rect x="41" y="8.542" fill="#F19849" stroke="#F19849" stroke-miterlimit="10" width="2.708" height="2.667"/>
<rect x="38.292" y="32.667" fill="#F19849" stroke="#F19849" stroke-miterlimit="10" width="2.708" height="2.666"/>
<rect x="38.292" y="30" fill="#F19849" stroke="#F19849" stroke-miterlimit="10" width="2.708" height="2.668"/>
<rect x="38.292" y="27.292" fill="#F19849" stroke="#F19849" stroke-miterlimit="10" width="2.708" height="2.666"/>
<rect x="38.292" y="24.625" fill="#F19849" stroke="#F19849" stroke-miterlimit="10" width="2.708" height="2.668"/>
<rect x="38.292" y="21.958" fill="#F19849" stroke="#F19849" stroke-miterlimit="10" width="2.708" height="2.666"/>
<rect x="38.292" y="19.25" fill="#F19849" stroke="#F19849" stroke-miterlimit="10" width="2.708" height="2.668"/>
<rect x="38.292" y="16.583" fill="#F19849" stroke="#F19849" stroke-miterlimit="10" width="2.708" height="2.666"/>
<rect x="38.292" y="13.875" fill="#F3AD68" stroke="#F2AD68" stroke-miterlimit="10" width="2.708" height="2.667"/>
<rect x="38.292" y="11.208" fill="#F19849" stroke="#F19849" stroke-miterlimit="10" width="2.708" height="2.667"/>
<rect x="38.292" y="8.542" fill="#F19849" stroke="#F19849" stroke-miterlimit="10" width="2.708" height="2.667"/>
<rect x="35.583" y="32.667" fill="#F19849" stroke="#F19849" stroke-miterlimit="10" width="2.708" height="2.666"/>
<rect x="35.583" y="30" fill="#F19849" stroke="#F19849" stroke-miterlimit="10" width="2.708" height="2.668"/>
<rect x="35.583" y="27.292" fill="#F19849" stroke="#F19849" stroke-miterlimit="10" width="2.708" height="2.666"/>
<rect x="35.583" y="24.625" fill="#F19849" stroke="#F19849" stroke-miterlimit="10" width="2.708" height="2.668"/>
<rect x="35.583" y="21.958" fill="#F19849" stroke="#F19849" stroke-miterlimit="10" width="2.708" height="2.666"/>
<rect x="35.583" y="19.25" fill="#F19849" stroke="#F19849" stroke-miterlimit="10" width="2.708" height="2.668"/>
<rect x="35.583" y="16.583" fill="#F19849" stroke="#F19849" stroke-miterlimit="10" width="2.708" height="2.666"/>
<rect x="35.583" y="13.875" fill="#F3AD68" stroke="#F2AD68" stroke-miterlimit="10" width="2.708" height="2.667"/>
<rect x="35.583" y="11.208" fill="#F19849" stroke="#F19849" stroke-miterlimit="10" width="2.708" height="2.667"/>
<rect x="35.583" y="8.542" fill="#F19849" stroke="#F19849" stroke-miterlimit="10" width="2.708" height="2.667"/>
<rect x="32.875" y="32.667" fill="#F19849" stroke="#F19849" stroke-miterlimit="10" width="2.708" height="2.666"/>
<rect x="32.875" y="30" fill="#F19849" stroke="#F19849" stroke-miterlimit="10" width="2.708" height="2.668"/>
<rect x="32.875" y="27.292" fill="#F19849" stroke="#F19849" stroke-miterlimit="10" width="2.708" height="2.666"/>
<rect x="32.875" y="24.625" fill="#F19849" stroke="#F19849" stroke-miterlimit="10" width="2.708" height="2.668"/>
<rect x="32.875" y="21.958" fill="#F19849" stroke="#F19849" stroke-miterlimit="10" width="2.708" height="2.666"/>
<rect x="32.875" y="19.25" fill="#F19849" stroke="#F19849" stroke-miterlimit="10" width="2.708" height="2.668"/>
<rect x="32.875" y="16.583" fill="#F19849" stroke="#F19849" stroke-miterlimit="10" width="2.708" height="2.666"/>
<rect x="32.875" y="13.875" fill="#F3AD68" stroke="#F2AD68" stroke-miterlimit="10" width="2.708" height="2.667"/>
<rect x="32.875" y="11.208" fill="#F19849" stroke="#F19849" stroke-miterlimit="10" width="2.708" height="2.667"/>
<rect x="32.875" y="8.542" fill="#F19849" stroke="#F19849" stroke-miterlimit="10" width="2.708" height="2.667"/>
<rect x="30.208" y="32.667" fill="#F19849" stroke="#F19849" stroke-miterlimit="10" width="2.708" height="2.666"/>
<rect x="30.208" y="30" fill="#F19849" stroke="#F19849" stroke-miterlimit="10" width="2.708" height="2.668"/>
<rect x="30.208" y="27.292" fill="#F19849" stroke="#F19849" stroke-miterlimit="10" width="2.708" height="2.666"/>
<rect x="30.208" y="24.625" fill="#F19849" stroke="#F19849" stroke-miterlimit="10" width="2.708" height="2.668"/>
<rect x="30.208" y="21.958" fill="#F19849" stroke="#F19849" stroke-miterlimit="10" width="2.708" height="2.666"/>
<rect x="30.208" y="19.25" fill="#F19849" stroke="#F19849" stroke-miterlimit="10" width="2.708" height="2.668"/>
<rect x="30.208" y="16.583" fill="#F19849" stroke="#F19849" stroke-miterlimit="10" width="2.708" height="2.666"/>
<rect x="30.208" y="13.875" fill="#F3AD68" stroke="#F2AD68" stroke-miterlimit="10" width="2.708" height="2.667"/>
<rect x="30.208" y="11.208" fill="#F19849" stroke="#F19849" stroke-miterlimit="10" width="2.708" height="2.667"/>
<rect x="30.208" y="8.542" fill="#F19849" stroke="#F19849" stroke-miterlimit="10" width="2.708" height="2.667"/>
<rect x="27.5" y="30" fill="#F19849" stroke="#F19849" stroke-miterlimit="10" width="2.708" height="2.668"/>
<rect x="27.5" y="27.292" fill="#F19849" stroke="#F19849" stroke-miterlimit="10" width="2.708" height="2.666"/>
<rect x="27.5" y="24.625" fill="#F19849" stroke="#F19849" stroke-miterlimit="10" width="2.708" height="2.668"/>
<rect x="27.5" y="21.958" fill="#F19849" stroke="#F19849" stroke-miterlimit="10" width="2.708" height="2.666"/>
<rect x="27.5" y="19.25" fill="#F19849" stroke="#F19849" stroke-miterlimit="10" width="2.708" height="2.668"/>
<rect x="27.5" y="16.583" fill="#F19849" stroke="#F19849" stroke-miterlimit="10" width="2.708" height="2.666"/>
<rect x="27.5" y="13.875" fill="#F3AD68" stroke="#F2AD68" stroke-miterlimit="10" width="2.708" height="2.667"/>
<rect x="27.5" y="11.208" fill="#F19849" stroke="#F19849" stroke-miterlimit="10" width="2.708" height="2.667"/>
<rect x="27.5" y="8.542" fill="#F19849" stroke="#F19849" stroke-miterlimit="10" width="2.708" height="2.667"/>
<rect x="24.792" y="30" fill="#F19849" stroke="#F19849" stroke-miterlimit="10" width="2.708" height="2.668"/>
<rect x="24.792" y="27.292" fill="#F19849" stroke="#F19849" stroke-miterlimit="10" width="2.708" height="2.666"/>
<rect x="24.792" y="24.625" fill="#F19849" stroke="#F19849" stroke-miterlimit="10" width="2.708" height="2.668"/>
<rect x="24.792" y="21.958" fill="#F19849" stroke="#F19849" stroke-miterlimit="10" width="2.708" height="2.666"/>
<rect x="24.792" y="19.25" fill="#F19849" stroke="#F19849" stroke-miterlimit="10" width="2.708" height="2.668"/>
<rect x="24.792" y="16.583" fill="#F19849" stroke="#F19849" stroke-miterlimit="10" width="2.708" height="2.666"/>
<rect x="24.792" y="13.875" fill="#F3AD68" stroke="#F2AD68" stroke-miterlimit="10" width="2.708" height="2.667"/>
<rect x="24.792" y="11.208" fill="#F19849" stroke="#F19849" stroke-miterlimit="10" width="2.708" height="2.667"/>
<rect x="24.792" y="8.542" fill="#F19849" stroke="#F19849" stroke-miterlimit="10" width="2.708" height="2.667"/>
<rect x="22.083" y="27.292" fill="#F19849" stroke="#F19849" stroke-miterlimit="10" width="2.708" height="2.666"/>
<rect x="22.083" y="24.625" fill="#F19849" stroke="#F19849" stroke-miterlimit="10" width="2.708" height="2.668"/>
<rect x="22.083" y="21.958" fill="#F19849" stroke="#F19849" stroke-miterlimit="10" width="2.708" height="2.666"/>
<rect x="22.083" y="19.25" fill="#F19849" stroke="#F19849" stroke-miterlimit="10" width="2.708" height="2.668"/>
<rect x="22.083" y="16.583" fill="#F19849" stroke="#F19849" stroke-miterlimit="10" width="2.708" height="2.666"/>
<rect x="22.083" y="13.875" fill="#F3AD68" stroke="#F2AD68" stroke-miterlimit="10" width="2.708" height="2.667"/>
<rect x="22.083" y="11.208" fill="#F19849" stroke="#F19849" stroke-miterlimit="10" width="2.708" height="2.667"/>
<rect x="22.083" y="8.542" fill="#F19849" stroke="#F19849" stroke-miterlimit="10" width="2.708" height="2.667"/>
<rect x="22.083" y="5.833" fill="#F19849" stroke="#F19849" stroke-miterlimit="10" width="2.708" height="2.667"/>
<rect x="19.375" y="24.625" fill="#F19849" stroke="#F19849" stroke-miterlimit="10" width="2.708" height="2.668"/>
<rect x="19.375" y="21.958" fill="#F19849" stroke="#F19849" stroke-miterlimit="10" width="2.708" height="2.666"/>
<rect x="19.375" y="19.25" fill="#F19849" stroke="#F19849" stroke-miterlimit="10" width="2.708" height="2.668"/>
<rect x="19.375" y="16.583" fill="#F19849" stroke="#F19849" stroke-miterlimit="10" width="2.708" height="2.666"/>
<rect x="19.375" y="13.875" fill="#F3AD68" stroke="#F2AD68" stroke-miterlimit="10" width="2.708" height="2.667"/>
<rect x="19.375" y="11.208" fill="#F3AD68" stroke="#F2AD68" stroke-miterlimit="10" width="2.708" height="2.667"/>
<rect x="19.375" y="8.542" fill="#F19849" stroke="#F19849" stroke-miterlimit="10" width="2.708" height="2.667"/>
<rect x="19.375" y="5.833" fill="#F19849" stroke="#F19849" stroke-miterlimit="10" width="2.708" height="2.667"/>
<rect x="19.375" y="3.167" fill="#F19849" stroke="#F19849" stroke-miterlimit="10" width="2.708" height="2.667"/>
<rect x="16.708" y="21.958" fill="#F19849" stroke="#F19849" stroke-miterlimit="10" width="2.708" height="2.666"/>
<rect x="16.708" y="19.25" fill="#F19849" stroke="#F19849" stroke-miterlimit="10" width="2.708" height="2.668"/>
<rect x="16.708" y="16.583" fill="#F19849" stroke="#F19849" stroke-miterlimit="10" width="2.708" height="2.666"/>
<rect x="16.708" y="13.875" fill="#F19849" stroke="#F19849" stroke-miterlimit="10" width="2.708" height="2.667"/>
<rect x="16.708" y="11.208" fill="#F3AD68" stroke="#F2AD68" stroke-miterlimit="10" width="2.708" height="2.667"/>
<rect x="16.708" y="8.542" fill="#F19849" stroke="#F19849" stroke-miterlimit="10" width="2.708" height="2.667"/>
<rect x="16.708" y="5.833" fill="#F19849" stroke="#F19849" stroke-miterlimit="10" width="2.708" height="2.667"/>
<rect x="16.708" y="3.167" fill="#F19849" stroke="#F19849" stroke-miterlimit="10" width="2.708" height="2.667"/>
<rect x="14" y="19.25" fill="#F19849" stroke="#F19849" stroke-miterlimit="10" width="2.708" height="2.668"/>
<rect x="14" y="16.583" fill="#F19849" stroke="#F19849" stroke-miterlimit="10" width="2.708" height="2.666"/>
<rect x="14" y="13.875" fill="#F19849" stroke="#F19849" stroke-miterlimit="10" width="2.708" height="2.667"/>
<rect x="14" y="11.208" fill="#F3AD68" stroke="#F2AD68" stroke-miterlimit="10" width="2.708" height="2.667"/>
<rect x="14" y="8.542" fill="#F3AD68" stroke="#F2AD68" stroke-miterlimit="10" width="2.708" height="2.667"/>
<rect x="14" y="5.833" fill="#F19849" stroke="#F19849" stroke-miterlimit="10" width="2.708" height="2.667"/>
<rect x="14" y="3.167" fill="#F19849" stroke="#F19849" stroke-miterlimit="10" width="2.708" height="2.667"/>
<rect x="14" y="0.5" fill="#F19849" stroke="#F19849" stroke-miterlimit="10" width="2.708" height="2.667"/>
<rect x="11.292" y="16.583" fill="#F19849" stroke="#F19849" stroke-miterlimit="10" width="2.708" height="2.666"/>
<rect x="11.292" y="13.875" fill="#F19849" stroke="#F19849" stroke-miterlimit="10" width="2.708" height="2.667"/>
<rect x="11.292" y="11.208" fill="#F19849" stroke="#F19849" stroke-miterlimit="10" width="2.708" height="2.667"/>
<rect x="11.292" y="8.542" fill="#F19849" stroke="#F19849" stroke-miterlimit="10" width="2.708" height="2.667"/>
<rect x="11.292" y="5.833" fill="#F19849" stroke="#F19849" stroke-miterlimit="10" width="2.708" height="2.667"/>
<rect x="11.292" y="3.167" fill="#F19849" stroke="#F19849" stroke-miterlimit="10" width="2.708" height="2.667"/>
<rect x="11.292" y="0.5" fill="#F19849" stroke="#F19849" stroke-miterlimit="10" width="2.708" height="2.667"/>
<rect x="8.583" y="16.583" fill="#F19849" stroke="#F19849" stroke-miterlimit="10" width="2.708" height="2.666"/>
<rect x="8.583" y="13.875" fill="#F19849" stroke="#F19849" stroke-miterlimit="10" width="2.708" height="2.667"/>
<rect x="8.583" y="11.208" fill="#F19849" stroke="#F19849" stroke-miterlimit="10" width="2.708" height="2.667"/>
<rect x="8.583" y="8.542" fill="#F19849" stroke="#F19849" stroke-miterlimit="10" width="2.708" height="2.667"/>
<rect x="8.583" y="5.833" fill="#F19849" stroke="#F19849" stroke-miterlimit="10" width="2.708" height="2.667"/>
<rect x="8.583" y="3.167" fill="#F19849" stroke="#F19849" stroke-miterlimit="10" width="2.708" height="2.667"/>
<rect x="5.875" y="13.875" fill="#F19849" stroke="#F19849" stroke-miterlimit="10" width="2.708" height="2.667"/>
<rect x="5.875" y="11.208" fill="#F19849" stroke="#F19849" stroke-miterlimit="10" width="2.708" height="2.667"/>
<rect x="5.875" y="8.542" fill="#F19849" stroke="#F19849" stroke-miterlimit="10" width="2.708" height="2.667"/>
<rect x="5.875" y="5.833" fill="#F19849" stroke="#F19849" stroke-miterlimit="10" width="2.708" height="2.667"/>
<rect x="5.875" y="3.167" fill="#F19849" stroke="#F19849" stroke-miterlimit="10" width="2.708" height="2.667"/>
<rect x="3.167" y="13.875" fill="#F19849" stroke="#F19849" stroke-miterlimit="10" width="2.708" height="2.667"/>
<rect x="3.167" y="11.208" fill="#F19849" stroke="#F19849" stroke-miterlimit="10" width="2.708" height="2.667"/>
<rect x="3.167" y="8.542" fill="#F19849" stroke="#F19849" stroke-miterlimit="10" width="2.708" height="2.667"/>
<rect x="3.167" y="5.833" fill="#F19849" stroke="#F19849" stroke-miterlimit="10" width="2.708" height="2.667"/>
<rect x="3.167" y="3.167" fill="#F19849" stroke="#F19849" stroke-miterlimit="10" width="2.708" height="2.667"/>
<rect x="0.5" y="11.208" fill="#F19849" stroke="#F19849" stroke-miterlimit="10" width="2.708" height="2.667"/>
<rect x="0.5" y="8.542" fill="#F19849" stroke="#F19849" stroke-miterlimit="10" width="2.708" height="2.667"/>
<rect x="0.5" y="5.833" fill="#F19849" stroke="#F19849" stroke-miterlimit="10" width="2.708" height="2.667"/>
</svg>
