<?xml version="1.0" encoding="utf-8"?>
<!-- Generator: Adobe Illustrator 16.0.0, SVG Export Plug-In . SVG Version: 6.00 Build 0)  -->
<!DOCTYPE svg PUBLIC "-//W3C//DTD SVG 1.1//EN" "http://www.w3.org/Graphics/SVG/1.1/DTD/svg11.dtd">
<svg version="1.1" id="Layer_1" xmlns="http://www.w3.org/2000/svg" xmlns:xlink="http://www.w3.org/1999/xlink" x="0px" y="0px"
	 width="144.167px" height="33.167px" viewBox="0 0 144.167 33.167" enable-background="new 0 0 144.167 33.167"
	 xml:space="preserve">
<rect x="140.959" y="24.666" fill="#F3AD68" stroke="#F2AD68" stroke-miterlimit="10" width="2.708" height="2.667"/>
<rect x="140.959" y="21.959" fill="#F3AD68" stroke="#F2AD68" stroke-miterlimit="10" width="2.708" height="2.666"/>
<rect x="138.25" y="24.666" fill="#F3AD68" stroke="#F2AD68" stroke-miterlimit="10" width="2.709" height="2.667"/>
<rect x="138.25" y="21.959" fill="#F3AD68" stroke="#F2AD68" stroke-miterlimit="10" width="2.709" height="2.666"/>
<rect x="135.542" y="27.333" fill="#F3AD68" stroke="#F2AD68" stroke-miterlimit="10" width="2.708" height="2.667"/>
<rect x="135.542" y="24.666" fill="#F3AD68" stroke="#F2AD68" stroke-miterlimit="10" width="2.708" height="2.667"/>
<rect x="135.542" y="21.959" fill="#F19849" stroke="#F19849" stroke-miterlimit="10" width="2.708" height="2.666"/>
<rect x="132.834" y="27.333" fill="#F3AD68" stroke="#F2AD68" stroke-miterlimit="10" width="2.708" height="2.667"/>
<rect x="132.834" y="24.666" fill="#F19849" stroke="#F19849" stroke-miterlimit="10" width="2.708" height="2.667"/>
<rect x="132.834" y="21.959" fill="#F19849" stroke="#F19849" stroke-miterlimit="10" width="2.708" height="2.666"/>
<rect x="130.125" y="27.333" fill="#F3AD68" stroke="#F2AD68" stroke-miterlimit="10" width="2.709" height="2.667"/>
<rect x="130.125" y="24.666" fill="#F19849" stroke="#F19849" stroke-miterlimit="10" width="2.709" height="2.667"/>
<rect x="130.125" y="21.959" fill="#F19849" stroke="#F19849" stroke-miterlimit="10" width="2.709" height="2.666"/>
<rect x="127.417" y="30" fill="#F3AD68" stroke="#F2AD68" stroke-miterlimit="10" width="2.708" height="2.667"/>
<rect x="127.417" y="27.333" fill="#F3AD68" stroke="#F2AD68" stroke-miterlimit="10" width="2.708" height="2.667"/>
<rect x="127.417" y="24.666" fill="#F19849" stroke="#F19849" stroke-miterlimit="10" width="2.708" height="2.667"/>
<rect x="127.417" y="21.959" fill="#F19849" stroke="#F19849" stroke-miterlimit="10" width="2.708" height="2.666"/>
<rect x="127.417" y="19.291" fill="#F19849" stroke="#F19849" stroke-miterlimit="10" width="2.708" height="2.668"/>
<rect x="124.75" y="30" fill="#F3AD68" stroke="#F2AD68" stroke-miterlimit="10" width="2.709" height="2.667"/>
<rect x="124.75" y="27.333" fill="#F19849" stroke="#F19849" stroke-miterlimit="10" width="2.709" height="2.667"/>
<rect x="124.75" y="24.666" fill="#F19849" stroke="#F19849" stroke-miterlimit="10" width="2.709" height="2.667"/>
<rect x="124.75" y="21.959" fill="#F19849" stroke="#F19849" stroke-miterlimit="10" width="2.709" height="2.666"/>
<rect x="124.75" y="19.291" fill="#F19849" stroke="#F19849" stroke-miterlimit="10" width="2.709" height="2.668"/>
<rect x="122.042" y="30" fill="#F3AD68" stroke="#F2AD68" stroke-miterlimit="10" width="2.708" height="2.667"/>
<rect x="122.042" y="27.333" fill="#F19849" stroke="#F19849" stroke-miterlimit="10" width="2.708" height="2.667"/>
<rect x="122.042" y="24.666" fill="#F19849" stroke="#F19849" stroke-miterlimit="10" width="2.708" height="2.667"/>
<rect x="122.042" y="21.959" fill="#F19849" stroke="#F19849" stroke-miterlimit="10" width="2.708" height="2.666"/>
<rect x="122.042" y="19.291" fill="#F19849" stroke="#F19849" stroke-miterlimit="10" width="2.708" height="2.668"/>
<rect x="119.334" y="30" fill="#F3AD68" stroke="#F2AD68" stroke-miterlimit="10" width="2.708" height="2.667"/>
<rect x="119.334" y="27.333" fill="#F19849" stroke="#F19849" stroke-miterlimit="10" width="2.708" height="2.667"/>
<rect x="119.334" y="24.666" fill="#F19849" stroke="#F19849" stroke-miterlimit="10" width="2.708" height="2.667"/>
<rect x="119.334" y="21.959" fill="#F19849" stroke="#F19849" stroke-miterlimit="10" width="2.708" height="2.666"/>
<rect x="119.334" y="19.291" fill="#F19849" stroke="#F19849" stroke-miterlimit="10" width="2.708" height="2.668"/>
<rect x="119.334" y="16.584" fill="#F19849" stroke="#F19849" stroke-miterlimit="10" width="2.708" height="2.666"/>
<rect x="116.625" y="30" fill="#F3AD68" stroke="#F2AD68" stroke-miterlimit="10" width="2.709" height="2.667"/>
<rect x="116.625" y="27.333" fill="#F19849" stroke="#F19849" stroke-miterlimit="10" width="2.709" height="2.667"/>
<rect x="116.625" y="24.666" fill="#F19849" stroke="#F19849" stroke-miterlimit="10" width="2.709" height="2.667"/>
<rect x="116.625" y="21.959" fill="#F19849" stroke="#F19849" stroke-miterlimit="10" width="2.709" height="2.666"/>
<rect x="116.625" y="19.291" fill="#F19849" stroke="#F19849" stroke-miterlimit="10" width="2.709" height="2.668"/>
<rect x="116.625" y="16.584" fill="#F19849" stroke="#F19849" stroke-miterlimit="10" width="2.709" height="2.666"/>
<rect x="113.917" y="30" fill="#F3AD68" stroke="#F2AD68" stroke-miterlimit="10" width="2.708" height="2.667"/>
<rect x="113.917" y="27.333" fill="#F19849" stroke="#F19849" stroke-miterlimit="10" width="2.708" height="2.667"/>
<rect x="113.917" y="24.666" fill="#F19849" stroke="#F19849" stroke-miterlimit="10" width="2.708" height="2.667"/>
<rect x="113.917" y="21.959" fill="#F19849" stroke="#F19849" stroke-miterlimit="10" width="2.708" height="2.666"/>
<rect x="113.917" y="19.291" fill="#F19849" stroke="#F19849" stroke-miterlimit="10" width="2.708" height="2.668"/>
<rect x="113.917" y="16.584" fill="#F19849" stroke="#F19849" stroke-miterlimit="10" width="2.708" height="2.666"/>
<rect x="113.917" y="13.916" fill="#F19849" stroke="#F19849" stroke-miterlimit="10" width="2.708" height="2.668"/>
<rect x="111.25" y="30" fill="#F3AD68" stroke="#F2AD68" stroke-miterlimit="10" width="2.709" height="2.667"/>
<rect x="111.25" y="27.333" fill="#F19849" stroke="#F19849" stroke-miterlimit="10" width="2.709" height="2.667"/>
<rect x="111.25" y="24.666" fill="#F19849" stroke="#F19849" stroke-miterlimit="10" width="2.709" height="2.667"/>
<rect x="111.25" y="21.959" fill="#F19849" stroke="#F19849" stroke-miterlimit="10" width="2.709" height="2.666"/>
<rect x="111.25" y="19.291" fill="#F19849" stroke="#F19849" stroke-miterlimit="10" width="2.709" height="2.668"/>
<rect x="111.25" y="16.584" fill="#F19849" stroke="#F19849" stroke-miterlimit="10" width="2.709" height="2.666"/>
<rect x="111.25" y="13.916" fill="#F19849" stroke="#F19849" stroke-miterlimit="10" width="2.709" height="2.668"/>
<rect x="111.25" y="11.25" fill="#F19849" stroke="#F19849" stroke-miterlimit="10" width="2.709" height="2.666"/>
<rect x="108.542" y="30" fill="#F3AD68" stroke="#F2AD68" stroke-miterlimit="10" width="2.708" height="2.667"/>
<rect x="108.542" y="27.333" fill="#F3AD68" stroke="#F2AD68" stroke-miterlimit="10" width="2.708" height="2.667"/>
<rect x="108.542" y="24.666" fill="#F19849" stroke="#F19849" stroke-miterlimit="10" width="2.708" height="2.667"/>
<rect x="108.542" y="21.959" fill="#F19849" stroke="#F19849" stroke-miterlimit="10" width="2.708" height="2.666"/>
<rect x="108.542" y="19.291" fill="#F19849" stroke="#F19849" stroke-miterlimit="10" width="2.708" height="2.668"/>
<rect x="108.542" y="16.584" fill="#F19849" stroke="#F19849" stroke-miterlimit="10" width="2.708" height="2.666"/>
<rect x="108.542" y="13.916" fill="#F19849" stroke="#F19849" stroke-miterlimit="10" width="2.708" height="2.668"/>
<rect x="108.542" y="11.25" fill="#F19849" stroke="#F19849" stroke-miterlimit="10" width="2.708" height="2.666"/>
<rect x="105.834" y="27.333" fill="#F3AD68" stroke="#F2AD68" stroke-miterlimit="10" width="2.708" height="2.667"/>
<rect x="105.834" y="24.666" fill="#F19849" stroke="#F19849" stroke-miterlimit="10" width="2.708" height="2.667"/>
<rect x="105.834" y="21.959" fill="#F19849" stroke="#F19849" stroke-miterlimit="10" width="2.708" height="2.666"/>
<rect x="105.834" y="19.291" fill="#F19849" stroke="#F19849" stroke-miterlimit="10" width="2.708" height="2.668"/>
<rect x="105.834" y="16.584" fill="#F19849" stroke="#F19849" stroke-miterlimit="10" width="2.708" height="2.666"/>
<rect x="105.834" y="13.916" fill="#F19849" stroke="#F19849" stroke-miterlimit="10" width="2.708" height="2.668"/>
<rect x="105.834" y="11.25" fill="#F19849" stroke="#F19849" stroke-miterlimit="10" width="2.708" height="2.666"/>
<rect x="105.834" y="8.541" fill="#F19849" stroke="#F19849" stroke-miterlimit="10" width="2.708" height="2.668"/>
<rect x="103.125" y="27.333" fill="#F3AD68" stroke="#F2AD68" stroke-miterlimit="10" width="2.709" height="2.667"/>
<rect x="103.125" y="24.666" fill="#F19849" stroke="#F19849" stroke-miterlimit="10" width="2.709" height="2.667"/>
<rect x="103.125" y="21.959" fill="#F19849" stroke="#F19849" stroke-miterlimit="10" width="2.709" height="2.666"/>
<rect x="103.125" y="19.291" fill="#F19849" stroke="#F19849" stroke-miterlimit="10" width="2.709" height="2.668"/>
<rect x="103.125" y="16.584" fill="#F19849" stroke="#F19849" stroke-miterlimit="10" width="2.709" height="2.666"/>
<rect x="103.125" y="13.916" fill="#F19849" stroke="#F19849" stroke-miterlimit="10" width="2.709" height="2.668"/>
<rect x="103.125" y="11.25" fill="#F19849" stroke="#F19849" stroke-miterlimit="10" width="2.709" height="2.666"/>
<rect x="103.125" y="8.541" fill="#F19849" stroke="#F19849" stroke-miterlimit="10" width="2.709" height="2.668"/>
<rect x="103.125" y="5.875" fill="#F19849" stroke="#F19849" stroke-miterlimit="10" width="2.709" height="2.666"/>
<rect x="100.417" y="27.333" fill="#F3AD68" stroke="#F2AD68" stroke-miterlimit="10" width="2.708" height="2.667"/>
<rect x="100.417" y="24.666" fill="#F19849" stroke="#F19849" stroke-miterlimit="10" width="2.708" height="2.667"/>
<rect x="100.417" y="21.959" fill="#F19849" stroke="#F19849" stroke-miterlimit="10" width="2.708" height="2.666"/>
<rect x="100.417" y="19.291" fill="#F19849" stroke="#F19849" stroke-miterlimit="10" width="2.708" height="2.668"/>
<rect x="100.417" y="16.584" fill="#F19849" stroke="#F19849" stroke-miterlimit="10" width="2.708" height="2.666"/>
<rect x="100.417" y="13.916" fill="#F19849" stroke="#F19849" stroke-miterlimit="10" width="2.708" height="2.668"/>
<rect x="100.417" y="11.25" fill="#F19849" stroke="#F19849" stroke-miterlimit="10" width="2.708" height="2.666"/>
<rect x="100.417" y="8.541" fill="#F19849" stroke="#F19849" stroke-miterlimit="10" width="2.708" height="2.668"/>
<rect x="100.417" y="5.875" fill="#F19849" stroke="#F19849" stroke-miterlimit="10" width="2.708" height="2.666"/>
<rect x="97.709" y="27.333" fill="#F3AD68" stroke="#F2AD68" stroke-miterlimit="10" width="2.708" height="2.667"/>
<rect x="97.709" y="24.666" fill="#F19849" stroke="#F19849" stroke-miterlimit="10" width="2.708" height="2.667"/>
<rect x="97.709" y="21.959" fill="#F19849" stroke="#F19849" stroke-miterlimit="10" width="2.708" height="2.666"/>
<rect x="97.709" y="19.291" fill="#F19849" stroke="#F19849" stroke-miterlimit="10" width="2.708" height="2.668"/>
<rect x="97.709" y="16.584" fill="#F3AD68" stroke="#F2AD68" stroke-miterlimit="10" width="2.708" height="2.666"/>
<rect x="97.709" y="13.916" fill="#F3AD68" stroke="#F2AD68" stroke-miterlimit="10" width="2.708" height="2.668"/>
<rect x="97.709" y="11.25" fill="#F19849" stroke="#F19849" stroke-miterlimit="10" width="2.708" height="2.666"/>
<rect x="97.709" y="8.541" fill="#F19849" stroke="#F19849" stroke-miterlimit="10" width="2.708" height="2.668"/>
<rect x="97.709" y="5.875" fill="#F19849" stroke="#F19849" stroke-miterlimit="10" width="2.708" height="2.666"/>
<rect x="97.709" y="3.167" fill="#F19849" stroke="#F19849" stroke-miterlimit="10" width="2.708" height="2.667"/>
<rect x="95.042" y="27.333" fill="#F3AD68" stroke="#F2AD68" stroke-miterlimit="10" width="2.708" height="2.667"/>
<rect x="95.042" y="24.666" fill="#F19849" stroke="#F19849" stroke-miterlimit="10" width="2.708" height="2.667"/>
<rect x="95.042" y="21.959" fill="#F19849" stroke="#F19849" stroke-miterlimit="10" width="2.708" height="2.666"/>
<rect x="95.042" y="19.291" fill="#F19849" stroke="#F19849" stroke-miterlimit="10" width="2.708" height="2.668"/>
<rect x="95.042" y="16.584" fill="#F19849" stroke="#F19849" stroke-miterlimit="10" width="2.708" height="2.666"/>
<rect x="95.042" y="13.916" fill="#F3AD68" stroke="#F2AD68" stroke-miterlimit="10" width="2.708" height="2.668"/>
<rect x="95.042" y="11.25" fill="#F19849" stroke="#F19849" stroke-miterlimit="10" width="2.708" height="2.666"/>
<rect x="95.042" y="8.541" fill="#F19849" stroke="#F19849" stroke-miterlimit="10" width="2.708" height="2.668"/>
<rect x="95.042" y="5.875" fill="#F19849" stroke="#F19849" stroke-miterlimit="10" width="2.708" height="2.666"/>
<rect x="95.042" y="3.167" fill="#F19849" stroke="#F19849" stroke-miterlimit="10" width="2.708" height="2.667"/>
<rect x="92.334" y="27.333" fill="#F3AD68" stroke="#F2AD68" stroke-miterlimit="10" width="2.708" height="2.667"/>
<rect x="92.334" y="24.666" fill="#F3AD68" stroke="#F2AD68" stroke-miterlimit="10" width="2.708" height="2.667"/>
<rect x="92.334" y="21.959" fill="#F19849" stroke="#F19849" stroke-miterlimit="10" width="2.708" height="2.666"/>
<rect x="92.334" y="19.291" fill="#F19849" stroke="#F19849" stroke-miterlimit="10" width="2.708" height="2.668"/>
<rect x="92.334" y="16.584" fill="#F19849" stroke="#F19849" stroke-miterlimit="10" width="2.708" height="2.666"/>
<rect x="92.334" y="13.916" fill="#F3AD68" stroke="#F2AD68" stroke-miterlimit="10" width="2.708" height="2.668"/>
<rect x="92.334" y="11.25" fill="#F3AD68" stroke="#F2AD68" stroke-miterlimit="10" width="2.708" height="2.666"/>
<rect x="92.334" y="8.541" fill="#F19849" stroke="#F19849" stroke-miterlimit="10" width="2.708" height="2.668"/>
<rect x="92.334" y="5.875" fill="#F19849" stroke="#F19849" stroke-miterlimit="10" width="2.708" height="2.666"/>
<rect x="92.334" y="3.167" fill="#F19849" stroke="#F19849" stroke-miterlimit="10" width="2.708" height="2.667"/>
<rect x="89.625" y="24.666" fill="#F3AD68" stroke="#F2AD68" stroke-miterlimit="10" width="2.709" height="2.667"/>
<rect x="89.625" y="21.959" fill="#F19849" stroke="#F19849" stroke-miterlimit="10" width="2.709" height="2.666"/>
<rect x="89.625" y="19.291" fill="#F19849" stroke="#F19849" stroke-miterlimit="10" width="2.709" height="2.668"/>
<rect x="89.625" y="16.584" fill="#F19849" stroke="#F19849" stroke-miterlimit="10" width="2.709" height="2.666"/>
<rect x="89.625" y="13.916" fill="#F19849" stroke="#F19849" stroke-miterlimit="10" width="2.709" height="2.668"/>
<rect x="89.625" y="11.25" fill="#F3AD68" stroke="#F2AD68" stroke-miterlimit="10" width="2.709" height="2.666"/>
<rect x="89.625" y="8.541" fill="#F19849" stroke="#F19849" stroke-miterlimit="10" width="2.709" height="2.668"/>
<rect x="89.625" y="5.875" fill="#F19849" stroke="#F19849" stroke-miterlimit="10" width="2.709" height="2.666"/>
<rect x="89.625" y="3.167" fill="#F19849" stroke="#F19849" stroke-miterlimit="10" width="2.709" height="2.667"/>
<rect x="86.917" y="24.666" fill="#F3AD68" stroke="#F2AD68" stroke-miterlimit="10" width="2.708" height="2.667"/>
<rect x="86.917" y="21.959" fill="#F19849" stroke="#F19849" stroke-miterlimit="10" width="2.708" height="2.666"/>
<rect x="86.917" y="19.291" fill="#F19849" stroke="#F19849" stroke-miterlimit="10" width="2.708" height="2.668"/>
<rect x="86.917" y="16.584" fill="#F19849" stroke="#F19849" stroke-miterlimit="10" width="2.708" height="2.666"/>
<rect x="86.917" y="13.916" fill="#F19849" stroke="#F19849" stroke-miterlimit="10" width="2.708" height="2.668"/>
<rect x="86.917" y="11.25" fill="#F3AD68" stroke="#F2AD68" stroke-miterlimit="10" width="2.708" height="2.666"/>
<rect x="86.917" y="8.541" fill="#F3AD68" stroke="#F2AD68" stroke-miterlimit="10" width="2.708" height="2.668"/>
<rect x="86.917" y="5.875" fill="#F19849" stroke="#F19849" stroke-miterlimit="10" width="2.708" height="2.666"/>
<rect x="86.917" y="3.167" fill="#F19849" stroke="#F19849" stroke-miterlimit="10" width="2.708" height="2.667"/>
<rect x="86.917" y="0.5" fill="#F19849" stroke="#F19849" stroke-miterlimit="10" width="2.708" height="2.667"/>
<rect x="84.209" y="24.666" fill="#F3AD68" stroke="#F2AD68" stroke-miterlimit="10" width="2.708" height="2.667"/>
<rect x="84.209" y="21.959" fill="#F19849" stroke="#F19849" stroke-miterlimit="10" width="2.708" height="2.666"/>
<rect x="84.209" y="19.291" fill="#F19849" stroke="#F19849" stroke-miterlimit="10" width="2.708" height="2.668"/>
<rect x="84.209" y="16.584" fill="#F19849" stroke="#F19849" stroke-miterlimit="10" width="2.708" height="2.666"/>
<rect x="84.209" y="13.916" fill="#F19849" stroke="#F19849" stroke-miterlimit="10" width="2.708" height="2.668"/>
<rect x="84.209" y="11.25" fill="#F19849" stroke="#F19849" stroke-miterlimit="10" width="2.708" height="2.666"/>
<rect x="84.209" y="8.541" fill="#F3AD68" stroke="#F2AD68" stroke-miterlimit="10" width="2.708" height="2.668"/>
<rect x="84.209" y="5.875" fill="#F19849" stroke="#F19849" stroke-miterlimit="10" width="2.708" height="2.666"/>
<rect x="84.209" y="3.167" fill="#F19849" stroke="#F19849" stroke-miterlimit="10" width="2.708" height="2.667"/>
<rect x="84.209" y="0.5" fill="#F19849" stroke="#F19849" stroke-miterlimit="10" width="2.708" height="2.667"/>
<rect x="81.542" y="24.666" fill="#F3AD68" stroke="#F2AD68" stroke-miterlimit="10" width="2.708" height="2.667"/>
<rect x="81.542" y="21.959" fill="#F19849" stroke="#F19849" stroke-miterlimit="10" width="2.708" height="2.666"/>
<rect x="81.542" y="19.291" fill="#F19849" stroke="#F19849" stroke-miterlimit="10" width="2.708" height="2.668"/>
<rect x="81.542" y="16.584" fill="#F19849" stroke="#F19849" stroke-miterlimit="10" width="2.708" height="2.666"/>
<rect x="81.542" y="13.916" fill="#F19849" stroke="#F19849" stroke-miterlimit="10" width="2.708" height="2.668"/>
<rect x="81.542" y="11.25" fill="#F19849" stroke="#F19849" stroke-miterlimit="10" width="2.708" height="2.666"/>
<rect x="81.542" y="8.541" fill="#F3AD68" stroke="#F2AD68" stroke-miterlimit="10" width="2.708" height="2.668"/>
<rect x="81.542" y="5.875" fill="#F19849" stroke="#F19849" stroke-miterlimit="10" width="2.708" height="2.666"/>
<rect x="81.542" y="3.167" fill="#F19849" stroke="#F19849" stroke-miterlimit="10" width="2.708" height="2.667"/>
<rect x="81.542" y="0.5" fill="#F19849" stroke="#F19849" stroke-miterlimit="10" width="2.708" height="2.667"/>
<rect x="78.834" y="24.666" fill="#F3AD68" stroke="#F2AD68" stroke-miterlimit="10" width="2.708" height="2.667"/>
<rect x="78.834" y="21.959" fill="#F19849" stroke="#F19849" stroke-miterlimit="10" width="2.708" height="2.666"/>
<rect x="78.834" y="19.291" fill="#F19849" stroke="#F19849" stroke-miterlimit="10" width="2.708" height="2.668"/>
<rect x="78.834" y="16.584" fill="#F19849" stroke="#F19849" stroke-miterlimit="10" width="2.708" height="2.666"/>
<rect x="78.834" y="13.916" fill="#F19849" stroke="#F19849" stroke-miterlimit="10" width="2.708" height="2.668"/>
<rect x="78.834" y="11.25" fill="#F19849" stroke="#F19849" stroke-miterlimit="10" width="2.708" height="2.666"/>
<rect x="78.834" y="8.541" fill="#F19849" stroke="#F19849" stroke-miterlimit="10" width="2.708" height="2.668"/>
<rect x="78.834" y="5.875" fill="#F19849" stroke="#F19849" stroke-miterlimit="10" width="2.708" height="2.666"/>
<rect x="78.834" y="3.167" fill="#F19849" stroke="#F19849" stroke-miterlimit="10" width="2.708" height="2.667"/>
<rect x="78.834" y="0.5" fill="#F19849" stroke="#F19849" stroke-miterlimit="10" width="2.708" height="2.667"/>
<rect x="76.125" y="24.666" fill="#F3AD68" stroke="#F2AD68" stroke-miterlimit="10" width="2.709" height="2.667"/>
<rect x="76.125" y="21.959" fill="#F3AD68" stroke="#F2AD68" stroke-miterlimit="10" width="2.709" height="2.666"/>
<rect x="76.125" y="19.291" fill="#F19849" stroke="#F19849" stroke-miterlimit="10" width="2.709" height="2.668"/>
<rect x="76.125" y="16.584" fill="#F19849" stroke="#F19849" stroke-miterlimit="10" width="2.709" height="2.666"/>
<rect x="76.125" y="13.916" fill="#F19849" stroke="#F19849" stroke-miterlimit="10" width="2.709" height="2.668"/>
<rect x="76.125" y="11.25" fill="#F19849" stroke="#F19849" stroke-miterlimit="10" width="2.709" height="2.666"/>
<rect x="76.125" y="8.541" fill="#F19849" stroke="#F19849" stroke-miterlimit="10" width="2.709" height="2.668"/>
<rect x="76.125" y="5.875" fill="#F19849" stroke="#F19849" stroke-miterlimit="10" width="2.709" height="2.666"/>
<rect x="76.125" y="3.167" fill="#F19849" stroke="#F19849" stroke-miterlimit="10" width="2.709" height="2.667"/>
<rect x="76.125" y="0.5" fill="#F19849" stroke="#F19849" stroke-miterlimit="10" width="2.709" height="2.667"/>
<rect x="73.417" y="21.959" fill="#F3AD68" stroke="#F2AD68" stroke-miterlimit="10" width="2.708" height="2.666"/>
<rect x="73.417" y="19.291" fill="#F19849" stroke="#F19849" stroke-miterlimit="10" width="2.708" height="2.668"/>
<rect x="73.417" y="16.584" fill="#F19849" stroke="#F19849" stroke-miterlimit="10" width="2.708" height="2.666"/>
<rect x="73.417" y="13.916" fill="#F19849" stroke="#F19849" stroke-miterlimit="10" width="2.708" height="2.668"/>
<rect x="73.417" y="11.25" fill="#F19849" stroke="#F19849" stroke-miterlimit="10" width="2.708" height="2.666"/>
<rect x="73.417" y="8.541" fill="#F19849" stroke="#F19849" stroke-miterlimit="10" width="2.708" height="2.668"/>
<rect x="73.417" y="5.875" fill="#F19849" stroke="#F19849" stroke-miterlimit="10" width="2.708" height="2.666"/>
<rect x="73.417" y="3.167" fill="#F19849" stroke="#F19849" stroke-miterlimit="10" width="2.708" height="2.667"/>
<rect x="73.417" y="0.5" fill="#F19849" stroke="#F19849" stroke-miterlimit="10" width="2.708" height="2.667"/>
<rect x="70.709" y="21.959" fill="#F3AD68" stroke="#F2AD68" stroke-miterlimit="10" width="2.708" height="2.666"/>
<rect x="70.709" y="19.291" fill="#F19849" stroke="#F19849" stroke-miterlimit="10" width="2.708" height="2.668"/>
<rect x="70.709" y="16.584" fill="#F19849" stroke="#F19849" stroke-miterlimit="10" width="2.708" height="2.666"/>
<rect x="70.709" y="13.916" fill="#F19849" stroke="#F19849" stroke-miterlimit="10" width="2.708" height="2.668"/>
<rect x="70.709" y="11.25" fill="#F19849" stroke="#F19849" stroke-miterlimit="10" width="2.708" height="2.666"/>
<rect x="70.709" y="8.541" fill="#F19849" stroke="#F19849" stroke-miterlimit="10" width="2.708" height="2.668"/>
<rect x="70.709" y="5.875" fill="#F19849" stroke="#F19849" stroke-miterlimit="10" width="2.708" height="2.666"/>
<rect x="70.709" y="3.167" fill="#F19849" stroke="#F19849" stroke-miterlimit="10" width="2.708" height="2.667"/>
<rect x="70.709" y="0.5" fill="#F19849" stroke="#F19849" stroke-miterlimit="10" width="2.708" height="2.667"/>
<rect x="68.042" y="21.959" fill="#F3AD68" stroke="#F2AD68" stroke-miterlimit="10" width="2.708" height="2.666"/>
<rect x="68.042" y="19.291" fill="#F19849" stroke="#F19849" stroke-miterlimit="10" width="2.708" height="2.668"/>
<rect x="68.042" y="16.584" fill="#F19849" stroke="#F19849" stroke-miterlimit="10" width="2.708" height="2.666"/>
<rect x="68.042" y="13.916" fill="#F19849" stroke="#F19849" stroke-miterlimit="10" width="2.708" height="2.668"/>
<rect x="68.042" y="11.25" fill="#F19849" stroke="#F19849" stroke-miterlimit="10" width="2.708" height="2.666"/>
<rect x="68.042" y="8.541" fill="#F19849" stroke="#F19849" stroke-miterlimit="10" width="2.708" height="2.668"/>
<rect x="68.042" y="5.875" fill="#F19849" stroke="#F19849" stroke-miterlimit="10" width="2.708" height="2.666"/>
<rect x="68.042" y="3.167" fill="#F19849" stroke="#F19849" stroke-miterlimit="10" width="2.708" height="2.667"/>
<rect x="68.042" y="0.5" fill="#F19849" stroke="#F19849" stroke-miterlimit="10" width="2.708" height="2.667"/>
<rect x="65.334" y="21.959" fill="#F3AD68" stroke="#F2AD68" stroke-miterlimit="10" width="2.708" height="2.666"/>
<rect x="65.334" y="19.291" fill="#F19849" stroke="#F19849" stroke-miterlimit="10" width="2.708" height="2.668"/>
<rect x="65.334" y="16.584" fill="#F19849" stroke="#F19849" stroke-miterlimit="10" width="2.708" height="2.666"/>
<rect x="65.334" y="13.916" fill="#F19849" stroke="#F19849" stroke-miterlimit="10" width="2.708" height="2.668"/>
<rect x="65.334" y="11.25" fill="#F19849" stroke="#F19849" stroke-miterlimit="10" width="2.708" height="2.666"/>
<rect x="65.334" y="8.541" fill="#F19849" stroke="#F19849" stroke-miterlimit="10" width="2.708" height="2.668"/>
<rect x="65.334" y="5.875" fill="#F19849" stroke="#F19849" stroke-miterlimit="10" width="2.708" height="2.666"/>
<rect x="65.334" y="3.167" fill="#F19849" stroke="#F19849" stroke-miterlimit="10" width="2.708" height="2.667"/>
<rect x="65.334" y="0.5" fill="#F19849" stroke="#F19849" stroke-miterlimit="10" width="2.708" height="2.667"/>
<rect x="62.625" y="21.959" fill="#F3AD68" stroke="#F2AD68" stroke-miterlimit="10" width="2.709" height="2.666"/>
<rect x="62.625" y="19.291" fill="#F19849" stroke="#F19849" stroke-miterlimit="10" width="2.709" height="2.668"/>
<rect x="62.625" y="16.584" fill="#F19849" stroke="#F19849" stroke-miterlimit="10" width="2.709" height="2.666"/>
<rect x="62.625" y="13.916" fill="#F19849" stroke="#F19849" stroke-miterlimit="10" width="2.709" height="2.668"/>
<rect x="62.625" y="11.25" fill="#F19849" stroke="#F19849" stroke-miterlimit="10" width="2.709" height="2.666"/>
<rect x="62.625" y="8.541" fill="#F19849" stroke="#F19849" stroke-miterlimit="10" width="2.709" height="2.668"/>
<rect x="62.625" y="5.875" fill="#F19849" stroke="#F19849" stroke-miterlimit="10" width="2.709" height="2.666"/>
<rect x="62.625" y="3.167" fill="#F19849" stroke="#F19849" stroke-miterlimit="10" width="2.709" height="2.667"/>
<rect x="62.625" y="0.5" fill="#F19849" stroke="#F19849" stroke-miterlimit="10" width="2.709" height="2.667"/>
<rect x="59.917" y="21.959" fill="#F3AD68" stroke="#F2AD68" stroke-miterlimit="10" width="2.708" height="2.666"/>
<rect x="59.917" y="19.291" fill="#F19849" stroke="#F19849" stroke-miterlimit="10" width="2.708" height="2.668"/>
<rect x="59.917" y="16.584" fill="#F19849" stroke="#F19849" stroke-miterlimit="10" width="2.708" height="2.666"/>
<rect x="59.917" y="13.916" fill="#F19849" stroke="#F19849" stroke-miterlimit="10" width="2.708" height="2.668"/>
<rect x="59.917" y="11.25" fill="#F19849" stroke="#F19849" stroke-miterlimit="10" width="2.708" height="2.666"/>
<rect x="59.917" y="8.541" fill="#F19849" stroke="#F19849" stroke-miterlimit="10" width="2.708" height="2.668"/>
<rect x="59.917" y="5.875" fill="#F19849" stroke="#F19849" stroke-miterlimit="10" width="2.708" height="2.666"/>
<rect x="59.917" y="3.167" fill="#F19849" stroke="#F19849" stroke-miterlimit="10" width="2.708" height="2.667"/>
<rect x="59.917" y="0.5" fill="#F19849" stroke="#F19849" stroke-miterlimit="10" width="2.708" height="2.667"/>
<rect x="57.209" y="19.291" fill="#F19849" stroke="#F19849" stroke-miterlimit="10" width="2.708" height="2.668"/>
<rect x="57.209" y="16.584" fill="#F19849" stroke="#F19849" stroke-miterlimit="10" width="2.708" height="2.666"/>
<rect x="57.209" y="13.916" fill="#F19849" stroke="#F19849" stroke-miterlimit="10" width="2.708" height="2.668"/>
<rect x="57.209" y="11.25" fill="#F19849" stroke="#F19849" stroke-miterlimit="10" width="2.708" height="2.666"/>
<rect x="57.209" y="8.541" fill="#F19849" stroke="#F19849" stroke-miterlimit="10" width="2.708" height="2.668"/>
<rect x="57.209" y="5.875" fill="#F19849" stroke="#F19849" stroke-miterlimit="10" width="2.708" height="2.666"/>
<rect x="57.209" y="3.167" fill="#F19849" stroke="#F19849" stroke-miterlimit="10" width="2.708" height="2.667"/>
<rect x="57.209" y="0.5" fill="#F19849" stroke="#F19849" stroke-miterlimit="10" width="2.708" height="2.667"/>
<rect x="54.5" y="19.291" fill="#F19849" stroke="#F19849" stroke-miterlimit="10" width="2.709" height="2.668"/>
<rect x="54.5" y="16.584" fill="#F19849" stroke="#F19849" stroke-miterlimit="10" width="2.709" height="2.666"/>
<rect x="54.5" y="13.916" fill="#F19849" stroke="#F19849" stroke-miterlimit="10" width="2.709" height="2.668"/>
<rect x="54.5" y="11.25" fill="#F19849" stroke="#F19849" stroke-miterlimit="10" width="2.709" height="2.666"/>
<rect x="54.5" y="8.541" fill="#F19849" stroke="#F19849" stroke-miterlimit="10" width="2.709" height="2.668"/>
<rect x="54.5" y="5.875" fill="#F19849" stroke="#F19849" stroke-miterlimit="10" width="2.709" height="2.666"/>
<rect x="54.5" y="3.167" fill="#F19849" stroke="#F19849" stroke-miterlimit="10" width="2.709" height="2.667"/>
<rect x="54.5" y="0.5" fill="#F19849" stroke="#F19849" stroke-miterlimit="10" width="2.709" height="2.667"/>
<rect x="51.834" y="19.291" fill="#F19849" stroke="#F19849" stroke-miterlimit="10" width="2.708" height="2.668"/>
<rect x="51.834" y="16.584" fill="#F19849" stroke="#F19849" stroke-miterlimit="10" width="2.708" height="2.666"/>
<rect x="51.834" y="13.916" fill="#F3AD68" stroke="#F2AD68" stroke-miterlimit="10" width="2.708" height="2.668"/>
<rect x="51.834" y="11.25" fill="#F19849" stroke="#F19849" stroke-miterlimit="10" width="2.708" height="2.666"/>
<rect x="51.834" y="8.541" fill="#F19849" stroke="#F19849" stroke-miterlimit="10" width="2.708" height="2.668"/>
<rect x="51.834" y="5.875" fill="#F19849" stroke="#F19849" stroke-miterlimit="10" width="2.708" height="2.666"/>
<rect x="51.834" y="3.167" fill="#F19849" stroke="#F19849" stroke-miterlimit="10" width="2.708" height="2.667"/>
<rect x="51.834" y="0.5" fill="#F19849" stroke="#F19849" stroke-miterlimit="10" width="2.708" height="2.667"/>
<rect x="49.125" y="19.291" fill="#F19849" stroke="#F19849" stroke-miterlimit="10" width="2.709" height="2.668"/>
<rect x="49.125" y="16.584" fill="#F19849" stroke="#F19849" stroke-miterlimit="10" width="2.709" height="2.666"/>
<rect x="49.125" y="13.916" fill="#F19849" stroke="#F19849" stroke-miterlimit="10" width="2.709" height="2.668"/>
<rect x="49.125" y="11.25" fill="#F3AD68" stroke="#F2AD68" stroke-miterlimit="10" width="2.709" height="2.666"/>
<rect x="49.125" y="8.541" fill="#F19849" stroke="#F19849" stroke-miterlimit="10" width="2.709" height="2.668"/>
<rect x="49.125" y="5.875" fill="#F19849" stroke="#F19849" stroke-miterlimit="10" width="2.709" height="2.666"/>
<rect x="49.125" y="3.167" fill="#F19849" stroke="#F19849" stroke-miterlimit="10" width="2.709" height="2.667"/>
<rect x="49.125" y="0.5" fill="#F19849" stroke="#F19849" stroke-miterlimit="10" width="2.709" height="2.667"/>
<rect x="46.417" y="19.291" fill="#F19849" stroke="#F19849" stroke-miterlimit="10" width="2.708" height="2.668"/>
<rect x="46.417" y="16.584" fill="#F19849" stroke="#F19849" stroke-miterlimit="10" width="2.708" height="2.666"/>
<rect x="46.417" y="13.916" fill="#F19849" stroke="#F19849" stroke-miterlimit="10" width="2.708" height="2.668"/>
<rect x="46.417" y="11.25" fill="#F3AD68" stroke="#F2AD68" stroke-miterlimit="10" width="2.708" height="2.666"/>
<rect x="46.417" y="8.541" fill="#F19849" stroke="#F19849" stroke-miterlimit="10" width="2.708" height="2.668"/>
<rect x="46.417" y="5.875" fill="#F19849" stroke="#F19849" stroke-miterlimit="10" width="2.708" height="2.666"/>
<rect x="46.417" y="3.167" fill="#F19849" stroke="#F19849" stroke-miterlimit="10" width="2.708" height="2.667"/>
<rect x="43.709" y="19.291" fill="#F19849" stroke="#F19849" stroke-miterlimit="10" width="2.708" height="2.668"/>
<rect x="43.709" y="16.584" fill="#F19849" stroke="#F19849" stroke-miterlimit="10" width="2.708" height="2.666"/>
<rect x="43.709" y="13.916" fill="#F19849" stroke="#F19849" stroke-miterlimit="10" width="2.708" height="2.668"/>
<rect x="43.709" y="11.25" fill="#F3AD68" stroke="#F2AD68" stroke-miterlimit="10" width="2.708" height="2.666"/>
<rect x="43.709" y="8.541" fill="#F19849" stroke="#F19849" stroke-miterlimit="10" width="2.708" height="2.668"/>
<rect x="43.709" y="5.875" fill="#F19849" stroke="#F19849" stroke-miterlimit="10" width="2.708" height="2.666"/>
<rect x="43.709" y="3.167" fill="#F19849" stroke="#F19849" stroke-miterlimit="10" width="2.708" height="2.667"/>
<rect x="41" y="19.291" fill="#F19849" stroke="#F19849" stroke-miterlimit="10" width="2.709" height="2.668"/>
<rect x="41" y="16.584" fill="#F19849" stroke="#F19849" stroke-miterlimit="10" width="2.709" height="2.666"/>
<rect x="41" y="13.916" fill="#F3AD68" stroke="#F2AD68" stroke-miterlimit="10" width="2.709" height="2.668"/>
<rect x="41" y="11.25" fill="#F3AD68" stroke="#F2AD68" stroke-miterlimit="10" width="2.709" height="2.666"/>
<rect x="41" y="8.541" fill="#F19849" stroke="#F19849" stroke-miterlimit="10" width="2.709" height="2.668"/>
<rect x="41" y="5.875" fill="#F19849" stroke="#F19849" stroke-miterlimit="10" width="2.709" height="2.666"/>
<rect x="41" y="3.167" fill="#F19849" stroke="#F19849" stroke-miterlimit="10" width="2.709" height="2.667"/>
<rect x="38.334" y="19.291" fill="#F19849" stroke="#F19849" stroke-miterlimit="10" width="2.708" height="2.668"/>
<rect x="38.334" y="16.584" fill="#F19849" stroke="#F19849" stroke-miterlimit="10" width="2.708" height="2.666"/>
<rect x="38.334" y="13.916" fill="#F3AD68" stroke="#F2AD68" stroke-miterlimit="10" width="2.708" height="2.668"/>
<rect x="38.334" y="11.25" fill="#F19849" stroke="#F19849" stroke-miterlimit="10" width="2.708" height="2.666"/>
<rect x="38.334" y="8.541" fill="#F19849" stroke="#F19849" stroke-miterlimit="10" width="2.708" height="2.668"/>
<rect x="38.334" y="5.875" fill="#F19849" stroke="#F19849" stroke-miterlimit="10" width="2.708" height="2.666"/>
<rect x="35.625" y="19.291" fill="#F19849" stroke="#F19849" stroke-miterlimit="10" width="2.709" height="2.668"/>
<rect x="35.625" y="16.584" fill="#F19849" stroke="#F19849" stroke-miterlimit="10" width="2.709" height="2.666"/>
<rect x="35.625" y="13.916" fill="#F19849" stroke="#F19849" stroke-miterlimit="10" width="2.709" height="2.668"/>
<rect x="35.625" y="11.25" fill="#F19849" stroke="#F19849" stroke-miterlimit="10" width="2.709" height="2.666"/>
<rect x="35.625" y="8.541" fill="#F19849" stroke="#F19849" stroke-miterlimit="10" width="2.709" height="2.668"/>
<rect x="35.625" y="5.875" fill="#F19849" stroke="#F19849" stroke-miterlimit="10" width="2.709" height="2.666"/>
<rect x="32.917" y="19.291" fill="#F19849" stroke="#F19849" stroke-miterlimit="10" width="2.708" height="2.668"/>
<rect x="32.917" y="16.584" fill="#F19849" stroke="#F19849" stroke-miterlimit="10" width="2.708" height="2.666"/>
<rect x="32.917" y="13.916" fill="#F19849" stroke="#F19849" stroke-miterlimit="10" width="2.708" height="2.668"/>
<rect x="32.917" y="11.25" fill="#F19849" stroke="#F19849" stroke-miterlimit="10" width="2.708" height="2.666"/>
<rect x="32.917" y="8.541" fill="#F19849" stroke="#F19849" stroke-miterlimit="10" width="2.708" height="2.668"/>
<rect x="32.917" y="5.875" fill="#F19849" stroke="#F19849" stroke-miterlimit="10" width="2.708" height="2.666"/>
<rect x="30.209" y="19.291" fill="#F19849" stroke="#F19849" stroke-miterlimit="10" width="2.708" height="2.668"/>
<rect x="30.209" y="16.584" fill="#F19849" stroke="#F19849" stroke-miterlimit="10" width="2.708" height="2.666"/>
<rect x="30.209" y="13.916" fill="#F19849" stroke="#F19849" stroke-miterlimit="10" width="2.708" height="2.668"/>
<rect x="30.209" y="11.25" fill="#F19849" stroke="#F19849" stroke-miterlimit="10" width="2.708" height="2.666"/>
<rect x="30.209" y="8.541" fill="#F19849" stroke="#F19849" stroke-miterlimit="10" width="2.708" height="2.668"/>
<rect x="27.5" y="19.291" fill="#F19849" stroke="#F19849" stroke-miterlimit="10" width="2.709" height="2.668"/>
<rect x="27.5" y="16.584" fill="#F19849" stroke="#F19849" stroke-miterlimit="10" width="2.709" height="2.666"/>
<rect x="27.5" y="13.916" fill="#F19849" stroke="#F19849" stroke-miterlimit="10" width="2.709" height="2.668"/>
<rect x="27.5" y="11.25" fill="#F19849" stroke="#F19849" stroke-miterlimit="10" width="2.709" height="2.666"/>
<rect x="27.5" y="8.541" fill="#F19849" stroke="#F19849" stroke-miterlimit="10" width="2.709" height="2.668"/>
<rect x="24.792" y="21.959" fill="#F19849" stroke="#F19849" stroke-miterlimit="10" width="2.708" height="2.666"/>
<rect x="24.792" y="19.291" fill="#F19849" stroke="#F19849" stroke-miterlimit="10" width="2.708" height="2.668"/>
<rect x="24.792" y="16.584" fill="#F19849" stroke="#F19849" stroke-miterlimit="10" width="2.708" height="2.666"/>
<rect x="24.792" y="13.916" fill="#F19849" stroke="#F19849" stroke-miterlimit="10" width="2.708" height="2.668"/>
<rect x="24.792" y="11.25" fill="#F19849" stroke="#F19849" stroke-miterlimit="10" width="2.708" height="2.666"/>
<rect x="24.792" y="8.541" fill="#F19849" stroke="#F19849" stroke-miterlimit="10" width="2.708" height="2.668"/>
<rect x="22.125" y="21.959" fill="#F19849" stroke="#F19849" stroke-miterlimit="10" width="2.709" height="2.666"/>
<rect x="22.125" y="19.291" fill="#F19849" stroke="#F19849" stroke-miterlimit="10" width="2.709" height="2.668"/>
<rect x="22.125" y="16.584" fill="#F19849" stroke="#F19849" stroke-miterlimit="10" width="2.709" height="2.666"/>
<rect x="22.125" y="13.916" fill="#F19849" stroke="#F19849" stroke-miterlimit="10" width="2.709" height="2.668"/>
<rect x="19.417" y="21.959" fill="#F19849" stroke="#F19849" stroke-miterlimit="10" width="2.708" height="2.666"/>
<rect x="19.417" y="19.291" fill="#F19849" stroke="#F19849" stroke-miterlimit="10" width="2.708" height="2.668"/>
<rect x="19.417" y="16.584" fill="#F19849" stroke="#F19849" stroke-miterlimit="10" width="2.708" height="2.666"/>
<rect x="16.709" y="21.959" fill="#F19849" stroke="#F19849" stroke-miterlimit="10" width="2.708" height="2.666"/>
<rect x="16.709" y="19.291" fill="#F19849" stroke="#F19849" stroke-miterlimit="10" width="2.708" height="2.668"/>
<rect x="16.709" y="16.584" fill="#F19849" stroke="#F19849" stroke-miterlimit="10" width="2.708" height="2.666"/>
<rect x="14" y="21.959" fill="#F19849" stroke="#F19849" stroke-miterlimit="10" width="2.709" height="2.666"/>
<rect x="14" y="19.291" fill="#F19849" stroke="#F19849" stroke-miterlimit="10" width="2.709" height="2.668"/>
<rect x="14" y="16.584" fill="#F19849" stroke="#F19849" stroke-miterlimit="10" width="2.709" height="2.666"/>
<rect x="11.292" y="21.959" fill="#F19849" stroke="#F19849" stroke-miterlimit="10" width="2.708" height="2.666"/>
<rect x="11.292" y="19.291" fill="#F19849" stroke="#F19849" stroke-miterlimit="10" width="2.708" height="2.668"/>
<rect x="11.292" y="16.584" fill="#F19849" stroke="#F19849" stroke-miterlimit="10" width="2.708" height="2.666"/>
<rect x="8.625" y="21.959" fill="#F19849" stroke="#F19849" stroke-miterlimit="10" width="2.709" height="2.666"/>
<rect x="8.625" y="19.291" fill="#F19849" stroke="#F19849" stroke-miterlimit="10" width="2.709" height="2.668"/>
<rect x="5.917" y="21.959" fill="#F19849" stroke="#F19849" stroke-miterlimit="10" width="2.708" height="2.666"/>
<rect x="5.917" y="19.291" fill="#F19849" stroke="#F19849" stroke-miterlimit="10" width="2.708" height="2.668"/>
<rect x="3.209" y="21.959" fill="#F19849" stroke="#F19849" stroke-miterlimit="10" width="2.708" height="2.666"/>
<rect x="3.209" y="19.291" fill="#F19849" stroke="#F19849" stroke-miterlimit="10" width="2.708" height="2.668"/>
<rect x="0.5" y="21.959" fill="#F19849" stroke="#F19849" stroke-miterlimit="10" width="2.709" height="2.666"/>
<rect x="0.5" y="19.291" fill="#F19849" stroke="#F19849" stroke-miterlimit="10" width="2.709" height="2.668"/>
</svg>
