<?xml version="1.0" encoding="utf-8"?>
<!-- Generator: Adobe Illustrator 16.0.0, SVG Export Plug-In . SVG Version: 6.00 Build 0)  -->
<!DOCTYPE svg PUBLIC "-//W3C//DTD SVG 1.1//EN" "http://www.w3.org/Graphics/SVG/1.1/DTD/svg11.dtd">
<svg version="1.1" id="Layer_1" xmlns="http://www.w3.org/2000/svg" xmlns:xlink="http://www.w3.org/1999/xlink" x="0px" y="0px"
	 width="92.833px" height="30.5px" viewBox="0 0 92.833 30.5" enable-background="new 0 0 92.833 30.5" xml:space="preserve">
<rect x="89.625" y="19.292" fill="#F3AD68" stroke="#F2AD68" stroke-miterlimit="10" width="2.709" height="2.666"/>
<rect x="89.625" y="16.583" fill="#F3AD68" stroke="#F2AD68" stroke-miterlimit="10" width="2.709" height="2.668"/>
<rect x="89.625" y="13.917" fill="#F19849" stroke="#F19849" stroke-miterlimit="10" width="2.709" height="2.666"/>
<rect x="86.917" y="21.958" fill="#F3AD68" stroke="#F2AD68" stroke-miterlimit="10" width="2.708" height="2.668"/>
<rect x="86.917" y="19.292" fill="#F3AD68" stroke="#F2AD68" stroke-miterlimit="10" width="2.708" height="2.666"/>
<rect x="86.917" y="16.583" fill="#F19849" stroke="#F19849" stroke-miterlimit="10" width="2.708" height="2.668"/>
<rect x="86.917" y="13.917" fill="#F19849" stroke="#F19849" stroke-miterlimit="10" width="2.708" height="2.666"/>
<rect x="86.917" y="11.25" fill="#F19849" stroke="#F19849" stroke-miterlimit="10" width="2.708" height="2.667"/>
<rect x="86.917" y="8.542" fill="#F19849" stroke="#F19849" stroke-miterlimit="10" width="2.708" height="2.667"/>
<rect x="84.25" y="24.667" fill="#F3AD68" stroke="#F2AD68" stroke-miterlimit="10" width="2.709" height="2.666"/>
<rect x="84.25" y="21.958" fill="#F3AD68" stroke="#F2AD68" stroke-miterlimit="10" width="2.709" height="2.668"/>
<rect x="84.25" y="19.292" fill="#F19849" stroke="#F19849" stroke-miterlimit="10" width="2.709" height="2.666"/>
<rect x="84.25" y="16.583" fill="#F19849" stroke="#F19849" stroke-miterlimit="10" width="2.709" height="2.668"/>
<rect x="84.25" y="13.917" fill="#F19849" stroke="#F19849" stroke-miterlimit="10" width="2.709" height="2.666"/>
<rect x="84.25" y="11.25" fill="#F19849" stroke="#F19849" stroke-miterlimit="10" width="2.709" height="2.667"/>
<rect x="84.25" y="8.542" fill="#F19849" stroke="#F19849" stroke-miterlimit="10" width="2.709" height="2.667"/>
<rect x="81.542" y="27.333" fill="#F3AD68" stroke="#F2AD68" stroke-miterlimit="10" width="2.708" height="2.668"/>
<rect x="81.542" y="24.667" fill="#F3AD68" stroke="#F2AD68" stroke-miterlimit="10" width="2.708" height="2.666"/>
<rect x="81.542" y="21.958" fill="#F19849" stroke="#F19849" stroke-miterlimit="10" width="2.708" height="2.668"/>
<rect x="81.542" y="19.292" fill="#F19849" stroke="#F19849" stroke-miterlimit="10" width="2.708" height="2.666"/>
<rect x="81.542" y="16.583" fill="#F19849" stroke="#F19849" stroke-miterlimit="10" width="2.708" height="2.668"/>
<rect x="81.542" y="13.917" fill="#F19849" stroke="#F19849" stroke-miterlimit="10" width="2.708" height="2.666"/>
<rect x="81.542" y="11.25" fill="#F19849" stroke="#F19849" stroke-miterlimit="10" width="2.708" height="2.667"/>
<rect x="81.542" y="8.542" fill="#F19849" stroke="#F19849" stroke-miterlimit="10" width="2.708" height="2.667"/>
<rect x="81.542" y="5.875" fill="#F19849" stroke="#F19849" stroke-miterlimit="10" width="2.708" height="2.667"/>
<rect x="78.833" y="27.333" fill="#F3AD68" stroke="#F2AD68" stroke-miterlimit="10" width="2.708" height="2.668"/>
<rect x="78.833" y="24.667" fill="#F3AD68" stroke="#F2AD68" stroke-miterlimit="10" width="2.708" height="2.666"/>
<rect x="78.833" y="21.958" fill="#F19849" stroke="#F19849" stroke-miterlimit="10" width="2.708" height="2.668"/>
<rect x="78.833" y="19.292" fill="#F19849" stroke="#F19849" stroke-miterlimit="10" width="2.708" height="2.666"/>
<rect x="78.833" y="16.583" fill="#F19849" stroke="#F19849" stroke-miterlimit="10" width="2.708" height="2.668"/>
<rect x="78.833" y="13.917" fill="#F19849" stroke="#F19849" stroke-miterlimit="10" width="2.708" height="2.666"/>
<rect x="78.833" y="11.25" fill="#F19849" stroke="#F19849" stroke-miterlimit="10" width="2.708" height="2.667"/>
<rect x="78.833" y="8.542" fill="#F19849" stroke="#F19849" stroke-miterlimit="10" width="2.708" height="2.667"/>
<rect x="78.833" y="5.875" fill="#F19849" stroke="#F19849" stroke-miterlimit="10" width="2.708" height="2.667"/>
<rect x="76.125" y="27.333" fill="#F3AD68" stroke="#F2AD68" stroke-miterlimit="10" width="2.709" height="2.668"/>
<rect x="76.125" y="24.667" fill="#F3AD68" stroke="#F2AD68" stroke-miterlimit="10" width="2.709" height="2.666"/>
<rect x="76.125" y="21.958" fill="#F19849" stroke="#F19849" stroke-miterlimit="10" width="2.709" height="2.668"/>
<rect x="76.125" y="19.292" fill="#F19849" stroke="#F19849" stroke-miterlimit="10" width="2.709" height="2.666"/>
<rect x="76.125" y="16.583" fill="#F19849" stroke="#F19849" stroke-miterlimit="10" width="2.709" height="2.668"/>
<rect x="76.125" y="13.917" fill="#F19849" stroke="#F19849" stroke-miterlimit="10" width="2.709" height="2.666"/>
<rect x="76.125" y="11.25" fill="#F19849" stroke="#F19849" stroke-miterlimit="10" width="2.709" height="2.667"/>
<rect x="76.125" y="8.542" fill="#F19849" stroke="#F19849" stroke-miterlimit="10" width="2.709" height="2.667"/>
<rect x="76.125" y="5.875" fill="#F19849" stroke="#F19849" stroke-miterlimit="10" width="2.709" height="2.667"/>
<rect x="76.125" y="3.208" fill="#F19849" stroke="#F19849" stroke-miterlimit="10" width="2.709" height="2.667"/>
<rect x="73.417" y="27.333" fill="#F3AD68" stroke="#F2AD68" stroke-miterlimit="10" width="2.708" height="2.668"/>
<rect x="73.417" y="24.667" fill="#F19849" stroke="#F19849" stroke-miterlimit="10" width="2.708" height="2.666"/>
<rect x="73.417" y="21.958" fill="#F19849" stroke="#F19849" stroke-miterlimit="10" width="2.708" height="2.668"/>
<rect x="73.417" y="19.292" fill="#F19849" stroke="#F19849" stroke-miterlimit="10" width="2.708" height="2.666"/>
<rect x="73.417" y="16.583" fill="#F19849" stroke="#F19849" stroke-miterlimit="10" width="2.708" height="2.668"/>
<rect x="73.417" y="13.917" fill="#F19849" stroke="#F19849" stroke-miterlimit="10" width="2.708" height="2.666"/>
<rect x="73.417" y="11.25" fill="#F19849" stroke="#F19849" stroke-miterlimit="10" width="2.708" height="2.667"/>
<rect x="73.417" y="8.542" fill="#F19849" stroke="#F19849" stroke-miterlimit="10" width="2.708" height="2.667"/>
<rect x="73.417" y="5.875" fill="#F19849" stroke="#F19849" stroke-miterlimit="10" width="2.708" height="2.667"/>
<rect x="73.417" y="3.208" fill="#F19849" stroke="#F19849" stroke-miterlimit="10" width="2.708" height="2.667"/>
<rect x="70.708" y="27.333" fill="#F3AD68" stroke="#F2AD68" stroke-miterlimit="10" width="2.708" height="2.668"/>
<rect x="70.708" y="24.667" fill="#F19849" stroke="#F19849" stroke-miterlimit="10" width="2.708" height="2.666"/>
<rect x="70.708" y="21.958" fill="#F19849" stroke="#F19849" stroke-miterlimit="10" width="2.708" height="2.668"/>
<rect x="70.708" y="19.292" fill="#F19849" stroke="#F19849" stroke-miterlimit="10" width="2.708" height="2.666"/>
<rect x="70.708" y="16.583" fill="#F3AD68" stroke="#F2AD68" stroke-miterlimit="10" width="2.708" height="2.668"/>
<rect x="70.708" y="13.917" fill="#F3AD68" stroke="#F2AD68" stroke-miterlimit="10" width="2.708" height="2.666"/>
<rect x="70.708" y="11.25" fill="#F19849" stroke="#F19849" stroke-miterlimit="10" width="2.708" height="2.667"/>
<rect x="70.708" y="8.542" fill="#F19849" stroke="#F19849" stroke-miterlimit="10" width="2.708" height="2.667"/>
<rect x="70.708" y="5.875" fill="#F19849" stroke="#F19849" stroke-miterlimit="10" width="2.708" height="2.667"/>
<rect x="68.042" y="27.333" fill="#F3AD68" stroke="#F2AD68" stroke-miterlimit="10" width="2.708" height="2.668"/>
<rect x="68.042" y="24.667" fill="#F19849" stroke="#F19849" stroke-miterlimit="10" width="2.708" height="2.666"/>
<rect x="68.042" y="21.958" fill="#F19849" stroke="#F19849" stroke-miterlimit="10" width="2.708" height="2.668"/>
<rect x="68.042" y="19.292" fill="#F19849" stroke="#F19849" stroke-miterlimit="10" width="2.708" height="2.666"/>
<rect x="68.042" y="16.583" fill="#F3AD68" stroke="#F2AD68" stroke-miterlimit="10" width="2.708" height="2.668"/>
<rect x="68.042" y="13.917" fill="#F19849" stroke="#F19849" stroke-miterlimit="10" width="2.708" height="2.666"/>
<rect x="68.042" y="11.25" fill="#F19849" stroke="#F19849" stroke-miterlimit="10" width="2.708" height="2.667"/>
<rect x="68.042" y="8.542" fill="#F19849" stroke="#F19849" stroke-miterlimit="10" width="2.708" height="2.667"/>
<rect x="68.042" y="5.875" fill="#F19849" stroke="#F19849" stroke-miterlimit="10" width="2.708" height="2.667"/>
<rect x="65.333" y="27.333" fill="#F3AD68" stroke="#F2AD68" stroke-miterlimit="10" width="2.708" height="2.668"/>
<rect x="65.333" y="24.667" fill="#F19849" stroke="#F19849" stroke-miterlimit="10" width="2.708" height="2.666"/>
<rect x="65.333" y="21.958" fill="#F19849" stroke="#F19849" stroke-miterlimit="10" width="2.708" height="2.668"/>
<rect x="65.333" y="19.292" fill="#F19849" stroke="#F19849" stroke-miterlimit="10" width="2.708" height="2.666"/>
<rect x="65.333" y="16.583" fill="#F3AD68" stroke="#F2AD68" stroke-miterlimit="10" width="2.708" height="2.668"/>
<rect x="65.333" y="13.917" fill="#F19849" stroke="#F19849" stroke-miterlimit="10" width="2.708" height="2.666"/>
<rect x="65.333" y="11.25" fill="#F19849" stroke="#F19849" stroke-miterlimit="10" width="2.708" height="2.667"/>
<rect x="65.333" y="8.542" fill="#F19849" stroke="#F19849" stroke-miterlimit="10" width="2.708" height="2.667"/>
<rect x="65.333" y="5.875" fill="#F19849" stroke="#F19849" stroke-miterlimit="10" width="2.708" height="2.667"/>
<rect x="62.625" y="27.333" fill="#F3AD68" stroke="#F2AD68" stroke-miterlimit="10" width="2.709" height="2.668"/>
<rect x="62.625" y="24.667" fill="#F3AD68" stroke="#F2AD68" stroke-miterlimit="10" width="2.709" height="2.666"/>
<rect x="62.625" y="21.958" fill="#F19849" stroke="#F19849" stroke-miterlimit="10" width="2.709" height="2.668"/>
<rect x="62.625" y="19.292" fill="#F19849" stroke="#F19849" stroke-miterlimit="10" width="2.709" height="2.666"/>
<rect x="62.625" y="16.583" fill="#F3AD68" stroke="#F2AD68" stroke-miterlimit="10" width="2.709" height="2.668"/>
<rect x="62.625" y="13.917" fill="#F19849" stroke="#F19849" stroke-miterlimit="10" width="2.709" height="2.666"/>
<rect x="62.625" y="11.25" fill="#F19849" stroke="#F19849" stroke-miterlimit="10" width="2.709" height="2.667"/>
<rect x="62.625" y="8.542" fill="#F19849" stroke="#F19849" stroke-miterlimit="10" width="2.709" height="2.667"/>
<rect x="62.625" y="5.875" fill="#F19849" stroke="#F19849" stroke-miterlimit="10" width="2.709" height="2.667"/>
<rect x="59.917" y="24.667" fill="#F3AD68" stroke="#F2AD68" stroke-miterlimit="10" width="2.708" height="2.666"/>
<rect x="59.917" y="21.958" fill="#F3AD68" stroke="#F2AD68" stroke-miterlimit="10" width="2.708" height="2.668"/>
<rect x="59.917" y="19.292" fill="#F19849" stroke="#F19849" stroke-miterlimit="10" width="2.708" height="2.666"/>
<rect x="59.917" y="16.583" fill="#F19849" stroke="#F19849" stroke-miterlimit="10" width="2.708" height="2.668"/>
<rect x="59.917" y="13.917" fill="#F19849" stroke="#F19849" stroke-miterlimit="10" width="2.708" height="2.666"/>
<rect x="59.917" y="11.25" fill="#F19849" stroke="#F19849" stroke-miterlimit="10" width="2.708" height="2.667"/>
<rect x="59.917" y="8.542" fill="#F19849" stroke="#F19849" stroke-miterlimit="10" width="2.708" height="2.667"/>
<rect x="57.208" y="21.958" fill="#F3AD68" stroke="#F2AD68" stroke-miterlimit="10" width="2.708" height="2.668"/>
<rect x="57.208" y="19.292" fill="#F3AD68" stroke="#F2AD68" stroke-miterlimit="10" width="2.708" height="2.666"/>
<rect x="57.208" y="16.583" fill="#F19849" stroke="#F19849" stroke-miterlimit="10" width="2.708" height="2.668"/>
<rect x="57.208" y="13.917" fill="#F19849" stroke="#F19849" stroke-miterlimit="10" width="2.708" height="2.666"/>
<rect x="57.208" y="11.25" fill="#F19849" stroke="#F19849" stroke-miterlimit="10" width="2.708" height="2.667"/>
<rect x="57.208" y="8.542" fill="#F19849" stroke="#F19849" stroke-miterlimit="10" width="2.708" height="2.667"/>
<rect x="54.542" y="19.292" fill="#F3AD68" stroke="#F2AD68" stroke-miterlimit="10" width="2.708" height="2.666"/>
<rect x="54.542" y="16.583" fill="#F19849" stroke="#F19849" stroke-miterlimit="10" width="2.708" height="2.668"/>
<rect x="54.542" y="13.917" fill="#F19849" stroke="#F19849" stroke-miterlimit="10" width="2.708" height="2.666"/>
<rect x="54.542" y="11.25" fill="#F19849" stroke="#F19849" stroke-miterlimit="10" width="2.708" height="2.667"/>
<rect x="54.542" y="8.542" fill="#F19849" stroke="#F19849" stroke-miterlimit="10" width="2.708" height="2.667"/>
<rect x="51.833" y="19.292" fill="#F3AD68" stroke="#F2AD68" stroke-miterlimit="10" width="2.708" height="2.666"/>
<rect x="51.833" y="16.583" fill="#F19849" stroke="#F19849" stroke-miterlimit="10" width="2.708" height="2.668"/>
<rect x="51.833" y="13.917" fill="#F19849" stroke="#F19849" stroke-miterlimit="10" width="2.708" height="2.666"/>
<rect x="51.833" y="11.25" fill="#F19849" stroke="#F19849" stroke-miterlimit="10" width="2.708" height="2.667"/>
<rect x="51.833" y="8.542" fill="#F19849" stroke="#F19849" stroke-miterlimit="10" width="2.708" height="2.667"/>
<rect x="49.125" y="19.292" fill="#F3AD68" stroke="#F2AD68" stroke-miterlimit="10" width="2.709" height="2.666"/>
<rect x="49.125" y="16.583" fill="#F19849" stroke="#F19849" stroke-miterlimit="10" width="2.709" height="2.668"/>
<rect x="49.125" y="13.917" fill="#F19849" stroke="#F19849" stroke-miterlimit="10" width="2.709" height="2.666"/>
<rect x="49.125" y="11.25" fill="#F19849" stroke="#F19849" stroke-miterlimit="10" width="2.709" height="2.667"/>
<rect x="49.125" y="8.542" fill="#F19849" stroke="#F19849" stroke-miterlimit="10" width="2.709" height="2.667"/>
<rect x="49.125" y="5.875" fill="#F19849" stroke="#F19849" stroke-miterlimit="10" width="2.709" height="2.667"/>
<rect x="46.417" y="19.292" fill="#F3AD68" stroke="#F2AD68" stroke-miterlimit="10" width="2.708" height="2.666"/>
<rect x="46.417" y="16.583" fill="#F19849" stroke="#F19849" stroke-miterlimit="10" width="2.708" height="2.668"/>
<rect x="46.417" y="13.917" fill="#F19849" stroke="#F19849" stroke-miterlimit="10" width="2.708" height="2.666"/>
<rect x="46.417" y="11.25" fill="#F19849" stroke="#F19849" stroke-miterlimit="10" width="2.708" height="2.667"/>
<rect x="46.417" y="8.542" fill="#F19849" stroke="#F19849" stroke-miterlimit="10" width="2.708" height="2.667"/>
<rect x="46.417" y="5.875" fill="#F19849" stroke="#F19849" stroke-miterlimit="10" width="2.708" height="2.667"/>
<rect x="43.708" y="19.292" fill="#F3AD68" stroke="#F2AD68" stroke-miterlimit="10" width="2.708" height="2.666"/>
<rect x="43.708" y="16.583" fill="#F19849" stroke="#F19849" stroke-miterlimit="10" width="2.708" height="2.668"/>
<rect x="43.708" y="13.917" fill="#F19849" stroke="#F19849" stroke-miterlimit="10" width="2.708" height="2.666"/>
<rect x="43.708" y="11.25" fill="#F19849" stroke="#F19849" stroke-miterlimit="10" width="2.708" height="2.667"/>
<rect x="43.708" y="8.542" fill="#F19849" stroke="#F19849" stroke-miterlimit="10" width="2.708" height="2.667"/>
<rect x="43.708" y="5.875" fill="#F19849" stroke="#F19849" stroke-miterlimit="10" width="2.708" height="2.667"/>
<rect x="43.708" y="3.208" fill="#F19849" stroke="#F19849" stroke-miterlimit="10" width="2.708" height="2.667"/>
<rect x="41.042" y="19.292" fill="#F3AD68" stroke="#F2AD68" stroke-miterlimit="10" width="2.708" height="2.666"/>
<rect x="41.042" y="16.583" fill="#F19849" stroke="#F19849" stroke-miterlimit="10" width="2.708" height="2.668"/>
<rect x="41.042" y="13.917" fill="#F19849" stroke="#F19849" stroke-miterlimit="10" width="2.708" height="2.666"/>
<rect x="41.042" y="11.25" fill="#F19849" stroke="#F19849" stroke-miterlimit="10" width="2.708" height="2.667"/>
<rect x="41.042" y="8.542" fill="#F19849" stroke="#F19849" stroke-miterlimit="10" width="2.708" height="2.667"/>
<rect x="41.042" y="5.875" fill="#F19849" stroke="#F19849" stroke-miterlimit="10" width="2.708" height="2.667"/>
<rect x="41.042" y="3.208" fill="#F19849" stroke="#F19849" stroke-miterlimit="10" width="2.708" height="2.667"/>
<rect x="38.333" y="19.292" fill="#F3AD68" stroke="#F2AD68" stroke-miterlimit="10" width="2.708" height="2.666"/>
<rect x="38.333" y="16.583" fill="#F19849" stroke="#F19849" stroke-miterlimit="10" width="2.708" height="2.668"/>
<rect x="38.333" y="13.917" fill="#F19849" stroke="#F19849" stroke-miterlimit="10" width="2.708" height="2.666"/>
<rect x="38.333" y="11.25" fill="#F19849" stroke="#F19849" stroke-miterlimit="10" width="2.708" height="2.667"/>
<rect x="38.333" y="8.542" fill="#F19849" stroke="#F19849" stroke-miterlimit="10" width="2.708" height="2.667"/>
<rect x="38.333" y="5.875" fill="#F19849" stroke="#F19849" stroke-miterlimit="10" width="2.708" height="2.667"/>
<rect x="38.333" y="3.208" fill="#F19849" stroke="#F19849" stroke-miterlimit="10" width="2.708" height="2.667"/>
<rect x="35.625" y="21.958" fill="#F3AD68" stroke="#F2AD68" stroke-miterlimit="10" width="2.709" height="2.668"/>
<rect x="35.625" y="19.292" fill="#F3AD68" stroke="#F2AD68" stroke-miterlimit="10" width="2.709" height="2.666"/>
<rect x="35.625" y="16.583" fill="#F19849" stroke="#F19849" stroke-miterlimit="10" width="2.709" height="2.668"/>
<rect x="35.625" y="13.917" fill="#F19849" stroke="#F19849" stroke-miterlimit="10" width="2.709" height="2.666"/>
<rect x="35.625" y="11.25" fill="#F19849" stroke="#F19849" stroke-miterlimit="10" width="2.709" height="2.667"/>
<rect x="35.625" y="8.542" fill="#F19849" stroke="#F19849" stroke-miterlimit="10" width="2.709" height="2.667"/>
<rect x="35.625" y="5.875" fill="#F19849" stroke="#F19849" stroke-miterlimit="10" width="2.709" height="2.667"/>
<rect x="35.625" y="3.208" fill="#F19849" stroke="#F19849" stroke-miterlimit="10" width="2.709" height="2.667"/>
<rect x="35.625" y="0.5" fill="#F19849" stroke="#F19849" stroke-miterlimit="10" width="2.709" height="2.667"/>
<rect x="32.917" y="21.958" fill="#F3AD68" stroke="#F2AD68" stroke-miterlimit="10" width="2.708" height="2.668"/>
<rect x="32.917" y="19.292" fill="#F19849" stroke="#F19849" stroke-miterlimit="10" width="2.708" height="2.666"/>
<rect x="32.917" y="16.583" fill="#F19849" stroke="#F19849" stroke-miterlimit="10" width="2.708" height="2.668"/>
<rect x="32.917" y="13.917" fill="#F19849" stroke="#F19849" stroke-miterlimit="10" width="2.708" height="2.666"/>
<rect x="32.917" y="11.25" fill="#F19849" stroke="#F19849" stroke-miterlimit="10" width="2.708" height="2.667"/>
<rect x="32.917" y="8.542" fill="#F19849" stroke="#F19849" stroke-miterlimit="10" width="2.708" height="2.667"/>
<rect x="32.917" y="5.875" fill="#F19849" stroke="#F19849" stroke-miterlimit="10" width="2.708" height="2.667"/>
<rect x="32.917" y="3.208" fill="#F19849" stroke="#F19849" stroke-miterlimit="10" width="2.708" height="2.667"/>
<rect x="32.917" y="0.5" fill="#F19849" stroke="#F19849" stroke-miterlimit="10" width="2.708" height="2.667"/>
<rect x="30.208" y="21.958" fill="#F3AD68" stroke="#F2AD68" stroke-miterlimit="10" width="2.708" height="2.668"/>
<rect x="30.208" y="19.292" fill="#F19849" stroke="#F19849" stroke-miterlimit="10" width="2.708" height="2.666"/>
<rect x="30.208" y="16.583" fill="#F19849" stroke="#F19849" stroke-miterlimit="10" width="2.708" height="2.668"/>
<rect x="30.208" y="13.917" fill="#F19849" stroke="#F19849" stroke-miterlimit="10" width="2.708" height="2.666"/>
<rect x="30.208" y="11.25" fill="#F19849" stroke="#F19849" stroke-miterlimit="10" width="2.708" height="2.667"/>
<rect x="30.208" y="8.542" fill="#F19849" stroke="#F19849" stroke-miterlimit="10" width="2.708" height="2.667"/>
<rect x="30.208" y="5.875" fill="#F19849" stroke="#F19849" stroke-miterlimit="10" width="2.708" height="2.667"/>
<rect x="30.208" y="3.208" fill="#F19849" stroke="#F19849" stroke-miterlimit="10" width="2.708" height="2.667"/>
<rect x="30.208" y="0.5" fill="#F19849" stroke="#F19849" stroke-miterlimit="10" width="2.708" height="2.667"/>
<rect x="27.5" y="21.958" fill="#F3AD68" stroke="#F2AD68" stroke-miterlimit="10" width="2.709" height="2.668"/>
<rect x="27.5" y="19.292" fill="#F19849" stroke="#F19849" stroke-miterlimit="10" width="2.709" height="2.666"/>
<rect x="27.5" y="16.583" fill="#F19849" stroke="#F19849" stroke-miterlimit="10" width="2.709" height="2.668"/>
<rect x="27.5" y="13.917" fill="#F19849" stroke="#F19849" stroke-miterlimit="10" width="2.709" height="2.666"/>
<rect x="27.5" y="11.25" fill="#F3AD68" stroke="#F2AD68" stroke-miterlimit="10" width="2.709" height="2.667"/>
<rect x="27.5" y="8.542" fill="#F19849" stroke="#F19849" stroke-miterlimit="10" width="2.709" height="2.667"/>
<rect x="27.5" y="5.875" fill="#F19849" stroke="#F19849" stroke-miterlimit="10" width="2.709" height="2.667"/>
<rect x="27.5" y="3.208" fill="#F19849" stroke="#F19849" stroke-miterlimit="10" width="2.709" height="2.667"/>
<rect x="27.5" y="0.5" fill="#F19849" stroke="#F19849" stroke-miterlimit="10" width="2.709" height="2.667"/>
<rect x="24.833" y="24.667" fill="#F3AD68" stroke="#F2AD68" stroke-miterlimit="10" width="2.708" height="2.666"/>
<rect x="24.833" y="21.958" fill="#F3AD68" stroke="#F2AD68" stroke-miterlimit="10" width="2.708" height="2.668"/>
<rect x="24.833" y="19.292" fill="#F19849" stroke="#F19849" stroke-miterlimit="10" width="2.708" height="2.666"/>
<rect x="24.833" y="16.583" fill="#F19849" stroke="#F19849" stroke-miterlimit="10" width="2.708" height="2.668"/>
<rect x="24.833" y="13.917" fill="#F19849" stroke="#F19849" stroke-miterlimit="10" width="2.708" height="2.666"/>
<rect x="24.833" y="11.25" fill="#F3AD68" stroke="#F2AD68" stroke-miterlimit="10" width="2.708" height="2.667"/>
<rect x="24.833" y="8.542" fill="#F19849" stroke="#F19849" stroke-miterlimit="10" width="2.708" height="2.667"/>
<rect x="24.833" y="5.875" fill="#F19849" stroke="#F19849" stroke-miterlimit="10" width="2.708" height="2.667"/>
<rect x="24.833" y="3.208" fill="#F19849" stroke="#F19849" stroke-miterlimit="10" width="2.708" height="2.667"/>
<rect x="24.833" y="0.5" fill="#F19849" stroke="#F19849" stroke-miterlimit="10" width="2.708" height="2.667"/>
<rect x="22.125" y="24.667" fill="#F3AD68" stroke="#F2AD68" stroke-miterlimit="10" width="2.709" height="2.666"/>
<rect x="22.125" y="21.958" fill="#F3AD68" stroke="#F2AD68" stroke-miterlimit="10" width="2.709" height="2.668"/>
<rect x="22.125" y="19.292" fill="#F19849" stroke="#F19849" stroke-miterlimit="10" width="2.709" height="2.666"/>
<rect x="22.125" y="16.583" fill="#F19849" stroke="#F19849" stroke-miterlimit="10" width="2.709" height="2.668"/>
<rect x="22.125" y="13.917" fill="#F19849" stroke="#F19849" stroke-miterlimit="10" width="2.709" height="2.666"/>
<rect x="22.125" y="11.25" fill="#F3AD68" stroke="#F2AD68" stroke-miterlimit="10" width="2.709" height="2.667"/>
<rect x="22.125" y="8.542" fill="#F19849" stroke="#F19849" stroke-miterlimit="10" width="2.709" height="2.667"/>
<rect x="22.125" y="5.875" fill="#F19849" stroke="#F19849" stroke-miterlimit="10" width="2.709" height="2.667"/>
<rect x="22.125" y="3.208" fill="#F19849" stroke="#F19849" stroke-miterlimit="10" width="2.709" height="2.667"/>
<rect x="22.125" y="0.5" fill="#F19849" stroke="#F19849" stroke-miterlimit="10" width="2.709" height="2.667"/>
<rect x="19.417" y="24.667" fill="#F3AD68" stroke="#F2AD68" stroke-miterlimit="10" width="2.708" height="2.666"/>
<rect x="19.417" y="21.958" fill="#F19849" stroke="#F19849" stroke-miterlimit="10" width="2.708" height="2.668"/>
<rect x="19.417" y="19.292" fill="#F19849" stroke="#F19849" stroke-miterlimit="10" width="2.708" height="2.666"/>
<rect x="19.417" y="16.583" fill="#F19849" stroke="#F19849" stroke-miterlimit="10" width="2.708" height="2.668"/>
<rect x="19.417" y="13.917" fill="#F19849" stroke="#F19849" stroke-miterlimit="10" width="2.708" height="2.666"/>
<rect x="19.417" y="11.25" fill="#F3AD68" stroke="#F2AD68" stroke-miterlimit="10" width="2.708" height="2.667"/>
<rect x="19.417" y="8.542" fill="#F19849" stroke="#F19849" stroke-miterlimit="10" width="2.708" height="2.667"/>
<rect x="19.417" y="5.875" fill="#F19849" stroke="#F19849" stroke-miterlimit="10" width="2.708" height="2.667"/>
<rect x="19.417" y="3.208" fill="#F19849" stroke="#F19849" stroke-miterlimit="10" width="2.708" height="2.667"/>
<rect x="19.417" y="0.5" fill="#F19849" stroke="#F19849" stroke-miterlimit="10" width="2.708" height="2.667"/>
<rect x="16.708" y="24.667" fill="#F3AD68" stroke="#F2AD68" stroke-miterlimit="10" width="2.708" height="2.666"/>
<rect x="16.708" y="21.958" fill="#F19849" stroke="#F19849" stroke-miterlimit="10" width="2.708" height="2.668"/>
<rect x="16.708" y="19.292" fill="#F19849" stroke="#F19849" stroke-miterlimit="10" width="2.708" height="2.666"/>
<rect x="16.708" y="16.583" fill="#F19849" stroke="#F19849" stroke-miterlimit="10" width="2.708" height="2.668"/>
<rect x="16.708" y="13.917" fill="#F19849" stroke="#F19849" stroke-miterlimit="10" width="2.708" height="2.666"/>
<rect x="16.708" y="11.25" fill="#F3AD68" stroke="#F2AD68" stroke-miterlimit="10" width="2.708" height="2.667"/>
<rect x="16.708" y="8.542" fill="#F3AD68" stroke="#F2AD68" stroke-miterlimit="10" width="2.708" height="2.667"/>
<rect x="16.708" y="5.875" fill="#F19849" stroke="#F19849" stroke-miterlimit="10" width="2.708" height="2.667"/>
<rect x="16.708" y="3.208" fill="#F19849" stroke="#F19849" stroke-miterlimit="10" width="2.708" height="2.667"/>
<rect x="16.708" y="0.5" fill="#F19849" stroke="#F19849" stroke-miterlimit="10" width="2.708" height="2.667"/>
<rect x="14" y="24.667" fill="#F3AD68" stroke="#F2AD68" stroke-miterlimit="10" width="2.708" height="2.666"/>
<rect x="14" y="21.958" fill="#F19849" stroke="#F19849" stroke-miterlimit="10" width="2.708" height="2.668"/>
<rect x="14" y="19.292" fill="#F19849" stroke="#F19849" stroke-miterlimit="10" width="2.708" height="2.666"/>
<rect x="14" y="16.583" fill="#F19849" stroke="#F19849" stroke-miterlimit="10" width="2.708" height="2.668"/>
<rect x="14" y="13.917" fill="#F19849" stroke="#F19849" stroke-miterlimit="10" width="2.708" height="2.666"/>
<rect x="14" y="11.25" fill="#F19849" stroke="#F19849" stroke-miterlimit="10" width="2.708" height="2.667"/>
<rect x="14" y="8.542" fill="#F19849" stroke="#F19849" stroke-miterlimit="10" width="2.708" height="2.667"/>
<rect x="14" y="5.875" fill="#F19849" stroke="#F19849" stroke-miterlimit="10" width="2.708" height="2.667"/>
<rect x="14" y="3.208" fill="#F19849" stroke="#F19849" stroke-miterlimit="10" width="2.708" height="2.667"/>
<rect x="11.333" y="21.958" fill="#F19849" stroke="#F19849" stroke-miterlimit="10" width="2.708" height="2.668"/>
<rect x="11.333" y="19.292" fill="#F19849" stroke="#F19849" stroke-miterlimit="10" width="2.708" height="2.666"/>
<rect x="11.333" y="16.583" fill="#F19849" stroke="#F19849" stroke-miterlimit="10" width="2.708" height="2.668"/>
<rect x="11.333" y="13.917" fill="#F19849" stroke="#F19849" stroke-miterlimit="10" width="2.708" height="2.666"/>
<rect x="11.333" y="11.25" fill="#F19849" stroke="#F19849" stroke-miterlimit="10" width="2.708" height="2.667"/>
<rect x="11.333" y="8.542" fill="#F19849" stroke="#F19849" stroke-miterlimit="10" width="2.708" height="2.667"/>
<rect x="11.333" y="5.875" fill="#F19849" stroke="#F19849" stroke-miterlimit="10" width="2.708" height="2.667"/>
<rect x="11.333" y="3.208" fill="#F19849" stroke="#F19849" stroke-miterlimit="10" width="2.708" height="2.667"/>
<rect x="8.625" y="21.958" fill="#F19849" stroke="#F19849" stroke-miterlimit="10" width="2.708" height="2.668"/>
<rect x="8.625" y="19.292" fill="#F19849" stroke="#F19849" stroke-miterlimit="10" width="2.708" height="2.666"/>
<rect x="8.625" y="16.583" fill="#F19849" stroke="#F19849" stroke-miterlimit="10" width="2.708" height="2.668"/>
<rect x="8.625" y="13.917" fill="#F19849" stroke="#F19849" stroke-miterlimit="10" width="2.708" height="2.666"/>
<rect x="8.625" y="11.25" fill="#F19849" stroke="#F19849" stroke-miterlimit="10" width="2.708" height="2.667"/>
<rect x="8.625" y="8.542" fill="#F19849" stroke="#F19849" stroke-miterlimit="10" width="2.708" height="2.667"/>
<rect x="8.625" y="5.875" fill="#F19849" stroke="#F19849" stroke-miterlimit="10" width="2.708" height="2.667"/>
<rect x="8.625" y="3.208" fill="#F19849" stroke="#F19849" stroke-miterlimit="10" width="2.708" height="2.667"/>
<rect x="5.917" y="19.292" fill="#F19849" stroke="#F19849" stroke-miterlimit="10" width="2.708" height="2.666"/>
<rect x="5.917" y="16.583" fill="#F19849" stroke="#F19849" stroke-miterlimit="10" width="2.708" height="2.668"/>
<rect x="5.917" y="13.917" fill="#F19849" stroke="#F19849" stroke-miterlimit="10" width="2.708" height="2.666"/>
<rect x="5.917" y="11.25" fill="#F19849" stroke="#F19849" stroke-miterlimit="10" width="2.708" height="2.667"/>
<rect x="5.917" y="8.542" fill="#F19849" stroke="#F19849" stroke-miterlimit="10" width="2.708" height="2.667"/>
<rect x="5.917" y="5.875" fill="#F19849" stroke="#F19849" stroke-miterlimit="10" width="2.708" height="2.667"/>
<rect x="3.208" y="19.292" fill="#F19849" stroke="#F19849" stroke-miterlimit="10" width="2.708" height="2.666"/>
<rect x="3.208" y="16.583" fill="#F19849" stroke="#F19849" stroke-miterlimit="10" width="2.708" height="2.668"/>
<rect x="3.208" y="13.917" fill="#F19849" stroke="#F19849" stroke-miterlimit="10" width="2.708" height="2.666"/>
<rect x="3.208" y="11.25" fill="#F19849" stroke="#F19849" stroke-miterlimit="10" width="2.708" height="2.667"/>
<rect x="3.208" y="8.542" fill="#F19849" stroke="#F19849" stroke-miterlimit="10" width="2.708" height="2.667"/>
<rect x="3.208" y="5.875" fill="#F19849" stroke="#F19849" stroke-miterlimit="10" width="2.708" height="2.667"/>
<rect x="0.5" y="16.583" fill="#F19849" stroke="#F19849" stroke-miterlimit="10" width="2.708" height="2.668"/>
<rect x="0.5" y="13.917" fill="#F19849" stroke="#F19849" stroke-miterlimit="10" width="2.708" height="2.666"/>
<rect x="0.5" y="11.25" fill="#F19849" stroke="#F19849" stroke-miterlimit="10" width="2.708" height="2.667"/>
<rect x="0.5" y="8.542" fill="#F19849" stroke="#F19849" stroke-miterlimit="10" width="2.708" height="2.667"/>
</svg>
