<?xml version="1.0" encoding="utf-8"?>
<!-- Generator: Adobe Illustrator 16.0.0, SVG Export Plug-In . SVG Version: 6.00 Build 0)  -->
<!DOCTYPE svg PUBLIC "-//W3C//DTD SVG 1.1//EN" "http://www.w3.org/Graphics/SVG/1.1/DTD/svg11.dtd">
<svg version="1.1" id="Layer_1" xmlns="http://www.w3.org/2000/svg" xmlns:xlink="http://www.w3.org/1999/xlink" x="0px" y="0px"
	 width="90.125px" height="17.083px" viewBox="0 0 90.125 17.083" enable-background="new 0 0 90.125 17.083" xml:space="preserve">
<rect x="86.916" y="11.25" fill="#F19849" stroke="#F19849" stroke-miterlimit="10" width="2.709" height="2.668"/>
<rect x="86.916" y="8.542" fill="#F19849" stroke="#F19849" stroke-miterlimit="10" width="2.709" height="2.667"/>
<rect x="84.209" y="11.25" fill="#F3AD68" stroke="#F2AD68" stroke-miterlimit="10" width="2.707" height="2.668"/>
<rect x="84.209" y="8.542" fill="#F19849" stroke="#F19849" stroke-miterlimit="10" width="2.707" height="2.667"/>
<rect x="84.209" y="5.875" fill="#F19849" stroke="#F19849" stroke-miterlimit="10" width="2.707" height="2.667"/>
<rect x="81.541" y="11.25" fill="#F3AD68" stroke="#F2AD68" stroke-miterlimit="10" width="2.709" height="2.668"/>
<rect x="81.541" y="8.542" fill="#F19849" stroke="#F19849" stroke-miterlimit="10" width="2.709" height="2.667"/>
<rect x="81.541" y="5.875" fill="#F19849" stroke="#F19849" stroke-miterlimit="10" width="2.709" height="2.667"/>
<rect x="78.834" y="11.25" fill="#F3AD68" stroke="#F2AD68" stroke-miterlimit="10" width="2.707" height="2.668"/>
<rect x="78.834" y="8.542" fill="#F19849" stroke="#F19849" stroke-miterlimit="10" width="2.707" height="2.667"/>
<rect x="78.834" y="5.875" fill="#F19849" stroke="#F19849" stroke-miterlimit="10" width="2.707" height="2.667"/>
<rect x="76.125" y="11.25" fill="#F3AD68" stroke="#F2AD68" stroke-miterlimit="10" width="2.709" height="2.668"/>
<rect x="76.125" y="8.542" fill="#F19849" stroke="#F19849" stroke-miterlimit="10" width="2.709" height="2.667"/>
<rect x="76.125" y="5.875" fill="#F19849" stroke="#F19849" stroke-miterlimit="10" width="2.709" height="2.667"/>
<rect x="76.125" y="3.167" fill="#F19849" stroke="#F19849" stroke-miterlimit="10" width="2.709" height="2.667"/>
<rect x="73.416" y="11.25" fill="#F3AD68" stroke="#F2AD68" stroke-miterlimit="10" width="2.709" height="2.668"/>
<rect x="73.416" y="8.542" fill="#F19849" stroke="#F19849" stroke-miterlimit="10" width="2.709" height="2.667"/>
<rect x="73.416" y="5.875" fill="#F19849" stroke="#F19849" stroke-miterlimit="10" width="2.709" height="2.667"/>
<rect x="73.416" y="3.167" fill="#F19849" stroke="#F19849" stroke-miterlimit="10" width="2.709" height="2.667"/>
<rect x="70.709" y="11.25" fill="#F3AD68" stroke="#F2AD68" stroke-miterlimit="10" width="2.707" height="2.668"/>
<rect x="70.709" y="8.542" fill="#F19849" stroke="#F19849" stroke-miterlimit="10" width="2.707" height="2.667"/>
<rect x="70.709" y="5.875" fill="#F19849" stroke="#F19849" stroke-miterlimit="10" width="2.707" height="2.667"/>
<rect x="70.709" y="3.167" fill="#F19849" stroke="#F19849" stroke-miterlimit="10" width="2.707" height="2.667"/>
<rect x="68.041" y="11.25" fill="#F3AD68" stroke="#F2AD68" stroke-miterlimit="10" width="2.709" height="2.668"/>
<rect x="68.041" y="8.542" fill="#F3AD68" stroke="#F2AD68" stroke-miterlimit="10" width="2.709" height="2.667"/>
<rect x="68.041" y="5.875" fill="#F19849" stroke="#F19849" stroke-miterlimit="10" width="2.709" height="2.667"/>
<rect x="68.041" y="3.167" fill="#F19849" stroke="#F19849" stroke-miterlimit="10" width="2.709" height="2.667"/>
<rect x="65.334" y="11.25" fill="#F3AD68" stroke="#F2AD68" stroke-miterlimit="10" width="2.707" height="2.668"/>
<rect x="65.334" y="8.542" fill="#F3AD68" stroke="#F2AD68" stroke-miterlimit="10" width="2.707" height="2.667"/>
<rect x="65.334" y="5.875" fill="#F19849" stroke="#F19849" stroke-miterlimit="10" width="2.707" height="2.667"/>
<rect x="65.334" y="3.167" fill="#F19849" stroke="#F19849" stroke-miterlimit="10" width="2.707" height="2.667"/>
<rect x="62.625" y="11.25" fill="#F3AD68" stroke="#F2AD68" stroke-miterlimit="10" width="2.709" height="2.668"/>
<rect x="62.625" y="8.542" fill="#F3AD68" stroke="#F2AD68" stroke-miterlimit="10" width="2.709" height="2.667"/>
<rect x="62.625" y="5.875" fill="#F19849" stroke="#F19849" stroke-miterlimit="10" width="2.709" height="2.667"/>
<rect x="62.625" y="3.167" fill="#F19849" stroke="#F19849" stroke-miterlimit="10" width="2.709" height="2.667"/>
<rect x="59.916" y="8.542" fill="#F3AD68" stroke="#F2AD68" stroke-miterlimit="10" width="2.709" height="2.667"/>
<rect x="59.916" y="5.875" fill="#F19849" stroke="#F19849" stroke-miterlimit="10" width="2.709" height="2.667"/>
<rect x="59.916" y="3.167" fill="#F19849" stroke="#F19849" stroke-miterlimit="10" width="2.709" height="2.667"/>
<rect x="57.209" y="8.542" fill="#F3AD68" stroke="#F2AD68" stroke-miterlimit="10" width="2.707" height="2.667"/>
<rect x="57.209" y="5.875" fill="#F19849" stroke="#F19849" stroke-miterlimit="10" width="2.707" height="2.667"/>
<rect x="57.209" y="3.167" fill="#F19849" stroke="#F19849" stroke-miterlimit="10" width="2.707" height="2.667"/>
<rect x="54.541" y="8.542" fill="#F3AD68" stroke="#F2AD68" stroke-miterlimit="10" width="2.709" height="2.667"/>
<rect x="54.541" y="5.875" fill="#F19849" stroke="#F19849" stroke-miterlimit="10" width="2.709" height="2.667"/>
<rect x="54.541" y="3.167" fill="#F19849" stroke="#F19849" stroke-miterlimit="10" width="2.709" height="2.667"/>
<rect x="51.834" y="11.25" fill="#F3AD68" stroke="#F2AD68" stroke-miterlimit="10" width="2.707" height="2.668"/>
<rect x="51.834" y="8.542" fill="#F3AD68" stroke="#F2AD68" stroke-miterlimit="10" width="2.707" height="2.667"/>
<rect x="51.834" y="5.875" fill="#F19849" stroke="#F19849" stroke-miterlimit="10" width="2.707" height="2.667"/>
<rect x="49.125" y="11.25" fill="#F3AD68" stroke="#F2AD68" stroke-miterlimit="10" width="2.709" height="2.668"/>
<rect x="49.125" y="8.542" fill="#F19849" stroke="#F19849" stroke-miterlimit="10" width="2.709" height="2.667"/>
<rect x="49.125" y="5.875" fill="#F19849" stroke="#F19849" stroke-miterlimit="10" width="2.709" height="2.667"/>
<rect x="46.416" y="11.25" fill="#F3AD68" stroke="#F2AD68" stroke-miterlimit="10" width="2.709" height="2.668"/>
<rect x="46.416" y="8.542" fill="#F19849" stroke="#F19849" stroke-miterlimit="10" width="2.709" height="2.667"/>
<rect x="46.416" y="5.875" fill="#F19849" stroke="#F19849" stroke-miterlimit="10" width="2.709" height="2.667"/>
<rect x="43.708" y="11.25" fill="#F3AD68" stroke="#F2AD68" stroke-miterlimit="10" width="2.708" height="2.668"/>
<rect x="43.708" y="8.542" fill="#F19849" stroke="#F19849" stroke-miterlimit="10" width="2.708" height="2.667"/>
<rect x="43.708" y="5.875" fill="#F19849" stroke="#F19849" stroke-miterlimit="10" width="2.708" height="2.667"/>
<rect x="41" y="13.917" fill="#F3AD68" stroke="#F2AD68" stroke-miterlimit="10" width="2.708" height="2.666"/>
<rect x="41" y="11.25" fill="#F3AD68" stroke="#F2AD68" stroke-miterlimit="10" width="2.708" height="2.668"/>
<rect x="41" y="8.542" fill="#F19849" stroke="#F19849" stroke-miterlimit="10" width="2.708" height="2.667"/>
<rect x="41" y="5.875" fill="#F19849" stroke="#F19849" stroke-miterlimit="10" width="2.708" height="2.667"/>
<rect x="38.333" y="13.917" fill="#F3AD68" stroke="#F2AD68" stroke-miterlimit="10" width="2.708" height="2.666"/>
<rect x="38.333" y="11.25" fill="#F19849" stroke="#F19849" stroke-miterlimit="10" width="2.708" height="2.668"/>
<rect x="38.333" y="8.542" fill="#F19849" stroke="#F19849" stroke-miterlimit="10" width="2.708" height="2.667"/>
<rect x="38.333" y="5.875" fill="#F19849" stroke="#F19849" stroke-miterlimit="10" width="2.708" height="2.667"/>
<rect x="35.625" y="13.917" fill="#F19849" stroke="#F19849" stroke-miterlimit="10" width="2.708" height="2.666"/>
<rect x="35.625" y="11.25" fill="#F19849" stroke="#F19849" stroke-miterlimit="10" width="2.708" height="2.668"/>
<rect x="35.625" y="8.542" fill="#F19849" stroke="#F19849" stroke-miterlimit="10" width="2.708" height="2.667"/>
<rect x="35.625" y="5.875" fill="#F19849" stroke="#F19849" stroke-miterlimit="10" width="2.708" height="2.667"/>
<rect x="32.917" y="13.917" fill="#F19849" stroke="#F19849" stroke-miterlimit="10" width="2.708" height="2.666"/>
<rect x="32.917" y="11.25" fill="#F19849" stroke="#F19849" stroke-miterlimit="10" width="2.708" height="2.668"/>
<rect x="32.917" y="8.542" fill="#F19849" stroke="#F19849" stroke-miterlimit="10" width="2.708" height="2.667"/>
<rect x="32.917" y="5.875" fill="#F19849" stroke="#F19849" stroke-miterlimit="10" width="2.708" height="2.667"/>
<rect x="30.208" y="13.917" fill="#F19849" stroke="#F19849" stroke-miterlimit="10" width="2.708" height="2.666"/>
<rect x="30.208" y="11.25" fill="#F19849" stroke="#F19849" stroke-miterlimit="10" width="2.708" height="2.668"/>
<rect x="30.208" y="8.542" fill="#F19849" stroke="#F19849" stroke-miterlimit="10" width="2.708" height="2.667"/>
<rect x="30.208" y="5.875" fill="#F19849" stroke="#F19849" stroke-miterlimit="10" width="2.708" height="2.667"/>
<rect x="27.5" y="13.917" fill="#F19849" stroke="#F19849" stroke-miterlimit="10" width="2.708" height="2.666"/>
<rect x="27.5" y="11.25" fill="#F19849" stroke="#F19849" stroke-miterlimit="10" width="2.708" height="2.668"/>
<rect x="27.5" y="8.542" fill="#F19849" stroke="#F19849" stroke-miterlimit="10" width="2.708" height="2.667"/>
<rect x="27.5" y="5.875" fill="#F19849" stroke="#F19849" stroke-miterlimit="10" width="2.708" height="2.667"/>
<rect x="24.833" y="11.25" fill="#F19849" stroke="#F19849" stroke-miterlimit="10" width="2.708" height="2.668"/>
<rect x="24.833" y="8.542" fill="#F19849" stroke="#F19849" stroke-miterlimit="10" width="2.708" height="2.667"/>
<rect x="24.833" y="5.875" fill="#F19849" stroke="#F19849" stroke-miterlimit="10" width="2.708" height="2.667"/>
<rect x="24.833" y="3.167" fill="#F19849" stroke="#F19849" stroke-miterlimit="10" width="2.708" height="2.667"/>
<rect x="22.125" y="11.25" fill="#F19849" stroke="#F19849" stroke-miterlimit="10" width="2.708" height="2.668"/>
<rect x="22.125" y="8.542" fill="#F19849" stroke="#F19849" stroke-miterlimit="10" width="2.708" height="2.667"/>
<rect x="22.125" y="5.875" fill="#F19849" stroke="#F19849" stroke-miterlimit="10" width="2.708" height="2.667"/>
<rect x="22.125" y="3.167" fill="#F19849" stroke="#F19849" stroke-miterlimit="10" width="2.708" height="2.667"/>
<rect x="19.417" y="11.25" fill="#F19849" stroke="#F19849" stroke-miterlimit="10" width="2.708" height="2.668"/>
<rect x="19.417" y="8.542" fill="#F19849" stroke="#F19849" stroke-miterlimit="10" width="2.708" height="2.667"/>
<rect x="19.417" y="5.875" fill="#F19849" stroke="#F19849" stroke-miterlimit="10" width="2.708" height="2.667"/>
<rect x="19.417" y="3.167" fill="#F19849" stroke="#F19849" stroke-miterlimit="10" width="2.708" height="2.667"/>
<rect x="16.708" y="8.542" fill="#F19849" stroke="#F19849" stroke-miterlimit="10" width="2.708" height="2.667"/>
<rect x="16.708" y="5.875" fill="#F19849" stroke="#F19849" stroke-miterlimit="10" width="2.708" height="2.667"/>
<rect x="16.708" y="3.167" fill="#F19849" stroke="#F19849" stroke-miterlimit="10" width="2.708" height="2.667"/>
<rect x="14" y="8.542" fill="#F19849" stroke="#F19849" stroke-miterlimit="10" width="2.708" height="2.667"/>
<rect x="14" y="5.875" fill="#F19849" stroke="#F19849" stroke-miterlimit="10" width="2.708" height="2.667"/>
<rect x="14" y="3.167" fill="#F19849" stroke="#F19849" stroke-miterlimit="10" width="2.708" height="2.667"/>
<rect x="14" y="0.5" fill="#F19849" stroke="#F19849" stroke-miterlimit="10" width="2.708" height="2.667"/>
<rect x="11.292" y="8.542" fill="#F19849" stroke="#F19849" stroke-miterlimit="10" width="2.708" height="2.667"/>
<rect x="11.292" y="5.875" fill="#F19849" stroke="#F19849" stroke-miterlimit="10" width="2.708" height="2.667"/>
<rect x="11.292" y="3.167" fill="#F19849" stroke="#F19849" stroke-miterlimit="10" width="2.708" height="2.667"/>
<rect x="11.292" y="0.5" fill="#F19849" stroke="#F19849" stroke-miterlimit="10" width="2.708" height="2.667"/>
<rect x="8.625" y="8.542" fill="#F19849" stroke="#F19849" stroke-miterlimit="10" width="2.708" height="2.667"/>
<rect x="8.625" y="5.875" fill="#F19849" stroke="#F19849" stroke-miterlimit="10" width="2.708" height="2.667"/>
<rect x="8.625" y="3.167" fill="#F19849" stroke="#F19849" stroke-miterlimit="10" width="2.708" height="2.667"/>
<rect x="8.625" y="0.5" fill="#F19849" stroke="#F19849" stroke-miterlimit="10" width="2.708" height="2.667"/>
<rect x="5.917" y="8.542" fill="#F19849" stroke="#F19849" stroke-miterlimit="10" width="2.708" height="2.667"/>
<rect x="5.917" y="5.875" fill="#F19849" stroke="#F19849" stroke-miterlimit="10" width="2.708" height="2.667"/>
<rect x="5.917" y="3.167" fill="#F19849" stroke="#F19849" stroke-miterlimit="10" width="2.708" height="2.667"/>
<rect x="5.917" y="0.5" fill="#F19849" stroke="#F19849" stroke-miterlimit="10" width="2.708" height="2.667"/>
<rect x="3.208" y="8.542" fill="#F19849" stroke="#F19849" stroke-miterlimit="10" width="2.708" height="2.667"/>
<rect x="3.208" y="5.875" fill="#F19849" stroke="#F19849" stroke-miterlimit="10" width="2.708" height="2.667"/>
<rect x="3.208" y="3.167" fill="#F19849" stroke="#F19849" stroke-miterlimit="10" width="2.708" height="2.667"/>
<rect x="3.208" y="0.5" fill="#F19849" stroke="#F19849" stroke-miterlimit="10" width="2.708" height="2.667"/>
<rect x="0.5" y="5.875" fill="#F19849" stroke="#F19849" stroke-miterlimit="10" width="2.708" height="2.667"/>
<rect x="0.5" y="3.167" fill="#F19849" stroke="#F19849" stroke-miterlimit="10" width="2.708" height="2.667"/>
</svg>
