<?xml version="1.0" encoding="utf-8"?>
<!-- Generator: Adobe Illustrator 16.0.0, SVG Export Plug-In . SVG Version: 6.00 Build 0)  -->
<!DOCTYPE svg PUBLIC "-//W3C//DTD SVG 1.1//EN" "http://www.w3.org/Graphics/SVG/1.1/DTD/svg11.dtd">
<svg version="1.1" id="Layer_1" xmlns="http://www.w3.org/2000/svg" xmlns:xlink="http://www.w3.org/1999/xlink" x="0px" y="0px"
	 width="133.333px" height="41.25px" viewBox="0 0 133.333 41.25" enable-background="new 0 0 133.333 41.25" xml:space="preserve">
<rect x="130.125" y="21.958" fill="#F3AD68" stroke="#F2AD68" stroke-miterlimit="10" width="2.708" height="2.668"/>
<rect x="130.125" y="19.292" fill="#F3AD68" stroke="#F2AD68" stroke-miterlimit="10" width="2.708" height="2.666"/>
<rect x="130.125" y="16.625" fill="#F3AD68" stroke="#F2AD68" stroke-miterlimit="10" width="2.708" height="2.667"/>
<rect x="130.125" y="13.917" fill="#F19849" stroke="#F19849" stroke-miterlimit="10" width="2.708" height="2.667"/>
<rect x="127.458" y="24.667" fill="#F3AD68" stroke="#F2AD68" stroke-miterlimit="10" width="2.709" height="2.666"/>
<rect x="127.458" y="21.958" fill="#F3AD68" stroke="#F2AD68" stroke-miterlimit="10" width="2.709" height="2.668"/>
<rect x="127.458" y="19.292" fill="#F19849" stroke="#F19849" stroke-miterlimit="10" width="2.709" height="2.666"/>
<rect x="127.458" y="16.625" fill="#F19849" stroke="#F19849" stroke-miterlimit="10" width="2.709" height="2.667"/>
<rect x="127.458" y="13.917" fill="#F19849" stroke="#F19849" stroke-miterlimit="10" width="2.709" height="2.667"/>
<rect x="127.458" y="11.25" fill="#F19849" stroke="#F19849" stroke-miterlimit="10" width="2.709" height="2.667"/>
<rect x="124.75" y="24.667" fill="#F3AD68" stroke="#F2AD68" stroke-miterlimit="10" width="2.708" height="2.666"/>
<rect x="124.75" y="21.958" fill="#F19849" stroke="#F19849" stroke-miterlimit="10" width="2.708" height="2.668"/>
<rect x="124.75" y="19.292" fill="#F19849" stroke="#F19849" stroke-miterlimit="10" width="2.708" height="2.666"/>
<rect x="124.75" y="16.625" fill="#F19849" stroke="#F19849" stroke-miterlimit="10" width="2.708" height="2.667"/>
<rect x="124.75" y="13.917" fill="#F19849" stroke="#F19849" stroke-miterlimit="10" width="2.708" height="2.667"/>
<rect x="124.75" y="11.25" fill="#F19849" stroke="#F19849" stroke-miterlimit="10" width="2.708" height="2.667"/>
<rect x="122.042" y="27.333" fill="#F3AD68" stroke="#F2AD68" stroke-miterlimit="10" width="2.708" height="2.668"/>
<rect x="122.042" y="24.667" fill="#F3AD68" stroke="#F2AD68" stroke-miterlimit="10" width="2.708" height="2.666"/>
<rect x="122.042" y="21.958" fill="#F19849" stroke="#F19849" stroke-miterlimit="10" width="2.708" height="2.668"/>
<rect x="122.042" y="19.292" fill="#F19849" stroke="#F19849" stroke-miterlimit="10" width="2.708" height="2.666"/>
<rect x="122.042" y="16.625" fill="#F19849" stroke="#F19849" stroke-miterlimit="10" width="2.708" height="2.667"/>
<rect x="122.042" y="13.917" fill="#F19849" stroke="#F19849" stroke-miterlimit="10" width="2.708" height="2.667"/>
<rect x="122.042" y="11.25" fill="#F19849" stroke="#F19849" stroke-miterlimit="10" width="2.708" height="2.667"/>
<rect x="119.333" y="30.042" fill="#F3AD68" stroke="#F2AD68" stroke-miterlimit="10" width="2.709" height="2.666"/>
<rect x="119.333" y="27.333" fill="#F3AD68" stroke="#F2AD68" stroke-miterlimit="10" width="2.709" height="2.668"/>
<rect x="119.333" y="24.667" fill="#F19849" stroke="#F19849" stroke-miterlimit="10" width="2.709" height="2.666"/>
<rect x="119.333" y="21.958" fill="#F19849" stroke="#F19849" stroke-miterlimit="10" width="2.709" height="2.668"/>
<rect x="119.333" y="19.292" fill="#F19849" stroke="#F19849" stroke-miterlimit="10" width="2.709" height="2.666"/>
<rect x="119.333" y="16.625" fill="#F19849" stroke="#F19849" stroke-miterlimit="10" width="2.709" height="2.667"/>
<rect x="119.333" y="13.917" fill="#F19849" stroke="#F19849" stroke-miterlimit="10" width="2.709" height="2.667"/>
<rect x="119.333" y="11.25" fill="#F19849" stroke="#F19849" stroke-miterlimit="10" width="2.709" height="2.667"/>
<rect x="116.625" y="32.708" fill="#F3AD68" stroke="#F2AD68" stroke-miterlimit="10" width="2.708" height="2.668"/>
<rect x="116.625" y="30.042" fill="#F3AD68" stroke="#F2AD68" stroke-miterlimit="10" width="2.708" height="2.666"/>
<rect x="116.625" y="27.333" fill="#F19849" stroke="#F19849" stroke-miterlimit="10" width="2.708" height="2.668"/>
<rect x="116.625" y="24.667" fill="#F19849" stroke="#F19849" stroke-miterlimit="10" width="2.708" height="2.666"/>
<rect x="116.625" y="21.958" fill="#F19849" stroke="#F19849" stroke-miterlimit="10" width="2.708" height="2.668"/>
<rect x="116.625" y="19.292" fill="#F19849" stroke="#F19849" stroke-miterlimit="10" width="2.708" height="2.666"/>
<rect x="116.625" y="16.625" fill="#F19849" stroke="#F19849" stroke-miterlimit="10" width="2.708" height="2.667"/>
<rect x="116.625" y="13.917" fill="#F19849" stroke="#F19849" stroke-miterlimit="10" width="2.708" height="2.667"/>
<rect x="116.625" y="11.25" fill="#F19849" stroke="#F19849" stroke-miterlimit="10" width="2.708" height="2.667"/>
<rect x="113.917" y="35.375" fill="#F3AD68" stroke="#F2AD68" stroke-miterlimit="10" width="2.708" height="2.666"/>
<rect x="113.917" y="32.708" fill="#F3AD68" stroke="#F2AD68" stroke-miterlimit="10" width="2.708" height="2.668"/>
<rect x="113.917" y="30.042" fill="#F3AD68" stroke="#F2AD68" stroke-miterlimit="10" width="2.708" height="2.666"/>
<rect x="113.917" y="27.333" fill="#F19849" stroke="#F19849" stroke-miterlimit="10" width="2.708" height="2.668"/>
<rect x="113.917" y="24.667" fill="#F19849" stroke="#F19849" stroke-miterlimit="10" width="2.708" height="2.666"/>
<rect x="113.917" y="21.958" fill="#F19849" stroke="#F19849" stroke-miterlimit="10" width="2.708" height="2.668"/>
<rect x="113.917" y="19.292" fill="#F19849" stroke="#F19849" stroke-miterlimit="10" width="2.708" height="2.666"/>
<rect x="113.917" y="16.625" fill="#F19849" stroke="#F19849" stroke-miterlimit="10" width="2.708" height="2.667"/>
<rect x="113.917" y="13.917" fill="#F19849" stroke="#F19849" stroke-miterlimit="10" width="2.708" height="2.667"/>
<rect x="113.917" y="11.25" fill="#F19849" stroke="#F19849" stroke-miterlimit="10" width="2.708" height="2.667"/>
<rect x="111.25" y="38.083" fill="#F3AD68" stroke="#F2AD68" stroke-miterlimit="10" width="2.708" height="2.668"/>
<rect x="111.25" y="35.375" fill="#F3AD68" stroke="#F2AD68" stroke-miterlimit="10" width="2.708" height="2.666"/>
<rect x="111.25" y="32.708" fill="#F19849" stroke="#F19849" stroke-miterlimit="10" width="2.708" height="2.668"/>
<rect x="111.25" y="30.042" fill="#F19849" stroke="#F19849" stroke-miterlimit="10" width="2.708" height="2.666"/>
<rect x="111.25" y="27.333" fill="#F19849" stroke="#F19849" stroke-miterlimit="10" width="2.708" height="2.668"/>
<rect x="111.25" y="24.667" fill="#F19849" stroke="#F19849" stroke-miterlimit="10" width="2.708" height="2.666"/>
<rect x="111.25" y="21.958" fill="#F19849" stroke="#F19849" stroke-miterlimit="10" width="2.708" height="2.668"/>
<rect x="111.25" y="19.292" fill="#F19849" stroke="#F19849" stroke-miterlimit="10" width="2.708" height="2.666"/>
<rect x="111.25" y="16.625" fill="#F19849" stroke="#F19849" stroke-miterlimit="10" width="2.708" height="2.667"/>
<rect x="111.25" y="13.917" fill="#F19849" stroke="#F19849" stroke-miterlimit="10" width="2.708" height="2.667"/>
<rect x="111.25" y="11.25" fill="#F19849" stroke="#F19849" stroke-miterlimit="10" width="2.708" height="2.667"/>
<rect x="108.542" y="38.083" fill="#F3AD68" stroke="#F2AD68" stroke-miterlimit="10" width="2.708" height="2.668"/>
<rect x="108.542" y="35.375" fill="#F3AD68" stroke="#F2AD68" stroke-miterlimit="10" width="2.708" height="2.666"/>
<rect x="108.542" y="32.708" fill="#F19849" stroke="#F19849" stroke-miterlimit="10" width="2.708" height="2.668"/>
<rect x="108.542" y="30.042" fill="#F19849" stroke="#F19849" stroke-miterlimit="10" width="2.708" height="2.666"/>
<rect x="108.542" y="27.333" fill="#F19849" stroke="#F19849" stroke-miterlimit="10" width="2.708" height="2.668"/>
<rect x="108.542" y="24.667" fill="#F19849" stroke="#F19849" stroke-miterlimit="10" width="2.708" height="2.666"/>
<rect x="108.542" y="21.958" fill="#F19849" stroke="#F19849" stroke-miterlimit="10" width="2.708" height="2.668"/>
<rect x="108.542" y="19.292" fill="#F3AD68" stroke="#F2AD68" stroke-miterlimit="10" width="2.708" height="2.666"/>
<rect x="108.542" y="16.625" fill="#F19849" stroke="#F19849" stroke-miterlimit="10" width="2.708" height="2.667"/>
<rect x="108.542" y="13.917" fill="#F19849" stroke="#F19849" stroke-miterlimit="10" width="2.708" height="2.667"/>
<rect x="108.542" y="11.25" fill="#F19849" stroke="#F19849" stroke-miterlimit="10" width="2.708" height="2.667"/>
<rect x="105.833" y="35.375" fill="#F3AD68" stroke="#F2AD68" stroke-miterlimit="10" width="2.709" height="2.666"/>
<rect x="105.833" y="32.708" fill="#F19849" stroke="#F19849" stroke-miterlimit="10" width="2.709" height="2.668"/>
<rect x="105.833" y="30.042" fill="#F19849" stroke="#F19849" stroke-miterlimit="10" width="2.709" height="2.666"/>
<rect x="105.833" y="27.333" fill="#F19849" stroke="#F19849" stroke-miterlimit="10" width="2.709" height="2.668"/>
<rect x="105.833" y="24.667" fill="#F19849" stroke="#F19849" stroke-miterlimit="10" width="2.709" height="2.666"/>
<rect x="105.833" y="21.958" fill="#F19849" stroke="#F19849" stroke-miterlimit="10" width="2.709" height="2.668"/>
<rect x="105.833" y="19.292" fill="#F3AD68" stroke="#F2AD68" stroke-miterlimit="10" width="2.709" height="2.666"/>
<rect x="105.833" y="16.625" fill="#F19849" stroke="#F19849" stroke-miterlimit="10" width="2.709" height="2.667"/>
<rect x="105.833" y="13.917" fill="#F19849" stroke="#F19849" stroke-miterlimit="10" width="2.709" height="2.667"/>
<rect x="105.833" y="11.25" fill="#F19849" stroke="#F19849" stroke-miterlimit="10" width="2.709" height="2.667"/>
<rect x="103.125" y="35.375" fill="#F3AD68" stroke="#F2AD68" stroke-miterlimit="10" width="2.708" height="2.666"/>
<rect x="103.125" y="32.708" fill="#F19849" stroke="#F19849" stroke-miterlimit="10" width="2.708" height="2.668"/>
<rect x="103.125" y="30.042" fill="#F19849" stroke="#F19849" stroke-miterlimit="10" width="2.708" height="2.666"/>
<rect x="103.125" y="27.333" fill="#F19849" stroke="#F19849" stroke-miterlimit="10" width="2.708" height="2.668"/>
<rect x="103.125" y="24.667" fill="#F19849" stroke="#F19849" stroke-miterlimit="10" width="2.708" height="2.666"/>
<rect x="103.125" y="21.958" fill="#F3AD68" stroke="#F2AD68" stroke-miterlimit="10" width="2.708" height="2.668"/>
<rect x="103.125" y="19.292" fill="#F3AD68" stroke="#F2AD68" stroke-miterlimit="10" width="2.708" height="2.666"/>
<rect x="103.125" y="16.625" fill="#F19849" stroke="#F19849" stroke-miterlimit="10" width="2.708" height="2.667"/>
<rect x="103.125" y="13.917" fill="#F19849" stroke="#F19849" stroke-miterlimit="10" width="2.708" height="2.667"/>
<rect x="103.125" y="11.25" fill="#F19849" stroke="#F19849" stroke-miterlimit="10" width="2.708" height="2.667"/>
<rect x="100.417" y="35.375" fill="#F3AD68" stroke="#F2AD68" stroke-miterlimit="10" width="2.708" height="2.666"/>
<rect x="100.417" y="32.708" fill="#F19849" stroke="#F19849" stroke-miterlimit="10" width="2.708" height="2.668"/>
<rect x="100.417" y="30.042" fill="#F19849" stroke="#F19849" stroke-miterlimit="10" width="2.708" height="2.666"/>
<rect x="100.417" y="27.333" fill="#F19849" stroke="#F19849" stroke-miterlimit="10" width="2.708" height="2.668"/>
<rect x="100.417" y="24.667" fill="#F19849" stroke="#F19849" stroke-miterlimit="10" width="2.708" height="2.666"/>
<rect x="100.417" y="21.958" fill="#F3AD68" stroke="#F2AD68" stroke-miterlimit="10" width="2.708" height="2.668"/>
<rect x="100.417" y="19.292" fill="#F19849" stroke="#F19849" stroke-miterlimit="10" width="2.708" height="2.666"/>
<rect x="100.417" y="16.625" fill="#F19849" stroke="#F19849" stroke-miterlimit="10" width="2.708" height="2.667"/>
<rect x="100.417" y="13.917" fill="#F19849" stroke="#F19849" stroke-miterlimit="10" width="2.708" height="2.667"/>
<rect x="100.417" y="11.25" fill="#F19849" stroke="#F19849" stroke-miterlimit="10" width="2.708" height="2.667"/>
<rect x="97.75" y="38.083" fill="#F3AD68" stroke="#F2AD68" stroke-miterlimit="10" width="2.708" height="2.668"/>
<rect x="97.75" y="35.375" fill="#F3AD68" stroke="#F2AD68" stroke-miterlimit="10" width="2.708" height="2.666"/>
<rect x="97.75" y="32.708" fill="#F19849" stroke="#F19849" stroke-miterlimit="10" width="2.708" height="2.668"/>
<rect x="97.75" y="30.042" fill="#F19849" stroke="#F19849" stroke-miterlimit="10" width="2.708" height="2.666"/>
<rect x="97.75" y="27.333" fill="#F19849" stroke="#F19849" stroke-miterlimit="10" width="2.708" height="2.668"/>
<rect x="97.75" y="24.667" fill="#F19849" stroke="#F19849" stroke-miterlimit="10" width="2.708" height="2.666"/>
<rect x="97.75" y="21.958" fill="#F3AD68" stroke="#F2AD68" stroke-miterlimit="10" width="2.708" height="2.668"/>
<rect x="97.75" y="19.292" fill="#F19849" stroke="#F19849" stroke-miterlimit="10" width="2.708" height="2.666"/>
<rect x="97.75" y="16.625" fill="#F19849" stroke="#F19849" stroke-miterlimit="10" width="2.708" height="2.667"/>
<rect x="97.75" y="13.917" fill="#F19849" stroke="#F19849" stroke-miterlimit="10" width="2.708" height="2.667"/>
<rect x="95.042" y="38.083" fill="#F3AD68" stroke="#F2AD68" stroke-miterlimit="10" width="2.708" height="2.668"/>
<rect x="95.042" y="35.375" fill="#F19849" stroke="#F19849" stroke-miterlimit="10" width="2.708" height="2.666"/>
<rect x="95.042" y="32.708" fill="#F19849" stroke="#F19849" stroke-miterlimit="10" width="2.708" height="2.668"/>
<rect x="95.042" y="30.042" fill="#F19849" stroke="#F19849" stroke-miterlimit="10" width="2.708" height="2.666"/>
<rect x="95.042" y="27.333" fill="#F19849" stroke="#F19849" stroke-miterlimit="10" width="2.708" height="2.668"/>
<rect x="95.042" y="24.667" fill="#F19849" stroke="#F19849" stroke-miterlimit="10" width="2.708" height="2.666"/>
<rect x="95.042" y="21.958" fill="#F3AD68" stroke="#F2AD68" stroke-miterlimit="10" width="2.708" height="2.668"/>
<rect x="95.042" y="19.292" fill="#F19849" stroke="#F19849" stroke-miterlimit="10" width="2.708" height="2.666"/>
<rect x="95.042" y="16.625" fill="#F19849" stroke="#F19849" stroke-miterlimit="10" width="2.708" height="2.667"/>
<rect x="95.042" y="13.917" fill="#F19849" stroke="#F19849" stroke-miterlimit="10" width="2.708" height="2.667"/>
<rect x="92.333" y="38.083" fill="#F3AD68" stroke="#F2AD68" stroke-miterlimit="10" width="2.709" height="2.668"/>
<rect x="92.333" y="35.375" fill="#F19849" stroke="#F19849" stroke-miterlimit="10" width="2.709" height="2.666"/>
<rect x="92.333" y="32.708" fill="#F19849" stroke="#F19849" stroke-miterlimit="10" width="2.709" height="2.668"/>
<rect x="92.333" y="30.042" fill="#F19849" stroke="#F19849" stroke-miterlimit="10" width="2.709" height="2.666"/>
<rect x="92.333" y="27.333" fill="#F19849" stroke="#F19849" stroke-miterlimit="10" width="2.709" height="2.668"/>
<rect x="92.333" y="24.667" fill="#F3AD68" stroke="#F2AD68" stroke-miterlimit="10" width="2.709" height="2.666"/>
<rect x="92.333" y="21.958" fill="#F3AD68" stroke="#F2AD68" stroke-miterlimit="10" width="2.709" height="2.668"/>
<rect x="92.333" y="19.292" fill="#F19849" stroke="#F19849" stroke-miterlimit="10" width="2.709" height="2.666"/>
<rect x="92.333" y="16.625" fill="#F19849" stroke="#F19849" stroke-miterlimit="10" width="2.709" height="2.667"/>
<rect x="92.333" y="13.917" fill="#F19849" stroke="#F19849" stroke-miterlimit="10" width="2.709" height="2.667"/>
<rect x="89.625" y="38.083" fill="#F3AD68" stroke="#F2AD68" stroke-miterlimit="10" width="2.708" height="2.668"/>
<rect x="89.625" y="35.375" fill="#F19849" stroke="#F19849" stroke-miterlimit="10" width="2.708" height="2.666"/>
<rect x="89.625" y="32.708" fill="#F19849" stroke="#F19849" stroke-miterlimit="10" width="2.708" height="2.668"/>
<rect x="89.625" y="30.042" fill="#F19849" stroke="#F19849" stroke-miterlimit="10" width="2.708" height="2.666"/>
<rect x="89.625" y="27.333" fill="#F19849" stroke="#F19849" stroke-miterlimit="10" width="2.708" height="2.668"/>
<rect x="89.625" y="24.667" fill="#F3AD68" stroke="#F2AD68" stroke-miterlimit="10" width="2.708" height="2.666"/>
<rect x="89.625" y="21.958" fill="#F19849" stroke="#F19849" stroke-miterlimit="10" width="2.708" height="2.668"/>
<rect x="89.625" y="19.292" fill="#F19849" stroke="#F19849" stroke-miterlimit="10" width="2.708" height="2.666"/>
<rect x="89.625" y="16.625" fill="#F19849" stroke="#F19849" stroke-miterlimit="10" width="2.708" height="2.667"/>
<rect x="86.917" y="38.083" fill="#F3AD68" stroke="#F2AD68" stroke-miterlimit="10" width="2.708" height="2.668"/>
<rect x="86.917" y="35.375" fill="#F19849" stroke="#F19849" stroke-miterlimit="10" width="2.708" height="2.666"/>
<rect x="86.917" y="32.708" fill="#F19849" stroke="#F19849" stroke-miterlimit="10" width="2.708" height="2.668"/>
<rect x="86.917" y="30.042" fill="#F19849" stroke="#F19849" stroke-miterlimit="10" width="2.708" height="2.666"/>
<rect x="86.917" y="27.333" fill="#F19849" stroke="#F19849" stroke-miterlimit="10" width="2.708" height="2.668"/>
<rect x="86.917" y="24.667" fill="#F3AD68" stroke="#F2AD68" stroke-miterlimit="10" width="2.708" height="2.666"/>
<rect x="86.917" y="21.958" fill="#F19849" stroke="#F19849" stroke-miterlimit="10" width="2.708" height="2.668"/>
<rect x="86.917" y="19.292" fill="#F19849" stroke="#F19849" stroke-miterlimit="10" width="2.708" height="2.666"/>
<rect x="86.917" y="16.625" fill="#F19849" stroke="#F19849" stroke-miterlimit="10" width="2.708" height="2.667"/>
<rect x="84.208" y="38.083" fill="#F3AD68" stroke="#F2AD68" stroke-miterlimit="10" width="2.709" height="2.668"/>
<rect x="84.208" y="35.375" fill="#F19849" stroke="#F19849" stroke-miterlimit="10" width="2.709" height="2.666"/>
<rect x="84.208" y="32.708" fill="#F19849" stroke="#F19849" stroke-miterlimit="10" width="2.709" height="2.668"/>
<rect x="84.208" y="30.042" fill="#F19849" stroke="#F19849" stroke-miterlimit="10" width="2.709" height="2.666"/>
<rect x="84.208" y="27.333" fill="#F19849" stroke="#F19849" stroke-miterlimit="10" width="2.709" height="2.668"/>
<rect x="84.208" y="24.667" fill="#F19849" stroke="#F19849" stroke-miterlimit="10" width="2.709" height="2.666"/>
<rect x="84.208" y="21.958" fill="#F19849" stroke="#F19849" stroke-miterlimit="10" width="2.709" height="2.668"/>
<rect x="84.208" y="19.292" fill="#F19849" stroke="#F19849" stroke-miterlimit="10" width="2.709" height="2.666"/>
<rect x="84.208" y="16.625" fill="#F19849" stroke="#F19849" stroke-miterlimit="10" width="2.709" height="2.667"/>
<rect x="81.542" y="38.083" fill="#F3AD68" stroke="#F2AD68" stroke-miterlimit="10" width="2.708" height="2.668"/>
<rect x="81.542" y="35.375" fill="#F19849" stroke="#F19849" stroke-miterlimit="10" width="2.708" height="2.666"/>
<rect x="81.542" y="32.708" fill="#F19849" stroke="#F19849" stroke-miterlimit="10" width="2.708" height="2.668"/>
<rect x="81.542" y="30.042" fill="#F19849" stroke="#F19849" stroke-miterlimit="10" width="2.708" height="2.666"/>
<rect x="81.542" y="27.333" fill="#F19849" stroke="#F19849" stroke-miterlimit="10" width="2.708" height="2.668"/>
<rect x="81.542" y="24.667" fill="#F19849" stroke="#F19849" stroke-miterlimit="10" width="2.708" height="2.666"/>
<rect x="81.542" y="21.958" fill="#F19849" stroke="#F19849" stroke-miterlimit="10" width="2.708" height="2.668"/>
<rect x="81.542" y="19.292" fill="#F19849" stroke="#F19849" stroke-miterlimit="10" width="2.708" height="2.666"/>
<rect x="81.542" y="16.625" fill="#F19849" stroke="#F19849" stroke-miterlimit="10" width="2.708" height="2.667"/>
<rect x="78.833" y="38.083" fill="#F3AD68" stroke="#F2AD68" stroke-miterlimit="10" width="2.709" height="2.668"/>
<rect x="78.833" y="35.375" fill="#F19849" stroke="#F19849" stroke-miterlimit="10" width="2.709" height="2.666"/>
<rect x="78.833" y="32.708" fill="#F19849" stroke="#F19849" stroke-miterlimit="10" width="2.709" height="2.668"/>
<rect x="78.833" y="30.042" fill="#F19849" stroke="#F19849" stroke-miterlimit="10" width="2.709" height="2.666"/>
<rect x="78.833" y="27.333" fill="#F19849" stroke="#F19849" stroke-miterlimit="10" width="2.709" height="2.668"/>
<rect x="78.833" y="24.667" fill="#F19849" stroke="#F19849" stroke-miterlimit="10" width="2.709" height="2.666"/>
<rect x="78.833" y="21.958" fill="#F19849" stroke="#F19849" stroke-miterlimit="10" width="2.709" height="2.668"/>
<rect x="78.833" y="19.292" fill="#F19849" stroke="#F19849" stroke-miterlimit="10" width="2.709" height="2.666"/>
<rect x="78.833" y="16.625" fill="#F19849" stroke="#F19849" stroke-miterlimit="10" width="2.709" height="2.667"/>
<rect x="78.833" y="13.917" fill="#F19849" stroke="#F19849" stroke-miterlimit="10" width="2.709" height="2.667"/>
<rect x="76.125" y="38.083" fill="#F3AD68" stroke="#F2AD68" stroke-miterlimit="10" width="2.708" height="2.668"/>
<rect x="76.125" y="35.375" fill="#F3AD68" stroke="#F2AD68" stroke-miterlimit="10" width="2.708" height="2.666"/>
<rect x="76.125" y="32.708" fill="#F19849" stroke="#F19849" stroke-miterlimit="10" width="2.708" height="2.668"/>
<rect x="76.125" y="30.042" fill="#F19849" stroke="#F19849" stroke-miterlimit="10" width="2.708" height="2.666"/>
<rect x="76.125" y="27.333" fill="#F19849" stroke="#F19849" stroke-miterlimit="10" width="2.708" height="2.668"/>
<rect x="76.125" y="24.667" fill="#F19849" stroke="#F19849" stroke-miterlimit="10" width="2.708" height="2.666"/>
<rect x="76.125" y="21.958" fill="#F19849" stroke="#F19849" stroke-miterlimit="10" width="2.708" height="2.668"/>
<rect x="76.125" y="19.292" fill="#F19849" stroke="#F19849" stroke-miterlimit="10" width="2.708" height="2.666"/>
<rect x="76.125" y="16.625" fill="#F19849" stroke="#F19849" stroke-miterlimit="10" width="2.708" height="2.667"/>
<rect x="76.125" y="13.917" fill="#F19849" stroke="#F19849" stroke-miterlimit="10" width="2.708" height="2.667"/>
<rect x="76.125" y="11.25" fill="#F19849" stroke="#F19849" stroke-miterlimit="10" width="2.708" height="2.667"/>
<rect x="73.417" y="35.375" fill="#F3AD68" stroke="#F2AD68" stroke-miterlimit="10" width="2.708" height="2.666"/>
<rect x="73.417" y="32.708" fill="#F19849" stroke="#F19849" stroke-miterlimit="10" width="2.708" height="2.668"/>
<rect x="73.417" y="30.042" fill="#F19849" stroke="#F19849" stroke-miterlimit="10" width="2.708" height="2.666"/>
<rect x="73.417" y="27.333" fill="#F19849" stroke="#F19849" stroke-miterlimit="10" width="2.708" height="2.668"/>
<rect x="73.417" y="24.667" fill="#F19849" stroke="#F19849" stroke-miterlimit="10" width="2.708" height="2.666"/>
<rect x="73.417" y="21.958" fill="#F19849" stroke="#F19849" stroke-miterlimit="10" width="2.708" height="2.668"/>
<rect x="73.417" y="19.292" fill="#F19849" stroke="#F19849" stroke-miterlimit="10" width="2.708" height="2.666"/>
<rect x="73.417" y="16.625" fill="#F19849" stroke="#F19849" stroke-miterlimit="10" width="2.708" height="2.667"/>
<rect x="73.417" y="13.917" fill="#F19849" stroke="#F19849" stroke-miterlimit="10" width="2.708" height="2.667"/>
<rect x="73.417" y="11.25" fill="#F19849" stroke="#F19849" stroke-miterlimit="10" width="2.708" height="2.667"/>
<rect x="70.708" y="35.375" fill="#F3AD68" stroke="#F2AD68" stroke-miterlimit="10" width="2.709" height="2.666"/>
<rect x="70.708" y="32.708" fill="#F19849" stroke="#F19849" stroke-miterlimit="10" width="2.709" height="2.668"/>
<rect x="70.708" y="30.042" fill="#F19849" stroke="#F19849" stroke-miterlimit="10" width="2.709" height="2.666"/>
<rect x="70.708" y="27.333" fill="#F19849" stroke="#F19849" stroke-miterlimit="10" width="2.709" height="2.668"/>
<rect x="70.708" y="24.667" fill="#F19849" stroke="#F19849" stroke-miterlimit="10" width="2.709" height="2.666"/>
<rect x="70.708" y="21.958" fill="#F19849" stroke="#F19849" stroke-miterlimit="10" width="2.709" height="2.668"/>
<rect x="70.708" y="19.292" fill="#F19849" stroke="#F19849" stroke-miterlimit="10" width="2.709" height="2.666"/>
<rect x="70.708" y="16.625" fill="#F19849" stroke="#F19849" stroke-miterlimit="10" width="2.709" height="2.667"/>
<rect x="70.708" y="13.917" fill="#F19849" stroke="#F19849" stroke-miterlimit="10" width="2.709" height="2.667"/>
<rect x="70.708" y="11.25" fill="#F19849" stroke="#F19849" stroke-miterlimit="10" width="2.709" height="2.667"/>
<rect x="68.042" y="35.375" fill="#F3AD68" stroke="#F2AD68" stroke-miterlimit="10" width="2.708" height="2.666"/>
<rect x="68.042" y="32.708" fill="#F19849" stroke="#F19849" stroke-miterlimit="10" width="2.708" height="2.668"/>
<rect x="68.042" y="30.042" fill="#F19849" stroke="#F19849" stroke-miterlimit="10" width="2.708" height="2.666"/>
<rect x="68.042" y="27.333" fill="#F19849" stroke="#F19849" stroke-miterlimit="10" width="2.708" height="2.668"/>
<rect x="68.042" y="24.667" fill="#F19849" stroke="#F19849" stroke-miterlimit="10" width="2.708" height="2.666"/>
<rect x="68.042" y="21.958" fill="#F19849" stroke="#F19849" stroke-miterlimit="10" width="2.708" height="2.668"/>
<rect x="68.042" y="19.292" fill="#F19849" stroke="#F19849" stroke-miterlimit="10" width="2.708" height="2.666"/>
<rect x="68.042" y="16.625" fill="#F19849" stroke="#F19849" stroke-miterlimit="10" width="2.708" height="2.667"/>
<rect x="68.042" y="13.917" fill="#F19849" stroke="#F19849" stroke-miterlimit="10" width="2.708" height="2.667"/>
<rect x="65.333" y="35.375" fill="#F3AD68" stroke="#F2AD68" stroke-miterlimit="10" width="2.709" height="2.666"/>
<rect x="65.333" y="32.708" fill="#F3AD68" stroke="#F2AD68" stroke-miterlimit="10" width="2.709" height="2.668"/>
<rect x="65.333" y="30.042" fill="#F19849" stroke="#F19849" stroke-miterlimit="10" width="2.709" height="2.666"/>
<rect x="65.333" y="27.333" fill="#F19849" stroke="#F19849" stroke-miterlimit="10" width="2.709" height="2.668"/>
<rect x="65.333" y="24.667" fill="#F19849" stroke="#F19849" stroke-miterlimit="10" width="2.709" height="2.666"/>
<rect x="65.333" y="21.958" fill="#F19849" stroke="#F19849" stroke-miterlimit="10" width="2.709" height="2.668"/>
<rect x="65.333" y="19.292" fill="#F19849" stroke="#F19849" stroke-miterlimit="10" width="2.709" height="2.666"/>
<rect x="65.333" y="16.625" fill="#F19849" stroke="#F19849" stroke-miterlimit="10" width="2.709" height="2.667"/>
<rect x="65.333" y="13.917" fill="#F19849" stroke="#F19849" stroke-miterlimit="10" width="2.709" height="2.667"/>
<rect x="62.625" y="32.708" fill="#F3AD68" stroke="#F2AD68" stroke-miterlimit="10" width="2.708" height="2.668"/>
<rect x="62.625" y="30.042" fill="#F19849" stroke="#F19849" stroke-miterlimit="10" width="2.708" height="2.666"/>
<rect x="62.625" y="27.333" fill="#F19849" stroke="#F19849" stroke-miterlimit="10" width="2.708" height="2.668"/>
<rect x="62.625" y="24.667" fill="#F19849" stroke="#F19849" stroke-miterlimit="10" width="2.708" height="2.666"/>
<rect x="62.625" y="21.958" fill="#F19849" stroke="#F19849" stroke-miterlimit="10" width="2.708" height="2.668"/>
<rect x="62.625" y="19.292" fill="#F19849" stroke="#F19849" stroke-miterlimit="10" width="2.708" height="2.666"/>
<rect x="62.625" y="16.625" fill="#F19849" stroke="#F19849" stroke-miterlimit="10" width="2.708" height="2.667"/>
<rect x="62.625" y="13.917" fill="#F19849" stroke="#F19849" stroke-miterlimit="10" width="2.708" height="2.667"/>
<rect x="59.917" y="32.708" fill="#F3AD68" stroke="#F2AD68" stroke-miterlimit="10" width="2.708" height="2.668"/>
<rect x="59.917" y="30.042" fill="#F19849" stroke="#F19849" stroke-miterlimit="10" width="2.708" height="2.666"/>
<rect x="59.917" y="27.333" fill="#F19849" stroke="#F19849" stroke-miterlimit="10" width="2.708" height="2.668"/>
<rect x="59.917" y="24.667" fill="#F19849" stroke="#F19849" stroke-miterlimit="10" width="2.708" height="2.666"/>
<rect x="59.917" y="21.958" fill="#F19849" stroke="#F19849" stroke-miterlimit="10" width="2.708" height="2.668"/>
<rect x="59.917" y="19.292" fill="#F19849" stroke="#F19849" stroke-miterlimit="10" width="2.708" height="2.666"/>
<rect x="59.917" y="16.625" fill="#F19849" stroke="#F19849" stroke-miterlimit="10" width="2.708" height="2.667"/>
<rect x="57.208" y="32.708" fill="#F3AD68" stroke="#F2AD68" stroke-miterlimit="10" width="2.709" height="2.668"/>
<rect x="57.208" y="30.042" fill="#F19849" stroke="#F19849" stroke-miterlimit="10" width="2.709" height="2.666"/>
<rect x="57.208" y="27.333" fill="#F19849" stroke="#F19849" stroke-miterlimit="10" width="2.709" height="2.668"/>
<rect x="57.208" y="24.667" fill="#F19849" stroke="#F19849" stroke-miterlimit="10" width="2.709" height="2.666"/>
<rect x="57.208" y="21.958" fill="#F19849" stroke="#F19849" stroke-miterlimit="10" width="2.709" height="2.668"/>
<rect x="57.208" y="19.292" fill="#F19849" stroke="#F19849" stroke-miterlimit="10" width="2.709" height="2.666"/>
<rect x="57.208" y="16.625" fill="#F19849" stroke="#F19849" stroke-miterlimit="10" width="2.709" height="2.667"/>
<rect x="54.5" y="32.708" fill="#F3AD68" stroke="#F2AD68" stroke-miterlimit="10" width="2.708" height="2.668"/>
<rect x="54.5" y="30.042" fill="#F3AD68" stroke="#F2AD68" stroke-miterlimit="10" width="2.708" height="2.666"/>
<rect x="54.5" y="27.333" fill="#F19849" stroke="#F19849" stroke-miterlimit="10" width="2.708" height="2.668"/>
<rect x="54.5" y="24.667" fill="#F19849" stroke="#F19849" stroke-miterlimit="10" width="2.708" height="2.666"/>
<rect x="54.5" y="21.958" fill="#F19849" stroke="#F19849" stroke-miterlimit="10" width="2.708" height="2.668"/>
<rect x="54.5" y="19.292" fill="#F19849" stroke="#F19849" stroke-miterlimit="10" width="2.708" height="2.666"/>
<rect x="54.5" y="16.625" fill="#F19849" stroke="#F19849" stroke-miterlimit="10" width="2.708" height="2.667"/>
<rect x="51.833" y="30.042" fill="#F3AD68" stroke="#F2AD68" stroke-miterlimit="10" width="2.709" height="2.666"/>
<rect x="51.833" y="27.333" fill="#F19849" stroke="#F19849" stroke-miterlimit="10" width="2.709" height="2.668"/>
<rect x="51.833" y="24.667" fill="#F19849" stroke="#F19849" stroke-miterlimit="10" width="2.709" height="2.666"/>
<rect x="51.833" y="21.958" fill="#F19849" stroke="#F19849" stroke-miterlimit="10" width="2.709" height="2.668"/>
<rect x="51.833" y="19.292" fill="#F19849" stroke="#F19849" stroke-miterlimit="10" width="2.709" height="2.666"/>
<rect x="51.833" y="16.625" fill="#F19849" stroke="#F19849" stroke-miterlimit="10" width="2.709" height="2.667"/>
<rect x="51.833" y="13.917" fill="#F19849" stroke="#F19849" stroke-miterlimit="10" width="2.709" height="2.667"/>
<rect x="49.125" y="30.042" fill="#F3AD68" stroke="#F2AD68" stroke-miterlimit="10" width="2.708" height="2.666"/>
<rect x="49.125" y="27.333" fill="#F19849" stroke="#F19849" stroke-miterlimit="10" width="2.708" height="2.668"/>
<rect x="49.125" y="24.667" fill="#F19849" stroke="#F19849" stroke-miterlimit="10" width="2.708" height="2.666"/>
<rect x="49.125" y="21.958" fill="#F19849" stroke="#F19849" stroke-miterlimit="10" width="2.708" height="2.668"/>
<rect x="49.125" y="19.292" fill="#F19849" stroke="#F19849" stroke-miterlimit="10" width="2.708" height="2.666"/>
<rect x="49.125" y="16.625" fill="#F19849" stroke="#F19849" stroke-miterlimit="10" width="2.708" height="2.667"/>
<rect x="49.125" y="13.917" fill="#F19849" stroke="#F19849" stroke-miterlimit="10" width="2.708" height="2.667"/>
<rect x="46.417" y="30.042" fill="#F3AD68" stroke="#F2AD68" stroke-miterlimit="10" width="2.708" height="2.666"/>
<rect x="46.417" y="27.333" fill="#F19849" stroke="#F19849" stroke-miterlimit="10" width="2.708" height="2.668"/>
<rect x="46.417" y="24.667" fill="#F19849" stroke="#F19849" stroke-miterlimit="10" width="2.708" height="2.666"/>
<rect x="46.417" y="21.958" fill="#F19849" stroke="#F19849" stroke-miterlimit="10" width="2.708" height="2.668"/>
<rect x="46.417" y="19.292" fill="#F19849" stroke="#F19849" stroke-miterlimit="10" width="2.708" height="2.666"/>
<rect x="46.417" y="16.625" fill="#F19849" stroke="#F19849" stroke-miterlimit="10" width="2.708" height="2.667"/>
<rect x="46.417" y="13.917" fill="#F19849" stroke="#F19849" stroke-miterlimit="10" width="2.708" height="2.667"/>
<rect x="43.708" y="27.333" fill="#F19849" stroke="#F19849" stroke-miterlimit="10" width="2.709" height="2.668"/>
<rect x="43.708" y="24.667" fill="#F19849" stroke="#F19849" stroke-miterlimit="10" width="2.709" height="2.666"/>
<rect x="43.708" y="21.958" fill="#F19849" stroke="#F19849" stroke-miterlimit="10" width="2.709" height="2.668"/>
<rect x="43.708" y="19.292" fill="#F19849" stroke="#F19849" stroke-miterlimit="10" width="2.709" height="2.666"/>
<rect x="43.708" y="16.625" fill="#F19849" stroke="#F19849" stroke-miterlimit="10" width="2.709" height="2.667"/>
<rect x="43.708" y="13.917" fill="#F19849" stroke="#F19849" stroke-miterlimit="10" width="2.709" height="2.667"/>
<rect x="43.708" y="11.25" fill="#F19849" stroke="#F19849" stroke-miterlimit="10" width="2.709" height="2.667"/>
<rect x="41" y="27.333" fill="#F19849" stroke="#F19849" stroke-miterlimit="10" width="2.708" height="2.668"/>
<rect x="41" y="24.667" fill="#F19849" stroke="#F19849" stroke-miterlimit="10" width="2.708" height="2.666"/>
<rect x="41" y="21.958" fill="#F3AD68" stroke="#F2AD68" stroke-miterlimit="10" width="2.708" height="2.668"/>
<rect x="41" y="19.292" fill="#F19849" stroke="#F19849" stroke-miterlimit="10" width="2.708" height="2.666"/>
<rect x="41" y="16.625" fill="#F19849" stroke="#F19849" stroke-miterlimit="10" width="2.708" height="2.667"/>
<rect x="41" y="13.917" fill="#F19849" stroke="#F19849" stroke-miterlimit="10" width="2.708" height="2.667"/>
<rect x="41" y="11.25" fill="#F19849" stroke="#F19849" stroke-miterlimit="10" width="2.708" height="2.667"/>
<rect x="41" y="8.583" fill="#F19849" stroke="#F19849" stroke-miterlimit="10" width="2.708" height="2.667"/>
<rect x="38.333" y="27.333" fill="#F19849" stroke="#F19849" stroke-miterlimit="10" width="2.709" height="2.668"/>
<rect x="38.333" y="24.667" fill="#F19849" stroke="#F19849" stroke-miterlimit="10" width="2.709" height="2.666"/>
<rect x="38.333" y="21.958" fill="#F3AD68" stroke="#F2AD68" stroke-miterlimit="10" width="2.709" height="2.668"/>
<rect x="38.333" y="19.292" fill="#F19849" stroke="#F19849" stroke-miterlimit="10" width="2.709" height="2.666"/>
<rect x="38.333" y="16.625" fill="#F19849" stroke="#F19849" stroke-miterlimit="10" width="2.709" height="2.667"/>
<rect x="38.333" y="13.917" fill="#F19849" stroke="#F19849" stroke-miterlimit="10" width="2.709" height="2.667"/>
<rect x="38.333" y="11.25" fill="#F19849" stroke="#F19849" stroke-miterlimit="10" width="2.709" height="2.667"/>
<rect x="38.333" y="8.583" fill="#F19849" stroke="#F19849" stroke-miterlimit="10" width="2.709" height="2.667"/>
<rect x="38.333" y="5.875" fill="#F19849" stroke="#F19849" stroke-miterlimit="10" width="2.709" height="2.667"/>
<rect x="35.625" y="27.333" fill="#F19849" stroke="#F19849" stroke-miterlimit="10" width="2.708" height="2.668"/>
<rect x="35.625" y="24.667" fill="#F19849" stroke="#F19849" stroke-miterlimit="10" width="2.708" height="2.666"/>
<rect x="35.625" y="21.958" fill="#F3AD68" stroke="#F2AD68" stroke-miterlimit="10" width="2.708" height="2.668"/>
<rect x="35.625" y="19.292" fill="#F19849" stroke="#F19849" stroke-miterlimit="10" width="2.708" height="2.666"/>
<rect x="35.625" y="16.625" fill="#F19849" stroke="#F19849" stroke-miterlimit="10" width="2.708" height="2.667"/>
<rect x="35.625" y="13.917" fill="#F19849" stroke="#F19849" stroke-miterlimit="10" width="2.708" height="2.667"/>
<rect x="35.625" y="11.25" fill="#F19849" stroke="#F19849" stroke-miterlimit="10" width="2.708" height="2.667"/>
<rect x="35.625" y="8.583" fill="#F19849" stroke="#F19849" stroke-miterlimit="10" width="2.708" height="2.667"/>
<rect x="35.625" y="5.875" fill="#F19849" stroke="#F19849" stroke-miterlimit="10" width="2.708" height="2.667"/>
<rect x="35.625" y="3.208" fill="#F19849" stroke="#F19849" stroke-miterlimit="10" width="2.708" height="2.667"/>
<rect x="32.917" y="27.333" fill="#F19849" stroke="#F19849" stroke-miterlimit="10" width="2.708" height="2.668"/>
<rect x="32.917" y="24.667" fill="#F19849" stroke="#F19849" stroke-miterlimit="10" width="2.708" height="2.666"/>
<rect x="32.917" y="21.958" fill="#F3AD68" stroke="#F2AD68" stroke-miterlimit="10" width="2.708" height="2.668"/>
<rect x="32.917" y="19.292" fill="#F19849" stroke="#F19849" stroke-miterlimit="10" width="2.708" height="2.666"/>
<rect x="32.917" y="16.625" fill="#F19849" stroke="#F19849" stroke-miterlimit="10" width="2.708" height="2.667"/>
<rect x="32.917" y="13.917" fill="#F19849" stroke="#F19849" stroke-miterlimit="10" width="2.708" height="2.667"/>
<rect x="32.917" y="11.25" fill="#F19849" stroke="#F19849" stroke-miterlimit="10" width="2.708" height="2.667"/>
<rect x="32.917" y="8.583" fill="#F19849" stroke="#F19849" stroke-miterlimit="10" width="2.708" height="2.667"/>
<rect x="32.917" y="5.875" fill="#F19849" stroke="#F19849" stroke-miterlimit="10" width="2.708" height="2.667"/>
<rect x="32.917" y="3.208" fill="#F19849" stroke="#F19849" stroke-miterlimit="10" width="2.708" height="2.667"/>
<rect x="32.917" y="0.5" fill="#F19849" stroke="#F19849" stroke-miterlimit="10" width="2.708" height="2.667"/>
<rect x="30.208" y="27.333" fill="#F19849" stroke="#F19849" stroke-miterlimit="10" width="2.709" height="2.668"/>
<rect x="30.208" y="24.667" fill="#F19849" stroke="#F19849" stroke-miterlimit="10" width="2.709" height="2.666"/>
<rect x="30.208" y="21.958" fill="#F3AD68" stroke="#F2AD68" stroke-miterlimit="10" width="2.709" height="2.668"/>
<rect x="30.208" y="19.292" fill="#F19849" stroke="#F19849" stroke-miterlimit="10" width="2.709" height="2.666"/>
<rect x="30.208" y="16.625" fill="#F19849" stroke="#F19849" stroke-miterlimit="10" width="2.709" height="2.667"/>
<rect x="30.208" y="13.917" fill="#F19849" stroke="#F19849" stroke-miterlimit="10" width="2.709" height="2.667"/>
<rect x="30.208" y="11.25" fill="#F19849" stroke="#F19849" stroke-miterlimit="10" width="2.709" height="2.667"/>
<rect x="30.208" y="8.583" fill="#F19849" stroke="#F19849" stroke-miterlimit="10" width="2.709" height="2.667"/>
<rect x="30.208" y="5.875" fill="#F19849" stroke="#F19849" stroke-miterlimit="10" width="2.709" height="2.667"/>
<rect x="30.208" y="3.208" fill="#F19849" stroke="#F19849" stroke-miterlimit="10" width="2.709" height="2.667"/>
<rect x="30.208" y="0.5" fill="#F19849" stroke="#F19849" stroke-miterlimit="10" width="2.709" height="2.667"/>
<rect x="27.5" y="27.333" fill="#F19849" stroke="#F19849" stroke-miterlimit="10" width="2.708" height="2.668"/>
<rect x="27.5" y="24.667" fill="#F19849" stroke="#F19849" stroke-miterlimit="10" width="2.708" height="2.666"/>
<rect x="27.5" y="21.958" fill="#F3AD68" stroke="#F2AD68" stroke-miterlimit="10" width="2.708" height="2.668"/>
<rect x="27.5" y="19.292" fill="#F19849" stroke="#F19849" stroke-miterlimit="10" width="2.708" height="2.666"/>
<rect x="27.5" y="16.625" fill="#F19849" stroke="#F19849" stroke-miterlimit="10" width="2.708" height="2.667"/>
<rect x="27.5" y="13.917" fill="#F19849" stroke="#F19849" stroke-miterlimit="10" width="2.708" height="2.667"/>
<rect x="27.5" y="11.25" fill="#F19849" stroke="#F19849" stroke-miterlimit="10" width="2.708" height="2.667"/>
<rect x="27.5" y="8.583" fill="#F19849" stroke="#F19849" stroke-miterlimit="10" width="2.708" height="2.667"/>
<rect x="27.5" y="5.875" fill="#F19849" stroke="#F19849" stroke-miterlimit="10" width="2.708" height="2.667"/>
<rect x="27.5" y="3.208" fill="#F19849" stroke="#F19849" stroke-miterlimit="10" width="2.708" height="2.667"/>
<rect x="27.5" y="0.5" fill="#F19849" stroke="#F19849" stroke-miterlimit="10" width="2.708" height="2.667"/>
<rect x="24.833" y="27.333" fill="#F19849" stroke="#F19849" stroke-miterlimit="10" width="2.709" height="2.668"/>
<rect x="24.833" y="24.667" fill="#F19849" stroke="#F19849" stroke-miterlimit="10" width="2.709" height="2.666"/>
<rect x="24.833" y="21.958" fill="#F3AD68" stroke="#F2AD68" stroke-miterlimit="10" width="2.709" height="2.668"/>
<rect x="24.833" y="19.292" fill="#F19849" stroke="#F19849" stroke-miterlimit="10" width="2.709" height="2.666"/>
<rect x="24.833" y="16.625" fill="#F19849" stroke="#F19849" stroke-miterlimit="10" width="2.709" height="2.667"/>
<rect x="24.833" y="13.917" fill="#F19849" stroke="#F19849" stroke-miterlimit="10" width="2.709" height="2.667"/>
<rect x="24.833" y="11.25" fill="#F19849" stroke="#F19849" stroke-miterlimit="10" width="2.709" height="2.667"/>
<rect x="24.833" y="8.583" fill="#F19849" stroke="#F19849" stroke-miterlimit="10" width="2.709" height="2.667"/>
<rect x="24.833" y="5.875" fill="#F19849" stroke="#F19849" stroke-miterlimit="10" width="2.709" height="2.667"/>
<rect x="24.833" y="3.208" fill="#F19849" stroke="#F19849" stroke-miterlimit="10" width="2.709" height="2.667"/>
<rect x="24.833" y="0.5" fill="#F19849" stroke="#F19849" stroke-miterlimit="10" width="2.709" height="2.667"/>
<rect x="22.125" y="27.333" fill="#F19849" stroke="#F19849" stroke-miterlimit="10" width="2.708" height="2.668"/>
<rect x="22.125" y="24.667" fill="#F19849" stroke="#F19849" stroke-miterlimit="10" width="2.708" height="2.666"/>
<rect x="22.125" y="21.958" fill="#F3AD68" stroke="#F2AD68" stroke-miterlimit="10" width="2.708" height="2.668"/>
<rect x="22.125" y="19.292" fill="#F3AD68" stroke="#F2AD68" stroke-miterlimit="10" width="2.708" height="2.666"/>
<rect x="22.125" y="16.625" fill="#F19849" stroke="#F19849" stroke-miterlimit="10" width="2.708" height="2.667"/>
<rect x="22.125" y="13.917" fill="#F19849" stroke="#F19849" stroke-miterlimit="10" width="2.708" height="2.667"/>
<rect x="22.125" y="11.25" fill="#F19849" stroke="#F19849" stroke-miterlimit="10" width="2.708" height="2.667"/>
<rect x="22.125" y="8.583" fill="#F19849" stroke="#F19849" stroke-miterlimit="10" width="2.708" height="2.667"/>
<rect x="22.125" y="5.875" fill="#F19849" stroke="#F19849" stroke-miterlimit="10" width="2.708" height="2.667"/>
<rect x="22.125" y="3.208" fill="#F19849" stroke="#F19849" stroke-miterlimit="10" width="2.708" height="2.667"/>
<rect x="22.125" y="0.5" fill="#F19849" stroke="#F19849" stroke-miterlimit="10" width="2.708" height="2.667"/>
<rect x="19.417" y="27.333" fill="#F19849" stroke="#F19849" stroke-miterlimit="10" width="2.708" height="2.668"/>
<rect x="19.417" y="24.667" fill="#F19849" stroke="#F19849" stroke-miterlimit="10" width="2.708" height="2.666"/>
<rect x="19.417" y="21.958" fill="#F19849" stroke="#F19849" stroke-miterlimit="10" width="2.708" height="2.668"/>
<rect x="19.417" y="19.292" fill="#F3AD68" stroke="#F2AD68" stroke-miterlimit="10" width="2.708" height="2.666"/>
<rect x="19.417" y="16.625" fill="#F19849" stroke="#F19849" stroke-miterlimit="10" width="2.708" height="2.667"/>
<rect x="19.417" y="13.917" fill="#F19849" stroke="#F19849" stroke-miterlimit="10" width="2.708" height="2.667"/>
<rect x="19.417" y="11.25" fill="#F19849" stroke="#F19849" stroke-miterlimit="10" width="2.708" height="2.667"/>
<rect x="19.417" y="8.583" fill="#F19849" stroke="#F19849" stroke-miterlimit="10" width="2.708" height="2.667"/>
<rect x="19.417" y="5.875" fill="#F19849" stroke="#F19849" stroke-miterlimit="10" width="2.708" height="2.667"/>
<rect x="19.417" y="3.208" fill="#F19849" stroke="#F19849" stroke-miterlimit="10" width="2.708" height="2.667"/>
<rect x="19.417" y="0.5" fill="#F19849" stroke="#F19849" stroke-miterlimit="10" width="2.708" height="2.667"/>
<rect x="16.708" y="27.333" fill="#F19849" stroke="#F19849" stroke-miterlimit="10" width="2.709" height="2.668"/>
<rect x="16.708" y="24.667" fill="#F19849" stroke="#F19849" stroke-miterlimit="10" width="2.709" height="2.666"/>
<rect x="16.708" y="21.958" fill="#F19849" stroke="#F19849" stroke-miterlimit="10" width="2.709" height="2.668"/>
<rect x="16.708" y="19.292" fill="#F3AD68" stroke="#F2AD68" stroke-miterlimit="10" width="2.709" height="2.666"/>
<rect x="16.708" y="16.625" fill="#F3AD68" stroke="#F2AD68" stroke-miterlimit="10" width="2.709" height="2.667"/>
<rect x="16.708" y="13.917" fill="#F19849" stroke="#F19849" stroke-miterlimit="10" width="2.709" height="2.667"/>
<rect x="16.708" y="11.25" fill="#F19849" stroke="#F19849" stroke-miterlimit="10" width="2.709" height="2.667"/>
<rect x="16.708" y="8.583" fill="#F19849" stroke="#F19849" stroke-miterlimit="10" width="2.709" height="2.667"/>
<rect x="16.708" y="5.875" fill="#F19849" stroke="#F19849" stroke-miterlimit="10" width="2.709" height="2.667"/>
<rect x="16.708" y="3.208" fill="#F19849" stroke="#F19849" stroke-miterlimit="10" width="2.709" height="2.667"/>
<rect x="14" y="27.333" fill="#F19849" stroke="#F19849" stroke-miterlimit="10" width="2.708" height="2.668"/>
<rect x="14" y="24.667" fill="#F19849" stroke="#F19849" stroke-miterlimit="10" width="2.708" height="2.666"/>
<rect x="14" y="21.958" fill="#F19849" stroke="#F19849" stroke-miterlimit="10" width="2.708" height="2.668"/>
<rect x="14" y="19.292" fill="#F19849" stroke="#F19849" stroke-miterlimit="10" width="2.708" height="2.666"/>
<rect x="14" y="16.625" fill="#F3AD68" stroke="#F2AD68" stroke-miterlimit="10" width="2.708" height="2.667"/>
<rect x="14" y="13.917" fill="#F3AD68" stroke="#F2AD68" stroke-miterlimit="10" width="2.708" height="2.667"/>
<rect x="14" y="11.25" fill="#F19849" stroke="#F19849" stroke-miterlimit="10" width="2.708" height="2.667"/>
<rect x="14" y="8.583" fill="#F19849" stroke="#F19849" stroke-miterlimit="10" width="2.708" height="2.667"/>
<rect x="14" y="5.875" fill="#F19849" stroke="#F19849" stroke-miterlimit="10" width="2.708" height="2.667"/>
<rect x="14" y="3.208" fill="#F19849" stroke="#F19849" stroke-miterlimit="10" width="2.708" height="2.667"/>
<rect x="11.292" y="27.333" fill="#F19849" stroke="#F19849" stroke-miterlimit="10" width="2.708" height="2.668"/>
<rect x="11.292" y="24.667" fill="#F19849" stroke="#F19849" stroke-miterlimit="10" width="2.708" height="2.666"/>
<rect x="11.292" y="21.958" fill="#F19849" stroke="#F19849" stroke-miterlimit="10" width="2.708" height="2.668"/>
<rect x="11.292" y="19.292" fill="#F19849" stroke="#F19849" stroke-miterlimit="10" width="2.708" height="2.666"/>
<rect x="11.292" y="16.625" fill="#F19849" stroke="#F19849" stroke-miterlimit="10" width="2.708" height="2.667"/>
<rect x="11.292" y="13.917" fill="#F19849" stroke="#F19849" stroke-miterlimit="10" width="2.708" height="2.667"/>
<rect x="11.292" y="11.25" fill="#F19849" stroke="#F19849" stroke-miterlimit="10" width="2.708" height="2.667"/>
<rect x="11.292" y="8.583" fill="#F19849" stroke="#F19849" stroke-miterlimit="10" width="2.708" height="2.667"/>
<rect x="11.292" y="5.875" fill="#F19849" stroke="#F19849" stroke-miterlimit="10" width="2.708" height="2.667"/>
<rect x="11.292" y="3.208" fill="#F19849" stroke="#F19849" stroke-miterlimit="10" width="2.708" height="2.667"/>
<rect x="8.625" y="24.667" fill="#F19849" stroke="#F19849" stroke-miterlimit="10" width="2.708" height="2.666"/>
<rect x="8.625" y="21.958" fill="#F19849" stroke="#F19849" stroke-miterlimit="10" width="2.708" height="2.668"/>
<rect x="8.625" y="19.292" fill="#F19849" stroke="#F19849" stroke-miterlimit="10" width="2.708" height="2.666"/>
<rect x="8.625" y="16.625" fill="#F19849" stroke="#F19849" stroke-miterlimit="10" width="2.708" height="2.667"/>
<rect x="8.625" y="13.917" fill="#F19849" stroke="#F19849" stroke-miterlimit="10" width="2.708" height="2.667"/>
<rect x="8.625" y="11.25" fill="#F19849" stroke="#F19849" stroke-miterlimit="10" width="2.708" height="2.667"/>
<rect x="8.625" y="8.583" fill="#F19849" stroke="#F19849" stroke-miterlimit="10" width="2.708" height="2.667"/>
<rect x="8.625" y="5.875" fill="#F19849" stroke="#F19849" stroke-miterlimit="10" width="2.708" height="2.667"/>
<rect x="8.625" y="3.208" fill="#F19849" stroke="#F19849" stroke-miterlimit="10" width="2.708" height="2.667"/>
<rect x="5.917" y="24.667" fill="#F19849" stroke="#F19849" stroke-miterlimit="10" width="2.708" height="2.666"/>
<rect x="5.917" y="21.958" fill="#F19849" stroke="#F19849" stroke-miterlimit="10" width="2.708" height="2.668"/>
<rect x="5.917" y="19.292" fill="#F19849" stroke="#F19849" stroke-miterlimit="10" width="2.708" height="2.666"/>
<rect x="5.917" y="16.625" fill="#F19849" stroke="#F19849" stroke-miterlimit="10" width="2.708" height="2.667"/>
<rect x="5.917" y="13.917" fill="#F19849" stroke="#F19849" stroke-miterlimit="10" width="2.708" height="2.667"/>
<rect x="5.917" y="11.25" fill="#F19849" stroke="#F19849" stroke-miterlimit="10" width="2.708" height="2.667"/>
<rect x="5.917" y="8.583" fill="#F19849" stroke="#F19849" stroke-miterlimit="10" width="2.708" height="2.667"/>
<rect x="5.917" y="5.875" fill="#F19849" stroke="#F19849" stroke-miterlimit="10" width="2.708" height="2.667"/>
<rect x="3.208" y="21.958" fill="#F19849" stroke="#F19849" stroke-miterlimit="10" width="2.709" height="2.668"/>
<rect x="3.208" y="19.292" fill="#F19849" stroke="#F19849" stroke-miterlimit="10" width="2.709" height="2.666"/>
<rect x="3.208" y="16.625" fill="#F19849" stroke="#F19849" stroke-miterlimit="10" width="2.709" height="2.667"/>
<rect x="3.208" y="13.917" fill="#F19849" stroke="#F19849" stroke-miterlimit="10" width="2.709" height="2.667"/>
<rect x="3.208" y="11.25" fill="#F19849" stroke="#F19849" stroke-miterlimit="10" width="2.709" height="2.667"/>
<rect x="3.208" y="8.583" fill="#F19849" stroke="#F19849" stroke-miterlimit="10" width="2.709" height="2.667"/>
<rect x="0.5" y="19.292" fill="#F19849" stroke="#F19849" stroke-miterlimit="10" width="2.708" height="2.666"/>
<rect x="0.5" y="16.625" fill="#F19849" stroke="#F19849" stroke-miterlimit="10" width="2.708" height="2.667"/>
<rect x="0.5" y="13.917" fill="#F19849" stroke="#F19849" stroke-miterlimit="10" width="2.708" height="2.667"/>
<rect x="0.5" y="11.25" fill="#F19849" stroke="#F19849" stroke-miterlimit="10" width="2.708" height="2.667"/>
</svg>
