<?xml version="1.0" encoding="utf-8"?>
<!-- Generator: Adobe Illustrator 16.0.0, SVG Export Plug-In . SVG Version: 6.00 Build 0)  -->
<!DOCTYPE svg PUBLIC "-//W3C//DTD SVG 1.1//EN" "http://www.w3.org/Graphics/SVG/1.1/DTD/svg11.dtd">
<svg version="1.1" id="Layer_1" xmlns="http://www.w3.org/2000/svg" xmlns:xlink="http://www.w3.org/1999/xlink" x="0px" y="0px"
	 width="1700.79px" height="850.391px" viewBox="0 0 1700.79 850.391" enable-background="new 0 0 1700.79 850.391"
	 xml:space="preserve">
<g id="Layer_2" display="none">
</g>
<g id="Layer_1_1_" display="none">
	<g display="inline">
		<g id="XMLID_1_">
			<g>
				<polygon fill="none" stroke="#000000" stroke-miterlimit="10" points="425.2,46.131 425.2,0 471.331,0 517.298,0 563.43,0 
					609.561,0 655.527,0 701.659,0 747.79,0 793.757,0 839.889,0 886.02,0 931.987,0 978.118,0 1024.249,0 1070.215,0 1116.346,0 
					1162.315,0 1208.446,0 1254.577,0 1300.708,0 1346.674,0 1392.805,0 1438.938,0 1484.905,0 1531.036,0 1577.002,0 1623.133,0 
					1669.264,0 1715.231,0 1761.364,0 1807.495,0 1853.461,0 1899.592,0 1945.723,0 1991.69,0 2037.823,0 2083.954,0 2129.92,0 
					2176.051,0 2222.182,0 2268.149,0 2314.28,0 2360.413,0 2406.379,0 2452.51,0 2498.641,0 2544.608,0 2590.739,0 2636.872,0 
					2682.838,0 2728.969,0 2775.1,0 2821.067,0 2867.198,0 2913.331,0 2959.297,0 3005.428,0 3051.559,0 3097.526,0 3143.657,0 
					3189.624,0 3235.756,0 3281.887,0 3328.018,0 3373.985,0 3420.116,0 3466.083,0 3512.215,0 3558.346,0 3604.313,0 3650.444,0 
					3696.575,0 3742.542,0 3788.674,0 3834.805,0 3880.772,0 3926.903,0 3973.034,0 4019,0 4065.131,0 4111.264,0 4157.231,0 
					4203.362,0 4249.493,0 4295.459,0 4341.59,0 4387.723,0 4433.69,0 4479.821,0 4525.952,0 4571.918,0 4618.049,0 4664.182,0 
					4710.149,0 4756.28,0 4802.411,0 4848.377,0 4894.508,0 4940.475,0 4986.608,0 5032.739,0 5078.706,0 5078.706,46.131 
					5078.706,92.098 5078.706,138.229 5078.706,184.361 5078.706,230.328 5078.706,276.459 5078.706,322.59 5078.706,368.557 
					5078.706,414.688 5078.706,460.819 5078.706,506.786 5078.706,552.918 5078.706,599.049 5078.706,645.016 5078.706,691.147 
					5078.706,737.114 5078.706,783.245 5078.706,829.377 5078.706,875.508 5078.706,921.475 5078.706,967.606 5078.706,1013.737 
					5078.706,1059.704 5078.706,1105.836 5078.706,1151.803 5078.706,1197.934 5078.706,1244.064 5078.706,1290.032 
					5078.706,1336.163 5078.706,1382.294 5078.706,1428.262 5078.706,1474.393 5078.706,1520.523 5078.706,1566.491 
					5078.706,1612.622 5078.706,1658.753 5078.706,1704.721 5078.706,1750.852 5078.706,1796.982 5078.706,1842.949 
					5078.706,1889.081 5078.706,1935.212 5078.706,1981.18 5078.706,2027.311 5078.706,2073.441 5078.706,2119.408 
					5078.706,2165.54 5078.706,2211.671 5078.706,2257.638 5078.706,2303.77 5078.706,2349.9 5078.706,2395.867 5078.706,2441.998 
					5078.706,2488.13 5078.706,2534.097 5078.706,2580.229 5078.706,2626.359 5078.706,2672.326 5078.706,2718.457 
					5078.706,2764.425 5078.706,2810.556 5078.706,2856.688 5078.706,2902.818 5078.706,2948.785 5078.706,2994.916 
					5078.706,3040.884 5078.706,3087.015 5078.706,3133.146 5078.706,3179.113 5078.706,3225.244 5078.706,3271.375 
					5078.706,3317.342 5078.706,3363.474 5078.706,3409.604 5078.706,3455.571 5078.706,3501.703 5078.706,3547.834 
					5078.706,3593.801 5078.706,3639.933 5078.706,3686.063 5078.706,3732.031 5078.706,3778.162 5078.706,3824.293 
					5078.706,3870.26 5078.706,3916.392 5078.706,3962.522 5078.706,4008.489 5078.706,4054.621 5078.706,4100.752 
					5078.706,4146.719 5078.706,4192.85 5078.706,4238.981 5078.706,4284.949 5078.706,4331.08 5078.706,4377.211 
					5078.706,4423.178 5078.706,4469.309 5078.706,4515.275 5078.706,4561.407 5078.706,4607.539 5078.706,4653.506 
					5032.739,4653.506 4986.608,4653.506 4940.475,4653.506 4894.508,4653.506 4848.377,4653.506 4802.411,4653.506 
					4756.28,4653.506 4710.149,4653.506 4664.182,4653.506 4618.049,4653.506 4571.918,4653.506 4525.952,4653.506 
					4479.821,4653.506 4433.69,4653.506 4387.723,4653.506 4341.59,4653.506 4295.459,4653.506 4249.493,4653.506 
					4203.362,4653.506 4157.231,4653.506 4111.264,4653.506 4065.131,4653.506 4019,4653.506 3973.034,4653.506 3926.903,4653.506 
					3880.772,4653.506 3834.805,4653.506 3788.674,4653.506 3742.542,4653.506 3696.575,4653.506 3650.444,4653.506 
					3604.313,4653.506 3558.346,4653.506 3512.215,4653.506 3466.083,4653.506 3420.116,4653.506 3373.985,4653.506 
					3328.018,4653.506 3281.887,4653.506 3235.756,4653.506 3189.624,4653.506 3143.657,4653.506 3097.526,4653.506 
					3051.559,4653.506 3005.428,4653.506 2959.297,4653.506 2913.331,4653.506 2867.198,4653.506 2821.067,4653.506 
					2775.1,4653.506 2728.969,4653.506 2682.838,4653.506 2636.872,4653.506 2590.739,4653.506 2544.608,4653.506 
					2498.641,4653.506 2452.51,4653.506 2406.379,4653.506 2360.413,4653.506 2314.28,4653.506 2268.149,4653.506 
					2222.182,4653.506 2176.051,4653.506 2129.92,4653.506 2083.954,4653.506 2037.823,4653.506 1991.69,4653.506 
					1945.723,4653.506 1899.592,4653.506 1853.461,4653.506 1807.495,4653.506 1761.364,4653.506 1715.231,4653.506 
					1669.264,4653.506 1623.133,4653.506 1577.002,4653.506 1531.036,4653.506 1484.905,4653.506 1438.938,4653.506 
					1392.805,4653.506 1346.674,4653.506 1300.708,4653.506 1254.577,4653.506 1208.446,4653.506 1162.315,4653.506 
					1116.346,4653.506 1070.215,4653.506 1024.249,4653.506 978.118,4653.506 931.987,4653.506 886.02,4653.506 839.889,4653.506 
					793.757,4653.506 747.79,4653.506 701.659,4653.506 655.527,4653.506 609.561,4653.506 563.43,4653.506 517.298,4653.506 
					471.331,4653.506 425.2,4653.506 425.2,4607.539 425.2,4561.407 425.2,4515.275 425.2,4469.309 425.2,4423.178 425.2,4377.211 
					425.2,4331.08 425.2,4284.949 425.2,4238.981 425.2,4192.85 425.2,4146.719 425.2,4100.752 425.2,4054.621 425.2,4008.489 
					425.2,3962.522 425.2,3916.392 425.2,3870.26 425.2,3824.293 425.2,3778.162 425.2,3732.031 425.2,3686.063 425.2,3639.933 
					425.2,3593.801 425.2,3547.834 425.2,3501.703 425.2,3455.571 425.2,3409.604 425.2,3363.474 425.2,3317.342 425.2,3271.375 
					425.2,3225.244 425.2,3179.113 425.2,3133.146 425.2,3087.015 425.2,3040.884 425.2,2994.916 425.2,2948.785 425.2,2902.818 
					425.2,2856.688 425.2,2810.556 425.2,2764.425 425.2,2718.457 425.2,2672.326 425.2,2626.359 425.2,2580.229 425.2,2534.097 
					425.2,2488.13 425.2,2441.998 425.2,2395.867 425.2,2349.9 425.2,2303.77 425.2,2257.638 425.2,2211.671 425.2,2165.54 
					425.2,2119.408 425.2,2073.441 425.2,2027.311 425.2,1981.18 425.2,1935.212 425.2,1889.081 425.2,1842.949 425.2,1796.982 
					425.2,1750.852 425.2,1704.721 425.2,1658.753 425.2,1612.622 425.2,1566.491 425.2,1520.523 425.2,1474.393 425.2,1428.262 
					425.2,1382.294 425.2,1336.163 425.2,1290.032 425.2,1244.064 425.2,1197.934 425.2,1151.803 425.2,1105.836 425.2,1059.704 
					425.2,1013.737 425.2,967.606 425.2,921.475 425.2,875.508 425.2,829.377 425.2,783.245 425.2,737.114 425.2,691.147 
					425.2,645.016 425.2,599.049 425.2,552.918 425.2,506.786 425.2,460.819 425.2,414.688 425.2,368.557 425.2,322.59 
					425.2,276.459 425.2,230.328 425.2,184.361 425.2,138.229 425.2,92.098 				"/>
				<polyline fill="none" stroke="#000000" stroke-miterlimit="10" points="425.2,829.377 471.331,829.377 517.298,829.377 
					563.43,829.377 609.561,829.377 655.527,829.377 701.659,829.377 747.79,829.377 793.757,829.377 839.889,829.377 
					886.02,829.377 931.987,829.377 978.118,829.377 1024.249,829.377 1070.215,829.377 1116.346,829.377 1162.315,829.377 
					1208.446,829.377 1254.577,829.377 1300.708,829.377 1346.674,829.377 1392.805,829.377 1438.938,829.377 1484.905,829.377 
					1531.036,829.377 1577.002,829.377 1623.133,829.377 1669.264,829.377 1715.231,829.377 1761.364,829.377 1807.495,829.377 
					1853.461,829.377 1899.592,829.377 1945.723,829.377 1991.69,829.377 2037.823,829.377 2083.954,829.377 2129.92,829.377 
					2176.051,829.377 2222.182,829.377 2268.149,829.377 2314.28,829.377 2360.413,829.377 2406.379,829.377 2452.51,829.377 
					2498.641,829.377 2544.608,829.377 2590.739,829.377 2636.872,829.377 2682.838,829.377 2728.969,829.377 2775.1,829.377 
					2821.067,829.377 2867.198,829.377 2913.331,829.377 2959.297,829.377 3005.428,829.377 3051.559,829.377 3097.526,829.377 
					3143.657,829.377 3189.624,829.377 3235.756,829.377 3281.887,829.377 3328.018,829.377 3373.985,829.377 3420.116,829.377 
					3466.083,829.377 3512.215,829.377 3558.346,829.377 3604.313,829.377 3650.444,829.377 3696.575,829.377 3742.542,829.377 
					3788.674,829.377 3834.805,829.377 3880.772,829.377 3926.903,829.377 3973.034,829.377 4019,829.377 4065.131,829.377 
					4111.264,829.377 4157.231,829.377 4203.362,829.377 4249.493,829.377 4295.459,829.377 4341.59,829.377 4387.723,829.377 
					4433.69,829.377 4479.821,829.377 4525.952,829.377 4571.918,829.377 4618.049,829.377 4664.182,829.377 4710.149,829.377 
					4756.28,829.377 4802.411,829.377 4848.377,829.377 4894.508,829.377 4940.475,829.377 4986.608,829.377 5032.739,829.377 
					5078.706,829.377 				"/>
				<polyline fill="none" stroke="#000000" stroke-miterlimit="10" points="425.2,783.245 471.331,783.245 517.298,783.245 
					563.43,783.245 609.561,783.245 655.527,783.245 701.659,783.245 747.79,783.245 793.757,783.245 839.889,783.245 
					886.02,783.245 931.987,783.245 978.118,783.245 1024.249,783.245 1070.215,783.245 1116.346,783.245 1162.315,783.245 
					1208.446,783.245 1254.577,783.245 1300.708,783.245 1346.674,783.245 1392.805,783.245 1438.938,783.245 1484.905,783.245 
					1531.036,783.245 1577.002,783.245 1623.133,783.245 1669.264,783.245 1715.231,783.245 1761.364,783.245 1807.495,783.245 
					1853.461,783.245 1899.592,783.245 1945.723,783.245 1991.69,783.245 2037.823,783.245 2083.954,783.245 2129.92,783.245 
					2176.051,783.245 2222.182,783.245 2268.149,783.245 2314.28,783.245 2360.413,783.245 2406.379,783.245 2452.51,783.245 
					2498.641,783.245 2544.608,783.245 2590.739,783.245 2636.872,783.245 2682.838,783.245 2728.969,783.245 2775.1,783.245 
					2821.067,783.245 2867.198,783.245 2913.331,783.245 2959.297,783.245 3005.428,783.245 3051.559,783.245 3097.526,783.245 
					3143.657,783.245 3189.624,783.245 3235.756,783.245 3281.887,783.245 3328.018,783.245 3373.985,783.245 3420.116,783.245 
					3466.083,783.245 3512.215,783.245 3558.346,783.245 3604.313,783.245 3650.444,783.245 3696.575,783.245 3742.542,783.245 
					3788.674,783.245 3834.805,783.245 3880.772,783.245 3926.903,783.245 3973.034,783.245 4019,783.245 4065.131,783.245 
					4111.264,783.245 4157.231,783.245 4203.362,783.245 4249.493,783.245 4295.459,783.245 4341.59,783.245 4387.723,783.245 
					4433.69,783.245 4479.821,783.245 4525.952,783.245 4571.918,783.245 4618.049,783.245 4664.182,783.245 4710.149,783.245 
					4756.28,783.245 4802.411,783.245 4848.377,783.245 4894.508,783.245 4940.475,783.245 4986.608,783.245 5032.739,783.245 
					5078.706,783.245 				"/>
				<polyline fill="none" stroke="#000000" stroke-miterlimit="10" points="425.2,737.114 471.331,737.114 517.298,737.114 
					563.43,737.114 609.561,737.114 655.527,737.114 701.659,737.114 747.79,737.114 793.757,737.114 839.889,737.114 
					886.02,737.114 931.987,737.114 978.118,737.114 1024.249,737.114 1070.215,737.114 1116.346,737.114 1162.315,737.114 
					1208.446,737.114 1254.577,737.114 1300.708,737.114 1346.674,737.114 1392.805,737.114 1438.938,737.114 1484.905,737.114 
					1531.036,737.114 1577.002,737.114 1623.133,737.114 1669.264,737.114 1715.231,737.114 1761.364,737.114 1807.495,737.114 
					1853.461,737.114 1899.592,737.114 1945.723,737.114 1991.69,737.114 2037.823,737.114 2083.954,737.114 2129.92,737.114 
					2176.051,737.114 2222.182,737.114 2268.149,737.114 2314.28,737.114 2360.413,737.114 2406.379,737.114 2452.51,737.114 
					2498.641,737.114 2544.608,737.114 2590.739,737.114 2636.872,737.114 2682.838,737.114 2728.969,737.114 2775.1,737.114 
					2821.067,737.114 2867.198,737.114 2913.331,737.114 2959.297,737.114 3005.428,737.114 3051.559,737.114 3097.526,737.114 
					3143.657,737.114 3189.624,737.114 3235.756,737.114 3281.887,737.114 3328.018,737.114 3373.985,737.114 3420.116,737.114 
					3466.083,737.114 3512.215,737.114 3558.346,737.114 3604.313,737.114 3650.444,737.114 3696.575,737.114 3742.542,737.114 
					3788.674,737.114 3834.805,737.114 3880.772,737.114 3926.903,737.114 3973.034,737.114 4019,737.114 4065.131,737.114 
					4111.264,737.114 4157.231,737.114 4203.362,737.114 4249.493,737.114 4295.459,737.114 4341.59,737.114 4387.723,737.114 
					4433.69,737.114 4479.821,737.114 4525.952,737.114 4571.918,737.114 4618.049,737.114 4664.182,737.114 4710.149,737.114 
					4756.28,737.114 4802.411,737.114 4848.377,737.114 4894.508,737.114 4940.475,737.114 4986.608,737.114 5032.739,737.114 
					5078.706,737.114 				"/>
				<polyline fill="none" stroke="#000000" stroke-miterlimit="10" points="425.2,691.147 471.331,691.147 517.298,691.147 
					563.43,691.147 609.561,691.147 655.527,691.147 701.659,691.147 747.79,691.147 793.757,691.147 839.889,691.147 
					886.02,691.147 931.987,691.147 978.118,691.147 1024.249,691.147 1070.215,691.147 1116.346,691.147 1162.315,691.147 
					1208.446,691.147 1254.577,691.147 1300.708,691.147 1346.674,691.147 1392.805,691.147 1438.938,691.147 1484.905,691.147 
					1531.036,691.147 1577.002,691.147 1623.133,691.147 1669.264,691.147 1715.231,691.147 1761.364,691.147 1807.495,691.147 
					1853.461,691.147 1899.592,691.147 1945.723,691.147 1991.69,691.147 2037.823,691.147 2083.954,691.147 2129.92,691.147 
					2176.051,691.147 2222.182,691.147 2268.149,691.147 2314.28,691.147 2360.413,691.147 2406.379,691.147 2452.51,691.147 
					2498.641,691.147 2544.608,691.147 2590.739,691.147 2636.872,691.147 2682.838,691.147 2728.969,691.147 2775.1,691.147 
					2821.067,691.147 2867.198,691.147 2913.331,691.147 2959.297,691.147 3005.428,691.147 3051.559,691.147 3097.526,691.147 
					3143.657,691.147 3189.624,691.147 3235.756,691.147 3281.887,691.147 3328.018,691.147 3373.985,691.147 3420.116,691.147 
					3466.083,691.147 3512.215,691.147 3558.346,691.147 3604.313,691.147 3650.444,691.147 3696.575,691.147 3742.542,691.147 
					3788.674,691.147 3834.805,691.147 3880.772,691.147 3926.903,691.147 3973.034,691.147 4019,691.147 4065.131,691.147 
					4111.264,691.147 4157.231,691.147 4203.362,691.147 4249.493,691.147 4295.459,691.147 4341.59,691.147 4387.723,691.147 
					4433.69,691.147 4479.821,691.147 4525.952,691.147 4571.918,691.147 4618.049,691.147 4664.182,691.147 4710.149,691.147 
					4756.28,691.147 4802.411,691.147 4848.377,691.147 4894.508,691.147 4940.475,691.147 4986.608,691.147 5032.739,691.147 
					5078.706,691.147 				"/>
				<polyline fill="none" stroke="#000000" stroke-miterlimit="10" points="425.2,645.016 471.331,645.016 517.298,645.016 
					563.43,645.016 609.561,645.016 655.527,645.016 701.659,645.016 747.79,645.016 793.757,645.016 839.889,645.016 
					886.02,645.016 931.987,645.016 978.118,645.016 1024.249,645.016 1070.215,645.016 1116.346,645.016 1162.315,645.016 
					1208.446,645.016 1254.577,645.016 1300.708,645.016 1346.674,645.016 1392.805,645.016 1438.938,645.016 1484.905,645.016 
					1531.036,645.016 1577.002,645.016 1623.133,645.016 1669.264,645.016 1715.231,645.016 1761.364,645.016 1807.495,645.016 
					1853.461,645.016 1899.592,645.016 1945.723,645.016 1991.69,645.016 2037.823,645.016 2083.954,645.016 2129.92,645.016 
					2176.051,645.016 2222.182,645.016 2268.149,645.016 2314.28,645.016 2360.413,645.016 2406.379,645.016 2452.51,645.016 
					2498.641,645.016 2544.608,645.016 2590.739,645.016 2636.872,645.016 2682.838,645.016 2728.969,645.016 2775.1,645.016 
					2821.067,645.016 2867.198,645.016 2913.331,645.016 2959.297,645.016 3005.428,645.016 3051.559,645.016 3097.526,645.016 
					3143.657,645.016 3189.624,645.016 3235.756,645.016 3281.887,645.016 3328.018,645.016 3373.985,645.016 3420.116,645.016 
					3466.083,645.016 3512.215,645.016 3558.346,645.016 3604.313,645.016 3650.444,645.016 3696.575,645.016 3742.542,645.016 
					3788.674,645.016 3834.805,645.016 3880.772,645.016 3926.903,645.016 3973.034,645.016 4019,645.016 4065.131,645.016 
					4111.264,645.016 4157.231,645.016 4203.362,645.016 4249.493,645.016 4295.459,645.016 4341.59,645.016 4387.723,645.016 
					4433.69,645.016 4479.821,645.016 4525.952,645.016 4571.918,645.016 4618.049,645.016 4664.182,645.016 4710.149,645.016 
					4756.28,645.016 4802.411,645.016 4848.377,645.016 4894.508,645.016 4940.475,645.016 4986.608,645.016 5032.739,645.016 
					5078.706,645.016 				"/>
				<polyline fill="none" stroke="#000000" stroke-miterlimit="10" points="425.2,599.049 471.331,599.049 517.298,599.049 
					563.43,599.049 609.561,599.049 655.527,599.049 701.659,599.049 747.79,599.049 793.757,599.049 839.889,599.049 
					886.02,599.049 931.987,599.049 978.118,599.049 1024.249,599.049 1070.215,599.049 1116.346,599.049 1162.315,599.049 
					1208.446,599.049 1254.577,599.049 1300.708,599.049 1346.674,599.049 1392.805,599.049 1438.938,599.049 1484.905,599.049 
					1531.036,599.049 1577.002,599.049 1623.133,599.049 1669.264,599.049 1715.231,599.049 1761.364,599.049 1807.495,599.049 
					1853.461,599.049 1899.592,599.049 1945.723,599.049 1991.69,599.049 2037.823,599.049 2083.954,599.049 2129.92,599.049 
					2176.051,599.049 2222.182,599.049 2268.149,599.049 2314.28,599.049 2360.413,599.049 2406.379,599.049 2452.51,599.049 
					2498.641,599.049 2544.608,599.049 2590.739,599.049 2636.872,599.049 2682.838,599.049 2728.969,599.049 2775.1,599.049 
					2821.067,599.049 2867.198,599.049 2913.331,599.049 2959.297,599.049 3005.428,599.049 3051.559,599.049 3097.526,599.049 
					3143.657,599.049 3189.624,599.049 3235.756,599.049 3281.887,599.049 3328.018,599.049 3373.985,599.049 3420.116,599.049 
					3466.083,599.049 3512.215,599.049 3558.346,599.049 3604.313,599.049 3650.444,599.049 3696.575,599.049 3742.542,599.049 
					3788.674,599.049 3834.805,599.049 3880.772,599.049 3926.903,599.049 3973.034,599.049 4019,599.049 4065.131,599.049 
					4111.264,599.049 4157.231,599.049 4203.362,599.049 4249.493,599.049 4295.459,599.049 4341.59,599.049 4387.723,599.049 
					4433.69,599.049 4479.821,599.049 4525.952,599.049 4571.918,599.049 4618.049,599.049 4664.182,599.049 4710.149,599.049 
					4756.28,599.049 4802.411,599.049 4848.377,599.049 4894.508,599.049 4940.475,599.049 4986.608,599.049 5032.739,599.049 
					5078.706,599.049 				"/>
				<polyline fill="none" stroke="#000000" stroke-miterlimit="10" points="425.2,552.918 471.331,552.918 517.298,552.918 
					563.43,552.918 609.561,552.918 655.527,552.918 701.659,552.918 747.79,552.918 793.757,552.918 839.889,552.918 
					886.02,552.918 931.987,552.918 978.118,552.918 1024.249,552.918 1070.215,552.918 1116.346,552.918 1162.315,552.918 
					1208.446,552.918 1254.577,552.918 1300.708,552.918 1346.674,552.918 1392.805,552.918 1438.938,552.918 1484.905,552.918 
					1531.036,552.918 1577.002,552.918 1623.133,552.918 1669.264,552.918 1715.231,552.918 1761.364,552.918 1807.495,552.918 
					1853.461,552.918 1899.592,552.918 1945.723,552.918 1991.69,552.918 2037.823,552.918 2083.954,552.918 2129.92,552.918 
					2176.051,552.918 2222.182,552.918 2268.149,552.918 2314.28,552.918 2360.413,552.918 2406.379,552.918 2452.51,552.918 
					2498.641,552.918 2544.608,552.918 2590.739,552.918 2636.872,552.918 2682.838,552.918 2728.969,552.918 2775.1,552.918 
					2821.067,552.918 2867.198,552.918 2913.331,552.918 2959.297,552.918 3005.428,552.918 3051.559,552.918 3097.526,552.918 
					3143.657,552.918 3189.624,552.918 3235.756,552.918 3281.887,552.918 3328.018,552.918 3373.985,552.918 3420.116,552.918 
					3466.083,552.918 3512.215,552.918 3558.346,552.918 3604.313,552.918 3650.444,552.918 3696.575,552.918 3742.542,552.918 
					3788.674,552.918 3834.805,552.918 3880.772,552.918 3926.903,552.918 3973.034,552.918 4019,552.918 4065.131,552.918 
					4111.264,552.918 4157.231,552.918 4203.362,552.918 4249.493,552.918 4295.459,552.918 4341.59,552.918 4387.723,552.918 
					4433.69,552.918 4479.821,552.918 4525.952,552.918 4571.918,552.918 4618.049,552.918 4664.182,552.918 4710.149,552.918 
					4756.28,552.918 4802.411,552.918 4848.377,552.918 4894.508,552.918 4940.475,552.918 4986.608,552.918 5032.739,552.918 
					5078.706,552.918 				"/>
				<polyline fill="none" stroke="#000000" stroke-miterlimit="10" points="425.2,506.786 471.331,506.786 517.298,506.786 
					563.43,506.786 609.561,506.786 655.527,506.786 701.659,506.786 747.79,506.786 793.757,506.786 839.889,506.786 
					886.02,506.786 931.987,506.786 978.118,506.786 1024.249,506.786 1070.215,506.786 1116.346,506.786 1162.315,506.786 
					1208.446,506.786 1254.577,506.786 1300.708,506.786 1346.674,506.786 1392.805,506.786 1438.938,506.786 1484.905,506.786 
					1531.036,506.786 1577.002,506.786 1623.133,506.786 1669.264,506.786 1715.231,506.786 1761.364,506.786 1807.495,506.786 
					1853.461,506.786 1899.592,506.786 1945.723,506.786 1991.69,506.786 2037.823,506.786 2083.954,506.786 2129.92,506.786 
					2176.051,506.786 2222.182,506.786 2268.149,506.786 2314.28,506.786 2360.413,506.786 2406.379,506.786 2452.51,506.786 
					2498.641,506.786 2544.608,506.786 2590.739,506.786 2636.872,506.786 2682.838,506.786 2728.969,506.786 2775.1,506.786 
					2821.067,506.786 2867.198,506.786 2913.331,506.786 2959.297,506.786 3005.428,506.786 3051.559,506.786 3097.526,506.786 
					3143.657,506.786 3189.624,506.786 3235.756,506.786 3281.887,506.786 3328.018,506.786 3373.985,506.786 3420.116,506.786 
					3466.083,506.786 3512.215,506.786 3558.346,506.786 3604.313,506.786 3650.444,506.786 3696.575,506.786 3742.542,506.786 
					3788.674,506.786 3834.805,506.786 3880.772,506.786 3926.903,506.786 3973.034,506.786 4019,506.786 4065.131,506.786 
					4111.264,506.786 4157.231,506.786 4203.362,506.786 4249.493,506.786 4295.459,506.786 4341.59,506.786 4387.723,506.786 
					4433.69,506.786 4479.821,506.786 4525.952,506.786 4571.918,506.786 4618.049,506.786 4664.182,506.786 4710.149,506.786 
					4756.28,506.786 4802.411,506.786 4848.377,506.786 4894.508,506.786 4940.475,506.786 4986.608,506.786 5032.739,506.786 
					5078.706,506.786 				"/>
				<polyline fill="none" stroke="#000000" stroke-miterlimit="10" points="425.2,460.819 471.331,460.819 517.298,460.819 
					563.43,460.819 609.561,460.819 655.527,460.819 701.659,460.819 747.79,460.819 793.757,460.819 839.889,460.819 
					886.02,460.819 931.987,460.819 978.118,460.819 1024.249,460.819 1070.215,460.819 1116.346,460.819 1162.315,460.819 
					1208.446,460.819 1254.577,460.819 1300.708,460.819 1346.674,460.819 1392.805,460.819 1438.938,460.819 1484.905,460.819 
					1531.036,460.819 1577.002,460.819 1623.133,460.819 1669.264,460.819 1715.231,460.819 1761.364,460.819 1807.495,460.819 
					1853.461,460.819 1899.592,460.819 1945.723,460.819 1991.69,460.819 2037.823,460.819 2083.954,460.819 2129.92,460.819 
					2176.051,460.819 2222.182,460.819 2268.149,460.819 2314.28,460.819 2360.413,460.819 2406.379,460.819 2452.51,460.819 
					2498.641,460.819 2544.608,460.819 2590.739,460.819 2636.872,460.819 2682.838,460.819 2728.969,460.819 2775.1,460.819 
					2821.067,460.819 2867.198,460.819 2913.331,460.819 2959.297,460.819 3005.428,460.819 3051.559,460.819 3097.526,460.819 
					3143.657,460.819 3189.624,460.819 3235.756,460.819 3281.887,460.819 3328.018,460.819 3373.985,460.819 3420.116,460.819 
					3466.083,460.819 3512.215,460.819 3558.346,460.819 3604.313,460.819 3650.444,460.819 3696.575,460.819 3742.542,460.819 
					3788.674,460.819 3834.805,460.819 3880.772,460.819 3926.903,460.819 3973.034,460.819 4019,460.819 4065.131,460.819 
					4111.264,460.819 4157.231,460.819 4203.362,460.819 4249.493,460.819 4295.459,460.819 4341.59,460.819 4387.723,460.819 
					4433.69,460.819 4479.821,460.819 4525.952,460.819 4571.918,460.819 4618.049,460.819 4664.182,460.819 4710.149,460.819 
					4756.28,460.819 4802.411,460.819 4848.377,460.819 4894.508,460.819 4940.475,460.819 4986.608,460.819 5032.739,460.819 
					5078.706,460.819 				"/>
				<polyline fill="none" stroke="#000000" stroke-miterlimit="10" points="425.2,414.688 471.331,414.688 517.298,414.688 
					563.43,414.688 609.561,414.688 655.527,414.688 701.659,414.688 747.79,414.688 793.757,414.688 839.889,414.688 
					886.02,414.688 931.987,414.688 978.118,414.688 1024.249,414.688 1070.215,414.688 1116.346,414.688 1162.315,414.688 
					1208.446,414.688 1254.577,414.688 1300.708,414.688 1346.674,414.688 1392.805,414.688 1438.938,414.688 1484.905,414.688 
					1531.036,414.688 1577.002,414.688 1623.133,414.688 1669.264,414.688 1715.231,414.688 1761.364,414.688 1807.495,414.688 
					1853.461,414.688 1899.592,414.688 1945.723,414.688 1991.69,414.688 2037.823,414.688 2083.954,414.688 2129.92,414.688 
					2176.051,414.688 2222.182,414.688 2268.149,414.688 2314.28,414.688 2360.413,414.688 2406.379,414.688 2452.51,414.688 
					2498.641,414.688 2544.608,414.688 2590.739,414.688 2636.872,414.688 2682.838,414.688 2728.969,414.688 2775.1,414.688 
					2821.067,414.688 2867.198,414.688 2913.331,414.688 2959.297,414.688 3005.428,414.688 3051.559,414.688 3097.526,414.688 
					3143.657,414.688 3189.624,414.688 3235.756,414.688 3281.887,414.688 3328.018,414.688 3373.985,414.688 3420.116,414.688 
					3466.083,414.688 3512.215,414.688 3558.346,414.688 3604.313,414.688 3650.444,414.688 3696.575,414.688 3742.542,414.688 
					3788.674,414.688 3834.805,414.688 3880.772,414.688 3926.903,414.688 3973.034,414.688 4019,414.688 4065.131,414.688 
					4111.264,414.688 4157.231,414.688 4203.362,414.688 4249.493,414.688 4295.459,414.688 4341.59,414.688 4387.723,414.688 
					4433.69,414.688 4479.821,414.688 4525.952,414.688 4571.918,414.688 4618.049,414.688 4664.182,414.688 4710.149,414.688 
					4756.28,414.688 4802.411,414.688 4848.377,414.688 4894.508,414.688 4940.475,414.688 4986.608,414.688 5032.739,414.688 
					5078.706,414.688 				"/>
				<polyline fill="none" stroke="#000000" stroke-miterlimit="10" points="425.2,368.557 471.331,368.557 517.298,368.557 
					563.43,368.557 609.561,368.557 655.527,368.557 701.659,368.557 747.79,368.557 793.757,368.557 839.889,368.557 
					886.02,368.557 931.987,368.557 978.118,368.557 1024.249,368.557 1070.215,368.557 1116.346,368.557 1162.315,368.557 
					1208.446,368.557 1254.577,368.557 1300.708,368.557 1346.674,368.557 1392.805,368.557 1438.938,368.557 1484.905,368.557 
					1531.036,368.557 1577.002,368.557 1623.133,368.557 1669.264,368.557 1715.231,368.557 1761.364,368.557 1807.495,368.557 
					1853.461,368.557 1899.592,368.557 1945.723,368.557 1991.69,368.557 2037.823,368.557 2083.954,368.557 2129.92,368.557 
					2176.051,368.557 2222.182,368.557 2268.149,368.557 2314.28,368.557 2360.413,368.557 2406.379,368.557 2452.51,368.557 
					2498.641,368.557 2544.608,368.557 2590.739,368.557 2636.872,368.557 2682.838,368.557 2728.969,368.557 2775.1,368.557 
					2821.067,368.557 2867.198,368.557 2913.331,368.557 2959.297,368.557 3005.428,368.557 3051.559,368.557 3097.526,368.557 
					3143.657,368.557 3189.624,368.557 3235.756,368.557 3281.887,368.557 3328.018,368.557 3373.985,368.557 3420.116,368.557 
					3466.083,368.557 3512.215,368.557 3558.346,368.557 3604.313,368.557 3650.444,368.557 3696.575,368.557 3742.542,368.557 
					3788.674,368.557 3834.805,368.557 3880.772,368.557 3926.903,368.557 3973.034,368.557 4019,368.557 4065.131,368.557 
					4111.264,368.557 4157.231,368.557 4203.362,368.557 4249.493,368.557 4295.459,368.557 4341.59,368.557 4387.723,368.557 
					4433.69,368.557 4479.821,368.557 4525.952,368.557 4571.918,368.557 4618.049,368.557 4664.182,368.557 4710.149,368.557 
					4756.28,368.557 4802.411,368.557 4848.377,368.557 4894.508,368.557 4940.475,368.557 4986.608,368.557 5032.739,368.557 
					5078.706,368.557 				"/>
				<polyline fill="none" stroke="#000000" stroke-miterlimit="10" points="425.2,322.59 471.331,322.59 517.298,322.59 
					563.43,322.59 609.561,322.59 655.527,322.59 701.659,322.59 747.79,322.59 793.757,322.59 839.889,322.59 886.02,322.59 
					931.987,322.59 978.118,322.59 1024.249,322.59 1070.215,322.59 1116.346,322.59 1162.315,322.59 1208.446,322.59 
					1254.577,322.59 1300.708,322.59 1346.674,322.59 1392.805,322.59 1438.938,322.59 1484.905,322.59 1531.036,322.59 
					1577.002,322.59 1623.133,322.59 1669.264,322.59 1715.231,322.59 1761.364,322.59 1807.495,322.59 1853.461,322.59 
					1899.592,322.59 1945.723,322.59 1991.69,322.59 2037.823,322.59 2083.954,322.59 2129.92,322.59 2176.051,322.59 
					2222.182,322.59 2268.149,322.59 2314.28,322.59 2360.413,322.59 2406.379,322.59 2452.51,322.59 2498.641,322.59 
					2544.608,322.59 2590.739,322.59 2636.872,322.59 2682.838,322.59 2728.969,322.59 2775.1,322.59 2821.067,322.59 
					2867.198,322.59 2913.331,322.59 2959.297,322.59 3005.428,322.59 3051.559,322.59 3097.526,322.59 3143.657,322.59 
					3189.624,322.59 3235.756,322.59 3281.887,322.59 3328.018,322.59 3373.985,322.59 3420.116,322.59 3466.083,322.59 
					3512.215,322.59 3558.346,322.59 3604.313,322.59 3650.444,322.59 3696.575,322.59 3742.542,322.59 3788.674,322.59 
					3834.805,322.59 3880.772,322.59 3926.903,322.59 3973.034,322.59 4019,322.59 4065.131,322.59 4111.264,322.59 
					4157.231,322.59 4203.362,322.59 4249.493,322.59 4295.459,322.59 4341.59,322.59 4387.723,322.59 4433.69,322.59 
					4479.821,322.59 4525.952,322.59 4571.918,322.59 4618.049,322.59 4664.182,322.59 4710.149,322.59 4756.28,322.59 
					4802.411,322.59 4848.377,322.59 4894.508,322.59 4940.475,322.59 4986.608,322.59 5032.739,322.59 5078.706,322.59 				"/>
				<polyline fill="none" stroke="#000000" stroke-miterlimit="10" points="425.2,276.459 471.331,276.459 517.298,276.459 
					563.43,276.459 609.561,276.459 655.527,276.459 701.659,276.459 747.79,276.459 793.757,276.459 839.889,276.459 
					886.02,276.459 931.987,276.459 978.118,276.459 1024.249,276.459 1070.215,276.459 1116.346,276.459 1162.315,276.459 
					1208.446,276.459 1254.577,276.459 1300.708,276.459 1346.674,276.459 1392.805,276.459 1438.938,276.459 1484.905,276.459 
					1531.036,276.459 1577.002,276.459 1623.133,276.459 1669.264,276.459 1715.231,276.459 1761.364,276.459 1807.495,276.459 
					1853.461,276.459 1899.592,276.459 1945.723,276.459 1991.69,276.459 2037.823,276.459 2083.954,276.459 2129.92,276.459 
					2176.051,276.459 2222.182,276.459 2268.149,276.459 2314.28,276.459 2360.413,276.459 2406.379,276.459 2452.51,276.459 
					2498.641,276.459 2544.608,276.459 2590.739,276.459 2636.872,276.459 2682.838,276.459 2728.969,276.459 2775.1,276.459 
					2821.067,276.459 2867.198,276.459 2913.331,276.459 2959.297,276.459 3005.428,276.459 3051.559,276.459 3097.526,276.459 
					3143.657,276.459 3189.624,276.459 3235.756,276.459 3281.887,276.459 3328.018,276.459 3373.985,276.459 3420.116,276.459 
					3466.083,276.459 3512.215,276.459 3558.346,276.459 3604.313,276.459 3650.444,276.459 3696.575,276.459 3742.542,276.459 
					3788.674,276.459 3834.805,276.459 3880.772,276.459 3926.903,276.459 3973.034,276.459 4019,276.459 4065.131,276.459 
					4111.264,276.459 4157.231,276.459 4203.362,276.459 4249.493,276.459 4295.459,276.459 4341.59,276.459 4387.723,276.459 
					4433.69,276.459 4479.821,276.459 4525.952,276.459 4571.918,276.459 4618.049,276.459 4664.182,276.459 4710.149,276.459 
					4756.28,276.459 4802.411,276.459 4848.377,276.459 4894.508,276.459 4940.475,276.459 4986.608,276.459 5032.739,276.459 
					5078.706,276.459 				"/>
				<polyline fill="none" stroke="#000000" stroke-miterlimit="10" points="425.2,230.328 471.331,230.328 517.298,230.328 
					563.43,230.328 609.561,230.328 655.527,230.328 701.659,230.328 747.79,230.328 793.757,230.328 839.889,230.328 
					886.02,230.328 931.987,230.328 978.118,230.328 1024.249,230.328 1070.215,230.328 1116.346,230.328 1162.315,230.328 
					1208.446,230.328 1254.577,230.328 1300.708,230.328 1346.674,230.328 1392.805,230.328 1438.938,230.328 1484.905,230.328 
					1531.036,230.328 1577.002,230.328 1623.133,230.328 1669.264,230.328 1715.231,230.328 1761.364,230.328 1807.495,230.328 
					1853.461,230.328 1899.592,230.328 1945.723,230.328 1991.69,230.328 2037.823,230.328 2083.954,230.328 2129.92,230.328 
					2176.051,230.328 2222.182,230.328 2268.149,230.328 2314.28,230.328 2360.413,230.328 2406.379,230.328 2452.51,230.328 
					2498.641,230.328 2544.608,230.328 2590.739,230.328 2636.872,230.328 2682.838,230.328 2728.969,230.328 2775.1,230.328 
					2821.067,230.328 2867.198,230.328 2913.331,230.328 2959.297,230.328 3005.428,230.328 3051.559,230.328 3097.526,230.328 
					3143.657,230.328 3189.624,230.328 3235.756,230.328 3281.887,230.328 3328.018,230.328 3373.985,230.328 3420.116,230.328 
					3466.083,230.328 3512.215,230.328 3558.346,230.328 3604.313,230.328 3650.444,230.328 3696.575,230.328 3742.542,230.328 
					3788.674,230.328 3834.805,230.328 3880.772,230.328 3926.903,230.328 3973.034,230.328 4019,230.328 4065.131,230.328 
					4111.264,230.328 4157.231,230.328 4203.362,230.328 4249.493,230.328 4295.459,230.328 4341.59,230.328 4387.723,230.328 
					4433.69,230.328 4479.821,230.328 4525.952,230.328 4571.918,230.328 4618.049,230.328 4664.182,230.328 4710.149,230.328 
					4756.28,230.328 4802.411,230.328 4848.377,230.328 4894.508,230.328 4940.475,230.328 4986.608,230.328 5032.739,230.328 
					5078.706,230.328 				"/>
				<polyline fill="none" stroke="#000000" stroke-miterlimit="10" points="425.2,184.361 471.331,184.361 517.298,184.361 
					563.43,184.361 609.561,184.361 655.527,184.361 701.659,184.361 747.79,184.361 793.757,184.361 839.889,184.361 
					886.02,184.361 931.987,184.361 978.118,184.361 1024.249,184.361 1070.215,184.361 1116.346,184.361 1162.315,184.361 
					1208.446,184.361 1254.577,184.361 1300.708,184.361 1346.674,184.361 1392.805,184.361 1438.938,184.361 1484.905,184.361 
					1531.036,184.361 1577.002,184.361 1623.133,184.361 1669.264,184.361 1715.231,184.361 1761.364,184.361 1807.495,184.361 
					1853.461,184.361 1899.592,184.361 1945.723,184.361 1991.69,184.361 2037.823,184.361 2083.954,184.361 2129.92,184.361 
					2176.051,184.361 2222.182,184.361 2268.149,184.361 2314.28,184.361 2360.413,184.361 2406.379,184.361 2452.51,184.361 
					2498.641,184.361 2544.608,184.361 2590.739,184.361 2636.872,184.361 2682.838,184.361 2728.969,184.361 2775.1,184.361 
					2821.067,184.361 2867.198,184.361 2913.331,184.361 2959.297,184.361 3005.428,184.361 3051.559,184.361 3097.526,184.361 
					3143.657,184.361 3189.624,184.361 3235.756,184.361 3281.887,184.361 3328.018,184.361 3373.985,184.361 3420.116,184.361 
					3466.083,184.361 3512.215,184.361 3558.346,184.361 3604.313,184.361 3650.444,184.361 3696.575,184.361 3742.542,184.361 
					3788.674,184.361 3834.805,184.361 3880.772,184.361 3926.903,184.361 3973.034,184.361 4019,184.361 4065.131,184.361 
					4111.264,184.361 4157.231,184.361 4203.362,184.361 4249.493,184.361 4295.459,184.361 4341.59,184.361 4387.723,184.361 
					4433.69,184.361 4479.821,184.361 4525.952,184.361 4571.918,184.361 4618.049,184.361 4664.182,184.361 4710.149,184.361 
					4756.28,184.361 4802.411,184.361 4848.377,184.361 4894.508,184.361 4940.475,184.361 4986.608,184.361 5032.739,184.361 
					5078.706,184.361 				"/>
				<polyline fill="none" stroke="#000000" stroke-miterlimit="10" points="425.2,138.229 471.331,138.229 517.298,138.229 
					563.43,138.229 609.561,138.229 655.527,138.229 701.659,138.229 747.79,138.229 793.757,138.229 839.889,138.229 
					886.02,138.229 931.987,138.229 978.118,138.229 1024.249,138.229 1070.215,138.229 1116.346,138.229 1162.315,138.229 
					1208.446,138.229 1254.577,138.229 1300.708,138.229 1346.674,138.229 1392.805,138.229 1438.938,138.229 1484.905,138.229 
					1531.036,138.229 1577.002,138.229 1623.133,138.229 1669.264,138.229 1715.231,138.229 1761.364,138.229 1807.495,138.229 
					1853.461,138.229 1899.592,138.229 1945.723,138.229 1991.69,138.229 2037.823,138.229 2083.954,138.229 2129.92,138.229 
					2176.051,138.229 2222.182,138.229 2268.149,138.229 2314.28,138.229 2360.413,138.229 2406.379,138.229 2452.51,138.229 
					2498.641,138.229 2544.608,138.229 2590.739,138.229 2636.872,138.229 2682.838,138.229 2728.969,138.229 2775.1,138.229 
					2821.067,138.229 2867.198,138.229 2913.331,138.229 2959.297,138.229 3005.428,138.229 3051.559,138.229 3097.526,138.229 
					3143.657,138.229 3189.624,138.229 3235.756,138.229 3281.887,138.229 3328.018,138.229 3373.985,138.229 3420.116,138.229 
					3466.083,138.229 3512.215,138.229 3558.346,138.229 3604.313,138.229 3650.444,138.229 3696.575,138.229 3742.542,138.229 
					3788.674,138.229 3834.805,138.229 3880.772,138.229 3926.903,138.229 3973.034,138.229 4019,138.229 4065.131,138.229 
					4111.264,138.229 4157.231,138.229 4203.362,138.229 4249.493,138.229 4295.459,138.229 4341.59,138.229 4387.723,138.229 
					4433.69,138.229 4479.821,138.229 4525.952,138.229 4571.918,138.229 4618.049,138.229 4664.182,138.229 4710.149,138.229 
					4756.28,138.229 4802.411,138.229 4848.377,138.229 4894.508,138.229 4940.475,138.229 4986.608,138.229 5032.739,138.229 
					5078.706,138.229 				"/>
				<polyline fill="none" stroke="#000000" stroke-miterlimit="10" points="425.2,92.098 471.331,92.098 517.298,92.098 
					563.43,92.098 609.561,92.098 655.527,92.098 701.659,92.098 747.79,92.098 793.757,92.098 839.889,92.098 886.02,92.098 
					931.987,92.098 978.118,92.098 1024.249,92.098 1070.215,92.098 1116.346,92.098 1162.315,92.098 1208.446,92.098 
					1254.577,92.098 1300.708,92.098 1346.674,92.098 1392.805,92.098 1438.938,92.098 1484.905,92.098 1531.036,92.098 
					1577.002,92.098 1623.133,92.098 1669.264,92.098 1715.231,92.098 1761.364,92.098 1807.495,92.098 1853.461,92.098 
					1899.592,92.098 1945.723,92.098 1991.69,92.098 2037.823,92.098 2083.954,92.098 2129.92,92.098 2176.051,92.098 
					2222.182,92.098 2268.149,92.098 2314.28,92.098 2360.413,92.098 2406.379,92.098 2452.51,92.098 2498.641,92.098 
					2544.608,92.098 2590.739,92.098 2636.872,92.098 2682.838,92.098 2728.969,92.098 2775.1,92.098 2821.067,92.098 
					2867.198,92.098 2913.331,92.098 2959.297,92.098 3005.428,92.098 3051.559,92.098 3097.526,92.098 3143.657,92.098 
					3189.624,92.098 3235.756,92.098 3281.887,92.098 3328.018,92.098 3373.985,92.098 3420.116,92.098 3466.083,92.098 
					3512.215,92.098 3558.346,92.098 3604.313,92.098 3650.444,92.098 3696.575,92.098 3742.542,92.098 3788.674,92.098 
					3834.805,92.098 3880.772,92.098 3926.903,92.098 3973.034,92.098 4019,92.098 4065.131,92.098 4111.264,92.098 
					4157.231,92.098 4203.362,92.098 4249.493,92.098 4295.459,92.098 4341.59,92.098 4387.723,92.098 4433.69,92.098 
					4479.821,92.098 4525.952,92.098 4571.918,92.098 4618.049,92.098 4664.182,92.098 4710.149,92.098 4756.28,92.098 
					4802.411,92.098 4848.377,92.098 4894.508,92.098 4940.475,92.098 4986.608,92.098 5032.739,92.098 5078.706,92.098 				"/>
				<polyline fill="none" stroke="#000000" stroke-miterlimit="10" points="425.2,46.131 471.331,46.131 517.298,46.131 
					563.43,46.131 609.561,46.131 655.527,46.131 701.659,46.131 747.79,46.131 793.757,46.131 839.889,46.131 886.02,46.131 
					931.987,46.131 978.118,46.131 1024.249,46.131 1070.215,46.131 1116.346,46.131 1162.315,46.131 1208.446,46.131 
					1254.577,46.131 1300.708,46.131 1346.674,46.131 1392.805,46.131 1438.938,46.131 1484.905,46.131 1531.036,46.131 
					1577.002,46.131 1623.133,46.131 1669.264,46.131 1715.231,46.131 1761.364,46.131 1807.495,46.131 1853.461,46.131 
					1899.592,46.131 1945.723,46.131 1991.69,46.131 2037.823,46.131 2083.954,46.131 2129.92,46.131 2176.051,46.131 
					2222.182,46.131 2268.149,46.131 2314.28,46.131 2360.413,46.131 2406.379,46.131 2452.51,46.131 2498.641,46.131 
					2544.608,46.131 2590.739,46.131 2636.872,46.131 2682.838,46.131 2728.969,46.131 2775.1,46.131 2821.067,46.131 
					2867.198,46.131 2913.331,46.131 2959.297,46.131 3005.428,46.131 3051.559,46.131 3097.526,46.131 3143.657,46.131 
					3189.624,46.131 3235.756,46.131 3281.887,46.131 3328.018,46.131 3373.985,46.131 3420.116,46.131 3466.083,46.131 
					3512.215,46.131 3558.346,46.131 3604.313,46.131 3650.444,46.131 3696.575,46.131 3742.542,46.131 3788.674,46.131 
					3834.805,46.131 3880.772,46.131 3926.903,46.131 3973.034,46.131 4019,46.131 4065.131,46.131 4111.264,46.131 
					4157.231,46.131 4203.362,46.131 4249.493,46.131 4295.459,46.131 4341.59,46.131 4387.723,46.131 4433.69,46.131 
					4479.821,46.131 4525.952,46.131 4571.918,46.131 4618.049,46.131 4664.182,46.131 4710.149,46.131 4756.28,46.131 
					4802.411,46.131 4848.377,46.131 4894.508,46.131 4940.475,46.131 4986.608,46.131 5032.739,46.131 5078.706,46.131 				"/>
				<polyline fill="none" stroke="#000000" stroke-miterlimit="10" points="1254.577,0 1254.577,46.131 1254.577,92.098 
					1254.577,138.229 1254.577,184.361 1254.577,230.328 1254.577,276.459 1254.577,322.59 1254.577,368.557 1254.577,414.688 
					1254.577,460.819 1254.577,506.786 1254.577,552.918 1254.577,599.049 1254.577,645.016 1254.577,691.147 1254.577,737.114 
					1254.577,783.245 1254.577,829.377 1254.577,875.508 1254.577,921.475 1254.577,967.606 1254.577,1013.737 1254.577,1059.704 
					1254.577,1105.836 1254.577,1151.803 1254.577,1197.934 1254.577,1244.064 1254.577,1290.032 1254.577,1336.163 
					1254.577,1382.294 1254.577,1428.262 1254.577,1474.393 1254.577,1520.523 1254.577,1566.491 1254.577,1612.622 
					1254.577,1658.753 1254.577,1704.721 1254.577,1750.852 1254.577,1796.982 1254.577,1842.949 1254.577,1889.081 
					1254.577,1935.212 1254.577,1981.18 1254.577,2027.311 1254.577,2073.441 1254.577,2119.408 1254.577,2165.54 
					1254.577,2211.671 1254.577,2257.638 1254.577,2303.77 1254.577,2349.9 1254.577,2395.867 1254.577,2441.998 1254.577,2488.13 
					1254.577,2534.097 1254.577,2580.229 1254.577,2626.359 1254.577,2672.326 1254.577,2718.457 1254.577,2764.425 
					1254.577,2810.556 1254.577,2856.688 1254.577,2902.818 1254.577,2948.785 1254.577,2994.916 1254.577,3040.884 
					1254.577,3087.015 1254.577,3133.146 1254.577,3179.113 1254.577,3225.244 1254.577,3271.375 1254.577,3317.342 
					1254.577,3363.474 1254.577,3409.604 1254.577,3455.571 1254.577,3501.703 1254.577,3547.834 1254.577,3593.801 
					1254.577,3639.933 1254.577,3686.063 1254.577,3732.031 1254.577,3778.162 1254.577,3824.293 1254.577,3870.26 
					1254.577,3916.392 1254.577,3962.522 1254.577,4008.489 1254.577,4054.621 1254.577,4100.752 1254.577,4146.719 
					1254.577,4192.85 1254.577,4238.981 1254.577,4284.949 1254.577,4331.08 1254.577,4377.211 1254.577,4423.178 
					1254.577,4469.309 1254.577,4515.275 1254.577,4561.407 1254.577,4607.539 1254.577,4653.506 				"/>
				<polyline fill="none" stroke="#000000" stroke-miterlimit="10" points="1208.446,0 1208.446,46.131 1208.446,92.098 
					1208.446,138.229 1208.446,184.361 1208.446,230.328 1208.446,276.459 1208.446,322.59 1208.446,368.557 1208.446,414.688 
					1208.446,460.819 1208.446,506.786 1208.446,552.918 1208.446,599.049 1208.446,645.016 1208.446,691.147 1208.446,737.114 
					1208.446,783.245 1208.446,829.377 1208.446,875.508 1208.446,921.475 1208.446,967.606 1208.446,1013.737 1208.446,1059.704 
					1208.446,1105.836 1208.446,1151.803 1208.446,1197.934 1208.446,1244.064 1208.446,1290.032 1208.446,1336.163 
					1208.446,1382.294 1208.446,1428.262 1208.446,1474.393 1208.446,1520.523 1208.446,1566.491 1208.446,1612.622 
					1208.446,1658.753 1208.446,1704.721 1208.446,1750.852 1208.446,1796.982 1208.446,1842.949 1208.446,1889.081 
					1208.446,1935.212 1208.446,1981.18 1208.446,2027.311 1208.446,2073.441 1208.446,2119.408 1208.446,2165.54 
					1208.446,2211.671 1208.446,2257.638 1208.446,2303.77 1208.446,2349.9 1208.446,2395.867 1208.446,2441.998 1208.446,2488.13 
					1208.446,2534.097 1208.446,2580.229 1208.446,2626.359 1208.446,2672.326 1208.446,2718.457 1208.446,2764.425 
					1208.446,2810.556 1208.446,2856.688 1208.446,2902.818 1208.446,2948.785 1208.446,2994.916 1208.446,3040.884 
					1208.446,3087.015 1208.446,3133.146 1208.446,3179.113 1208.446,3225.244 1208.446,3271.375 1208.446,3317.342 
					1208.446,3363.474 1208.446,3409.604 1208.446,3455.571 1208.446,3501.703 1208.446,3547.834 1208.446,3593.801 
					1208.446,3639.933 1208.446,3686.063 1208.446,3732.031 1208.446,3778.162 1208.446,3824.293 1208.446,3870.26 
					1208.446,3916.392 1208.446,3962.522 1208.446,4008.489 1208.446,4054.621 1208.446,4100.752 1208.446,4146.719 
					1208.446,4192.85 1208.446,4238.981 1208.446,4284.949 1208.446,4331.08 1208.446,4377.211 1208.446,4423.178 
					1208.446,4469.309 1208.446,4515.275 1208.446,4561.407 1208.446,4607.539 1208.446,4653.506 				"/>
				<polyline fill="none" stroke="#000000" stroke-miterlimit="10" points="1162.315,0 1162.315,46.131 1162.315,92.098 
					1162.315,138.229 1162.315,184.361 1162.315,230.328 1162.315,276.459 1162.315,322.59 1162.315,368.557 1162.315,414.688 
					1162.315,460.819 1162.315,506.786 1162.315,552.918 1162.315,599.049 1162.315,645.016 1162.315,691.147 1162.315,737.114 
					1162.315,783.245 1162.315,829.377 1162.315,875.508 1162.315,921.475 1162.315,967.606 1162.315,1013.737 1162.315,1059.704 
					1162.315,1105.836 1162.315,1151.803 1162.315,1197.934 1162.315,1244.064 1162.315,1290.032 1162.315,1336.163 
					1162.315,1382.294 1162.315,1428.262 1162.315,1474.393 1162.315,1520.523 1162.315,1566.491 1162.315,1612.622 
					1162.315,1658.753 1162.315,1704.721 1162.315,1750.852 1162.315,1796.982 1162.315,1842.949 1162.315,1889.081 
					1162.315,1935.212 1162.315,1981.18 1162.315,2027.311 1162.315,2073.441 1162.315,2119.408 1162.315,2165.54 
					1162.315,2211.671 1162.315,2257.638 1162.315,2303.77 1162.315,2349.9 1162.315,2395.867 1162.315,2441.998 1162.315,2488.13 
					1162.315,2534.097 1162.315,2580.229 1162.315,2626.359 1162.315,2672.326 1162.315,2718.457 1162.315,2764.425 
					1162.315,2810.556 1162.315,2856.688 1162.315,2902.818 1162.315,2948.785 1162.315,2994.916 1162.315,3040.884 
					1162.315,3087.015 1162.315,3133.146 1162.315,3179.113 1162.315,3225.244 1162.315,3271.375 1162.315,3317.342 
					1162.315,3363.474 1162.315,3409.604 1162.315,3455.571 1162.315,3501.703 1162.315,3547.834 1162.315,3593.801 
					1162.315,3639.933 1162.315,3686.063 1162.315,3732.031 1162.315,3778.162 1162.315,3824.293 1162.315,3870.26 
					1162.315,3916.392 1162.315,3962.522 1162.315,4008.489 1162.315,4054.621 1162.315,4100.752 1162.315,4146.719 
					1162.315,4192.85 1162.315,4238.981 1162.315,4284.949 1162.315,4331.08 1162.315,4377.211 1162.315,4423.178 
					1162.315,4469.309 1162.315,4515.275 1162.315,4561.407 1162.315,4607.539 1162.315,4653.506 				"/>
				<polyline fill="none" stroke="#000000" stroke-miterlimit="10" points="1116.346,0 1116.346,46.131 1116.346,92.098 
					1116.346,138.229 1116.346,184.361 1116.346,230.328 1116.346,276.459 1116.346,322.59 1116.346,368.557 1116.346,414.688 
					1116.346,460.819 1116.346,506.786 1116.346,552.918 1116.346,599.049 1116.346,645.016 1116.346,691.147 1116.346,737.114 
					1116.346,783.245 1116.346,829.377 1116.346,875.508 1116.346,921.475 1116.346,967.606 1116.346,1013.737 1116.346,1059.704 
					1116.346,1105.836 1116.346,1151.803 1116.346,1197.934 1116.346,1244.064 1116.346,1290.032 1116.346,1336.163 
					1116.346,1382.294 1116.346,1428.262 1116.346,1474.393 1116.346,1520.523 1116.346,1566.491 1116.346,1612.622 
					1116.346,1658.753 1116.346,1704.721 1116.346,1750.852 1116.346,1796.982 1116.346,1842.949 1116.346,1889.081 
					1116.346,1935.212 1116.346,1981.18 1116.346,2027.311 1116.346,2073.441 1116.346,2119.408 1116.346,2165.54 
					1116.346,2211.671 1116.346,2257.638 1116.346,2303.77 1116.346,2349.9 1116.346,2395.867 1116.346,2441.998 1116.346,2488.13 
					1116.346,2534.097 1116.346,2580.229 1116.346,2626.359 1116.346,2672.326 1116.346,2718.457 1116.346,2764.425 
					1116.346,2810.556 1116.346,2856.688 1116.346,2902.818 1116.346,2948.785 1116.346,2994.916 1116.346,3040.884 
					1116.346,3087.015 1116.346,3133.146 1116.346,3179.113 1116.346,3225.244 1116.346,3271.375 1116.346,3317.342 
					1116.346,3363.474 1116.346,3409.604 1116.346,3455.571 1116.346,3501.703 1116.346,3547.834 1116.346,3593.801 
					1116.346,3639.933 1116.346,3686.063 1116.346,3732.031 1116.346,3778.162 1116.346,3824.293 1116.346,3870.26 
					1116.346,3916.392 1116.346,3962.522 1116.346,4008.489 1116.346,4054.621 1116.346,4100.752 1116.346,4146.719 
					1116.346,4192.85 1116.346,4238.981 1116.346,4284.949 1116.346,4331.08 1116.346,4377.211 1116.346,4423.178 
					1116.346,4469.309 1116.346,4515.275 1116.346,4561.407 1116.346,4607.539 1116.346,4653.506 				"/>
				<polyline fill="none" stroke="#000000" stroke-miterlimit="10" points="1070.215,0 1070.215,46.131 1070.215,92.098 
					1070.215,138.229 1070.215,184.361 1070.215,230.328 1070.215,276.459 1070.215,322.59 1070.215,368.557 1070.215,414.688 
					1070.215,460.819 1070.215,506.786 1070.215,552.918 1070.215,599.049 1070.215,645.016 1070.215,691.147 1070.215,737.114 
					1070.215,783.245 1070.215,829.377 1070.215,875.508 1070.215,921.475 1070.215,967.606 1070.215,1013.737 1070.215,1059.704 
					1070.215,1105.836 1070.215,1151.803 1070.215,1197.934 1070.215,1244.064 1070.215,1290.032 1070.215,1336.163 
					1070.215,1382.294 1070.215,1428.262 1070.215,1474.393 1070.215,1520.523 1070.215,1566.491 1070.215,1612.622 
					1070.215,1658.753 1070.215,1704.721 1070.215,1750.852 1070.215,1796.982 1070.215,1842.949 1070.215,1889.081 
					1070.215,1935.212 1070.215,1981.18 1070.215,2027.311 1070.215,2073.441 1070.215,2119.408 1070.215,2165.54 
					1070.215,2211.671 1070.215,2257.638 1070.215,2303.77 1070.215,2349.9 1070.215,2395.867 1070.215,2441.998 1070.215,2488.13 
					1070.215,2534.097 1070.215,2580.229 1070.215,2626.359 1070.215,2672.326 1070.215,2718.457 1070.215,2764.425 
					1070.215,2810.556 1070.215,2856.688 1070.215,2902.818 1070.215,2948.785 1070.215,2994.916 1070.215,3040.884 
					1070.215,3087.015 1070.215,3133.146 1070.215,3179.113 1070.215,3225.244 1070.215,3271.375 1070.215,3317.342 
					1070.215,3363.474 1070.215,3409.604 1070.215,3455.571 1070.215,3501.703 1070.215,3547.834 1070.215,3593.801 
					1070.215,3639.933 1070.215,3686.063 1070.215,3732.031 1070.215,3778.162 1070.215,3824.293 1070.215,3870.26 
					1070.215,3916.392 1070.215,3962.522 1070.215,4008.489 1070.215,4054.621 1070.215,4100.752 1070.215,4146.719 
					1070.215,4192.85 1070.215,4238.981 1070.215,4284.949 1070.215,4331.08 1070.215,4377.211 1070.215,4423.178 
					1070.215,4469.309 1070.215,4515.275 1070.215,4561.407 1070.215,4607.539 1070.215,4653.506 				"/>
				<polyline fill="none" stroke="#000000" stroke-miterlimit="10" points="1024.249,0 1024.249,46.131 1024.249,92.098 
					1024.249,138.229 1024.249,184.361 1024.249,230.328 1024.249,276.459 1024.249,322.59 1024.249,368.557 1024.249,414.688 
					1024.249,460.819 1024.249,506.786 1024.249,552.918 1024.249,599.049 1024.249,645.016 1024.249,691.147 1024.249,737.114 
					1024.249,783.245 1024.249,829.377 1024.249,875.508 1024.249,921.475 1024.249,967.606 1024.249,1013.737 1024.249,1059.704 
					1024.249,1105.836 1024.249,1151.803 1024.249,1197.934 1024.249,1244.064 1024.249,1290.032 1024.249,1336.163 
					1024.249,1382.294 1024.249,1428.262 1024.249,1474.393 1024.249,1520.523 1024.249,1566.491 1024.249,1612.622 
					1024.249,1658.753 1024.249,1704.721 1024.249,1750.852 1024.249,1796.982 1024.249,1842.949 1024.249,1889.081 
					1024.249,1935.212 1024.249,1981.18 1024.249,2027.311 1024.249,2073.441 1024.249,2119.408 1024.249,2165.54 
					1024.249,2211.671 1024.249,2257.638 1024.249,2303.77 1024.249,2349.9 1024.249,2395.867 1024.249,2441.998 1024.249,2488.13 
					1024.249,2534.097 1024.249,2580.229 1024.249,2626.359 1024.249,2672.326 1024.249,2718.457 1024.249,2764.425 
					1024.249,2810.556 1024.249,2856.688 1024.249,2902.818 1024.249,2948.785 1024.249,2994.916 1024.249,3040.884 
					1024.249,3087.015 1024.249,3133.146 1024.249,3179.113 1024.249,3225.244 1024.249,3271.375 1024.249,3317.342 
					1024.249,3363.474 1024.249,3409.604 1024.249,3455.571 1024.249,3501.703 1024.249,3547.834 1024.249,3593.801 
					1024.249,3639.933 1024.249,3686.063 1024.249,3732.031 1024.249,3778.162 1024.249,3824.293 1024.249,3870.26 
					1024.249,3916.392 1024.249,3962.522 1024.249,4008.489 1024.249,4054.621 1024.249,4100.752 1024.249,4146.719 
					1024.249,4192.85 1024.249,4238.981 1024.249,4284.949 1024.249,4331.08 1024.249,4377.211 1024.249,4423.178 
					1024.249,4469.309 1024.249,4515.275 1024.249,4561.407 1024.249,4607.539 1024.249,4653.506 				"/>
				<polyline fill="none" stroke="#000000" stroke-miterlimit="10" points="978.118,0 978.118,46.131 978.118,92.098 
					978.118,138.229 978.118,184.361 978.118,230.328 978.118,276.459 978.118,322.59 978.118,368.557 978.118,414.688 
					978.118,460.819 978.118,506.786 978.118,552.918 978.118,599.049 978.118,645.016 978.118,691.147 978.118,737.114 
					978.118,783.245 978.118,829.377 978.118,875.508 978.118,921.475 978.118,967.606 978.118,1013.737 978.118,1059.704 
					978.118,1105.836 978.118,1151.803 978.118,1197.934 978.118,1244.064 978.118,1290.032 978.118,1336.163 978.118,1382.294 
					978.118,1428.262 978.118,1474.393 978.118,1520.523 978.118,1566.491 978.118,1612.622 978.118,1658.753 978.118,1704.721 
					978.118,1750.852 978.118,1796.982 978.118,1842.949 978.118,1889.081 978.118,1935.212 978.118,1981.18 978.118,2027.311 
					978.118,2073.441 978.118,2119.408 978.118,2165.54 978.118,2211.671 978.118,2257.638 978.118,2303.77 978.118,2349.9 
					978.118,2395.867 978.118,2441.998 978.118,2488.13 978.118,2534.097 978.118,2580.229 978.118,2626.359 978.118,2672.326 
					978.118,2718.457 978.118,2764.425 978.118,2810.556 978.118,2856.688 978.118,2902.818 978.118,2948.785 978.118,2994.916 
					978.118,3040.884 978.118,3087.015 978.118,3133.146 978.118,3179.113 978.118,3225.244 978.118,3271.375 978.118,3317.342 
					978.118,3363.474 978.118,3409.604 978.118,3455.571 978.118,3501.703 978.118,3547.834 978.118,3593.801 978.118,3639.933 
					978.118,3686.063 978.118,3732.031 978.118,3778.162 978.118,3824.293 978.118,3870.26 978.118,3916.392 978.118,3962.522 
					978.118,4008.489 978.118,4054.621 978.118,4100.752 978.118,4146.719 978.118,4192.85 978.118,4238.981 978.118,4284.949 
					978.118,4331.08 978.118,4377.211 978.118,4423.178 978.118,4469.309 978.118,4515.275 978.118,4561.407 978.118,4607.539 
					978.118,4653.506 				"/>
				<polyline fill="none" stroke="#000000" stroke-miterlimit="10" points="931.987,0 931.987,46.131 931.987,92.098 
					931.987,138.229 931.987,184.361 931.987,230.328 931.987,276.459 931.987,322.59 931.987,368.557 931.987,414.688 
					931.987,460.819 931.987,506.786 931.987,552.918 931.987,599.049 931.987,645.016 931.987,691.147 931.987,737.114 
					931.987,783.245 931.987,829.377 931.987,875.508 931.987,921.475 931.987,967.606 931.987,1013.737 931.987,1059.704 
					931.987,1105.836 931.987,1151.803 931.987,1197.934 931.987,1244.064 931.987,1290.032 931.987,1336.163 931.987,1382.294 
					931.987,1428.262 931.987,1474.393 931.987,1520.523 931.987,1566.491 931.987,1612.622 931.987,1658.753 931.987,1704.721 
					931.987,1750.852 931.987,1796.982 931.987,1842.949 931.987,1889.081 931.987,1935.212 931.987,1981.18 931.987,2027.311 
					931.987,2073.441 931.987,2119.408 931.987,2165.54 931.987,2211.671 931.987,2257.638 931.987,2303.77 931.987,2349.9 
					931.987,2395.867 931.987,2441.998 931.987,2488.13 931.987,2534.097 931.987,2580.229 931.987,2626.359 931.987,2672.326 
					931.987,2718.457 931.987,2764.425 931.987,2810.556 931.987,2856.688 931.987,2902.818 931.987,2948.785 931.987,2994.916 
					931.987,3040.884 931.987,3087.015 931.987,3133.146 931.987,3179.113 931.987,3225.244 931.987,3271.375 931.987,3317.342 
					931.987,3363.474 931.987,3409.604 931.987,3455.571 931.987,3501.703 931.987,3547.834 931.987,3593.801 931.987,3639.933 
					931.987,3686.063 931.987,3732.031 931.987,3778.162 931.987,3824.293 931.987,3870.26 931.987,3916.392 931.987,3962.522 
					931.987,4008.489 931.987,4054.621 931.987,4100.752 931.987,4146.719 931.987,4192.85 931.987,4238.981 931.987,4284.949 
					931.987,4331.08 931.987,4377.211 931.987,4423.178 931.987,4469.309 931.987,4515.275 931.987,4561.407 931.987,4607.539 
					931.987,4653.506 				"/>
				<polyline fill="none" stroke="#000000" stroke-miterlimit="10" points="886.02,0 886.02,46.131 886.02,92.098 886.02,138.229 
					886.02,184.361 886.02,230.328 886.02,276.459 886.02,322.59 886.02,368.557 886.02,414.688 886.02,460.819 886.02,506.786 
					886.02,552.918 886.02,599.049 886.02,645.016 886.02,691.147 886.02,737.114 886.02,783.245 886.02,829.377 886.02,875.508 
					886.02,921.475 886.02,967.606 886.02,1013.737 886.02,1059.704 886.02,1105.836 886.02,1151.803 886.02,1197.934 
					886.02,1244.064 886.02,1290.032 886.02,1336.163 886.02,1382.294 886.02,1428.262 886.02,1474.393 886.02,1520.523 
					886.02,1566.491 886.02,1612.622 886.02,1658.753 886.02,1704.721 886.02,1750.852 886.02,1796.982 886.02,1842.949 
					886.02,1889.081 886.02,1935.212 886.02,1981.18 886.02,2027.311 886.02,2073.441 886.02,2119.408 886.02,2165.54 
					886.02,2211.671 886.02,2257.638 886.02,2303.77 886.02,2349.9 886.02,2395.867 886.02,2441.998 886.02,2488.13 
					886.02,2534.097 886.02,2580.229 886.02,2626.359 886.02,2672.326 886.02,2718.457 886.02,2764.425 886.02,2810.556 
					886.02,2856.688 886.02,2902.818 886.02,2948.785 886.02,2994.916 886.02,3040.884 886.02,3087.015 886.02,3133.146 
					886.02,3179.113 886.02,3225.244 886.02,3271.375 886.02,3317.342 886.02,3363.474 886.02,3409.604 886.02,3455.571 
					886.02,3501.703 886.02,3547.834 886.02,3593.801 886.02,3639.933 886.02,3686.063 886.02,3732.031 886.02,3778.162 
					886.02,3824.293 886.02,3870.26 886.02,3916.392 886.02,3962.522 886.02,4008.489 886.02,4054.621 886.02,4100.752 
					886.02,4146.719 886.02,4192.85 886.02,4238.981 886.02,4284.949 886.02,4331.08 886.02,4377.211 886.02,4423.178 
					886.02,4469.309 886.02,4515.275 886.02,4561.407 886.02,4607.539 886.02,4653.506 				"/>
				<polyline fill="none" stroke="#000000" stroke-miterlimit="10" points="839.889,0 839.889,46.131 839.889,92.098 
					839.889,138.229 839.889,184.361 839.889,230.328 839.889,276.459 839.889,322.59 839.889,368.557 839.889,414.688 
					839.889,460.819 839.889,506.786 839.889,552.918 839.889,599.049 839.889,645.016 839.889,691.147 839.889,737.114 
					839.889,783.245 839.889,829.377 839.889,875.508 839.889,921.475 839.889,967.606 839.889,1013.737 839.889,1059.704 
					839.889,1105.836 839.889,1151.803 839.889,1197.934 839.889,1244.064 839.889,1290.032 839.889,1336.163 839.889,1382.294 
					839.889,1428.262 839.889,1474.393 839.889,1520.523 839.889,1566.491 839.889,1612.622 839.889,1658.753 839.889,1704.721 
					839.889,1750.852 839.889,1796.982 839.889,1842.949 839.889,1889.081 839.889,1935.212 839.889,1981.18 839.889,2027.311 
					839.889,2073.441 839.889,2119.408 839.889,2165.54 839.889,2211.671 839.889,2257.638 839.889,2303.77 839.889,2349.9 
					839.889,2395.867 839.889,2441.998 839.889,2488.13 839.889,2534.097 839.889,2580.229 839.889,2626.359 839.889,2672.326 
					839.889,2718.457 839.889,2764.425 839.889,2810.556 839.889,2856.688 839.889,2902.818 839.889,2948.785 839.889,2994.916 
					839.889,3040.884 839.889,3087.015 839.889,3133.146 839.889,3179.113 839.889,3225.244 839.889,3271.375 839.889,3317.342 
					839.889,3363.474 839.889,3409.604 839.889,3455.571 839.889,3501.703 839.889,3547.834 839.889,3593.801 839.889,3639.933 
					839.889,3686.063 839.889,3732.031 839.889,3778.162 839.889,3824.293 839.889,3870.26 839.889,3916.392 839.889,3962.522 
					839.889,4008.489 839.889,4054.621 839.889,4100.752 839.889,4146.719 839.889,4192.85 839.889,4238.981 839.889,4284.949 
					839.889,4331.08 839.889,4377.211 839.889,4423.178 839.889,4469.309 839.889,4515.275 839.889,4561.407 839.889,4607.539 
					839.889,4653.506 				"/>
				<polyline fill="none" stroke="#000000" stroke-miterlimit="10" points="793.757,0 793.757,46.131 793.757,92.098 
					793.757,138.229 793.757,184.361 793.757,230.328 793.757,276.459 793.757,322.59 793.757,368.557 793.757,414.688 
					793.757,460.819 793.757,506.786 793.757,552.918 793.757,599.049 793.757,645.016 793.757,691.147 793.757,737.114 
					793.757,783.245 793.757,829.377 793.757,875.508 793.757,921.475 793.757,967.606 793.757,1013.737 793.757,1059.704 
					793.757,1105.836 793.757,1151.803 793.757,1197.934 793.757,1244.064 793.757,1290.032 793.757,1336.163 793.757,1382.294 
					793.757,1428.262 793.757,1474.393 793.757,1520.523 793.757,1566.491 793.757,1612.622 793.757,1658.753 793.757,1704.721 
					793.757,1750.852 793.757,1796.982 793.757,1842.949 793.757,1889.081 793.757,1935.212 793.757,1981.18 793.757,2027.311 
					793.757,2073.441 793.757,2119.408 793.757,2165.54 793.757,2211.671 793.757,2257.638 793.757,2303.77 793.757,2349.9 
					793.757,2395.867 793.757,2441.998 793.757,2488.13 793.757,2534.097 793.757,2580.229 793.757,2626.359 793.757,2672.326 
					793.757,2718.457 793.757,2764.425 793.757,2810.556 793.757,2856.688 793.757,2902.818 793.757,2948.785 793.757,2994.916 
					793.757,3040.884 793.757,3087.015 793.757,3133.146 793.757,3179.113 793.757,3225.244 793.757,3271.375 793.757,3317.342 
					793.757,3363.474 793.757,3409.604 793.757,3455.571 793.757,3501.703 793.757,3547.834 793.757,3593.801 793.757,3639.933 
					793.757,3686.063 793.757,3732.031 793.757,3778.162 793.757,3824.293 793.757,3870.26 793.757,3916.392 793.757,3962.522 
					793.757,4008.489 793.757,4054.621 793.757,4100.752 793.757,4146.719 793.757,4192.85 793.757,4238.981 793.757,4284.949 
					793.757,4331.08 793.757,4377.211 793.757,4423.178 793.757,4469.309 793.757,4515.275 793.757,4561.407 793.757,4607.539 
					793.757,4653.506 				"/>
				<polyline fill="none" stroke="#000000" stroke-miterlimit="10" points="747.79,0 747.79,46.131 747.79,92.098 747.79,138.229 
					747.79,184.361 747.79,230.328 747.79,276.459 747.79,322.59 747.79,368.557 747.79,414.688 747.79,460.819 747.79,506.786 
					747.79,552.918 747.79,599.049 747.79,645.016 747.79,691.147 747.79,737.114 747.79,783.245 747.79,829.377 747.79,875.508 
					747.79,921.475 747.79,967.606 747.79,1013.737 747.79,1059.704 747.79,1105.836 747.79,1151.803 747.79,1197.934 
					747.79,1244.064 747.79,1290.032 747.79,1336.163 747.79,1382.294 747.79,1428.262 747.79,1474.393 747.79,1520.523 
					747.79,1566.491 747.79,1612.622 747.79,1658.753 747.79,1704.721 747.79,1750.852 747.79,1796.982 747.79,1842.949 
					747.79,1889.081 747.79,1935.212 747.79,1981.18 747.79,2027.311 747.79,2073.441 747.79,2119.408 747.79,2165.54 
					747.79,2211.671 747.79,2257.638 747.79,2303.77 747.79,2349.9 747.79,2395.867 747.79,2441.998 747.79,2488.13 
					747.79,2534.097 747.79,2580.229 747.79,2626.359 747.79,2672.326 747.79,2718.457 747.79,2764.425 747.79,2810.556 
					747.79,2856.688 747.79,2902.818 747.79,2948.785 747.79,2994.916 747.79,3040.884 747.79,3087.015 747.79,3133.146 
					747.79,3179.113 747.79,3225.244 747.79,3271.375 747.79,3317.342 747.79,3363.474 747.79,3409.604 747.79,3455.571 
					747.79,3501.703 747.79,3547.834 747.79,3593.801 747.79,3639.933 747.79,3686.063 747.79,3732.031 747.79,3778.162 
					747.79,3824.293 747.79,3870.26 747.79,3916.392 747.79,3962.522 747.79,4008.489 747.79,4054.621 747.79,4100.752 
					747.79,4146.719 747.79,4192.85 747.79,4238.981 747.79,4284.949 747.79,4331.08 747.79,4377.211 747.79,4423.178 
					747.79,4469.309 747.79,4515.275 747.79,4561.407 747.79,4607.539 747.79,4653.506 				"/>
				<polyline fill="none" stroke="#000000" stroke-miterlimit="10" points="701.659,0 701.659,46.131 701.659,92.098 
					701.659,138.229 701.659,184.361 701.659,230.328 701.659,276.459 701.659,322.59 701.659,368.557 701.659,414.688 
					701.659,460.819 701.659,506.786 701.659,552.918 701.659,599.049 701.659,645.016 701.659,691.147 701.659,737.114 
					701.659,783.245 701.659,829.377 701.659,875.508 701.659,921.475 701.659,967.606 701.659,1013.737 701.659,1059.704 
					701.659,1105.836 701.659,1151.803 701.659,1197.934 701.659,1244.064 701.659,1290.032 701.659,1336.163 701.659,1382.294 
					701.659,1428.262 701.659,1474.393 701.659,1520.523 701.659,1566.491 701.659,1612.622 701.659,1658.753 701.659,1704.721 
					701.659,1750.852 701.659,1796.982 701.659,1842.949 701.659,1889.081 701.659,1935.212 701.659,1981.18 701.659,2027.311 
					701.659,2073.441 701.659,2119.408 701.659,2165.54 701.659,2211.671 701.659,2257.638 701.659,2303.77 701.659,2349.9 
					701.659,2395.867 701.659,2441.998 701.659,2488.13 701.659,2534.097 701.659,2580.229 701.659,2626.359 701.659,2672.326 
					701.659,2718.457 701.659,2764.425 701.659,2810.556 701.659,2856.688 701.659,2902.818 701.659,2948.785 701.659,2994.916 
					701.659,3040.884 701.659,3087.015 701.659,3133.146 701.659,3179.113 701.659,3225.244 701.659,3271.375 701.659,3317.342 
					701.659,3363.474 701.659,3409.604 701.659,3455.571 701.659,3501.703 701.659,3547.834 701.659,3593.801 701.659,3639.933 
					701.659,3686.063 701.659,3732.031 701.659,3778.162 701.659,3824.293 701.659,3870.26 701.659,3916.392 701.659,3962.522 
					701.659,4008.489 701.659,4054.621 701.659,4100.752 701.659,4146.719 701.659,4192.85 701.659,4238.981 701.659,4284.949 
					701.659,4331.08 701.659,4377.211 701.659,4423.178 701.659,4469.309 701.659,4515.275 701.659,4561.407 701.659,4607.539 
					701.659,4653.506 				"/>
				<polyline fill="none" stroke="#000000" stroke-miterlimit="10" points="655.527,0 655.527,46.131 655.527,92.098 
					655.527,138.229 655.527,184.361 655.527,230.328 655.527,276.459 655.527,322.59 655.527,368.557 655.527,414.688 
					655.527,460.819 655.527,506.786 655.527,552.918 655.527,599.049 655.527,645.016 655.527,691.147 655.527,737.114 
					655.527,783.245 655.527,829.377 655.527,875.508 655.527,921.475 655.527,967.606 655.527,1013.737 655.527,1059.704 
					655.527,1105.836 655.527,1151.803 655.527,1197.934 655.527,1244.064 655.527,1290.032 655.527,1336.163 655.527,1382.294 
					655.527,1428.262 655.527,1474.393 655.527,1520.523 655.527,1566.491 655.527,1612.622 655.527,1658.753 655.527,1704.721 
					655.527,1750.852 655.527,1796.982 655.527,1842.949 655.527,1889.081 655.527,1935.212 655.527,1981.18 655.527,2027.311 
					655.527,2073.441 655.527,2119.408 655.527,2165.54 655.527,2211.671 655.527,2257.638 655.527,2303.77 655.527,2349.9 
					655.527,2395.867 655.527,2441.998 655.527,2488.13 655.527,2534.097 655.527,2580.229 655.527,2626.359 655.527,2672.326 
					655.527,2718.457 655.527,2764.425 655.527,2810.556 655.527,2856.688 655.527,2902.818 655.527,2948.785 655.527,2994.916 
					655.527,3040.884 655.527,3087.015 655.527,3133.146 655.527,3179.113 655.527,3225.244 655.527,3271.375 655.527,3317.342 
					655.527,3363.474 655.527,3409.604 655.527,3455.571 655.527,3501.703 655.527,3547.834 655.527,3593.801 655.527,3639.933 
					655.527,3686.063 655.527,3732.031 655.527,3778.162 655.527,3824.293 655.527,3870.26 655.527,3916.392 655.527,3962.522 
					655.527,4008.489 655.527,4054.621 655.527,4100.752 655.527,4146.719 655.527,4192.85 655.527,4238.981 655.527,4284.949 
					655.527,4331.08 655.527,4377.211 655.527,4423.178 655.527,4469.309 655.527,4515.275 655.527,4561.407 655.527,4607.539 
					655.527,4653.506 				"/>
				<polyline fill="none" stroke="#000000" stroke-miterlimit="10" points="609.561,0 609.561,46.131 609.561,92.098 
					609.561,138.229 609.561,184.361 609.561,230.328 609.561,276.459 609.561,322.59 609.561,368.557 609.561,414.688 
					609.561,460.819 609.561,506.786 609.561,552.918 609.561,599.049 609.561,645.016 609.561,691.147 609.561,737.114 
					609.561,783.245 609.561,829.377 609.561,875.508 609.561,921.475 609.561,967.606 609.561,1013.737 609.561,1059.704 
					609.561,1105.836 609.561,1151.803 609.561,1197.934 609.561,1244.064 609.561,1290.032 609.561,1336.163 609.561,1382.294 
					609.561,1428.262 609.561,1474.393 609.561,1520.523 609.561,1566.491 609.561,1612.622 609.561,1658.753 609.561,1704.721 
					609.561,1750.852 609.561,1796.982 609.561,1842.949 609.561,1889.081 609.561,1935.212 609.561,1981.18 609.561,2027.311 
					609.561,2073.441 609.561,2119.408 609.561,2165.54 609.561,2211.671 609.561,2257.638 609.561,2303.77 609.561,2349.9 
					609.561,2395.867 609.561,2441.998 609.561,2488.13 609.561,2534.097 609.561,2580.229 609.561,2626.359 609.561,2672.326 
					609.561,2718.457 609.561,2764.425 609.561,2810.556 609.561,2856.688 609.561,2902.818 609.561,2948.785 609.561,2994.916 
					609.561,3040.884 609.561,3087.015 609.561,3133.146 609.561,3179.113 609.561,3225.244 609.561,3271.375 609.561,3317.342 
					609.561,3363.474 609.561,3409.604 609.561,3455.571 609.561,3501.703 609.561,3547.834 609.561,3593.801 609.561,3639.933 
					609.561,3686.063 609.561,3732.031 609.561,3778.162 609.561,3824.293 609.561,3870.26 609.561,3916.392 609.561,3962.522 
					609.561,4008.489 609.561,4054.621 609.561,4100.752 609.561,4146.719 609.561,4192.85 609.561,4238.981 609.561,4284.949 
					609.561,4331.08 609.561,4377.211 609.561,4423.178 609.561,4469.309 609.561,4515.275 609.561,4561.407 609.561,4607.539 
					609.561,4653.506 				"/>
				<polyline fill="none" stroke="#000000" stroke-miterlimit="10" points="563.43,0 563.43,46.131 563.43,92.098 563.43,138.229 
					563.43,184.361 563.43,230.328 563.43,276.459 563.43,322.59 563.43,368.557 563.43,414.688 563.43,460.819 563.43,506.786 
					563.43,552.918 563.43,599.049 563.43,645.016 563.43,691.147 563.43,737.114 563.43,783.245 563.43,829.377 563.43,875.508 
					563.43,921.475 563.43,967.606 563.43,1013.737 563.43,1059.704 563.43,1105.836 563.43,1151.803 563.43,1197.934 
					563.43,1244.064 563.43,1290.032 563.43,1336.163 563.43,1382.294 563.43,1428.262 563.43,1474.393 563.43,1520.523 
					563.43,1566.491 563.43,1612.622 563.43,1658.753 563.43,1704.721 563.43,1750.852 563.43,1796.982 563.43,1842.949 
					563.43,1889.081 563.43,1935.212 563.43,1981.18 563.43,2027.311 563.43,2073.441 563.43,2119.408 563.43,2165.54 
					563.43,2211.671 563.43,2257.638 563.43,2303.77 563.43,2349.9 563.43,2395.867 563.43,2441.998 563.43,2488.13 
					563.43,2534.097 563.43,2580.229 563.43,2626.359 563.43,2672.326 563.43,2718.457 563.43,2764.425 563.43,2810.556 
					563.43,2856.688 563.43,2902.818 563.43,2948.785 563.43,2994.916 563.43,3040.884 563.43,3087.015 563.43,3133.146 
					563.43,3179.113 563.43,3225.244 563.43,3271.375 563.43,3317.342 563.43,3363.474 563.43,3409.604 563.43,3455.571 
					563.43,3501.703 563.43,3547.834 563.43,3593.801 563.43,3639.933 563.43,3686.063 563.43,3732.031 563.43,3778.162 
					563.43,3824.293 563.43,3870.26 563.43,3916.392 563.43,3962.522 563.43,4008.489 563.43,4054.621 563.43,4100.752 
					563.43,4146.719 563.43,4192.85 563.43,4238.981 563.43,4284.949 563.43,4331.08 563.43,4377.211 563.43,4423.178 
					563.43,4469.309 563.43,4515.275 563.43,4561.407 563.43,4607.539 563.43,4653.506 				"/>
				<polyline fill="none" stroke="#000000" stroke-miterlimit="10" points="517.298,0 517.298,46.131 517.298,92.098 
					517.298,138.229 517.298,184.361 517.298,230.328 517.298,276.459 517.298,322.59 517.298,368.557 517.298,414.688 
					517.298,460.819 517.298,506.786 517.298,552.918 517.298,599.049 517.298,645.016 517.298,691.147 517.298,737.114 
					517.298,783.245 517.298,829.377 517.298,875.508 517.298,921.475 517.298,967.606 517.298,1013.737 517.298,1059.704 
					517.298,1105.836 517.298,1151.803 517.298,1197.934 517.298,1244.064 517.298,1290.032 517.298,1336.163 517.298,1382.294 
					517.298,1428.262 517.298,1474.393 517.298,1520.523 517.298,1566.491 517.298,1612.622 517.298,1658.753 517.298,1704.721 
					517.298,1750.852 517.298,1796.982 517.298,1842.949 517.298,1889.081 517.298,1935.212 517.298,1981.18 517.298,2027.311 
					517.298,2073.441 517.298,2119.408 517.298,2165.54 517.298,2211.671 517.298,2257.638 517.298,2303.77 517.298,2349.9 
					517.298,2395.867 517.298,2441.998 517.298,2488.13 517.298,2534.097 517.298,2580.229 517.298,2626.359 517.298,2672.326 
					517.298,2718.457 517.298,2764.425 517.298,2810.556 517.298,2856.688 517.298,2902.818 517.298,2948.785 517.298,2994.916 
					517.298,3040.884 517.298,3087.015 517.298,3133.146 517.298,3179.113 517.298,3225.244 517.298,3271.375 517.298,3317.342 
					517.298,3363.474 517.298,3409.604 517.298,3455.571 517.298,3501.703 517.298,3547.834 517.298,3593.801 517.298,3639.933 
					517.298,3686.063 517.298,3732.031 517.298,3778.162 517.298,3824.293 517.298,3870.26 517.298,3916.392 517.298,3962.522 
					517.298,4008.489 517.298,4054.621 517.298,4100.752 517.298,4146.719 517.298,4192.85 517.298,4238.981 517.298,4284.949 
					517.298,4331.08 517.298,4377.211 517.298,4423.178 517.298,4469.309 517.298,4515.275 517.298,4561.407 517.298,4607.539 
					517.298,4653.506 				"/>
				<polyline fill="none" stroke="#000000" stroke-miterlimit="10" points="471.331,0 471.331,46.131 471.331,92.098 
					471.331,138.229 471.331,184.361 471.331,230.328 471.331,276.459 471.331,322.59 471.331,368.557 471.331,414.688 
					471.331,460.819 471.331,506.786 471.331,552.918 471.331,599.049 471.331,645.016 471.331,691.147 471.331,737.114 
					471.331,783.245 471.331,829.377 471.331,875.508 471.331,921.475 471.331,967.606 471.331,1013.737 471.331,1059.704 
					471.331,1105.836 471.331,1151.803 471.331,1197.934 471.331,1244.064 471.331,1290.032 471.331,1336.163 471.331,1382.294 
					471.331,1428.262 471.331,1474.393 471.331,1520.523 471.331,1566.491 471.331,1612.622 471.331,1658.753 471.331,1704.721 
					471.331,1750.852 471.331,1796.982 471.331,1842.949 471.331,1889.081 471.331,1935.212 471.331,1981.18 471.331,2027.311 
					471.331,2073.441 471.331,2119.408 471.331,2165.54 471.331,2211.671 471.331,2257.638 471.331,2303.77 471.331,2349.9 
					471.331,2395.867 471.331,2441.998 471.331,2488.13 471.331,2534.097 471.331,2580.229 471.331,2626.359 471.331,2672.326 
					471.331,2718.457 471.331,2764.425 471.331,2810.556 471.331,2856.688 471.331,2902.818 471.331,2948.785 471.331,2994.916 
					471.331,3040.884 471.331,3087.015 471.331,3133.146 471.331,3179.113 471.331,3225.244 471.331,3271.375 471.331,3317.342 
					471.331,3363.474 471.331,3409.604 471.331,3455.571 471.331,3501.703 471.331,3547.834 471.331,3593.801 471.331,3639.933 
					471.331,3686.063 471.331,3732.031 471.331,3778.162 471.331,3824.293 471.331,3870.26 471.331,3916.392 471.331,3962.522 
					471.331,4008.489 471.331,4054.621 471.331,4100.752 471.331,4146.719 471.331,4192.85 471.331,4238.981 471.331,4284.949 
					471.331,4331.08 471.331,4377.211 471.331,4423.178 471.331,4469.309 471.331,4515.275 471.331,4561.407 471.331,4607.539 
					471.331,4653.506 				"/>
			</g>
		</g>
	</g>
</g>
<g id="XMLID_6_">
	<g>
		<rect x="786.807" y="333.836" fill="#212120" stroke="#212120" stroke-miterlimit="10" width="21.613" height="21.613"/>
		<rect x="786.807" y="312.3" fill="#212120" stroke="#212120" stroke-miterlimit="10" width="21.613" height="21.613"/>
		<rect x="786.807" y="290.687" fill="#212120" stroke="#212120" stroke-miterlimit="10" width="21.613" height="21.613"/>
		<rect x="786.807" y="269.074" fill="#212120" stroke="#212120" stroke-miterlimit="10" width="21.613" height="21.613"/>
		<rect x="786.807" y="247.537" fill="#212120" stroke="#212120" stroke-miterlimit="10" width="21.613" height="21.614"/>
		<rect x="786.807" y="225.924" fill="#212120" stroke="#212120" stroke-miterlimit="10" width="21.613" height="21.613"/>
		<rect x="786.807" y="204.311" fill="#212120" stroke="#212120" stroke-miterlimit="10" width="21.613" height="21.613"/>
		<rect x="786.807" y="182.774" fill="#212120" stroke="#212120" stroke-miterlimit="10" width="21.613" height="21.613"/>
		<rect x="786.807" y="161.161" fill="#212120" stroke="#212120" stroke-miterlimit="10" width="21.613" height="21.613"/>
		<rect x="786.807" y="139.548" fill="#212120" stroke="#212120" stroke-miterlimit="10" width="21.613" height="21.613"/>
		<rect x="786.807" y="118.011" fill="#212120" stroke="#212120" stroke-miterlimit="10" width="21.613" height="21.613"/>
		<rect x="765.194" y="355.449" fill="#212120" stroke="#212120" stroke-miterlimit="10" width="21.613" height="21.613"/>
		<rect x="765.194" y="333.836" fill="#212120" stroke="#212120" stroke-miterlimit="10" width="21.613" height="21.613"/>
		<rect x="765.194" y="118.011" fill="#212120" stroke="#212120" stroke-miterlimit="10" width="21.613" height="21.613"/>
		<rect x="765.194" y="96.398" fill="#212120" stroke="#212120" stroke-miterlimit="10" width="21.613" height="21.613"/>
		<rect x="743.58" y="355.449" fill="#212120" stroke="#212120" stroke-miterlimit="10" width="21.614" height="21.613"/>
		<rect x="743.58" y="96.398" fill="#212120" stroke="#212120" stroke-miterlimit="10" width="21.614" height="21.613"/>
		<rect x="722.044" y="355.449" fill="#212120" stroke="#212120" stroke-miterlimit="10" width="21.613" height="21.613"/>
		<rect x="722.044" y="96.398" fill="#212120" stroke="#212120" stroke-miterlimit="10" width="21.613" height="21.613"/>
		<rect x="700.431" y="355.449" fill="#212120" stroke="#212120" stroke-miterlimit="10" width="21.613" height="21.613"/>
		<rect x="700.431" y="96.398" fill="#212120" stroke="#212120" stroke-miterlimit="10" width="21.613" height="21.613"/>
		<rect x="678.819" y="355.449" fill="#212120" stroke="#212120" stroke-miterlimit="10" width="21.612" height="21.613"/>
		<rect x="678.819" y="96.398" fill="#212120" stroke="#212120" stroke-miterlimit="10" width="21.612" height="21.613"/>
		<rect x="657.281" y="355.449" fill="#212120" stroke="#212120" stroke-miterlimit="10" width="21.614" height="21.613"/>
		<rect x="657.281" y="96.398" fill="#212120" stroke="#212120" stroke-miterlimit="10" width="21.614" height="21.613"/>
		<rect x="635.668" y="355.449" fill="#212120" stroke="#212120" stroke-miterlimit="10" width="21.613" height="21.613"/>
		<rect x="635.668" y="96.398" fill="#212120" stroke="#212120" stroke-miterlimit="10" width="21.613" height="21.613"/>
		<rect x="614.055" y="355.449" fill="#212120" stroke="#212120" stroke-miterlimit="10" width="21.613" height="21.613"/>
		<rect x="614.055" y="96.398" fill="#212120" stroke="#212120" stroke-miterlimit="10" width="21.613" height="21.613"/>
		<rect x="592.519" y="355.449" fill="#212120" stroke="#212120" stroke-miterlimit="10" width="21.614" height="21.613"/>
		<rect x="592.519" y="96.398" fill="#212120" stroke="#212120" stroke-miterlimit="10" width="21.614" height="21.613"/>
		<rect x="570.906" y="355.449" fill="#212120" stroke="#212120" stroke-miterlimit="10" width="21.613" height="21.613"/>
		<rect x="570.906" y="96.398" fill="#212120" stroke="#212120" stroke-miterlimit="10" width="21.613" height="21.613"/>
		<rect x="549.293" y="355.449" fill="#212120" stroke="#212120" stroke-miterlimit="10" width="21.613" height="21.613"/>
		<rect x="549.293" y="333.836" fill="#212120" stroke="#212120" stroke-miterlimit="10" width="21.613" height="21.613"/>
		<rect x="549.293" y="118.011" fill="#212120" stroke="#212120" stroke-miterlimit="10" width="21.613" height="21.613"/>
		<rect x="549.293" y="96.398" fill="#212120" stroke="#212120" stroke-miterlimit="10" width="21.613" height="21.613"/>
		<rect x="527.756" y="333.836" fill="#212120" stroke="#212120" stroke-miterlimit="10" width="21.614" height="21.613"/>
		<rect x="527.756" y="312.3" fill="#212120" stroke="#212120" stroke-miterlimit="10" width="21.614" height="21.613"/>
		<rect x="527.756" y="290.687" fill="#212120" stroke="#212120" stroke-miterlimit="10" width="21.614" height="21.613"/>
		<rect x="527.756" y="269.074" fill="#212120" stroke="#212120" stroke-miterlimit="10" width="21.614" height="21.613"/>
		<rect x="527.756" y="247.537" fill="#212120" stroke="#212120" stroke-miterlimit="10" width="21.614" height="21.614"/>
		<rect x="527.756" y="225.924" fill="#212120" stroke="#212120" stroke-miterlimit="10" width="21.614" height="21.613"/>
		<rect x="527.756" y="204.311" fill="#212120" stroke="#212120" stroke-miterlimit="10" width="21.614" height="21.613"/>
		<rect x="527.756" y="182.774" fill="#212120" stroke="#212120" stroke-miterlimit="10" width="21.614" height="21.613"/>
		<rect x="527.756" y="161.161" fill="#212120" stroke="#212120" stroke-miterlimit="10" width="21.614" height="21.613"/>
		<rect x="527.756" y="139.548" fill="#212120" stroke="#212120" stroke-miterlimit="10" width="21.614" height="21.613"/>
		<rect x="527.756" y="118.011" fill="#212120" stroke="#212120" stroke-miterlimit="10" width="21.614" height="21.613"/>
	</g>
</g>
<g id="XMLID_5_">
	<g>
		<rect x="1149.206" y="333.836" fill="#212120" stroke="#212120" stroke-miterlimit="10" width="21.613" height="21.614"/>
		<rect x="1149.206" y="312.3" fill="#212120" stroke="#212120" stroke-miterlimit="10" width="21.613" height="21.613"/>
		<rect x="1149.206" y="290.688" fill="#212120" stroke="#212120" stroke-miterlimit="10" width="21.613" height="21.612"/>
		<rect x="1149.206" y="269.073" fill="#212120" stroke="#212120" stroke-miterlimit="10" width="21.613" height="21.614"/>
		<rect x="1149.206" y="247.537" fill="#212120" stroke="#212120" stroke-miterlimit="10" width="21.613" height="21.613"/>
		<rect x="1149.206" y="225.924" fill="#212120" stroke="#212120" stroke-miterlimit="10" width="21.613" height="21.613"/>
		<rect x="1149.206" y="204.311" fill="#212120" stroke="#212120" stroke-miterlimit="10" width="21.613" height="21.613"/>
		<rect x="1149.206" y="182.775" fill="#212120" stroke="#212120" stroke-miterlimit="10" width="21.613" height="21.613"/>
		<rect x="1149.206" y="161.162" fill="#212120" stroke="#212120" stroke-miterlimit="10" width="21.613" height="21.613"/>
		<rect x="1149.206" y="139.548" fill="#212120" stroke="#212120" stroke-miterlimit="10" width="21.613" height="21.613"/>
		<rect x="1149.206" y="118.012" fill="#212120" stroke="#212120" stroke-miterlimit="10" width="21.613" height="21.613"/>
		<rect x="1127.592" y="355.45" fill="#212120" stroke="#212120" stroke-miterlimit="10" width="21.613" height="21.612"/>
		<rect x="1127.592" y="333.836" fill="#212120" stroke="#212120" stroke-miterlimit="10" width="21.613" height="21.614"/>
		<rect x="1127.592" y="118.012" fill="#212120" stroke="#212120" stroke-miterlimit="10" width="21.613" height="21.613"/>
		<rect x="1127.592" y="96.398" fill="#212120" stroke="#212120" stroke-miterlimit="10" width="21.613" height="21.613"/>
		<rect x="1105.978" y="355.45" fill="#212120" stroke="#212120" stroke-miterlimit="10" width="21.614" height="21.612"/>
		<rect x="1105.978" y="96.398" fill="#212120" stroke="#212120" stroke-miterlimit="10" width="21.614" height="21.613"/>
		<rect x="1084.443" y="355.45" fill="#212120" stroke="#212120" stroke-miterlimit="10" width="21.612" height="21.612"/>
		<rect x="1084.443" y="96.398" fill="#212120" stroke="#212120" stroke-miterlimit="10" width="21.612" height="21.613"/>
		<rect x="1062.83" y="355.45" fill="#212120" stroke="#212120" stroke-miterlimit="10" width="21.613" height="21.612"/>
		<rect x="1062.83" y="96.398" fill="#212120" stroke="#212120" stroke-miterlimit="10" width="21.613" height="21.613"/>
		<rect x="1041.217" y="355.45" fill="#212120" stroke="#212120" stroke-miterlimit="10" width="21.612" height="21.612"/>
		<rect x="1041.217" y="96.398" fill="#212120" stroke="#212120" stroke-miterlimit="10" width="21.612" height="21.613"/>
		<rect x="1019.68" y="355.45" fill="#212120" stroke="#212120" stroke-miterlimit="10" width="21.613" height="21.612"/>
		<rect x="1019.68" y="96.398" fill="#212120" stroke="#212120" stroke-miterlimit="10" width="21.613" height="21.613"/>
		<rect x="998.067" y="355.45" fill="#212120" stroke="#212120" stroke-miterlimit="10" width="21.613" height="21.612"/>
		<rect x="998.067" y="96.398" fill="#212120" stroke="#212120" stroke-miterlimit="10" width="21.613" height="21.613"/>
		<rect x="976.454" y="355.45" fill="#212120" stroke="#212120" stroke-miterlimit="10" width="21.613" height="21.612"/>
		<rect x="976.454" y="96.398" fill="#212120" stroke="#212120" stroke-miterlimit="10" width="21.613" height="21.613"/>
		<rect x="954.917" y="355.45" fill="#212120" stroke="#212120" stroke-miterlimit="10" width="21.614" height="21.612"/>
		<rect x="954.917" y="96.398" fill="#212120" stroke="#212120" stroke-miterlimit="10" width="21.614" height="21.613"/>
		<rect x="933.304" y="355.45" fill="#212120" stroke="#212120" stroke-miterlimit="10" width="21.613" height="21.612"/>
		<rect x="933.304" y="96.398" fill="#212120" stroke="#212120" stroke-miterlimit="10" width="21.613" height="21.613"/>
		<rect x="911.692" y="355.45" fill="#212120" stroke="#212120" stroke-miterlimit="10" width="21.612" height="21.612"/>
		<rect x="911.692" y="333.836" fill="#212120" stroke="#212120" stroke-miterlimit="10" width="21.612" height="21.614"/>
		<rect x="911.692" y="118.012" fill="#212120" stroke="#212120" stroke-miterlimit="10" width="21.612" height="21.613"/>
		<rect x="911.692" y="96.398" fill="#212120" stroke="#212120" stroke-miterlimit="10" width="21.612" height="21.613"/>
		<rect x="890.155" y="333.836" fill="#212120" stroke="#212120" stroke-miterlimit="10" width="21.613" height="21.614"/>
		<rect x="890.155" y="312.3" fill="#212120" stroke="#212120" stroke-miterlimit="10" width="21.613" height="21.613"/>
		<rect x="890.155" y="290.688" fill="#212120" stroke="#212120" stroke-miterlimit="10" width="21.613" height="21.612"/>
		<rect x="890.155" y="269.073" fill="#212120" stroke="#212120" stroke-miterlimit="10" width="21.613" height="21.614"/>
		<rect x="890.155" y="247.537" fill="#212120" stroke="#212120" stroke-miterlimit="10" width="21.613" height="21.613"/>
		<rect x="890.155" y="225.924" fill="#212120" stroke="#212120" stroke-miterlimit="10" width="21.613" height="21.613"/>
		<rect x="890.155" y="204.311" fill="#212120" stroke="#212120" stroke-miterlimit="10" width="21.613" height="21.613"/>
		<rect x="890.155" y="182.775" fill="#212120" stroke="#212120" stroke-miterlimit="10" width="21.613" height="21.613"/>
		<rect x="890.155" y="161.162" fill="#212120" stroke="#212120" stroke-miterlimit="10" width="21.613" height="21.613"/>
		<rect x="890.155" y="139.548" fill="#212120" stroke="#212120" stroke-miterlimit="10" width="21.613" height="21.613"/>
		<rect x="890.155" y="118.012" fill="#212120" stroke="#212120" stroke-miterlimit="10" width="21.613" height="21.613"/>
	</g>
</g>
<g id="XMLID_4_">
	<g>
		<rect x="786.807" y="702.393" fill="#212120" stroke="#212120" stroke-miterlimit="10" width="21.614" height="21.613"/>
		<rect x="786.807" y="680.857" fill="#212120" stroke="#212120" stroke-miterlimit="10" width="21.614" height="21.612"/>
		<rect x="786.807" y="659.244" fill="#212120" stroke="#212120" stroke-miterlimit="10" width="21.614" height="21.613"/>
		<rect x="786.807" y="637.631" fill="#212120" stroke="#212120" stroke-miterlimit="10" width="21.614" height="21.613"/>
		<rect x="786.807" y="616.094" fill="#212120" stroke="#212120" stroke-miterlimit="10" width="21.614" height="21.613"/>
		<rect x="786.807" y="594.48" fill="#212120" stroke="#212120" stroke-miterlimit="10" width="21.614" height="21.613"/>
		<rect x="786.807" y="572.867" fill="#212120" stroke="#212120" stroke-miterlimit="10" width="21.614" height="21.613"/>
		<rect x="786.807" y="551.331" fill="#212120" stroke="#212120" stroke-miterlimit="10" width="21.614" height="21.613"/>
		<rect x="786.807" y="529.718" fill="#212120" stroke="#212120" stroke-miterlimit="10" width="21.614" height="21.613"/>
		<rect x="786.807" y="508.104" fill="#212120" stroke="#212120" stroke-miterlimit="10" width="21.614" height="21.613"/>
		<rect x="786.807" y="486.568" fill="#212120" stroke="#212120" stroke-miterlimit="10" width="21.614" height="21.613"/>
		<rect x="765.193" y="724.006" fill="#212120" stroke="#212120" stroke-miterlimit="10" width="21.613" height="21.613"/>
		<rect x="765.193" y="702.393" fill="#212120" stroke="#212120" stroke-miterlimit="10" width="21.613" height="21.613"/>
		<rect x="765.193" y="486.568" fill="#212120" stroke="#212120" stroke-miterlimit="10" width="21.613" height="21.613"/>
		<rect x="765.193" y="464.955" fill="#212120" stroke="#212120" stroke-miterlimit="10" width="21.613" height="21.613"/>
		<rect x="743.58" y="724.006" fill="#212120" stroke="#212120" stroke-miterlimit="10" width="21.613" height="21.613"/>
		<rect x="743.58" y="464.955" fill="#212120" stroke="#212120" stroke-miterlimit="10" width="21.613" height="21.613"/>
		<rect x="722.045" y="724.006" fill="#212120" stroke="#212120" stroke-miterlimit="10" width="21.613" height="21.613"/>
		<rect x="722.045" y="464.955" fill="#212120" stroke="#212120" stroke-miterlimit="10" width="21.613" height="21.613"/>
		<rect x="700.431" y="724.006" fill="#212120" stroke="#212120" stroke-miterlimit="10" width="21.614" height="21.613"/>
		<rect x="700.431" y="464.955" fill="#212120" stroke="#212120" stroke-miterlimit="10" width="21.614" height="21.613"/>
		<rect x="678.818" y="724.006" fill="#212120" stroke="#212120" stroke-miterlimit="10" width="21.613" height="21.613"/>
		<rect x="678.818" y="464.955" fill="#212120" stroke="#212120" stroke-miterlimit="10" width="21.613" height="21.613"/>
		<rect x="657.281" y="724.006" fill="#212120" stroke="#212120" stroke-miterlimit="10" width="21.614" height="21.613"/>
		<rect x="657.281" y="464.955" fill="#212120" stroke="#212120" stroke-miterlimit="10" width="21.614" height="21.613"/>
		<rect x="635.668" y="724.006" fill="#212120" stroke="#212120" stroke-miterlimit="10" width="21.613" height="21.613"/>
		<rect x="635.668" y="464.955" fill="#212120" stroke="#212120" stroke-miterlimit="10" width="21.613" height="21.613"/>
		<rect x="614.055" y="724.006" fill="#212120" stroke="#212120" stroke-miterlimit="10" width="21.613" height="21.613"/>
		<rect x="614.055" y="464.955" fill="#212120" stroke="#212120" stroke-miterlimit="10" width="21.613" height="21.613"/>
		<rect x="592.519" y="724.006" fill="#212120" stroke="#212120" stroke-miterlimit="10" width="21.613" height="21.613"/>
		<rect x="592.519" y="464.955" fill="#212120" stroke="#212120" stroke-miterlimit="10" width="21.613" height="21.613"/>
		<rect x="570.906" y="724.006" fill="#212120" stroke="#212120" stroke-miterlimit="10" width="21.613" height="21.613"/>
		<rect x="570.906" y="464.955" fill="#212120" stroke="#212120" stroke-miterlimit="10" width="21.613" height="21.613"/>
		<rect x="549.292" y="724.006" fill="#212120" stroke="#212120" stroke-miterlimit="10" width="21.613" height="21.613"/>
		<rect x="549.292" y="702.393" fill="#212120" stroke="#212120" stroke-miterlimit="10" width="21.613" height="21.613"/>
		<rect x="549.292" y="486.568" fill="#212120" stroke="#212120" stroke-miterlimit="10" width="21.613" height="21.613"/>
		<rect x="549.292" y="464.955" fill="#212120" stroke="#212120" stroke-miterlimit="10" width="21.613" height="21.613"/>
		<rect x="527.756" y="702.393" fill="#212120" stroke="#212120" stroke-miterlimit="10" width="21.614" height="21.613"/>
		<rect x="527.756" y="680.857" fill="#212120" stroke="#212120" stroke-miterlimit="10" width="21.614" height="21.612"/>
		<rect x="527.756" y="659.244" fill="#212120" stroke="#212120" stroke-miterlimit="10" width="21.614" height="21.613"/>
		<rect x="527.756" y="637.631" fill="#212120" stroke="#212120" stroke-miterlimit="10" width="21.614" height="21.613"/>
		<rect x="527.756" y="616.094" fill="#212120" stroke="#212120" stroke-miterlimit="10" width="21.614" height="21.613"/>
		<rect x="527.756" y="594.48" fill="#212120" stroke="#212120" stroke-miterlimit="10" width="21.614" height="21.613"/>
		<rect x="527.756" y="572.867" fill="#212120" stroke="#212120" stroke-miterlimit="10" width="21.614" height="21.613"/>
		<rect x="527.756" y="551.331" fill="#212120" stroke="#212120" stroke-miterlimit="10" width="21.614" height="21.613"/>
		<rect x="527.756" y="529.718" fill="#212120" stroke="#212120" stroke-miterlimit="10" width="21.614" height="21.613"/>
		<rect x="527.756" y="508.104" fill="#212120" stroke="#212120" stroke-miterlimit="10" width="21.614" height="21.613"/>
		<rect x="527.756" y="486.568" fill="#212120" stroke="#212120" stroke-miterlimit="10" width="21.614" height="21.613"/>
	</g>
</g>
<g id="XMLID_3_">
	<g>
		<rect x="1149.206" y="702.393" fill="#212120" stroke="#212120" stroke-miterlimit="10" width="21.613" height="21.613"/>
		<rect x="1149.206" y="680.856" fill="#212120" stroke="#212120" stroke-miterlimit="10" width="21.613" height="21.613"/>
		<rect x="1149.206" y="659.244" fill="#212120" stroke="#212120" stroke-miterlimit="10" width="21.613" height="21.612"/>
		<rect x="1149.206" y="637.63" fill="#212120" stroke="#212120" stroke-miterlimit="10" width="21.613" height="21.614"/>
		<rect x="1149.206" y="616.094" fill="#212120" stroke="#212120" stroke-miterlimit="10" width="21.613" height="21.613"/>
		<rect x="1149.206" y="594.48" fill="#212120" stroke="#212120" stroke-miterlimit="10" width="21.613" height="21.613"/>
		<rect x="1149.206" y="572.867" fill="#212120" stroke="#212120" stroke-miterlimit="10" width="21.613" height="21.613"/>
		<rect x="1149.206" y="551.331" fill="#212120" stroke="#212120" stroke-miterlimit="10" width="21.613" height="21.614"/>
		<rect x="1149.206" y="529.719" fill="#212120" stroke="#212120" stroke-miterlimit="10" width="21.613" height="21.612"/>
		<rect x="1149.206" y="508.104" fill="#212120" stroke="#212120" stroke-miterlimit="10" width="21.613" height="21.613"/>
		<rect x="1149.206" y="486.568" fill="#212120" stroke="#212120" stroke-miterlimit="10" width="21.613" height="21.613"/>
		<rect x="1127.592" y="724.006" fill="#212120" stroke="#212120" stroke-miterlimit="10" width="21.613" height="21.613"/>
		<rect x="1127.592" y="702.393" fill="#212120" stroke="#212120" stroke-miterlimit="10" width="21.613" height="21.613"/>
		<rect x="1127.592" y="486.568" fill="#212120" stroke="#212120" stroke-miterlimit="10" width="21.613" height="21.613"/>
		<rect x="1127.592" y="464.955" fill="#212120" stroke="#212120" stroke-miterlimit="10" width="21.613" height="21.613"/>
		<rect x="1105.979" y="724.006" fill="#212120" stroke="#212120" stroke-miterlimit="10" width="21.613" height="21.613"/>
		<rect x="1105.979" y="464.955" fill="#212120" stroke="#212120" stroke-miterlimit="10" width="21.613" height="21.613"/>
		<rect x="1084.444" y="724.006" fill="#212120" stroke="#212120" stroke-miterlimit="10" width="21.613" height="21.613"/>
		<rect x="1084.444" y="464.955" fill="#212120" stroke="#212120" stroke-miterlimit="10" width="21.613" height="21.613"/>
		<rect x="1062.831" y="724.006" fill="#212120" stroke="#212120" stroke-miterlimit="10" width="21.613" height="21.613"/>
		<rect x="1062.831" y="464.955" fill="#212120" stroke="#212120" stroke-miterlimit="10" width="21.613" height="21.613"/>
		<rect x="1041.217" y="724.006" fill="#212120" stroke="#212120" stroke-miterlimit="10" width="21.613" height="21.613"/>
		<rect x="1041.217" y="464.955" fill="#212120" stroke="#212120" stroke-miterlimit="10" width="21.613" height="21.613"/>
		<rect x="1019.68" y="724.006" fill="#212120" stroke="#212120" stroke-miterlimit="10" width="21.613" height="21.613"/>
		<rect x="1019.68" y="464.955" fill="#212120" stroke="#212120" stroke-miterlimit="10" width="21.613" height="21.613"/>
		<rect x="998.067" y="724.006" fill="#212120" stroke="#212120" stroke-miterlimit="10" width="21.613" height="21.613"/>
		<rect x="998.067" y="464.955" fill="#212120" stroke="#212120" stroke-miterlimit="10" width="21.613" height="21.613"/>
		<rect x="976.454" y="724.006" fill="#212120" stroke="#212120" stroke-miterlimit="10" width="21.613" height="21.613"/>
		<rect x="976.454" y="464.955" fill="#212120" stroke="#212120" stroke-miterlimit="10" width="21.613" height="21.613"/>
		<rect x="954.918" y="724.006" fill="#212120" stroke="#212120" stroke-miterlimit="10" width="21.613" height="21.613"/>
		<rect x="954.918" y="464.955" fill="#212120" stroke="#212120" stroke-miterlimit="10" width="21.613" height="21.613"/>
		<rect x="933.305" y="724.006" fill="#212120" stroke="#212120" stroke-miterlimit="10" width="21.613" height="21.613"/>
		<rect x="933.305" y="464.955" fill="#212120" stroke="#212120" stroke-miterlimit="10" width="21.613" height="21.613"/>
		<rect x="911.692" y="724.006" fill="#212120" stroke="#212120" stroke-miterlimit="10" width="21.613" height="21.613"/>
		<rect x="911.692" y="702.393" fill="#212120" stroke="#212120" stroke-miterlimit="10" width="21.613" height="21.613"/>
		<rect x="911.692" y="486.568" fill="#212120" stroke="#212120" stroke-miterlimit="10" width="21.613" height="21.613"/>
		<rect x="911.692" y="464.955" fill="#212120" stroke="#212120" stroke-miterlimit="10" width="21.613" height="21.613"/>
		<rect x="890.155" y="702.393" fill="#212120" stroke="#212120" stroke-miterlimit="10" width="21.613" height="21.613"/>
		<rect x="890.155" y="680.856" fill="#212120" stroke="#212120" stroke-miterlimit="10" width="21.613" height="21.613"/>
		<rect x="890.155" y="659.244" fill="#212120" stroke="#212120" stroke-miterlimit="10" width="21.613" height="21.612"/>
		<rect x="890.155" y="637.63" fill="#212120" stroke="#212120" stroke-miterlimit="10" width="21.613" height="21.614"/>
		<rect x="890.155" y="616.094" fill="#212120" stroke="#212120" stroke-miterlimit="10" width="21.613" height="21.613"/>
		<rect x="890.155" y="594.48" fill="#212120" stroke="#212120" stroke-miterlimit="10" width="21.613" height="21.613"/>
		<rect x="890.155" y="572.867" fill="#212120" stroke="#212120" stroke-miterlimit="10" width="21.613" height="21.613"/>
		<rect x="890.155" y="551.331" fill="#212120" stroke="#212120" stroke-miterlimit="10" width="21.613" height="21.614"/>
		<rect x="890.155" y="529.719" fill="#212120" stroke="#212120" stroke-miterlimit="10" width="21.613" height="21.612"/>
		<rect x="890.155" y="508.104" fill="#212120" stroke="#212120" stroke-miterlimit="10" width="21.613" height="21.613"/>
		<rect x="890.155" y="486.568" fill="#212120" stroke="#212120" stroke-miterlimit="10" width="21.613" height="21.613"/>
	</g>
</g>
</svg>
