<?xml version="1.0" encoding="utf-8"?>
<!-- Generator: Adobe Illustrator 16.0.0, SVG Export Plug-In . SVG Version: 6.00 Build 0)  -->
<!DOCTYPE svg PUBLIC "-//W3C//DTD SVG 1.1//EN" "http://www.w3.org/Graphics/SVG/1.1/DTD/svg11.dtd">
<svg version="1.1" id="Layer_1" xmlns="http://www.w3.org/2000/svg" xmlns:xlink="http://www.w3.org/1999/xlink" x="0px" y="0px"
	 width="5669.29px" height="3401.57px" viewBox="0 0 5669.29 3401.57" enable-background="new 0 0 5669.29 3401.57"
	 xml:space="preserve">
<g id="XMLID_5_">
	<g>
		<rect x="3088.869" y="1908.522" fill="#212121" stroke="#212121" stroke-miterlimit="10" width="46.133" height="46.132"/>
		<rect x="3088.869" y="1862.556" fill="#212121" stroke="#212121" stroke-miterlimit="10" width="46.133" height="46.131"/>
		<rect x="3088.869" y="1816.425" fill="#212121" stroke="#212121" stroke-miterlimit="10" width="46.133" height="46.131"/>
		<rect x="3088.869" y="1770.293" fill="#212121" stroke="#212121" stroke-miterlimit="10" width="46.133" height="46.132"/>
		<rect x="3088.869" y="1724.326" fill="#212121" stroke="#212121" stroke-miterlimit="10" width="46.133" height="46.131"/>
		<rect x="3088.869" y="1678.195" fill="#212121" stroke="#212121" stroke-miterlimit="10" width="46.133" height="46.131"/>
		<rect x="3088.869" y="1632.063" fill="#212121" stroke="#212121" stroke-miterlimit="10" width="46.133" height="46.132"/>
		<rect x="3088.869" y="1586.097" fill="#212121" stroke="#212121" stroke-miterlimit="10" width="46.133" height="46.132"/>
		<rect x="3088.869" y="1539.966" fill="#212121" stroke="#212121" stroke-miterlimit="10" width="46.133" height="46.131"/>
		<rect x="3088.869" y="1493.834" fill="#212121" stroke="#212121" stroke-miterlimit="10" width="46.133" height="46.131"/>
		<rect x="3088.869" y="1447.867" fill="#212121" stroke="#212121" stroke-miterlimit="10" width="46.133" height="46.131"/>
		<rect x="3042.738" y="1954.654" fill="#212121" stroke="#212121" stroke-miterlimit="10" width="46.131" height="46.131"/>
		<rect x="3042.738" y="1908.522" fill="#212121" stroke="#212121" stroke-miterlimit="10" width="46.131" height="46.132"/>
		<rect x="3042.738" y="1447.867" fill="#212121" stroke="#212121" stroke-miterlimit="10" width="46.131" height="46.131"/>
		<rect x="3042.738" y="1401.736" fill="#212121" stroke="#212121" stroke-miterlimit="10" width="46.131" height="46.131"/>
		<rect x="2996.607" y="1954.654" fill="#212121" stroke="#212121" stroke-miterlimit="10" width="46.131" height="46.131"/>
		<rect x="2996.607" y="1401.736" fill="#212121" stroke="#212121" stroke-miterlimit="10" width="46.131" height="46.131"/>
		<rect x="2950.641" y="1954.654" fill="#212121" stroke="#212121" stroke-miterlimit="10" width="46.131" height="46.131"/>
		<rect x="2950.641" y="1401.736" fill="#212121" stroke="#212121" stroke-miterlimit="10" width="46.131" height="46.131"/>
		<rect x="2904.51" y="1954.654" fill="#212121" stroke="#212121" stroke-miterlimit="10" width="46.131" height="46.131"/>
		<rect x="2904.51" y="1401.736" fill="#212121" stroke="#212121" stroke-miterlimit="10" width="46.131" height="46.131"/>
		<rect x="2858.379" y="1954.654" fill="#212121" stroke="#212121" stroke-miterlimit="10" width="46.131" height="46.131"/>
		<rect x="2858.379" y="1401.736" fill="#212121" stroke="#212121" stroke-miterlimit="10" width="46.131" height="46.131"/>
		<rect x="2812.411" y="1954.654" fill="#212121" stroke="#212121" stroke-miterlimit="10" width="46.132" height="46.131"/>
		<rect x="2812.411" y="1401.736" fill="#212121" stroke="#212121" stroke-miterlimit="10" width="46.132" height="46.131"/>
		<rect x="2766.28" y="1954.654" fill="#212121" stroke="#212121" stroke-miterlimit="10" width="46.131" height="46.131"/>
		<rect x="2766.28" y="1401.736" fill="#212121" stroke="#212121" stroke-miterlimit="10" width="46.131" height="46.131"/>
		<rect x="2720.149" y="1954.654" fill="#212121" stroke="#212121" stroke-miterlimit="10" width="46.131" height="46.131"/>
		<rect x="2720.149" y="1401.736" fill="#212121" stroke="#212121" stroke-miterlimit="10" width="46.131" height="46.131"/>
		<rect x="2674.183" y="1954.654" fill="#212121" stroke="#212121" stroke-miterlimit="10" width="46.131" height="46.131"/>
		<rect x="2674.183" y="1401.736" fill="#212121" stroke="#212121" stroke-miterlimit="10" width="46.131" height="46.131"/>
		<rect x="2628.051" y="1954.654" fill="#212121" stroke="#212121" stroke-miterlimit="10" width="46.132" height="46.131"/>
		<rect x="2628.051" y="1401.736" fill="#212121" stroke="#212121" stroke-miterlimit="10" width="46.132" height="46.131"/>
		<rect x="2581.92" y="1954.654" fill="#212121" stroke="#212121" stroke-miterlimit="10" width="46.131" height="46.131"/>
		<rect x="2581.92" y="1908.522" fill="#212121" stroke="#212121" stroke-miterlimit="10" width="46.131" height="46.132"/>
		<rect x="2581.92" y="1447.867" fill="#212121" stroke="#212121" stroke-miterlimit="10" width="46.131" height="46.131"/>
		<rect x="2581.92" y="1401.736" fill="#212121" stroke="#212121" stroke-miterlimit="10" width="46.131" height="46.131"/>
		<rect x="2535.952" y="1908.522" fill="#212121" stroke="#212121" stroke-miterlimit="10" width="46.132" height="46.132"/>
		<rect x="2535.952" y="1862.556" fill="#212121" stroke="#212121" stroke-miterlimit="10" width="46.132" height="46.131"/>
		<rect x="2535.952" y="1816.425" fill="#212121" stroke="#212121" stroke-miterlimit="10" width="46.132" height="46.131"/>
		<rect x="2535.952" y="1770.293" fill="#212121" stroke="#212121" stroke-miterlimit="10" width="46.132" height="46.132"/>
		<rect x="2535.952" y="1724.326" fill="#212121" stroke="#212121" stroke-miterlimit="10" width="46.132" height="46.131"/>
		<rect x="2535.952" y="1678.195" fill="#212121" stroke="#212121" stroke-miterlimit="10" width="46.132" height="46.131"/>
		<rect x="2535.952" y="1632.063" fill="#212121" stroke="#212121" stroke-miterlimit="10" width="46.132" height="46.132"/>
		<rect x="2535.952" y="1586.097" fill="#212121" stroke="#212121" stroke-miterlimit="10" width="46.132" height="46.132"/>
		<rect x="2535.952" y="1539.966" fill="#212121" stroke="#212121" stroke-miterlimit="10" width="46.132" height="46.131"/>
		<rect x="2535.952" y="1493.834" fill="#212121" stroke="#212121" stroke-miterlimit="10" width="46.132" height="46.131"/>
		<rect x="2535.952" y="1447.867" fill="#212121" stroke="#212121" stroke-miterlimit="10" width="46.132" height="46.131"/>
	</g>
</g>
<g id="XMLID_1_">
	<g>
		<rect x="3088.869" y="1235.522" fill="#212121" stroke="#212121" stroke-miterlimit="10" width="46.133" height="46.132"/>
		<rect x="3088.869" y="1189.556" fill="#212121" stroke="#212121" stroke-miterlimit="10" width="46.133" height="46.131"/>
		<rect x="3088.869" y="1143.425" fill="#212121" stroke="#212121" stroke-miterlimit="10" width="46.133" height="46.131"/>
		<rect x="3088.869" y="1097.293" fill="#212121" stroke="#212121" stroke-miterlimit="10" width="46.133" height="46.132"/>
		<rect x="3088.869" y="1051.326" fill="#212121" stroke="#212121" stroke-miterlimit="10" width="46.133" height="46.131"/>
		<rect x="3088.869" y="1005.195" fill="#212121" stroke="#212121" stroke-miterlimit="10" width="46.133" height="46.131"/>
		<rect x="3088.869" y="959.063" fill="#212121" stroke="#212121" stroke-miterlimit="10" width="46.133" height="46.132"/>
		<rect x="3088.869" y="913.097" fill="#212121" stroke="#212121" stroke-miterlimit="10" width="46.133" height="46.132"/>
		<rect x="3088.869" y="866.966" fill="#212121" stroke="#212121" stroke-miterlimit="10" width="46.133" height="46.131"/>
		<rect x="3088.869" y="820.834" fill="#212121" stroke="#212121" stroke-miterlimit="10" width="46.133" height="46.131"/>
		<rect x="3088.869" y="774.867" fill="#212121" stroke="#212121" stroke-miterlimit="10" width="46.133" height="46.131"/>
		<rect x="3042.738" y="1281.654" fill="#212121" stroke="#212121" stroke-miterlimit="10" width="46.131" height="46.131"/>
		<rect x="3042.738" y="1235.522" fill="#212121" stroke="#212121" stroke-miterlimit="10" width="46.131" height="46.132"/>
		<rect x="3042.738" y="774.867" fill="#212121" stroke="#212121" stroke-miterlimit="10" width="46.131" height="46.131"/>
		<rect x="3042.738" y="728.736" fill="#212121" stroke="#212121" stroke-miterlimit="10" width="46.131" height="46.131"/>
		<rect x="2996.607" y="1281.654" fill="#212121" stroke="#212121" stroke-miterlimit="10" width="46.131" height="46.131"/>
		<rect x="2996.607" y="728.736" fill="#212121" stroke="#212121" stroke-miterlimit="10" width="46.131" height="46.131"/>
		<rect x="2950.641" y="1281.654" fill="#212121" stroke="#212121" stroke-miterlimit="10" width="46.131" height="46.131"/>
		<rect x="2950.641" y="728.736" fill="#212121" stroke="#212121" stroke-miterlimit="10" width="46.131" height="46.131"/>
		<rect x="2904.51" y="1281.654" fill="#212121" stroke="#212121" stroke-miterlimit="10" width="46.131" height="46.131"/>
		<rect x="2904.51" y="728.736" fill="#212121" stroke="#212121" stroke-miterlimit="10" width="46.131" height="46.131"/>
		<rect x="2858.379" y="1281.654" fill="#212121" stroke="#212121" stroke-miterlimit="10" width="46.131" height="46.131"/>
		<rect x="2858.379" y="728.736" fill="#212121" stroke="#212121" stroke-miterlimit="10" width="46.131" height="46.131"/>
		<rect x="2812.411" y="1281.654" fill="#212121" stroke="#212121" stroke-miterlimit="10" width="46.132" height="46.131"/>
		<rect x="2812.411" y="728.736" fill="#212121" stroke="#212121" stroke-miterlimit="10" width="46.132" height="46.131"/>
		<rect x="2766.28" y="1281.654" fill="#212121" stroke="#212121" stroke-miterlimit="10" width="46.131" height="46.131"/>
		<rect x="2766.28" y="728.736" fill="#212121" stroke="#212121" stroke-miterlimit="10" width="46.131" height="46.131"/>
		<rect x="2720.149" y="1281.654" fill="#212121" stroke="#212121" stroke-miterlimit="10" width="46.131" height="46.131"/>
		<rect x="2720.149" y="728.736" fill="#212121" stroke="#212121" stroke-miterlimit="10" width="46.131" height="46.131"/>
		<rect x="2674.183" y="1281.654" fill="#212121" stroke="#212121" stroke-miterlimit="10" width="46.131" height="46.131"/>
		<rect x="2674.183" y="728.736" fill="#212121" stroke="#212121" stroke-miterlimit="10" width="46.131" height="46.131"/>
		<rect x="2628.051" y="1281.654" fill="#212121" stroke="#212121" stroke-miterlimit="10" width="46.132" height="46.131"/>
		<rect x="2628.051" y="728.736" fill="#212121" stroke="#212121" stroke-miterlimit="10" width="46.132" height="46.131"/>
		<rect x="2581.92" y="1281.654" fill="#212121" stroke="#212121" stroke-miterlimit="10" width="46.131" height="46.131"/>
		<rect x="2581.92" y="1235.522" fill="#212121" stroke="#212121" stroke-miterlimit="10" width="46.131" height="46.132"/>
		<rect x="2581.92" y="774.867" fill="#212121" stroke="#212121" stroke-miterlimit="10" width="46.131" height="46.131"/>
		<rect x="2581.92" y="728.736" fill="#212121" stroke="#212121" stroke-miterlimit="10" width="46.131" height="46.131"/>
		<rect x="2535.952" y="1235.522" fill="#212121" stroke="#212121" stroke-miterlimit="10" width="46.132" height="46.132"/>
		<rect x="2535.952" y="1189.556" fill="#212121" stroke="#212121" stroke-miterlimit="10" width="46.132" height="46.131"/>
		<rect x="2535.952" y="1143.425" fill="#212121" stroke="#212121" stroke-miterlimit="10" width="46.132" height="46.131"/>
		<rect x="2535.952" y="1097.293" fill="#212121" stroke="#212121" stroke-miterlimit="10" width="46.132" height="46.132"/>
		<rect x="2535.952" y="1051.326" fill="#212121" stroke="#212121" stroke-miterlimit="10" width="46.132" height="46.131"/>
		<rect x="2535.952" y="1005.195" fill="#212121" stroke="#212121" stroke-miterlimit="10" width="46.132" height="46.131"/>
		<rect x="2535.952" y="959.063" fill="#212121" stroke="#212121" stroke-miterlimit="10" width="46.132" height="46.132"/>
		<rect x="2535.952" y="913.097" fill="#212121" stroke="#212121" stroke-miterlimit="10" width="46.132" height="46.132"/>
		<rect x="2535.952" y="866.966" fill="#212121" stroke="#212121" stroke-miterlimit="10" width="46.132" height="46.131"/>
		<rect x="2535.952" y="820.834" fill="#212121" stroke="#212121" stroke-miterlimit="10" width="46.132" height="46.131"/>
		<rect x="2535.952" y="774.867" fill="#212121" stroke="#212121" stroke-miterlimit="10" width="46.132" height="46.131"/>
	</g>
</g>
<g id="XMLID_2_">
	<g>
		<rect x="2416.869" y="1908.522" fill="#212121" stroke="#212121" stroke-miterlimit="10" width="46.133" height="46.132"/>
		<rect x="2416.869" y="1862.556" fill="#212121" stroke="#212121" stroke-miterlimit="10" width="46.133" height="46.131"/>
		<rect x="2416.869" y="1816.425" fill="#212121" stroke="#212121" stroke-miterlimit="10" width="46.133" height="46.131"/>
		<rect x="2416.869" y="1770.293" fill="#212121" stroke="#212121" stroke-miterlimit="10" width="46.133" height="46.132"/>
		<rect x="2416.869" y="1724.326" fill="#212121" stroke="#212121" stroke-miterlimit="10" width="46.133" height="46.131"/>
		<rect x="2416.869" y="1678.195" fill="#212121" stroke="#212121" stroke-miterlimit="10" width="46.133" height="46.131"/>
		<rect x="2416.869" y="1632.063" fill="#212121" stroke="#212121" stroke-miterlimit="10" width="46.133" height="46.132"/>
		<rect x="2416.869" y="1586.097" fill="#212121" stroke="#212121" stroke-miterlimit="10" width="46.133" height="46.132"/>
		<rect x="2416.869" y="1539.966" fill="#212121" stroke="#212121" stroke-miterlimit="10" width="46.133" height="46.131"/>
		<rect x="2416.869" y="1493.834" fill="#212121" stroke="#212121" stroke-miterlimit="10" width="46.133" height="46.131"/>
		<rect x="2416.869" y="1447.867" fill="#212121" stroke="#212121" stroke-miterlimit="10" width="46.133" height="46.131"/>
		<rect x="2370.738" y="1954.654" fill="#212121" stroke="#212121" stroke-miterlimit="10" width="46.131" height="46.131"/>
		<rect x="2370.738" y="1908.522" fill="#212121" stroke="#212121" stroke-miterlimit="10" width="46.131" height="46.132"/>
		<rect x="2370.738" y="1447.867" fill="#212121" stroke="#212121" stroke-miterlimit="10" width="46.131" height="46.131"/>
		<rect x="2370.738" y="1401.736" fill="#212121" stroke="#212121" stroke-miterlimit="10" width="46.131" height="46.131"/>
		<rect x="2324.607" y="1954.654" fill="#212121" stroke="#212121" stroke-miterlimit="10" width="46.131" height="46.131"/>
		<rect x="2324.607" y="1401.736" fill="#212121" stroke="#212121" stroke-miterlimit="10" width="46.131" height="46.131"/>
		<rect x="2278.641" y="1954.654" fill="#212121" stroke="#212121" stroke-miterlimit="10" width="46.131" height="46.131"/>
		<rect x="2278.641" y="1401.736" fill="#212121" stroke="#212121" stroke-miterlimit="10" width="46.131" height="46.131"/>
		<rect x="2232.51" y="1954.654" fill="#212121" stroke="#212121" stroke-miterlimit="10" width="46.131" height="46.131"/>
		<rect x="2232.51" y="1401.736" fill="#212121" stroke="#212121" stroke-miterlimit="10" width="46.131" height="46.131"/>
		<rect x="2186.379" y="1954.654" fill="#212121" stroke="#212121" stroke-miterlimit="10" width="46.131" height="46.131"/>
		<rect x="2186.379" y="1401.736" fill="#212121" stroke="#212121" stroke-miterlimit="10" width="46.131" height="46.131"/>
		<rect x="2140.411" y="1954.654" fill="#212121" stroke="#212121" stroke-miterlimit="10" width="46.132" height="46.131"/>
		<rect x="2140.411" y="1401.736" fill="#212121" stroke="#212121" stroke-miterlimit="10" width="46.132" height="46.131"/>
		<rect x="2094.28" y="1954.654" fill="#212121" stroke="#212121" stroke-miterlimit="10" width="46.131" height="46.131"/>
		<rect x="2094.28" y="1401.736" fill="#212121" stroke="#212121" stroke-miterlimit="10" width="46.131" height="46.131"/>
		<rect x="2048.149" y="1954.654" fill="#212121" stroke="#212121" stroke-miterlimit="10" width="46.131" height="46.131"/>
		<rect x="2048.149" y="1401.736" fill="#212121" stroke="#212121" stroke-miterlimit="10" width="46.131" height="46.131"/>
		<rect x="2002.183" y="1954.654" fill="#212121" stroke="#212121" stroke-miterlimit="10" width="46.131" height="46.131"/>
		<rect x="2002.183" y="1401.736" fill="#212121" stroke="#212121" stroke-miterlimit="10" width="46.131" height="46.131"/>
		<rect x="1956.051" y="1954.654" fill="#212121" stroke="#212121" stroke-miterlimit="10" width="46.132" height="46.131"/>
		<rect x="1956.051" y="1401.736" fill="#212121" stroke="#212121" stroke-miterlimit="10" width="46.132" height="46.131"/>
		<rect x="1909.92" y="1954.654" fill="#212121" stroke="#212121" stroke-miterlimit="10" width="46.131" height="46.131"/>
		<rect x="1909.92" y="1908.522" fill="#212121" stroke="#212121" stroke-miterlimit="10" width="46.131" height="46.132"/>
		<rect x="1909.92" y="1447.867" fill="#212121" stroke="#212121" stroke-miterlimit="10" width="46.131" height="46.131"/>
		<rect x="1909.92" y="1401.736" fill="#212121" stroke="#212121" stroke-miterlimit="10" width="46.131" height="46.131"/>
		<rect x="1863.952" y="1908.522" fill="#212121" stroke="#212121" stroke-miterlimit="10" width="46.132" height="46.132"/>
		<rect x="1863.952" y="1862.556" fill="#212121" stroke="#212121" stroke-miterlimit="10" width="46.132" height="46.131"/>
		<rect x="1863.952" y="1816.425" fill="#212121" stroke="#212121" stroke-miterlimit="10" width="46.132" height="46.131"/>
		<rect x="1863.952" y="1770.293" fill="#212121" stroke="#212121" stroke-miterlimit="10" width="46.132" height="46.132"/>
		<rect x="1863.952" y="1724.326" fill="#212121" stroke="#212121" stroke-miterlimit="10" width="46.132" height="46.131"/>
		<rect x="1863.952" y="1678.195" fill="#212121" stroke="#212121" stroke-miterlimit="10" width="46.132" height="46.131"/>
		<rect x="1863.952" y="1632.063" fill="#212121" stroke="#212121" stroke-miterlimit="10" width="46.132" height="46.132"/>
		<rect x="1863.952" y="1586.097" fill="#212121" stroke="#212121" stroke-miterlimit="10" width="46.132" height="46.132"/>
		<rect x="1863.952" y="1539.966" fill="#212121" stroke="#212121" stroke-miterlimit="10" width="46.132" height="46.131"/>
		<rect x="1863.952" y="1493.834" fill="#212121" stroke="#212121" stroke-miterlimit="10" width="46.132" height="46.131"/>
		<rect x="1863.952" y="1447.867" fill="#212121" stroke="#212121" stroke-miterlimit="10" width="46.132" height="46.131"/>
	</g>
</g>
<g id="XMLID_3_">
	<g>
		<rect x="2416.869" y="1236.522" fill="#212121" stroke="#212121" stroke-miterlimit="10" width="46.133" height="46.132"/>
		<rect x="2416.869" y="1190.556" fill="#212121" stroke="#212121" stroke-miterlimit="10" width="46.133" height="46.131"/>
		<rect x="2416.869" y="1144.425" fill="#212121" stroke="#212121" stroke-miterlimit="10" width="46.133" height="46.131"/>
		<rect x="2416.869" y="1098.293" fill="#212121" stroke="#212121" stroke-miterlimit="10" width="46.133" height="46.132"/>
		<rect x="2416.869" y="1052.326" fill="#212121" stroke="#212121" stroke-miterlimit="10" width="46.133" height="46.131"/>
		<rect x="2416.869" y="1006.195" fill="#212121" stroke="#212121" stroke-miterlimit="10" width="46.133" height="46.131"/>
		<rect x="2416.869" y="960.063" fill="#212121" stroke="#212121" stroke-miterlimit="10" width="46.133" height="46.132"/>
		<rect x="2416.869" y="914.097" fill="#212121" stroke="#212121" stroke-miterlimit="10" width="46.133" height="46.132"/>
		<rect x="2416.869" y="867.966" fill="#212121" stroke="#212121" stroke-miterlimit="10" width="46.133" height="46.131"/>
		<rect x="2416.869" y="821.834" fill="#212121" stroke="#212121" stroke-miterlimit="10" width="46.133" height="46.131"/>
		<rect x="2416.869" y="775.867" fill="#212121" stroke="#212121" stroke-miterlimit="10" width="46.133" height="46.131"/>
		<rect x="2370.738" y="1282.654" fill="#212121" stroke="#212121" stroke-miterlimit="10" width="46.131" height="46.131"/>
		<rect x="2370.738" y="1236.522" fill="#212121" stroke="#212121" stroke-miterlimit="10" width="46.131" height="46.132"/>
		<rect x="2370.738" y="775.867" fill="#212121" stroke="#212121" stroke-miterlimit="10" width="46.131" height="46.131"/>
		<rect x="2370.738" y="729.736" fill="#212121" stroke="#212121" stroke-miterlimit="10" width="46.131" height="46.131"/>
		<rect x="2324.607" y="1282.654" fill="#212121" stroke="#212121" stroke-miterlimit="10" width="46.131" height="46.131"/>
		<rect x="2324.607" y="729.736" fill="#212121" stroke="#212121" stroke-miterlimit="10" width="46.131" height="46.131"/>
		<rect x="2278.641" y="1282.654" fill="#212121" stroke="#212121" stroke-miterlimit="10" width="46.131" height="46.131"/>
		<rect x="2278.641" y="729.736" fill="#212121" stroke="#212121" stroke-miterlimit="10" width="46.131" height="46.131"/>
		<rect x="2232.51" y="1282.654" fill="#212121" stroke="#212121" stroke-miterlimit="10" width="46.131" height="46.131"/>
		<rect x="2232.51" y="729.736" fill="#212121" stroke="#212121" stroke-miterlimit="10" width="46.131" height="46.131"/>
		<rect x="2186.379" y="1282.654" fill="#212121" stroke="#212121" stroke-miterlimit="10" width="46.131" height="46.131"/>
		<rect x="2186.379" y="729.736" fill="#212121" stroke="#212121" stroke-miterlimit="10" width="46.131" height="46.131"/>
		<rect x="2140.411" y="1282.654" fill="#212121" stroke="#212121" stroke-miterlimit="10" width="46.132" height="46.131"/>
		<rect x="2140.411" y="729.736" fill="#212121" stroke="#212121" stroke-miterlimit="10" width="46.132" height="46.131"/>
		<rect x="2094.28" y="1282.654" fill="#212121" stroke="#212121" stroke-miterlimit="10" width="46.131" height="46.131"/>
		<rect x="2094.28" y="729.736" fill="#212121" stroke="#212121" stroke-miterlimit="10" width="46.131" height="46.131"/>
		<rect x="2048.149" y="1282.654" fill="#212121" stroke="#212121" stroke-miterlimit="10" width="46.131" height="46.131"/>
		<rect x="2048.149" y="729.736" fill="#212121" stroke="#212121" stroke-miterlimit="10" width="46.131" height="46.131"/>
		<rect x="2002.183" y="1282.654" fill="#212121" stroke="#212121" stroke-miterlimit="10" width="46.131" height="46.131"/>
		<rect x="2002.183" y="729.736" fill="#212121" stroke="#212121" stroke-miterlimit="10" width="46.131" height="46.131"/>
		<rect x="1956.051" y="1282.654" fill="#212121" stroke="#212121" stroke-miterlimit="10" width="46.132" height="46.131"/>
		<rect x="1956.051" y="729.736" fill="#212121" stroke="#212121" stroke-miterlimit="10" width="46.132" height="46.131"/>
		<rect x="1909.92" y="1282.654" fill="#212121" stroke="#212121" stroke-miterlimit="10" width="46.131" height="46.131"/>
		<rect x="1909.92" y="1236.522" fill="#212121" stroke="#212121" stroke-miterlimit="10" width="46.131" height="46.132"/>
		<rect x="1909.92" y="775.867" fill="#212121" stroke="#212121" stroke-miterlimit="10" width="46.131" height="46.131"/>
		<rect x="1909.92" y="729.736" fill="#212121" stroke="#212121" stroke-miterlimit="10" width="46.131" height="46.131"/>
		<rect x="1863.952" y="1236.522" fill="#212121" stroke="#212121" stroke-miterlimit="10" width="46.132" height="46.132"/>
		<rect x="1863.952" y="1190.556" fill="#212121" stroke="#212121" stroke-miterlimit="10" width="46.132" height="46.131"/>
		<rect x="1863.952" y="1144.425" fill="#212121" stroke="#212121" stroke-miterlimit="10" width="46.132" height="46.131"/>
		<rect x="1863.952" y="1098.293" fill="#212121" stroke="#212121" stroke-miterlimit="10" width="46.132" height="46.132"/>
		<rect x="1863.952" y="1052.326" fill="#212121" stroke="#212121" stroke-miterlimit="10" width="46.132" height="46.131"/>
		<rect x="1863.952" y="1006.195" fill="#212121" stroke="#212121" stroke-miterlimit="10" width="46.132" height="46.131"/>
		<rect x="1863.952" y="960.063" fill="#212121" stroke="#212121" stroke-miterlimit="10" width="46.132" height="46.132"/>
		<rect x="1863.952" y="914.097" fill="#212121" stroke="#212121" stroke-miterlimit="10" width="46.132" height="46.132"/>
		<rect x="1863.952" y="867.966" fill="#212121" stroke="#212121" stroke-miterlimit="10" width="46.132" height="46.131"/>
		<rect x="1863.952" y="821.834" fill="#212121" stroke="#212121" stroke-miterlimit="10" width="46.132" height="46.131"/>
		<rect x="1863.952" y="775.867" fill="#212121" stroke="#212121" stroke-miterlimit="10" width="46.132" height="46.131"/>
	</g>
</g>
</svg>
