<?xml version="1.0" encoding="utf-8"?>
<!-- Generator: Adobe Illustrator 16.0.0, SVG Export Plug-In . SVG Version: 6.00 Build 0)  -->
<!DOCTYPE svg PUBLIC "-//W3C//DTD SVG 1.1//EN" "http://www.w3.org/Graphics/SVG/1.1/DTD/svg11.dtd">
<svg version="1.1" id="Layer_1" xmlns="http://www.w3.org/2000/svg" xmlns:xlink="http://www.w3.org/1999/xlink" x="0px" y="0px"
	 width="708.65px" height="548.848px" viewBox="0 0 708.65 548.848" enable-background="new 0 0 708.65 548.848"
	 xml:space="preserve">
<g id="original" display="none">
	<polygon display="inline" fill="#B76400" points="0,539.051 663.318,349.508 708.65,0 	"/>
	<polygon display="inline" fill="#FFDA46" points="691.264,528.463 25.45,33.595 230.37,473.256 398.981,548.848 	"/>
	<polygon display="inline" fill="#FFDE76" points="467.175,183.698 25.45,33.595 691.265,528.463 	"/>
	<polygon display="inline" fill="#E0AA00" points="251.525,110.418 0.001,539.051 708.65,0 	"/>
</g>
<g>
	<polygon fill="#FFFFFF" points="619.325,530.424 597.325,530.424 575.325,530.424 553.325,530.424 531.325,530.424 
		509.325,530.424 486.325,530.424 464.325,530.424 442.325,530.424 420.325,530.424 398.325,530.424 376.325,530.424 
		354.325,530.424 332.325,530.424 332.325,548.424 354.325,548.424 376.325,548.424 398.325,548.424 420.325,548.424 
		442.325,548.424 464.325,548.424 486.325,548.424 509.325,548.424 531.325,548.424 553.325,548.424 575.325,548.424 
		597.325,548.424 619.325,548.424 641.325,548.424 663.325,548.424 663.325,530.424 641.325,530.424 	"/>
	<polygon fill="#FFFFFF" points="22.325,530.424 22.325,548.424 44.325,548.424 66.325,548.424 66.325,530.424 44.325,530.424 	"/>
	<polygon fill="#FFDA46" points="641.325,513.424 641.325,496.424 641.325,479.424 619.325,479.424 619.325,462.424 
		597.325,462.424 575.325,462.424 575.325,445.424 575.325,428.424 553.325,428.424 531.325,428.424 531.325,411.424 
		509.325,411.424 509.325,393.424 486.325,393.424 486.325,376.424 464.325,376.424 464.325,359.424 442.325,359.424 
		442.325,342.424 420.325,342.424 420.325,325.424 398.325,325.424 398.325,308.424 376.325,308.424 376.325,291.424 
		354.325,291.424 354.325,274.424 332.325,274.424 332.325,291.424 332.325,308.424 309.325,308.424 287.325,308.424 
		287.325,325.424 287.325,342.424 265.325,342.424 265.325,359.424 243.325,359.424 221.325,359.424 221.325,376.424 
		221.325,393.424 199.325,393.424 199.325,411.424 199.325,428.424 221.325,428.424 221.325,445.424 221.325,462.424 
		221.325,479.424 243.325,479.424 265.325,479.424 265.325,496.424 287.325,496.424 309.325,496.424 309.325,513.424 
		332.325,513.424 332.325,530.424 354.325,530.424 376.325,530.424 398.325,530.424 420.325,530.424 442.325,530.424 
		464.325,530.424 486.325,530.424 509.325,530.424 531.325,530.424 553.325,530.424 575.325,530.424 597.325,530.424 
		619.325,530.424 641.325,530.424 663.325,530.424 663.325,513.424 	"/>
	<polygon fill="#FFFFFF" points="309.325,513.424 287.325,513.424 287.325,530.424 309.325,530.424 332.325,530.424 
		332.325,513.424 	"/>
	<polygon fill="#FFFFFF" points="88.325,513.424 66.325,513.424 66.325,530.424 88.325,530.424 110.325,530.424 132.325,530.424 
		132.325,513.424 110.325,513.424 	"/>
	<rect x="641.325" y="496.424" fill="#FFDA47" width="22" height="17"/>
	<rect x="287.325" y="496.424" fill="#FFDA48" width="22" height="17"/>
	<rect x="265.325" y="496.424" fill="#FFFFFF" width="22" height="17"/>
	<polygon fill="#FFFFFF" points="132.325,496.424 132.325,513.424 155.325,513.424 177.325,513.424 177.325,496.424 
		155.325,496.424 	"/>
	<rect x="22.325" y="496.424" fill="#E0AA00" width="22" height="17"/>
	<polygon fill="#FFFFFF" points="22.325,496.424 22.325,479.424 0.325,479.424 0.325,496.424 0.325,513.424 0.325,530.424 
		22.325,530.424 22.325,513.424 	"/>
	<polygon fill="#FFFFFF" points="663.325,496.424 663.325,513.424 663.325,530.424 686.325,530.424 686.325,513.424 
		686.325,496.424 686.325,479.424 686.325,462.424 663.325,462.424 663.325,479.424 	"/>
	<rect x="641.325" y="479.424" fill="#FFDE76" width="22" height="17"/>
	<polygon fill="#FFFFFF" points="243.325,479.424 221.325,479.424 199.325,479.424 177.325,479.424 177.325,496.424 
		199.325,496.424 221.325,496.424 243.325,496.424 265.325,496.424 265.325,479.424 	"/>
	<rect x="22.325" y="479.424" fill="#E4B727" width="22" height="17"/>
	<rect x="641.325" y="462.424" fill="#FFDE77" width="22" height="17"/>
	<polygon fill="#B76400" points="199.325,479.424 221.325,479.424 221.325,462.424 221.325,445.424 221.325,428.424 
		199.325,428.424 199.325,411.424 199.325,393.424 177.325,393.424 177.325,411.424 155.325,411.424 155.325,428.424 
		132.325,428.424 132.325,445.424 110.325,445.424 110.325,462.424 88.325,462.424 88.325,479.424 66.325,479.424 66.325,496.424 
		44.325,496.424 44.325,513.424 22.325,513.424 22.325,530.424 44.325,530.424 66.325,530.424 66.325,513.424 88.325,513.424 
		110.325,513.424 132.325,513.424 132.325,496.424 155.325,496.424 177.325,496.424 177.325,479.424 	"/>
	<polygon fill="#E0AA00" points="44.325,479.424 44.325,496.424 66.325,496.424 66.325,479.424 88.325,479.424 88.325,462.424 
		110.325,462.424 110.325,445.424 132.325,445.424 132.325,428.424 155.325,428.424 155.325,411.424 177.325,411.424 
		177.325,393.424 199.325,393.424 199.325,376.424 221.325,376.424 221.325,359.424 243.325,359.424 243.325,342.424 
		265.325,342.424 265.325,325.424 287.325,325.424 287.325,308.424 309.325,308.424 309.325,291.424 332.325,291.424 
		332.325,274.424 354.325,274.424 354.325,256.424 376.325,256.424 376.325,239.424 398.325,239.424 398.325,222.424 
		420.325,222.424 420.325,205.424 442.325,205.424 442.325,188.424 464.325,188.424 464.325,171.424 486.325,171.424 
		486.325,154.424 509.325,154.424 509.325,137.424 531.325,137.424 531.325,119.424 553.325,119.424 553.325,102.424 
		575.325,102.424 575.325,85.424 597.325,85.424 597.325,68.424 619.325,68.424 619.325,51.424 641.325,51.424 641.325,34.424 
		663.325,34.424 663.325,17.424 641.325,17.424 619.325,17.424 619.325,34.424 597.325,34.424 575.325,34.424 553.325,34.424 
		531.325,34.424 531.325,51.424 509.325,51.424 486.325,51.424 464.325,51.424 464.325,68.424 442.325,68.424 420.325,68.424 
		398.325,68.424 398.325,85.424 376.325,85.424 354.325,85.424 332.325,85.424 332.325,102.424 309.325,102.424 287.325,102.424 
		265.325,102.424 265.325,119.424 243.325,119.424 243.325,137.424 243.325,154.424 221.325,154.424 221.325,171.424 
		221.325,188.424 199.325,188.424 199.325,205.424 199.325,222.424 177.325,222.424 177.325,239.424 177.325,256.424 
		155.325,256.424 155.325,274.424 155.325,291.424 155.325,308.424 132.325,308.424 132.325,325.424 132.325,342.424 
		110.325,342.424 110.325,359.424 110.325,376.424 88.325,376.424 88.325,393.424 88.325,411.424 66.325,411.424 66.325,428.424 
		66.325,445.424 44.325,445.424 44.325,462.424 	"/>
	<polygon fill="#FFFFFF" points="44.325,462.424 44.325,445.424 22.325,445.424 22.325,462.424 22.325,479.424 44.325,479.424 	"/>
	<polygon fill="#FFFFFF" points="641.325,462.424 663.325,462.424 663.325,445.424 663.325,428.424 641.325,428.424 
		641.325,445.424 	"/>
	<rect x="575.325" y="445.424" fill="#FFDA4F" width="22" height="17"/>
	<polygon fill="#FFFFFF" points="66.325,428.424 66.325,411.424 44.325,411.424 44.325,428.424 44.325,445.424 66.325,445.424 	"/>
	<rect x="619.325" y="411.424" fill="#FFFFFF" width="22" height="17"/>
	<rect x="531.325" y="411.424" fill="#FFDA52" width="22" height="17"/>
	<polygon fill="#FFDE76" points="597.325,393.424 597.325,376.424 575.325,376.424 575.325,359.424 575.325,342.424 
		553.325,342.424 553.325,325.424 553.325,308.424 531.325,308.424 531.325,291.424 531.325,274.424 509.325,274.424 
		509.325,256.424 509.325,239.424 486.325,239.424 486.325,222.424 486.325,205.424 464.325,205.424 442.325,205.424 
		442.325,222.424 420.325,222.424 420.325,239.424 398.325,239.424 398.325,256.424 376.325,256.424 376.325,274.424 
		376.325,291.424 376.325,308.424 398.325,308.424 420.325,308.424 420.325,325.424 420.325,342.424 442.325,342.424 
		464.325,342.424 464.325,359.424 486.325,359.424 486.325,376.424 509.325,376.424 509.325,393.424 531.325,393.424 
		531.325,411.424 553.325,411.424 553.325,428.424 575.325,428.424 575.325,445.424 597.325,445.424 597.325,462.424 
		619.325,462.424 619.325,479.424 641.325,479.424 641.325,462.424 641.325,445.424 641.325,428.424 619.325,428.424 
		619.325,411.424 597.325,411.424 	"/>
	<rect x="509.325" y="393.424" fill="#FFDB5F" width="22" height="18"/>
	<polygon fill="#FFFFFF" points="88.325,393.424 88.325,376.424 66.325,376.424 66.325,393.424 66.325,411.424 88.325,411.424 	"/>
	<rect x="486.325" y="376.424" fill="#FFDD73" width="23" height="17"/>
	<rect x="199.325" y="376.424" fill="#FCD641" width="22" height="17"/>
	<polygon fill="#FFFFFF" points="619.325,359.424 597.325,359.424 597.325,376.424 597.325,393.424 597.325,411.424 
		619.325,411.424 619.325,393.424 619.325,376.424 641.325,376.424 663.325,376.424 663.325,359.424 641.325,359.424 	"/>
	<rect x="575.325" y="359.424" fill="#E5B34C" width="22" height="17"/>
	<rect x="464.325" y="359.424" fill="#FFDC63" width="22" height="17"/>
	<polygon fill="#FFFFFF" points="110.325,359.424 110.325,342.424 88.325,342.424 88.325,359.424 88.325,376.424 110.325,376.424 	
		"/>
	<rect x="442.325" y="342.424" fill="#FFDD74" width="22" height="17"/>
	<rect x="243.325" y="342.424" fill="#FED844" width="22" height="17"/>
	<rect x="553.325" y="325.424" fill="#EFC35C" width="22" height="17"/>
	<rect x="265.325" y="325.424" fill="#FBD53F" width="22" height="17"/>
	<polygon fill="#FFFFFF" points="132.325,325.424 132.325,308.424 132.325,291.424 132.325,274.424 132.325,256.424 
		132.325,239.424 110.325,239.424 110.325,256.424 110.325,274.424 110.325,291.424 110.325,308.424 110.325,325.424 
		110.325,342.424 132.325,342.424 	"/>
	<rect x="398.325" y="308.424" fill="#FFDD71" width="22" height="17"/>
	<rect x="531.325" y="291.424" fill="#F7D069" width="22" height="17"/>
	<rect x="309.325" y="291.424" fill="#FDD742" width="23" height="17"/>
	<rect x="132.325" y="291.424" fill="#E0AC06" width="23" height="17"/>
	<rect x="354.325" y="274.424" fill="#FFDD73" width="22" height="17"/>
	<polygon fill="#FFFFFF" points="663.325,274.424 663.325,291.424 663.325,308.424 663.325,325.424 663.325,342.424 
		663.325,359.424 686.325,359.424 686.325,342.424 686.325,325.424 686.325,308.424 686.325,291.424 686.325,274.424 
		686.325,256.424 663.325,256.424 	"/>
	<rect x="509.325" y="256.424" fill="#C07410" width="22" height="18"/>
	<rect x="354.325" y="256.424" fill="#EEC339" width="22" height="18"/>
	<rect x="376.325" y="239.424" fill="#FCDA6D" width="22" height="17"/>
	<polygon fill="#FFDA46" points="132.325,256.424 132.325,274.424 132.325,291.424 155.325,291.424 155.325,274.424 
		155.325,256.424 177.325,256.424 177.325,239.424 177.325,222.424 199.325,222.424 199.325,205.424 199.325,188.424 
		199.325,171.424 199.325,154.424 177.325,154.424 177.325,137.424 155.325,137.424 155.325,119.424 132.325,119.424 
		132.325,102.424 110.325,102.424 110.325,85.424 88.325,85.424 66.325,85.424 66.325,102.424 66.325,119.424 66.325,137.424 
		88.325,137.424 88.325,154.424 88.325,171.424 88.325,188.424 110.325,188.424 110.325,205.424 110.325,222.424 110.325,239.424 
		132.325,239.424 	"/>
	<polygon fill="#B76400" points="686.325,222.424 686.325,205.424 686.325,188.424 686.325,171.424 686.325,154.424 
		686.325,137.424 686.325,119.424 686.325,102.424 686.325,85.424 686.325,68.424 686.325,51.424 686.325,34.424 663.325,34.424 
		663.325,51.424 641.325,51.424 641.325,68.424 619.325,68.424 619.325,85.424 597.325,85.424 597.325,102.424 575.325,102.424 
		575.325,119.424 553.325,119.424 553.325,137.424 531.325,137.424 531.325,154.424 509.325,154.424 509.325,171.424 
		486.325,171.424 486.325,188.424 486.325,205.424 486.325,222.424 509.325,222.424 509.325,239.424 509.325,256.424 
		531.325,256.424 531.325,274.424 531.325,291.424 553.325,291.424 553.325,308.424 553.325,325.424 575.325,325.424 
		575.325,342.424 575.325,359.424 597.325,359.424 619.325,359.424 641.325,359.424 663.325,359.424 663.325,342.424 
		663.325,325.424 663.325,308.424 663.325,291.424 663.325,274.424 663.325,256.424 686.325,256.424 686.325,239.424 	"/>
	<rect x="486.325" y="222.424" fill="#C9821E" width="23" height="17"/>
	<rect x="398.325" y="222.424" fill="#F3C948" width="22" height="17"/>
	<rect x="420.325" y="205.424" fill="#FEDC72" width="22" height="17"/>
	<polygon fill="#FFFFFF" points="110.325,205.424 110.325,188.424 88.325,188.424 88.325,205.424 88.325,222.424 88.325,239.424 
		110.325,239.424 110.325,222.424 	"/>
	<rect x="464.325" y="188.424" fill="#FAD76F" width="22" height="17"/>
	<rect x="442.325" y="188.424" fill="#FBD869" width="22" height="17"/>
	<rect x="464.325" y="171.424" fill="#C88200" width="22" height="17"/>
	<rect x="199.325" y="171.424" fill="#FDD843" width="22" height="17"/>
	<rect x="486.325" y="154.424" fill="#B86700" width="23" height="17"/>
	<polygon fill="#FFFFFF" points="88.325,154.424 66.325,154.424 66.325,171.424 66.325,188.424 88.325,188.424 88.325,171.424 	"/>
	<rect x="509.325" y="137.424" fill="#C37A00" width="22" height="17"/>
	<rect x="221.325" y="137.424" fill="#EABC29" width="22" height="17"/>
	<rect x="66.325" y="137.424" fill="#FFDC52" width="22" height="17"/>
	
		<line fill="none" stroke="#FFFFFF" stroke-width="0" stroke-linecap="round" stroke-linejoin="round" x1="44.325" y1="154.424" x2="44.325" y2="137.424"/>
	<rect x="531.325" y="119.424" fill="#CB8700" width="22" height="18"/>
	<polygon fill="#FFFFFF" points="66.325,119.424 66.325,102.424 44.325,102.424 44.325,119.424 44.325,137.424 44.325,154.424 
		66.325,154.424 66.325,137.424 	"/>
	
		<line fill="none" stroke="#FFFFFF" stroke-width="0" stroke-linecap="round" stroke-linejoin="round" x1="44.325" y1="137.424" x2="44.325" y2="119.424"/>
	<rect x="553.325" y="102.424" fill="#DAA100" width="22" height="17"/>
	<rect x="243.325" y="102.424" fill="#EFD480" width="22" height="17"/>
	<rect x="575.325" y="85.424" fill="#C67E00" width="22" height="17"/>
	<rect x="309.325" y="85.424" fill="#ECCB64" width="23" height="17"/>
	<polygon fill="#FFFFFF" points="221.325,102.424 243.325,102.424 265.325,102.424 287.325,102.424 309.325,102.424 309.325,85.424 
		287.325,85.424 265.325,85.424 243.325,85.424 221.325,85.424 199.325,85.424 199.325,102.424 	"/>
	<polygon fill="#FFDE76" points="155.325,85.424 132.325,85.424 132.325,68.424 110.325,68.424 88.325,68.424 88.325,85.424 
		110.325,85.424 110.325,102.424 132.325,102.424 132.325,119.424 155.325,119.424 155.325,137.424 177.325,137.424 
		177.325,154.424 199.325,154.424 199.325,171.424 221.325,171.424 221.325,154.424 221.325,137.424 243.325,137.424 
		243.325,119.424 243.325,102.424 221.325,102.424 199.325,102.424 199.325,85.424 177.325,85.424 	"/>
	<rect x="44.325" y="85.424" fill="#FFDB4D" width="22" height="17"/>
	
		<line fill="none" stroke="#FFFFFF" stroke-width="0" stroke-linecap="round" stroke-linejoin="round" x1="22.325" y1="102.424" x2="22.325" y2="85.424"/>
	<rect x="597.325" y="68.424" fill="#D79B00" width="22" height="17"/>
	<polygon fill="#FFFFFF" points="354.325,85.424 376.325,85.424 398.325,85.424 398.325,68.424 376.325,68.424 354.325,68.424 
		332.325,68.424 309.325,68.424 309.325,85.424 332.325,85.424 	"/>
	<polygon fill="#FFFFFF" points="177.325,85.424 199.325,85.424 199.325,68.424 177.325,68.424 155.325,68.424 155.325,85.424 	"/>
	<rect x="132.325" y="68.424" fill="#FFE594" width="23" height="17"/>
	<rect x="66.325" y="68.424" fill="#FFDA4C" width="22" height="17"/>
	<polygon fill="#FFDA46" points="44.325,85.424 66.325,85.424 66.325,68.424 66.325,51.424 44.325,51.424 44.325,68.424 	"/>
	<polygon fill="#FFFFFF" points="44.325,68.424 44.325,51.424 22.325,51.424 22.325,68.424 22.325,85.424 22.325,102.424 
		44.325,102.424 44.325,85.424 	"/>
	
		<line fill="none" stroke="#FFFFFF" stroke-width="0" stroke-linecap="round" stroke-linejoin="round" x1="22.325" y1="85.424" x2="22.325" y2="68.424"/>
	<rect x="619.325" y="51.424" fill="#DCA300" width="22" height="17"/>
	<polygon fill="#FFFFFF" points="442.325,68.424 464.325,68.424 464.325,51.424 442.325,51.424 420.325,51.424 398.325,51.424 
		398.325,68.424 420.325,68.424 	"/>
	<polygon fill="#FFFFFF" points="132.325,68.424 155.325,68.424 155.325,51.424 132.325,51.424 110.325,51.424 110.325,68.424 	"/>
	<rect x="88.325" y="51.424" fill="#FFE28A" width="22" height="17"/>
	<rect x="66.325" y="51.424" fill="#FFDE76" width="22" height="17"/>
	
		<line fill="none" stroke="#FFFFFF" stroke-width="0" stroke-linecap="round" stroke-linejoin="round" x1="22.325" y1="68.424" x2="22.325" y2="51.424"/>
	<rect x="641.325" y="34.424" fill="#C98300" width="22" height="17"/>
	<polygon fill="#FFFFFF" points="509.325,51.424 531.325,51.424 531.325,34.424 509.325,34.424 486.325,34.424 464.325,34.424 
		464.325,51.424 486.325,51.424 	"/>
	<polygon fill="#FFFFFF" points="88.325,51.424 110.325,51.424 110.325,34.424 88.325,34.424 66.325,34.424 44.325,34.424 
		44.325,51.424 66.325,51.424 	"/>
	<polygon fill="#FFFFFF" points="686.325,17.424 686.325,34.424 686.325,51.424 686.325,68.424 686.325,85.424 686.325,102.424 
		686.325,119.424 686.325,137.424 686.325,154.424 686.325,171.424 686.325,188.424 686.325,205.424 686.325,222.424 
		686.325,239.424 686.325,256.424 708.325,256.424 708.325,239.424 708.325,222.424 708.325,205.424 708.325,188.424 
		708.325,171.424 708.325,154.424 708.325,137.424 708.325,119.424 708.325,102.424 708.325,85.424 708.325,68.424 708.325,51.424 
		708.325,34.424 708.325,17.424 	"/>
	<rect x="663.325" y="17.424" fill="#D99E00" width="23" height="17"/>
	<rect x="597.325" y="17.424" fill="#E8C147" width="22" height="17"/>
	<polygon fill="#FFFFFF" points="575.325,34.424 597.325,34.424 597.325,17.424 575.325,17.424 553.325,17.424 531.325,17.424 
		531.325,34.424 553.325,34.424 	"/>
	<polygon fill="#FFFFFF" points="641.325,17.424 663.325,17.424 686.325,17.424 686.325,0.424 663.325,0.424 641.325,0.424 
		619.325,0.424 597.325,0.424 597.325,17.424 619.325,17.424 	"/>
</g>
</svg>
