<?xml version="1.0" encoding="utf-8"?>
<!-- Generator: Adobe Illustrator 16.0.0, SVG Export Plug-In . SVG Version: 6.00 Build 0)  -->
<!DOCTYPE svg PUBLIC "-//W3C//DTD SVG 1.1//EN" "http://www.w3.org/Graphics/SVG/1.1/DTD/svg11.dtd">
<svg version="1.1" xmlns="http://www.w3.org/2000/svg" xmlns:xlink="http://www.w3.org/1999/xlink" x="0px" y="0px"
	 width="708.65px" height="548.848px" viewBox="0 0 708.65 548.848" enable-background="new 0 0 708.65 548.848"
	 xml:space="preserve">
<g id="Layer_1">
	<g display="none">
		<polygon display="inline" fill="#1B5E20" points="0,539.051 663.318,349.508 708.65,0 		"/>
		<polygon display="inline" fill="#64DD17" points="691.264,528.463 25.45,33.595 230.37,473.256 398.981,548.848 		"/>
		<polygon display="inline" fill="#B2FF59" points="467.174,183.698 25.449,33.595 691.264,528.463 		"/>
		<polygon display="inline" fill="#2E7D32" points="251.525,110.418 0.001,539.051 708.65,0 		"/>
	</g>
	<g>
		<polygon fill="#3A3A3A" points="88.325,513.424 44.325,513.424 44.325,479.424 44.325,445.424 44.325,411.424 0.325,411.424 
			0.325,445.424 0.325,479.424 0.325,513.424 0.325,548.424 44.325,548.424 88.325,548.424 132.325,548.424 177.325,548.424 
			177.325,513.424 132.325,513.424 		"/>
		<polygon fill="#3A3A3A" points="663.325,513.424 619.325,513.424 575.325,513.424 531.325,513.424 486.325,513.424 
			442.325,513.424 398.325,513.424 354.325,513.424 354.325,548.424 398.325,548.424 442.325,548.424 486.325,548.424 
			531.325,548.424 575.325,548.424 619.325,548.424 663.325,548.424 708.325,548.424 708.325,513.424 708.325,479.424 
			708.325,445.424 663.325,445.424 663.325,479.424 		"/>
		<polygon fill="#FFDA46" points="442.325,513.424 486.325,513.424 531.325,513.424 575.325,513.424 619.325,513.424 
			663.325,513.424 663.325,479.424 619.325,479.424 575.325,479.424 575.325,445.424 531.325,445.424 531.325,411.424 
			486.325,411.424 486.325,376.424 442.325,376.424 442.325,342.424 398.325,342.424 398.325,308.424 354.325,308.424 
			354.325,274.424 309.325,274.424 309.325,308.424 309.325,342.424 265.325,342.424 221.325,342.424 221.325,376.424 
			177.325,376.424 177.325,411.424 221.325,411.424 221.325,445.424 265.325,445.424 265.325,479.424 309.325,479.424 
			354.325,479.424 354.325,513.424 398.325,513.424 		"/>
		<polygon fill="#3A3A3A" points="309.325,479.424 265.325,479.424 265.325,513.424 309.325,513.424 354.325,513.424 
			354.325,479.424 		"/>
		<rect x="177.325" y="479.424" fill="#3A3A3A" width="44" height="34"/>
		<rect x="132.325" y="479.424" fill="#C4802E" width="45" height="34"/>
		<rect x="619.325" y="445.424" fill="#FFDE76" width="44" height="34"/>
		<rect x="575.325" y="445.424" fill="#FFDB59" width="44" height="34"/>
		<rect x="221.325" y="445.424" fill="#3A3A3A" width="44" height="34"/>
		<rect x="44.325" y="445.424" fill="#E0AA00" width="44" height="34"/>
		<rect x="531.325" y="411.424" fill="#FFDB5D" width="44" height="34"/>
		<polygon fill="#B76400" points="221.325,411.424 177.325,411.424 132.325,411.424 132.325,445.424 88.325,445.424 88.325,479.424 
			44.325,479.424 44.325,513.424 88.325,513.424 132.325,513.424 132.325,479.424 177.325,479.424 221.325,479.424 221.325,445.424 
					"/>
		<rect x="44.325" y="411.424" fill="#EFD684" width="44" height="34"/>
		<rect x="486.325" y="376.424" fill="#FFDA55" width="45" height="35"/>
		<polygon fill="#E0AA00" points="88.325,411.424 88.325,445.424 132.325,445.424 132.325,411.424 177.325,411.424 177.325,376.424 
			221.325,376.424 221.325,342.424 265.325,342.424 265.325,308.424 309.325,308.424 309.325,274.424 354.325,274.424 
			354.325,239.424 398.325,239.424 398.325,205.424 442.325,205.424 442.325,171.424 486.325,171.424 486.325,137.424 
			531.325,137.424 531.325,102.424 575.325,102.424 575.325,68.424 619.325,68.424 619.325,34.424 575.325,34.424 531.325,34.424 
			486.325,34.424 486.325,68.424 442.325,68.424 398.325,68.424 354.325,68.424 354.325,102.424 309.325,102.424 265.325,102.424 
			265.325,137.424 221.325,137.424 221.325,171.424 221.325,205.424 177.325,205.424 177.325,239.424 177.325,274.424 
			132.325,274.424 132.325,308.424 132.325,342.424 88.325,342.424 88.325,376.424 		"/>
		<polygon fill="#3A3A3A" points="88.325,376.424 88.325,342.424 44.325,342.424 44.325,376.424 44.325,411.424 88.325,411.424 		
			"/>
		<polygon fill="#3A3A3A" points="619.325,376.424 619.325,411.424 619.325,445.424 663.325,445.424 663.325,411.424 
			663.325,376.424 663.325,342.424 619.325,342.424 		"/>
		<rect x="442.325" y="342.424" fill="#FFDB58" width="44" height="34"/>
		<rect x="398.325" y="308.424" fill="#FFDD75" width="44" height="34"/>
		<rect x="265.325" y="308.424" fill="#FED945" width="44" height="34"/>
		<polygon fill="#3A3A3A" points="132.325,308.424 132.325,274.424 132.325,239.424 132.325,205.424 88.325,205.424 88.325,239.424 
			88.325,274.424 88.325,308.424 88.325,342.424 132.325,342.424 		"/>
		<polygon fill="#B76400" points="663.325,274.424 663.325,239.424 663.325,205.424 663.325,171.424 663.325,137.424 
			663.325,102.424 663.325,68.424 619.325,68.424 619.325,102.424 575.325,102.424 575.325,137.424 531.325,137.424 
			531.325,171.424 486.325,171.424 486.325,205.424 486.325,239.424 531.325,239.424 531.325,274.424 531.325,308.424 
			575.325,308.424 575.325,342.424 575.325,376.424 619.325,376.424 619.325,342.424 663.325,342.424 663.325,308.424 		"/>
		<rect x="354.325" y="274.424" fill="#FFDD75" width="44" height="34"/>
		<rect x="354.325" y="239.424" fill="#F7D059" width="44" height="35"/>
		<polygon fill="#FFDE76" points="442.325,239.424 398.325,239.424 398.325,274.424 398.325,308.424 442.325,308.424 
			442.325,342.424 486.325,342.424 486.325,376.424 531.325,376.424 531.325,411.424 575.325,411.424 575.325,445.424 
			619.325,445.424 619.325,411.424 619.325,376.424 575.325,376.424 575.325,342.424 575.325,308.424 531.325,308.424 
			531.325,274.424 531.325,239.424 486.325,239.424 486.325,205.424 442.325,205.424 		"/>
		<rect x="398.325" y="205.424" fill="#FAD564" width="44" height="34"/>
		<polygon fill="#FFDA46" points="132.325,239.424 132.325,274.424 177.325,274.424 177.325,239.424 177.325,205.424 
			221.325,205.424 221.325,171.424 177.325,171.424 177.325,137.424 132.325,137.424 132.325,102.424 88.325,102.424 
			88.325,137.424 88.325,171.424 88.325,205.424 132.325,205.424 		"/>
		<rect x="442.325" y="171.424" fill="#E8B720" width="44" height="34"/>
		<rect x="486.325" y="137.424" fill="#CF8D00" width="45" height="34"/>
		<polygon fill="#3A3A3A" points="88.325,137.424 44.325,137.424 44.325,171.424 44.325,205.424 88.325,205.424 88.325,171.424 		
			"/>
		<rect x="531.325" y="102.424" fill="#C07500" width="44" height="35"/>
		<rect x="221.325" y="102.424" fill="#FAD664" width="44" height="35"/>
		<rect x="44.325" y="102.424" fill="#FFE16E" width="44" height="35"/>
		<rect x="575.325" y="68.424" fill="#BD6E00" width="44" height="34"/>
		<polygon fill="#3A3A3A" points="221.325,102.424 265.325,102.424 309.325,102.424 354.325,102.424 354.325,68.424 309.325,68.424 
			265.325,68.424 221.325,68.424 177.325,68.424 177.325,102.424 		"/>
		<polygon fill="#FFDE76" points="88.325,68.424 88.325,102.424 132.325,102.424 132.325,137.424 177.325,137.424 177.325,171.424 
			221.325,171.424 221.325,137.424 221.325,102.424 177.325,102.424 177.325,68.424 132.325,68.424 		"/>
		<rect x="44.325" y="68.424" fill="#FFDA46" width="44" height="34"/>
		<polygon fill="#3A3A3A" points="44.325,68.424 44.325,34.424 88.325,34.424 88.325,0.424 44.325,0.424 0.325,0.424 0.325,34.424 
			0.325,68.424 0.325,102.424 0.325,137.424 44.325,137.424 44.325,102.424 		"/>
		<rect x="619.325" y="34.424" fill="#D49600" width="44" height="34"/>
		<polygon fill="#3A3A3A" points="442.325,68.424 486.325,68.424 486.325,34.424 442.325,34.424 398.325,34.424 354.325,34.424 
			354.325,68.424 398.325,68.424 		"/>
		<polygon fill="#3A3A3A" points="132.325,68.424 177.325,68.424 177.325,34.424 132.325,34.424 88.325,34.424 88.325,68.424 		"/>
		<rect x="44.325" y="34.424" fill="#FFDE76" width="44" height="34"/>
		<polygon fill="#3A3A3A" points="663.325,0.424 619.325,0.424 575.325,0.424 531.325,0.424 486.325,0.424 486.325,34.424 
			531.325,34.424 575.325,34.424 619.325,34.424 663.325,34.424 663.325,68.424 663.325,102.424 663.325,137.424 663.325,171.424 
			663.325,205.424 663.325,239.424 663.325,274.424 663.325,308.424 663.325,342.424 708.325,342.424 708.325,308.424 
			708.325,274.424 708.325,239.424 708.325,205.424 708.325,171.424 708.325,137.424 708.325,102.424 708.325,68.424 
			708.325,34.424 708.325,0.424 		"/>
	</g>
</g>
<g id="Layer_2">
	<g>
	</g>
	<g>
	</g>
	<g>
	</g>
	<g>
	</g>
	<g>
	</g>
	<g>
	</g>
	<g>
	</g>
	<g>
	</g>
	<g>
	</g>
	<g>
	</g>
	<g>
	</g>
	<g>
	</g>
	<g>
	</g>
	<g>
	</g>
	<g>
	</g>
</g>
</svg>
