<?xml version="1.0" encoding="utf-8"?>
<!-- Generator: Adobe Illustrator 16.0.0, SVG Export Plug-In . SVG Version: 6.00 Build 0)  -->
<!DOCTYPE svg PUBLIC "-//W3C//DTD SVG 1.1//EN" "http://www.w3.org/Graphics/SVG/1.1/DTD/svg11.dtd">
<svg version="1.1" id="Layer_1" xmlns="http://www.w3.org/2000/svg" xmlns:xlink="http://www.w3.org/1999/xlink" x="0px" y="0px"
	 width="76.563px" height="46.338px" viewBox="0 0 76.563 46.338" enable-background="new 0 0 76.563 46.338" xml:space="preserve">
<rect x="68.507" y="38.282" fill="#F4C571" stroke="#F4C571" stroke-miterlimit="10" width="7.557" height="7.556"/>
<rect x="68.507" y="30.726" stroke="#000000" stroke-miterlimit="10" width="7.557" height="7.557"/>
<rect x="60.951" y="38.282" fill="#F7AE1A" stroke="#F7AE1A" stroke-miterlimit="10" width="7.556" height="7.556"/>
<rect x="60.951" y="30.726" fill="#F4C571" stroke="#F4C571" stroke-miterlimit="10" width="7.556" height="7.557"/>
<rect x="60.951" y="23.169" stroke="#000000" stroke-miterlimit="10" width="7.556" height="7.557"/>
<rect x="53.395" y="38.282" fill="#F7AE1A" stroke="#F7AE1A" stroke-miterlimit="10" width="7.557" height="7.556"/>
<rect x="53.395" y="30.726" fill="#F7AE1A" stroke="#F7AE1A" stroke-miterlimit="10" width="7.557" height="7.557"/>
<rect x="53.395" y="23.169" fill="#F4C571" stroke="#F4C571" stroke-miterlimit="10" width="7.557" height="7.557"/>
<rect x="53.395" y="15.612" stroke="#000000" stroke-miterlimit="10" width="7.557" height="7.557"/>
<rect x="45.839" y="38.282" fill="#F7AE1A" stroke="#F7AE1A" stroke-miterlimit="10" width="7.556" height="7.556"/>
<rect x="45.839" y="30.726" fill="#F7AE1A" stroke="#F7AE1A" stroke-miterlimit="10" width="7.556" height="7.557"/>
<rect x="45.839" y="23.169" fill="#F7AE1A" stroke="#F7AE1A" stroke-miterlimit="10" width="7.556" height="7.557"/>
<rect x="45.839" y="15.612" fill="#F4C571" stroke="#F4C571" stroke-miterlimit="10" width="7.556" height="7.557"/>
<rect x="45.839" y="8.056" stroke="#000000" stroke-miterlimit="10" width="7.556" height="7.557"/>
<rect x="38.282" y="38.282" fill="#F7AE1A" stroke="#F7AE1A" stroke-miterlimit="10" width="7.557" height="7.556"/>
<rect x="38.282" y="30.726" fill="#F7AE1A" stroke="#F7AE1A" stroke-miterlimit="10" width="7.557" height="7.557"/>
<rect x="38.282" y="23.169" fill="#F7AE1A" stroke="#F7AE1A" stroke-miterlimit="10" width="7.557" height="7.557"/>
<rect x="38.282" y="15.612" fill="#F7AE1A" stroke="#F7AE1A" stroke-miterlimit="10" width="7.557" height="7.557"/>
<rect x="38.282" y="8.056" fill="#F4C571" stroke="#F4C571" stroke-miterlimit="10" width="7.557" height="7.557"/>
<rect x="38.282" y="0.5" stroke="#000000" stroke-miterlimit="10" width="7.557" height="7.556"/>
<rect x="30.726" y="38.282" fill="#F7AE1A" stroke="#F7AE1A" stroke-miterlimit="10" width="7.557" height="7.556"/>
<rect x="30.726" y="30.726" fill="#F7AE1A" stroke="#F7AE1A" stroke-miterlimit="10" width="7.557" height="7.557"/>
<rect x="30.726" y="23.169" fill="#F7AE1A" stroke="#F7AE1A" stroke-miterlimit="10" width="7.557" height="7.557"/>
<rect x="30.726" y="15.612" fill="#BC8015" stroke="#BC8015" stroke-miterlimit="10" width="7.557" height="7.557"/>
<rect x="30.726" y="8.056" stroke="#000000" stroke-miterlimit="10" width="7.557" height="7.557"/>
<rect x="23.169" y="38.282" fill="#F7AE1A" stroke="#F7AE1A" stroke-miterlimit="10" width="7.556" height="7.556"/>
<rect x="23.169" y="30.726" fill="#F7AE1A" stroke="#F7AE1A" stroke-miterlimit="10" width="7.556" height="7.557"/>
<rect x="23.169" y="23.169" fill="#BC8015" stroke="#BC8015" stroke-miterlimit="10" width="7.556" height="7.557"/>
<rect x="23.169" y="15.612" stroke="#000000" stroke-miterlimit="10" width="7.556" height="7.557"/>
<rect x="15.613" y="38.282" fill="#F7AE1A" stroke="#F7AE1A" stroke-miterlimit="10" width="7.557" height="7.556"/>
<rect x="15.613" y="30.726" fill="#BC8015" stroke="#BC8015" stroke-miterlimit="10" width="7.557" height="7.557"/>
<rect x="15.613" y="23.169" stroke="#000000" stroke-miterlimit="10" width="7.557" height="7.557"/>
<rect x="8.057" y="38.282" fill="#BC8015" stroke="#BC8015" stroke-miterlimit="10" width="7.556" height="7.556"/>
<rect x="8.057" y="30.726" stroke="#000000" stroke-miterlimit="10" width="7.556" height="7.557"/>
<rect x="0.5" y="38.282" stroke="#000000" stroke-miterlimit="10" width="7.557" height="7.556"/>
</svg>
