<?xml version="1.0" encoding="utf-8"?>
<!-- Generator: Adobe Illustrator 21.1.0, SVG Export Plug-In . SVG Version: 6.00 Build 0)  -->
<svg version="1.1" id="Layer_1" xmlns="http://www.w3.org/2000/svg" xmlns:xlink="http://www.w3.org/1999/xlink" x="0px" y="0px"
	 viewBox="0 0 1920 900" style="enable-background:new 0 0 1920 900;" xml:space="preserve">
<style type="text/css">
	.st0{fill:#F3AD68;stroke:#F2AD68;stroke-miterlimit:10;}
	.st1{fill:#F19849;stroke:#F19849;stroke-miterlimit:10;}
	.st2{fill:#F26633;stroke:#F26733;stroke-miterlimit:10;}
	.st3{fill:#EF3F36;}
	.st4{fill:#EEC3A5;}
	.st5{opacity:0.75;}
	.st6{fill:#DC572E;}
	.st7{opacity:0.75;fill:#DC572E;}
	.st8{fill:#AD8F7B;}
	.st9{fill:#967969;}
	.st10{fill:#89684E;}
	.st11{fill:#7A5840;}
	.st12{fill:#5B4431;}
	.st13{fill:#443123;}
	.st14{opacity:0.6;fill:#8FD6EE;}
	.st15{stroke:#000000;stroke-miterlimit:10;}
	.st16{fill:#2C1F14;stroke:#2C1F14;stroke-miterlimit:10;}
	.st17{fill:#F18732;}
	.st18{fill:#EF9152;}
	.st19{fill:#EFA16C;}
	.st20{fill:#EFB289;}
	.st21{fill:#EDD0BD;}
	.st22{opacity:0.8;fill:#FAF9D4;}
	.st23{fill:#FAF9D4;}
	.st24{fill:#F37C33;}
</style>
<rect x="-77" y="-83" class="st17" width="2001.5" height="999"/>
<rect x="-77" y="491.7" class="st18" width="2001.5" height="21.3"/>
<rect x="-77" y="512" class="st19" width="2001.5" height="21.3"/>
<rect x="-77" y="533.4" class="st20" width="2001.5" height="21.3"/>
<rect x="-77" y="554.6" class="st4" width="2001.5" height="21.3"/>
<rect x="-77" y="575.9" class="st21" width="2001.5" height="21.3"/>
<polygon class="st22" points="1557,696.9 1557,692.7 1557,690.4 1557,686.3 1557,684 1557,679.8 1557,677.6 1557,673.4 1557,671.1 
	1557,667 1557,664.7 1557,660.5 1557,658.3 1557,654.1 1557,651.8 1557,645.4 1557,638.9 1550.5,638.9 1550.5,634.8 1550.5,632.5 
	1550.5,628.3 1550.5,626.1 1550.5,621.9 1550.5,619.6 1550.5,613.2 1550.5,606.7 1544,606.7 1544,602.6 1544,600.3 1544,596.1 
	1544,593.9 1544,589.7 1544,587.4 1544,581 1544,574.6 1537.5,574.6 1537.5,570.4 1537.5,568.1 1537.5,561.7 1537.5,555.2 
	1531.1,555.2 1531.1,551.1 1531.1,548.8 1531.1,542.4 1531.1,535.9 1524.6,535.9 1524.6,531.7 1524.6,529.5 1524.6,523 
	1524.6,516.6 1518.1,516.6 1518.1,510.2 1518.1,503.7 1511.6,503.7 1511.6,499.5 1511.6,497.3 1511.6,490.8 1511.6,484.4 
	1505.1,484.4 1505.1,478 1505.1,471.5 1498.7,471.5 1498.7,465.1 1498.7,458.6 1492.2,458.6 1492.2,452.2 1492.2,445.8 
	1485.7,445.8 1485.7,439.3 1485.7,432.9 1479.2,432.9 1479.2,426.5 1472.7,426.5 1472.7,420 1472.7,413.6 1466.2,413.6 
	1466.2,407.1 1466.2,400.7 1459.8,400.7 1459.8,394.3 1453.3,394.3 1453.3,387.8 1453.3,381.4 1446.8,381.4 1446.8,374.9 
	1440.3,374.9 1440.3,368.5 1433.8,368.5 1433.8,362.1 1427.4,362.1 1427.4,355.6 1427.4,349.2 1420.9,349.2 1420.9,342.8 
	1414.4,342.8 1414.4,336.3 1407.9,336.3 1407.9,329.9 1401.4,329.9 1401.4,323.4 1395,323.4 1395,317 1388.5,317 1388.5,310.6 
	1382,310.6 1382,304.1 1375.5,304.1 1375.5,297.7 1369,297.7 1369,291.2 1362.5,291.2 1362.5,284.8 1356.1,284.8 1356.1,278.4 
	1349.6,278.4 1349.6,271.9 1343.1,271.9 1343.1,265.5 1336.6,265.5 1330.1,265.5 1330.1,259 1323.7,259 1323.7,252.6 1317.2,252.6 
	1317.2,246.2 1310.7,246.2 1310.7,239.7 1304.2,239.7 1297.7,239.7 1297.7,233.3 1291.2,233.3 1291.2,226.9 1284.8,226.9 
	1278.3,226.9 1278.3,220.4 1271.8,220.4 1265.3,220.4 1265.3,214 1258.8,214 1258.8,207.5 1252.4,207.5 1245.9,207.5 1245.9,201.1 
	1239.4,201.1 1232.9,201.1 1232.9,194.7 1226.4,194.7 1219.9,194.7 1219.9,188.2 1213.5,188.2 1207,188.2 1207,181.8 1200.5,181.8 
	1194,181.8 1187.5,181.8 1187.5,175.3 1181.1,175.3 1174.6,175.3 1174.6,168.9 1168.1,168.9 1161.6,168.9 1155.1,168.9 
	1155.1,162.5 1148.6,162.5 1142.2,162.5 1135.7,162.5 1135.7,156 1129.2,156 1122.7,156 1116.2,156 1116.2,149.6 1109.8,149.6 
	1103.3,149.6 1096.8,149.6 1090.3,149.6 1083.8,149.6 1083.8,143.1 1077.3,143.1 1070.9,143.1 1064.4,143.1 1057.9,143.1 
	1051.4,143.1 1051.4,136.7 1044.9,136.7 1038.5,136.7 1032,136.7 1025.5,136.7 1019,136.7 1012.5,136.7 1012.5,136.7 1006.1,136.7 
	1006,136.7 999.6,136.7 999.6,136.7 993.1,136.7 993.1,136.7 986.6,136.7 986.6,130.3 980.1,130.3 973.6,130.3 967.2,130.3 
	960.7,130.3 954.2,130.3 947.7,130.3 947.7,130.3 941.2,130.3 941.2,130.3 934.8,130.3 934.8,130.3 928.3,130.3 928.3,130.3 
	921.8,130.3 921.8,130.3 915.3,130.3 915.3,130.3 908.8,130.3 902.3,130.3 895.9,130.3 889.4,130.3 882.9,130.3 876.4,130.3 
	876.4,136.7 869.9,136.7 869.9,136.7 863.5,136.7 863.5,136.7 857,136.7 857,136.7 850.5,136.7 844,136.7 837.5,136.7 831,136.7 
	824.6,136.7 818.1,136.7 818.1,143.1 811.6,143.1 805.1,143.1 798.6,143.1 792.2,143.1 785.7,143.1 785.7,149.6 779.2,149.6 
	772.7,149.6 766.2,149.6 759.7,149.6 753.3,149.6 753.3,156 746.8,156 740.3,156 733.8,156 733.8,162.5 727.3,162.5 720.9,162.5 
	714.4,162.5 714.4,168.9 707.9,168.9 701.4,168.9 694.9,168.9 694.9,175.3 688.4,175.3 682,175.3 682,181.8 675.5,181.8 669,181.8 
	662.5,181.8 662.5,188.2 656,188.2 649.6,188.2 649.6,194.7 643.1,194.7 636.6,194.7 636.6,201.1 630.1,201.1 623.6,201.1 
	623.6,207.5 617.2,207.5 610.7,207.5 610.7,214 604.2,214 604.2,220.4 597.7,220.4 591.2,220.4 591.2,226.9 584.7,226.9 
	578.3,226.9 578.3,233.3 571.8,233.3 571.8,239.7 565.3,239.7 558.8,239.7 558.8,246.2 552.3,246.2 552.3,252.6 545.9,252.6 
	545.9,259 539.4,259 539.4,265.5 532.9,265.5 526.4,265.5 526.4,271.9 519.9,271.9 519.9,278.4 513.4,278.4 513.4,284.8 507,284.8 
	507,291.2 500.5,291.2 500.5,297.7 494,297.7 494,304.1 487.5,304.1 487.5,310.6 481,310.6 481,317 474.6,317 474.6,323.4 
	468.1,323.4 468.1,329.9 461.6,329.9 461.6,336.3 455.1,336.3 455.1,342.8 448.6,342.8 448.6,349.2 442.1,349.2 442.1,355.6 
	442.1,362.1 435.7,362.1 435.7,368.5 429.2,368.5 429.2,374.9 422.7,374.9 422.7,381.4 416.2,381.4 416.2,387.8 416.2,394.3 
	409.7,394.3 409.7,400.7 403.3,400.7 403.3,407.1 403.3,413.6 396.8,413.6 396.8,420 396.8,426.5 390.3,426.5 390.3,432.9 
	383.8,432.9 383.8,439.3 383.8,445.8 377.3,445.8 377.3,452.2 377.3,458.6 370.8,458.6 370.8,465.1 370.8,471.5 364.4,471.5 
	364.4,478 364.4,484.4 357.9,484.4 357.9,490.8 357.9,497.3 357.9,499.5 357.9,503.7 351.4,503.7 351.4,510.2 351.4,516.6 
	344.9,516.6 344.9,523 344.9,529.5 344.9,531.7 344.9,535.9 338.4,535.9 338.4,542.4 338.4,548.8 338.4,551.1 338.4,555.2 
	332,555.2 332,561.7 332,568.1 332,570.4 332,574.6 325.5,574.6 325.5,581 325.5,587.4 325.5,589.7 325.5,593.9 325.5,596.1 
	325.5,600.3 325.5,602.6 325.5,606.7 319,606.7 319,613.2 319,619.6 319,621.9 319,626.1 319,628.3 319,632.5 319,634.8 319,638.9 
	312.5,638.9 312.5,645.4 312.5,651.8 312.5,654.1 312.5,658.3 312.5,660.5 312.5,664.7 312.5,667 312.5,671.1 312.5,673.4 
	312.5,677.6 312.5,679.8 312.5,684 312.5,686.3 312.5,690.4 312.5,692.7 312.5,696.9 306,696.9 306,703.3 306,709.8 306,712 
	306,716.2 306,718.5 306,724.9 306,731.3 312.5,731.3 319,731.3 325.5,731.3 332,731.3 338.4,731.3 344.9,731.3 344.9,731.3 
	351.4,731.3 351.4,731.3 357.9,731.3 357.9,731.3 364.4,731.3 364.4,735.8 403.3,735.8 1446.8,735.8 1485.7,735.8 1485.7,731.3 
	1492.2,731.3 1492.2,731.3 1498.7,731.3 1498.7,731.3 1505.1,731.3 1505.1,731.3 1511.6,731.3 1511.6,731.3 1518.1,731.3 
	1518.1,731.3 1524.6,731.3 1524.6,731.3 1531.1,731.3 1537.5,731.3 1544,731.3 1550.5,731.3 1557,731.3 1563.5,731.3 1563.5,724.9 
	1563.5,718.5 1563.5,716.2 1563.5,712 1563.5,709.8 1563.5,703.3 1563.5,696.9 "/>
<polygon class="st23" points="1537.5,712 1537.5,705.6 1537.5,699.2 1537.5,692.7 1537.5,686.3 1537.5,679.8 1537.5,673.4 
	1537.5,667 1537.5,660.5 1537.5,654.1 1531.1,654.1 1531.1,647.6 1531.1,641.2 1531.1,634.8 1531.1,628.3 1531.1,621.9 
	1524.6,621.9 1524.6,615.4 1524.6,609 1524.6,602.6 1524.6,596.1 1524.6,589.7 1518.1,589.7 1518.1,583.3 1518.1,576.8 
	1518.1,570.4 1511.6,570.4 1511.6,563.9 1511.6,557.5 1511.6,551.1 1505.1,551.1 1505.1,544.6 1505.1,538.2 1505.1,531.7 
	1498.7,531.7 1498.7,525.3 1498.7,518.9 1492.2,518.9 1492.2,512.4 1492.2,506 1492.2,499.5 1485.7,499.5 1485.7,493.1 
	1485.7,486.7 1479.2,486.7 1479.2,480.2 1479.2,473.8 1472.7,473.8 1472.7,467.4 1472.7,460.9 1466.2,460.9 1466.2,454.5 
	1466.2,448 1459.8,448 1459.8,441.6 1453.3,441.6 1453.3,435.2 1453.3,428.7 1446.8,428.7 1446.8,422.3 1446.8,415.8 1440.3,415.8 
	1440.3,409.4 1433.8,409.4 1433.8,403 1433.8,396.5 1427.4,396.5 1427.4,390.1 1420.9,390.1 1420.9,383.6 1414.4,383.6 
	1414.4,377.2 1407.9,377.2 1407.9,370.8 1407.9,364.3 1401.4,364.3 1401.4,357.9 1394.9,357.9 1394.9,351.5 1388.5,351.5 
	1388.5,345 1382,345 1382,338.6 1375.5,338.6 1375.5,332.1 1369,332.1 1369,325.7 1362.5,325.7 1362.5,319.3 1356.1,319.3 
	1356.1,312.8 1349.6,312.8 1349.6,306.4 1343.1,306.4 1343.1,299.9 1336.6,299.9 1336.6,293.5 1330.1,293.5 1330.1,287.1 
	1323.6,287.1 1323.6,280.6 1317.2,280.6 1310.7,280.6 1310.7,274.2 1304.2,274.2 1304.2,267.7 1297.7,267.7 1297.7,261.3 
	1291.2,261.3 1291.2,254.9 1284.8,254.9 1278.3,254.9 1278.3,248.4 1271.8,248.4 1271.8,242 1265.3,242 1258.8,242 1258.8,235.6 
	1252.4,235.6 1245.9,235.6 1245.9,229.1 1239.4,229.1 1239.4,222.7 1232.9,222.7 1226.4,222.7 1226.4,216.2 1219.9,216.2 
	1213.5,216.2 1213.5,209.8 1207,209.8 1200.5,209.8 1200.5,203.4 1194,203.4 1187.5,203.4 1187.5,196.9 1181.1,196.9 1174.6,196.9 
	1168.1,196.9 1168.1,190.5 1161.6,190.5 1155.1,190.5 1155.1,184 1148.6,184 1142.2,184 1135.7,184 1135.7,177.6 1129.2,177.6 
	1122.7,177.6 1116.2,177.6 1116.2,171.2 1109.8,171.2 1103.3,171.2 1096.8,171.2 1096.8,164.7 1090.3,164.7 1083.8,164.7 
	1077.3,164.7 1070.9,164.7 1064.4,164.7 1064.4,158.3 1057.9,158.3 1051.4,158.3 1044.9,158.3 1038.5,158.3 1032,158.3 1032,151.8 
	1025.5,151.8 1019,151.8 1012.5,151.8 1006.1,151.8 999.6,151.8 993.1,151.8 986.6,151.8 980.1,151.8 973.6,151.8 967.2,151.8 
	967.2,145.4 960.7,145.4 954.2,145.4 947.7,145.4 941.2,145.4 934.8,145.4 928.3,145.4 921.8,145.4 915.3,145.4 908.8,145.4 
	902.3,145.4 895.9,145.4 895.9,151.8 889.4,151.8 882.9,151.8 876.4,151.8 869.9,151.8 863.5,151.8 857,151.8 850.5,151.8 
	844,151.8 837.5,151.8 837.5,158.3 831,158.3 824.6,158.3 818.1,158.3 811.6,158.3 805.1,158.3 805.1,164.7 798.6,164.7 
	792.2,164.7 785.7,164.7 779.2,164.7 772.7,164.7 772.7,171.2 766.2,171.2 759.7,171.2 753.3,171.2 753.3,177.6 746.8,177.6 
	740.3,177.6 733.8,177.6 733.8,184 727.3,184 720.9,184 714.4,184 714.4,190.5 707.9,190.5 701.4,190.5 701.4,196.9 694.9,196.9 
	688.4,196.9 682,196.9 682,203.4 675.5,203.4 669,203.4 669,209.8 662.5,209.8 656,209.8 656,216.2 649.6,216.2 643.1,216.2 
	643.1,222.7 636.6,222.7 630.1,222.7 630.1,229.1 623.6,229.1 623.6,235.6 617.2,235.6 610.7,235.6 610.7,242 604.2,242 597.7,242 
	597.7,248.4 591.2,248.4 591.2,254.9 584.7,254.9 578.3,254.9 578.3,261.3 571.8,261.3 571.8,267.7 565.3,267.7 565.3,274.2 
	558.8,274.2 558.8,280.6 552.3,280.6 545.9,280.6 545.9,287.1 539.4,287.1 539.4,293.5 532.9,293.5 532.9,299.9 526.4,299.9 
	526.4,306.4 519.9,306.4 519.9,312.8 513.4,312.8 513.4,319.3 507,319.3 507,325.7 500.5,325.7 500.5,332.1 494,332.1 494,338.6 
	487.5,338.6 487.5,345 481,345 481,351.5 474.6,351.5 474.6,357.9 468.1,357.9 468.1,364.3 461.6,364.3 461.6,370.8 461.6,377.2 
	455.1,377.2 455.1,383.6 448.6,383.6 448.6,390.1 442.1,390.1 442.1,396.5 435.7,396.5 435.7,403 435.7,409.4 429.2,409.4 
	429.2,415.8 422.7,415.8 422.7,422.3 422.7,428.7 416.2,428.7 416.2,435.2 416.2,441.6 409.7,441.6 409.7,448 403.3,448 
	403.3,454.5 403.3,460.9 396.8,460.9 396.8,467.4 396.8,473.8 390.3,473.8 390.3,480.2 390.3,486.7 383.8,486.7 383.8,493.1 
	383.8,499.5 377.3,499.5 377.3,506 377.3,512.4 377.3,518.9 370.8,518.9 370.8,525.3 370.8,531.7 364.4,531.7 364.4,538.2 
	364.4,544.6 364.4,551.1 357.9,551.1 357.9,557.5 357.9,563.9 357.9,570.4 351.4,570.4 351.4,576.8 351.4,583.3 351.4,589.7 
	344.9,589.7 344.9,596.1 344.9,602.6 344.9,609 344.9,615.4 344.9,621.9 338.4,621.9 338.4,628.3 338.4,634.8 338.4,641.2 
	338.4,647.6 338.4,654.1 332,654.1 332,660.5 332,667 332,673.4 332,679.8 332,686.3 332,692.7 332,699.2 332,705.6 332,712 
	325.5,712 325.5,718.5 325.5,724.9 325.5,731.3 332,731.3 338.4,731.3 344.9,731.3 351.4,731.3 357.9,731.3 364.4,731.3 
	370.8,731.3 377.3,731.3 383.8,731.3 383.8,735.8 1466.2,735.8 1466.2,731.3 1472.7,731.3 1479.2,731.3 1485.7,731.3 1492.2,731.3 
	1498.7,731.3 1505.1,731.3 1511.6,731.3 1518.1,731.3 1524.6,731.3 1531.1,731.3 1537.5,731.3 1544,731.3 1544,724.9 1544,718.5 
	1544,712 "/>
</svg>
