<svg id="Layer_12" data-name="Layer 12" xmlns="http://www.w3.org/2000/svg" viewBox="0 0 1900 900"><defs><style>.cls-1{fill:none;}.cls-2{fill:#c7665c;}.cls-3{fill:#973829;}.cls-4{fill:#63271b;}.cls-5{fill:#a25825;}.cls-6{fill:#2a3f1b;}.cls-7{fill:#344c22;}.cls-8{fill:#4f190d;}.cls-9{fill:#35150d;}.cls-10{fill:#3296b5;}.cls-11{fill:#3faad3;}.cls-12{fill:#f2f2f3;}.cls-13{fill:#496730;}.cls-14{fill:#ca9e2c;}.cls-15{fill:#911a1c;}.cls-16{fill:#3a2f2d;}.cls-17{fill:#d12027;}.cls-18{stroke:#000;stroke-miterlimit:10;}</style></defs><title>Artboard 1</title><rect class="cls-1" x="1549.11" y="571.58" width="7.68" height="7.68"/><rect class="cls-1" x="1549.11" y="556.23" width="7.68" height="7.68"/><rect class="cls-1" x="1503.03" y="540.87" width="7.68" height="7.68"/><rect class="cls-1" x="919.41" y="571.58" width="7.68" height="7.68"/><rect class="cls-1" x="919.41" y="540.87" width="7.68" height="7.68"/><rect class="cls-1" x="1549.11" y="540.87" width="7.68" height="7.68"/><rect class="cls-1" x="1549.11" y="586.94" width="7.68" height="7.68"/><rect class="cls-1" x="1503.03" y="586.94" width="7.68" height="7.68"/><rect class="cls-1" x="1549.11" y="525.51" width="7.68" height="7.68"/><rect class="cls-1" x="1503.03" y="556.23" width="7.68" height="7.68"/><rect class="cls-1" x="1503.03" y="571.58" width="7.68" height="7.68"/><rect class="cls-1" x="1533.75" y="494.79" width="7.68" height="7.68"/><rect class="cls-1" x="1549.11" y="510.15" width="7.68" height="7.68"/><rect class="cls-1" x="1549.11" y="494.79" width="7.68" height="7.68"/><rect class="cls-1" x="942.45" y="556.23" width="7.68" height="7.68"/><rect class="cls-1" x="934.77" y="571.58" width="7.68" height="7.68"/><rect class="cls-1" x="1341.77" y="510.15" width="7.68" height="7.68"/><rect class="cls-1" x="1357.13" y="540.87" width="7.68" height="7.68"/><rect class="cls-1" x="1357.13" y="525.51" width="7.68" height="7.68"/><rect class="cls-1" x="1372.49" y="494.79" width="7.68" height="7.68"/><rect class="cls-1" x="1341.77" y="525.51" width="7.68" height="7.68"/><rect class="cls-1" x="1341.77" y="556.23" width="7.68" height="7.68"/><rect class="cls-1" x="1341.77" y="540.87" width="7.68" height="7.68"/><rect class="cls-1" x="1357.13" y="556.23" width="7.68" height="7.68"/><rect class="cls-1" x="1357.13" y="510.15" width="7.68" height="7.68"/><rect class="cls-1" x="1372.49" y="556.23" width="7.68" height="7.68"/><rect class="cls-1" x="1372.49" y="540.87" width="7.68" height="7.68"/><rect class="cls-1" x="1357.13" y="494.79" width="7.68" height="7.68"/><rect class="cls-1" x="1372.49" y="525.51" width="7.68" height="7.68"/><rect class="cls-1" x="1372.49" y="510.15" width="7.68" height="7.68"/><rect class="cls-1" x="1503.03" y="525.51" width="7.68" height="7.68"/><rect class="cls-1" x="1533.75" y="540.87" width="7.68" height="7.68"/><rect class="cls-1" x="1533.75" y="525.51" width="7.68" height="7.68"/><rect class="cls-1" x="1533.75" y="556.23" width="7.68" height="7.68"/><rect class="cls-1" x="1503.03" y="510.15" width="7.68" height="7.68"/><rect class="cls-1" x="1533.75" y="571.58" width="7.68" height="7.68"/><rect class="cls-1" x="1533.75" y="510.15" width="7.68" height="7.68"/><rect class="cls-1" x="1503.03" y="494.79" width="7.68" height="7.68"/><rect class="cls-1" x="1387.85" y="540.87" width="7.68" height="7.68"/><rect class="cls-1" x="1533.75" y="586.94" width="7.68" height="7.68"/><rect class="cls-1" x="1387.85" y="525.51" width="7.68" height="7.68"/><rect class="cls-1" x="1387.85" y="494.79" width="7.68" height="7.68"/><rect class="cls-1" x="1387.85" y="510.15" width="7.68" height="7.68"/><rect class="cls-1" x="1341.77" y="494.79" width="7.68" height="7.68"/><rect class="cls-1" x="1387.85" y="556.23" width="7.68" height="7.68"/><polygon class="cls-1" points="277.05 535.03 269.37 535.03 269.37 527.35 277.05 527.35 284.73 527.35 292.41 527.35 292.41 535.03 284.73 535.03 277.05 535.03"/><rect class="cls-1" x="612.24" y="533.19" width="7.68" height="7.68"/><rect class="cls-1" x="612.24" y="517.83" width="7.68" height="7.68"/><rect class="cls-1" x="581.52" y="517.83" width="7.68" height="7.68"/><rect class="cls-1" x="581.52" y="533.19" width="7.68" height="7.68"/><rect class="cls-1" x="612.24" y="579.26" width="7.68" height="7.68"/><rect class="cls-1" x="612.24" y="563.9" width="7.68" height="7.68"/><rect class="cls-1" x="612.24" y="548.54" width="7.68" height="7.68"/><rect class="cls-1" x="566.16" y="579.26" width="7.68" height="7.68"/><rect class="cls-1" x="566.16" y="563.9" width="7.68" height="7.68"/><rect class="cls-1" x="581.52" y="548.54" width="7.68" height="7.68"/><rect class="cls-1" x="566.16" y="548.54" width="7.68" height="7.68"/><rect class="cls-1" x="612.24" y="594.62" width="7.68" height="7.68"/><rect class="cls-1" x="581.52" y="594.62" width="7.68" height="7.68"/><rect class="cls-1" x="566.16" y="594.62" width="7.68" height="7.68"/><polygon class="cls-1" points="307.77 535.03 300.09 535.03 300.09 527.35 307.77 527.35 315.45 527.35 323.13 527.35 323.13 535.03 315.45 535.03 307.77 535.03"/><polygon class="cls-1" points="307.77 519.67 300.09 519.67 300.09 511.99 307.77 511.99 315.45 511.99 323.13 511.99 323.13 519.67 315.45 519.67 307.77 519.67"/><polygon class="cls-1" points="307.77 504.31 300.09 504.31 300.09 496.63 307.77 496.63 315.45 496.63 323.13 496.63 323.13 504.31 315.45 504.31 307.77 504.31"/><rect class="cls-1" x="566.16" y="533.19" width="7.68" height="7.68"/><polygon class="cls-1" points="300.09 488.95 292.41 488.95 284.73 488.95 277.05 488.95 269.37 488.95 261.69 488.95 254.01 488.95 254.01 481.27 261.69 481.27 269.37 481.27 277.05 481.27 284.73 481.27 292.41 481.27 300.09 481.27 307.77 481.27 307.77 488.95 300.09 488.95"/><polygon class="cls-1" points="307.77 550.38 300.09 550.38 300.09 542.71 307.77 542.71 315.45 542.71 323.13 542.71 323.13 550.38 315.45 550.38 307.77 550.38"/><polygon class="cls-1" points="277.05 504.31 269.37 504.31 269.37 496.63 277.05 496.63 284.73 496.63 292.41 496.63 292.41 504.31 284.73 504.31 277.05 504.31"/><polygon class="cls-1" points="277.05 550.38 269.37 550.38 269.37 542.71 277.05 542.71 284.73 542.71 292.41 542.71 292.41 550.38 284.73 550.38 277.05 550.38"/><polygon class="cls-1" points="254.01 542.71 261.69 542.71 261.69 550.38 254.01 550.38 246.33 550.38 238.66 550.38 238.66 542.71 246.33 542.71 254.01 542.71"/><polygon class="cls-1" points="277.05 519.67 269.37 519.67 269.37 511.99 277.05 511.99 284.73 511.99 292.41 511.99 292.41 519.67 284.73 519.67 277.05 519.67"/><polygon class="cls-1" points="254.01 511.99 261.69 511.99 261.69 519.67 254.01 519.67 246.33 519.67 238.66 519.67 238.66 511.99 246.33 511.99 254.01 511.99"/><polygon class="cls-1" points="254.01 527.35 261.69 527.35 261.69 535.03 254.01 535.03 246.33 535.03 238.66 535.03 238.66 527.35 246.33 527.35 254.01 527.35"/><polygon class="cls-1" points="254.01 496.63 261.69 496.63 261.69 504.31 254.01 504.31 246.33 504.31 238.66 504.31 238.66 496.63 246.33 496.63 254.01 496.63"/><rect class="cls-1" x="934.77" y="540.87" width="7.68" height="7.68"/><rect class="cls-1" x="566.16" y="517.83" width="7.68" height="7.68"/><rect class="cls-1" x="911.73" y="556.23" width="7.68" height="7.68"/><rect class="cls-1" x="927.09" y="556.23" width="7.68" height="7.68"/><rect class="cls-1" x="589.2" y="571.58" width="7.68" height="7.68"/><rect class="cls-1" x="596.88" y="533.19" width="7.68" height="7.68"/><rect class="cls-1" x="596.88" y="579.26" width="7.68" height="7.68"/><rect class="cls-1" x="581.52" y="579.26" width="7.68" height="7.68"/><rect class="cls-1" x="581.52" y="563.9" width="7.68" height="7.68"/><rect class="cls-1" x="596.88" y="517.83" width="7.68" height="7.68"/><rect class="cls-1" x="596.88" y="594.62" width="7.68" height="7.68"/><polygon class="cls-1" points="596.88 556.23 596.88 548.54 604.56 548.54 604.56 556.23 604.56 563.9 604.56 571.58 596.88 571.58 596.88 563.9 596.88 556.23"/><path class="cls-2" d="M200.74,604.16v246.2H369.69V604.16H330.8V489h-7.68v-7.68h-7.68v-7.68h-23v-7.68h-7.68v-23h-7.68v23h-7.68v7.68h-23v7.68h-7.68V489H231V604.16Zm91.67-53.78h-23v-7.68h23Zm0-15.36h-23v-7.68h23Zm0-15.36h-23V512h23Zm0-15.36h-23v-7.68h23Zm-53.75,38.4h23v7.68h-23Zm0-15.36h23V535h-23Zm0-15.36h23v7.68h-23Zm0-15.36h23v7.68h-23Zm69.11-15.36V489H254v-7.68h53.76Zm15.36,23h-23v-7.68h23Zm0,15.36h-23V512h23Zm0,15.36h-23v-7.68h23Zm0,15.36h-23v-7.68h23Z"/><rect class="cls-2" x="261.69" y="427.52" width="7.68" height="7.68"/><rect class="cls-2" x="269.37" y="435.2" width="7.68" height="7.68"/><rect class="cls-2" x="284.73" y="435.2" width="7.68" height="7.68"/><rect class="cls-2" x="292.41" y="427.52" width="7.68" height="7.68"/><path class="cls-2" d="M550.81,612.11H475v292H628.62v-292h-1V494.79h-7.68v-7.68h-7.68v15.36H566.16V487.11h-7.68v7.68h-7.68V612.11Zm53.76-9.81h-7.68v-7.68h7.68Zm0-15.36h-7.68v-7.68H589.2v7.68h-7.68v-7.68h7.68v-7.68h-7.68V563.9h7.68v7.68h7.68v-23h7.68v23h-7.68v7.68h7.68Zm0-46.08h-7.68v-7.68h7.68Zm0-15.36h-7.68v-7.68h7.68Zm-38.4-7.68h7.68v7.68h-7.68Zm0,15.36h7.68v7.68h-7.68Zm0,15.36h7.68v7.68h-7.68Zm0,15.36h7.68v7.68h-7.68Zm0,15.36h7.68v7.68h-7.68Zm0,15.36h7.68v7.68h-7.68Zm23,7.68h-7.68v-7.68h7.68Zm0-46.07h-7.68v-7.68h7.68Zm0-15.36h-7.68v-7.68h7.68Zm-7.68-23h7.68v7.68h-7.68Zm38.4,7.68h-7.68v-7.68h7.68Zm0,15.36h-7.68v-7.68h7.68Zm0,15.36h-7.68v-7.68h7.68Zm0,15.36h-7.68V563.9h7.68Zm0,15.36h-7.68v-7.68h7.68Zm0,15.36h-7.68v-7.68h7.68Z"/><rect class="cls-2" x="566.16" y="479.43" width="7.68" height="7.68"/><rect class="cls-2" x="573.84" y="471.75" width="7.68" height="7.68"/><rect class="cls-2" x="596.88" y="471.75" width="7.68" height="7.68"/><rect class="cls-2" x="604.56" y="479.43" width="7.68" height="7.68"/><path class="cls-2" d="M911.73,533.19H904v53.76h0V907.63H1073V585.14h0v-98h-7.68v-7.68h-7.68v-7.68H1050v-7.68h-7.68V456.4h-15.36v7.68h-7.68v7.68h-7.68v7.68h-7.68v7.68H996.2v46.07H911.73Zm15.36,7.68v7.68h-7.68v-7.68Zm-7.68,30.72h7.68v7.68h-7.68Zm138.23-7.68H1050v-7.68h7.68Zm0-30.72H1050v-7.68h7.68Zm0-30.72H1050v-7.68h7.68Zm-46.07,7.68h7.68v7.68h-7.68Zm-76.79,61.43h7.68v7.68h-7.68Zm107.51-7.68h-7.68v-7.68h7.68Zm0-30.72h-7.68v-7.68h7.68Zm0-30.72h-7.68v-7.68h7.68Zm-7.68,15.36h-7.68v-7.68h7.68Zm0,30.71h-7.68v-7.68h7.68Zm-15.36,7.68h7.68v7.68h-7.68Zm15.36,23h-7.68v-7.68h7.68Zm-15.36,0h-7.68v-7.68h7.68Zm-15.36,0H996.2v-7.68h7.68Zm-61.43-23h7.68v7.68h-7.68Zm61.43,0h7.68v7.68h-7.68Zm7.68-15.36h7.68v7.68h-7.68Zm7.68-15.36h7.68v7.68h-7.68Zm0-30.72h7.68v7.68h-7.68Zm30.72,23h-7.68v-7.68H1050Zm0,30.71h-7.68v-7.68H1050Zm0,30.72h-7.68v-7.68H1050Zm-122.87-23h7.68v7.68h-7.68Zm15.36-15.36v7.68h-7.68v-7.68Zm53.75,0h7.68v7.68H996.2Zm7.68-15.36h7.68v7.68h-7.68Zm0-30.72h7.68v7.68h-7.68Zm61.43,23h-7.68v-7.68h7.68Zm0,30.71h-7.68v-7.68h7.68Zm0,30.72h-7.68v-7.68h7.68Zm-153.58-23h7.68v7.68h-7.68Z"/><path class="cls-2" d="M1334.09,578H1236V900.48h98.12v30.29l326.37,8.85V600.4h-96v-121h-7.68v-7.68h-23v-23h-7.68v23h-30.72v7.68h-7.68v121H1403V579.26h.2V456.4h-7.68V425.68h-7.68V456.4h-7.68v7.68h-15.36v7.68h-15.36v7.68h-15.36V578Zm46.08-14.08h-7.68v-7.68h7.68Zm0-15.36h-7.68v-7.68h7.68Zm0-15.36h-7.68v-7.68h7.68Zm0-15.36h-7.68v-7.68h7.68Zm-23-23h7.68v7.68h-7.68Zm0,15.36h7.68v7.68h-7.68Zm0,15.36h7.68v7.68h-7.68Zm0,15.36h7.68v7.68h-7.68Zm0,15.36h7.68v7.68h-7.68Zm23-53.76h-7.68v-7.68h7.68Zm-38.4,53.76h7.68v7.68h-7.68Zm0-15.36h7.68v7.68h-7.68Zm0-15.36h7.68v7.68h-7.68Zm0-15.36h7.68v7.68h-7.68Zm0-15.36h7.68v7.68h-7.68Zm53.76,7.68h-7.68v-7.68h7.68Zm0,15.36h-7.68v-7.68h7.68Zm0,15.36h-7.68v-7.68h7.68Zm0,15.36h-7.68v-7.68h7.68Zm0,15.36h-7.68v-7.68h7.68Zm145.91,30.72h-7.68v-7.68h7.68Zm0-15.36h-7.68v-7.68h7.68Zm0-15.36h-7.68v-7.68h7.68Zm0-15.36h-7.68v-7.68h7.68Zm0-15.36h-7.68v-7.68h7.68Zm0-15.36h-7.68v-7.68h7.68Zm-38.4-23h7.68v7.68H1503Zm0,15.36h7.68v7.68H1503Zm0,15.36h7.68v7.68H1503Zm0,15.36h7.68v7.68H1503Zm0,15.36h7.68v7.68H1503Zm0,15.36h7.68v7.68H1503Zm0,15.36h7.68v7.68H1503Zm38.4-84.47h-7.68v-7.68h7.68Zm15.36,0h-7.68v-7.68h7.68Zm0,15.36h-7.68v-7.68h7.68Zm0,15.36h-7.68v-7.68h7.68Zm0,15.36h-7.68v-7.68h7.68Zm0,15.36h-7.68v-7.68h7.68Zm0,15.36h-7.68v-7.68h7.68Zm0,15.36h-7.68v-7.68h7.68Z"/><rect class="cls-2" x="566.43" y="556.23" width="53.49" height="7.68"/><rect class="cls-2" x="566.43" y="571.58" width="53.49" height="7.68"/><rect class="cls-1" x="177.11" y="559.96" width="7.68" height="7.68"/><rect class="cls-1" x="177.11" y="544.6" width="7.68" height="7.68"/><rect class="cls-1" x="223.19" y="529.24" width="7.68" height="7.68"/><rect class="cls-1" x="806.81" y="559.96" width="7.68" height="7.68"/><rect class="cls-1" x="806.81" y="529.24" width="7.68" height="7.68"/><rect class="cls-1" x="676.27" y="544.6" width="7.68" height="7.68"/><rect class="cls-1" x="177.11" y="529.24" width="7.68" height="7.68"/><rect class="cls-1" x="177.11" y="575.32" width="7.68" height="7.68"/><rect class="cls-1" x="223.19" y="575.32" width="7.68" height="7.68"/><rect class="cls-1" x="177.11" y="513.88" width="7.68" height="7.68"/><rect class="cls-1" x="223.19" y="544.6" width="7.68" height="7.68"/><rect class="cls-1" x="223.19" y="559.96" width="7.68" height="7.68"/><rect class="cls-1" x="192.47" y="483.16" width="7.68" height="7.68"/><rect class="cls-1" x="177.11" y="498.52" width="7.68" height="7.68"/><rect class="cls-1" x="177.11" y="483.16" width="7.68" height="7.68"/><rect class="cls-1" x="676.27" y="513.88" width="7.68" height="7.68"/><rect class="cls-1" x="714.66" y="559.96" width="7.68" height="7.68"/><rect class="cls-1" x="699.3" y="559.96" width="7.68" height="7.68"/><rect class="cls-1" x="706.98" y="544.6" width="7.68" height="7.68"/><rect class="cls-1" x="730.02" y="559.96" width="7.68" height="7.68"/><rect class="cls-1" x="714.66" y="529.24" width="7.68" height="7.68"/><rect class="cls-1" x="722.34" y="544.6" width="7.68" height="7.68"/><rect class="cls-1" x="783.77" y="544.6" width="7.68" height="7.68"/><rect class="cls-1" x="706.98" y="513.88" width="7.68" height="7.68"/><rect class="cls-1" x="691.62" y="544.6" width="7.68" height="7.68"/><rect class="cls-1" x="791.45" y="559.96" width="7.68" height="7.68"/><rect class="cls-1" x="714.66" y="498.52" width="7.68" height="7.68"/><rect class="cls-1" x="691.62" y="513.88" width="7.68" height="7.68"/><rect class="cls-1" x="699.3" y="529.24" width="7.68" height="7.68"/><rect class="cls-1" x="676.27" y="483.16" width="7.68" height="7.68"/><rect class="cls-1" x="691.62" y="483.16" width="7.68" height="7.68"/><rect class="cls-1" x="699.3" y="498.52" width="7.68" height="7.68"/><rect class="cls-1" x="384.45" y="498.52" width="7.68" height="7.68"/><rect class="cls-1" x="369.1" y="529.24" width="7.68" height="7.68"/><rect class="cls-1" x="369.1" y="513.88" width="7.68" height="7.68"/><rect class="cls-1" x="353.74" y="483.16" width="7.68" height="7.68"/><rect class="cls-1" x="384.45" y="513.88" width="7.68" height="7.68"/><rect class="cls-1" x="384.45" y="544.6" width="7.68" height="7.68"/><rect class="cls-1" x="384.45" y="529.24" width="7.68" height="7.68"/><rect class="cls-1" x="369.1" y="544.6" width="7.68" height="7.68"/><rect class="cls-1" x="369.1" y="498.52" width="7.68" height="7.68"/><rect class="cls-1" x="353.74" y="544.6" width="7.68" height="7.68"/><rect class="cls-1" x="353.74" y="529.24" width="7.68" height="7.68"/><rect class="cls-1" x="369.1" y="483.16" width="7.68" height="7.68"/><rect class="cls-1" x="353.74" y="513.88" width="7.68" height="7.68"/><rect class="cls-1" x="353.74" y="498.52" width="7.68" height="7.68"/><rect class="cls-1" x="223.19" y="513.88" width="7.68" height="7.68"/><rect class="cls-1" x="192.47" y="529.24" width="7.68" height="7.68"/><rect class="cls-1" x="192.47" y="513.88" width="7.68" height="7.68"/><rect class="cls-1" x="192.47" y="544.6" width="7.68" height="7.68"/><rect class="cls-1" x="223.19" y="498.52" width="7.68" height="7.68"/><rect class="cls-1" x="192.47" y="559.96" width="7.68" height="7.68"/><rect class="cls-1" x="192.47" y="498.52" width="7.68" height="7.68"/><rect class="cls-1" x="223.19" y="483.16" width="7.68" height="7.68"/><rect class="cls-1" x="338.38" y="529.24" width="7.68" height="7.68"/><rect class="cls-1" x="192.47" y="575.32" width="7.68" height="7.68"/><rect class="cls-1" x="338.38" y="513.88" width="7.68" height="7.68"/><rect class="cls-1" x="338.38" y="483.16" width="7.68" height="7.68"/><rect class="cls-1" x="338.38" y="498.52" width="7.68" height="7.68"/><rect class="cls-1" x="384.45" y="483.16" width="7.68" height="7.68"/><rect class="cls-1" x="338.38" y="544.6" width="7.68" height="7.68"/><polygon class="cls-1" points="1479.83 619.08 1487.51 619.08 1487.51 611.4 1479.83 611.4 1472.15 611.4 1464.47 611.4 1464.47 619.08 1472.15 619.08 1479.83 619.08"/><rect class="cls-1" x="1113.98" y="521.56" width="7.68" height="7.68"/><rect class="cls-1" x="1113.98" y="506.2" width="7.68" height="7.68"/><rect class="cls-1" x="1144.7" y="506.2" width="7.68" height="7.68"/><rect class="cls-1" x="1144.7" y="521.56" width="7.68" height="7.68"/><rect class="cls-1" x="1113.98" y="567.63" width="7.68" height="7.68"/><rect class="cls-1" x="1113.98" y="552.28" width="7.68" height="7.68"/><rect class="cls-1" x="1113.98" y="536.92" width="7.68" height="7.68"/><rect class="cls-1" x="1160.06" y="567.63" width="7.68" height="7.68"/><rect class="cls-1" x="1160.06" y="552.28" width="7.68" height="7.68"/><rect class="cls-1" x="1144.7" y="536.92" width="7.68" height="7.68"/><rect class="cls-1" x="1160.06" y="536.92" width="7.68" height="7.68"/><rect class="cls-1" x="1113.98" y="582.99" width="7.68" height="7.68"/><rect class="cls-1" x="1144.7" y="582.99" width="7.68" height="7.68"/><rect class="cls-1" x="1160.06" y="582.99" width="7.68" height="7.68"/><polygon class="cls-1" points="1449.11 619.08 1456.79 619.08 1456.79 611.4 1449.11 611.4 1441.43 611.4 1433.75 611.4 1433.75 619.08 1441.43 619.08 1449.11 619.08"/><polygon class="cls-1" points="1449.11 603.72 1456.79 603.72 1456.79 596.04 1449.11 596.04 1441.43 596.04 1433.75 596.04 1433.75 603.72 1441.43 603.72 1449.11 603.72"/><polygon class="cls-1" points="1449.11 588.36 1456.79 588.36 1456.79 580.68 1449.11 580.68 1441.43 580.68 1433.75 580.68 1433.75 588.36 1441.43 588.36 1449.11 588.36"/><rect class="cls-1" x="1160.06" y="521.56" width="7.68" height="7.68"/><polygon class="cls-1" points="1456.79 573.01 1464.47 573.01 1472.15 573.01 1479.83 573.01 1487.51 573.01 1495.19 573.01 1502.87 573.01 1502.87 565.33 1495.19 565.33 1487.51 565.33 1479.83 565.33 1472.15 565.33 1464.47 565.33 1456.79 565.33 1449.11 565.33 1449.11 573.01 1456.79 573.01"/><polygon class="cls-1" points="1449.11 634.44 1456.79 634.44 1456.79 626.76 1449.11 626.76 1441.43 626.76 1433.75 626.76 1433.75 634.44 1441.43 634.44 1449.11 634.44"/><polygon class="cls-1" points="1479.83 588.36 1487.51 588.36 1487.51 580.68 1479.83 580.68 1472.15 580.68 1464.47 580.68 1464.47 588.36 1472.15 588.36 1479.83 588.36"/><polygon class="cls-1" points="1479.83 634.44 1487.51 634.44 1487.51 626.76 1479.83 626.76 1472.15 626.76 1464.47 626.76 1464.47 634.44 1472.15 634.44 1479.83 634.44"/><polygon class="cls-1" points="1502.87 626.76 1495.19 626.76 1495.19 634.44 1502.87 634.44 1510.55 634.44 1518.22 634.44 1518.22 626.76 1510.55 626.76 1502.87 626.76"/><polygon class="cls-1" points="1479.83 603.72 1487.51 603.72 1487.51 596.04 1479.83 596.04 1472.15 596.04 1464.47 596.04 1464.47 603.72 1472.15 603.72 1479.83 603.72"/><polygon class="cls-1" points="1502.87 596.04 1495.19 596.04 1495.19 603.72 1502.87 603.72 1510.55 603.72 1518.22 603.72 1518.22 596.04 1510.55 596.04 1502.87 596.04"/><polygon class="cls-1" points="1502.87 611.4 1495.19 611.4 1495.19 619.08 1502.87 619.08 1510.55 619.08 1518.22 619.08 1518.22 611.4 1510.55 611.4 1502.87 611.4"/><polygon class="cls-1" points="1502.87 580.68 1495.19 580.68 1495.19 588.36 1502.87 588.36 1510.55 588.36 1518.22 588.36 1518.22 580.68 1510.55 580.68 1502.87 580.68"/><rect class="cls-1" x="791.45" y="529.24" width="7.68" height="7.68"/><rect class="cls-1" x="706.98" y="483.16" width="7.68" height="7.68"/><rect class="cls-1" x="1160.06" y="506.2" width="7.68" height="7.68"/><rect class="cls-1" x="730.02" y="529.24" width="7.68" height="7.68"/><rect class="cls-1" x="683.94" y="559.96" width="7.68" height="7.68"/><rect class="cls-1" x="722.34" y="513.88" width="7.68" height="7.68"/><rect class="cls-1" x="722.34" y="483.16" width="7.68" height="7.68"/><rect class="cls-1" x="668.59" y="498.52" width="7.68" height="7.68"/><rect class="cls-1" x="683.94" y="529.24" width="7.68" height="7.68"/><rect class="cls-1" x="814.49" y="544.6" width="7.68" height="7.68"/><rect class="cls-1" x="668.59" y="529.24" width="7.68" height="7.68"/><rect class="cls-1" x="668.59" y="559.96" width="7.68" height="7.68"/><rect class="cls-1" x="799.13" y="544.6" width="7.68" height="7.68"/><rect class="cls-1" x="1137.02" y="559.96" width="7.68" height="7.68"/><rect class="cls-1" x="1129.34" y="521.56" width="7.68" height="7.68"/><rect class="cls-1" x="683.94" y="498.52" width="7.68" height="7.68"/><rect class="cls-1" x="1129.34" y="567.63" width="7.68" height="7.68"/><rect class="cls-1" x="1144.7" y="567.63" width="7.68" height="7.68"/><rect class="cls-1" x="1144.7" y="552.28" width="7.68" height="7.68"/><rect class="cls-1" x="1129.34" y="506.2" width="7.68" height="7.68"/><rect class="cls-1" x="1129.34" y="582.99" width="7.68" height="7.68"/><polygon class="cls-1" points="1137.02 544.6 1137.02 536.92 1129.34 536.92 1129.34 544.6 1129.34 552.28 1129.34 559.96 1137.02 559.96 1137.02 552.28 1137.02 544.6"/><path class="cls-3" d="M1525.91,688.21V573h-7.68v-7.68h-7.68v-7.68h-23V550h-7.68v-23h-7.68v23h-7.68v7.68h-23v7.68h-7.68V573h-7.68V688.21h-38.88v246.2h168.94V688.21Zm-61.43-61.45h23v7.68h-23Zm0-15.36h23v7.68h-23Zm0-15.36h23v7.68h-23Zm0-15.36h23v7.68h-23Zm53.75,53.75h-23v-7.68h23Zm0-15.36h-23V611.4h23Zm0-15.36h-23V596h23Zm0-15.36h-23v-7.68h23Zm-61.43-23h46.07V573h-53.76v-7.68Zm-23,15.36h23v7.68h-23Zm0,15.36h23v7.68h-23Zm0,15.36h23v7.68h-23Zm0,15.36h23v7.68h-23Z"/><rect class="cls-3" x="1487.51" y="511.57" width="7.68" height="7.68"/><rect class="cls-3" x="1479.83" y="519.25" width="7.68" height="7.68"/><rect class="cls-3" x="1464.47" y="519.25" width="7.68" height="7.68"/><rect class="cls-3" x="1456.79" y="511.57" width="7.68" height="7.68"/><path class="cls-3" d="M1183.1,598.35V483.16h-7.68v-7.68h-7.68v15.36h-46.08V475.48H1114v7.68h-7.68V600.48h-1v292h153.59v-292H1183.1ZM1129.34,583H1137v7.68h-7.68Zm0-15.36H1137V560h-7.68v-23H1137v23h7.68v-7.68h7.68V560h-7.68v7.68h7.68v7.68h-7.68v-7.68H1137v7.68h-7.68Zm0-46.07H1137v7.68h-7.68Zm0-15.36H1137v7.68h-7.68Zm38.4,7.68h-7.68V506.2h7.68Zm0,15.36h-7.68v-7.68h7.68Zm0,15.36h-7.68v-7.68h7.68Zm0,15.36h-7.68v-7.68h7.68Zm0,15.36h-7.68v-7.68h7.68Zm0,15.36h-7.68V583h7.68Zm-23-7.68h7.68v7.68h-7.68Zm0-46.08h7.68v7.68h-7.68Zm0-15.36h7.68v7.68h-7.68Zm7.68-7.68h-7.68V506.2h7.68ZM1114,506.2h7.68v7.68H1114Zm0,15.36h7.68v7.68H1114Zm0,15.36h7.68v7.68H1114Zm0,15.36h7.68V560H1114Zm0,15.36h7.68v7.68H1114Zm0,15.36h7.68v7.68H1114Z"/><rect class="cls-3" x="1160.06" y="467.8" width="7.68" height="7.68"/><rect class="cls-3" x="1152.38" y="460.12" width="7.68" height="7.68"/><rect class="cls-3" x="1129.34" y="460.12" width="7.68" height="7.68"/><rect class="cls-3" x="1121.66" y="467.8" width="7.68" height="7.68"/><path class="cls-3" d="M814.49,521.56H737.7V475.48H730V467.8h-7.68v-7.68h-7.68v-7.68H707v-7.68H691.62v7.68h-7.68v7.68h-7.68v7.68h-7.68v7.68h-7.68v98h0V896H829.85V575.32h0V521.56H814.49Zm0,7.68v7.68h-7.68v-7.68Zm0,38.4h-7.68V560h7.68Zm-138.23-23h7.68v7.68h-7.68Zm0-30.72h7.68v7.68h-7.68Zm0-30.72h7.68v7.68h-7.68Zm46.07,23h-7.68v-7.68h7.68Zm76.79,61.43h-7.68V560h7.68Zm-107.51-23h7.68v7.68h-7.68Zm0-30.72h7.68v7.68h-7.68Zm0-30.72h7.68v7.68h-7.68Zm7.68,15.36H707v7.68H699.3Zm0,30.72H707v7.68H699.3Zm15.36,23H707V544.6h7.68ZM699.3,560H707v7.68H699.3Zm15.36,0h7.68v7.68h-7.68ZM730,560h7.68v7.68H730Zm61.43-7.68h-7.68V544.6h7.68Zm-61.43,0h-7.68V544.6H730Zm-7.68-15.36h-7.68v-7.68h7.68Zm-7.68-15.36H707v-7.68h7.68Zm0-30.72H707v-7.68h7.68Zm-30.72,7.68h7.68v7.68h-7.68Zm0,30.72h7.68v7.68h-7.68Zm0,30.72h7.68v7.68h-7.68Zm122.87-7.68h-7.68V544.6h7.68Zm-7.68-23v7.68h-7.68v-7.68Zm-61.43,7.68H730v-7.68h7.68ZM730,521.56h-7.68v-7.68H730Zm0-30.72h-7.68v-7.68H730Zm-61.43,7.68h7.68v7.68h-7.68Zm0,30.72h7.68v7.68h-7.68Zm0,30.72h7.68v7.68h-7.68Zm153.58-7.68h-7.68V544.6h7.68Z"/><path class="cls-3" d="M399.81,560V467.8H384.45v-7.68H369.1v-7.68H353.74v-7.68h-7.68V414.05h-7.68v30.72H330.7V567.63h.2v21.13H246.23v-121h-7.68v-7.68H207.83v-23h-7.68v23h-23v7.68h-7.68v121h0V911.26H399.81V888.85h98.12V566.36H399.81ZM353.74,544.6h7.68v7.68h-7.68Zm0-15.36h7.68v7.68h-7.68Zm0-15.36h7.68v7.68h-7.68Zm0-15.36h7.68v7.68h-7.68Zm23-7.68H369.1v-7.68h7.68Zm0,15.36H369.1v-7.68h7.68Zm0,15.36H369.1v-7.68h7.68Zm0,15.36H369.1v-7.68h7.68Zm0,15.36H369.1V544.6h7.68Zm-23-69.11h7.68v7.68h-7.68Zm38.4,69.11h-7.68V544.6h7.68Zm0-15.36h-7.68v-7.68h7.68Zm0-15.36h-7.68v-7.68h7.68Zm0-15.36h-7.68v-7.68h7.68Zm0-15.36h-7.68v-7.68h7.68Zm-53.76-7.68h7.68v7.68h-7.68Zm0,15.36h7.68v7.68h-7.68Zm0,15.36h7.68v7.68h-7.68Zm0,15.36h7.68v7.68h-7.68Zm0,15.36h7.68v7.68h-7.68ZM192.47,575.32h7.68V583h-7.68Zm0-15.36h7.68v7.68h-7.68Zm0-15.36h7.68v7.68h-7.68Zm0-15.36h7.68v7.68h-7.68Zm0-15.36h7.68v7.68h-7.68Zm0-15.36h7.68v7.68h-7.68Zm38.4-7.68h-7.68v-7.68h7.68Zm0,15.36h-7.68v-7.68h7.68Zm0,15.36h-7.68v-7.68h7.68Zm0,15.36h-7.68v-7.68h7.68Zm0,15.36h-7.68V544.6h7.68Zm0,15.36h-7.68V560h7.68Zm0,15.36h-7.68v-7.68h7.68Zm-38.4-99.83h7.68v7.68h-7.68Zm-15.36,0h7.68v7.68h-7.68Zm0,15.36h7.68v7.68h-7.68Zm0,15.36h7.68v7.68h-7.68Zm0,15.36h7.68v7.68h-7.68Zm0,15.36h7.68v7.68h-7.68Zm0,15.36h7.68v7.68h-7.68Zm0,15.36h7.68V583h-7.68Z"/><path class="cls-3" d="M1032.24,735.13V619.92h-7.68v-7.68h-7.68v-7.68h-23v-7.68h-7.68v-23h-7.68v23h-7.68v7.68h-23v7.68h-7.68v7.68h-7.68V735.13H893.53V934.41h168.94V735.13Zm-61.43-61.45h23v7.68h-23Zm0-15.36h23V666h-23Zm0-15.36h23v7.68h-23Zm0-15.36h23v7.68h-23Zm53.75,53.75h-23v-7.68h23Zm0-15.36h-23v-7.68h23Zm0-15.36h-23V643h23Zm0-15.36h-23V627.6h23Zm-61.43-23h46.07v7.68H955.45v-7.68Zm-23,15.36h23v7.68h-23Zm0,15.36h23v7.68h-23Zm0,15.36h23V666h-23Zm0,15.36h23v7.68h-23Z"/><polygon class="cls-1" points="793.7 597.46 801.38 597.46 809.05 597.46 809.05 589.78 801.38 589.78 793.7 589.78 786.02 589.78 778.34 589.78 778.34 597.46 786.02 597.46 793.7 597.46"/><polygon class="cls-1" points="793.7 574.42 801.38 574.42 809.05 574.42 809.05 566.74 801.38 566.74 793.7 566.74 786.02 566.74 778.34 566.74 778.34 574.42 786.02 574.42 793.7 574.42"/><polygon class="cls-1" points="755.3 597.46 762.98 597.46 770.66 597.46 770.66 589.78 762.98 589.78 755.3 589.78 747.62 589.78 739.94 589.78 739.94 597.46 747.62 597.46 755.3 597.46"/><polygon class="cls-1" points="793.7 620.5 801.38 620.5 809.05 620.5 809.05 612.82 801.38 612.82 793.7 612.82 786.02 612.82 778.34 612.82 778.34 620.5 786.02 620.5 793.7 620.5"/><polygon class="cls-1" points="870.49 681.93 862.81 681.93 855.13 681.93 855.13 689.61 862.81 689.61 870.49 689.61 878.17 689.61 885.85 689.61 885.85 681.93 878.17 681.93 870.49 681.93"/><polygon class="cls-1" points="793.7 666.57 801.38 666.57 809.05 666.57 809.05 658.89 801.38 658.89 793.7 658.89 786.02 658.89 778.34 658.89 778.34 666.57 786.02 666.57 793.7 666.57"/><polygon class="cls-1" points="793.7 643.54 801.38 643.54 809.05 643.54 809.05 635.86 801.38 635.86 793.7 635.86 786.02 635.86 778.34 635.86 778.34 643.54 786.02 643.54 793.7 643.54"/><polygon class="cls-1" points="870.49 589.78 862.81 589.78 855.13 589.78 855.13 597.46 862.81 597.46 870.49 597.46 878.17 597.46 885.85 597.46 885.85 589.78 878.17 589.78 870.49 589.78"/><polygon class="cls-1" points="716.9 597.46 724.59 597.46 732.26 597.46 732.26 589.78 724.59 589.78 716.9 589.78 709.23 589.78 701.55 589.78 701.55 597.46 709.23 597.46 716.9 597.46"/><polygon class="cls-1" points="870.49 658.89 862.81 658.89 855.13 658.89 855.13 666.57 862.81 666.57 870.49 666.57 878.17 666.57 885.85 666.57 885.85 658.89 878.17 658.89 870.49 658.89"/><polygon class="cls-1" points="716.9 620.5 724.59 620.5 732.26 620.5 732.26 612.82 724.59 612.82 716.9 612.82 709.23 612.82 701.55 612.82 701.55 620.5 709.23 620.5 716.9 620.5"/><polygon class="cls-1" points="870.49 566.74 862.81 566.74 855.13 566.74 855.13 574.42 862.81 574.42 870.49 574.42 878.17 574.42 885.85 574.42 885.85 566.74 878.17 566.74 870.49 566.74"/><polygon class="cls-1" points="793.7 689.61 801.38 689.61 809.05 689.61 809.05 681.93 801.38 681.93 793.7 681.93 786.02 681.93 778.34 681.93 778.34 689.61 786.02 689.61 793.7 689.61"/><polygon class="cls-1" points="870.49 635.86 862.81 635.86 855.13 635.86 855.13 643.54 862.81 643.54 870.49 643.54 878.17 643.54 885.85 643.54 885.85 635.86 878.17 635.86 870.49 635.86"/><polygon class="cls-1" points="993.36 720.33 1001.04 720.33 1001.04 712.65 1001.04 704.97 993.36 704.97 993.36 712.65 993.36 720.33"/><polygon class="cls-1" points="832.09 681.93 824.41 681.93 816.73 681.93 816.73 689.61 824.41 689.61 832.09 689.61 839.77 689.61 847.45 689.61 847.45 681.93 839.77 681.93 832.09 681.93"/><polygon class="cls-1" points="755.3 689.61 762.98 689.61 770.66 689.61 770.66 681.93 762.98 681.93 755.3 681.93 747.62 681.93 739.94 681.93 739.94 689.61 747.62 689.61 755.3 689.61"/><polygon class="cls-1" points="755.3 643.54 762.98 643.54 770.66 643.54 770.66 635.86 762.98 635.86 755.3 635.86 747.62 635.86 739.94 635.86 739.94 643.54 747.62 643.54 755.3 643.54"/><polygon class="cls-1" points="755.3 666.57 762.98 666.57 770.66 666.57 770.66 658.89 762.98 658.89 755.3 658.89 747.62 658.89 739.94 658.89 739.94 666.57 747.62 666.57 755.3 666.57"/><polygon class="cls-1" points="755.3 574.42 762.98 574.42 770.66 574.42 770.66 566.74 762.98 566.74 755.3 566.74 747.62 566.74 739.94 566.74 739.94 574.42 747.62 574.42 755.3 574.42"/><polygon class="cls-1" points="1016.39 720.33 1024.07 720.33 1024.07 712.65 1024.07 704.97 1016.39 704.97 1016.39 712.65 1016.39 720.33"/><polygon class="cls-1" points="709.23 574.42 716.9 574.42 724.59 574.42 732.26 574.42 732.26 566.74 724.59 566.74 716.9 566.74 709.23 566.74 701.55 566.74 701.55 574.42 709.23 574.42"/><polygon class="cls-1" points="1062.47 720.33 1070.15 720.33 1070.15 712.65 1070.15 704.97 1062.47 704.97 1062.47 712.65 1062.47 720.33"/><polygon class="cls-1" points="832.09 612.82 824.41 612.82 816.73 612.82 816.73 620.5 824.41 620.5 832.09 620.5 839.77 620.5 847.45 620.5 847.45 612.82 839.77 612.82 832.09 612.82"/><polygon class="cls-1" points="832.09 635.86 824.41 635.86 816.73 635.86 816.73 643.54 824.41 643.54 832.09 643.54 839.77 643.54 847.45 643.54 847.45 635.86 839.77 635.86 832.09 635.86"/><polygon class="cls-1" points="832.09 658.89 824.41 658.89 816.73 658.89 816.73 666.57 824.41 666.57 832.09 666.57 839.77 666.57 847.45 666.57 847.45 658.89 839.77 658.89 832.09 658.89"/><polygon class="cls-1" points="716.9 643.54 724.59 643.54 732.26 643.54 732.26 635.86 724.59 635.86 716.9 635.86 709.23 635.86 701.55 635.86 701.55 643.54 709.23 643.54 716.9 643.54"/><polygon class="cls-1" points="832.09 589.78 824.41 589.78 816.73 589.78 816.73 597.46 824.41 597.46 832.09 597.46 839.77 597.46 847.45 597.46 847.45 589.78 839.77 589.78 832.09 589.78"/><polygon class="cls-1" points="832.09 566.74 824.41 566.74 816.73 566.74 816.73 574.42 824.41 574.42 832.09 574.42 839.77 574.42 847.45 574.42 847.45 566.74 839.77 566.74 832.09 566.74"/><polygon class="cls-1" points="755.3 620.5 762.98 620.5 770.66 620.5 770.66 612.82 762.98 612.82 755.3 612.82 747.62 612.82 739.94 612.82 739.94 620.5 747.62 620.5 755.3 620.5"/><polygon class="cls-1" points="870.49 612.82 862.81 612.82 855.13 612.82 855.13 620.5 862.81 620.5 870.49 620.5 878.17 620.5 885.85 620.5 885.85 612.82 878.17 612.82 870.49 612.82"/><polygon class="cls-1" points="309.9 704.97 309.9 712.65 309.9 720.33 317.58 720.33 317.58 712.65 317.58 704.97 317.58 697.29 309.9 697.29 309.9 704.97"/><polygon class="cls-1" points="309.9 658.89 309.9 666.57 309.9 674.25 317.58 674.25 317.58 666.57 317.58 658.89 317.58 651.22 309.9 651.22 309.9 658.89"/><polygon class="cls-1" points="309.9 612.82 309.9 620.5 309.9 628.18 317.58 628.18 317.58 620.5 317.58 612.82 317.58 605.14 309.9 605.14 309.9 612.82"/><polygon class="cls-1" points="716.9 666.57 724.59 666.57 732.26 666.57 732.26 658.89 724.59 658.89 716.9 658.89 709.23 658.89 701.55 658.89 701.55 666.57 709.23 666.57 716.9 666.57"/><polygon class="cls-1" points="294.55 666.57 294.55 658.89 294.55 651.22 286.87 651.22 286.87 658.89 286.87 666.57 286.87 674.25 294.55 674.25 294.55 666.57"/><polygon class="cls-1" points="271.51 666.57 271.51 658.89 271.51 651.22 263.83 651.22 263.83 658.89 263.83 666.57 263.83 674.25 271.51 674.25 271.51 666.57"/><polygon class="cls-1" points="294.55 712.65 294.55 704.97 294.55 697.29 286.87 697.29 286.87 704.97 286.87 712.65 286.87 720.33 294.55 720.33 294.55 712.65"/><polygon class="cls-1" points="309.9 751.04 309.9 758.72 309.9 766.4 317.58 766.4 317.58 758.72 317.58 751.04 317.58 743.37 309.9 743.37 309.9 751.04"/><polygon class="cls-1" points="332.94 658.89 332.94 666.57 332.94 674.25 340.62 674.25 340.62 666.57 340.62 658.89 340.62 651.22 332.94 651.22 332.94 658.89"/><polygon class="cls-1" points="271.51 712.65 271.51 704.97 271.51 697.29 263.83 697.29 263.83 704.97 263.83 712.65 263.83 720.33 271.51 720.33 271.51 712.65"/><polygon class="cls-1" points="332.94 612.82 332.94 620.5 332.94 628.18 340.62 628.18 340.62 620.5 340.62 612.82 340.62 605.14 332.94 605.14 332.94 612.82"/><polygon class="cls-1" points="271.51 758.72 271.51 751.04 271.51 743.37 263.83 743.37 263.83 751.04 263.83 758.72 263.83 766.4 271.51 766.4 271.51 758.72"/><polygon class="cls-1" points="332.94 751.04 332.94 758.72 332.94 766.4 340.62 766.4 340.62 758.72 340.62 751.04 340.62 743.37 332.94 743.37 332.94 751.04"/><polygon class="cls-1" points="332.94 704.97 332.94 712.65 332.94 720.33 340.62 720.33 340.62 712.65 340.62 704.97 340.62 697.29 332.94 697.29 332.94 704.97"/><polygon class="cls-1" points="294.55 758.72 294.55 751.04 294.55 743.37 286.87 743.37 286.87 751.04 286.87 758.72 286.87 766.4 294.55 766.4 294.55 758.72"/><polygon class="cls-1" points="286.87 612.82 286.87 620.5 286.87 628.18 294.55 628.18 294.55 620.5 294.55 612.82 294.55 605.14 286.87 605.14 286.87 612.82"/><polygon class="cls-1" points="1177.66 559.06 1177.66 551.38 1177.66 543.71 1169.98 543.71 1169.98 551.38 1169.98 559.06 1169.98 566.74 1177.66 566.74 1177.66 559.06"/><polygon class="cls-1" points="355.98 658.89 355.98 666.57 355.98 674.25 363.66 674.25 363.66 666.57 363.66 658.89 363.66 651.22 355.98 651.22 355.98 658.89"/><polygon class="cls-1" points="1216.06 551.38 1216.06 559.06 1216.06 566.74 1223.73 566.74 1223.73 559.06 1223.73 551.38 1223.73 543.71 1216.06 543.71 1216.06 551.38"/><polygon class="cls-1" points="716.9 689.61 724.59 689.61 732.26 689.61 732.26 681.93 724.59 681.93 716.9 681.93 709.23 681.93 701.55 681.93 701.55 689.61 709.23 689.61 716.9 689.61"/><polygon class="cls-1" points="1200.7 559.06 1200.7 551.38 1200.7 543.71 1193.02 543.71 1193.02 551.38 1193.02 559.06 1193.02 566.74 1200.7 566.74 1200.7 559.06"/><polygon class="cls-1" points="355.98 704.97 355.98 712.65 355.98 720.33 363.66 720.33 363.66 712.65 363.66 704.97 363.66 697.29 355.98 697.29 355.98 704.97"/><polygon class="cls-1" points="355.98 612.82 355.98 620.5 355.98 628.18 363.66 628.18 363.66 620.5 363.66 612.82 363.66 605.14 355.98 605.14 355.98 612.82"/><polygon class="cls-1" points="248.47 620.5 248.47 612.82 248.47 605.14 240.79 605.14 240.79 612.82 240.79 620.5 240.79 628.18 248.47 628.18 248.47 620.5"/><polygon class="cls-1" points="263.83 620.5 263.83 628.18 271.51 628.18 271.51 620.5 271.51 612.82 271.51 605.14 263.83 605.14 263.83 612.82 263.83 620.5"/><polygon class="cls-1" points="248.47 666.57 248.47 658.89 248.47 651.22 240.79 651.22 240.79 658.89 240.79 666.57 240.79 674.25 248.47 674.25 248.47 666.57"/><polygon class="cls-1" points="248.47 758.72 248.47 751.04 248.47 743.37 240.79 743.37 240.79 751.04 240.79 758.72 240.79 766.4 248.47 766.4 248.47 758.72"/><polygon class="cls-1" points="355.98 751.04 355.98 758.72 355.98 766.4 363.66 766.4 363.66 758.72 363.66 751.04 363.66 743.37 355.98 743.37 355.98 751.04"/><polygon class="cls-1" points="248.47 712.65 248.47 704.97 248.47 697.29 240.79 697.29 240.79 704.97 240.79 712.65 240.79 720.33 248.47 720.33 248.47 712.65"/><polygon class="cls-1" points="1039.43 720.33 1047.11 720.33 1047.11 712.65 1047.11 704.97 1039.43 704.97 1039.43 712.65 1039.43 720.33"/><rect class="cls-1" x="1684.49" y="474.59" width="7.68" height="7.68"/><rect class="cls-1" x="1661.45" y="474.59" width="7.68" height="7.68"/><rect class="cls-1" x="1669.13" y="466.91" width="7.68" height="7.68"/><rect class="cls-1" x="1692.17" y="466.91" width="7.68" height="7.68"/><rect class="cls-1" x="1730.57" y="474.59" width="7.68" height="7.68"/><rect class="cls-1" x="1707.53" y="474.59" width="7.68" height="7.68"/><polygon class="cls-1" points="1630.74 474.59 1630.74 466.91 1623.06 466.91 1615.38 466.91 1607.7 466.91 1607.7 474.59 1607.7 482.27 1615.38 482.27 1615.38 489.95 1623.06 489.95 1630.74 489.95 1630.74 482.27 1630.74 474.59"/><polygon class="cls-1" points="1607.7 536.02 1607.7 528.35 1615.38 528.35 1615.38 520.67 1607.7 520.67 1600.02 520.67 1592.34 520.67 1592.34 528.35 1592.34 536.02 1592.34 543.71 1600.02 543.71 1600.02 536.02 1607.7 536.02"/><polygon class="cls-1" points="1615.38 536.02 1607.7 536.02 1607.7 543.71 1600.02 543.71 1600.02 551.38 1607.7 551.38 1615.38 551.38 1623.06 551.38 1623.06 543.71 1623.06 536.02 1623.06 528.35 1615.38 528.35 1615.38 536.02"/><rect class="cls-1" x="1646.1" y="466.91" width="7.68" height="7.68"/><polygon class="cls-1" points="1615.38 574.42 1607.7 574.42 1607.7 582.1 1600.02 582.1 1600.02 589.78 1607.7 589.78 1615.38 589.78 1623.06 589.78 1623.06 582.1 1623.06 574.42 1623.06 566.74 1615.38 566.74 1615.38 574.42"/><rect class="cls-1" x="1738.25" y="466.91" width="7.68" height="7.68"/><rect class="cls-1" x="1638.42" y="474.59" width="7.68" height="7.68"/><polygon class="cls-1" points="1830.4 597.46 1822.72 597.46 1822.72 605.14 1822.72 612.82 1822.72 620.5 1822.72 628.18 1830.4 628.18 1838.08 628.18 1845.76 628.18 1845.76 620.5 1845.76 612.82 1845.76 605.14 1845.76 597.46 1838.08 597.46 1830.4 597.46"/><polygon class="cls-1" points="1822.72 574.42 1822.72 582.1 1822.72 589.78 1830.4 589.78 1838.08 589.78 1845.76 589.78 1845.76 582.1 1845.76 574.42 1845.76 566.74 1845.76 559.06 1838.08 559.06 1830.4 559.06 1822.72 559.06 1822.72 566.74 1822.72 574.42"/><polygon class="cls-1" points="1853.43 574.42 1853.43 582.1 1853.43 589.78 1861.11 589.78 1868.8 589.78 1876.47 589.78 1876.47 582.1 1876.47 574.42 1876.47 566.74 1876.47 559.06 1868.8 559.06 1861.11 559.06 1853.43 559.06 1853.43 566.74 1853.43 574.42"/><polygon class="cls-1" points="1792 574.42 1792 582.1 1792 589.78 1799.68 589.78 1807.36 589.78 1815.04 589.78 1815.04 582.1 1815.04 574.42 1815.04 566.74 1815.04 559.06 1807.36 559.06 1799.68 559.06 1792 559.06 1792 566.74 1792 574.42"/><polygon class="cls-1" points="970.32 720.33 978 720.33 978 712.65 978 704.97 970.32 704.97 970.32 712.65 970.32 720.33"/><polygon class="cls-1" points="1861.11 597.46 1853.43 597.46 1853.43 605.14 1853.43 612.82 1853.43 620.5 1853.43 628.18 1861.11 628.18 1868.8 628.18 1876.47 628.18 1876.47 620.5 1876.47 612.82 1876.47 605.14 1876.47 597.46 1868.8 597.46 1861.11 597.46"/><rect class="cls-1" x="1761.28" y="466.91" width="7.68" height="7.68"/><polygon class="cls-1" points="1830.4 635.86 1822.72 635.86 1822.72 643.54 1822.72 651.22 1822.72 658.89 1822.72 666.57 1830.4 666.57 1838.08 666.57 1845.76 666.57 1845.76 658.89 1845.76 651.22 1845.76 643.54 1845.76 635.86 1838.08 635.86 1830.4 635.86"/><polygon class="cls-1" points="1607.7 574.42 1607.7 566.74 1615.38 566.74 1615.38 559.06 1607.7 559.06 1600.02 559.06 1592.34 559.06 1592.34 566.74 1592.34 574.42 1592.34 582.1 1600.02 582.1 1600.02 574.42 1607.7 574.42"/><rect class="cls-1" x="1753.6" y="474.59" width="7.68" height="7.68"/><polygon class="cls-1" points="1861.11 635.86 1853.43 635.86 1853.43 643.54 1853.43 651.22 1853.43 658.89 1853.43 666.57 1861.11 666.57 1868.8 666.57 1876.47 666.57 1876.47 658.89 1876.47 651.22 1876.47 643.54 1876.47 635.86 1868.8 635.86 1861.11 635.86"/><polygon class="cls-1" points="1799.68 597.46 1792 597.46 1792 605.14 1792 612.82 1792 620.5 1792 628.18 1799.68 628.18 1807.36 628.18 1815.04 628.18 1815.04 620.5 1815.04 612.82 1815.04 605.14 1815.04 597.46 1807.36 597.46 1799.68 597.46"/><polygon class="cls-1" points="1807.36 666.57 1815.04 666.57 1815.04 658.89 1815.04 651.22 1815.04 643.54 1815.04 635.86 1807.36 635.86 1799.68 635.86 1792 635.86 1792 643.54 1792 651.22 1792 658.89 1792 666.57 1799.68 666.57 1807.36 666.57"/><rect class="cls-1" x="1715.21" y="466.91" width="7.68" height="7.68"/><polygon class="cls-1" points="1361.96 543.71 1361.96 536.02 1354.28 536.02 1354.28 543.71 1354.28 551.38 1361.96 551.38 1361.96 543.71"/><polygon class="cls-1" points="1369.64 551.38 1377.32 551.38 1377.32 543.71 1377.32 536.02 1369.64 536.02 1369.64 543.71 1369.64 551.38"/><polygon class="cls-1" points="1354.28 582.1 1354.28 574.42 1354.28 566.74 1346.6 566.74 1338.92 566.74 1338.92 574.42 1338.92 582.1 1346.6 582.1 1354.28 582.1"/><polygon class="cls-1" points="1385 551.38 1392.68 551.38 1392.68 543.71 1392.68 536.02 1385 536.02 1385 543.71 1385 551.38"/><polygon class="cls-1" points="1354.28 605.14 1354.28 597.46 1354.28 589.78 1346.6 589.78 1338.92 589.78 1338.92 597.46 1338.92 605.14 1346.6 605.14 1354.28 605.14"/><polygon class="cls-1" points="1354.28 674.25 1354.28 666.57 1354.28 658.89 1346.6 658.89 1338.92 658.89 1338.92 666.57 1338.92 674.25 1346.6 674.25 1354.28 674.25"/><polygon class="cls-1" points="1354.28 681.93 1346.6 681.93 1338.92 681.93 1338.92 689.61 1338.92 697.29 1346.6 697.29 1354.28 697.29 1354.28 689.61 1354.28 681.93"/><polygon class="cls-1" points="1354.28 651.22 1354.28 643.54 1354.28 635.86 1346.6 635.86 1338.92 635.86 1338.92 643.54 1338.92 651.22 1346.6 651.22 1354.28 651.22"/><polygon class="cls-1" points="1377.32 674.25 1377.32 666.57 1377.32 658.89 1369.64 658.89 1361.96 658.89 1361.96 666.57 1361.96 674.25 1369.64 674.25 1377.32 674.25"/><polygon class="cls-1" points="924.25 720.33 931.92 720.33 931.92 712.65 931.92 704.97 924.25 704.97 924.25 712.65 924.25 720.33"/><polygon class="cls-1" points="947.28 720.33 954.96 720.33 954.96 712.65 954.96 704.97 947.28 704.97 947.28 712.65 947.28 720.33"/><polygon class="cls-1" points="1377.32 651.22 1377.32 643.54 1377.32 635.86 1369.64 635.86 1361.96 635.86 1361.96 643.54 1361.96 651.22 1369.64 651.22 1377.32 651.22"/><polygon class="cls-1" points="1377.32 605.14 1377.32 597.46 1377.32 589.78 1369.64 589.78 1361.96 589.78 1361.96 597.46 1361.96 605.14 1369.64 605.14 1377.32 605.14"/><polygon class="cls-1" points="1377.32 628.18 1377.32 620.5 1377.32 612.82 1369.64 612.82 1361.96 612.82 1361.96 620.5 1361.96 628.18 1369.64 628.18 1377.32 628.18"/><polygon class="cls-1" points="1377.32 582.1 1377.32 574.42 1377.32 566.74 1369.64 566.74 1361.96 566.74 1361.96 574.42 1361.96 582.1 1369.64 582.1 1377.32 582.1"/><polygon class="cls-1" points="1354.28 628.18 1354.28 620.5 1354.28 612.82 1346.6 612.82 1338.92 612.82 1338.92 620.5 1338.92 628.18 1346.6 628.18 1354.28 628.18"/><polygon class="cls-1" points="1377.32 681.93 1369.64 681.93 1361.96 681.93 1361.96 689.61 1361.96 697.29 1369.64 697.29 1377.32 697.29 1377.32 689.61 1377.32 681.93"/><polygon class="cls-1" points="1607.7 612.82 1607.7 620.5 1600.02 620.5 1600.02 628.18 1607.7 628.18 1615.38 628.18 1623.06 628.18 1623.06 620.5 1623.06 612.82 1623.06 605.14 1615.38 605.14 1615.38 612.82 1607.7 612.82"/><polygon class="cls-1" points="1600.02 612.82 1607.7 612.82 1607.7 605.14 1615.38 605.14 1615.38 597.46 1607.7 597.46 1600.02 597.46 1592.34 597.46 1592.34 605.14 1592.34 612.82 1592.34 620.5 1600.02 620.5 1600.02 612.82"/><path class="cls-4" d="M1331.15,758.76h-34V695.38h-58.27V582.1h.2V528.35h-7.68v-7.68h-7.68V513h-7.68v-7.68h-7.68v-7.68h-7.68v-23h7.68v-7.68h-7.68V451.55H1193v15.36h-7.68v7.68H1193v23h-7.68v7.68h-7.68V513H1170v7.68h-7.68v7.68h-7.68V582.1h.49V758.76H908.89V728h184.3V712.65h-7.68V705h-7.68v-7.68H908.89V551.38H893.53V536H755.3V513H763v-7.68H755.3v-7.68h-7.68v7.68h-7.68V513h7.68v23H693.87v15.36H678.51V873.91h61.6v53.72h473.27v8.81h83.78v-8.81h57V873.91h61.7V705h-84.67ZM1170,559.06V543.71h7.68v23H1170Zm53.75-7.68v15.36h-7.68v-23h7.68ZM1193,559.06V543.71h7.68v23H1193ZM701.55,681.93h30.72v7.68H701.55Zm0-23h30.72v7.68H701.55Zm0-23h30.72v7.68H701.55Zm0-23h30.72v7.68H701.55Zm0-23h30.72v7.68H701.55Zm184.3-15.36H855.13v-7.68h30.72Zm0,23H855.13v-7.68h30.72Zm0,23H855.13v-7.68h30.72Zm0,23H855.13v-7.68h30.72Zm0,23H855.13v-7.68h30.72Zm0,23H855.13v-7.68h30.72ZM739.94,589.78h30.72v7.68H739.94Zm38.4-23h30.72v7.68H778.34Zm0,23h30.72v7.68H778.34Zm0,23h30.72v7.68H778.34Zm0,23h30.72v7.68H778.34Zm0,23h30.72v7.68H778.34Zm0,23h30.72v7.68H778.34Zm69.11,7.68H816.73v-7.68h30.72Zm0-23H816.73v-7.68h30.72Zm0-23H816.73v-7.68h30.72Zm0-23H816.73v-7.68h30.72Zm0-23H816.73v-7.68h30.72Zm0-23H816.73v-7.68h30.72Zm-107.51,38.4h30.72v7.68H739.94Zm0,23h30.72v7.68H739.94Zm0,23h30.72v7.68H739.94Zm0,23h30.72v7.68H739.94Zm0-115.19h30.72v7.68H739.94Zm-30.72,0h23v7.68H701.55v-7.68ZM1070.15,705v15.36h-7.68V705Zm-23,0v15.36h-7.68V705Zm-23,0v15.36h-7.68V705Zm-23,0v15.36h-7.68V705Zm-23,0v15.36h-7.68V705Zm-23,0v15.36h-7.68V705Zm-23,0v15.36h-7.68V705Z"/><path class="cls-4" d="M1772.64,674.25V551.38h-23V520.67h-7.68v30.72h-30.72v-23h-23v23h-30.72V674.25h.08v207.3h115.11V674.25Zm-38.4-69.11v23h-23V597.46h23Zm0,38.4v23h-23V635.85h23Zm-53.76,15.36v-23h23v30.72h-23Zm23-53.76v23h-23V597.46h23Zm61.43,38.4v23h-23V635.85h23Zm0-38.4v23h-23V597.46h23Zm-15.36-46.07H1765v30.72h-23V559.06Zm-30.72,0h15.36v30.72h-23V559.06Zm-30.71,0h15.36v30.72h-23V559.06Z"/><path class="cls-5" d="M1769,505.31v23h-7.68v15.36h23V528.35h-7.68V482.27h7.68V466.91h-7.68v-7.68h-184.3V428.52h-7.68v30.72H1577V513h7.68V620.5h7.68v-23h23v7.68h7.68v23h-23V620.5h-7.68v7.68h-7.68v7.68h.16V944.94h45.77V635.85h.16V513h7.68v-23H1769v15.36Zm-145.91,69.11v15.36h-23V582.1h-7.68v-23h23v7.68h7.68Zm0-38.4v15.36h-23v-7.68h-7.68v-23h23v7.68h7.68Zm0-46.07h-7.68v-7.68h-7.68V466.91h23v23Zm15.36-7.68v-7.68h7.68v-7.68h7.68v7.68h-7.68v7.68Zm23,0v-7.68h7.68v-7.68h7.68v7.68h-7.68v7.68Zm23,0v-7.68h7.68v-7.68h7.68v7.68h-7.68v7.68Zm23,0v-7.68h7.68v-7.68h7.68v7.68h-7.68v7.68Zm23,0v-7.68h7.68v-7.68h7.68v7.68h-7.68v7.68Zm23,0v-7.68h7.68v-7.68H1769v7.68h-7.68v7.68Z"/><rect class="cls-5" x="1607.7" y="605.14" width="7.68" height="7.68"/><rect class="cls-5" x="1607.7" y="566.74" width="7.68" height="7.68"/><rect class="cls-5" x="1607.7" y="528.35" width="7.68" height="7.68"/><rect class="cls-5" x="1600.02" y="612.82" width="7.68" height="7.68"/><rect class="cls-5" x="1600.02" y="574.42" width="7.68" height="7.68"/><rect class="cls-5" x="1600.02" y="536.02" width="7.68" height="7.68"/><rect class="cls-4" x="1423.4" y="536.02" width="7.68" height="7.68"/><rect class="cls-4" x="1415.72" y="543.71" width="7.68" height="7.68"/><path class="cls-4" d="M1400.36,551.38v-23H1346.6v23h-15.36V705h84.47V551.38h-15.36ZM1362,666.57v-7.68h15.36v15.36H1362Zm0-23v-7.68h15.36v15.36H1362Zm0-23v-7.68h15.36v15.36H1362Zm0-23v-7.68h15.36v15.36H1362Zm0-23v-7.68h15.36V582.1H1362Zm30.71-38.4v15.36H1385V536Zm-15.36,0v15.36h-7.68V536Zm-23,7.68V536H1362v15.36h-7.68Zm-15.36,30.72v-7.68h15.36V582.1h-15.36Zm0,23v-7.68h15.36v15.36h-15.36Zm0,23v-7.68h15.36v15.36h-15.36Zm0,23v-7.68h15.36v15.36h-15.36Zm0,23v-7.68h15.36v15.36h-15.36Zm7.68,30.72h-7.68V681.93h15.36v15.36Zm23,0H1362V681.93h15.36v15.36Z"/><rect class="cls-4" x="1323.57" y="543.71" width="7.68" height="7.68"/><rect class="cls-4" x="1315.89" y="536.02" width="7.68" height="7.68"/><rect class="cls-4" x="762.98" y="497.63" width="7.68" height="7.68"/><rect class="cls-4" x="732.26" y="497.63" width="7.68" height="7.68"/><path class="cls-4" d="M464.31,589.78H395.2v-23h7.68v-7.68h-23v7.68h-7.68v7.68h-7.68v15.36h-23V873.91H479.67V589.78H464.31Zm-15.36,23v15.36h-7.68v-23H449Zm0,46.07v15.36h-7.68v-23H449ZM449,705v15.36h-7.68v-23H449ZM449,751V766.4h-7.68v-23H449Zm-76.79,7.68V743.37h7.68v23h-7.68Zm0-46.07V697.29h7.68v23h-7.68Zm0-46.08V651.21h7.68v23h-7.68Zm53.75-7.68v15.36h-7.68v-23h7.68Zm0,46.07v15.36h-7.68v-23h7.68Zm0,46.08V766.4h-7.68v-23h7.68Zm-30.71,7.68V743.37h7.68v23H395.2Zm0-46.07V697.29h7.68v23H395.2Zm0-46.08V651.21h7.68v23H395.2Zm30.71-53.75v15.36h-7.68v-23h7.68Zm-23,0v15.36H395.2v-23h7.68Zm-23-7.68v23h-7.68v-23ZM349.12,620.5V605.14h7.68v23h-7.68Zm0,46.07V651.21h7.68v23h-7.68Zm0,46.08V697.29h7.68v23h-7.68Zm0,46.07V743.37h7.68v23h-7.68ZM472,751V766.4h-7.68v-23H472ZM472,705v15.36h-7.68v-23H472Zm0-46.07v15.36h-7.68v-23H472Zm0-46.07v15.36h-7.68v-23H472Z"/><rect class="cls-5" x="1584.65" y="617.01" width="7.69" height="45.85"/><path class="cls-4" d="M123.36,750.73V941.19H238.47V750.73h.08V627.86H207.83v-23h-23v23H154.08V597.14H146.4v30.72h-23V750.73Zm38.4-76.79h23v30.72h-23V673.93Zm0,38.4h23V743h-23V712.33ZM215.51,743h-23V712.33h23V743Zm-23-69.11h23v30.72h-23V673.93ZM131,712.33h23V743H131V712.33Zm0-38.4h23v30.72H131V673.93Zm23-38.4v30.72H131V635.54h23Zm30.72,0v30.72h-23V635.54h23Zm30.72,0v30.72h-23V635.54h23Z"/><polygon class="cls-6" points="884.18 708.73 884.18 701.1 876.55 701.1 876.55 693.47 868.92 693.47 868.92 701.1 861.29 701.1 861.29 708.73 868.92 708.73 876.55 708.73 876.55 716.35 868.92 716.35 861.29 716.35 861.29 723.98 868.92 723.98 876.55 723.98 884.18 723.98 891.8 723.98 891.8 716.35 899.43 716.35 899.43 708.73 891.8 708.73 884.18 708.73"/><rect class="cls-7" x="884.18" y="701.1" width="7.63" height="7.63"/><polygon class="cls-8" points="876.55 731.61 876.55 739.24 876.55 746.87 884.18 746.87 884.18 739.24 884.18 731.61 884.18 723.98 876.55 723.98 876.55 731.61"/><rect class="cls-7" x="868.92" y="708.72" width="7.63" height="7.63"/><polygon class="cls-1" points="439.03 800.62 439.03 808.3 446.7 808.3 446.7 800.62 446.7 792.94 439.03 792.94 439.03 800.62"/><polygon class="cls-1" points="439.03 769.91 439.03 777.59 439.03 785.26 446.7 785.26 446.7 777.59 446.7 769.91 446.7 762.23 439.03 762.23 439.03 769.91"/><polygon class="cls-1" points="439.03 823.66 439.03 831.34 439.03 839.02 446.7 839.02 446.7 831.34 446.7 823.66 446.7 815.98 439.03 815.98 439.03 823.66"/><polygon class="cls-1" points="439.03 677.75 439.03 685.43 439.03 693.11 446.7 693.11 446.7 685.43 446.7 677.75 446.7 670.08 439.03 670.08 439.03 677.75"/><polygon class="cls-1" points="439.03 708.47 439.03 716.15 439.03 723.83 446.7 723.83 446.7 716.15 446.7 708.47 446.7 700.79 439.03 700.79 439.03 708.47"/><polygon class="cls-1" points="439.03 739.19 439.03 746.87 439.03 754.55 446.7 754.55 446.7 746.87 446.7 739.19 446.7 731.51 439.03 731.51 439.03 739.19"/><path class="cls-9" d="M1590.92,639.36v-7.68h-7.68V624h-7.68v-7.68h-76.79v-23h7.68V577.92h-7.68v7.68h-15.36v7.68h7.68v23h-38.4V624H1445v7.68h-7.68v7.68h-7.68V869.73h168.94V639.36Zm-138.23,0v-7.68h7.68V624h107.51v7.68h7.68v7.68h7.68v15.36H1445V639.36Zm130.55,46.07v23h-23V677.75h23Zm0,46.07v23h-23V723.83h23Zm0,46.08v23h-23V769.91h23ZM1445,792.94v-23h23v30.71h-23Zm0-46.07v-23h23v30.72h-23Zm0-46.08v-23h23v30.72h-23Z"/><polygon class="cls-10" points="1575.56 777.59 1575.56 785.26 1575.56 792.94 1575.56 800.62 1583.24 800.62 1583.24 792.94 1583.24 785.26 1583.24 777.59 1583.24 769.91 1575.56 769.91 1575.56 777.59"/><polygon class="cls-10" points="1575.56 731.51 1575.56 739.19 1575.56 746.87 1575.56 754.55 1583.24 754.55 1583.24 746.87 1583.24 739.19 1583.24 731.51 1583.24 723.83 1575.56 723.83 1575.56 731.51"/><polygon class="cls-10" points="1575.56 685.43 1575.56 693.11 1575.56 700.79 1575.56 708.47 1583.24 708.47 1583.24 700.79 1583.24 693.11 1583.24 685.43 1583.24 677.75 1575.56 677.75 1575.56 685.43"/><polygon class="cls-11" points="1575.56 785.26 1575.56 777.59 1575.56 769.91 1567.88 769.91 1560.2 769.91 1560.2 777.59 1560.2 785.26 1560.2 792.94 1560.2 800.62 1567.88 800.62 1575.56 800.62 1575.56 792.94 1575.56 785.26"/><polygon class="cls-11" points="1575.56 739.19 1575.56 731.51 1575.56 723.83 1567.88 723.83 1560.2 723.83 1560.2 731.51 1560.2 739.19 1560.2 746.87 1560.2 754.55 1567.88 754.55 1575.56 754.55 1575.56 746.87 1575.56 739.19"/><polygon class="cls-11" points="1575.56 693.11 1575.56 685.43 1575.56 677.75 1567.88 677.75 1560.2 677.75 1560.2 685.43 1560.2 693.11 1560.2 700.79 1560.2 708.47 1567.88 708.47 1575.56 708.47 1575.56 700.79 1575.56 693.11"/><polygon class="cls-11" points="1560.2 639.36 1560.2 647.04 1567.88 647.04 1575.56 647.04 1583.24 647.04 1583.24 639.36 1575.56 639.36 1575.56 631.68 1567.88 631.68 1560.2 631.68 1560.2 639.36"/><polygon class="cls-11" points="1529.48 647.04 1537.16 647.04 1544.84 647.04 1552.52 647.04 1552.52 639.36 1552.52 631.68 1544.84 631.68 1537.16 631.68 1529.48 631.68 1529.48 639.36 1529.48 647.04"/><polygon class="cls-11" points="1506.44 647.04 1514.12 647.04 1521.8 647.04 1521.8 639.36 1521.8 631.68 1514.12 631.68 1506.44 631.68 1506.44 639.36 1506.44 647.04"/><polygon class="cls-11" points="1475.73 647.04 1483.41 647.04 1491.09 647.04 1498.76 647.04 1498.76 639.36 1498.76 631.68 1491.09 631.68 1483.41 631.68 1475.73 631.68 1475.73 639.36 1475.73 647.04"/><path class="cls-10" d="M1468,639.36V647h-23v7.68h138.23V647h-23V631.68h7.68V624H1460.37v7.68H1468Zm69.11-7.68h15.36V647h-23V631.68Zm-23,0h7.68V647h-15.36V631.68Zm-30.72,0h15.36V647h-23V631.68Z"/><polygon class="cls-10" points="1460.37 785.26 1460.37 792.94 1460.37 800.62 1468.05 800.62 1468.05 792.94 1468.05 785.26 1468.05 777.59 1468.05 769.91 1460.37 769.91 1460.37 777.59 1460.37 785.26"/><polygon class="cls-10" points="1460.37 739.19 1460.37 746.87 1460.37 754.55 1468.05 754.55 1468.05 746.87 1468.05 739.19 1468.05 731.51 1468.05 723.83 1460.37 723.83 1460.37 731.51 1460.37 739.19"/><polygon class="cls-10" points="1460.37 693.11 1460.37 700.79 1460.37 708.47 1468.05 708.47 1468.05 700.79 1468.05 693.11 1468.05 685.43 1468.05 677.75 1460.37 677.75 1460.37 685.43 1460.37 693.11"/><polygon class="cls-11" points="1460.37 800.62 1460.37 792.94 1460.37 785.26 1460.37 777.59 1460.37 769.91 1452.69 769.91 1445.01 769.91 1445.01 777.59 1445.01 785.26 1445.01 792.94 1445.01 800.62 1452.69 800.62 1460.37 800.62"/><polygon class="cls-11" points="1460.37 754.55 1460.37 746.87 1460.37 739.19 1460.37 731.51 1460.37 723.83 1452.69 723.83 1445.01 723.83 1445.01 731.51 1445.01 739.19 1445.01 746.87 1445.01 754.55 1452.69 754.55 1460.37 754.55"/><polygon class="cls-11" points="1460.37 708.47 1460.37 700.79 1460.37 693.11 1460.37 685.43 1460.37 677.75 1452.69 677.75 1445.01 677.75 1445.01 685.43 1445.01 693.11 1445.01 700.79 1445.01 708.47 1452.69 708.47 1460.37 708.47"/><polygon class="cls-11" points="1452.69 647.04 1460.37 647.04 1468.05 647.04 1468.05 639.36 1468.05 631.68 1460.37 631.68 1452.69 631.68 1452.69 639.36 1445.01 639.36 1445.01 647.04 1452.69 647.04"/><rect class="cls-12" x="1352.86" y="815.98" width="7.68" height="7.68"/><polygon class="cls-9" points="1352.86 800.62 1345.18 800.62 1345.18 808.3 1337.5 808.3 1337.5 800.62 1329.82 800.62 1329.82 808.3 1322.14 808.3 1322.14 815.98 1329.82 815.98 1337.5 815.98 1337.5 823.66 1337.5 831.34 1337.5 839.02 1337.5 846.7 1337.5 854.38 1337.5 862.06 1337.5 869.73 1345.18 869.73 1345.18 862.06 1345.18 854.38 1345.18 846.7 1345.18 839.02 1345.18 831.34 1345.18 823.66 1345.18 815.98 1352.86 815.98 1360.54 815.98 1360.54 808.3 1352.86 808.3 1352.86 800.62"/><rect class="cls-12" x="1322.14" y="815.98" width="7.68" height="7.68"/><rect class="cls-12" x="1655.48" y="815.98" width="7.68" height="7.68"/><polygon class="cls-9" points="1655.48 800.62 1647.8 800.62 1647.8 808.3 1640.13 808.3 1640.13 800.62 1632.44 800.62 1632.44 808.3 1624.77 808.3 1624.77 815.98 1632.44 815.98 1640.13 815.98 1640.13 823.66 1640.13 831.34 1640.13 839.02 1640.13 846.7 1640.13 854.38 1640.13 862.06 1640.13 869.73 1647.8 869.73 1647.8 862.06 1647.8 854.38 1647.8 846.7 1647.8 839.02 1647.8 831.34 1647.8 823.66 1647.8 815.98 1655.48 815.98 1663.16 815.98 1663.16 808.3 1655.48 808.3 1655.48 800.62"/><rect class="cls-12" x="1624.77" y="815.98" width="7.68" height="7.68"/><rect class="cls-12" x="1732.27" y="815.98" width="7.68" height="7.68"/><polygon class="cls-9" points="1732.27 800.62 1724.6 800.62 1724.6 808.3 1716.92 808.3 1716.92 800.62 1709.24 800.62 1709.24 808.3 1701.56 808.3 1701.56 815.98 1709.24 815.98 1716.92 815.98 1716.92 823.66 1716.92 831.34 1716.92 839.02 1716.92 846.7 1716.92 854.38 1716.92 862.06 1716.92 869.73 1724.6 869.73 1724.6 862.06 1724.6 854.38 1724.6 846.7 1724.6 839.02 1724.6 831.34 1724.6 823.66 1724.6 815.98 1732.27 815.98 1739.95 815.98 1739.95 808.3 1732.27 808.3 1732.27 800.62"/><rect class="cls-12" x="1701.56" y="815.98" width="7.68" height="7.68"/><polygon class="cls-9" points="1311.4 862.06 1311.4 869.73 1319.08 869.73 1319.08 862.06 1319.08 854.38 1311.4 854.38 1311.4 862.06"/><rect class="cls-13" x="1311.4" y="846.7" width="7.68" height="7.68"/><rect class="cls-14" x="1311.4" y="839.02" width="7.68" height="7.68"/><rect class="cls-15" x="1311.4" y="831.34" width="7.68" height="7.68"/><polygon class="cls-9" points="979.17 862.06 979.17 869.73 986.85 869.73 986.85 862.06 986.85 854.38 979.17 854.38 979.17 862.06"/><rect class="cls-13" x="979.17" y="846.7" width="7.68" height="7.68"/><rect class="cls-14" x="979.17" y="839.02" width="7.68" height="7.68"/><rect class="cls-15" x="979.17" y="831.34" width="7.68" height="7.68"/><polygon class="cls-9" points="254.5 862.06 254.5 869.73 262.18 869.73 262.18 862.06 262.18 854.38 254.5 854.38 254.5 862.06"/><rect class="cls-13" x="254.5" y="846.7" width="7.68" height="7.68"/><rect class="cls-14" x="254.5" y="839.02" width="7.68" height="7.68"/><rect class="cls-15" x="254.5" y="831.34" width="7.68" height="7.68"/><path class="cls-9" d="M1207,570.25H1099.44v-23h7.68v-7.68h-7.68V524.17h-7.68v15.36h-7.68v7.68h7.68v23H1061v7.68h-7.68v53.75H1061v23h-7.68v46.07H1061v23h-7.68v46.08H1061v23h-7.68v76.79h161.27V792.94H1207v-23h7.68V723.83H1207v-23h7.68V654.72H1207v-23h7.68V577.92H1207Zm-30.72,69.11v23h-23V631.68h23Zm0,46.07v23h-23V677.75h23Zm0,46.07v23h-23V723.83h23Zm0,46.08v23h-23V769.91h23Zm0-184.3v23h-23V585.6h23Z"/><polygon class="cls-10" points="1168.56 777.59 1168.56 785.26 1168.56 792.94 1168.56 800.62 1176.24 800.62 1176.24 792.94 1176.24 785.26 1176.24 777.59 1176.24 769.91 1168.56 769.91 1168.56 777.59"/><polygon class="cls-10" points="1168.56 731.51 1168.56 739.19 1168.56 746.87 1168.56 754.55 1176.24 754.55 1176.24 746.87 1176.24 739.19 1176.24 731.51 1176.24 723.83 1168.56 723.83 1168.56 731.51"/><polygon class="cls-10" points="1168.56 685.43 1168.56 693.11 1168.56 700.79 1168.56 708.47 1176.24 708.47 1176.24 700.79 1176.24 693.11 1176.24 685.43 1176.24 677.75 1168.56 677.75 1168.56 685.43"/><polygon class="cls-10" points="1168.56 639.36 1168.56 647.04 1168.56 654.72 1168.56 662.39 1176.24 662.39 1176.24 654.72 1176.24 647.04 1176.24 639.36 1176.24 631.68 1168.56 631.68 1168.56 639.36"/><polygon class="cls-10" points="1168.56 593.28 1168.56 600.96 1168.56 608.64 1168.56 616.32 1176.24 616.32 1176.24 608.64 1176.24 600.96 1176.24 593.28 1176.24 585.6 1168.56 585.6 1168.56 593.28"/><polygon class="cls-11" points="1168.56 785.26 1168.56 777.59 1168.56 769.91 1160.88 769.91 1153.2 769.91 1153.2 777.59 1153.2 785.26 1153.2 792.94 1153.2 800.62 1160.88 800.62 1168.56 800.62 1168.56 792.94 1168.56 785.26"/><polygon class="cls-11" points="1168.56 739.19 1168.56 731.51 1168.56 723.83 1160.88 723.83 1153.2 723.83 1153.2 731.51 1153.2 739.19 1153.2 746.87 1153.2 754.55 1160.88 754.55 1168.56 754.55 1168.56 746.87 1168.56 739.19"/><polygon class="cls-11" points="1168.56 693.11 1168.56 685.43 1168.56 677.75 1160.88 677.75 1153.2 677.75 1153.2 685.43 1153.2 693.11 1153.2 700.79 1153.2 708.47 1160.88 708.47 1168.56 708.47 1168.56 700.79 1168.56 693.11"/><polygon class="cls-11" points="1168.56 647.04 1168.56 639.36 1168.56 631.68 1160.88 631.68 1153.2 631.68 1153.2 639.36 1153.2 647.04 1153.2 654.72 1153.2 662.39 1160.88 662.39 1168.56 662.39 1168.56 654.72 1168.56 647.04"/><polygon class="cls-11" points="1168.56 600.96 1168.56 593.28 1168.56 585.6 1160.88 585.6 1153.2 585.6 1153.2 593.28 1153.2 600.96 1153.2 608.64 1153.2 616.32 1160.88 616.32 1168.56 616.32 1168.56 608.64 1168.56 600.96"/><rect class="cls-9" x="1107.12" y="531.85" width="7.68" height="7.68"/><rect class="cls-9" x="1076.41" y="531.85" width="7.68" height="7.68"/><rect class="cls-12" x="715.26" y="815.98" width="7.68" height="7.68"/><polygon class="cls-9" points="715.26 800.62 707.58 800.62 707.58 808.3 699.9 808.3 699.9 800.62 692.22 800.62 692.22 808.3 684.54 808.3 684.54 815.98 692.22 815.98 699.9 815.98 699.9 823.66 699.9 831.34 699.9 839.02 699.9 846.7 699.9 854.38 699.9 862.06 699.9 869.73 707.58 869.73 707.58 862.06 707.58 854.38 707.58 846.7 707.58 839.02 707.58 831.34 707.58 823.66 707.58 815.98 715.26 815.98 722.94 815.98 722.94 808.3 715.26 808.3 715.26 800.62"/><rect class="cls-12" x="684.54" y="815.98" width="7.68" height="7.68"/><rect class="cls-12" x="400.4" y="815.98" width="7.68" height="7.68"/><polygon class="cls-9" points="400.4 800.62 392.73 800.62 392.73 808.3 385.05 808.3 385.05 800.62 377.37 800.62 377.37 808.3 369.69 808.3 369.69 815.98 377.37 815.98 385.05 815.98 385.05 823.66 385.05 831.34 385.05 839.02 385.05 846.7 385.05 854.38 385.05 862.06 385.05 869.73 392.73 869.73 392.73 862.06 392.73 854.38 392.73 846.7 392.73 839.02 392.73 831.34 392.73 823.66 392.73 815.98 400.4 815.98 408.09 815.98 408.09 808.3 400.4 808.3 400.4 800.62"/><rect class="cls-12" x="369.69" y="815.98" width="7.68" height="7.68"/><rect class="cls-12" x="231.46" y="815.98" width="7.68" height="7.68"/><polygon class="cls-9" points="231.46 800.62 223.78 800.62 223.78 808.3 216.1 808.3 216.1 800.62 208.42 800.62 208.42 808.3 200.74 808.3 200.74 815.98 208.42 815.98 216.1 815.98 216.1 823.66 216.1 831.34 216.1 839.02 216.1 846.7 216.1 854.38 216.1 862.06 216.1 869.73 223.78 869.73 223.78 862.06 223.78 854.38 223.78 846.7 223.78 839.02 223.78 831.34 223.78 823.66 223.78 815.98 231.46 815.98 239.14 815.98 239.14 808.3 231.46 808.3 231.46 800.62"/><rect class="cls-12" x="200.74" y="815.98" width="7.68" height="7.68"/><rect class="cls-12" x="968.9" y="815.98" width="7.68" height="7.68"/><polygon class="cls-9" points="968.9 800.62 961.22 800.62 961.22 808.3 953.54 808.3 953.54 800.62 945.86 800.62 945.86 808.3 938.18 808.3 938.18 815.98 945.86 815.98 953.54 815.98 953.54 823.66 953.54 831.34 953.54 839.02 953.54 846.7 953.54 854.38 953.54 862.06 953.54 869.73 961.22 869.73 961.22 862.06 961.22 854.38 961.22 846.7 961.22 839.02 961.22 831.34 961.22 823.66 961.22 815.98 968.9 815.98 976.58 815.98 976.58 808.3 968.9 808.3 968.9 800.62"/><rect class="cls-12" x="938.18" y="815.98" width="7.68" height="7.68"/><path class="cls-9" d="M907.46,731.51h-23v0l-7.68,0h-23V677.75H838.35v-23H738.52v23H723.16v192H922.82V731.51H907.46Zm0,23v15.36h-23v-23h23Zm0,38.4V808.3h-23v-23h23Zm0,38.4V846.7h-23v-23h23ZM738.52,839V823.66h23v23h-23Zm0-38.4V785.26h23v23h-23Zm0-38.4V746.87h23v23h-23Zm0-53.75V693.11h23v23h-23Zm99.83-7.68v15.36h-23v-23h23Zm-61.43,99.83V785.26h23v23h-23Zm0-38.4V746.87h23v23h-23Zm23-61.43v15.36h-23v-23h23ZM776.91,839V823.66h23v23h-23Zm53.75-176.63v15.36H823V662.39Zm-15.36,0v15.36h-7.68V662.39Zm-15.36,0v15.36h-7.68V662.39Zm-15.36,0v15.36h-7.68V662.39Zm-15.36,0v15.36h-7.68V662.39Zm-23,7.68v-7.68h7.68v15.36H746.2Z"/><polygon class="cls-10" points="899.78 831.34 899.78 839.02 899.78 846.7 907.46 846.7 907.46 839.02 907.46 831.34 907.46 823.66 899.78 823.66 899.78 831.34"/><polygon class="cls-10" points="899.78 792.94 899.78 800.62 899.78 808.3 907.46 808.3 907.46 800.62 907.46 792.94 907.46 785.26 899.78 785.26 899.78 792.94"/><polygon class="cls-10" points="899.78 754.55 899.78 762.23 899.78 769.91 907.46 769.91 907.46 762.23 907.46 754.55 907.46 746.87 899.78 746.87 899.78 754.55"/><polygon class="cls-11" points="899.78 831.34 899.78 823.66 892.1 823.66 884.42 823.66 884.42 831.34 884.42 839.02 884.42 846.7 892.1 846.7 899.78 846.7 899.78 839.02 899.78 831.34"/><polygon class="cls-11" points="899.78 792.94 899.78 785.26 892.1 785.26 884.42 785.26 884.42 792.94 884.42 800.62 884.42 808.3 892.1 808.3 899.78 808.3 899.78 800.62 899.78 792.94"/><polygon class="cls-11" points="899.78 754.55 899.78 746.87 892.1 746.87 884.42 746.87 884.42 754.55 884.42 762.23 884.42 769.91 892.1 769.91 899.78 769.91 899.78 762.23 899.78 754.55"/><polygon class="cls-10" points="830.67 700.79 830.67 708.47 830.67 716.15 838.35 716.15 838.35 708.47 838.35 700.79 838.35 693.11 830.67 693.11 830.67 700.79"/><polygon class="cls-11" points="830.67 700.79 830.67 693.11 822.99 693.11 815.31 693.11 815.31 700.79 815.31 708.47 815.31 716.15 822.99 716.15 830.67 716.15 830.67 708.47 830.67 700.79"/><rect class="cls-11" x="822.99" y="670.08" width="7.68" height="7.68"/><rect class="cls-10" x="822.99" y="662.39" width="7.68" height="7.68"/><rect class="cls-11" x="807.63" y="670.08" width="7.68" height="7.68"/><rect class="cls-10" x="807.63" y="662.39" width="7.68" height="7.68"/><polygon class="cls-10" points="792.27 839.02 792.27 846.7 799.95 846.7 799.95 839.02 799.95 831.34 799.95 823.66 792.27 823.66 792.27 831.34 792.27 839.02"/><polygon class="cls-10" points="792.27 800.62 792.27 808.3 799.95 808.3 799.95 800.62 799.95 792.94 799.95 785.26 792.27 785.26 792.27 792.94 792.27 800.62"/><polygon class="cls-10" points="792.27 762.23 792.27 769.91 799.95 769.91 799.95 762.23 799.95 754.55 799.95 746.87 792.27 746.87 792.27 754.55 792.27 762.23"/><polygon class="cls-10" points="792.27 700.79 792.27 708.47 792.27 716.15 799.95 716.15 799.95 708.47 799.95 700.79 799.95 693.11 792.27 693.11 792.27 700.79"/><rect class="cls-11" x="792.27" y="670.08" width="7.68" height="7.68"/><rect class="cls-10" x="792.27" y="662.39" width="7.68" height="7.68"/><polygon class="cls-11" points="792.27 846.7 792.27 839.02 792.27 831.34 792.27 823.66 784.59 823.66 776.91 823.66 776.91 831.34 776.91 839.02 776.91 846.7 784.59 846.7 792.27 846.7"/><polygon class="cls-11" points="792.27 808.3 792.27 800.62 792.27 792.94 792.27 785.26 784.59 785.26 776.91 785.26 776.91 792.94 776.91 800.62 776.91 808.3 784.59 808.3 792.27 808.3"/><polygon class="cls-11" points="792.27 769.91 792.27 762.23 792.27 754.55 792.27 746.87 784.59 746.87 776.91 746.87 776.91 754.55 776.91 762.23 776.91 769.91 784.59 769.91 792.27 769.91"/><polygon class="cls-11" points="792.27 700.79 792.27 693.11 784.59 693.11 776.91 693.11 776.91 700.79 776.91 708.47 776.91 716.15 784.59 716.15 792.27 716.15 792.27 708.47 792.27 700.79"/><rect class="cls-11" x="776.91" y="670.08" width="7.68" height="7.68"/><rect class="cls-10" x="776.91" y="662.39" width="7.68" height="7.68"/><rect class="cls-11" x="761.55" y="670.08" width="7.68" height="7.68"/><rect class="cls-10" x="761.55" y="662.39" width="7.68" height="7.68"/><polygon class="cls-10" points="753.88 839.02 753.88 846.7 761.55 846.7 761.55 839.02 761.55 831.34 761.55 823.66 753.88 823.66 753.88 831.34 753.88 839.02"/><polygon class="cls-10" points="753.88 800.62 753.88 808.3 761.55 808.3 761.55 800.62 761.55 792.94 761.55 785.26 753.88 785.26 753.88 792.94 753.88 800.62"/><polygon class="cls-10" points="753.88 762.23 753.88 769.91 761.55 769.91 761.55 762.23 761.55 754.55 761.55 746.87 753.88 746.87 753.88 754.55 753.88 762.23"/><polygon class="cls-10" points="753.88 708.47 753.88 716.15 761.55 716.15 761.55 708.47 761.55 700.79 761.55 693.11 753.88 693.11 753.88 700.79 753.88 708.47"/><polygon class="cls-11" points="753.88 846.7 753.88 839.02 753.88 831.34 753.88 823.66 746.2 823.66 738.52 823.66 738.52 831.34 738.52 839.02 738.52 846.7 746.2 846.7 753.88 846.7"/><polygon class="cls-11" points="753.88 808.3 753.88 800.62 753.88 792.94 753.88 785.26 746.2 785.26 738.52 785.26 738.52 792.94 738.52 800.62 738.52 808.3 746.2 808.3 753.88 808.3"/><polygon class="cls-11" points="753.88 769.91 753.88 762.23 753.88 754.55 753.88 746.87 746.2 746.87 738.52 746.87 738.52 754.55 738.52 762.23 738.52 769.91 746.2 769.91 753.88 769.91"/><polygon class="cls-11" points="753.88 716.15 753.88 708.47 753.88 700.79 753.88 693.11 746.2 693.11 738.52 693.11 738.52 700.79 738.52 708.47 738.52 716.15 746.2 716.15 753.88 716.15"/><rect class="cls-11" x="746.2" y="670.08" width="7.68" height="7.68"/><rect class="cls-10" x="746.2" y="662.39" width="7.68" height="7.68"/><path class="cls-9" d="M669.4,639.36H654v-7.68H669.4V624H592.61v-7.68h-7.68V624H462.06v7.68h-7.68v7.68h-7.68V869.73H684.76V639.36H669.4ZM462.06,816v-23h15.36v30.72H462.06Zm0-46.07v-23h15.36v30.72H462.06Zm0-46.08v-23h15.36v30.72H462.06Zm0-46.07v-23h15.36v30.72H462.06ZM485.1,816v-23h15.36v30.72H485.1Zm0-46.07v-23h15.36v30.72H485.1Zm0-46.08v-23h15.36v30.72H485.1Zm0-46.07v-23h15.36v30.72H485.1ZM523.5,816v-23h15.36v30.72H523.5Zm0-46.07v-23h15.36v30.72H523.5Zm0-46.08v-23h15.36v30.72H523.5Zm15.36-61.43v23H523.5V654.72h15.36Z"/><polygon class="cls-10" points="531.18 808.3 531.18 815.98 531.18 823.66 538.86 823.66 538.86 815.98 538.86 808.3 538.86 800.62 538.86 792.94 531.18 792.94 531.18 800.62 531.18 808.3"/><polygon class="cls-10" points="531.18 762.23 531.18 769.91 531.18 777.59 538.86 777.59 538.86 769.91 538.86 762.23 538.86 754.55 538.86 746.87 531.18 746.87 531.18 754.55 531.18 762.23"/><polygon class="cls-10" points="531.18 716.15 531.18 723.83 531.18 731.51 538.86 731.51 538.86 723.83 538.86 716.15 538.86 708.47 538.86 700.79 531.18 700.79 531.18 708.47 531.18 716.15"/><polygon class="cls-10" points="531.18 662.39 531.18 670.08 531.18 677.75 531.18 685.43 538.86 685.43 538.86 677.75 538.86 670.08 538.86 662.39 538.86 654.72 531.18 654.72 531.18 662.39"/><polygon class="cls-11" points="531.18 815.98 531.18 808.3 531.18 800.62 531.18 792.94 523.5 792.94 523.5 800.62 523.5 808.3 523.5 815.98 523.5 823.66 531.18 823.66 531.18 815.98"/><polygon class="cls-11" points="531.18 769.91 531.18 762.23 531.18 754.55 531.18 746.87 523.5 746.87 523.5 754.55 523.5 762.23 523.5 769.91 523.5 777.59 531.18 777.59 531.18 769.91"/><polygon class="cls-11" points="531.18 723.83 531.18 716.15 531.18 708.47 531.18 700.79 523.5 700.79 523.5 708.47 523.5 716.15 523.5 723.83 523.5 731.51 531.18 731.51 531.18 723.83"/><polygon class="cls-11" points="531.18 670.08 531.18 662.39 531.18 654.72 523.5 654.72 523.5 662.39 523.5 670.08 523.5 677.75 523.5 685.43 531.18 685.43 531.18 677.75 531.18 670.08"/><polygon class="cls-10" points="492.78 808.3 492.78 815.98 492.78 823.66 500.46 823.66 500.46 815.98 500.46 808.3 500.46 800.62 500.46 792.94 492.78 792.94 492.78 800.62 492.78 808.3"/><polygon class="cls-10" points="492.78 762.23 492.78 769.91 492.78 777.59 500.46 777.59 500.46 769.91 500.46 762.23 500.46 754.55 500.46 746.87 492.78 746.87 492.78 754.55 492.78 762.23"/><polygon class="cls-10" points="492.78 716.15 492.78 723.83 492.78 731.51 500.46 731.51 500.46 723.83 500.46 716.15 500.46 708.47 500.46 700.79 492.78 700.79 492.78 708.47 492.78 716.15"/><polygon class="cls-10" points="492.78 670.08 492.78 677.75 492.78 685.43 500.46 685.43 500.46 677.75 500.46 670.08 500.46 662.39 500.46 654.72 492.78 654.72 492.78 662.39 492.78 670.08"/><polygon class="cls-11" points="492.78 815.98 492.78 808.3 492.78 800.62 492.78 792.94 485.1 792.94 485.1 800.62 485.1 808.3 485.1 815.98 485.1 823.66 492.78 823.66 492.78 815.98"/><polygon class="cls-11" points="492.78 769.91 492.78 762.23 492.78 754.55 492.78 746.87 485.1 746.87 485.1 754.55 485.1 762.23 485.1 769.91 485.1 777.59 492.78 777.59 492.78 769.91"/><polygon class="cls-11" points="492.78 723.83 492.78 716.15 492.78 708.47 492.78 700.79 485.1 700.79 485.1 708.47 485.1 716.15 485.1 723.83 485.1 731.51 492.78 731.51 492.78 723.83"/><polygon class="cls-11" points="492.78 677.75 492.78 670.08 492.78 662.39 492.78 654.72 485.1 654.72 485.1 662.39 485.1 670.08 485.1 677.75 485.1 685.43 492.78 685.43 492.78 677.75"/><polygon class="cls-10" points="469.74 808.3 469.74 815.98 469.74 823.66 477.42 823.66 477.42 815.98 477.42 808.3 477.42 800.62 477.42 792.94 469.74 792.94 469.74 800.62 469.74 808.3"/><polygon class="cls-10" points="469.74 762.23 469.74 769.91 469.74 777.59 477.42 777.59 477.42 769.91 477.42 762.23 477.42 754.55 477.42 746.87 469.74 746.87 469.74 754.55 469.74 762.23"/><polygon class="cls-10" points="469.74 716.15 469.74 723.83 469.74 731.51 477.42 731.51 477.42 723.83 477.42 716.15 477.42 708.47 477.42 700.79 469.74 700.79 469.74 708.47 469.74 716.15"/><polygon class="cls-10" points="469.74 670.08 469.74 677.75 469.74 685.43 477.42 685.43 477.42 677.75 477.42 670.08 477.42 662.39 477.42 654.72 469.74 654.72 469.74 662.39 469.74 670.08"/><polygon class="cls-11" points="469.74 815.98 469.74 808.3 469.74 800.62 469.74 792.94 462.06 792.94 462.06 800.62 462.06 808.3 462.06 815.98 462.06 823.66 469.74 823.66 469.74 815.98"/><polygon class="cls-11" points="469.74 769.91 469.74 762.23 469.74 754.55 469.74 746.87 462.06 746.87 462.06 754.55 462.06 762.23 462.06 769.91 462.06 777.59 469.74 777.59 469.74 769.91"/><polygon class="cls-11" points="469.74 723.83 469.74 716.15 469.74 708.47 469.74 700.79 462.06 700.79 462.06 708.47 462.06 716.15 462.06 723.83 462.06 731.51 469.74 731.51 469.74 723.83"/><polygon class="cls-11" points="469.74 677.75 469.74 670.08 469.74 662.39 469.74 654.72 462.06 654.72 462.06 662.39 462.06 670.08 462.06 677.75 462.06 685.43 469.74 685.43 469.74 677.75"/><polygon class="cls-16" points="439.03 839.02 439.03 831.34 439.03 823.66 439.03 815.98 446.7 815.98 446.7 808.3 439.03 808.3 439.03 800.62 439.03 792.94 446.7 792.94 446.7 785.26 439.03 785.26 439.03 777.59 439.03 769.91 439.03 762.23 446.7 762.23 446.7 754.55 439.03 754.55 439.03 746.87 439.03 739.19 439.03 731.51 446.7 731.51 446.7 723.83 439.03 723.83 439.03 716.15 439.03 708.47 439.03 700.79 446.7 700.79 446.7 693.11 439.03 693.11 439.03 685.43 439.03 677.75 439.03 670.08 446.7 670.08 446.7 662.39 439.03 662.39 439.03 654.72 431.35 654.72 431.35 662.39 431.35 670.08 431.35 677.75 431.35 685.43 431.35 693.11 431.35 700.79 431.35 708.47 431.35 716.15 431.35 723.83 431.35 731.51 431.35 739.19 431.35 746.87 431.35 754.55 431.35 762.23 431.35 769.91 431.35 777.59 431.35 785.26 431.35 792.94 431.35 800.62 431.35 808.3 431.35 815.98 431.35 823.66 431.35 831.34 431.35 839.02 431.35 846.7 431.35 854.38 423.67 854.38 423.67 846.7 415.99 846.7 415.99 854.38 415.99 862.06 423.67 862.06 431.35 862.06 439.03 862.06 439.03 854.38 439.03 846.7 446.7 846.7 446.7 839.02 439.03 839.02"/><rect class="cls-17" x="1387.85" y="425.68" width="7.68" height="7.68"/><rect class="cls-17" x="1526.07" y="448.78" width="7.68" height="7.68"/><polygon class="cls-6" points="362.45 823.76 362.45 831.39 354.82 831.39 354.82 823.76 347.19 823.76 347.19 816.13 339.56 816.13 339.56 823.76 331.94 823.76 331.94 831.39 331.94 839.02 339.56 839.02 339.56 831.39 347.19 831.39 347.19 839.02 339.56 839.02 339.56 846.65 347.19 846.65 354.82 846.65 354.82 839.02 362.45 839.02 370.08 839.02 370.08 831.39 370.08 823.76 362.45 823.76"/><rect class="cls-7" x="354.82" y="839.02" width="7.63" height="7.63"/><rect class="cls-7" x="354.82" y="823.76" width="7.63" height="7.63"/><rect class="cls-6" x="354.82" y="816.13" width="7.63" height="7.63"/><rect class="cls-7" x="354.82" y="808.51" width="7.63" height="7.63"/><polygon class="cls-8" points="347.19 854.28 347.19 861.9 347.19 869.53 354.82 869.53 354.82 861.9 354.82 854.28 354.82 846.65 347.19 846.65 347.19 854.28"/><rect class="cls-7" x="347.19" y="816.13" width="7.63" height="7.63"/><rect class="cls-6" x="347.19" y="808.51" width="7.63" height="7.63"/><rect class="cls-7" x="339.56" y="831.39" width="7.63" height="7.63"/><rect class="cls-7" x="331.94" y="816.13" width="7.63" height="7.63"/><rect class="cls-7" x="307.66" y="831.39" width="7.63" height="7.63"/><polygon class="cls-6" points="307.66 823.76 307.66 816.13 300.03 816.13 300.03 808.5 300.03 800.88 292.4 800.88 292.4 808.5 292.4 816.13 284.77 816.13 277.14 816.13 277.14 823.76 277.14 831.39 277.14 839.02 284.77 839.02 292.4 839.02 292.4 831.39 284.77 831.39 284.77 823.76 292.4 823.76 292.4 831.39 300.03 831.39 300.03 839.02 292.4 839.02 292.4 846.65 300.03 846.65 307.66 846.65 307.66 839.02 307.66 831.39 307.66 823.76"/><rect class="cls-7" x="300.03" y="808.5" width="7.63" height="7.63"/><polygon class="cls-8" points="292.4 854.28 292.4 861.9 292.4 869.53 300.03 869.53 300.03 861.9 300.03 854.28 300.03 846.65 292.4 846.65 292.4 854.28"/><rect class="cls-7" x="292.4" y="831.39" width="7.63" height="7.63"/><rect class="cls-7" x="284.77" y="839.02" width="7.63" height="7.63"/><rect class="cls-7" x="284.77" y="823.76" width="7.63" height="7.63"/><rect class="cls-7" x="284.77" y="808.5" width="7.63" height="7.63"/><polygon class="cls-6" points="496.84 823.76 496.84 831.39 489.21 831.39 489.21 823.76 481.58 823.76 481.58 816.13 473.95 816.13 473.95 823.76 466.33 823.76 466.33 831.39 466.33 839.02 473.95 839.02 473.95 831.39 481.58 831.39 481.58 839.02 473.95 839.02 473.95 846.65 481.58 846.65 489.21 846.65 489.21 839.02 496.84 839.02 504.47 839.02 504.47 831.39 504.47 823.76 496.84 823.76"/><rect class="cls-7" x="489.21" y="839.02" width="7.63" height="7.63"/><rect class="cls-7" x="489.21" y="823.76" width="7.63" height="7.63"/><rect class="cls-6" x="489.21" y="816.13" width="7.63" height="7.63"/><rect class="cls-7" x="489.21" y="808.51" width="7.63" height="7.63"/><polygon class="cls-8" points="481.58 854.28 481.58 861.9 481.58 869.53 489.21 869.53 489.21 861.9 489.21 854.28 489.21 846.65 481.58 846.65 481.58 854.28"/><rect class="cls-7" x="481.58" y="816.13" width="7.63" height="7.63"/><rect class="cls-6" x="481.58" y="808.51" width="7.63" height="7.63"/><rect class="cls-7" x="473.95" y="831.39" width="7.63" height="7.63"/><rect class="cls-7" x="466.33" y="816.13" width="7.63" height="7.63"/><rect class="cls-7" x="442.05" y="831.39" width="7.63" height="7.63"/><polygon class="cls-6" points="442.05 823.76 442.05 816.13 434.42 816.13 434.42 808.5 434.42 800.88 426.79 800.88 426.79 808.5 426.79 816.13 419.16 816.13 411.53 816.13 411.53 823.76 411.53 831.39 411.53 839.02 419.16 839.02 426.79 839.02 426.79 831.39 419.16 831.39 419.16 823.76 426.79 823.76 426.79 831.39 434.42 831.39 434.42 839.02 426.79 839.02 426.79 846.65 434.42 846.65 442.05 846.65 442.05 839.02 442.05 831.39 442.05 823.76"/><rect class="cls-7" x="434.42" y="808.5" width="7.63" height="7.63"/><polygon class="cls-8" points="426.79 854.28 426.79 861.9 426.79 869.53 434.42 869.53 434.42 861.9 434.42 854.28 434.42 846.65 426.79 846.65 426.79 854.28"/><rect class="cls-7" x="426.79" y="831.39" width="7.63" height="7.63"/><rect class="cls-7" x="419.16" y="839.02" width="7.63" height="7.63"/><rect class="cls-7" x="419.16" y="823.76" width="7.63" height="7.63"/><rect class="cls-7" x="419.16" y="808.5" width="7.63" height="7.63"/><polygon class="cls-6" points="600.51 823.76 600.51 831.39 592.88 831.39 592.88 823.76 585.25 823.76 585.25 816.13 577.62 816.13 577.62 823.76 570 823.76 570 831.39 570 839.02 577.62 839.02 577.62 831.39 585.25 831.39 585.25 839.02 577.62 839.02 577.62 846.65 585.25 846.65 592.88 846.65 592.88 839.02 600.51 839.02 608.14 839.02 608.14 831.39 608.14 823.76 600.51 823.76"/><rect class="cls-7" x="592.88" y="839.02" width="7.63" height="7.63"/><rect class="cls-7" x="592.88" y="823.76" width="7.63" height="7.63"/><rect class="cls-6" x="592.88" y="816.13" width="7.63" height="7.63"/><rect class="cls-7" x="592.88" y="808.51" width="7.63" height="7.63"/><polygon class="cls-8" points="585.25 854.28 585.25 861.9 585.25 869.53 592.88 869.53 592.88 861.9 592.88 854.28 592.88 846.65 585.25 846.65 585.25 854.28"/><rect class="cls-7" x="585.25" y="816.13" width="7.63" height="7.63"/><rect class="cls-6" x="585.25" y="808.51" width="7.63" height="7.63"/><rect class="cls-7" x="577.62" y="831.39" width="7.63" height="7.63"/><rect class="cls-7" x="569.99" y="816.13" width="7.63" height="7.63"/><rect class="cls-7" x="545.72" y="831.39" width="7.63" height="7.63"/><polygon class="cls-6" points="545.72 823.76 545.72 816.13 538.09 816.13 538.09 808.5 538.09 800.88 530.46 800.88 530.46 808.5 530.46 816.13 522.83 816.13 515.2 816.13 515.2 823.76 515.2 831.39 515.2 839.02 522.83 839.02 530.46 839.02 530.46 831.39 522.83 831.39 522.83 823.76 530.46 823.76 530.46 831.39 538.09 831.39 538.09 839.02 530.46 839.02 530.46 846.65 538.09 846.65 545.72 846.65 545.72 839.02 545.72 831.39 545.72 823.76"/><rect class="cls-7" x="538.09" y="808.5" width="7.63" height="7.63"/><polygon class="cls-8" points="530.46 854.28 530.46 861.9 530.46 869.53 538.09 869.53 538.09 861.9 538.09 854.28 538.09 846.65 530.46 846.65 530.46 854.28"/><rect class="cls-7" x="530.46" y="831.39" width="7.63" height="7.63"/><rect class="cls-7" x="522.83" y="839.02" width="7.63" height="7.63"/><rect class="cls-7" x="522.83" y="823.76" width="7.63" height="7.63"/><rect class="cls-7" x="522.83" y="808.5" width="7.63" height="7.63"/><polygon class="cls-6" points="110.69 823.76 110.69 831.39 103.06 831.39 103.06 823.76 95.43 823.76 95.43 816.13 87.8 816.13 87.8 823.76 80.17 823.76 80.17 831.39 80.17 839.02 87.8 839.02 87.8 831.39 95.43 831.39 95.43 839.02 87.8 839.02 87.8 846.65 95.43 846.65 103.06 846.65 103.06 839.02 110.69 839.02 118.32 839.02 118.32 831.39 118.32 823.76 110.69 823.76"/><rect class="cls-7" x="103.06" y="839.02" width="7.63" height="7.63"/><rect class="cls-7" x="103.06" y="823.76" width="7.63" height="7.63"/><rect class="cls-6" x="103.06" y="816.13" width="7.63" height="7.63"/><rect class="cls-7" x="103.06" y="808.51" width="7.63" height="7.63"/><polygon class="cls-8" points="95.43 854.28 95.43 861.9 95.43 869.53 103.06 869.53 103.06 861.9 103.06 854.28 103.06 846.65 95.43 846.65 95.43 854.28"/><rect class="cls-7" x="95.43" y="816.13" width="7.63" height="7.63"/><rect class="cls-6" x="95.43" y="808.51" width="7.63" height="7.63"/><rect class="cls-7" x="87.8" y="831.39" width="7.63" height="7.63"/><rect class="cls-7" x="80.17" y="816.13" width="7.63" height="7.63"/><rect class="cls-7" x="55.89" y="831.39" width="7.63" height="7.63"/><polygon class="cls-6" points="55.9 823.76 55.9 816.13 48.27 816.13 48.27 808.5 48.27 800.88 40.64 800.88 40.64 808.5 40.64 816.13 33.01 816.13 25.38 816.13 25.38 823.76 25.38 831.39 25.38 839.02 33.01 839.02 40.64 839.02 40.64 831.39 33.01 831.39 33.01 823.76 40.64 823.76 40.64 831.39 48.27 831.39 48.27 839.02 40.64 839.02 40.64 846.65 48.27 846.65 55.9 846.65 55.9 839.02 55.9 831.39 55.9 823.76"/><rect class="cls-7" x="48.27" y="808.5" width="7.63" height="7.63"/><polygon class="cls-8" points="40.64 854.28 40.64 861.9 40.64 869.53 48.27 869.53 48.27 861.9 48.27 854.28 48.27 846.65 40.64 846.65 40.64 854.28"/><rect class="cls-7" x="40.64" y="831.39" width="7.63" height="7.63"/><rect class="cls-7" x="33.01" y="839.02" width="7.63" height="7.63"/><rect class="cls-7" x="33.01" y="823.76" width="7.63" height="7.63"/><rect class="cls-7" x="33.01" y="808.5" width="7.63" height="7.63"/><rect class="cls-7" x="159.56" y="831.39" width="7.63" height="7.63"/><polygon class="cls-6" points="159.56 823.76 159.56 816.13 151.94 816.13 151.94 808.5 151.94 800.88 144.31 800.88 144.31 808.5 144.31 816.13 136.68 816.13 129.05 816.13 129.05 823.76 129.05 831.39 129.05 839.02 136.68 839.02 144.31 839.02 144.31 831.39 136.68 831.39 136.68 823.76 144.31 823.76 144.31 831.39 151.94 831.39 151.94 839.02 144.31 839.02 144.31 846.65 151.94 846.65 159.56 846.65 159.56 839.02 159.56 831.39 159.56 823.76"/><rect class="cls-7" x="151.94" y="808.5" width="7.63" height="7.63"/><polygon class="cls-8" points="144.31 854.28 144.31 861.9 144.31 869.53 151.94 869.53 151.94 861.9 151.94 854.28 151.94 846.65 144.31 846.65 144.31 854.28"/><rect class="cls-7" x="144.31" y="831.39" width="7.63" height="7.63"/><rect class="cls-7" x="136.68" y="839.02" width="7.63" height="7.63"/><rect class="cls-7" x="136.68" y="823.76" width="7.63" height="7.63"/><rect class="cls-7" x="136.68" y="808.5" width="7.63" height="7.63"/><polygon class="cls-6" points="1889.72 823.76 1889.72 831.39 1882.09 831.39 1882.09 823.76 1874.46 823.76 1874.46 816.13 1866.83 816.13 1866.83 823.76 1859.2 823.76 1859.2 831.39 1859.2 839.02 1866.83 839.02 1866.83 831.39 1874.46 831.39 1874.46 839.02 1866.83 839.02 1866.83 846.65 1874.46 846.65 1882.09 846.65 1882.09 839.02 1889.72 839.02 1897.35 839.02 1897.35 831.39 1897.35 823.76 1889.72 823.76"/><rect class="cls-7" x="1882.09" y="839.02" width="7.63" height="7.63"/><rect class="cls-7" x="1882.09" y="823.76" width="7.63" height="7.63"/><rect class="cls-6" x="1882.09" y="816.13" width="7.63" height="7.63"/><rect class="cls-7" x="1882.09" y="808.51" width="7.63" height="7.63"/><polygon class="cls-8" points="1874.46 854.28 1874.46 861.9 1874.46 869.53 1882.09 869.53 1882.09 861.9 1882.09 854.28 1882.09 846.65 1874.46 846.65 1874.46 854.28"/><rect class="cls-7" x="1874.46" y="816.13" width="7.63" height="7.63"/><rect class="cls-6" x="1874.46" y="808.51" width="7.63" height="7.63"/><rect class="cls-7" x="1866.83" y="831.39" width="7.63" height="7.63"/><rect class="cls-7" x="1859.2" y="816.13" width="7.63" height="7.63"/><rect class="cls-7" x="1836.55" y="831.39" width="7.63" height="7.63"/><polygon class="cls-6" points="1836.55 823.76 1836.55 816.13 1828.93 816.13 1828.93 808.5 1828.93 800.88 1821.3 800.88 1821.3 808.5 1821.3 816.13 1813.67 816.13 1806.04 816.13 1806.04 823.76 1806.04 831.39 1806.04 839.02 1813.67 839.02 1821.3 839.02 1821.3 831.39 1813.67 831.39 1813.67 823.76 1821.3 823.76 1821.3 831.39 1828.93 831.39 1828.93 839.02 1821.3 839.02 1821.3 846.65 1828.93 846.65 1836.55 846.65 1836.55 839.02 1836.55 831.39 1836.55 823.76"/><rect class="cls-7" x="1828.93" y="808.5" width="7.63" height="7.63"/><polygon class="cls-8" points="1821.3 854.28 1821.3 861.9 1821.3 869.53 1828.93 869.53 1828.93 861.9 1828.93 854.28 1828.93 846.65 1821.3 846.65 1821.3 854.28"/><rect class="cls-7" x="1821.3" y="831.39" width="7.63" height="7.63"/><rect class="cls-7" x="1813.67" y="839.02" width="7.63" height="7.63"/><rect class="cls-7" x="1813.67" y="823.76" width="7.63" height="7.63"/><rect class="cls-7" x="1813.67" y="808.5" width="7.63" height="7.63"/><polygon class="cls-6" points="700.34 823.76 700.34 831.39 692.71 831.39 692.71 823.76 685.08 823.76 685.08 816.13 677.45 816.13 677.45 823.76 669.83 823.76 669.83 831.39 669.83 839.02 677.45 839.02 677.45 831.39 685.08 831.39 685.08 839.02 677.45 839.02 677.45 846.65 685.08 846.65 692.71 846.65 692.71 839.02 700.34 839.02 707.97 839.02 707.97 831.39 707.97 823.76 700.34 823.76"/><rect class="cls-7" x="692.71" y="839.02" width="7.63" height="7.63"/><rect class="cls-7" x="692.71" y="823.76" width="7.63" height="7.63"/><rect class="cls-6" x="692.71" y="816.13" width="7.63" height="7.63"/><rect class="cls-7" x="692.71" y="808.51" width="7.63" height="7.63"/><polygon class="cls-8" points="685.08 854.28 685.08 861.9 685.08 869.53 692.71 869.53 692.71 861.9 692.71 854.28 692.71 846.65 685.08 846.65 685.08 854.28"/><rect class="cls-7" x="685.08" y="816.13" width="7.63" height="7.63"/><rect class="cls-6" x="685.08" y="808.51" width="7.63" height="7.63"/><rect class="cls-7" x="677.45" y="831.39" width="7.63" height="7.63"/><rect class="cls-7" x="669.83" y="816.13" width="7.63" height="7.63"/><rect class="cls-7" x="645.55" y="831.39" width="7.63" height="7.63"/><polygon class="cls-6" points="645.55 823.76 645.55 816.13 637.92 816.13 637.92 808.5 637.92 800.88 630.29 800.88 630.29 808.5 630.29 816.13 622.66 816.13 615.03 816.13 615.03 823.76 615.03 831.39 615.03 839.02 622.66 839.02 630.29 839.02 630.29 831.39 622.66 831.39 622.66 823.76 630.29 823.76 630.29 831.39 637.92 831.39 637.92 839.02 630.29 839.02 630.29 846.65 637.92 846.65 645.55 846.65 645.55 839.02 645.55 831.39 645.55 823.76"/><rect class="cls-7" x="637.92" y="808.5" width="7.63" height="7.63"/><polygon class="cls-8" points="630.29 854.28 630.29 861.9 630.29 869.53 637.92 869.53 637.92 861.9 637.92 854.28 637.92 846.65 630.29 846.65 630.29 854.28"/><rect class="cls-7" x="630.29" y="831.39" width="7.63" height="7.63"/><rect class="cls-7" x="622.66" y="839.02" width="7.63" height="7.63"/><rect class="cls-7" x="622.66" y="823.76" width="7.63" height="7.63"/><rect class="cls-7" x="622.66" y="808.5" width="7.63" height="7.63"/><polygon class="cls-6" points="1073.01 823.76 1073.01 831.39 1065.38 831.39 1065.38 823.76 1057.75 823.76 1057.75 816.13 1050.12 816.13 1050.12 823.76 1042.49 823.76 1042.49 831.39 1042.49 839.02 1050.12 839.02 1050.12 831.39 1057.75 831.39 1057.75 839.02 1050.12 839.02 1050.12 846.65 1057.75 846.65 1065.38 846.65 1065.38 839.02 1073.01 839.02 1080.64 839.02 1080.64 831.39 1080.64 823.76 1073.01 823.76"/><rect class="cls-7" x="1065.38" y="839.02" width="7.63" height="7.63"/><rect class="cls-7" x="1065.38" y="823.76" width="7.63" height="7.63"/><rect class="cls-6" x="1065.38" y="816.13" width="7.63" height="7.63"/><rect class="cls-7" x="1065.38" y="808.51" width="7.63" height="7.63"/><polygon class="cls-8" points="1057.75 854.28 1057.75 861.9 1057.75 869.53 1065.38 869.53 1065.38 861.9 1065.38 854.28 1065.38 846.65 1057.75 846.65 1057.75 854.28"/><rect class="cls-7" x="1057.75" y="816.13" width="7.63" height="7.63"/><rect class="cls-6" x="1057.75" y="808.51" width="7.63" height="7.63"/><rect class="cls-7" x="1050.12" y="831.39" width="7.63" height="7.63"/><rect class="cls-7" x="1042.49" y="816.13" width="7.63" height="7.63"/><rect class="cls-7" x="1018.21" y="831.39" width="7.63" height="7.63"/><polygon class="cls-6" points="1018.21 823.76 1018.21 816.13 1010.59 816.13 1010.59 808.5 1010.59 800.88 1002.96 800.88 1002.96 808.5 1002.96 816.13 995.33 816.13 987.7 816.13 987.7 823.76 987.7 831.39 987.7 839.02 995.33 839.02 1002.96 839.02 1002.96 831.39 995.33 831.39 995.33 823.76 1002.96 823.76 1002.96 831.39 1010.59 831.39 1010.59 839.02 1002.96 839.02 1002.96 846.65 1010.59 846.65 1018.21 846.65 1018.21 839.02 1018.21 831.39 1018.21 823.76"/><rect class="cls-7" x="1010.59" y="808.5" width="7.63" height="7.63"/><polygon class="cls-8" points="1002.96 854.28 1002.96 861.9 1002.96 869.53 1010.59 869.53 1010.59 861.9 1010.59 854.28 1010.59 846.65 1002.96 846.65 1002.96 854.28"/><rect class="cls-7" x="1002.96" y="831.39" width="7.63" height="7.63"/><rect class="cls-7" x="995.33" y="839.02" width="7.63" height="7.63"/><rect class="cls-7" x="995.33" y="823.76" width="7.63" height="7.63"/><rect class="cls-7" x="995.33" y="808.5" width="7.63" height="7.63"/><polygon class="cls-6" points="1172.84 823.76 1172.84 831.39 1165.21 831.39 1165.21 823.76 1157.58 823.76 1157.58 816.13 1149.95 816.13 1149.95 823.76 1142.33 823.76 1142.33 831.39 1142.33 839.02 1149.95 839.02 1149.95 831.39 1157.58 831.39 1157.58 839.02 1149.95 839.02 1149.95 846.65 1157.58 846.65 1165.21 846.65 1165.21 839.02 1172.84 839.02 1180.47 839.02 1180.47 831.39 1180.47 823.76 1172.84 823.76"/><rect class="cls-7" x="1165.21" y="839.02" width="7.63" height="7.63"/><rect class="cls-7" x="1165.21" y="823.76" width="7.63" height="7.63"/><rect class="cls-6" x="1165.21" y="816.13" width="7.63" height="7.63"/><rect class="cls-7" x="1165.21" y="808.51" width="7.63" height="7.63"/><polygon class="cls-8" points="1157.58 854.28 1157.58 861.9 1157.58 869.53 1165.21 869.53 1165.21 861.9 1165.21 854.28 1165.21 846.65 1157.58 846.65 1157.58 854.28"/><rect class="cls-7" x="1157.58" y="816.13" width="7.63" height="7.63"/><rect class="cls-6" x="1157.58" y="808.51" width="7.63" height="7.63"/><rect class="cls-7" x="1149.95" y="831.39" width="7.63" height="7.63"/><rect class="cls-7" x="1142.32" y="816.13" width="7.63" height="7.63"/><rect class="cls-7" x="1118.05" y="831.39" width="7.63" height="7.63"/><polygon class="cls-6" points="1118.05 823.76 1118.05 816.13 1110.42 816.13 1110.42 808.5 1110.42 800.88 1102.79 800.88 1102.79 808.5 1102.79 816.13 1095.16 816.13 1087.53 816.13 1087.53 823.76 1087.53 831.39 1087.53 839.02 1095.16 839.02 1102.79 839.02 1102.79 831.39 1095.16 831.39 1095.16 823.76 1102.79 823.76 1102.79 831.39 1110.42 831.39 1110.42 839.02 1102.79 839.02 1102.79 846.65 1110.42 846.65 1118.05 846.65 1118.05 839.02 1118.05 831.39 1118.05 823.76"/><rect class="cls-7" x="1110.42" y="808.5" width="7.63" height="7.63"/><polygon class="cls-8" points="1102.79 854.28 1102.79 861.9 1102.79 869.53 1110.42 869.53 1110.42 861.9 1110.42 854.28 1110.42 846.65 1102.79 846.65 1102.79 854.28"/><rect class="cls-7" x="1102.79" y="831.39" width="7.63" height="7.63"/><rect class="cls-7" x="1095.16" y="839.02" width="7.63" height="7.63"/><rect class="cls-7" x="1095.16" y="823.76" width="7.63" height="7.63"/><rect class="cls-7" x="1095.16" y="808.5" width="7.63" height="7.63"/><polygon class="cls-6" points="1241.21 823.76 1241.21 831.39 1233.58 831.39 1233.58 823.76 1225.95 823.76 1225.95 816.13 1218.32 816.13 1218.32 823.76 1210.7 823.76 1210.7 831.39 1210.7 839.02 1218.32 839.02 1218.32 831.39 1225.95 831.39 1225.95 839.02 1218.32 839.02 1218.32 846.65 1225.95 846.65 1233.58 846.65 1233.58 839.02 1241.21 839.02 1248.84 839.02 1248.84 831.39 1248.84 823.76 1241.21 823.76"/><rect class="cls-7" x="1233.58" y="839.02" width="7.63" height="7.63"/><rect class="cls-7" x="1233.58" y="823.76" width="7.63" height="7.63"/><rect class="cls-6" x="1233.58" y="816.13" width="7.63" height="7.63"/><rect class="cls-7" x="1233.58" y="808.51" width="7.63" height="7.63"/><polygon class="cls-8" points="1225.95 854.28 1225.95 861.9 1225.95 869.53 1233.58 869.53 1233.58 861.9 1233.58 854.28 1233.58 846.65 1225.95 846.65 1225.95 854.28"/><rect class="cls-7" x="1225.95" y="816.13" width="7.63" height="7.63"/><rect class="cls-6" x="1225.95" y="808.51" width="7.63" height="7.63"/><rect class="cls-7" x="1218.32" y="831.39" width="7.63" height="7.63"/><rect class="cls-7" x="1210.7" y="816.13" width="7.63" height="7.63"/><rect class="cls-7" x="1303.77" y="831.39" width="7.63" height="7.63"/><polygon class="cls-6" points="1303.77 823.76 1303.77 816.13 1296.14 816.13 1296.14 808.5 1296.14 800.88 1288.52 800.88 1288.52 808.5 1288.52 816.13 1280.89 816.13 1273.26 816.13 1273.26 823.76 1273.26 831.39 1273.26 839.02 1280.89 839.02 1288.52 839.02 1288.52 831.39 1280.89 831.39 1280.89 823.76 1288.52 823.76 1288.52 831.39 1296.14 831.39 1296.14 839.02 1288.52 839.02 1288.52 846.65 1296.14 846.65 1303.77 846.65 1303.77 839.02 1303.77 831.39 1303.77 823.76"/><rect class="cls-7" x="1296.15" y="808.5" width="7.63" height="7.63"/><polygon class="cls-8" points="1288.52 854.28 1288.52 861.9 1288.52 869.53 1296.14 869.53 1296.14 861.9 1296.14 854.28 1296.14 846.65 1288.52 846.65 1288.52 854.28"/><rect class="cls-7" x="1288.52" y="831.39" width="7.63" height="7.63"/><rect class="cls-7" x="1280.89" y="839.02" width="7.63" height="7.63"/><rect class="cls-7" x="1280.89" y="823.76" width="7.63" height="7.63"/><rect class="cls-7" x="1280.89" y="808.5" width="7.63" height="7.63"/><polygon class="cls-6" points="1692.09 823.76 1692.09 831.39 1684.47 831.39 1684.47 823.76 1676.84 823.76 1676.84 816.13 1669.21 816.13 1669.21 823.76 1661.58 823.76 1661.58 831.39 1661.58 839.02 1669.21 839.02 1669.21 831.39 1676.84 831.39 1676.84 839.02 1669.21 839.02 1669.21 846.65 1676.84 846.65 1684.47 846.65 1684.47 839.02 1692.09 839.02 1699.72 839.02 1699.72 831.39 1699.72 823.76 1692.09 823.76"/><rect class="cls-7" x="1684.47" y="839.02" width="7.63" height="7.63"/><rect class="cls-7" x="1684.47" y="823.76" width="7.63" height="7.63"/><rect class="cls-6" x="1684.47" y="816.13" width="7.63" height="7.63"/><rect class="cls-7" x="1684.47" y="808.51" width="7.63" height="7.63"/><polygon class="cls-8" points="1676.84 854.28 1676.84 861.9 1676.84 869.53 1684.47 869.53 1684.47 861.9 1684.47 854.28 1684.47 846.65 1676.84 846.65 1676.84 854.28"/><rect class="cls-7" x="1676.84" y="816.13" width="7.63" height="7.63"/><rect class="cls-6" x="1676.84" y="808.51" width="7.63" height="7.63"/><rect class="cls-7" x="1669.21" y="831.39" width="7.63" height="7.63"/><rect class="cls-7" x="1661.58" y="816.13" width="7.63" height="7.63"/><polygon class="cls-6" points="1782.11 823.76 1782.11 831.39 1774.48 831.39 1774.48 823.76 1766.85 823.76 1766.85 816.13 1759.22 816.13 1759.22 823.76 1751.6 823.76 1751.6 831.39 1751.6 839.02 1759.22 839.02 1759.22 831.39 1766.85 831.39 1766.85 839.02 1759.22 839.02 1759.22 846.65 1766.85 846.65 1774.48 846.65 1774.48 839.02 1782.11 839.02 1789.74 839.02 1789.74 831.39 1789.74 823.76 1782.11 823.76"/><rect class="cls-7" x="1774.48" y="839.02" width="7.63" height="7.63"/><rect class="cls-7" x="1774.48" y="823.76" width="7.63" height="7.63"/><rect class="cls-6" x="1774.48" y="816.13" width="7.63" height="7.63"/><rect class="cls-7" x="1774.48" y="808.51" width="7.63" height="7.63"/><polygon class="cls-8" points="1766.85 854.28 1766.85 861.9 1766.85 869.53 1774.48 869.53 1774.48 861.9 1774.48 854.28 1774.48 846.65 1766.85 846.65 1766.85 854.28"/><rect class="cls-7" x="1766.85" y="816.13" width="7.63" height="7.63"/><rect class="cls-6" x="1766.85" y="808.51" width="7.63" height="7.63"/><rect class="cls-7" x="1759.22" y="831.39" width="7.63" height="7.63"/><rect class="cls-7" x="1751.6" y="816.13" width="7.63" height="7.63"/><rect class="cls-7" x="1406.97" y="831.39" width="7.63" height="7.63"/><polygon class="cls-6" points="1406.97 823.76 1406.97 816.13 1399.34 816.13 1399.34 808.5 1399.34 800.88 1391.71 800.88 1391.71 808.5 1391.71 816.13 1384.08 816.13 1376.45 816.13 1376.45 823.76 1376.45 831.39 1376.45 839.02 1384.08 839.02 1391.71 839.02 1391.71 831.39 1384.08 831.39 1384.08 823.76 1391.71 823.76 1391.71 831.39 1399.34 831.39 1399.34 839.02 1391.71 839.02 1391.71 846.65 1399.34 846.65 1406.97 846.65 1406.97 839.02 1406.97 831.39 1406.97 823.76"/><rect class="cls-7" x="1399.34" y="808.5" width="7.63" height="7.63"/><polygon class="cls-8" points="1391.71 854.28 1391.71 861.9 1391.71 869.53 1399.34 869.53 1399.34 861.9 1399.34 854.28 1399.34 846.65 1391.71 846.65 1391.71 854.28"/><rect class="cls-7" x="1391.71" y="831.39" width="7.63" height="7.63"/><rect class="cls-7" x="1384.08" y="839.02" width="7.63" height="7.63"/><rect class="cls-7" x="1384.08" y="823.76" width="7.63" height="7.63"/><rect class="cls-7" x="1384.08" y="808.5" width="7.63" height="7.63"/><rect class="cls-18" x="-57.12" y="869.51" width="2014.25" height="83.5"/></svg>