<?xml version="1.0" encoding="utf-8"?>
<!-- Generator: Adobe Illustrator 16.0.0, SVG Export Plug-In . SVG Version: 6.00 Build 0)  -->
<!DOCTYPE svg PUBLIC "-//W3C//DTD SVG 1.1//EN" "http://www.w3.org/Graphics/SVG/1.1/DTD/svg11.dtd">
<svg version="1.1" id="Layer_1" xmlns="http://www.w3.org/2000/svg" xmlns:xlink="http://www.w3.org/1999/xlink" x="0px" y="0px"
	 width="471.067px" height="227.546px" viewBox="165.607 287.205 471.067 227.546"
	 enable-background="new 165.607 287.205 471.067 227.546" xml:space="preserve">
<g id="XMLID_4_">
	<g>
		<polygon fill="#BC202D" points="620.375,287.205 604.075,287.205 604.075,303.504 587.775,303.504 587.775,319.804 
			604.075,319.804 620.375,319.804 636.675,319.804 636.675,303.504 636.675,287.205 		"/>
		<rect x="555.501" y="384.678" fill="#7BC1E4" width="16.3" height="16.3"/>
		<rect x="522.901" y="384.678" fill="#7BC1E4" width="16.3" height="16.3"/>
		<rect x="490.302" y="384.678" fill="#7BC1E4" width="16.3" height="16.3"/>
		<rect x="458.027" y="384.678" fill="#7BC1E4" width="16.301" height="16.3"/>
		<rect x="425.428" y="384.678" fill="#7BC1E4" width="16.3" height="16.3"/>
		<rect x="392.828" y="384.678" fill="#7BC1E4" width="16.3" height="16.3"/>
		<g>
			<polygon fill="#A3A3A3" points="458.027,417.277 458.027,433.578 458.027,449.878 458.027,466.178 458.027,482.151 
				458.027,482.478 458.027,498.451 441.728,498.451 441.728,514.751 458.027,514.751 474.328,514.751 474.328,498.451 
				474.328,482.478 474.328,482.151 474.328,466.178 474.328,449.878 474.328,433.578 474.328,417.277 			"/>
			<polygon fill="#A3A3A3" points="425.428,482.151 425.428,466.178 409.128,466.178 409.128,482.478 425.428,482.478 
				425.428,498.451 441.728,498.451 441.728,482.151 			"/>
			<polygon fill="#A3A3A3" points="393.154,449.878 393.154,433.578 376.854,433.578 376.854,449.878 392.828,449.878 
				392.828,466.178 409.128,466.178 409.128,449.878 			"/>
			<rect x="360.555" y="417.277" fill="#A3A3A3" width="16.3" height="16.301"/>
		</g>
		<rect x="360.555" y="384.678" fill="#7BC1E4" width="16.3" height="16.3"/>
		<rect x="327.954" y="384.678" fill="#7BC1E4" width="16.3" height="16.3"/>
		<rect x="295.681" y="384.678" fill="#7BC1E4" width="16.3" height="16.3"/>
		<path fill="#FFFFFF" d="M620.375,319.804h-16.3h-16.3v16.3h-16.3v16.3h-15.975h-16.3h-16.3h-16.3h-15.974h-0.326h-15.974h-16.301
			h-16.3h-16.3h-16.3h-15.974h-0.326h-15.974h-16.3h-16.301h-16.3H311.98h-0.326h-15.974h-16.3v16.3v15.974v0.326v15.975v16.299
			v16.301h16.3h15.974h0.326h15.974h16.3h16.301v-16.301h16.3v16.301h15.974v16.3h16.3v16.3h16.3v16.3h16.3v15.974h16.3v-15.974
			v-0.326v-15.974v-16.3v-16.3v-16.301h16.301v16.301h15.974h0.326h15.974h16.3h16.3h16.3h15.975h0.325h15.975v-16.301h16.3v-16.299
			h16.3v-15.975h16.3v-16.3v-16.3v-16.3v-16.3H620.375z M311.654,400.979h-15.974v-15.975h15.974V400.979z M344.254,400.979h-16.3
			v-15.975h16.3V400.979z M376.854,400.979h-16.3v-15.975h16.3V400.979z M409.128,400.979h-15.974v-15.975h15.974V400.979z
			 M441.728,400.979h-16.3v-15.975h16.3V400.979z M458.027,400.979v-15.975h16.301v15.975H458.027z M490.628,400.979v-15.975h15.974
			v15.975H490.628z M522.901,400.979v-15.975h16.3v15.975H522.901z M571.476,400.979h-15.975v-15.975h15.975V400.979z"/>
		<rect x="263.081" y="384.678" fill="#7BC1E4" width="16.3" height="16.3"/>
		<rect x="230.481" y="384.678" fill="#7BC1E4" width="16.3" height="16.3"/>
		<polygon fill="#7BC1E4" points="198.207,368.704 198.207,384.678 181.907,384.678 181.907,400.979 198.207,400.979 
			214.507,400.979 214.507,385.004 214.507,384.678 214.507,368.704 		"/>
		<path fill="#BC202D" d="M263.081,352.404h-16.3h-16.3h-15.974h-0.326h-15.974v16.3h15.974v15.974v0.326v15.975h-15.974h-16.3
			v-15.975h16.3v-16.3h-16.3v15.974h-16.3v16.3v16.299h16.3v16.301h16.3h15.974h0.326h15.974h16.3h16.3h16.3v-16.301v-16.299h-16.3
			v-15.975h16.3v-16.3v-16.3H263.081z M246.781,400.979h-16.3v-15.975h16.3V400.979z"/>
	</g>
</g>
</svg>
