<?xml version="1.0" encoding="utf-8"?>
<!-- Generator: Adobe Illustrator 16.0.0, SVG Export Plug-In . SVG Version: 6.00 Build 0)  -->
<!DOCTYPE svg PUBLIC "-//W3C//DTD SVG 1.1//EN" "http://www.w3.org/Graphics/SVG/1.1/DTD/svg11.dtd">
<svg version="1.1" id="Layer_1" xmlns="http://www.w3.org/2000/svg" xmlns:xlink="http://www.w3.org/1999/xlink" x="0px" y="0px"
	 width="471.067px" height="227.546px" viewBox="165.607 287.205 471.067 227.546"
	 enable-background="new 165.607 287.205 471.067 227.546" xml:space="preserve">
<g id="XMLID_4_">
	<g>
		<rect x="458.027" y="498.451" fill="#A3A3A3" width="16.301" height="16.3"/>
		<rect x="441.728" y="498.451" fill="#A3A3A3" width="16.3" height="16.3"/>
		<rect x="474.328" y="417.277" fill="#FFFFFF" width="16.3" height="16.301"/>
		<rect x="620.375" y="368.704" fill="#FFFFFF" width="16.3" height="16.3"/>
		<rect x="620.375" y="352.404" fill="#FFFFFF" width="16.3" height="16.3"/>
		<rect x="620.375" y="336.104" fill="#FFFFFF" width="16.3" height="16.3"/>
		<rect x="620.375" y="319.804" fill="#FFFFFF" width="16.3" height="16.3"/>
		<rect x="620.375" y="303.504" fill="#BC202D" width="16.3" height="16.3"/>
		<rect x="620.375" y="287.205" fill="#BC202D" width="16.3" height="16.3"/>
		<rect x="604.075" y="384.678" fill="#FFFFFF" width="16.3" height="16.3"/>
		<rect x="604.075" y="368.704" fill="#FFFFFF" width="16.3" height="16.3"/>
		<rect x="604.075" y="352.404" fill="#FFFFFF" width="16.3" height="16.3"/>
		<rect x="604.075" y="336.104" fill="#FFFFFF" width="16.3" height="16.3"/>
		<rect x="604.075" y="319.804" fill="#FFFFFF" width="16.3" height="16.3"/>
		<rect x="604.075" y="303.504" fill="#BC202D" width="16.3" height="16.3"/>
		<rect x="604.075" y="287.205" fill="#BC202D" width="16.3" height="16.3"/>
		<rect x="587.775" y="400.979" fill="#FFFFFF" width="16.3" height="16.299"/>
		<rect x="587.775" y="384.678" fill="#FFFFFF" width="16.3" height="16.3"/>
		<rect x="587.775" y="368.704" fill="#FFFFFF" width="16.3" height="16.3"/>
		<rect x="587.775" y="352.404" fill="#FFFFFF" width="16.3" height="16.3"/>
		<rect x="587.775" y="336.104" fill="#FFFFFF" width="16.3" height="16.3"/>
		<rect x="587.775" y="319.804" fill="#FFFFFF" width="16.3" height="16.3"/>
		<rect x="587.775" y="303.504" fill="#BC202D" width="16.3" height="16.3"/>
		<rect x="571.476" y="417.277" fill="#FFFFFF" width="16.3" height="16.301"/>
		<rect x="571.476" y="400.979" fill="#FFFFFF" width="16.3" height="16.299"/>
		<rect x="571.476" y="384.678" fill="#FFFFFF" width="16.3" height="16.3"/>
		<rect x="571.476" y="368.704" fill="#FFFFFF" width="16.3" height="16.3"/>
		<rect x="571.476" y="352.404" fill="#FFFFFF" width="16.3" height="16.3"/>
		<rect x="571.476" y="336.104" fill="#FFFFFF" width="16.3" height="16.3"/>
		<rect x="555.501" y="417.277" fill="#FFFFFF" width="16.3" height="16.301"/>
		<rect x="555.501" y="400.979" fill="#FFFFFF" width="16.3" height="16.299"/>
		<rect x="555.501" y="384.678" fill="#7BC1E4" width="16.3" height="16.3"/>
		<rect x="555.501" y="368.704" fill="#FFFFFF" width="16.3" height="16.3"/>
		<rect x="555.501" y="352.404" fill="#FFFFFF" width="16.3" height="16.3"/>
		<rect x="539.201" y="417.277" fill="#FFFFFF" width="16.3" height="16.301"/>
		<rect x="539.201" y="400.979" fill="#FFFFFF" width="16.3" height="16.299"/>
		<rect x="539.201" y="384.678" fill="#FFFFFF" width="16.3" height="16.3"/>
		<rect x="539.201" y="368.704" fill="#FFFFFF" width="16.3" height="16.3"/>
		<rect x="539.201" y="352.404" fill="#FFFFFF" width="16.3" height="16.3"/>
		<rect x="522.901" y="417.277" fill="#FFFFFF" width="16.3" height="16.301"/>
		<rect x="522.901" y="400.979" fill="#FFFFFF" width="16.3" height="16.299"/>
		<rect x="522.901" y="384.678" fill="#7BC1E4" width="16.3" height="16.3"/>
		<rect x="522.901" y="368.704" fill="#FFFFFF" width="16.3" height="16.3"/>
		<rect x="522.901" y="352.404" fill="#FFFFFF" width="16.3" height="16.3"/>
		<rect x="506.602" y="417.277" fill="#FFFFFF" width="16.3" height="16.301"/>
		<rect x="506.602" y="400.979" fill="#FFFFFF" width="16.3" height="16.299"/>
		<rect x="506.602" y="384.678" fill="#FFFFFF" width="16.3" height="16.3"/>
		<rect x="506.602" y="368.704" fill="#FFFFFF" width="16.3" height="16.3"/>
		<rect x="506.602" y="352.404" fill="#FFFFFF" width="16.3" height="16.3"/>
		<rect x="490.302" y="417.277" fill="#FFFFFF" width="16.3" height="16.301"/>
		<rect x="490.302" y="400.979" fill="#FFFFFF" width="16.3" height="16.299"/>
		<rect x="490.302" y="384.678" fill="#7BC1E4" width="16.3" height="16.3"/>
		<rect x="490.302" y="368.704" fill="#FFFFFF" width="16.3" height="16.3"/>
		<rect x="490.302" y="352.404" fill="#FFFFFF" width="16.3" height="16.3"/>
		<rect x="474.328" y="400.979" fill="#FFFFFF" width="16.3" height="16.299"/>
		<rect x="474.328" y="384.678" fill="#FFFFFF" width="16.3" height="16.3"/>
		<rect x="474.328" y="368.704" fill="#FFFFFF" width="16.3" height="16.3"/>
		<rect x="474.328" y="352.404" fill="#FFFFFF" width="16.3" height="16.3"/>
		<rect x="458.027" y="482.151" fill="#A3A3A3" width="16.301" height="16.3"/>
		<rect x="458.027" y="466.178" fill="#A3A3A3" width="16.301" height="16.3"/>
		<rect x="458.027" y="449.878" fill="#A3A3A3" width="16.301" height="16.3"/>
		<rect x="458.027" y="433.578" fill="#A3A3A3" width="16.301" height="16.3"/>
		<rect x="458.027" y="417.277" fill="#A3A3A3" width="16.301" height="16.301"/>
		<rect x="458.027" y="400.979" fill="#FFFFFF" width="16.301" height="16.299"/>
		<rect x="458.027" y="384.678" fill="#7BC1E4" width="16.301" height="16.3"/>
		<rect x="458.027" y="368.704" fill="#FFFFFF" width="16.301" height="16.3"/>
		<rect x="458.027" y="352.404" fill="#FFFFFF" width="16.301" height="16.3"/>
		<rect x="441.728" y="482.151" fill="#FFFFFF" width="16.3" height="16.3"/>
		<rect x="441.728" y="466.178" fill="#FFFFFF" width="16.3" height="16.3"/>
		<rect x="441.728" y="449.878" fill="#FFFFFF" width="16.3" height="16.3"/>
		<rect x="441.728" y="433.578" fill="#FFFFFF" width="16.3" height="16.3"/>
		<rect x="441.728" y="417.277" fill="#FFFFFF" width="16.3" height="16.301"/>
		<rect x="441.728" y="400.979" fill="#FFFFFF" width="16.3" height="16.299"/>
		<rect x="441.728" y="384.678" fill="#FFFFFF" width="16.3" height="16.3"/>
		<rect x="441.728" y="368.704" fill="#FFFFFF" width="16.3" height="16.3"/>
		<rect x="441.728" y="352.404" fill="#FFFFFF" width="16.3" height="16.3"/>
		<rect x="425.428" y="482.151" fill="#A3A3A3" width="16.3" height="16.3"/>
		<rect x="425.428" y="466.178" fill="#FFFFFF" width="16.3" height="16.3"/>
		<rect x="425.428" y="449.878" fill="#FFFFFF" width="16.3" height="16.3"/>
		<rect x="425.428" y="433.578" fill="#FFFFFF" width="16.3" height="16.3"/>
		<rect x="425.428" y="417.277" fill="#FFFFFF" width="16.3" height="16.301"/>
		<rect x="425.428" y="400.979" fill="#FFFFFF" width="16.3" height="16.299"/>
		<rect x="425.428" y="384.678" fill="#7BC1E4" width="16.3" height="16.3"/>
		<rect x="425.428" y="368.704" fill="#FFFFFF" width="16.3" height="16.3"/>
		<rect x="425.428" y="352.404" fill="#FFFFFF" width="16.3" height="16.3"/>
		<rect x="409.128" y="466.178" fill="#A3A3A3" width="16.3" height="16.3"/>
		<rect x="409.128" y="449.878" fill="#FFFFFF" width="16.3" height="16.3"/>
		<rect x="409.128" y="433.578" fill="#FFFFFF" width="16.3" height="16.3"/>
		<rect x="409.128" y="417.277" fill="#FFFFFF" width="16.3" height="16.301"/>
		<rect x="409.128" y="400.979" fill="#FFFFFF" width="16.3" height="16.299"/>
		<rect x="409.128" y="384.678" fill="#FFFFFF" width="16.3" height="16.3"/>
		<rect x="409.128" y="368.704" fill="#FFFFFF" width="16.3" height="16.3"/>
		<rect x="409.128" y="352.404" fill="#FFFFFF" width="16.3" height="16.3"/>
		<rect x="392.828" y="449.878" fill="#A3A3A3" width="16.3" height="16.3"/>
		<rect x="392.828" y="433.578" fill="#FFFFFF" width="16.3" height="16.3"/>
		<rect x="392.828" y="417.277" fill="#FFFFFF" width="16.3" height="16.301"/>
		<rect x="392.828" y="400.979" fill="#FFFFFF" width="16.3" height="16.299"/>
		<rect x="392.828" y="384.678" fill="#7BC1E4" width="16.3" height="16.3"/>
		<rect x="392.828" y="368.704" fill="#FFFFFF" width="16.3" height="16.3"/>
		<rect x="392.828" y="352.404" fill="#FFFFFF" width="16.3" height="16.3"/>
		<rect x="376.854" y="433.578" fill="#A3A3A3" width="16.3" height="16.3"/>
		<rect x="376.854" y="417.277" fill="#FFFFFF" width="16.3" height="16.301"/>
		<rect x="376.854" y="400.979" fill="#FFFFFF" width="16.3" height="16.299"/>
		<rect x="376.854" y="384.678" fill="#FFFFFF" width="16.3" height="16.3"/>
		<rect x="376.854" y="368.704" fill="#FFFFFF" width="16.3" height="16.3"/>
		<rect x="376.854" y="352.404" fill="#FFFFFF" width="16.3" height="16.3"/>
		<rect x="360.555" y="417.277" fill="#A3A3A3" width="16.3" height="16.301"/>
		<rect x="360.555" y="400.979" fill="#FFFFFF" width="16.3" height="16.299"/>
		<rect x="360.555" y="384.678" fill="#7BC1E4" width="16.3" height="16.3"/>
		<rect x="360.555" y="368.704" fill="#FFFFFF" width="16.3" height="16.3"/>
		<rect x="360.555" y="352.404" fill="#FFFFFF" width="16.3" height="16.3"/>
		<rect x="344.254" y="417.277" fill="#FFFFFF" width="16.301" height="16.301"/>
		<rect x="344.254" y="400.979" fill="#FFFFFF" width="16.301" height="16.299"/>
		<rect x="344.254" y="384.678" fill="#FFFFFF" width="16.301" height="16.3"/>
		<rect x="344.254" y="368.704" fill="#FFFFFF" width="16.301" height="16.3"/>
		<rect x="344.254" y="352.404" fill="#FFFFFF" width="16.301" height="16.3"/>
		<rect x="327.954" y="417.277" fill="#FFFFFF" width="16.3" height="16.301"/>
		<rect x="327.954" y="400.979" fill="#FFFFFF" width="16.3" height="16.299"/>
		<rect x="327.954" y="384.678" fill="#7BC1E4" width="16.3" height="16.3"/>
		<rect x="327.954" y="368.704" fill="#FFFFFF" width="16.3" height="16.3"/>
		<rect x="327.954" y="352.404" fill="#FFFFFF" width="16.3" height="16.3"/>
		<rect x="311.654" y="417.277" fill="#FFFFFF" width="16.3" height="16.301"/>
		<rect x="311.654" y="400.979" fill="#FFFFFF" width="16.3" height="16.299"/>
		<rect x="311.654" y="384.678" fill="#FFFFFF" width="16.3" height="16.3"/>
		<rect x="311.654" y="368.704" fill="#FFFFFF" width="16.3" height="16.3"/>
		<rect x="311.654" y="352.404" fill="#FFFFFF" width="16.3" height="16.3"/>
		<rect x="295.681" y="417.277" fill="#FFFFFF" width="16.3" height="16.301"/>
		<rect x="295.681" y="400.979" fill="#FFFFFF" width="16.3" height="16.299"/>
		<rect x="295.681" y="384.678" fill="#7BC1E4" width="16.3" height="16.3"/>
		<rect x="295.681" y="368.704" fill="#FFFFFF" width="16.3" height="16.3"/>
		<rect x="295.681" y="352.404" fill="#FFFFFF" width="16.3" height="16.3"/>
		<rect x="279.38" y="417.277" fill="#FFFFFF" width="16.3" height="16.301"/>
		<rect x="279.38" y="400.979" fill="#FFFFFF" width="16.3" height="16.299"/>
		<rect x="279.38" y="384.678" fill="#FFFFFF" width="16.3" height="16.3"/>
		<rect x="279.38" y="368.704" fill="#FFFFFF" width="16.3" height="16.3"/>
		<rect x="279.38" y="352.404" fill="#FFFFFF" width="16.3" height="16.3"/>
		<rect x="263.081" y="417.277" fill="#BC202D" width="16.3" height="16.301"/>
		<rect x="263.081" y="400.979" fill="#BC202D" width="16.3" height="16.299"/>
		<rect x="263.081" y="384.678" fill="#7BC1E4" width="16.3" height="16.3"/>
		<rect x="263.081" y="368.704" fill="#BC202D" width="16.3" height="16.3"/>
		<rect x="263.081" y="352.404" fill="#BC202D" width="16.3" height="16.3"/>
		<rect x="246.781" y="417.277" fill="#BC202D" width="16.3" height="16.301"/>
		<rect x="246.781" y="400.979" fill="#BC202D" width="16.3" height="16.299"/>
		<rect x="246.781" y="384.678" fill="#BC202D" width="16.3" height="16.3"/>
		<rect x="246.781" y="368.704" fill="#BC202D" width="16.3" height="16.3"/>
		<rect x="246.781" y="352.404" fill="#BC202D" width="16.3" height="16.3"/>
		<rect x="230.481" y="417.277" fill="#BC202D" width="16.3" height="16.301"/>
		<rect x="230.481" y="400.979" fill="#BC202D" width="16.3" height="16.299"/>
		<rect x="230.481" y="384.678" fill="#7BC1E4" width="16.3" height="16.3"/>
		<rect x="230.481" y="368.704" fill="#BC202D" width="16.3" height="16.3"/>
		<rect x="230.481" y="352.404" fill="#BC202D" width="16.3" height="16.3"/>
		<rect x="214.181" y="417.277" fill="#BC202D" width="16.3" height="16.301"/>
		<rect x="214.181" y="400.979" fill="#BC202D" width="16.3" height="16.299"/>
		<rect x="214.181" y="384.678" fill="#BC202D" width="16.3" height="16.3"/>
		<rect x="214.181" y="368.704" fill="#BC202D" width="16.3" height="16.3"/>
		<rect x="214.181" y="352.404" fill="#BC202D" width="16.3" height="16.3"/>
		<rect x="198.207" y="417.277" fill="#BC202D" width="16.3" height="16.301"/>
		<rect x="198.207" y="400.979" fill="#BC202D" width="16.3" height="16.299"/>
		<rect x="198.207" y="384.678" fill="#7BC1E4" width="16.3" height="16.3"/>
		<rect x="198.207" y="368.704" fill="#7BC1E4" width="16.3" height="16.3"/>
		<rect x="198.207" y="352.404" fill="#BC202D" width="16.3" height="16.3"/>
		<rect x="181.907" y="417.277" fill="#BC202D" width="16.3" height="16.301"/>
		<rect x="181.907" y="400.979" fill="#BC202D" width="16.3" height="16.299"/>
		<rect x="181.907" y="384.678" fill="#7BC1E4" width="16.3" height="16.3"/>
		<rect x="181.907" y="368.704" fill="#BC202D" width="16.3" height="16.3"/>
		<rect x="165.607" y="400.979" fill="#BC202D" width="16.3" height="16.299"/>
		<rect x="165.607" y="384.678" fill="#BC202D" width="16.3" height="16.3"/>
	</g>
</g>
</svg>
